%TF.GenerationSoftware,KiCad,Pcbnew,9.0.5*%
%TF.CreationDate,2026-05-01T14:46:18+08:00*%
%TF.ProjectId,__buck,70a76275-636b-42e6-9b69-6361645f7063,rev?*%
%TF.SameCoordinates,Original*%
%TF.FileFunction,Paste,Top*%
%TF.FilePolarity,Positive*%
%FSLAX46Y46*%
G04 Gerber Fmt 4.6, Leading zero omitted, Abs format (unit mm)*
G04 Created by KiCad (PCBNEW 9.0.5) date 2026-05-01 14:46:18*
%MOMM*%
%LPD*%
G01*
G04 APERTURE LIST*
G04 Aperture macros list*
%AMRoundRect*
0 Rectangle with rounded corners*
0 $1 Rounding radius*
0 $2 $3 $4 $5 $6 $7 $8 $9 X,Y pos of 4 corners*
0 Add a 4 corners polygon primitive as box body*
4,1,4,$2,$3,$4,$5,$6,$7,$8,$9,$2,$3,0*
0 Add four circle primitives for the rounded corners*
1,1,$1+$1,$2,$3*
1,1,$1+$1,$4,$5*
1,1,$1+$1,$6,$7*
1,1,$1+$1,$8,$9*
0 Add four rect primitives between the rounded corners*
20,1,$1+$1,$2,$3,$4,$5,0*
20,1,$1+$1,$4,$5,$6,$7,0*
20,1,$1+$1,$6,$7,$8,$9,0*
20,1,$1+$1,$8,$9,$2,$3,0*%
G04 Aperture macros list end*
%ADD10RoundRect,0.250000X-1.000000X-0.900000X1.000000X-0.900000X1.000000X0.900000X-1.000000X0.900000X0*%
%ADD11RoundRect,0.200000X-0.200000X-0.275000X0.200000X-0.275000X0.200000X0.275000X-0.200000X0.275000X0*%
%ADD12RoundRect,0.225000X0.225000X0.250000X-0.225000X0.250000X-0.225000X-0.250000X0.225000X-0.250000X0*%
%ADD13RoundRect,0.250000X-0.475000X0.337500X-0.475000X-0.337500X0.475000X-0.337500X0.475000X0.337500X0*%
%ADD14RoundRect,0.200000X-0.200000X-0.800000X0.200000X-0.800000X0.200000X0.800000X-0.200000X0.800000X0*%
%ADD15RoundRect,0.250000X-0.350000X-0.450000X0.350000X-0.450000X0.350000X0.450000X-0.350000X0.450000X0*%
%ADD16RoundRect,0.250000X-1.000000X1.950000X-1.000000X-1.950000X1.000000X-1.950000X1.000000X1.950000X0*%
%ADD17RoundRect,0.237500X0.237500X-0.250000X0.237500X0.250000X-0.237500X0.250000X-0.237500X-0.250000X0*%
%ADD18RoundRect,0.237500X-0.250000X-0.237500X0.250000X-0.237500X0.250000X0.237500X-0.250000X0.237500X0*%
%ADD19RoundRect,0.237500X0.250000X0.237500X-0.250000X0.237500X-0.250000X-0.237500X0.250000X-0.237500X0*%
%ADD20RoundRect,0.250000X-0.325000X-0.650000X0.325000X-0.650000X0.325000X0.650000X-0.325000X0.650000X0*%
%ADD21RoundRect,0.250000X0.650000X-1.000000X0.650000X1.000000X-0.650000X1.000000X-0.650000X-1.000000X0*%
%ADD22RoundRect,0.375000X0.375000X-0.375000X0.375000X0.375000X-0.375000X0.375000X-0.375000X-0.375000X0*%
%ADD23RoundRect,0.125000X0.125000X-0.250000X0.125000X0.250000X-0.125000X0.250000X-0.125000X-0.250000X0*%
%ADD24RoundRect,0.100000X0.100000X-0.275000X0.100000X0.275000X-0.100000X0.275000X-0.100000X-0.275000X0*%
%ADD25RoundRect,0.250000X-0.337500X-0.475000X0.337500X-0.475000X0.337500X0.475000X-0.337500X0.475000X0*%
%ADD26RoundRect,0.225000X-0.225000X-0.250000X0.225000X-0.250000X0.225000X0.250000X-0.225000X0.250000X0*%
%ADD27R,2.950000X3.500000*%
%ADD28RoundRect,0.250000X1.000000X0.650000X-1.000000X0.650000X-1.000000X-0.650000X1.000000X-0.650000X0*%
%ADD29RoundRect,0.150000X0.825000X0.150000X-0.825000X0.150000X-0.825000X-0.150000X0.825000X-0.150000X0*%
%ADD30RoundRect,0.250000X0.475000X-0.337500X0.475000X0.337500X-0.475000X0.337500X-0.475000X-0.337500X0*%
%ADD31RoundRect,0.150000X-0.150000X-0.700000X0.150000X-0.700000X0.150000X0.700000X-0.150000X0.700000X0*%
%ADD32RoundRect,0.250000X-0.250000X-1.100000X0.250000X-1.100000X0.250000X1.100000X-0.250000X1.100000X0*%
%ADD33RoundRect,0.250000X0.337500X0.475000X-0.337500X0.475000X-0.337500X-0.475000X0.337500X-0.475000X0*%
%ADD34RoundRect,0.150000X-0.825000X-0.150000X0.825000X-0.150000X0.825000X0.150000X-0.825000X0.150000X0*%
%ADD35RoundRect,0.237500X-0.237500X0.250000X-0.237500X-0.250000X0.237500X-0.250000X0.237500X0.250000X0*%
%ADD36RoundRect,0.250002X-1.499998X-6.149998X1.499998X-6.149998X1.499998X6.149998X-1.499998X6.149998X0*%
%ADD37RoundRect,0.249999X-0.450001X-1.425001X0.450001X-1.425001X0.450001X1.425001X-0.450001X1.425001X0*%
%ADD38RoundRect,0.242500X-0.382500X0.242500X-0.382500X-0.242500X0.382500X-0.242500X0.382500X0.242500X0*%
%ADD39RoundRect,0.150000X-0.150000X0.650000X-0.150000X-0.650000X0.150000X-0.650000X0.150000X0.650000X0*%
G04 APERTURE END LIST*
D10*
%TO.C,D1*%
X109000000Y-30000000D03*
X113300000Y-30000000D03*
%TD*%
D11*
%TO.C,R9*%
X133425000Y-59000000D03*
X135075000Y-59000000D03*
%TD*%
D12*
%TO.C,C25*%
X156300000Y-71250000D03*
X154750000Y-71250000D03*
%TD*%
D13*
%TO.C,C27*%
X159500000Y-46462500D03*
X159500000Y-48537500D03*
%TD*%
D14*
%TO.C,SW1*%
X130400000Y-61750000D03*
X134600000Y-61750000D03*
%TD*%
D15*
%TO.C,R15*%
X131500000Y-51000000D03*
X133500000Y-51000000D03*
%TD*%
D16*
%TO.C,C13*%
X140500000Y-46050000D03*
X140500000Y-54450000D03*
%TD*%
D17*
%TO.C,R7*%
X113000000Y-41662500D03*
X113000000Y-39837500D03*
%TD*%
D18*
%TO.C,R3*%
X111587500Y-60000000D03*
X113412500Y-60000000D03*
%TD*%
D17*
%TO.C,R8*%
X111250000Y-41662500D03*
X111250000Y-39837500D03*
%TD*%
D19*
%TO.C,R18*%
X158162500Y-63500000D03*
X156337500Y-63500000D03*
%TD*%
D20*
%TO.C,C36*%
X130025000Y-26000000D03*
X132975000Y-26000000D03*
%TD*%
D21*
%TO.C,D3*%
X126500000Y-35750000D03*
X126500000Y-31750000D03*
%TD*%
D22*
%TO.C,Q1*%
X130650000Y-34750000D03*
X132350000Y-34750000D03*
X130650000Y-33050000D03*
X132350000Y-33050000D03*
D23*
X129595000Y-31645000D03*
X130865000Y-31645000D03*
X132135000Y-31645000D03*
X133405000Y-31645000D03*
D24*
X129595000Y-37450000D03*
X130865000Y-37450000D03*
X132135000Y-37450000D03*
X133405000Y-37450000D03*
%TD*%
D16*
%TO.C,C12*%
X152500000Y-45800000D03*
X152500000Y-54200000D03*
%TD*%
D25*
%TO.C,C2*%
X111962500Y-48250000D03*
X114037500Y-48250000D03*
%TD*%
D26*
%TO.C,C3*%
X111950000Y-58355000D03*
X113500000Y-58355000D03*
%TD*%
D18*
%TO.C,R17*%
X162337500Y-66500000D03*
X164162500Y-66500000D03*
%TD*%
D13*
%TO.C,C37*%
X125500000Y-53500000D03*
X125500000Y-55575000D03*
%TD*%
D26*
%TO.C,C11*%
X130225000Y-59000000D03*
X131775000Y-59000000D03*
%TD*%
D22*
%TO.C,Q2*%
X130670000Y-42555000D03*
X132370000Y-42555000D03*
X130670000Y-40855000D03*
X132370000Y-40855000D03*
D23*
X129615000Y-39450000D03*
X130885000Y-39450000D03*
X132155000Y-39450000D03*
X133425000Y-39450000D03*
D24*
X129615000Y-45255000D03*
X130885000Y-45255000D03*
X132155000Y-45255000D03*
X133425000Y-45255000D03*
%TD*%
D27*
%TO.C,L1*%
X116775000Y-52000000D03*
X122225000Y-52000000D03*
%TD*%
D28*
%TO.C,D2*%
X120500000Y-34500000D03*
X116500000Y-34500000D03*
%TD*%
D29*
%TO.C,U6*%
X159725000Y-69405000D03*
X159725000Y-68135000D03*
X159725000Y-66865000D03*
X159725000Y-65595000D03*
X154775000Y-65595000D03*
X154775000Y-66865000D03*
X154775000Y-68135000D03*
X154775000Y-69405000D03*
%TD*%
D30*
%TO.C,C6*%
X125500000Y-51362500D03*
X125500000Y-49287500D03*
%TD*%
D19*
%TO.C,R16*%
X164162500Y-68250000D03*
X162337500Y-68250000D03*
%TD*%
D17*
%TO.C,R5*%
X123750000Y-35412500D03*
X123750000Y-33587500D03*
%TD*%
D30*
%TO.C,C10*%
X113000000Y-36037500D03*
X113000000Y-33962500D03*
%TD*%
D12*
%TO.C,C5*%
X110025000Y-60000000D03*
X108475000Y-60000000D03*
%TD*%
D18*
%TO.C,R4*%
X108262500Y-58355000D03*
X110087500Y-58355000D03*
%TD*%
D13*
%TO.C,C15*%
X162000000Y-46712500D03*
X162000000Y-48787500D03*
%TD*%
D21*
%TO.C,D4*%
X126500000Y-45750000D03*
X126500000Y-41750000D03*
%TD*%
D31*
%TO.C,J4*%
X143375000Y-75900000D03*
X144625000Y-75900000D03*
X145875000Y-75900000D03*
X147125000Y-75900000D03*
D32*
X141525000Y-79100000D03*
X148975000Y-79100000D03*
%TD*%
D33*
%TO.C,C1*%
X109787500Y-48250000D03*
X107712500Y-48250000D03*
%TD*%
D18*
%TO.C,R2*%
X116112500Y-56750000D03*
X117937500Y-56750000D03*
%TD*%
D34*
%TO.C,U4*%
X115525000Y-37595000D03*
X115525000Y-38865000D03*
X115525000Y-40135000D03*
X115525000Y-41405000D03*
X120475000Y-41405000D03*
X120475000Y-40135000D03*
X120475000Y-38865000D03*
X120475000Y-37595000D03*
%TD*%
D13*
%TO.C,C9*%
X123000000Y-37962500D03*
X123000000Y-40037500D03*
%TD*%
D12*
%TO.C,C24*%
X156275000Y-73000000D03*
X154725000Y-73000000D03*
%TD*%
D35*
%TO.C,R1*%
X107687500Y-50442500D03*
X107687500Y-52267500D03*
%TD*%
D36*
%TO.C,L2*%
X137900000Y-33750000D03*
X152600000Y-33750000D03*
%TD*%
D37*
%TO.C,R11*%
X156450000Y-40750000D03*
X162550000Y-40750000D03*
%TD*%
D26*
%TO.C,C4*%
X119775000Y-56750000D03*
X121325000Y-56750000D03*
%TD*%
D17*
%TO.C,R6*%
X123750000Y-44500000D03*
X123750000Y-42675000D03*
%TD*%
D20*
%TO.C,C38*%
X130050000Y-29250000D03*
X133000000Y-29250000D03*
%TD*%
D15*
%TO.C,R21*%
X131600000Y-53400000D03*
X133600000Y-53400000D03*
%TD*%
D33*
%TO.C,C26*%
X161787500Y-51000000D03*
X159712500Y-51000000D03*
%TD*%
D38*
%TO.C,U2*%
X112250000Y-52800000D03*
X110700000Y-52800000D03*
X112250000Y-54000000D03*
X110700000Y-54000000D03*
D39*
X113380000Y-50750000D03*
X112110000Y-50750000D03*
X110840000Y-50750000D03*
X109570000Y-50750000D03*
X109570000Y-56050000D03*
X110840000Y-56050000D03*
X112110000Y-56050000D03*
X113380000Y-56050000D03*
%TD*%
M02*
