%TF.GenerationSoftware,KiCad,Pcbnew,9.0.5*%
%TF.CreationDate,2026-05-01T14:46:18+08:00*%
%TF.ProjectId,__buck,70a76275-636b-42e6-9b69-6361645f7063,rev?*%
%TF.SameCoordinates,Original*%
%TF.FileFunction,Copper,L2,Inr*%
%TF.FilePolarity,Positive*%
%FSLAX46Y46*%
G04 Gerber Fmt 4.6, Leading zero omitted, Abs format (unit mm)*
G04 Created by KiCad (PCBNEW 9.0.5) date 2026-05-01 14:46:18*
%MOMM*%
%LPD*%
G01*
G04 APERTURE LIST*
G04 Aperture macros list*
%AMRoundRect*
0 Rectangle with rounded corners*
0 $1 Rounding radius*
0 $2 $3 $4 $5 $6 $7 $8 $9 X,Y pos of 4 corners*
0 Add a 4 corners polygon primitive as box body*
4,1,4,$2,$3,$4,$5,$6,$7,$8,$9,$2,$3,0*
0 Add four circle primitives for the rounded corners*
1,1,$1+$1,$2,$3*
1,1,$1+$1,$4,$5*
1,1,$1+$1,$6,$7*
1,1,$1+$1,$8,$9*
0 Add four rect primitives between the rounded corners*
20,1,$1+$1,$2,$3,$4,$5,0*
20,1,$1+$1,$4,$5,$6,$7,0*
20,1,$1+$1,$6,$7,$8,$9,0*
20,1,$1+$1,$8,$9,$2,$3,0*%
G04 Aperture macros list end*
%TA.AperFunction,ComponentPad*%
%ADD10RoundRect,0.760000X1.140000X-1.140000X1.140000X1.140000X-1.140000X1.140000X-1.140000X-1.140000X0*%
%TD*%
%TA.AperFunction,ComponentPad*%
%ADD11C,4.000000*%
%TD*%
%TA.AperFunction,ComponentPad*%
%ADD12RoundRect,0.760000X1.140000X1.140000X-1.140000X1.140000X-1.140000X-1.140000X1.140000X-1.140000X0*%
%TD*%
%TA.AperFunction,ComponentPad*%
%ADD13C,3.800000*%
%TD*%
%TA.AperFunction,HeatsinkPad*%
%ADD14C,0.500000*%
%TD*%
%TA.AperFunction,ViaPad*%
%ADD15C,0.600000*%
%TD*%
%TA.AperFunction,ViaPad*%
%ADD16C,0.500000*%
%TD*%
G04 APERTURE END LIST*
D10*
%TO.N,GNDPWR*%
%TO.C,J5*%
X162250000Y-60750000D03*
D11*
%TO.N,+24V*%
X162250000Y-55750000D03*
%TD*%
D12*
%TO.N,GND*%
%TO.C,J2*%
X114500000Y-24250000D03*
D13*
%TO.N,+48V*%
X109500000Y-24250000D03*
%TD*%
D14*
%TO.N,GND*%
%TO.C,U2*%
X112775000Y-52445000D03*
X111475000Y-52445000D03*
X110175000Y-52445000D03*
X112775000Y-54355000D03*
X111475000Y-54355000D03*
X110175000Y-54355000D03*
%TD*%
D15*
%TO.N,+3.3V*%
X140725000Y-59000000D03*
D16*
%TO.N,+48V*%
X129800000Y-31800000D03*
X132732111Y-28763564D03*
X132800000Y-34000000D03*
X132600000Y-29400000D03*
X110800000Y-28371198D03*
X133249376Y-29371466D03*
X110400000Y-27200000D03*
X109600000Y-30000000D03*
X130000000Y-34200000D03*
X131600000Y-34000000D03*
X132000000Y-31800000D03*
X130400000Y-33600000D03*
X110000000Y-29200000D03*
X130200000Y-32600000D03*
X131400000Y-31800000D03*
X108400000Y-28200000D03*
X108200000Y-29200000D03*
X133000000Y-31800000D03*
X131400000Y-35200000D03*
X133200000Y-25600000D03*
X133436787Y-28669596D03*
X133200000Y-33200000D03*
X132600000Y-26200000D03*
X132200000Y-34550000D03*
X131800000Y-32600000D03*
X107800000Y-27400000D03*
X130000000Y-35200000D03*
X109000000Y-29200000D03*
X133200000Y-26200000D03*
X132200000Y-33400000D03*
X130600000Y-31800000D03*
X109000000Y-30600000D03*
X109400000Y-27600000D03*
X130800000Y-34600000D03*
X132600000Y-32600000D03*
X108400000Y-30000000D03*
X129800000Y-33200000D03*
X132600000Y-25600000D03*
X109800000Y-28400000D03*
X133000000Y-35200000D03*
D15*
%TO.N,GND*%
X111000000Y-44200000D03*
D16*
X111100000Y-67400000D03*
X123200000Y-69700000D03*
D15*
X123600000Y-58800000D03*
X107200000Y-54400000D03*
X136400000Y-24200000D03*
X110000000Y-36200000D03*
D16*
X120500000Y-69700000D03*
X114300000Y-70700000D03*
D15*
X127000000Y-29600000D03*
D16*
X114400000Y-66800000D03*
D15*
X114400000Y-35000000D03*
X165200000Y-37800000D03*
D16*
X117200000Y-66800000D03*
D15*
X111200000Y-46000000D03*
D16*
X127500000Y-66300000D03*
D15*
X108200000Y-54400000D03*
X145600000Y-24200000D03*
X139400000Y-24200000D03*
X158000000Y-26400000D03*
D16*
X127300000Y-71900000D03*
D15*
X158000000Y-33200000D03*
D16*
X118100000Y-71000000D03*
X121200000Y-66700000D03*
D15*
X110000000Y-40200000D03*
D16*
X111300000Y-70400000D03*
D15*
X148400000Y-24400000D03*
D16*
X127500000Y-62800000D03*
D15*
X111000000Y-34000000D03*
X158200000Y-30800000D03*
D16*
X127500000Y-68300000D03*
D15*
X111000000Y-43000000D03*
D16*
X124800000Y-56800000D03*
D15*
X127000000Y-59400000D03*
X110000000Y-37000000D03*
X110000000Y-39400000D03*
X158200000Y-27200000D03*
X142200000Y-24200000D03*
D16*
X127400000Y-69800000D03*
D15*
X116800000Y-45400000D03*
X125000000Y-57800000D03*
X162400000Y-37800000D03*
X137400000Y-24200000D03*
X158200000Y-36200000D03*
X158400000Y-37800000D03*
X155200000Y-25800000D03*
X114000000Y-52200000D03*
X152400000Y-24400000D03*
X126200000Y-60200000D03*
X144800000Y-24200000D03*
X116800000Y-44200000D03*
X149600000Y-24400000D03*
X125600000Y-61000000D03*
X143000000Y-24200000D03*
X117600000Y-47000000D03*
X159400000Y-37800000D03*
X114400000Y-34000000D03*
X156000000Y-25800000D03*
X111000000Y-33200000D03*
D16*
X124400000Y-58600000D03*
D15*
X140200000Y-24200000D03*
D16*
X126000000Y-65600000D03*
D15*
X128200000Y-29600000D03*
D16*
X125500000Y-68800000D03*
D15*
X164400000Y-37800000D03*
X116800000Y-46400000D03*
X153600000Y-24400000D03*
X135600000Y-26400000D03*
X158200000Y-29600000D03*
X158200000Y-35400000D03*
D16*
X127500000Y-64500000D03*
D15*
X161400000Y-37800000D03*
X114400000Y-50600000D03*
X134800000Y-26400000D03*
X158000000Y-32200000D03*
X114000000Y-53400000D03*
D16*
X125800000Y-57100000D03*
%TO.N,+12V*%
X120200000Y-54025000D03*
%TO.N,Net-(C4-Pad1)*%
X119800000Y-60100000D03*
X119800000Y-61600000D03*
D15*
%TO.N,+3.3V*%
X148250000Y-62750000D03*
D16*
X140700000Y-74100000D03*
X152250000Y-72525000D03*
D15*
%TO.N,GNDA*%
X130200000Y-57200000D03*
D16*
X130000000Y-70250000D03*
D15*
X132600000Y-57200000D03*
D16*
X158875000Y-75400000D03*
D15*
X128800000Y-76600000D03*
D16*
X132250000Y-72250000D03*
X139200000Y-57600000D03*
D15*
X128800000Y-68800000D03*
X128800000Y-63400000D03*
D16*
X130000000Y-69500000D03*
X141600000Y-79200000D03*
D15*
X149900000Y-57700000D03*
D16*
X133000000Y-72250000D03*
X134000000Y-65750000D03*
X141100000Y-57600000D03*
X149200000Y-79200000D03*
X130000000Y-71750000D03*
D15*
X152050000Y-57700000D03*
X128800000Y-67200000D03*
D16*
X134750000Y-65750000D03*
D15*
X128800000Y-70600000D03*
X128800000Y-75600000D03*
D16*
X130000000Y-71000000D03*
D15*
X129000000Y-57800000D03*
D16*
X156300000Y-71250000D03*
D15*
X130400000Y-75400000D03*
D16*
X130225000Y-59000000D03*
X133250000Y-65750000D03*
X130750000Y-72250000D03*
X131500000Y-72250000D03*
D15*
%TO.N,GNDPWR*%
X133000000Y-48800000D03*
X128600000Y-46200000D03*
X158800000Y-54800000D03*
X133000000Y-47800000D03*
X128600000Y-47000000D03*
X158800000Y-54000000D03*
%TO.N,+24V*%
X162500000Y-43000000D03*
D16*
X165250000Y-68000000D03*
D15*
%TO.N,Net-(L2-Pad2)*%
X158250000Y-41750000D03*
%TO.N,/U1_RX*%
X143400000Y-74200000D03*
%TO.N,/U1_TX*%
X144700000Y-74200000D03*
D16*
%TO.N,/HRTIM_-*%
X143400000Y-64400000D03*
X112250000Y-43250000D03*
%TO.N,/HRTIM_+*%
X145800000Y-65600000D03*
X111800000Y-38500000D03*
D15*
%TO.N,/NRST*%
X136750000Y-64250000D03*
%TO.N,/comp_volt*%
X148000000Y-64250000D03*
%TO.N,/adc_volt*%
X155250000Y-63500000D03*
%TD*%
%TA.AperFunction,Conductor*%
%TO.N,GND*%
G36*
X165442539Y-21520185D02*
G01*
X165488294Y-21572989D01*
X165499500Y-21624500D01*
X165499500Y-67133330D01*
X165479815Y-67200369D01*
X165427011Y-67246124D01*
X165357853Y-67256068D01*
X165351311Y-67254948D01*
X165323919Y-67249500D01*
X165323918Y-67249500D01*
X165176082Y-67249500D01*
X165176080Y-67249500D01*
X165031092Y-67278340D01*
X165031082Y-67278343D01*
X164894511Y-67334912D01*
X164894498Y-67334919D01*
X164771584Y-67417048D01*
X164771580Y-67417051D01*
X164667051Y-67521580D01*
X164667048Y-67521584D01*
X164584919Y-67644498D01*
X164584912Y-67644511D01*
X164528343Y-67781082D01*
X164528340Y-67781092D01*
X164499500Y-67926079D01*
X164499500Y-67926082D01*
X164499500Y-68073918D01*
X164499500Y-68073920D01*
X164499499Y-68073920D01*
X164528340Y-68218907D01*
X164528343Y-68218917D01*
X164584912Y-68355488D01*
X164584919Y-68355501D01*
X164667048Y-68478415D01*
X164667051Y-68478419D01*
X164771580Y-68582948D01*
X164771584Y-68582951D01*
X164894498Y-68665080D01*
X164894511Y-68665087D01*
X165029868Y-68721153D01*
X165031087Y-68721658D01*
X165031091Y-68721658D01*
X165031092Y-68721659D01*
X165176079Y-68750500D01*
X165176082Y-68750500D01*
X165323919Y-68750500D01*
X165351308Y-68745052D01*
X165420899Y-68751279D01*
X165476077Y-68794141D01*
X165499322Y-68860031D01*
X165499500Y-68866669D01*
X165499500Y-80375500D01*
X165479815Y-80442539D01*
X165427011Y-80488294D01*
X165375500Y-80499500D01*
X106624500Y-80499500D01*
X106557461Y-80479815D01*
X106511706Y-80427011D01*
X106500500Y-80375500D01*
X106500500Y-79273920D01*
X140849499Y-79273920D01*
X140878340Y-79418907D01*
X140878343Y-79418917D01*
X140934912Y-79555488D01*
X140934919Y-79555501D01*
X141017048Y-79678415D01*
X141017051Y-79678419D01*
X141121580Y-79782948D01*
X141121584Y-79782951D01*
X141244498Y-79865080D01*
X141244511Y-79865087D01*
X141381082Y-79921656D01*
X141381087Y-79921658D01*
X141381091Y-79921658D01*
X141381092Y-79921659D01*
X141526079Y-79950500D01*
X141526082Y-79950500D01*
X141673920Y-79950500D01*
X141771462Y-79931096D01*
X141818913Y-79921658D01*
X141955495Y-79865084D01*
X142078416Y-79782951D01*
X142182951Y-79678416D01*
X142265084Y-79555495D01*
X142321658Y-79418913D01*
X142350500Y-79273920D01*
X148449499Y-79273920D01*
X148478340Y-79418907D01*
X148478343Y-79418917D01*
X148534912Y-79555488D01*
X148534919Y-79555501D01*
X148617048Y-79678415D01*
X148617051Y-79678419D01*
X148721580Y-79782948D01*
X148721584Y-79782951D01*
X148844498Y-79865080D01*
X148844511Y-79865087D01*
X148981082Y-79921656D01*
X148981087Y-79921658D01*
X148981091Y-79921658D01*
X148981092Y-79921659D01*
X149126079Y-79950500D01*
X149126082Y-79950500D01*
X149273920Y-79950500D01*
X149371462Y-79931096D01*
X149418913Y-79921658D01*
X149555495Y-79865084D01*
X149678416Y-79782951D01*
X149782951Y-79678416D01*
X149865084Y-79555495D01*
X149921658Y-79418913D01*
X149950500Y-79273918D01*
X149950500Y-79126082D01*
X149950500Y-79126079D01*
X149921659Y-78981092D01*
X149921658Y-78981091D01*
X149921658Y-78981087D01*
X149921656Y-78981082D01*
X149865087Y-78844511D01*
X149865080Y-78844498D01*
X149782951Y-78721584D01*
X149782948Y-78721580D01*
X149678419Y-78617051D01*
X149678415Y-78617048D01*
X149555501Y-78534919D01*
X149555488Y-78534912D01*
X149418917Y-78478343D01*
X149418907Y-78478340D01*
X149273920Y-78449500D01*
X149273918Y-78449500D01*
X149126082Y-78449500D01*
X149126080Y-78449500D01*
X148981092Y-78478340D01*
X148981082Y-78478343D01*
X148844511Y-78534912D01*
X148844498Y-78534919D01*
X148721584Y-78617048D01*
X148721580Y-78617051D01*
X148617051Y-78721580D01*
X148617048Y-78721584D01*
X148534919Y-78844498D01*
X148534912Y-78844511D01*
X148478343Y-78981082D01*
X148478340Y-78981092D01*
X148449500Y-79126079D01*
X148449500Y-79126082D01*
X148449500Y-79273918D01*
X148449500Y-79273920D01*
X148449499Y-79273920D01*
X142350500Y-79273920D01*
X142350500Y-79273918D01*
X142350500Y-79126082D01*
X142350500Y-79126079D01*
X142321659Y-78981092D01*
X142321658Y-78981091D01*
X142321658Y-78981087D01*
X142321656Y-78981082D01*
X142265087Y-78844511D01*
X142265080Y-78844498D01*
X142182951Y-78721584D01*
X142182948Y-78721580D01*
X142078419Y-78617051D01*
X142078415Y-78617048D01*
X141955501Y-78534919D01*
X141955488Y-78534912D01*
X141818917Y-78478343D01*
X141818907Y-78478340D01*
X141673920Y-78449500D01*
X141673918Y-78449500D01*
X141526082Y-78449500D01*
X141526080Y-78449500D01*
X141381092Y-78478340D01*
X141381082Y-78478343D01*
X141244511Y-78534912D01*
X141244498Y-78534919D01*
X141121584Y-78617048D01*
X141121580Y-78617051D01*
X141017051Y-78721580D01*
X141017048Y-78721584D01*
X140934919Y-78844498D01*
X140934912Y-78844511D01*
X140878343Y-78981082D01*
X140878340Y-78981092D01*
X140849500Y-79126079D01*
X140849500Y-79126082D01*
X140849500Y-79273918D01*
X140849500Y-79273920D01*
X140849499Y-79273920D01*
X106500500Y-79273920D01*
X106500500Y-75521153D01*
X127999500Y-75521153D01*
X127999500Y-75678846D01*
X128030261Y-75833489D01*
X128030264Y-75833501D01*
X128090602Y-75979172D01*
X128090609Y-75979185D01*
X128125304Y-76031109D01*
X128146182Y-76097786D01*
X128127698Y-76165167D01*
X128125304Y-76168891D01*
X128090609Y-76220814D01*
X128090602Y-76220827D01*
X128030264Y-76366498D01*
X128030261Y-76366510D01*
X127999500Y-76521153D01*
X127999500Y-76678846D01*
X128030261Y-76833489D01*
X128030264Y-76833501D01*
X128090602Y-76979172D01*
X128090609Y-76979185D01*
X128178210Y-77110288D01*
X128178213Y-77110292D01*
X128289707Y-77221786D01*
X128289711Y-77221789D01*
X128420814Y-77309390D01*
X128420827Y-77309397D01*
X128566498Y-77369735D01*
X128566503Y-77369737D01*
X128721153Y-77400499D01*
X128721156Y-77400500D01*
X128721158Y-77400500D01*
X128878844Y-77400500D01*
X128878845Y-77400499D01*
X129033497Y-77369737D01*
X129179179Y-77309394D01*
X129310289Y-77221789D01*
X129421789Y-77110289D01*
X129509394Y-76979179D01*
X129569737Y-76833497D01*
X129600500Y-76678842D01*
X129600500Y-76521158D01*
X129600500Y-76521155D01*
X129600499Y-76521153D01*
X129569738Y-76366510D01*
X129569737Y-76366503D01*
X129569735Y-76366498D01*
X129509396Y-76220825D01*
X129509394Y-76220822D01*
X129509394Y-76220821D01*
X129474694Y-76168889D01*
X129470723Y-76156208D01*
X129462539Y-76145736D01*
X129460485Y-76123512D01*
X129453816Y-76102215D01*
X129457188Y-76087847D01*
X129456109Y-76076163D01*
X129464981Y-76054655D01*
X129467754Y-76042845D01*
X129470898Y-76036791D01*
X129509394Y-75979179D01*
X129543155Y-75897671D01*
X129545621Y-75892924D01*
X129566245Y-75871424D01*
X129584941Y-75848224D01*
X129590172Y-75846482D01*
X129593989Y-75842504D01*
X129622965Y-75835567D01*
X129651235Y-75826158D01*
X129656577Y-75827521D01*
X129661939Y-75826238D01*
X129690061Y-75836066D01*
X129718935Y-75843436D01*
X129723485Y-75847749D01*
X129727897Y-75849291D01*
X129735851Y-75859469D01*
X129758764Y-75881186D01*
X129778211Y-75910290D01*
X129889707Y-76021786D01*
X129889711Y-76021789D01*
X130020814Y-76109390D01*
X130020827Y-76109397D01*
X130164463Y-76168892D01*
X130166503Y-76169737D01*
X130321153Y-76200499D01*
X130321156Y-76200500D01*
X130321158Y-76200500D01*
X130478844Y-76200500D01*
X130478845Y-76200499D01*
X130633497Y-76169737D01*
X130779179Y-76109394D01*
X130910289Y-76021789D01*
X131021789Y-75910289D01*
X131109394Y-75779179D01*
X131169737Y-75633497D01*
X131200500Y-75478842D01*
X131200500Y-75473920D01*
X158124499Y-75473920D01*
X158153340Y-75618907D01*
X158153343Y-75618917D01*
X158209912Y-75755488D01*
X158209919Y-75755501D01*
X158292048Y-75878415D01*
X158292051Y-75878419D01*
X158396580Y-75982948D01*
X158396584Y-75982951D01*
X158519498Y-76065080D01*
X158519511Y-76065087D01*
X158609147Y-76102215D01*
X158656087Y-76121658D01*
X158656091Y-76121658D01*
X158656092Y-76121659D01*
X158801079Y-76150500D01*
X158801082Y-76150500D01*
X158948920Y-76150500D01*
X159046462Y-76131096D01*
X159093913Y-76121658D01*
X159230495Y-76065084D01*
X159353416Y-75982951D01*
X159457951Y-75878416D01*
X159540084Y-75755495D01*
X159596658Y-75618913D01*
X159624520Y-75478846D01*
X159625500Y-75473920D01*
X159625500Y-75326079D01*
X159596659Y-75181092D01*
X159596658Y-75181091D01*
X159596658Y-75181087D01*
X159590615Y-75166498D01*
X159540087Y-75044511D01*
X159540080Y-75044498D01*
X159457951Y-74921584D01*
X159457948Y-74921580D01*
X159353419Y-74817051D01*
X159353415Y-74817048D01*
X159230501Y-74734919D01*
X159230488Y-74734912D01*
X159093917Y-74678343D01*
X159093907Y-74678340D01*
X158948920Y-74649500D01*
X158948918Y-74649500D01*
X158801082Y-74649500D01*
X158801080Y-74649500D01*
X158656092Y-74678340D01*
X158656082Y-74678343D01*
X158519511Y-74734912D01*
X158519498Y-74734919D01*
X158396584Y-74817048D01*
X158396580Y-74817051D01*
X158292051Y-74921580D01*
X158292048Y-74921584D01*
X158209919Y-75044498D01*
X158209912Y-75044511D01*
X158153343Y-75181082D01*
X158153340Y-75181092D01*
X158124500Y-75326079D01*
X158124500Y-75326082D01*
X158124500Y-75473918D01*
X158124500Y-75473920D01*
X158124499Y-75473920D01*
X131200500Y-75473920D01*
X131200500Y-75321158D01*
X131200500Y-75321155D01*
X131200499Y-75321153D01*
X131180543Y-75220827D01*
X131169737Y-75166503D01*
X131137929Y-75089711D01*
X131109397Y-75020827D01*
X131109390Y-75020814D01*
X131021789Y-74889711D01*
X131021786Y-74889707D01*
X130910292Y-74778213D01*
X130910288Y-74778210D01*
X130779185Y-74690609D01*
X130779172Y-74690602D01*
X130633501Y-74630264D01*
X130633489Y-74630261D01*
X130478845Y-74599500D01*
X130478842Y-74599500D01*
X130321158Y-74599500D01*
X130321155Y-74599500D01*
X130166510Y-74630261D01*
X130166498Y-74630264D01*
X130020827Y-74690602D01*
X130020814Y-74690609D01*
X129889711Y-74778210D01*
X129889707Y-74778213D01*
X129778213Y-74889707D01*
X129778210Y-74889711D01*
X129690609Y-75020814D01*
X129690604Y-75020823D01*
X129658897Y-75097373D01*
X129615056Y-75151776D01*
X129548762Y-75173841D01*
X129481063Y-75156562D01*
X129441235Y-75118812D01*
X129421791Y-75089713D01*
X129421786Y-75089707D01*
X129310292Y-74978213D01*
X129310288Y-74978210D01*
X129179185Y-74890609D01*
X129179172Y-74890602D01*
X129033501Y-74830264D01*
X129033489Y-74830261D01*
X128878845Y-74799500D01*
X128878842Y-74799500D01*
X128721158Y-74799500D01*
X128721155Y-74799500D01*
X128566510Y-74830261D01*
X128566498Y-74830264D01*
X128420827Y-74890602D01*
X128420814Y-74890609D01*
X128289711Y-74978210D01*
X128289707Y-74978213D01*
X128178213Y-75089707D01*
X128178210Y-75089711D01*
X128090609Y-75220814D01*
X128090602Y-75220827D01*
X128030264Y-75366498D01*
X128030261Y-75366510D01*
X127999500Y-75521153D01*
X106500500Y-75521153D01*
X106500500Y-74173920D01*
X139949499Y-74173920D01*
X139978340Y-74318907D01*
X139978343Y-74318917D01*
X140034912Y-74455488D01*
X140034919Y-74455501D01*
X140117048Y-74578415D01*
X140117051Y-74578419D01*
X140221580Y-74682948D01*
X140221584Y-74682951D01*
X140344498Y-74765080D01*
X140344511Y-74765087D01*
X140481082Y-74821656D01*
X140481087Y-74821658D01*
X140481091Y-74821658D01*
X140481092Y-74821659D01*
X140626079Y-74850500D01*
X140626082Y-74850500D01*
X140773920Y-74850500D01*
X140875664Y-74830261D01*
X140918913Y-74821658D01*
X141055495Y-74765084D01*
X141178416Y-74682951D01*
X141282951Y-74578416D01*
X141365084Y-74455495D01*
X141421658Y-74318913D01*
X141450500Y-74173918D01*
X141450500Y-74121153D01*
X142599500Y-74121153D01*
X142599500Y-74278846D01*
X142630261Y-74433489D01*
X142630264Y-74433501D01*
X142690602Y-74579172D01*
X142690609Y-74579185D01*
X142778210Y-74710288D01*
X142778213Y-74710292D01*
X142889707Y-74821786D01*
X142889711Y-74821789D01*
X143020814Y-74909390D01*
X143020827Y-74909397D01*
X143166498Y-74969735D01*
X143166503Y-74969737D01*
X143321153Y-75000499D01*
X143321156Y-75000500D01*
X143321158Y-75000500D01*
X143478844Y-75000500D01*
X143478845Y-75000499D01*
X143633497Y-74969737D01*
X143779179Y-74909394D01*
X143910289Y-74821789D01*
X143932578Y-74799500D01*
X143962319Y-74769760D01*
X144023642Y-74736275D01*
X144093334Y-74741259D01*
X144137681Y-74769760D01*
X144189707Y-74821786D01*
X144189711Y-74821789D01*
X144320814Y-74909390D01*
X144320827Y-74909397D01*
X144466498Y-74969735D01*
X144466503Y-74969737D01*
X144621153Y-75000499D01*
X144621156Y-75000500D01*
X144621158Y-75000500D01*
X144778844Y-75000500D01*
X144778845Y-75000499D01*
X144933497Y-74969737D01*
X145079179Y-74909394D01*
X145210289Y-74821789D01*
X145321789Y-74710289D01*
X145409394Y-74579179D01*
X145409711Y-74578415D01*
X145423067Y-74546166D01*
X145469737Y-74433497D01*
X145500500Y-74278842D01*
X145500500Y-74121158D01*
X145500500Y-74121155D01*
X145500499Y-74121153D01*
X145469738Y-73966510D01*
X145469737Y-73966503D01*
X145434355Y-73881082D01*
X145409397Y-73820827D01*
X145409390Y-73820814D01*
X145321789Y-73689711D01*
X145321786Y-73689707D01*
X145210292Y-73578213D01*
X145210288Y-73578210D01*
X145079185Y-73490609D01*
X145079172Y-73490602D01*
X144933501Y-73430264D01*
X144933489Y-73430261D01*
X144778845Y-73399500D01*
X144778842Y-73399500D01*
X144621158Y-73399500D01*
X144621155Y-73399500D01*
X144466510Y-73430261D01*
X144466498Y-73430264D01*
X144320827Y-73490602D01*
X144320814Y-73490609D01*
X144189711Y-73578210D01*
X144189707Y-73578213D01*
X144137681Y-73630240D01*
X144076358Y-73663725D01*
X144006666Y-73658741D01*
X143962319Y-73630240D01*
X143910292Y-73578213D01*
X143910288Y-73578210D01*
X143779185Y-73490609D01*
X143779172Y-73490602D01*
X143633501Y-73430264D01*
X143633489Y-73430261D01*
X143478845Y-73399500D01*
X143478842Y-73399500D01*
X143321158Y-73399500D01*
X143321155Y-73399500D01*
X143166510Y-73430261D01*
X143166498Y-73430264D01*
X143020827Y-73490602D01*
X143020814Y-73490609D01*
X142889711Y-73578210D01*
X142889707Y-73578213D01*
X142778213Y-73689707D01*
X142778210Y-73689711D01*
X142690609Y-73820814D01*
X142690602Y-73820827D01*
X142630264Y-73966498D01*
X142630261Y-73966510D01*
X142599500Y-74121153D01*
X141450500Y-74121153D01*
X141450500Y-74026082D01*
X141450500Y-74026079D01*
X141421659Y-73881092D01*
X141421658Y-73881091D01*
X141421658Y-73881087D01*
X141396692Y-73820814D01*
X141365087Y-73744511D01*
X141365080Y-73744498D01*
X141282951Y-73621584D01*
X141282948Y-73621580D01*
X141178419Y-73517051D01*
X141178415Y-73517048D01*
X141055501Y-73434919D01*
X141055488Y-73434912D01*
X140918917Y-73378343D01*
X140918907Y-73378340D01*
X140773920Y-73349500D01*
X140773918Y-73349500D01*
X140626082Y-73349500D01*
X140626080Y-73349500D01*
X140481092Y-73378340D01*
X140481082Y-73378343D01*
X140344511Y-73434912D01*
X140344498Y-73434919D01*
X140221584Y-73517048D01*
X140221580Y-73517051D01*
X140117051Y-73621580D01*
X140117048Y-73621584D01*
X140034919Y-73744498D01*
X140034912Y-73744511D01*
X139978343Y-73881082D01*
X139978340Y-73881092D01*
X139949500Y-74026079D01*
X139949500Y-74026082D01*
X139949500Y-74173918D01*
X139949500Y-74173920D01*
X139949499Y-74173920D01*
X106500500Y-74173920D01*
X106500500Y-67121153D01*
X127999500Y-67121153D01*
X127999500Y-67278846D01*
X128030261Y-67433489D01*
X128030264Y-67433501D01*
X128090602Y-67579172D01*
X128090609Y-67579185D01*
X128178210Y-67710288D01*
X128178213Y-67710292D01*
X128289707Y-67821786D01*
X128289711Y-67821789D01*
X128402118Y-67896898D01*
X128446923Y-67950510D01*
X128455630Y-68019835D01*
X128425475Y-68082863D01*
X128402118Y-68103102D01*
X128289711Y-68178210D01*
X128289707Y-68178213D01*
X128178213Y-68289707D01*
X128178210Y-68289711D01*
X128090609Y-68420814D01*
X128090602Y-68420827D01*
X128030264Y-68566498D01*
X128030261Y-68566510D01*
X127999500Y-68721153D01*
X127999500Y-68878846D01*
X128030261Y-69033489D01*
X128030264Y-69033501D01*
X128090602Y-69179172D01*
X128090609Y-69179185D01*
X128178210Y-69310288D01*
X128178213Y-69310292D01*
X128289707Y-69421786D01*
X128289711Y-69421789D01*
X128420814Y-69509390D01*
X128420827Y-69509397D01*
X128566498Y-69569735D01*
X128566503Y-69569737D01*
X128566507Y-69569737D01*
X128566508Y-69569738D01*
X128609967Y-69578383D01*
X128671878Y-69610768D01*
X128706452Y-69671484D01*
X128702712Y-69741253D01*
X128661845Y-69797925D01*
X128609967Y-69821617D01*
X128566508Y-69830261D01*
X128566498Y-69830264D01*
X128420827Y-69890602D01*
X128420814Y-69890609D01*
X128289711Y-69978210D01*
X128289707Y-69978213D01*
X128178213Y-70089707D01*
X128178210Y-70089711D01*
X128090609Y-70220814D01*
X128090602Y-70220827D01*
X128030264Y-70366498D01*
X128030261Y-70366510D01*
X127999500Y-70521153D01*
X127999500Y-70678846D01*
X128030261Y-70833489D01*
X128030264Y-70833501D01*
X128090602Y-70979172D01*
X128090609Y-70979185D01*
X128178210Y-71110288D01*
X128178213Y-71110292D01*
X128289707Y-71221786D01*
X128289711Y-71221789D01*
X128420814Y-71309390D01*
X128420827Y-71309397D01*
X128566498Y-71369735D01*
X128566503Y-71369737D01*
X128721153Y-71400499D01*
X128721156Y-71400500D01*
X128721158Y-71400500D01*
X128878844Y-71400500D01*
X128878845Y-71400499D01*
X129033497Y-71369737D01*
X129133152Y-71328458D01*
X129202619Y-71320990D01*
X129265099Y-71352265D01*
X129300751Y-71412354D01*
X129298257Y-71482179D01*
X129295165Y-71490470D01*
X129278343Y-71531083D01*
X129278340Y-71531092D01*
X129249500Y-71676079D01*
X129249500Y-71676082D01*
X129249500Y-71823918D01*
X129249500Y-71823920D01*
X129249499Y-71823920D01*
X129278340Y-71968907D01*
X129278343Y-71968917D01*
X129334912Y-72105488D01*
X129334919Y-72105501D01*
X129417048Y-72228415D01*
X129417051Y-72228419D01*
X129521580Y-72332948D01*
X129521584Y-72332951D01*
X129644498Y-72415080D01*
X129644511Y-72415087D01*
X129781082Y-72471656D01*
X129781087Y-72471658D01*
X129781091Y-72471658D01*
X129781092Y-72471659D01*
X129926079Y-72500500D01*
X129926082Y-72500500D01*
X129958572Y-72500500D01*
X130025611Y-72520185D01*
X130071366Y-72572989D01*
X130073133Y-72577048D01*
X130084912Y-72605488D01*
X130084922Y-72605505D01*
X130167045Y-72728411D01*
X130167051Y-72728419D01*
X130271580Y-72832948D01*
X130271584Y-72832951D01*
X130394498Y-72915080D01*
X130394511Y-72915087D01*
X130531082Y-72971656D01*
X130531087Y-72971658D01*
X130531091Y-72971658D01*
X130531092Y-72971659D01*
X130676079Y-73000500D01*
X130676082Y-73000500D01*
X130823920Y-73000500D01*
X130921462Y-72981096D01*
X130968913Y-72971658D01*
X131077548Y-72926659D01*
X131147016Y-72919191D01*
X131172449Y-72926658D01*
X131281087Y-72971658D01*
X131281091Y-72971658D01*
X131281092Y-72971659D01*
X131426079Y-73000500D01*
X131426082Y-73000500D01*
X131573920Y-73000500D01*
X131671462Y-72981096D01*
X131718913Y-72971658D01*
X131827548Y-72926659D01*
X131897016Y-72919191D01*
X131922449Y-72926658D01*
X132031087Y-72971658D01*
X132031091Y-72971658D01*
X132031092Y-72971659D01*
X132176079Y-73000500D01*
X132176082Y-73000500D01*
X132323920Y-73000500D01*
X132421462Y-72981096D01*
X132468913Y-72971658D01*
X132577548Y-72926659D01*
X132647016Y-72919191D01*
X132672449Y-72926658D01*
X132781087Y-72971658D01*
X132781091Y-72971658D01*
X132781092Y-72971659D01*
X132926079Y-73000500D01*
X132926082Y-73000500D01*
X133073920Y-73000500D01*
X133171462Y-72981096D01*
X133218913Y-72971658D01*
X133355495Y-72915084D01*
X133478416Y-72832951D01*
X133582951Y-72728416D01*
X133665084Y-72605495D01*
X133667808Y-72598920D01*
X151499499Y-72598920D01*
X151528340Y-72743907D01*
X151528343Y-72743917D01*
X151584912Y-72880488D01*
X151584919Y-72880501D01*
X151667048Y-73003415D01*
X151667051Y-73003419D01*
X151771580Y-73107948D01*
X151771584Y-73107951D01*
X151894498Y-73190080D01*
X151894511Y-73190087D01*
X152031082Y-73246656D01*
X152031087Y-73246658D01*
X152031091Y-73246658D01*
X152031092Y-73246659D01*
X152176079Y-73275500D01*
X152176082Y-73275500D01*
X152323920Y-73275500D01*
X152421462Y-73256096D01*
X152468913Y-73246658D01*
X152605495Y-73190084D01*
X152728416Y-73107951D01*
X152832951Y-73003416D01*
X152915084Y-72880495D01*
X152971658Y-72743913D01*
X153000500Y-72598918D01*
X153000500Y-72451082D01*
X153000500Y-72451079D01*
X152971659Y-72306092D01*
X152971658Y-72306091D01*
X152971658Y-72306087D01*
X152939486Y-72228416D01*
X152915087Y-72169511D01*
X152915080Y-72169498D01*
X152832951Y-72046584D01*
X152832948Y-72046580D01*
X152728419Y-71942051D01*
X152728415Y-71942048D01*
X152605501Y-71859919D01*
X152605488Y-71859912D01*
X152468917Y-71803343D01*
X152468907Y-71803340D01*
X152323920Y-71774500D01*
X152323918Y-71774500D01*
X152176082Y-71774500D01*
X152176080Y-71774500D01*
X152031092Y-71803340D01*
X152031082Y-71803343D01*
X151894511Y-71859912D01*
X151894498Y-71859919D01*
X151771584Y-71942048D01*
X151771580Y-71942051D01*
X151667051Y-72046580D01*
X151667048Y-72046584D01*
X151584919Y-72169498D01*
X151584912Y-72169511D01*
X151528343Y-72306082D01*
X151528340Y-72306092D01*
X151499500Y-72451079D01*
X151499500Y-72451082D01*
X151499500Y-72598918D01*
X151499500Y-72598920D01*
X151499499Y-72598920D01*
X133667808Y-72598920D01*
X133708574Y-72500500D01*
X133721658Y-72468913D01*
X133732366Y-72415080D01*
X133750500Y-72323920D01*
X133750500Y-72176079D01*
X133721659Y-72031092D01*
X133721658Y-72031091D01*
X133721658Y-72031087D01*
X133721656Y-72031082D01*
X133665087Y-71894511D01*
X133665080Y-71894498D01*
X133582951Y-71771584D01*
X133582948Y-71771580D01*
X133478419Y-71667051D01*
X133478415Y-71667048D01*
X133355501Y-71584919D01*
X133355488Y-71584912D01*
X133218917Y-71528343D01*
X133218907Y-71528340D01*
X133073920Y-71499500D01*
X133073918Y-71499500D01*
X132926082Y-71499500D01*
X132926080Y-71499500D01*
X132781092Y-71528340D01*
X132781082Y-71528343D01*
X132672452Y-71573339D01*
X132602983Y-71580808D01*
X132577548Y-71573339D01*
X132468917Y-71528343D01*
X132468907Y-71528340D01*
X132323920Y-71499500D01*
X132323918Y-71499500D01*
X132176082Y-71499500D01*
X132176080Y-71499500D01*
X132031092Y-71528340D01*
X132031082Y-71528343D01*
X131922452Y-71573339D01*
X131852983Y-71580808D01*
X131827548Y-71573339D01*
X131718917Y-71528343D01*
X131718907Y-71528340D01*
X131573920Y-71499500D01*
X131573918Y-71499500D01*
X131426082Y-71499500D01*
X131426080Y-71499500D01*
X131281092Y-71528340D01*
X131281082Y-71528343D01*
X131172452Y-71573339D01*
X131102983Y-71580808D01*
X131077548Y-71573339D01*
X130968917Y-71528343D01*
X130968907Y-71528340D01*
X130823920Y-71499500D01*
X130823918Y-71499500D01*
X130791428Y-71499500D01*
X130772236Y-71493864D01*
X130752247Y-71493147D01*
X130739397Y-71484221D01*
X130724389Y-71479815D01*
X130711293Y-71464701D01*
X130694862Y-71453289D01*
X130680672Y-71429363D01*
X130678634Y-71427011D01*
X130676873Y-71422967D01*
X130676650Y-71422429D01*
X130669195Y-71352961D01*
X130676660Y-71327547D01*
X130678162Y-71323920D01*
X155549499Y-71323920D01*
X155578340Y-71468907D01*
X155578343Y-71468917D01*
X155634912Y-71605488D01*
X155634919Y-71605501D01*
X155717048Y-71728415D01*
X155717051Y-71728419D01*
X155821580Y-71832948D01*
X155821584Y-71832951D01*
X155944498Y-71915080D01*
X155944511Y-71915087D01*
X156081082Y-71971656D01*
X156081087Y-71971658D01*
X156081091Y-71971658D01*
X156081092Y-71971659D01*
X156226079Y-72000500D01*
X156226082Y-72000500D01*
X156373920Y-72000500D01*
X156471462Y-71981096D01*
X156518913Y-71971658D01*
X156655495Y-71915084D01*
X156778416Y-71832951D01*
X156882951Y-71728416D01*
X156965084Y-71605495D01*
X157021658Y-71468913D01*
X157044723Y-71352961D01*
X157050500Y-71323920D01*
X157050500Y-71176079D01*
X157021659Y-71031092D01*
X157021658Y-71031091D01*
X157021658Y-71031087D01*
X156978164Y-70926082D01*
X156965087Y-70894511D01*
X156965080Y-70894498D01*
X156882951Y-70771584D01*
X156882948Y-70771580D01*
X156778419Y-70667051D01*
X156778415Y-70667048D01*
X156655501Y-70584919D01*
X156655488Y-70584912D01*
X156518917Y-70528343D01*
X156518907Y-70528340D01*
X156373920Y-70499500D01*
X156373918Y-70499500D01*
X156226082Y-70499500D01*
X156226080Y-70499500D01*
X156081092Y-70528340D01*
X156081082Y-70528343D01*
X155944511Y-70584912D01*
X155944498Y-70584919D01*
X155821584Y-70667048D01*
X155821580Y-70667051D01*
X155717051Y-70771580D01*
X155717048Y-70771584D01*
X155634919Y-70894498D01*
X155634912Y-70894511D01*
X155578343Y-71031082D01*
X155578340Y-71031092D01*
X155549500Y-71176079D01*
X155549500Y-71176082D01*
X155549500Y-71323918D01*
X155549500Y-71323920D01*
X155549499Y-71323920D01*
X130678162Y-71323920D01*
X130721658Y-71218913D01*
X130743265Y-71110289D01*
X130750500Y-71073920D01*
X130750500Y-70926079D01*
X130721659Y-70781092D01*
X130721658Y-70781091D01*
X130721658Y-70781087D01*
X130676659Y-70672451D01*
X130669191Y-70602984D01*
X130676660Y-70577547D01*
X130697041Y-70528343D01*
X130721658Y-70468913D01*
X130750500Y-70323918D01*
X130750500Y-70176082D01*
X130750500Y-70176079D01*
X130721659Y-70031092D01*
X130721658Y-70031091D01*
X130721658Y-70031087D01*
X130676659Y-69922451D01*
X130669191Y-69852984D01*
X130676660Y-69827547D01*
X130721658Y-69718913D01*
X130743170Y-69610768D01*
X130750500Y-69573920D01*
X130750500Y-69426079D01*
X130721659Y-69281092D01*
X130721658Y-69281091D01*
X130721658Y-69281087D01*
X130679449Y-69179185D01*
X130665087Y-69144511D01*
X130665080Y-69144498D01*
X130582951Y-69021584D01*
X130582948Y-69021580D01*
X130478419Y-68917051D01*
X130478415Y-68917048D01*
X130355501Y-68834919D01*
X130355488Y-68834912D01*
X130218917Y-68778343D01*
X130218907Y-68778340D01*
X130073920Y-68749500D01*
X130073918Y-68749500D01*
X129926082Y-68749500D01*
X129926080Y-68749500D01*
X129781092Y-68778340D01*
X129781082Y-68778343D01*
X129764345Y-68785276D01*
X129694875Y-68792743D01*
X129632397Y-68761467D01*
X129596746Y-68701377D01*
X129595278Y-68694905D01*
X129589345Y-68665080D01*
X129569737Y-68566503D01*
X129533252Y-68478419D01*
X129509397Y-68420827D01*
X129509390Y-68420814D01*
X129421789Y-68289711D01*
X129421786Y-68289707D01*
X129310292Y-68178213D01*
X129310288Y-68178210D01*
X129197881Y-68103102D01*
X129153076Y-68049490D01*
X129144369Y-67980165D01*
X129174523Y-67917137D01*
X129197881Y-67896898D01*
X129231981Y-67874112D01*
X129310289Y-67821789D01*
X129421789Y-67710289D01*
X129509394Y-67579179D01*
X129569737Y-67433497D01*
X129600500Y-67278842D01*
X129600500Y-67121158D01*
X129600500Y-67121155D01*
X129600499Y-67121153D01*
X129569738Y-66966510D01*
X129569737Y-66966503D01*
X129548267Y-66914669D01*
X129509397Y-66820827D01*
X129509390Y-66820814D01*
X129421789Y-66689711D01*
X129421786Y-66689707D01*
X129310292Y-66578213D01*
X129310288Y-66578210D01*
X129289128Y-66564071D01*
X163511999Y-66564071D01*
X163536997Y-66689738D01*
X163536999Y-66689744D01*
X163586033Y-66808124D01*
X163586038Y-66808133D01*
X163657223Y-66914668D01*
X163657226Y-66914672D01*
X163747827Y-67005273D01*
X163747831Y-67005276D01*
X163854366Y-67076461D01*
X163854372Y-67076464D01*
X163854373Y-67076465D01*
X163972756Y-67125501D01*
X163972760Y-67125501D01*
X163972761Y-67125502D01*
X164098428Y-67150500D01*
X164098431Y-67150500D01*
X164226571Y-67150500D01*
X164312886Y-67133330D01*
X164352244Y-67125501D01*
X164470627Y-67076465D01*
X164577169Y-67005276D01*
X164667776Y-66914669D01*
X164738965Y-66808127D01*
X164788001Y-66689744D01*
X164813000Y-66564069D01*
X164813000Y-66435931D01*
X164813000Y-66435928D01*
X164788002Y-66310261D01*
X164788001Y-66310260D01*
X164788001Y-66310256D01*
X164738965Y-66191873D01*
X164738964Y-66191872D01*
X164738961Y-66191866D01*
X164667776Y-66085331D01*
X164667773Y-66085327D01*
X164577172Y-65994726D01*
X164577168Y-65994723D01*
X164470633Y-65923538D01*
X164470624Y-65923533D01*
X164352244Y-65874499D01*
X164352238Y-65874497D01*
X164226571Y-65849500D01*
X164226569Y-65849500D01*
X164098431Y-65849500D01*
X164098429Y-65849500D01*
X163972761Y-65874497D01*
X163972755Y-65874499D01*
X163854375Y-65923533D01*
X163854366Y-65923538D01*
X163747831Y-65994723D01*
X163747827Y-65994726D01*
X163657226Y-66085327D01*
X163657223Y-66085331D01*
X163586038Y-66191866D01*
X163586033Y-66191875D01*
X163536999Y-66310255D01*
X163536997Y-66310261D01*
X163512000Y-66435928D01*
X163512000Y-66435931D01*
X163512000Y-66564069D01*
X163512000Y-66564071D01*
X163511999Y-66564071D01*
X129289128Y-66564071D01*
X129179185Y-66490609D01*
X129179172Y-66490602D01*
X129033501Y-66430264D01*
X129033489Y-66430261D01*
X128878845Y-66399500D01*
X128878842Y-66399500D01*
X128721158Y-66399500D01*
X128721155Y-66399500D01*
X128566510Y-66430261D01*
X128566498Y-66430264D01*
X128420827Y-66490602D01*
X128420814Y-66490609D01*
X128289711Y-66578210D01*
X128289707Y-66578213D01*
X128178213Y-66689707D01*
X128178210Y-66689711D01*
X128090609Y-66820814D01*
X128090602Y-66820827D01*
X128030264Y-66966498D01*
X128030261Y-66966510D01*
X127999500Y-67121153D01*
X106500500Y-67121153D01*
X106500500Y-65823920D01*
X132499499Y-65823920D01*
X132528340Y-65968907D01*
X132528343Y-65968917D01*
X132584912Y-66105488D01*
X132584919Y-66105501D01*
X132667048Y-66228415D01*
X132667051Y-66228419D01*
X132771580Y-66332948D01*
X132771584Y-66332951D01*
X132894498Y-66415080D01*
X132894511Y-66415087D01*
X133031082Y-66471656D01*
X133031087Y-66471658D01*
X133031091Y-66471658D01*
X133031092Y-66471659D01*
X133176079Y-66500500D01*
X133176082Y-66500500D01*
X133323920Y-66500500D01*
X133421462Y-66481096D01*
X133468913Y-66471658D01*
X133577548Y-66426659D01*
X133647016Y-66419191D01*
X133672449Y-66426658D01*
X133781087Y-66471658D01*
X133781091Y-66471658D01*
X133781092Y-66471659D01*
X133926079Y-66500500D01*
X133926082Y-66500500D01*
X134073920Y-66500500D01*
X134171462Y-66481096D01*
X134218913Y-66471658D01*
X134327548Y-66426659D01*
X134397016Y-66419191D01*
X134422449Y-66426658D01*
X134531087Y-66471658D01*
X134531091Y-66471658D01*
X134531092Y-66471659D01*
X134676079Y-66500500D01*
X134676082Y-66500500D01*
X134823920Y-66500500D01*
X134921462Y-66481096D01*
X134968913Y-66471658D01*
X135105495Y-66415084D01*
X135228416Y-66332951D01*
X135332951Y-66228416D01*
X135415084Y-66105495D01*
X135471658Y-65968913D01*
X135490439Y-65874497D01*
X135500500Y-65823920D01*
X135500500Y-65676079D01*
X135500071Y-65673920D01*
X145049499Y-65673920D01*
X145078340Y-65818907D01*
X145078343Y-65818917D01*
X145134912Y-65955488D01*
X145134919Y-65955501D01*
X145217048Y-66078415D01*
X145217051Y-66078419D01*
X145321580Y-66182948D01*
X145321584Y-66182951D01*
X145444498Y-66265080D01*
X145444511Y-66265087D01*
X145553560Y-66310256D01*
X145581087Y-66321658D01*
X145581091Y-66321658D01*
X145581092Y-66321659D01*
X145726079Y-66350500D01*
X145726082Y-66350500D01*
X145873920Y-66350500D01*
X145971462Y-66331096D01*
X146018913Y-66321658D01*
X146155495Y-66265084D01*
X146278416Y-66182951D01*
X146382951Y-66078416D01*
X146465084Y-65955495D01*
X146521658Y-65818913D01*
X146550070Y-65676082D01*
X146550500Y-65673920D01*
X146550500Y-65526079D01*
X146521659Y-65381092D01*
X146521658Y-65381091D01*
X146521658Y-65381087D01*
X146521656Y-65381082D01*
X146465087Y-65244511D01*
X146465080Y-65244498D01*
X146382951Y-65121584D01*
X146382948Y-65121580D01*
X146278419Y-65017051D01*
X146278415Y-65017048D01*
X146155501Y-64934919D01*
X146155488Y-64934912D01*
X146018917Y-64878343D01*
X146018907Y-64878340D01*
X145873920Y-64849500D01*
X145873918Y-64849500D01*
X145726082Y-64849500D01*
X145726080Y-64849500D01*
X145581092Y-64878340D01*
X145581082Y-64878343D01*
X145444511Y-64934912D01*
X145444498Y-64934919D01*
X145321584Y-65017048D01*
X145321580Y-65017051D01*
X145217051Y-65121580D01*
X145217048Y-65121584D01*
X145134919Y-65244498D01*
X145134912Y-65244511D01*
X145078343Y-65381082D01*
X145078340Y-65381092D01*
X145049500Y-65526079D01*
X145049500Y-65526082D01*
X145049500Y-65673918D01*
X145049500Y-65673920D01*
X145049499Y-65673920D01*
X135500071Y-65673920D01*
X135474263Y-65544182D01*
X135474263Y-65544181D01*
X135471659Y-65531094D01*
X135471659Y-65531092D01*
X135471658Y-65531087D01*
X135469584Y-65526079D01*
X135415087Y-65394511D01*
X135415080Y-65394498D01*
X135332951Y-65271584D01*
X135332948Y-65271580D01*
X135228419Y-65167051D01*
X135228415Y-65167048D01*
X135105501Y-65084919D01*
X135105488Y-65084912D01*
X134968917Y-65028343D01*
X134968907Y-65028340D01*
X134823920Y-64999500D01*
X134823918Y-64999500D01*
X134676082Y-64999500D01*
X134676080Y-64999500D01*
X134531092Y-65028340D01*
X134531082Y-65028343D01*
X134422452Y-65073339D01*
X134352983Y-65080808D01*
X134327548Y-65073339D01*
X134218917Y-65028343D01*
X134218907Y-65028340D01*
X134073920Y-64999500D01*
X134073918Y-64999500D01*
X133926082Y-64999500D01*
X133926080Y-64999500D01*
X133781092Y-65028340D01*
X133781082Y-65028343D01*
X133672452Y-65073339D01*
X133602983Y-65080808D01*
X133577548Y-65073339D01*
X133468917Y-65028343D01*
X133468907Y-65028340D01*
X133323920Y-64999500D01*
X133323918Y-64999500D01*
X133176082Y-64999500D01*
X133176080Y-64999500D01*
X133031092Y-65028340D01*
X133031082Y-65028343D01*
X132894511Y-65084912D01*
X132894498Y-65084919D01*
X132771584Y-65167048D01*
X132771580Y-65167051D01*
X132667051Y-65271580D01*
X132667048Y-65271584D01*
X132584919Y-65394498D01*
X132584912Y-65394511D01*
X132528343Y-65531082D01*
X132528340Y-65531092D01*
X132499500Y-65676079D01*
X132499500Y-65676082D01*
X132499500Y-65823918D01*
X132499500Y-65823920D01*
X132499499Y-65823920D01*
X106500500Y-65823920D01*
X106500500Y-63321153D01*
X127999500Y-63321153D01*
X127999500Y-63478846D01*
X128030261Y-63633489D01*
X128030264Y-63633501D01*
X128090602Y-63779172D01*
X128090609Y-63779185D01*
X128178210Y-63910288D01*
X128178213Y-63910292D01*
X128289707Y-64021786D01*
X128289711Y-64021789D01*
X128420814Y-64109390D01*
X128420827Y-64109397D01*
X128566498Y-64169735D01*
X128566503Y-64169737D01*
X128721153Y-64200499D01*
X128721156Y-64200500D01*
X128721158Y-64200500D01*
X128878844Y-64200500D01*
X128878845Y-64200499D01*
X129026378Y-64171153D01*
X135949500Y-64171153D01*
X135949500Y-64328846D01*
X135980261Y-64483489D01*
X135980264Y-64483501D01*
X136040602Y-64629172D01*
X136040609Y-64629185D01*
X136128210Y-64760288D01*
X136128213Y-64760292D01*
X136239707Y-64871786D01*
X136239711Y-64871789D01*
X136370814Y-64959390D01*
X136370827Y-64959397D01*
X136510018Y-65017051D01*
X136516503Y-65019737D01*
X136671153Y-65050499D01*
X136671156Y-65050500D01*
X136671158Y-65050500D01*
X136828844Y-65050500D01*
X136828845Y-65050499D01*
X136983497Y-65019737D01*
X137129179Y-64959394D01*
X137260289Y-64871789D01*
X137371789Y-64760289D01*
X137459394Y-64629179D01*
X137519737Y-64483497D01*
X137521642Y-64473920D01*
X142649499Y-64473920D01*
X142678340Y-64618907D01*
X142678343Y-64618917D01*
X142734912Y-64755488D01*
X142734919Y-64755501D01*
X142817048Y-64878415D01*
X142817051Y-64878419D01*
X142921580Y-64982948D01*
X142921584Y-64982951D01*
X143044498Y-65065080D01*
X143044511Y-65065087D01*
X143180899Y-65121580D01*
X143181087Y-65121658D01*
X143181091Y-65121658D01*
X143181092Y-65121659D01*
X143326079Y-65150500D01*
X143326082Y-65150500D01*
X143473920Y-65150500D01*
X143571462Y-65131096D01*
X143618913Y-65121658D01*
X143755495Y-65065084D01*
X143878416Y-64982951D01*
X143982951Y-64878416D01*
X144065084Y-64755495D01*
X144121658Y-64618913D01*
X144148595Y-64483497D01*
X144150500Y-64473920D01*
X144150500Y-64326079D01*
X144123284Y-64189258D01*
X144122437Y-64185007D01*
X144121658Y-64181087D01*
X144117543Y-64171153D01*
X147199500Y-64171153D01*
X147199500Y-64328846D01*
X147230261Y-64483489D01*
X147230264Y-64483501D01*
X147290602Y-64629172D01*
X147290609Y-64629185D01*
X147378210Y-64760288D01*
X147378213Y-64760292D01*
X147489707Y-64871786D01*
X147489711Y-64871789D01*
X147620814Y-64959390D01*
X147620827Y-64959397D01*
X147760018Y-65017051D01*
X147766503Y-65019737D01*
X147921153Y-65050499D01*
X147921156Y-65050500D01*
X147921158Y-65050500D01*
X148078844Y-65050500D01*
X148078845Y-65050499D01*
X148233497Y-65019737D01*
X148379179Y-64959394D01*
X148510289Y-64871789D01*
X148621789Y-64760289D01*
X148709394Y-64629179D01*
X148769737Y-64483497D01*
X148800500Y-64328842D01*
X148800500Y-64171158D01*
X148800500Y-64171155D01*
X148800499Y-64171153D01*
X148775307Y-64044505D01*
X148769737Y-64016503D01*
X148730419Y-63921580D01*
X148709397Y-63870827D01*
X148709390Y-63870814D01*
X148621789Y-63739711D01*
X148621786Y-63739707D01*
X148556964Y-63674885D01*
X148523479Y-63613562D01*
X148528463Y-63543870D01*
X148570335Y-63487937D01*
X148597190Y-63472643D01*
X148629179Y-63459394D01*
X148686411Y-63421153D01*
X154449500Y-63421153D01*
X154449500Y-63578846D01*
X154480261Y-63733489D01*
X154480264Y-63733501D01*
X154540602Y-63879172D01*
X154540609Y-63879185D01*
X154628210Y-64010288D01*
X154628213Y-64010292D01*
X154739707Y-64121786D01*
X154739711Y-64121789D01*
X154870814Y-64209390D01*
X154870827Y-64209397D01*
X155016498Y-64269735D01*
X155016503Y-64269737D01*
X155171153Y-64300499D01*
X155171156Y-64300500D01*
X155171158Y-64300500D01*
X155328844Y-64300500D01*
X155328845Y-64300499D01*
X155483497Y-64269737D01*
X155629179Y-64209394D01*
X155760289Y-64121789D01*
X155871789Y-64010289D01*
X155959394Y-63879179D01*
X155962854Y-63870827D01*
X155985129Y-63817048D01*
X156019737Y-63733497D01*
X156050500Y-63578842D01*
X156050500Y-63421158D01*
X156050500Y-63421155D01*
X156050499Y-63421153D01*
X156019737Y-63266503D01*
X155978314Y-63166498D01*
X155959397Y-63120827D01*
X155959390Y-63120814D01*
X155871789Y-62989711D01*
X155871786Y-62989707D01*
X155760292Y-62878213D01*
X155760288Y-62878210D01*
X155629185Y-62790609D01*
X155629172Y-62790602D01*
X155483501Y-62730264D01*
X155483489Y-62730261D01*
X155328845Y-62699500D01*
X155328842Y-62699500D01*
X155171158Y-62699500D01*
X155171155Y-62699500D01*
X155016510Y-62730261D01*
X155016498Y-62730264D01*
X154870827Y-62790602D01*
X154870814Y-62790609D01*
X154739711Y-62878210D01*
X154739707Y-62878213D01*
X154628213Y-62989707D01*
X154628210Y-62989711D01*
X154540609Y-63120814D01*
X154540602Y-63120827D01*
X154480264Y-63266498D01*
X154480261Y-63266510D01*
X154449500Y-63421153D01*
X148686411Y-63421153D01*
X148760289Y-63371789D01*
X148760292Y-63371786D01*
X148804694Y-63327385D01*
X148871786Y-63260292D01*
X148871789Y-63260289D01*
X148959394Y-63129179D01*
X148962854Y-63120827D01*
X148977870Y-63084573D01*
X149019737Y-62983497D01*
X149050500Y-62828842D01*
X149050500Y-62671158D01*
X149050500Y-62671155D01*
X149050499Y-62671153D01*
X149019738Y-62516510D01*
X149019737Y-62516503D01*
X149018940Y-62514579D01*
X148959397Y-62370827D01*
X148959390Y-62370814D01*
X148871789Y-62239711D01*
X148871786Y-62239707D01*
X148760292Y-62128213D01*
X148760288Y-62128210D01*
X148629185Y-62040609D01*
X148629172Y-62040602D01*
X148483501Y-61980264D01*
X148483489Y-61980261D01*
X148328845Y-61949500D01*
X148328842Y-61949500D01*
X148171158Y-61949500D01*
X148171155Y-61949500D01*
X148016510Y-61980261D01*
X148016498Y-61980264D01*
X147870827Y-62040602D01*
X147870814Y-62040609D01*
X147739711Y-62128210D01*
X147739707Y-62128213D01*
X147628213Y-62239707D01*
X147628210Y-62239711D01*
X147540609Y-62370814D01*
X147540602Y-62370827D01*
X147480264Y-62516498D01*
X147480261Y-62516510D01*
X147449500Y-62671153D01*
X147449500Y-62828846D01*
X147480261Y-62983489D01*
X147480264Y-62983501D01*
X147540602Y-63129172D01*
X147540609Y-63129185D01*
X147628210Y-63260288D01*
X147628213Y-63260292D01*
X147693035Y-63325114D01*
X147726520Y-63386437D01*
X147721536Y-63456129D01*
X147679664Y-63512062D01*
X147652809Y-63527355D01*
X147620826Y-63540603D01*
X147620814Y-63540609D01*
X147489711Y-63628210D01*
X147489707Y-63628213D01*
X147378213Y-63739707D01*
X147378210Y-63739711D01*
X147290609Y-63870814D01*
X147290602Y-63870827D01*
X147230264Y-64016498D01*
X147230261Y-64016510D01*
X147199500Y-64171153D01*
X144117543Y-64171153D01*
X144072316Y-64061964D01*
X144065087Y-64044511D01*
X144065080Y-64044498D01*
X143982951Y-63921584D01*
X143982948Y-63921580D01*
X143878419Y-63817051D01*
X143878415Y-63817048D01*
X143755501Y-63734919D01*
X143755488Y-63734912D01*
X143618917Y-63678343D01*
X143618907Y-63678340D01*
X143473920Y-63649500D01*
X143473918Y-63649500D01*
X143326082Y-63649500D01*
X143326080Y-63649500D01*
X143181092Y-63678340D01*
X143181082Y-63678343D01*
X143044511Y-63734912D01*
X143044498Y-63734919D01*
X142921584Y-63817048D01*
X142921580Y-63817051D01*
X142817051Y-63921580D01*
X142817048Y-63921584D01*
X142734919Y-64044498D01*
X142734912Y-64044511D01*
X142678343Y-64181082D01*
X142678340Y-64181092D01*
X142649500Y-64326079D01*
X142649500Y-64326082D01*
X142649500Y-64473918D01*
X142649500Y-64473920D01*
X142649499Y-64473920D01*
X137521642Y-64473920D01*
X137550500Y-64328842D01*
X137550500Y-64171158D01*
X137550500Y-64171155D01*
X137550499Y-64171153D01*
X137525307Y-64044505D01*
X137519737Y-64016503D01*
X137480419Y-63921580D01*
X137459397Y-63870827D01*
X137459390Y-63870814D01*
X137371789Y-63739711D01*
X137371786Y-63739707D01*
X137260292Y-63628213D01*
X137260288Y-63628210D01*
X137129185Y-63540609D01*
X137129172Y-63540602D01*
X136983501Y-63480264D01*
X136983489Y-63480261D01*
X136828845Y-63449500D01*
X136828842Y-63449500D01*
X136671158Y-63449500D01*
X136671155Y-63449500D01*
X136516510Y-63480261D01*
X136516498Y-63480264D01*
X136370827Y-63540602D01*
X136370814Y-63540609D01*
X136239711Y-63628210D01*
X136239707Y-63628213D01*
X136128213Y-63739707D01*
X136128210Y-63739711D01*
X136040609Y-63870814D01*
X136040602Y-63870827D01*
X135980264Y-64016498D01*
X135980261Y-64016510D01*
X135949500Y-64171153D01*
X129026378Y-64171153D01*
X129033497Y-64169737D01*
X129179179Y-64109394D01*
X129179185Y-64109390D01*
X129250164Y-64061964D01*
X129281224Y-64041209D01*
X129310289Y-64021789D01*
X129421789Y-63910289D01*
X129509394Y-63779179D01*
X129569737Y-63633497D01*
X129600500Y-63478842D01*
X129600500Y-63321158D01*
X129600500Y-63321155D01*
X129600499Y-63321153D01*
X129569738Y-63166510D01*
X129569737Y-63166503D01*
X129569735Y-63166498D01*
X129509397Y-63020827D01*
X129509390Y-63020814D01*
X129421789Y-62889711D01*
X129421786Y-62889707D01*
X129310292Y-62778213D01*
X129310288Y-62778210D01*
X129179185Y-62690609D01*
X129179172Y-62690602D01*
X129033501Y-62630264D01*
X129033489Y-62630261D01*
X128878845Y-62599500D01*
X128878842Y-62599500D01*
X128721158Y-62599500D01*
X128721155Y-62599500D01*
X128566510Y-62630261D01*
X128566498Y-62630264D01*
X128420827Y-62690602D01*
X128420814Y-62690609D01*
X128289711Y-62778210D01*
X128289707Y-62778213D01*
X128178213Y-62889707D01*
X128178210Y-62889711D01*
X128090609Y-63020814D01*
X128090602Y-63020827D01*
X128030264Y-63166498D01*
X128030261Y-63166510D01*
X127999500Y-63321153D01*
X106500500Y-63321153D01*
X106500500Y-60173920D01*
X119049499Y-60173920D01*
X119078340Y-60318907D01*
X119078343Y-60318917D01*
X119134912Y-60455488D01*
X119134919Y-60455501D01*
X119217048Y-60578415D01*
X119217051Y-60578419D01*
X119321580Y-60682948D01*
X119321584Y-60682951D01*
X119417286Y-60746898D01*
X119462091Y-60800511D01*
X119470798Y-60869836D01*
X119440643Y-60932863D01*
X119417286Y-60953102D01*
X119321584Y-61017048D01*
X119321580Y-61017051D01*
X119217051Y-61121580D01*
X119217048Y-61121584D01*
X119134919Y-61244498D01*
X119134912Y-61244511D01*
X119078343Y-61381082D01*
X119078340Y-61381092D01*
X119049500Y-61526079D01*
X119049500Y-61526082D01*
X119049500Y-61673918D01*
X119049500Y-61673920D01*
X119049499Y-61673920D01*
X119078340Y-61818907D01*
X119078343Y-61818917D01*
X119134912Y-61955488D01*
X119134919Y-61955501D01*
X119217048Y-62078415D01*
X119217051Y-62078419D01*
X119321580Y-62182948D01*
X119321584Y-62182951D01*
X119444498Y-62265080D01*
X119444511Y-62265087D01*
X119548118Y-62308002D01*
X119581087Y-62321658D01*
X119581091Y-62321658D01*
X119581092Y-62321659D01*
X119726079Y-62350500D01*
X119726082Y-62350500D01*
X119873920Y-62350500D01*
X119971462Y-62331096D01*
X120018913Y-62321658D01*
X120155495Y-62265084D01*
X120278416Y-62182951D01*
X120382951Y-62078416D01*
X120465084Y-61955495D01*
X120521658Y-61818913D01*
X120550500Y-61673918D01*
X120550500Y-61526082D01*
X120550500Y-61526079D01*
X120521659Y-61381092D01*
X120521658Y-61381091D01*
X120521658Y-61381087D01*
X120521656Y-61381082D01*
X120465087Y-61244511D01*
X120465080Y-61244498D01*
X120382951Y-61121584D01*
X120382948Y-61121580D01*
X120278419Y-61017051D01*
X120278415Y-61017048D01*
X120182713Y-60953102D01*
X120137908Y-60899490D01*
X120129201Y-60830165D01*
X120159355Y-60767138D01*
X120182713Y-60746898D01*
X120220965Y-60721338D01*
X120278416Y-60682951D01*
X120382951Y-60578416D01*
X120465084Y-60455495D01*
X120521658Y-60318913D01*
X120550500Y-60173918D01*
X120550500Y-60026082D01*
X120550500Y-60026079D01*
X120521659Y-59881092D01*
X120521658Y-59881091D01*
X120521658Y-59881087D01*
X120488278Y-59800500D01*
X120465087Y-59744511D01*
X120465080Y-59744498D01*
X120382951Y-59621584D01*
X120382948Y-59621580D01*
X120278419Y-59517051D01*
X120278415Y-59517048D01*
X120155501Y-59434919D01*
X120155488Y-59434912D01*
X120018917Y-59378343D01*
X120018907Y-59378340D01*
X119873920Y-59349500D01*
X119873918Y-59349500D01*
X119726082Y-59349500D01*
X119726080Y-59349500D01*
X119581092Y-59378340D01*
X119581082Y-59378343D01*
X119444511Y-59434912D01*
X119444498Y-59434919D01*
X119321584Y-59517048D01*
X119321580Y-59517051D01*
X119217051Y-59621580D01*
X119217048Y-59621584D01*
X119134919Y-59744498D01*
X119134912Y-59744511D01*
X119078343Y-59881082D01*
X119078340Y-59881092D01*
X119049500Y-60026079D01*
X119049500Y-60026082D01*
X119049500Y-60173918D01*
X119049500Y-60173920D01*
X119049499Y-60173920D01*
X106500500Y-60173920D01*
X106500500Y-57721153D01*
X128199500Y-57721153D01*
X128199500Y-57878846D01*
X128230261Y-58033489D01*
X128230264Y-58033501D01*
X128290602Y-58179172D01*
X128290609Y-58179185D01*
X128378210Y-58310288D01*
X128378213Y-58310292D01*
X128489707Y-58421786D01*
X128489711Y-58421789D01*
X128620814Y-58509390D01*
X128620827Y-58509397D01*
X128766498Y-58569735D01*
X128766503Y-58569737D01*
X128921153Y-58600499D01*
X128921156Y-58600500D01*
X128921158Y-58600500D01*
X129078844Y-58600500D01*
X129078845Y-58600499D01*
X129233497Y-58569737D01*
X129349750Y-58521584D01*
X129384808Y-58507063D01*
X129385453Y-58508622D01*
X129445937Y-58496019D01*
X129511185Y-58521010D01*
X129552564Y-58577309D01*
X129556936Y-58647041D01*
X129550567Y-58667073D01*
X129503343Y-58781082D01*
X129503340Y-58781092D01*
X129474500Y-58926079D01*
X129474500Y-58926082D01*
X129474500Y-59073918D01*
X129474500Y-59073920D01*
X129474499Y-59073920D01*
X129503340Y-59218907D01*
X129503343Y-59218917D01*
X129559912Y-59355488D01*
X129559919Y-59355501D01*
X129642048Y-59478415D01*
X129642051Y-59478419D01*
X129746580Y-59582948D01*
X129746584Y-59582951D01*
X129869498Y-59665080D01*
X129869511Y-59665087D01*
X129976469Y-59709390D01*
X130006087Y-59721658D01*
X130006091Y-59721658D01*
X130006092Y-59721659D01*
X130151079Y-59750500D01*
X130151082Y-59750500D01*
X130298920Y-59750500D01*
X130396462Y-59731096D01*
X130443913Y-59721658D01*
X130580495Y-59665084D01*
X130703416Y-59582951D01*
X130807951Y-59478416D01*
X130890084Y-59355495D01*
X130946658Y-59218913D01*
X130974520Y-59078846D01*
X130975500Y-59073920D01*
X130975500Y-58926079D01*
X130974520Y-58921153D01*
X139924500Y-58921153D01*
X139924500Y-59078846D01*
X139955261Y-59233489D01*
X139955264Y-59233501D01*
X140015602Y-59379172D01*
X140015609Y-59379185D01*
X140103210Y-59510288D01*
X140103213Y-59510292D01*
X140214707Y-59621786D01*
X140214711Y-59621789D01*
X140345814Y-59709390D01*
X140345827Y-59709397D01*
X140445060Y-59750500D01*
X140491503Y-59769737D01*
X140646153Y-59800499D01*
X140646156Y-59800500D01*
X140646158Y-59800500D01*
X140803844Y-59800500D01*
X140803845Y-59800499D01*
X140958497Y-59769737D01*
X141104179Y-59709394D01*
X141235289Y-59621789D01*
X141346789Y-59510289D01*
X141434394Y-59379179D01*
X141494737Y-59233497D01*
X141525500Y-59078842D01*
X141525500Y-58921158D01*
X141525500Y-58921155D01*
X141525499Y-58921153D01*
X141494738Y-58766510D01*
X141494737Y-58766503D01*
X141444207Y-58644511D01*
X141434397Y-58620827D01*
X141434390Y-58620814D01*
X141346789Y-58489711D01*
X141342924Y-58485001D01*
X141345142Y-58483180D01*
X141317532Y-58432615D01*
X141322516Y-58362923D01*
X141364388Y-58306990D01*
X141391238Y-58291699D01*
X141455495Y-58265084D01*
X141578416Y-58182951D01*
X141682951Y-58078416D01*
X141765084Y-57955495D01*
X141821658Y-57818913D01*
X141843265Y-57710289D01*
X141850500Y-57673920D01*
X141850500Y-57621153D01*
X149099500Y-57621153D01*
X149099500Y-57778846D01*
X149130261Y-57933489D01*
X149130264Y-57933501D01*
X149190602Y-58079172D01*
X149190609Y-58079185D01*
X149278210Y-58210288D01*
X149278213Y-58210292D01*
X149389707Y-58321786D01*
X149389711Y-58321789D01*
X149520814Y-58409390D01*
X149520827Y-58409397D01*
X149666498Y-58469735D01*
X149666503Y-58469737D01*
X149798631Y-58496019D01*
X149821153Y-58500499D01*
X149821156Y-58500500D01*
X149821158Y-58500500D01*
X149978844Y-58500500D01*
X149978845Y-58500499D01*
X150133497Y-58469737D01*
X150260698Y-58417049D01*
X150279172Y-58409397D01*
X150279172Y-58409396D01*
X150279179Y-58409394D01*
X150410289Y-58321789D01*
X150521789Y-58210289D01*
X150609394Y-58079179D01*
X150609711Y-58078415D01*
X150652770Y-57974459D01*
X150669737Y-57933497D01*
X150700500Y-57778842D01*
X150700500Y-57621158D01*
X150700500Y-57621155D01*
X150700499Y-57621153D01*
X151249500Y-57621153D01*
X151249500Y-57778846D01*
X151280261Y-57933489D01*
X151280264Y-57933501D01*
X151340602Y-58079172D01*
X151340609Y-58079185D01*
X151428210Y-58210288D01*
X151428213Y-58210292D01*
X151539707Y-58321786D01*
X151539711Y-58321789D01*
X151670814Y-58409390D01*
X151670827Y-58409397D01*
X151816498Y-58469735D01*
X151816503Y-58469737D01*
X151948631Y-58496019D01*
X151971153Y-58500499D01*
X151971156Y-58500500D01*
X151971158Y-58500500D01*
X152128844Y-58500500D01*
X152128845Y-58500499D01*
X152283497Y-58469737D01*
X152410698Y-58417049D01*
X152429172Y-58409397D01*
X152429172Y-58409396D01*
X152429179Y-58409394D01*
X152560289Y-58321789D01*
X152671789Y-58210289D01*
X152759394Y-58079179D01*
X152759711Y-58078415D01*
X152802770Y-57974459D01*
X152819737Y-57933497D01*
X152850500Y-57778842D01*
X152850500Y-57621158D01*
X152850500Y-57621155D01*
X152850499Y-57621153D01*
X152819738Y-57466510D01*
X152819737Y-57466503D01*
X152784355Y-57381082D01*
X152759397Y-57320827D01*
X152759390Y-57320814D01*
X152671789Y-57189711D01*
X152671786Y-57189707D01*
X152560292Y-57078213D01*
X152560288Y-57078210D01*
X152429185Y-56990609D01*
X152429172Y-56990602D01*
X152283501Y-56930264D01*
X152283489Y-56930261D01*
X152128845Y-56899500D01*
X152128842Y-56899500D01*
X151971158Y-56899500D01*
X151971155Y-56899500D01*
X151816510Y-56930261D01*
X151816498Y-56930264D01*
X151670827Y-56990602D01*
X151670814Y-56990609D01*
X151539711Y-57078210D01*
X151539707Y-57078213D01*
X151428213Y-57189707D01*
X151428210Y-57189711D01*
X151340609Y-57320814D01*
X151340602Y-57320827D01*
X151280264Y-57466498D01*
X151280261Y-57466510D01*
X151249500Y-57621153D01*
X150700499Y-57621153D01*
X150669738Y-57466510D01*
X150669737Y-57466503D01*
X150634355Y-57381082D01*
X150609397Y-57320827D01*
X150609390Y-57320814D01*
X150521789Y-57189711D01*
X150521786Y-57189707D01*
X150410292Y-57078213D01*
X150410288Y-57078210D01*
X150279185Y-56990609D01*
X150279172Y-56990602D01*
X150133501Y-56930264D01*
X150133489Y-56930261D01*
X149978845Y-56899500D01*
X149978842Y-56899500D01*
X149821158Y-56899500D01*
X149821155Y-56899500D01*
X149666510Y-56930261D01*
X149666498Y-56930264D01*
X149520827Y-56990602D01*
X149520814Y-56990609D01*
X149389711Y-57078210D01*
X149389707Y-57078213D01*
X149278213Y-57189707D01*
X149278210Y-57189711D01*
X149190609Y-57320814D01*
X149190602Y-57320827D01*
X149130264Y-57466498D01*
X149130261Y-57466510D01*
X149099500Y-57621153D01*
X141850500Y-57621153D01*
X141850500Y-57526079D01*
X141821659Y-57381092D01*
X141821658Y-57381091D01*
X141821658Y-57381087D01*
X141783809Y-57289711D01*
X141765087Y-57244511D01*
X141765080Y-57244498D01*
X141682951Y-57121584D01*
X141682948Y-57121580D01*
X141578419Y-57017051D01*
X141578415Y-57017048D01*
X141455501Y-56934919D01*
X141455488Y-56934912D01*
X141318917Y-56878343D01*
X141318907Y-56878340D01*
X141173920Y-56849500D01*
X141173918Y-56849500D01*
X141026082Y-56849500D01*
X141026080Y-56849500D01*
X140881092Y-56878340D01*
X140881082Y-56878343D01*
X140744511Y-56934912D01*
X140744498Y-56934919D01*
X140621584Y-57017048D01*
X140621580Y-57017051D01*
X140517051Y-57121580D01*
X140517048Y-57121584D01*
X140434919Y-57244498D01*
X140434912Y-57244511D01*
X140378343Y-57381082D01*
X140378340Y-57381092D01*
X140349500Y-57526079D01*
X140349500Y-57526082D01*
X140349500Y-57673918D01*
X140349500Y-57673920D01*
X140349499Y-57673920D01*
X140378340Y-57818907D01*
X140378343Y-57818917D01*
X140434912Y-57955488D01*
X140434919Y-57955501D01*
X140507034Y-58063428D01*
X140527912Y-58130106D01*
X140509427Y-58197486D01*
X140457449Y-58244176D01*
X140451385Y-58246880D01*
X140345823Y-58290604D01*
X140345814Y-58290609D01*
X140214711Y-58378210D01*
X140214707Y-58378213D01*
X140103213Y-58489707D01*
X140103210Y-58489711D01*
X140015609Y-58620814D01*
X140015602Y-58620827D01*
X139955264Y-58766498D01*
X139955261Y-58766510D01*
X139924500Y-58921153D01*
X130974520Y-58921153D01*
X130946659Y-58781092D01*
X130946658Y-58781091D01*
X130946658Y-58781087D01*
X130899432Y-58667073D01*
X130890087Y-58644511D01*
X130890080Y-58644498D01*
X130807951Y-58521584D01*
X130807948Y-58521580D01*
X130703419Y-58417051D01*
X130703415Y-58417048D01*
X130580501Y-58334919D01*
X130580488Y-58334912D01*
X130443917Y-58278343D01*
X130443907Y-58278340D01*
X130298920Y-58249500D01*
X130298918Y-58249500D01*
X130151082Y-58249500D01*
X130151080Y-58249500D01*
X130006092Y-58278340D01*
X130006082Y-58278343D01*
X129874939Y-58332664D01*
X129853076Y-58335014D01*
X129832230Y-58342012D01*
X129819019Y-58338676D01*
X129805470Y-58340133D01*
X129785805Y-58330289D01*
X129764487Y-58324906D01*
X129755176Y-58314956D01*
X129742991Y-58308857D01*
X129731770Y-58289946D01*
X129716746Y-58273891D01*
X129714292Y-58260486D01*
X129707339Y-58248768D01*
X129708123Y-58226794D01*
X129704164Y-58205164D01*
X129709671Y-58183470D01*
X129709833Y-58178943D01*
X129712805Y-58170944D01*
X129769737Y-58033497D01*
X129770122Y-58031558D01*
X129773146Y-58024206D01*
X129791426Y-58001401D01*
X129807442Y-57976950D01*
X129813023Y-57974459D01*
X129816847Y-57969690D01*
X129844558Y-57960387D01*
X129871248Y-57948479D01*
X129877583Y-57949302D01*
X129883085Y-57947456D01*
X129903998Y-57952736D01*
X129935279Y-57956803D01*
X129966503Y-57969737D01*
X130121153Y-58000499D01*
X130121156Y-58000500D01*
X130121158Y-58000500D01*
X130278844Y-58000500D01*
X130278845Y-58000499D01*
X130433497Y-57969737D01*
X130579179Y-57909394D01*
X130710289Y-57821789D01*
X130821789Y-57710289D01*
X130909394Y-57579179D01*
X130969737Y-57433497D01*
X131000500Y-57278842D01*
X131000500Y-57121158D01*
X131000500Y-57121155D01*
X131000499Y-57121153D01*
X131799500Y-57121153D01*
X131799500Y-57278846D01*
X131830261Y-57433489D01*
X131830264Y-57433501D01*
X131890602Y-57579172D01*
X131890609Y-57579185D01*
X131978210Y-57710288D01*
X131978213Y-57710292D01*
X132089707Y-57821786D01*
X132089711Y-57821789D01*
X132220814Y-57909390D01*
X132220827Y-57909397D01*
X132366498Y-57969735D01*
X132366503Y-57969737D01*
X132521153Y-58000499D01*
X132521156Y-58000500D01*
X132521158Y-58000500D01*
X132678844Y-58000500D01*
X132678845Y-58000499D01*
X132833497Y-57969737D01*
X132979179Y-57909394D01*
X133110289Y-57821789D01*
X133221789Y-57710289D01*
X133246090Y-57673920D01*
X138449499Y-57673920D01*
X138478340Y-57818907D01*
X138478343Y-57818917D01*
X138534912Y-57955488D01*
X138534919Y-57955501D01*
X138617048Y-58078415D01*
X138617051Y-58078419D01*
X138721580Y-58182948D01*
X138721584Y-58182951D01*
X138844498Y-58265080D01*
X138844511Y-58265087D01*
X138953647Y-58310292D01*
X138981087Y-58321658D01*
X138981091Y-58321658D01*
X138981092Y-58321659D01*
X139126079Y-58350500D01*
X139126082Y-58350500D01*
X139273920Y-58350500D01*
X139377906Y-58329815D01*
X139418913Y-58321658D01*
X139555495Y-58265084D01*
X139678416Y-58182951D01*
X139782951Y-58078416D01*
X139865084Y-57955495D01*
X139921658Y-57818913D01*
X139943265Y-57710289D01*
X139950500Y-57673920D01*
X139950500Y-57526079D01*
X139921659Y-57381092D01*
X139921658Y-57381091D01*
X139921658Y-57381087D01*
X139883809Y-57289711D01*
X139865087Y-57244511D01*
X139865080Y-57244498D01*
X139782951Y-57121584D01*
X139782948Y-57121580D01*
X139678419Y-57017051D01*
X139678415Y-57017048D01*
X139555501Y-56934919D01*
X139555488Y-56934912D01*
X139418917Y-56878343D01*
X139418907Y-56878340D01*
X139273920Y-56849500D01*
X139273918Y-56849500D01*
X139126082Y-56849500D01*
X139126080Y-56849500D01*
X138981092Y-56878340D01*
X138981082Y-56878343D01*
X138844511Y-56934912D01*
X138844498Y-56934919D01*
X138721584Y-57017048D01*
X138721580Y-57017051D01*
X138617051Y-57121580D01*
X138617048Y-57121584D01*
X138534919Y-57244498D01*
X138534912Y-57244511D01*
X138478343Y-57381082D01*
X138478340Y-57381092D01*
X138449500Y-57526079D01*
X138449500Y-57526082D01*
X138449500Y-57673918D01*
X138449500Y-57673920D01*
X138449499Y-57673920D01*
X133246090Y-57673920D01*
X133309394Y-57579179D01*
X133369737Y-57433497D01*
X133400500Y-57278842D01*
X133400500Y-57121158D01*
X133400500Y-57121155D01*
X133400499Y-57121153D01*
X133391957Y-57078210D01*
X133369737Y-56966503D01*
X133356655Y-56934919D01*
X133309397Y-56820827D01*
X133309390Y-56820814D01*
X133221789Y-56689711D01*
X133221786Y-56689707D01*
X133110292Y-56578213D01*
X133110288Y-56578210D01*
X132979185Y-56490609D01*
X132979172Y-56490602D01*
X132833501Y-56430264D01*
X132833489Y-56430261D01*
X132678845Y-56399500D01*
X132678842Y-56399500D01*
X132521158Y-56399500D01*
X132521155Y-56399500D01*
X132366510Y-56430261D01*
X132366498Y-56430264D01*
X132220827Y-56490602D01*
X132220814Y-56490609D01*
X132089711Y-56578210D01*
X132089707Y-56578213D01*
X131978213Y-56689707D01*
X131978210Y-56689711D01*
X131890609Y-56820814D01*
X131890602Y-56820827D01*
X131830264Y-56966498D01*
X131830261Y-56966510D01*
X131799500Y-57121153D01*
X131000499Y-57121153D01*
X130991957Y-57078210D01*
X130969737Y-56966503D01*
X130956655Y-56934919D01*
X130909397Y-56820827D01*
X130909390Y-56820814D01*
X130821789Y-56689711D01*
X130821786Y-56689707D01*
X130710292Y-56578213D01*
X130710288Y-56578210D01*
X130579185Y-56490609D01*
X130579172Y-56490602D01*
X130433501Y-56430264D01*
X130433489Y-56430261D01*
X130278845Y-56399500D01*
X130278842Y-56399500D01*
X130121158Y-56399500D01*
X130121155Y-56399500D01*
X129966510Y-56430261D01*
X129966498Y-56430264D01*
X129820827Y-56490602D01*
X129820814Y-56490609D01*
X129689711Y-56578210D01*
X129689707Y-56578213D01*
X129578213Y-56689707D01*
X129578210Y-56689711D01*
X129490609Y-56820814D01*
X129490602Y-56820827D01*
X129427932Y-56972130D01*
X129426351Y-56971475D01*
X129392512Y-57023086D01*
X129328694Y-57051528D01*
X129264718Y-57043195D01*
X129233497Y-57030263D01*
X129233489Y-57030261D01*
X129078845Y-56999500D01*
X129078842Y-56999500D01*
X128921158Y-56999500D01*
X128921155Y-56999500D01*
X128766510Y-57030261D01*
X128766498Y-57030264D01*
X128620827Y-57090602D01*
X128620814Y-57090609D01*
X128489711Y-57178210D01*
X128489707Y-57178213D01*
X128378213Y-57289707D01*
X128378210Y-57289711D01*
X128290609Y-57420814D01*
X128290602Y-57420827D01*
X128230264Y-57566498D01*
X128230261Y-57566510D01*
X128199500Y-57721153D01*
X106500500Y-57721153D01*
X106500500Y-55609568D01*
X159749500Y-55609568D01*
X159749500Y-55890431D01*
X159780942Y-56169494D01*
X159780945Y-56169512D01*
X159843439Y-56443317D01*
X159843443Y-56443329D01*
X159936200Y-56708411D01*
X160058053Y-56961442D01*
X160064357Y-56971475D01*
X160207477Y-57199248D01*
X160382584Y-57418825D01*
X160581175Y-57617416D01*
X160800752Y-57792523D01*
X161038555Y-57941945D01*
X161291592Y-58063801D01*
X161365784Y-58089762D01*
X161419216Y-58108459D01*
X161475992Y-58149181D01*
X161501739Y-58214133D01*
X161488283Y-58282695D01*
X161439895Y-58333098D01*
X161378261Y-58349500D01*
X161045260Y-58349500D01*
X160912017Y-58359987D01*
X160691997Y-58415426D01*
X160485420Y-58509258D01*
X160485410Y-58509263D01*
X160298909Y-58638473D01*
X160138473Y-58798909D01*
X160009263Y-58985410D01*
X160009258Y-58985420D01*
X159915426Y-59191997D01*
X159859987Y-59412017D01*
X159849500Y-59545260D01*
X159849500Y-61954739D01*
X159857365Y-62054671D01*
X159859987Y-62087983D01*
X159870124Y-62128213D01*
X159915426Y-62308002D01*
X160009258Y-62514579D01*
X160009263Y-62514589D01*
X160138473Y-62701090D01*
X160298909Y-62861526D01*
X160485410Y-62990736D01*
X160485420Y-62990741D01*
X160691997Y-63084573D01*
X160691998Y-63084573D01*
X160692000Y-63084574D01*
X160912017Y-63140013D01*
X161045264Y-63150500D01*
X161045270Y-63150500D01*
X163454730Y-63150500D01*
X163454736Y-63150500D01*
X163587983Y-63140013D01*
X163808000Y-63084574D01*
X164014582Y-62990740D01*
X164014584Y-62990738D01*
X164014589Y-62990736D01*
X164177007Y-62878211D01*
X164201089Y-62861527D01*
X164361527Y-62701089D01*
X164410597Y-62630261D01*
X164490736Y-62514589D01*
X164490741Y-62514579D01*
X164556037Y-62370827D01*
X164584574Y-62308000D01*
X164640013Y-62087983D01*
X164650500Y-61954736D01*
X164650500Y-59545264D01*
X164640013Y-59412017D01*
X164584574Y-59192000D01*
X164490740Y-58985418D01*
X164490736Y-58985410D01*
X164361526Y-58798909D01*
X164201090Y-58638473D01*
X164014589Y-58509263D01*
X164014579Y-58509258D01*
X163808002Y-58415426D01*
X163660303Y-58378210D01*
X163587983Y-58359987D01*
X163554671Y-58357365D01*
X163454739Y-58349500D01*
X163454736Y-58349500D01*
X163121739Y-58349500D01*
X163054700Y-58329815D01*
X163008945Y-58277011D01*
X162999001Y-58207853D01*
X163028026Y-58144297D01*
X163080784Y-58108459D01*
X163120692Y-58094494D01*
X163208408Y-58063801D01*
X163461445Y-57941945D01*
X163699248Y-57792523D01*
X163918825Y-57617416D01*
X164117416Y-57418825D01*
X164292523Y-57199248D01*
X164441945Y-56961445D01*
X164563801Y-56708408D01*
X164656560Y-56443318D01*
X164719055Y-56169509D01*
X164750500Y-55890425D01*
X164750500Y-55609575D01*
X164729342Y-55421789D01*
X164719057Y-55330505D01*
X164719054Y-55330487D01*
X164656560Y-55056682D01*
X164656556Y-55056670D01*
X164594332Y-54878846D01*
X164563801Y-54791592D01*
X164441945Y-54538555D01*
X164292523Y-54300752D01*
X164117416Y-54081175D01*
X163918825Y-53882584D01*
X163699248Y-53707477D01*
X163461445Y-53558055D01*
X163461442Y-53558053D01*
X163208411Y-53436200D01*
X162943329Y-53343443D01*
X162943317Y-53343439D01*
X162669512Y-53280945D01*
X162669494Y-53280942D01*
X162390431Y-53249500D01*
X162390425Y-53249500D01*
X162109575Y-53249500D01*
X162109568Y-53249500D01*
X161830505Y-53280942D01*
X161830487Y-53280945D01*
X161556682Y-53343439D01*
X161556670Y-53343443D01*
X161291588Y-53436200D01*
X161038557Y-53558053D01*
X160800753Y-53707476D01*
X160581175Y-53882583D01*
X160382583Y-54081175D01*
X160207476Y-54300753D01*
X160058053Y-54538557D01*
X159936200Y-54791588D01*
X159843443Y-55056670D01*
X159843439Y-55056682D01*
X159780945Y-55330487D01*
X159780942Y-55330505D01*
X159749500Y-55609568D01*
X106500500Y-55609568D01*
X106500500Y-54098920D01*
X119449499Y-54098920D01*
X119478340Y-54243907D01*
X119478343Y-54243917D01*
X119534912Y-54380488D01*
X119534919Y-54380501D01*
X119617048Y-54503415D01*
X119617051Y-54503419D01*
X119721580Y-54607948D01*
X119721584Y-54607951D01*
X119844498Y-54690080D01*
X119844511Y-54690087D01*
X119919512Y-54721153D01*
X119981087Y-54746658D01*
X119981091Y-54746658D01*
X119981092Y-54746659D01*
X120126079Y-54775500D01*
X120126082Y-54775500D01*
X120273920Y-54775500D01*
X120371462Y-54756096D01*
X120418913Y-54746658D01*
X120555495Y-54690084D01*
X120678416Y-54607951D01*
X120782951Y-54503416D01*
X120865084Y-54380495D01*
X120921658Y-54243913D01*
X120950500Y-54098918D01*
X120950500Y-53951082D01*
X120944547Y-53921153D01*
X157999500Y-53921153D01*
X157999500Y-54078846D01*
X158030261Y-54233489D01*
X158030264Y-54233501D01*
X158079574Y-54352548D01*
X158087043Y-54422018D01*
X158079574Y-54447452D01*
X158030264Y-54566498D01*
X158030261Y-54566510D01*
X157999500Y-54721153D01*
X157999500Y-54878846D01*
X158030261Y-55033489D01*
X158030264Y-55033501D01*
X158090602Y-55179172D01*
X158090609Y-55179185D01*
X158178210Y-55310288D01*
X158178213Y-55310292D01*
X158289707Y-55421786D01*
X158289711Y-55421789D01*
X158420814Y-55509390D01*
X158420827Y-55509397D01*
X158566498Y-55569735D01*
X158566503Y-55569737D01*
X158721153Y-55600499D01*
X158721156Y-55600500D01*
X158721158Y-55600500D01*
X158878844Y-55600500D01*
X158878845Y-55600499D01*
X159033497Y-55569737D01*
X159179179Y-55509394D01*
X159310289Y-55421789D01*
X159421789Y-55310289D01*
X159509394Y-55179179D01*
X159569737Y-55033497D01*
X159600500Y-54878842D01*
X159600500Y-54721158D01*
X159600500Y-54721155D01*
X159600499Y-54721153D01*
X159569737Y-54566503D01*
X159569735Y-54566498D01*
X159520425Y-54447452D01*
X159512956Y-54377983D01*
X159520425Y-54352548D01*
X159565421Y-54243917D01*
X159569737Y-54233497D01*
X159600500Y-54078842D01*
X159600500Y-53921158D01*
X159600500Y-53921155D01*
X159600499Y-53921153D01*
X159569738Y-53766510D01*
X159569737Y-53766503D01*
X159545288Y-53707477D01*
X159509397Y-53620827D01*
X159509390Y-53620814D01*
X159421789Y-53489711D01*
X159421786Y-53489707D01*
X159310292Y-53378213D01*
X159310288Y-53378210D01*
X159179185Y-53290609D01*
X159179172Y-53290602D01*
X159033501Y-53230264D01*
X159033489Y-53230261D01*
X158878845Y-53199500D01*
X158878842Y-53199500D01*
X158721158Y-53199500D01*
X158721155Y-53199500D01*
X158566510Y-53230261D01*
X158566498Y-53230264D01*
X158420827Y-53290602D01*
X158420814Y-53290609D01*
X158289711Y-53378210D01*
X158289707Y-53378213D01*
X158178213Y-53489707D01*
X158178210Y-53489711D01*
X158090609Y-53620814D01*
X158090602Y-53620827D01*
X158030264Y-53766498D01*
X158030261Y-53766510D01*
X157999500Y-53921153D01*
X120944547Y-53921153D01*
X120921658Y-53806087D01*
X120905260Y-53766498D01*
X120865087Y-53669511D01*
X120865080Y-53669498D01*
X120782951Y-53546584D01*
X120782948Y-53546580D01*
X120678419Y-53442051D01*
X120678415Y-53442048D01*
X120555501Y-53359919D01*
X120555488Y-53359912D01*
X120418917Y-53303343D01*
X120418907Y-53303340D01*
X120273920Y-53274500D01*
X120273918Y-53274500D01*
X120126082Y-53274500D01*
X120126080Y-53274500D01*
X119981092Y-53303340D01*
X119981082Y-53303343D01*
X119844511Y-53359912D01*
X119844498Y-53359919D01*
X119721584Y-53442048D01*
X119721580Y-53442051D01*
X119617051Y-53546580D01*
X119617048Y-53546584D01*
X119534919Y-53669498D01*
X119534912Y-53669511D01*
X119478343Y-53806082D01*
X119478340Y-53806092D01*
X119449500Y-53951079D01*
X119449500Y-53951082D01*
X119449500Y-54098918D01*
X119449500Y-54098920D01*
X119449499Y-54098920D01*
X106500500Y-54098920D01*
X106500500Y-46121153D01*
X127799500Y-46121153D01*
X127799500Y-46278846D01*
X127830261Y-46433489D01*
X127830264Y-46433501D01*
X127879574Y-46552548D01*
X127887043Y-46622018D01*
X127879574Y-46647452D01*
X127830264Y-46766498D01*
X127830261Y-46766510D01*
X127799500Y-46921153D01*
X127799500Y-47078846D01*
X127830261Y-47233489D01*
X127830264Y-47233501D01*
X127890602Y-47379172D01*
X127890609Y-47379185D01*
X127978210Y-47510288D01*
X127978213Y-47510292D01*
X128089707Y-47621786D01*
X128089711Y-47621789D01*
X128220814Y-47709390D01*
X128220827Y-47709397D01*
X128366498Y-47769735D01*
X128366503Y-47769737D01*
X128521153Y-47800499D01*
X128521156Y-47800500D01*
X128521158Y-47800500D01*
X128678844Y-47800500D01*
X128678845Y-47800499D01*
X128833497Y-47769737D01*
X128950790Y-47721153D01*
X132199500Y-47721153D01*
X132199500Y-47878846D01*
X132230261Y-48033489D01*
X132230264Y-48033501D01*
X132290602Y-48179172D01*
X132290609Y-48179185D01*
X132325304Y-48231109D01*
X132346182Y-48297786D01*
X132327698Y-48365167D01*
X132325304Y-48368891D01*
X132290609Y-48420814D01*
X132290602Y-48420827D01*
X132230264Y-48566498D01*
X132230261Y-48566510D01*
X132199500Y-48721153D01*
X132199500Y-48878846D01*
X132230261Y-49033489D01*
X132230264Y-49033501D01*
X132290602Y-49179172D01*
X132290609Y-49179185D01*
X132378210Y-49310288D01*
X132378213Y-49310292D01*
X132489707Y-49421786D01*
X132489711Y-49421789D01*
X132620814Y-49509390D01*
X132620827Y-49509397D01*
X132766498Y-49569735D01*
X132766503Y-49569737D01*
X132921153Y-49600499D01*
X132921156Y-49600500D01*
X132921158Y-49600500D01*
X133078844Y-49600500D01*
X133078845Y-49600499D01*
X133233497Y-49569737D01*
X133379179Y-49509394D01*
X133510289Y-49421789D01*
X133621789Y-49310289D01*
X133709394Y-49179179D01*
X133769737Y-49033497D01*
X133800500Y-48878842D01*
X133800500Y-48721158D01*
X133800500Y-48721155D01*
X133800499Y-48721153D01*
X133769738Y-48566510D01*
X133769737Y-48566503D01*
X133769735Y-48566498D01*
X133709396Y-48420825D01*
X133709394Y-48420822D01*
X133709394Y-48420821D01*
X133674694Y-48368889D01*
X133653816Y-48302215D01*
X133672300Y-48234835D01*
X133674676Y-48231136D01*
X133709394Y-48179179D01*
X133769737Y-48033497D01*
X133800500Y-47878842D01*
X133800500Y-47721158D01*
X133800500Y-47721155D01*
X133800499Y-47721153D01*
X133780734Y-47621788D01*
X133769737Y-47566503D01*
X133746452Y-47510288D01*
X133709397Y-47420827D01*
X133709390Y-47420814D01*
X133621789Y-47289711D01*
X133621786Y-47289707D01*
X133510292Y-47178213D01*
X133510288Y-47178210D01*
X133379185Y-47090609D01*
X133379172Y-47090602D01*
X133233501Y-47030264D01*
X133233489Y-47030261D01*
X133078845Y-46999500D01*
X133078842Y-46999500D01*
X132921158Y-46999500D01*
X132921155Y-46999500D01*
X132766510Y-47030261D01*
X132766498Y-47030264D01*
X132620827Y-47090602D01*
X132620814Y-47090609D01*
X132489711Y-47178210D01*
X132489707Y-47178213D01*
X132378213Y-47289707D01*
X132378210Y-47289711D01*
X132290609Y-47420814D01*
X132290602Y-47420827D01*
X132230264Y-47566498D01*
X132230261Y-47566510D01*
X132199500Y-47721153D01*
X128950790Y-47721153D01*
X128979179Y-47709394D01*
X129110289Y-47621789D01*
X129221789Y-47510289D01*
X129309394Y-47379179D01*
X129369737Y-47233497D01*
X129400500Y-47078842D01*
X129400500Y-46921158D01*
X129400500Y-46921155D01*
X129400499Y-46921153D01*
X129369738Y-46766510D01*
X129369737Y-46766503D01*
X129320425Y-46647452D01*
X129312956Y-46577983D01*
X129320425Y-46552548D01*
X129369735Y-46433501D01*
X129369737Y-46433497D01*
X129400500Y-46278842D01*
X129400500Y-46121158D01*
X129400500Y-46121155D01*
X129400499Y-46121153D01*
X129369738Y-45966510D01*
X129369737Y-45966503D01*
X129369735Y-45966498D01*
X129309397Y-45820827D01*
X129309390Y-45820814D01*
X129221789Y-45689711D01*
X129221786Y-45689707D01*
X129110292Y-45578213D01*
X129110288Y-45578210D01*
X128979185Y-45490609D01*
X128979172Y-45490602D01*
X128833501Y-45430264D01*
X128833489Y-45430261D01*
X128678845Y-45399500D01*
X128678842Y-45399500D01*
X128521158Y-45399500D01*
X128521155Y-45399500D01*
X128366510Y-45430261D01*
X128366498Y-45430264D01*
X128220827Y-45490602D01*
X128220814Y-45490609D01*
X128089711Y-45578210D01*
X128089707Y-45578213D01*
X127978213Y-45689707D01*
X127978210Y-45689711D01*
X127890609Y-45820814D01*
X127890602Y-45820827D01*
X127830264Y-45966498D01*
X127830261Y-45966510D01*
X127799500Y-46121153D01*
X106500500Y-46121153D01*
X106500500Y-43323920D01*
X111499499Y-43323920D01*
X111528340Y-43468907D01*
X111528343Y-43468917D01*
X111584912Y-43605488D01*
X111584919Y-43605501D01*
X111667048Y-43728415D01*
X111667051Y-43728419D01*
X111771580Y-43832948D01*
X111771584Y-43832951D01*
X111894498Y-43915080D01*
X111894511Y-43915087D01*
X112031082Y-43971656D01*
X112031087Y-43971658D01*
X112031091Y-43971658D01*
X112031092Y-43971659D01*
X112176079Y-44000500D01*
X112176082Y-44000500D01*
X112323920Y-44000500D01*
X112421462Y-43981096D01*
X112468913Y-43971658D01*
X112605495Y-43915084D01*
X112728416Y-43832951D01*
X112832951Y-43728416D01*
X112915084Y-43605495D01*
X112971658Y-43468913D01*
X112981096Y-43421462D01*
X113000500Y-43323920D01*
X113000500Y-43176079D01*
X112971659Y-43031092D01*
X112971658Y-43031091D01*
X112971658Y-43031087D01*
X112926122Y-42921153D01*
X161699500Y-42921153D01*
X161699500Y-43078846D01*
X161730261Y-43233489D01*
X161730264Y-43233501D01*
X161790602Y-43379172D01*
X161790609Y-43379185D01*
X161878210Y-43510288D01*
X161878213Y-43510292D01*
X161989707Y-43621786D01*
X161989711Y-43621789D01*
X162120814Y-43709390D01*
X162120827Y-43709397D01*
X162266498Y-43769735D01*
X162266503Y-43769737D01*
X162421153Y-43800499D01*
X162421156Y-43800500D01*
X162421158Y-43800500D01*
X162578844Y-43800500D01*
X162578845Y-43800499D01*
X162733497Y-43769737D01*
X162879179Y-43709394D01*
X163010289Y-43621789D01*
X163121789Y-43510289D01*
X163209394Y-43379179D01*
X163269737Y-43233497D01*
X163300500Y-43078842D01*
X163300500Y-42921158D01*
X163300500Y-42921155D01*
X163300499Y-42921153D01*
X163269737Y-42766503D01*
X163228542Y-42667048D01*
X163209397Y-42620827D01*
X163209390Y-42620814D01*
X163121789Y-42489711D01*
X163121786Y-42489707D01*
X163010292Y-42378213D01*
X163010288Y-42378210D01*
X162879185Y-42290609D01*
X162879172Y-42290602D01*
X162733501Y-42230264D01*
X162733489Y-42230261D01*
X162578845Y-42199500D01*
X162578842Y-42199500D01*
X162421158Y-42199500D01*
X162421155Y-42199500D01*
X162266510Y-42230261D01*
X162266498Y-42230264D01*
X162120827Y-42290602D01*
X162120814Y-42290609D01*
X161989711Y-42378210D01*
X161989707Y-42378213D01*
X161878213Y-42489707D01*
X161878210Y-42489711D01*
X161790609Y-42620814D01*
X161790602Y-42620827D01*
X161730264Y-42766498D01*
X161730261Y-42766510D01*
X161699500Y-42921153D01*
X112926122Y-42921153D01*
X112915087Y-42894511D01*
X112915080Y-42894498D01*
X112832951Y-42771584D01*
X112832948Y-42771580D01*
X112728419Y-42667051D01*
X112728415Y-42667048D01*
X112605501Y-42584919D01*
X112605488Y-42584912D01*
X112468917Y-42528343D01*
X112468907Y-42528340D01*
X112323920Y-42499500D01*
X112323918Y-42499500D01*
X112176082Y-42499500D01*
X112176080Y-42499500D01*
X112031092Y-42528340D01*
X112031082Y-42528343D01*
X111894511Y-42584912D01*
X111894498Y-42584919D01*
X111771584Y-42667048D01*
X111771580Y-42667051D01*
X111667051Y-42771580D01*
X111667048Y-42771584D01*
X111584919Y-42894498D01*
X111584912Y-42894511D01*
X111528343Y-43031082D01*
X111528340Y-43031092D01*
X111499500Y-43176079D01*
X111499500Y-43176082D01*
X111499500Y-43323918D01*
X111499500Y-43323920D01*
X111499499Y-43323920D01*
X106500500Y-43323920D01*
X106500500Y-41671153D01*
X157449500Y-41671153D01*
X157449500Y-41828846D01*
X157480261Y-41983489D01*
X157480264Y-41983501D01*
X157540602Y-42129172D01*
X157540609Y-42129185D01*
X157628210Y-42260288D01*
X157628213Y-42260292D01*
X157739707Y-42371786D01*
X157739711Y-42371789D01*
X157870814Y-42459390D01*
X157870827Y-42459397D01*
X157944013Y-42489711D01*
X158016503Y-42519737D01*
X158171153Y-42550499D01*
X158171156Y-42550500D01*
X158171158Y-42550500D01*
X158328844Y-42550500D01*
X158328845Y-42550499D01*
X158483497Y-42519737D01*
X158629179Y-42459394D01*
X158760289Y-42371789D01*
X158871789Y-42260289D01*
X158959394Y-42129179D01*
X159019737Y-41983497D01*
X159050500Y-41828842D01*
X159050500Y-41671158D01*
X159050500Y-41671155D01*
X159050499Y-41671153D01*
X159019738Y-41516510D01*
X159019737Y-41516503D01*
X159019735Y-41516498D01*
X158959397Y-41370827D01*
X158959390Y-41370814D01*
X158871789Y-41239711D01*
X158871786Y-41239707D01*
X158760292Y-41128213D01*
X158760288Y-41128210D01*
X158629185Y-41040609D01*
X158629172Y-41040602D01*
X158483501Y-40980264D01*
X158483489Y-40980261D01*
X158328845Y-40949500D01*
X158328842Y-40949500D01*
X158171158Y-40949500D01*
X158171155Y-40949500D01*
X158016510Y-40980261D01*
X158016498Y-40980264D01*
X157870827Y-41040602D01*
X157870814Y-41040609D01*
X157739711Y-41128210D01*
X157739707Y-41128213D01*
X157628213Y-41239707D01*
X157628210Y-41239711D01*
X157540609Y-41370814D01*
X157540602Y-41370827D01*
X157480264Y-41516498D01*
X157480261Y-41516510D01*
X157449500Y-41671153D01*
X106500500Y-41671153D01*
X106500500Y-38573920D01*
X111049499Y-38573920D01*
X111078340Y-38718907D01*
X111078343Y-38718917D01*
X111134912Y-38855488D01*
X111134919Y-38855501D01*
X111217048Y-38978415D01*
X111217051Y-38978419D01*
X111321580Y-39082948D01*
X111321584Y-39082951D01*
X111444498Y-39165080D01*
X111444511Y-39165087D01*
X111581082Y-39221656D01*
X111581087Y-39221658D01*
X111581091Y-39221658D01*
X111581092Y-39221659D01*
X111726079Y-39250500D01*
X111726082Y-39250500D01*
X111873920Y-39250500D01*
X111971462Y-39231096D01*
X112018913Y-39221658D01*
X112155495Y-39165084D01*
X112278416Y-39082951D01*
X112382951Y-38978416D01*
X112465084Y-38855495D01*
X112521658Y-38718913D01*
X112550500Y-38573918D01*
X112550500Y-38426082D01*
X112550500Y-38426079D01*
X112521659Y-38281092D01*
X112521658Y-38281091D01*
X112521658Y-38281087D01*
X112521656Y-38281082D01*
X112465087Y-38144511D01*
X112465080Y-38144498D01*
X112382951Y-38021584D01*
X112382948Y-38021580D01*
X112278419Y-37917051D01*
X112278415Y-37917048D01*
X112155501Y-37834919D01*
X112155488Y-37834912D01*
X112018917Y-37778343D01*
X112018907Y-37778340D01*
X111873920Y-37749500D01*
X111873918Y-37749500D01*
X111726082Y-37749500D01*
X111726080Y-37749500D01*
X111581092Y-37778340D01*
X111581082Y-37778343D01*
X111444511Y-37834912D01*
X111444498Y-37834919D01*
X111321584Y-37917048D01*
X111321580Y-37917051D01*
X111217051Y-38021580D01*
X111217048Y-38021584D01*
X111134919Y-38144498D01*
X111134912Y-38144511D01*
X111078343Y-38281082D01*
X111078340Y-38281092D01*
X111049500Y-38426079D01*
X111049500Y-38426082D01*
X111049500Y-38573918D01*
X111049500Y-38573920D01*
X111049499Y-38573920D01*
X106500500Y-38573920D01*
X106500500Y-31873920D01*
X129049499Y-31873920D01*
X129078340Y-32018907D01*
X129078343Y-32018917D01*
X129134912Y-32155488D01*
X129134919Y-32155501D01*
X129217048Y-32278415D01*
X129217051Y-32278419D01*
X129321580Y-32382948D01*
X129321585Y-32382952D01*
X129342454Y-32396896D01*
X129387260Y-32450507D01*
X129395969Y-32519832D01*
X129365815Y-32582860D01*
X129342460Y-32603099D01*
X129321581Y-32617050D01*
X129217051Y-32721580D01*
X129217048Y-32721584D01*
X129134919Y-32844498D01*
X129134912Y-32844511D01*
X129078343Y-32981082D01*
X129078340Y-32981092D01*
X129049500Y-33126079D01*
X129049500Y-33126082D01*
X129049500Y-33273918D01*
X129049500Y-33273920D01*
X129049499Y-33273920D01*
X129078340Y-33418907D01*
X129078343Y-33418917D01*
X129134912Y-33555488D01*
X129134919Y-33555501D01*
X129217047Y-33678414D01*
X129217048Y-33678415D01*
X129217049Y-33678416D01*
X129290454Y-33751821D01*
X129323938Y-33813142D01*
X129318954Y-33882834D01*
X129317333Y-33886953D01*
X129278343Y-33981082D01*
X129278340Y-33981092D01*
X129249500Y-34126079D01*
X129249500Y-34126082D01*
X129249500Y-34273918D01*
X129249500Y-34273920D01*
X129249499Y-34273920D01*
X129278340Y-34418907D01*
X129278343Y-34418917D01*
X129334912Y-34555488D01*
X129334919Y-34555501D01*
X129385439Y-34631109D01*
X129406317Y-34697787D01*
X129387832Y-34765167D01*
X129385439Y-34768891D01*
X129334919Y-34844498D01*
X129334912Y-34844511D01*
X129278343Y-34981082D01*
X129278340Y-34981092D01*
X129249500Y-35126079D01*
X129249500Y-35126082D01*
X129249500Y-35273918D01*
X129249500Y-35273920D01*
X129249499Y-35273920D01*
X129278340Y-35418907D01*
X129278343Y-35418917D01*
X129334912Y-35555488D01*
X129334919Y-35555501D01*
X129417048Y-35678415D01*
X129417051Y-35678419D01*
X129521580Y-35782948D01*
X129521584Y-35782951D01*
X129644498Y-35865080D01*
X129644511Y-35865087D01*
X129781082Y-35921656D01*
X129781087Y-35921658D01*
X129781091Y-35921658D01*
X129781092Y-35921659D01*
X129926079Y-35950500D01*
X129926082Y-35950500D01*
X130073920Y-35950500D01*
X130171462Y-35931096D01*
X130218913Y-35921658D01*
X130355495Y-35865084D01*
X130478416Y-35782951D01*
X130582951Y-35678416D01*
X130596897Y-35657543D01*
X130650509Y-35612738D01*
X130719834Y-35604031D01*
X130782862Y-35634185D01*
X130803103Y-35657544D01*
X130817050Y-35678418D01*
X130921580Y-35782948D01*
X130921584Y-35782951D01*
X131044498Y-35865080D01*
X131044511Y-35865087D01*
X131181082Y-35921656D01*
X131181087Y-35921658D01*
X131181091Y-35921658D01*
X131181092Y-35921659D01*
X131326079Y-35950500D01*
X131326082Y-35950500D01*
X131473920Y-35950500D01*
X131571462Y-35931096D01*
X131618913Y-35921658D01*
X131755495Y-35865084D01*
X131878416Y-35782951D01*
X131982951Y-35678416D01*
X132065084Y-35555495D01*
X132085439Y-35506354D01*
X132129279Y-35451950D01*
X132195573Y-35429885D01*
X132263273Y-35447164D01*
X132310884Y-35498301D01*
X132314561Y-35506354D01*
X132334912Y-35555488D01*
X132334919Y-35555501D01*
X132417048Y-35678415D01*
X132417051Y-35678419D01*
X132521580Y-35782948D01*
X132521584Y-35782951D01*
X132644498Y-35865080D01*
X132644511Y-35865087D01*
X132781082Y-35921656D01*
X132781087Y-35921658D01*
X132781091Y-35921658D01*
X132781092Y-35921659D01*
X132926079Y-35950500D01*
X132926082Y-35950500D01*
X133073920Y-35950500D01*
X133171462Y-35931096D01*
X133218913Y-35921658D01*
X133355495Y-35865084D01*
X133478416Y-35782951D01*
X133582951Y-35678416D01*
X133665084Y-35555495D01*
X133721658Y-35418913D01*
X133731096Y-35371462D01*
X133750500Y-35273920D01*
X133750500Y-35126079D01*
X133721659Y-34981092D01*
X133721658Y-34981091D01*
X133721658Y-34981087D01*
X133721656Y-34981082D01*
X133665087Y-34844511D01*
X133665080Y-34844498D01*
X133582951Y-34721584D01*
X133582948Y-34721580D01*
X133478416Y-34617048D01*
X133451479Y-34599050D01*
X133406674Y-34545438D01*
X133397967Y-34476113D01*
X133417268Y-34427057D01*
X133465080Y-34355501D01*
X133465080Y-34355500D01*
X133465084Y-34355495D01*
X133521658Y-34218913D01*
X133550500Y-34073918D01*
X133550500Y-33934701D01*
X133570185Y-33867662D01*
X133605610Y-33831599D01*
X133654487Y-33798939D01*
X133678416Y-33782951D01*
X133782951Y-33678416D01*
X133865084Y-33555495D01*
X133921658Y-33418913D01*
X133931096Y-33371462D01*
X133950500Y-33273920D01*
X133950500Y-33126079D01*
X133921659Y-32981092D01*
X133921658Y-32981091D01*
X133921658Y-32981087D01*
X133921656Y-32981082D01*
X133865087Y-32844511D01*
X133865080Y-32844498D01*
X133782951Y-32721584D01*
X133782948Y-32721580D01*
X133678419Y-32617051D01*
X133678415Y-32617048D01*
X133555492Y-32534913D01*
X133553684Y-32533947D01*
X133552914Y-32533191D01*
X133550430Y-32531531D01*
X133550744Y-32531059D01*
X133503841Y-32484984D01*
X133488381Y-32416846D01*
X133512214Y-32351167D01*
X133524451Y-32336915D01*
X133582951Y-32278416D01*
X133665084Y-32155495D01*
X133721658Y-32018913D01*
X133750500Y-31873918D01*
X133750500Y-31726082D01*
X133750500Y-31726079D01*
X133721659Y-31581092D01*
X133721658Y-31581091D01*
X133721658Y-31581087D01*
X133721656Y-31581082D01*
X133665087Y-31444511D01*
X133665080Y-31444498D01*
X133582951Y-31321584D01*
X133582948Y-31321580D01*
X133478419Y-31217051D01*
X133478415Y-31217048D01*
X133355501Y-31134919D01*
X133355488Y-31134912D01*
X133218917Y-31078343D01*
X133218907Y-31078340D01*
X133073920Y-31049500D01*
X133073918Y-31049500D01*
X132926082Y-31049500D01*
X132926080Y-31049500D01*
X132781092Y-31078340D01*
X132781082Y-31078343D01*
X132644511Y-31134912D01*
X132644498Y-31134919D01*
X132568891Y-31185439D01*
X132502213Y-31206317D01*
X132434833Y-31187832D01*
X132431109Y-31185439D01*
X132355501Y-31134919D01*
X132355488Y-31134912D01*
X132218917Y-31078343D01*
X132218907Y-31078340D01*
X132073920Y-31049500D01*
X132073918Y-31049500D01*
X131926082Y-31049500D01*
X131926080Y-31049500D01*
X131781092Y-31078340D01*
X131781086Y-31078342D01*
X131747451Y-31092274D01*
X131677981Y-31099741D01*
X131652549Y-31092274D01*
X131618913Y-31078342D01*
X131618907Y-31078340D01*
X131473920Y-31049500D01*
X131473918Y-31049500D01*
X131326082Y-31049500D01*
X131326080Y-31049500D01*
X131181092Y-31078340D01*
X131181082Y-31078343D01*
X131047452Y-31133694D01*
X130977982Y-31141163D01*
X130952548Y-31133694D01*
X130818917Y-31078343D01*
X130818907Y-31078340D01*
X130673920Y-31049500D01*
X130673918Y-31049500D01*
X130526082Y-31049500D01*
X130526080Y-31049500D01*
X130381092Y-31078340D01*
X130381082Y-31078343D01*
X130247452Y-31133694D01*
X130177982Y-31141163D01*
X130152548Y-31133694D01*
X130018917Y-31078343D01*
X130018907Y-31078340D01*
X129873920Y-31049500D01*
X129873918Y-31049500D01*
X129726082Y-31049500D01*
X129726080Y-31049500D01*
X129581092Y-31078340D01*
X129581082Y-31078343D01*
X129444511Y-31134912D01*
X129444498Y-31134919D01*
X129321584Y-31217048D01*
X129321580Y-31217051D01*
X129217051Y-31321580D01*
X129217048Y-31321584D01*
X129134919Y-31444498D01*
X129134912Y-31444511D01*
X129078343Y-31581082D01*
X129078340Y-31581092D01*
X129049500Y-31726079D01*
X129049500Y-31726082D01*
X129049500Y-31873918D01*
X129049500Y-31873920D01*
X129049499Y-31873920D01*
X106500500Y-31873920D01*
X106500500Y-27473920D01*
X107049499Y-27473920D01*
X107078340Y-27618907D01*
X107078343Y-27618917D01*
X107134912Y-27755488D01*
X107134919Y-27755501D01*
X107217048Y-27878415D01*
X107217051Y-27878419D01*
X107321580Y-27982948D01*
X107321584Y-27982951D01*
X107444498Y-28065080D01*
X107444511Y-28065087D01*
X107518432Y-28095705D01*
X107572952Y-28118288D01*
X107627356Y-28162128D01*
X107649421Y-28228422D01*
X107649500Y-28232849D01*
X107649500Y-28273918D01*
X107649500Y-28273920D01*
X107649499Y-28273920D01*
X107678340Y-28418907D01*
X107678343Y-28418917D01*
X107717332Y-28513046D01*
X107724801Y-28582516D01*
X107693525Y-28644995D01*
X107690453Y-28648179D01*
X107617048Y-28721584D01*
X107534919Y-28844498D01*
X107534912Y-28844511D01*
X107478343Y-28981082D01*
X107478340Y-28981092D01*
X107449500Y-29126079D01*
X107449500Y-29126082D01*
X107449500Y-29273918D01*
X107449500Y-29273920D01*
X107449499Y-29273920D01*
X107478340Y-29418907D01*
X107478343Y-29418917D01*
X107534912Y-29555488D01*
X107534919Y-29555501D01*
X107617048Y-29678415D01*
X107617051Y-29678419D01*
X107638339Y-29699707D01*
X107671824Y-29761030D01*
X107672275Y-29811579D01*
X107649500Y-29926077D01*
X107649500Y-29926082D01*
X107649500Y-30073918D01*
X107649500Y-30073920D01*
X107649499Y-30073920D01*
X107678340Y-30218907D01*
X107678343Y-30218917D01*
X107734912Y-30355488D01*
X107734919Y-30355501D01*
X107817048Y-30478415D01*
X107817051Y-30478419D01*
X107921580Y-30582948D01*
X107921584Y-30582951D01*
X108044498Y-30665080D01*
X108044511Y-30665087D01*
X108126454Y-30699028D01*
X108181087Y-30721658D01*
X108181094Y-30721659D01*
X108186920Y-30723427D01*
X108186571Y-30724576D01*
X108242845Y-30754004D01*
X108276505Y-30813101D01*
X108276573Y-30813081D01*
X108276663Y-30813378D01*
X108277425Y-30814716D01*
X108278328Y-30818867D01*
X108278343Y-30818917D01*
X108334912Y-30955488D01*
X108334919Y-30955501D01*
X108417048Y-31078415D01*
X108417051Y-31078419D01*
X108521580Y-31182948D01*
X108521584Y-31182951D01*
X108644498Y-31265080D01*
X108644511Y-31265087D01*
X108780899Y-31321580D01*
X108781087Y-31321658D01*
X108781091Y-31321658D01*
X108781092Y-31321659D01*
X108926079Y-31350500D01*
X108926082Y-31350500D01*
X109073920Y-31350500D01*
X109171462Y-31331096D01*
X109218913Y-31321658D01*
X109355495Y-31265084D01*
X109478416Y-31182951D01*
X109582951Y-31078416D01*
X109665084Y-30955495D01*
X109721658Y-30818913D01*
X109721660Y-30818902D01*
X109723427Y-30813080D01*
X109724576Y-30813428D01*
X109753999Y-30757159D01*
X109813099Y-30723491D01*
X109813080Y-30723427D01*
X109813363Y-30723341D01*
X109814708Y-30722575D01*
X109818889Y-30721664D01*
X109818901Y-30721660D01*
X109818913Y-30721658D01*
X109955495Y-30665084D01*
X110078416Y-30582951D01*
X110182951Y-30478416D01*
X110265084Y-30355495D01*
X110321658Y-30218913D01*
X110335267Y-30150500D01*
X110350500Y-30073920D01*
X110350500Y-29934701D01*
X110370185Y-29867662D01*
X110405610Y-29831599D01*
X110454487Y-29798939D01*
X110478416Y-29782951D01*
X110582951Y-29678416D01*
X110665084Y-29555495D01*
X110698873Y-29473920D01*
X131849499Y-29473920D01*
X131878340Y-29618907D01*
X131878343Y-29618917D01*
X131934912Y-29755488D01*
X131934919Y-29755501D01*
X132017048Y-29878415D01*
X132017051Y-29878419D01*
X132121580Y-29982948D01*
X132121584Y-29982951D01*
X132244498Y-30065080D01*
X132244511Y-30065087D01*
X132381082Y-30121656D01*
X132381087Y-30121658D01*
X132381091Y-30121658D01*
X132381092Y-30121659D01*
X132526079Y-30150500D01*
X132526082Y-30150500D01*
X132673920Y-30150500D01*
X132771462Y-30131096D01*
X132818913Y-30121658D01*
X132911679Y-30083232D01*
X132981149Y-30075764D01*
X133006581Y-30083232D01*
X133030463Y-30093124D01*
X133030467Y-30093124D01*
X133030468Y-30093125D01*
X133175455Y-30121966D01*
X133175458Y-30121966D01*
X133323296Y-30121966D01*
X133420838Y-30102562D01*
X133468289Y-30093124D01*
X133604871Y-30036550D01*
X133727792Y-29954417D01*
X133832327Y-29849882D01*
X133914460Y-29726961D01*
X133971034Y-29590379D01*
X133999876Y-29445384D01*
X133999876Y-29297548D01*
X133999876Y-29297545D01*
X133991251Y-29254187D01*
X133997478Y-29184596D01*
X134017017Y-29151327D01*
X134019731Y-29148018D01*
X134019738Y-29148012D01*
X134101871Y-29025091D01*
X134158445Y-28888509D01*
X134187287Y-28743514D01*
X134187287Y-28595678D01*
X134187287Y-28595675D01*
X134158446Y-28450688D01*
X134158445Y-28450687D01*
X134158445Y-28450683D01*
X134145287Y-28418917D01*
X134101874Y-28314107D01*
X134101867Y-28314094D01*
X134019738Y-28191180D01*
X134019735Y-28191176D01*
X133915206Y-28086647D01*
X133915202Y-28086644D01*
X133792288Y-28004515D01*
X133792275Y-28004508D01*
X133655704Y-27947939D01*
X133655694Y-27947936D01*
X133510707Y-27919096D01*
X133510705Y-27919096D01*
X133362869Y-27919096D01*
X133362867Y-27919096D01*
X133217879Y-27947936D01*
X133217873Y-27947938D01*
X133081295Y-28004510D01*
X133081287Y-28004515D01*
X133050886Y-28024827D01*
X132984208Y-28045702D01*
X132957225Y-28041951D01*
X132956998Y-28043094D01*
X132806031Y-28013064D01*
X132806029Y-28013064D01*
X132658193Y-28013064D01*
X132658191Y-28013064D01*
X132513203Y-28041904D01*
X132513193Y-28041907D01*
X132376622Y-28098476D01*
X132376609Y-28098483D01*
X132253695Y-28180612D01*
X132253691Y-28180615D01*
X132149162Y-28285144D01*
X132149159Y-28285148D01*
X132067030Y-28408062D01*
X132067023Y-28408075D01*
X132010454Y-28544646D01*
X132010451Y-28544656D01*
X131981611Y-28689643D01*
X131981611Y-28689646D01*
X131981611Y-28837482D01*
X131981611Y-28837484D01*
X131981610Y-28837484D01*
X131992611Y-28892784D01*
X131986384Y-28962376D01*
X131974097Y-28985866D01*
X131934914Y-29044508D01*
X131878343Y-29181082D01*
X131878340Y-29181092D01*
X131849500Y-29326079D01*
X131849500Y-29326082D01*
X131849500Y-29473918D01*
X131849500Y-29473920D01*
X131849499Y-29473920D01*
X110698873Y-29473920D01*
X110721658Y-29418913D01*
X110750500Y-29273918D01*
X110750500Y-29240084D01*
X110751006Y-29234503D01*
X110761860Y-29207008D01*
X110770185Y-29178659D01*
X110774543Y-29174882D01*
X110776663Y-29169514D01*
X110800658Y-29152253D01*
X110822989Y-29132904D01*
X110829539Y-29131479D01*
X110833383Y-29128714D01*
X110845065Y-29128101D01*
X110867939Y-29123125D01*
X110867858Y-29122295D01*
X110873920Y-29121698D01*
X110971462Y-29102294D01*
X111018913Y-29092856D01*
X111155495Y-29036282D01*
X111278416Y-28954149D01*
X111382951Y-28849614D01*
X111465084Y-28726693D01*
X111521658Y-28590111D01*
X111550500Y-28445116D01*
X111550500Y-28297280D01*
X111550500Y-28297277D01*
X111521659Y-28152290D01*
X111521658Y-28152289D01*
X111521658Y-28152285D01*
X111499373Y-28098483D01*
X111465087Y-28015709D01*
X111465080Y-28015696D01*
X111382951Y-27892782D01*
X111382948Y-27892778D01*
X111278419Y-27788249D01*
X111278415Y-27788246D01*
X111155501Y-27706117D01*
X111155489Y-27706111D01*
X111139631Y-27699542D01*
X111085228Y-27655700D01*
X111063165Y-27589405D01*
X111072524Y-27537532D01*
X111121658Y-27418913D01*
X111140124Y-27326079D01*
X111150500Y-27273920D01*
X111150500Y-27126079D01*
X111121659Y-26981092D01*
X111121658Y-26981091D01*
X111121658Y-26981087D01*
X111121656Y-26981082D01*
X111065087Y-26844511D01*
X111065080Y-26844498D01*
X110982951Y-26721584D01*
X110982948Y-26721580D01*
X110878419Y-26617051D01*
X110878415Y-26617048D01*
X110755501Y-26534919D01*
X110755487Y-26534912D01*
X110748238Y-26531909D01*
X110693836Y-26488067D01*
X110671774Y-26421772D01*
X110689055Y-26354073D01*
X110729720Y-26312358D01*
X110891289Y-26210838D01*
X111102085Y-26042734D01*
X111292734Y-25852085D01*
X111434816Y-25673920D01*
X131849499Y-25673920D01*
X131878340Y-25818907D01*
X131878342Y-25818913D01*
X131892274Y-25852549D01*
X131899741Y-25922019D01*
X131892274Y-25947451D01*
X131878342Y-25981086D01*
X131878340Y-25981092D01*
X131849500Y-26126079D01*
X131849500Y-26126082D01*
X131849500Y-26273918D01*
X131849500Y-26273920D01*
X131849499Y-26273920D01*
X131878340Y-26418907D01*
X131878343Y-26418917D01*
X131934912Y-26555488D01*
X131934919Y-26555501D01*
X132017048Y-26678415D01*
X132017051Y-26678419D01*
X132121580Y-26782948D01*
X132121584Y-26782951D01*
X132244498Y-26865080D01*
X132244511Y-26865087D01*
X132329420Y-26900257D01*
X132381087Y-26921658D01*
X132381091Y-26921658D01*
X132381092Y-26921659D01*
X132526079Y-26950500D01*
X132526082Y-26950500D01*
X132673920Y-26950500D01*
X132771462Y-26931096D01*
X132818913Y-26921658D01*
X132852547Y-26907725D01*
X132922016Y-26900257D01*
X132947452Y-26907725D01*
X132981087Y-26921658D01*
X132981091Y-26921658D01*
X132981092Y-26921659D01*
X133126079Y-26950500D01*
X133126082Y-26950500D01*
X133273920Y-26950500D01*
X133371462Y-26931096D01*
X133418913Y-26921658D01*
X133555495Y-26865084D01*
X133678416Y-26782951D01*
X133782951Y-26678416D01*
X133865084Y-26555495D01*
X133921658Y-26418913D01*
X133950500Y-26273918D01*
X133950500Y-26126082D01*
X133950500Y-26126079D01*
X133921659Y-25981092D01*
X133921658Y-25981088D01*
X133921657Y-25981086D01*
X133907725Y-25947452D01*
X133900257Y-25877984D01*
X133907726Y-25852547D01*
X133907918Y-25852084D01*
X133921658Y-25818913D01*
X133950500Y-25673918D01*
X133950500Y-25526082D01*
X133950500Y-25526079D01*
X133921659Y-25381092D01*
X133921658Y-25381091D01*
X133921658Y-25381087D01*
X133921656Y-25381082D01*
X133865087Y-25244511D01*
X133865080Y-25244498D01*
X133782951Y-25121584D01*
X133782948Y-25121580D01*
X133678419Y-25017051D01*
X133678415Y-25017048D01*
X133555501Y-24934919D01*
X133555488Y-24934912D01*
X133418917Y-24878343D01*
X133418907Y-24878340D01*
X133273920Y-24849500D01*
X133273918Y-24849500D01*
X133126082Y-24849500D01*
X133126080Y-24849500D01*
X132981092Y-24878340D01*
X132981086Y-24878342D01*
X132947451Y-24892274D01*
X132877981Y-24899741D01*
X132852549Y-24892274D01*
X132818913Y-24878342D01*
X132818907Y-24878340D01*
X132673920Y-24849500D01*
X132673918Y-24849500D01*
X132526082Y-24849500D01*
X132526080Y-24849500D01*
X132381092Y-24878340D01*
X132381082Y-24878343D01*
X132244511Y-24934912D01*
X132244498Y-24934919D01*
X132121584Y-25017048D01*
X132121580Y-25017051D01*
X132017051Y-25121580D01*
X132017048Y-25121584D01*
X131934919Y-25244498D01*
X131934912Y-25244511D01*
X131878343Y-25381082D01*
X131878340Y-25381092D01*
X131849500Y-25526079D01*
X131849500Y-25526082D01*
X131849500Y-25673918D01*
X131849500Y-25673920D01*
X131849499Y-25673920D01*
X111434816Y-25673920D01*
X111460838Y-25641289D01*
X111604284Y-25412997D01*
X111721267Y-25170079D01*
X111810316Y-24915591D01*
X111870312Y-24652732D01*
X111900500Y-24384809D01*
X111900500Y-24115191D01*
X111870312Y-23847268D01*
X111810316Y-23584409D01*
X111721267Y-23329921D01*
X111604284Y-23087003D01*
X111460838Y-22858711D01*
X111292734Y-22647915D01*
X111102085Y-22457266D01*
X110891289Y-22289162D01*
X110662997Y-22145716D01*
X110662994Y-22145714D01*
X110420082Y-22028734D01*
X110165602Y-21939687D01*
X110165594Y-21939684D01*
X109968446Y-21894687D01*
X109902732Y-21879688D01*
X109902728Y-21879687D01*
X109902719Y-21879686D01*
X109634813Y-21849500D01*
X109634809Y-21849500D01*
X109365191Y-21849500D01*
X109365186Y-21849500D01*
X109097280Y-21879686D01*
X109097268Y-21879688D01*
X108834405Y-21939684D01*
X108834397Y-21939687D01*
X108579917Y-22028734D01*
X108337005Y-22145714D01*
X108108712Y-22289161D01*
X107897915Y-22457265D01*
X107707265Y-22647915D01*
X107539161Y-22858712D01*
X107395714Y-23087005D01*
X107278734Y-23329917D01*
X107189687Y-23584397D01*
X107189684Y-23584405D01*
X107129688Y-23847268D01*
X107129686Y-23847280D01*
X107099500Y-24115186D01*
X107099500Y-24384813D01*
X107129686Y-24652719D01*
X107129688Y-24652731D01*
X107189684Y-24915594D01*
X107189687Y-24915602D01*
X107278734Y-25170082D01*
X107395714Y-25412994D01*
X107395716Y-25412997D01*
X107539162Y-25641289D01*
X107707266Y-25852085D01*
X107897915Y-26042734D01*
X108108711Y-26210838D01*
X108337003Y-26354284D01*
X108579921Y-26471267D01*
X108753226Y-26531909D01*
X108834397Y-26560312D01*
X108834405Y-26560315D01*
X108834408Y-26560315D01*
X108834409Y-26560316D01*
X109097268Y-26620312D01*
X109097276Y-26620312D01*
X109097281Y-26620314D01*
X109186533Y-26630370D01*
X109250947Y-26657436D01*
X109290502Y-26715031D01*
X109292640Y-26784868D01*
X109256682Y-26844774D01*
X109196846Y-26875206D01*
X109181096Y-26878339D01*
X109181082Y-26878343D01*
X109044511Y-26934912D01*
X109044498Y-26934919D01*
X108921584Y-27017048D01*
X108921580Y-27017051D01*
X108817051Y-27121580D01*
X108817048Y-27121584D01*
X108746617Y-27226991D01*
X108693004Y-27271796D01*
X108623679Y-27280503D01*
X108560652Y-27250348D01*
X108523933Y-27190905D01*
X108521898Y-27182291D01*
X108521659Y-27181094D01*
X108521659Y-27181092D01*
X108521658Y-27181087D01*
X108497011Y-27121584D01*
X108465087Y-27044511D01*
X108465080Y-27044498D01*
X108382951Y-26921584D01*
X108382948Y-26921580D01*
X108278419Y-26817051D01*
X108278415Y-26817048D01*
X108155501Y-26734919D01*
X108155488Y-26734912D01*
X108018917Y-26678343D01*
X108018907Y-26678340D01*
X107873920Y-26649500D01*
X107873918Y-26649500D01*
X107726082Y-26649500D01*
X107726080Y-26649500D01*
X107581092Y-26678340D01*
X107581082Y-26678343D01*
X107444511Y-26734912D01*
X107444498Y-26734919D01*
X107321584Y-26817048D01*
X107321580Y-26817051D01*
X107217051Y-26921580D01*
X107217048Y-26921584D01*
X107134919Y-27044498D01*
X107134912Y-27044511D01*
X107078343Y-27181082D01*
X107078340Y-27181092D01*
X107049500Y-27326079D01*
X107049500Y-27326082D01*
X107049500Y-27473918D01*
X107049500Y-27473920D01*
X107049499Y-27473920D01*
X106500500Y-27473920D01*
X106500500Y-21624500D01*
X106520185Y-21557461D01*
X106572989Y-21511706D01*
X106624500Y-21500500D01*
X165375500Y-21500500D01*
X165442539Y-21520185D01*
G37*
%TD.AperFunction*%
%TD*%
M02*
