%TF.GenerationSoftware,KiCad,Pcbnew,9.0.5*%
%TF.CreationDate,2026-05-01T14:46:18+08:00*%
%TF.ProjectId,__buck,70a76275-636b-42e6-9b69-6361645f7063,rev?*%
%TF.SameCoordinates,Original*%
%TF.FileFunction,Copper,L1,Top*%
%TF.FilePolarity,Positive*%
%FSLAX46Y46*%
G04 Gerber Fmt 4.6, Leading zero omitted, Abs format (unit mm)*
G04 Created by KiCad (PCBNEW 9.0.5) date 2026-05-01 14:46:18*
%MOMM*%
%LPD*%
G01*
G04 APERTURE LIST*
G04 Aperture macros list*
%AMRoundRect*
0 Rectangle with rounded corners*
0 $1 Rounding radius*
0 $2 $3 $4 $5 $6 $7 $8 $9 X,Y pos of 4 corners*
0 Add a 4 corners polygon primitive as box body*
4,1,4,$2,$3,$4,$5,$6,$7,$8,$9,$2,$3,0*
0 Add four circle primitives for the rounded corners*
1,1,$1+$1,$2,$3*
1,1,$1+$1,$4,$5*
1,1,$1+$1,$6,$7*
1,1,$1+$1,$8,$9*
0 Add four rect primitives between the rounded corners*
20,1,$1+$1,$2,$3,$4,$5,0*
20,1,$1+$1,$4,$5,$6,$7,0*
20,1,$1+$1,$6,$7,$8,$9,0*
20,1,$1+$1,$8,$9,$2,$3,0*%
G04 Aperture macros list end*
%TA.AperFunction,SMDPad,CuDef*%
%ADD10RoundRect,0.250000X-1.000000X-0.900000X1.000000X-0.900000X1.000000X0.900000X-1.000000X0.900000X0*%
%TD*%
%TA.AperFunction,SMDPad,CuDef*%
%ADD11RoundRect,0.200000X-0.200000X-0.275000X0.200000X-0.275000X0.200000X0.275000X-0.200000X0.275000X0*%
%TD*%
%TA.AperFunction,SMDPad,CuDef*%
%ADD12RoundRect,0.225000X0.225000X0.250000X-0.225000X0.250000X-0.225000X-0.250000X0.225000X-0.250000X0*%
%TD*%
%TA.AperFunction,SMDPad,CuDef*%
%ADD13RoundRect,0.250000X-0.475000X0.337500X-0.475000X-0.337500X0.475000X-0.337500X0.475000X0.337500X0*%
%TD*%
%TA.AperFunction,SMDPad,CuDef*%
%ADD14RoundRect,0.200000X-0.200000X-0.800000X0.200000X-0.800000X0.200000X0.800000X-0.200000X0.800000X0*%
%TD*%
%TA.AperFunction,SMDPad,CuDef*%
%ADD15RoundRect,0.250000X-0.350000X-0.450000X0.350000X-0.450000X0.350000X0.450000X-0.350000X0.450000X0*%
%TD*%
%TA.AperFunction,SMDPad,CuDef*%
%ADD16RoundRect,0.250000X-1.000000X1.950000X-1.000000X-1.950000X1.000000X-1.950000X1.000000X1.950000X0*%
%TD*%
%TA.AperFunction,SMDPad,CuDef*%
%ADD17RoundRect,0.237500X0.237500X-0.250000X0.237500X0.250000X-0.237500X0.250000X-0.237500X-0.250000X0*%
%TD*%
%TA.AperFunction,SMDPad,CuDef*%
%ADD18RoundRect,0.237500X-0.250000X-0.237500X0.250000X-0.237500X0.250000X0.237500X-0.250000X0.237500X0*%
%TD*%
%TA.AperFunction,SMDPad,CuDef*%
%ADD19RoundRect,0.237500X0.250000X0.237500X-0.250000X0.237500X-0.250000X-0.237500X0.250000X-0.237500X0*%
%TD*%
%TA.AperFunction,SMDPad,CuDef*%
%ADD20RoundRect,0.250000X-0.325000X-0.650000X0.325000X-0.650000X0.325000X0.650000X-0.325000X0.650000X0*%
%TD*%
%TA.AperFunction,SMDPad,CuDef*%
%ADD21RoundRect,0.250000X0.650000X-1.000000X0.650000X1.000000X-0.650000X1.000000X-0.650000X-1.000000X0*%
%TD*%
%TA.AperFunction,SMDPad,CuDef*%
%ADD22RoundRect,0.125000X0.125000X-0.300000X0.125000X0.300000X-0.125000X0.300000X-0.125000X-0.300000X0*%
%TD*%
%TA.AperFunction,SMDPad,CuDef*%
%ADD23R,4.410000X4.550000*%
%TD*%
%TA.AperFunction,SMDPad,CuDef*%
%ADD24RoundRect,0.250000X-0.337500X-0.475000X0.337500X-0.475000X0.337500X0.475000X-0.337500X0.475000X0*%
%TD*%
%TA.AperFunction,SMDPad,CuDef*%
%ADD25RoundRect,0.225000X-0.225000X-0.250000X0.225000X-0.250000X0.225000X0.250000X-0.225000X0.250000X0*%
%TD*%
%TA.AperFunction,SMDPad,CuDef*%
%ADD26R,2.950000X3.500000*%
%TD*%
%TA.AperFunction,SMDPad,CuDef*%
%ADD27RoundRect,0.250000X1.000000X0.650000X-1.000000X0.650000X-1.000000X-0.650000X1.000000X-0.650000X0*%
%TD*%
%TA.AperFunction,SMDPad,CuDef*%
%ADD28RoundRect,0.150000X0.825000X0.150000X-0.825000X0.150000X-0.825000X-0.150000X0.825000X-0.150000X0*%
%TD*%
%TA.AperFunction,SMDPad,CuDef*%
%ADD29RoundRect,0.250000X0.475000X-0.337500X0.475000X0.337500X-0.475000X0.337500X-0.475000X-0.337500X0*%
%TD*%
%TA.AperFunction,ComponentPad*%
%ADD30RoundRect,0.760000X1.140000X-1.140000X1.140000X1.140000X-1.140000X1.140000X-1.140000X-1.140000X0*%
%TD*%
%TA.AperFunction,ComponentPad*%
%ADD31C,4.000000*%
%TD*%
%TA.AperFunction,SMDPad,CuDef*%
%ADD32RoundRect,0.150000X-0.150000X-0.700000X0.150000X-0.700000X0.150000X0.700000X-0.150000X0.700000X0*%
%TD*%
%TA.AperFunction,SMDPad,CuDef*%
%ADD33RoundRect,0.250000X-0.250000X-1.100000X0.250000X-1.100000X0.250000X1.100000X-0.250000X1.100000X0*%
%TD*%
%TA.AperFunction,SMDPad,CuDef*%
%ADD34RoundRect,0.250000X0.337500X0.475000X-0.337500X0.475000X-0.337500X-0.475000X0.337500X-0.475000X0*%
%TD*%
%TA.AperFunction,SMDPad,CuDef*%
%ADD35RoundRect,0.150000X-0.825000X-0.150000X0.825000X-0.150000X0.825000X0.150000X-0.825000X0.150000X0*%
%TD*%
%TA.AperFunction,SMDPad,CuDef*%
%ADD36RoundRect,0.237500X-0.237500X0.250000X-0.237500X-0.250000X0.237500X-0.250000X0.237500X0.250000X0*%
%TD*%
%TA.AperFunction,ComponentPad*%
%ADD37RoundRect,0.760000X1.140000X1.140000X-1.140000X1.140000X-1.140000X-1.140000X1.140000X-1.140000X0*%
%TD*%
%TA.AperFunction,ComponentPad*%
%ADD38C,3.800000*%
%TD*%
%TA.AperFunction,SMDPad,CuDef*%
%ADD39RoundRect,0.250002X-1.499998X-6.149998X1.499998X-6.149998X1.499998X6.149998X-1.499998X6.149998X0*%
%TD*%
%TA.AperFunction,SMDPad,CuDef*%
%ADD40RoundRect,0.249999X-0.450001X-1.425001X0.450001X-1.425001X0.450001X1.425001X-0.450001X1.425001X0*%
%TD*%
%TA.AperFunction,SMDPad,CuDef*%
%ADD41RoundRect,0.150000X-0.150000X0.650000X-0.150000X-0.650000X0.150000X-0.650000X0.150000X0.650000X0*%
%TD*%
%TA.AperFunction,HeatsinkPad*%
%ADD42C,0.500000*%
%TD*%
%TA.AperFunction,HeatsinkPad*%
%ADD43R,3.100000X2.410000*%
%TD*%
%TA.AperFunction,ViaPad*%
%ADD44C,0.600000*%
%TD*%
%TA.AperFunction,ViaPad*%
%ADD45C,0.500000*%
%TD*%
%TA.AperFunction,Conductor*%
%ADD46C,0.200000*%
%TD*%
%TA.AperFunction,Conductor*%
%ADD47C,1.000000*%
%TD*%
%TA.AperFunction,Conductor*%
%ADD48C,2.000000*%
%TD*%
%TA.AperFunction,Conductor*%
%ADD49C,0.500000*%
%TD*%
G04 APERTURE END LIST*
D10*
%TO.P,D1,1,A1*%
%TO.N,+48V*%
X109000000Y-30000000D03*
%TO.P,D1,2,A2*%
%TO.N,GND*%
X113300000Y-30000000D03*
%TD*%
D11*
%TO.P,R9,1*%
%TO.N,/NRST*%
X133425000Y-59000000D03*
%TO.P,R9,2*%
%TO.N,+3.3V*%
X135075000Y-59000000D03*
%TD*%
D12*
%TO.P,C25,1*%
%TO.N,GNDA*%
X156300000Y-71250000D03*
%TO.P,C25,2*%
%TO.N,+3.3V*%
X154750000Y-71250000D03*
%TD*%
D13*
%TO.P,C27,1*%
%TO.N,+24V*%
X159500000Y-46462500D03*
%TO.P,C27,2*%
%TO.N,GNDPWR*%
X159500000Y-48537500D03*
%TD*%
D14*
%TO.P,SW1,1,1*%
%TO.N,GNDA*%
X130400000Y-61750000D03*
%TO.P,SW1,2,2*%
%TO.N,/NRST*%
X134600000Y-61750000D03*
%TD*%
D15*
%TO.P,R15,1*%
%TO.N,GND*%
X131500000Y-51000000D03*
%TO.P,R15,2*%
%TO.N,GNDPWR*%
X133500000Y-51000000D03*
%TD*%
D16*
%TO.P,C13,1*%
%TO.N,+24V*%
X140500000Y-46050000D03*
%TO.P,C13,2*%
%TO.N,GNDPWR*%
X140500000Y-54450000D03*
%TD*%
D17*
%TO.P,R7,1*%
%TO.N,GND*%
X113000000Y-41662500D03*
%TO.P,R7,2*%
%TO.N,/HRTIM_-*%
X113000000Y-39837500D03*
%TD*%
D18*
%TO.P,R3,1*%
%TO.N,Net-(U2-FB)*%
X111587500Y-60000000D03*
%TO.P,R3,2*%
%TO.N,+12V*%
X113412500Y-60000000D03*
%TD*%
D17*
%TO.P,R8,1*%
%TO.N,GND*%
X111250000Y-41662500D03*
%TO.P,R8,2*%
%TO.N,/HRTIM_+*%
X111250000Y-39837500D03*
%TD*%
D19*
%TO.P,R18,1*%
%TO.N,/comp_volt*%
X158162500Y-63500000D03*
%TO.P,R18,2*%
%TO.N,/adc_volt*%
X156337500Y-63500000D03*
%TD*%
D20*
%TO.P,C36,1*%
%TO.N,GND*%
X130025000Y-26000000D03*
%TO.P,C36,2*%
%TO.N,+48V*%
X132975000Y-26000000D03*
%TD*%
D21*
%TO.P,D3,1,K*%
%TO.N,Net-(D3-K)*%
X126500000Y-35750000D03*
%TO.P,D3,2,A*%
%TO.N,Net-(D3-A)*%
X126500000Y-31750000D03*
%TD*%
D22*
%TO.P,Q1,1,S*%
%TO.N,Net-(Q2-D)*%
X129595000Y-37450000D03*
%TO.P,Q1,2,S*%
X130865000Y-37450000D03*
%TO.P,Q1,3,S*%
X132135000Y-37450000D03*
%TO.P,Q1,4,G*%
%TO.N,Net-(D3-A)*%
X133405000Y-37450000D03*
D23*
%TO.P,Q1,5,D*%
%TO.N,+48V*%
X131500000Y-33500000D03*
%TD*%
D16*
%TO.P,C12,1*%
%TO.N,+24V*%
X152500000Y-45800000D03*
%TO.P,C12,2*%
%TO.N,GNDPWR*%
X152500000Y-54200000D03*
%TD*%
D24*
%TO.P,C2,1*%
%TO.N,+48V*%
X111962500Y-48250000D03*
%TO.P,C2,2*%
%TO.N,GND*%
X114037500Y-48250000D03*
%TD*%
D25*
%TO.P,C3,1*%
%TO.N,Net-(U2-BST)*%
X111950000Y-58355000D03*
%TO.P,C3,2*%
%TO.N,Net-(U2-SW)*%
X113500000Y-58355000D03*
%TD*%
D18*
%TO.P,R17,1*%
%TO.N,Net-(U6A-+)*%
X162337500Y-66500000D03*
%TO.P,R17,2*%
%TO.N,GNDA*%
X164162500Y-66500000D03*
%TD*%
D13*
%TO.P,C37,1*%
%TO.N,+12V*%
X125500000Y-53500000D03*
%TO.P,C37,2*%
%TO.N,GND*%
X125500000Y-55575000D03*
%TD*%
D25*
%TO.P,C11,1*%
%TO.N,GNDA*%
X130225000Y-59000000D03*
%TO.P,C11,2*%
%TO.N,/NRST*%
X131775000Y-59000000D03*
%TD*%
D22*
%TO.P,Q2,1,S*%
%TO.N,GNDPWR*%
X129615000Y-45255000D03*
%TO.P,Q2,2,S*%
X130885000Y-45255000D03*
%TO.P,Q2,3,S*%
X132155000Y-45255000D03*
%TO.P,Q2,4,G*%
%TO.N,Net-(D4-A)*%
X133425000Y-45255000D03*
D23*
%TO.P,Q2,5,D*%
%TO.N,Net-(Q2-D)*%
X131520000Y-41305000D03*
%TD*%
D26*
%TO.P,L1,1,1*%
%TO.N,Net-(U2-SW)*%
X116775000Y-52000000D03*
%TO.P,L1,2,2*%
%TO.N,+12V*%
X122225000Y-52000000D03*
%TD*%
D27*
%TO.P,D2,1,K*%
%TO.N,Net-(D2-K)*%
X120500000Y-34500000D03*
%TO.P,D2,2,A*%
%TO.N,+12V*%
X116500000Y-34500000D03*
%TD*%
D28*
%TO.P,U6,1*%
%TO.N,/comp_volt*%
X159725000Y-69405000D03*
%TO.P,U6,2,-*%
X159725000Y-68135000D03*
%TO.P,U6,3,+*%
%TO.N,Net-(U6A-+)*%
X159725000Y-66865000D03*
%TO.P,U6,4,V-*%
%TO.N,GNDA*%
X159725000Y-65595000D03*
%TO.P,U6,5,+*%
%TO.N,unconnected-(U6B-+-Pad5)*%
X154775000Y-65595000D03*
%TO.P,U6,6,-*%
%TO.N,unconnected-(U6B---Pad6)*%
X154775000Y-66865000D03*
%TO.P,U6,7*%
%TO.N,unconnected-(U6-Pad7)*%
X154775000Y-68135000D03*
%TO.P,U6,8,V+*%
%TO.N,+3.3V*%
X154775000Y-69405000D03*
%TD*%
D29*
%TO.P,C6,1*%
%TO.N,+12V*%
X125500000Y-51362500D03*
%TO.P,C6,2*%
%TO.N,GND*%
X125500000Y-49287500D03*
%TD*%
D19*
%TO.P,R16,1*%
%TO.N,+24V*%
X164162500Y-68250000D03*
%TO.P,R16,2*%
%TO.N,Net-(U6A-+)*%
X162337500Y-68250000D03*
%TD*%
D17*
%TO.P,R5,1*%
%TO.N,Net-(D3-K)*%
X123750000Y-35412500D03*
%TO.P,R5,2*%
%TO.N,Net-(D3-A)*%
X123750000Y-33587500D03*
%TD*%
D29*
%TO.P,C10,1*%
%TO.N,+12V*%
X113000000Y-36037500D03*
%TO.P,C10,2*%
%TO.N,GND*%
X113000000Y-33962500D03*
%TD*%
D30*
%TO.P,J5,1,Pin_1*%
%TO.N,GNDPWR*%
X162250000Y-60750000D03*
D31*
%TO.P,J5,2,Pin_2*%
%TO.N,+24V*%
X162250000Y-55750000D03*
%TD*%
D12*
%TO.P,C5,1*%
%TO.N,Net-(U2-FB)*%
X110025000Y-60000000D03*
%TO.P,C5,2*%
%TO.N,Net-(C4-Pad1)*%
X108475000Y-60000000D03*
%TD*%
D18*
%TO.P,R4,1*%
%TO.N,GND*%
X108262500Y-58355000D03*
%TO.P,R4,2*%
%TO.N,Net-(U2-FB)*%
X110087500Y-58355000D03*
%TD*%
D13*
%TO.P,C15,1*%
%TO.N,+24V*%
X162000000Y-46712500D03*
%TO.P,C15,2*%
%TO.N,GNDPWR*%
X162000000Y-48787500D03*
%TD*%
D21*
%TO.P,D4,1,K*%
%TO.N,Net-(D4-K)*%
X126500000Y-45750000D03*
%TO.P,D4,2,A*%
%TO.N,Net-(D4-A)*%
X126500000Y-41750000D03*
%TD*%
D32*
%TO.P,J4,1,Pin_1*%
%TO.N,/U1_RX*%
X143375000Y-75900000D03*
%TO.P,J4,2,Pin_2*%
%TO.N,/U1_TX*%
X144625000Y-75900000D03*
%TO.P,J4,3,Pin_3*%
%TO.N,+3.3V*%
X145875000Y-75900000D03*
%TO.P,J4,4,Pin_4*%
%TO.N,GNDA*%
X147125000Y-75900000D03*
D33*
%TO.P,J4,MP,MountPin*%
X141525000Y-79100000D03*
X148975000Y-79100000D03*
%TD*%
D34*
%TO.P,C1,1*%
%TO.N,+48V*%
X109787500Y-48250000D03*
%TO.P,C1,2*%
%TO.N,GND*%
X107712500Y-48250000D03*
%TD*%
D18*
%TO.P,R2,1*%
%TO.N,Net-(U2-SW)*%
X116112500Y-56750000D03*
%TO.P,R2,2*%
%TO.N,Net-(C4-Pad1)*%
X117937500Y-56750000D03*
%TD*%
D35*
%TO.P,U4,1,VDD*%
%TO.N,+12V*%
X115525000Y-37595000D03*
%TO.P,U4,2,HI*%
%TO.N,/HRTIM_+*%
X115525000Y-38865000D03*
%TO.P,U4,3,LI*%
%TO.N,/HRTIM_-*%
X115525000Y-40135000D03*
%TO.P,U4,4,VSS*%
%TO.N,GND*%
X115525000Y-41405000D03*
%TO.P,U4,5,LO*%
%TO.N,Net-(D4-K)*%
X120475000Y-41405000D03*
%TO.P,U4,6,HS*%
%TO.N,Net-(Q2-D)*%
X120475000Y-40135000D03*
%TO.P,U4,7,HO*%
%TO.N,Net-(D3-K)*%
X120475000Y-38865000D03*
%TO.P,U4,8,HB*%
%TO.N,Net-(D2-K)*%
X120475000Y-37595000D03*
%TD*%
D13*
%TO.P,C9,1*%
%TO.N,Net-(D2-K)*%
X123000000Y-37962500D03*
%TO.P,C9,2*%
%TO.N,Net-(Q2-D)*%
X123000000Y-40037500D03*
%TD*%
D12*
%TO.P,C24,1*%
%TO.N,GNDA*%
X156275000Y-73000000D03*
%TO.P,C24,2*%
%TO.N,+3.3V*%
X154725000Y-73000000D03*
%TD*%
D36*
%TO.P,R1,1*%
%TO.N,Net-(U2-RON)*%
X107687500Y-50442500D03*
%TO.P,R1,2*%
%TO.N,GND*%
X107687500Y-52267500D03*
%TD*%
D37*
%TO.P,J2,1,Pin_1*%
%TO.N,GND*%
X114500000Y-24250000D03*
D38*
%TO.P,J2,2,Pin_2*%
%TO.N,+48V*%
X109500000Y-24250000D03*
%TD*%
D39*
%TO.P,L2,1,1*%
%TO.N,Net-(Q2-D)*%
X137900000Y-33750000D03*
%TO.P,L2,2,2*%
%TO.N,Net-(L2-Pad2)*%
X152600000Y-33750000D03*
%TD*%
D40*
%TO.P,R11,1*%
%TO.N,Net-(L2-Pad2)*%
X156450000Y-40750000D03*
%TO.P,R11,2*%
%TO.N,+24V*%
X162550000Y-40750000D03*
%TD*%
D25*
%TO.P,C4,1*%
%TO.N,Net-(C4-Pad1)*%
X119775000Y-56750000D03*
%TO.P,C4,2*%
%TO.N,+12V*%
X121325000Y-56750000D03*
%TD*%
D17*
%TO.P,R6,1*%
%TO.N,Net-(D4-K)*%
X123750000Y-44500000D03*
%TO.P,R6,2*%
%TO.N,Net-(D4-A)*%
X123750000Y-42675000D03*
%TD*%
D20*
%TO.P,C38,1*%
%TO.N,GND*%
X130050000Y-29250000D03*
%TO.P,C38,2*%
%TO.N,+48V*%
X133000000Y-29250000D03*
%TD*%
D15*
%TO.P,R21,1*%
%TO.N,GND*%
X131600000Y-53400000D03*
%TO.P,R21,2*%
%TO.N,GNDPWR*%
X133600000Y-53400000D03*
%TD*%
D34*
%TO.P,C26,1*%
%TO.N,+24V*%
X161787500Y-51000000D03*
%TO.P,C26,2*%
%TO.N,GNDPWR*%
X159712500Y-51000000D03*
%TD*%
D41*
%TO.P,U2,1,GND*%
%TO.N,GND*%
X113380000Y-50750000D03*
%TO.P,U2,2,VIN*%
%TO.N,+48V*%
X112110000Y-50750000D03*
%TO.P,U2,3,EN/UVLO*%
X110840000Y-50750000D03*
%TO.P,U2,4,RON*%
%TO.N,Net-(U2-RON)*%
X109570000Y-50750000D03*
%TO.P,U2,5,FB*%
%TO.N,Net-(U2-FB)*%
X109570000Y-56050000D03*
%TO.P,U2,6,PGOOD*%
%TO.N,unconnected-(U2-PGOOD-Pad6)*%
X110840000Y-56050000D03*
%TO.P,U2,7,BST*%
%TO.N,Net-(U2-BST)*%
X112110000Y-56050000D03*
%TO.P,U2,8,SW*%
%TO.N,Net-(U2-SW)*%
X113380000Y-56050000D03*
D42*
%TO.P,U2,9,EP*%
%TO.N,GND*%
X112775000Y-52445000D03*
X111475000Y-52445000D03*
X110175000Y-52445000D03*
D43*
X111475000Y-53400000D03*
D42*
X112775000Y-54355000D03*
X111475000Y-54355000D03*
X110175000Y-54355000D03*
%TD*%
D44*
%TO.N,+3.3V*%
X140725000Y-59000000D03*
D45*
%TO.N,+48V*%
X129800000Y-31800000D03*
X132732111Y-28763564D03*
X132800000Y-34000000D03*
X132600000Y-29400000D03*
X110800000Y-28371198D03*
X133249376Y-29371466D03*
X110400000Y-27200000D03*
X109600000Y-30000000D03*
X130000000Y-34200000D03*
X131600000Y-34000000D03*
X132000000Y-31800000D03*
X130400000Y-33600000D03*
X110000000Y-29200000D03*
X130200000Y-32600000D03*
X131400000Y-31800000D03*
X108400000Y-28200000D03*
X108200000Y-29200000D03*
X133000000Y-31800000D03*
X131400000Y-35200000D03*
X133200000Y-25600000D03*
X133436787Y-28669596D03*
X133200000Y-33200000D03*
X132600000Y-26200000D03*
X132200000Y-34550000D03*
X131800000Y-32600000D03*
X107800000Y-27400000D03*
X130000000Y-35200000D03*
X109000000Y-29200000D03*
X133200000Y-26200000D03*
X132200000Y-33400000D03*
X130600000Y-31800000D03*
X109000000Y-30600000D03*
X109400000Y-27600000D03*
X130800000Y-34600000D03*
X132600000Y-32600000D03*
X108400000Y-30000000D03*
X129800000Y-33200000D03*
X132600000Y-25600000D03*
X109800000Y-28400000D03*
X133000000Y-35200000D03*
D44*
%TO.N,GND*%
X111000000Y-44200000D03*
D45*
X111100000Y-67400000D03*
X123200000Y-69700000D03*
D44*
X123600000Y-58800000D03*
X107200000Y-54400000D03*
X136400000Y-24200000D03*
X110000000Y-36200000D03*
D45*
X120500000Y-69700000D03*
X114300000Y-70700000D03*
D44*
X127000000Y-29600000D03*
D45*
X114400000Y-66800000D03*
D44*
X114400000Y-35000000D03*
X165200000Y-37800000D03*
D45*
X117200000Y-66800000D03*
D44*
X111200000Y-46000000D03*
D45*
X127500000Y-66300000D03*
D44*
X108200000Y-54400000D03*
X145600000Y-24200000D03*
X139400000Y-24200000D03*
X158000000Y-26400000D03*
D45*
X127300000Y-71900000D03*
D44*
X158000000Y-33200000D03*
D45*
X118100000Y-71000000D03*
X121200000Y-66700000D03*
D44*
X110000000Y-40200000D03*
D45*
X111300000Y-70400000D03*
D44*
X148400000Y-24400000D03*
D45*
X127500000Y-62800000D03*
D44*
X111000000Y-34000000D03*
X158200000Y-30800000D03*
D45*
X127500000Y-68300000D03*
D44*
X111000000Y-43000000D03*
D45*
X124800000Y-56800000D03*
D44*
X127000000Y-59400000D03*
X110000000Y-37000000D03*
X110000000Y-39400000D03*
X158200000Y-27200000D03*
X142200000Y-24200000D03*
D45*
X127400000Y-69800000D03*
D44*
X116800000Y-45400000D03*
X125000000Y-57800000D03*
X162400000Y-37800000D03*
X137400000Y-24200000D03*
X158200000Y-36200000D03*
X158400000Y-37800000D03*
X155200000Y-25800000D03*
X114000000Y-52200000D03*
X152400000Y-24400000D03*
X126200000Y-60200000D03*
X144800000Y-24200000D03*
X116800000Y-44200000D03*
X149600000Y-24400000D03*
X125600000Y-61000000D03*
X143000000Y-24200000D03*
X117600000Y-47000000D03*
X159400000Y-37800000D03*
X114400000Y-34000000D03*
X156000000Y-25800000D03*
X111000000Y-33200000D03*
D45*
X124400000Y-58600000D03*
D44*
X140200000Y-24200000D03*
D45*
X126000000Y-65600000D03*
D44*
X128200000Y-29600000D03*
D45*
X125500000Y-68800000D03*
D44*
X164400000Y-37800000D03*
X116800000Y-46400000D03*
X153600000Y-24400000D03*
X135600000Y-26400000D03*
X158200000Y-29600000D03*
X158200000Y-35400000D03*
D45*
X127500000Y-64500000D03*
D44*
X161400000Y-37800000D03*
X114400000Y-50600000D03*
X134800000Y-26400000D03*
X158000000Y-32200000D03*
X114000000Y-53400000D03*
D45*
X125800000Y-57100000D03*
%TO.N,+12V*%
X120200000Y-54025000D03*
%TO.N,Net-(C4-Pad1)*%
X119800000Y-60100000D03*
X119800000Y-61600000D03*
D44*
%TO.N,+3.3V*%
X148250000Y-62750000D03*
D45*
X140700000Y-74100000D03*
X152250000Y-72525000D03*
D44*
%TO.N,GNDA*%
X130200000Y-57200000D03*
D45*
X130000000Y-70250000D03*
D44*
X132600000Y-57200000D03*
D45*
X158875000Y-75400000D03*
D44*
X128800000Y-76600000D03*
D45*
X132250000Y-72250000D03*
X139200000Y-57600000D03*
D44*
X128800000Y-68800000D03*
X128800000Y-63400000D03*
D45*
X130000000Y-69500000D03*
X141600000Y-79200000D03*
D44*
X149900000Y-57700000D03*
D45*
X133000000Y-72250000D03*
X134000000Y-65750000D03*
X141100000Y-57600000D03*
X149200000Y-79200000D03*
X130000000Y-71750000D03*
D44*
X152050000Y-57700000D03*
X128800000Y-67200000D03*
D45*
X134750000Y-65750000D03*
D44*
X128800000Y-70600000D03*
X128800000Y-75600000D03*
D45*
X130000000Y-71000000D03*
D44*
X129000000Y-57800000D03*
D45*
X164162500Y-66500000D03*
X156300000Y-71250000D03*
D44*
X130400000Y-75400000D03*
D45*
X130225000Y-59000000D03*
X133250000Y-65750000D03*
X130750000Y-72250000D03*
X131500000Y-72250000D03*
D44*
%TO.N,GNDPWR*%
X133000000Y-48800000D03*
X128600000Y-46200000D03*
X158800000Y-54800000D03*
X133000000Y-47800000D03*
X128600000Y-47000000D03*
X158800000Y-54000000D03*
%TO.N,+24V*%
X162500000Y-43000000D03*
D45*
X165250000Y-68000000D03*
D44*
%TO.N,Net-(L2-Pad2)*%
X158250000Y-41750000D03*
%TO.N,/U1_RX*%
X143400000Y-74200000D03*
%TO.N,/U1_TX*%
X144700000Y-74200000D03*
D45*
%TO.N,/HRTIM_-*%
X143400000Y-64400000D03*
X112250000Y-43250000D03*
%TO.N,/HRTIM_+*%
X145800000Y-65600000D03*
X111800000Y-38500000D03*
D44*
%TO.N,/NRST*%
X136750000Y-64250000D03*
%TO.N,/comp_volt*%
X148000000Y-64250000D03*
%TO.N,/adc_volt*%
X155250000Y-63500000D03*
%TD*%
D46*
%TO.N,+3.3V*%
X135075000Y-59000000D02*
X140725000Y-59000000D01*
%TO.N,/NRST*%
X136750000Y-62350000D02*
X136150000Y-61750000D01*
X136750000Y-64250000D02*
X136750000Y-62350000D01*
X136150000Y-61750000D02*
X134600000Y-61750000D01*
D47*
%TO.N,GND*%
X110000000Y-37000000D02*
X110000000Y-36200000D01*
D46*
X107712500Y-48250000D02*
X106911500Y-49051000D01*
D47*
X110000000Y-40412500D02*
X110000000Y-40200000D01*
D48*
X113300000Y-30000000D02*
X113300000Y-25450000D01*
D47*
X110000000Y-40200000D02*
X110000000Y-39400000D01*
X112037500Y-33962500D02*
X113000000Y-33962500D01*
X110000000Y-39400000D02*
X110000000Y-37000000D01*
D48*
X113300000Y-25450000D02*
X114500000Y-24250000D01*
D47*
X111250000Y-41662500D02*
X110000000Y-40412500D01*
X110000000Y-36000000D02*
X112037500Y-33962500D01*
X110000000Y-36200000D02*
X110000000Y-36000000D01*
D46*
X106911500Y-49051000D02*
X106911500Y-51491500D01*
X106911500Y-51491500D02*
X107687500Y-52267500D01*
%TO.N,Net-(U2-SW)*%
X114080000Y-56750000D02*
X113380000Y-56050000D01*
X116112500Y-56750000D02*
X114080000Y-56750000D01*
D49*
X116775000Y-52655000D02*
X116775000Y-52000000D01*
X113380000Y-56050000D02*
X116775000Y-52655000D01*
D46*
X113500000Y-56170000D02*
X113380000Y-56050000D01*
X113500000Y-58355000D02*
X113500000Y-56170000D01*
%TO.N,Net-(U2-BST)*%
X111950000Y-58355000D02*
X111950000Y-56210000D01*
X111950000Y-56210000D02*
X112110000Y-56050000D01*
D49*
%TO.N,+12V*%
X125500000Y-51362500D02*
X125500000Y-52400000D01*
X124200000Y-54600000D02*
X124200000Y-52800000D01*
X118900000Y-44500000D02*
X117800000Y-43400000D01*
X115525000Y-37595000D02*
X115525000Y-35475000D01*
X114557500Y-37595000D02*
X113000000Y-36037500D01*
X121250000Y-56750000D02*
X118900000Y-54400000D01*
X124000000Y-51200000D02*
X125337500Y-51200000D01*
X121325000Y-56750000D02*
X121250000Y-56750000D01*
X120200000Y-54025000D02*
X122225000Y-52000000D01*
X117800000Y-35800000D02*
X116500000Y-34500000D01*
X125500000Y-52400000D02*
X125500000Y-53500000D01*
X123000000Y-55800000D02*
X124200000Y-54600000D01*
X119400000Y-60800000D02*
X119454318Y-60745682D01*
X114212500Y-60800000D02*
X119400000Y-60800000D01*
X122000000Y-60000000D02*
X122000000Y-58200000D01*
X121199000Y-60801000D02*
X122000000Y-60000000D01*
X117800000Y-43400000D02*
X117800000Y-35800000D01*
X121325000Y-53175000D02*
X121325000Y-56750000D01*
X123200000Y-52000000D02*
X124000000Y-51200000D01*
X124200000Y-52800000D02*
X124600000Y-52400000D01*
X123000000Y-57200000D02*
X123000000Y-55800000D01*
X124600000Y-52400000D02*
X125500000Y-52400000D01*
X119454318Y-60745682D02*
X119509636Y-60801000D01*
X122225000Y-52275000D02*
X121325000Y-53175000D01*
X118900000Y-54400000D02*
X118900000Y-44500000D01*
X122225000Y-52000000D02*
X122225000Y-52275000D01*
X125337500Y-51200000D02*
X125500000Y-51362500D01*
X122000000Y-58200000D02*
X123000000Y-57200000D01*
X113412500Y-60000000D02*
X114212500Y-60800000D01*
X119509636Y-60801000D02*
X121199000Y-60801000D01*
X115525000Y-35475000D02*
X116500000Y-34500000D01*
X115525000Y-37595000D02*
X114557500Y-37595000D01*
X122225000Y-52000000D02*
X123200000Y-52000000D01*
D46*
%TO.N,Net-(C4-Pad1)*%
X119800000Y-61600000D02*
X119775000Y-61575000D01*
X109000000Y-61800000D02*
X119600000Y-61800000D01*
X119775000Y-60075000D02*
X119800000Y-60100000D01*
X108475000Y-60000000D02*
X108475000Y-61275000D01*
X117937500Y-56750000D02*
X119775000Y-56750000D01*
X119775000Y-56750000D02*
X119775000Y-60075000D01*
X108475000Y-61275000D02*
X109000000Y-61800000D01*
X119600000Y-61800000D02*
X119800000Y-61600000D01*
%TO.N,Net-(U2-FB)*%
X109570000Y-56050000D02*
X109570000Y-57837500D01*
X110087500Y-59937500D02*
X110025000Y-60000000D01*
X110087500Y-58355000D02*
X110087500Y-59937500D01*
X109570000Y-57837500D02*
X110087500Y-58355000D01*
X110025000Y-60000000D02*
X111587500Y-60000000D01*
%TO.N,+3.3V*%
X145875000Y-76749999D02*
X145573999Y-77051000D01*
X141951000Y-77051000D02*
X140500000Y-75600000D01*
X145500000Y-72000000D02*
X141500000Y-72000000D01*
X154725000Y-69455000D02*
X154775000Y-69405000D01*
X140500000Y-74300000D02*
X140700000Y-74100000D01*
X147250000Y-70250000D02*
X145500000Y-72000000D01*
X140750000Y-74050000D02*
X140700000Y-74100000D01*
X145875000Y-75900000D02*
X145875000Y-76749999D01*
X145573999Y-77051000D02*
X141951000Y-77051000D01*
X140750000Y-72750000D02*
X140750000Y-74050000D01*
X152725000Y-73000000D02*
X152250000Y-72525000D01*
X154725000Y-73000000D02*
X154725000Y-69455000D01*
X140500000Y-75600000D02*
X140500000Y-74300000D01*
X141500000Y-72000000D02*
X140750000Y-72750000D01*
X148250000Y-62750000D02*
X147250000Y-63750000D01*
X154725000Y-73000000D02*
X152725000Y-73000000D01*
X147250000Y-63750000D02*
X147250000Y-70250000D01*
D49*
%TO.N,Net-(D2-K)*%
X120500000Y-37570000D02*
X120475000Y-37595000D01*
X120475000Y-37595000D02*
X122632500Y-37595000D01*
X122632500Y-37595000D02*
X123000000Y-37962500D01*
X120500000Y-34500000D02*
X120500000Y-37570000D01*
%TO.N,Net-(Q2-D)*%
X120572500Y-40037500D02*
X120475000Y-40135000D01*
D47*
X123000000Y-40037500D02*
X125210656Y-40037500D01*
X129595000Y-39380000D02*
X131520000Y-41305000D01*
X132135000Y-37450000D02*
X132135000Y-40690000D01*
X125449156Y-39799000D02*
X130014000Y-39799000D01*
D49*
X123000000Y-40037500D02*
X120572500Y-40037500D01*
D47*
X125210656Y-40037500D02*
X125449156Y-39799000D01*
X130865000Y-40650000D02*
X131520000Y-41305000D01*
X130865000Y-37450000D02*
X130865000Y-40650000D01*
X130014000Y-39799000D02*
X131520000Y-41305000D01*
X132135000Y-40690000D02*
X131520000Y-41305000D01*
X129595000Y-37450000D02*
X129595000Y-39380000D01*
D46*
%TO.N,GNDA*%
X141525000Y-79125000D02*
X141600000Y-79200000D01*
X130225000Y-59000000D02*
X130225000Y-61575000D01*
X128800000Y-75600000D02*
X130200000Y-75600000D01*
X130225000Y-61575000D02*
X130400000Y-61750000D01*
X128800000Y-67200000D02*
X128800000Y-68800000D01*
X128800000Y-75600000D02*
X128800000Y-76600000D01*
X163257500Y-65595000D02*
X159725000Y-65595000D01*
X148975000Y-79100000D02*
X149100000Y-79100000D01*
X130200000Y-57200000D02*
X132600000Y-57200000D01*
X129000000Y-57800000D02*
X129600000Y-57800000D01*
X156275000Y-73000000D02*
X158300000Y-73000000D01*
X130000000Y-63400000D02*
X130400000Y-63000000D01*
X149900000Y-57700000D02*
X152050000Y-57700000D01*
D49*
X133250000Y-65750000D02*
X134750000Y-65750000D01*
D46*
X158800000Y-73500000D02*
X158800000Y-75325000D01*
X130500000Y-72250000D02*
X133000000Y-72250000D01*
X164162500Y-66500000D02*
X163257500Y-65595000D01*
X158800000Y-75325000D02*
X158875000Y-75400000D01*
X141525000Y-79100000D02*
X141525000Y-79125000D01*
X130200000Y-75600000D02*
X130400000Y-75400000D01*
X128800000Y-63400000D02*
X130000000Y-63400000D01*
X149100000Y-79100000D02*
X149200000Y-79200000D01*
X141100000Y-57600000D02*
X139200000Y-57600000D01*
X130400000Y-63000000D02*
X130400000Y-61750000D01*
X128800000Y-70600000D02*
X128800000Y-68800000D01*
X158300000Y-73000000D02*
X158800000Y-73500000D01*
X156300000Y-71250000D02*
X156300000Y-72975000D01*
X130000000Y-69500000D02*
X130000000Y-71750000D01*
X156300000Y-72975000D02*
X156275000Y-73000000D01*
X130000000Y-71750000D02*
X130500000Y-72250000D01*
X129600000Y-57800000D02*
X130200000Y-57200000D01*
%TO.N,/NRST*%
X134600000Y-60175000D02*
X133425000Y-59000000D01*
X131775000Y-59000000D02*
X133425000Y-59000000D01*
X134600000Y-61750000D02*
X134600000Y-60175000D01*
%TO.N,+24V*%
X165250000Y-68000000D02*
X164750000Y-68000000D01*
X164500000Y-68250000D02*
X164162500Y-68250000D01*
X162550000Y-40750000D02*
X162550000Y-42950000D01*
X164750000Y-68000000D02*
X164500000Y-68250000D01*
X162550000Y-42950000D02*
X162500000Y-43000000D01*
%TO.N,Net-(L2-Pad2)*%
X156450000Y-40750000D02*
X157750000Y-40750000D01*
X157750000Y-40750000D02*
X158250000Y-41250000D01*
X158250000Y-41250000D02*
X158250000Y-41750000D01*
D49*
%TO.N,Net-(D3-A)*%
X133000000Y-36500000D02*
X133405000Y-36905000D01*
X128000000Y-35750000D02*
X128750000Y-36500000D01*
X124662500Y-33587500D02*
X126500000Y-31750000D01*
X133405000Y-36905000D02*
X133405000Y-37450000D01*
X123750000Y-33587500D02*
X124662500Y-33587500D01*
X128000000Y-33250000D02*
X128000000Y-35750000D01*
X126500000Y-31750000D02*
X128000000Y-33250000D01*
X128750000Y-36500000D02*
X133000000Y-36500000D01*
%TO.N,Net-(D3-K)*%
X120475000Y-38865000D02*
X120610000Y-39000000D01*
X124250000Y-39000000D02*
X124750000Y-38500000D01*
X124750000Y-38500000D02*
X124750000Y-36412500D01*
X124750000Y-36412500D02*
X123750000Y-35412500D01*
X120610000Y-39000000D02*
X124250000Y-39000000D01*
X123750000Y-35412500D02*
X126162500Y-35412500D01*
X126162500Y-35412500D02*
X126500000Y-35750000D01*
%TO.N,Net-(D4-K)*%
X121250000Y-44500000D02*
X123750000Y-44500000D01*
X125250000Y-44500000D02*
X126500000Y-45750000D01*
X120475000Y-43725000D02*
X121250000Y-44500000D01*
X123750000Y-44500000D02*
X125250000Y-44500000D01*
X120475000Y-41405000D02*
X120475000Y-43725000D01*
%TO.N,Net-(D4-A)*%
X129000000Y-44250000D02*
X132420000Y-44250000D01*
X125575000Y-42675000D02*
X126500000Y-41750000D01*
X126500000Y-41750000D02*
X129000000Y-44250000D01*
X132420000Y-44250000D02*
X133425000Y-45255000D01*
X123750000Y-42675000D02*
X125575000Y-42675000D01*
D46*
%TO.N,/U1_RX*%
X143375000Y-75900000D02*
X143375000Y-74225000D01*
X143375000Y-74225000D02*
X143400000Y-74200000D01*
%TO.N,/U1_TX*%
X144700000Y-74200000D02*
X144700000Y-75825000D01*
X144700000Y-75825000D02*
X144625000Y-75900000D01*
D49*
%TO.N,Net-(U2-RON)*%
X107687500Y-50442500D02*
X109262500Y-50442500D01*
X109262500Y-50442500D02*
X109570000Y-50750000D01*
D46*
%TO.N,/HRTIM_-*%
X112224000Y-43224000D02*
X112250000Y-43250000D01*
X113000000Y-39837500D02*
X112224000Y-40613500D01*
X112224000Y-40613500D02*
X112224000Y-43224000D01*
X112750000Y-39675000D02*
X115065000Y-39675000D01*
X115065000Y-39675000D02*
X115525000Y-40135000D01*
%TO.N,/HRTIM_+*%
X111972500Y-38865000D02*
X115525000Y-38865000D01*
X111250000Y-39837500D02*
X111250000Y-39050000D01*
X111250000Y-39050000D02*
X111800000Y-38500000D01*
X111000000Y-39837500D02*
X111972500Y-38865000D01*
%TO.N,Net-(U6A-+)*%
X159725000Y-66865000D02*
X161972500Y-66865000D01*
X161972500Y-66865000D02*
X162337500Y-66500000D01*
X162337500Y-66500000D02*
X162337500Y-68250000D01*
%TO.N,/comp_volt*%
X148250000Y-64500000D02*
X157162500Y-64500000D01*
X158750001Y-68135000D02*
X159725000Y-68135000D01*
X158162500Y-67547499D02*
X158750001Y-68135000D01*
X157162500Y-64500000D02*
X158162500Y-63500000D01*
X159725000Y-68135000D02*
X159725000Y-69405000D01*
X148000000Y-64250000D02*
X148250000Y-64500000D01*
X158162500Y-63500000D02*
X158162500Y-67547499D01*
%TO.N,/adc_volt*%
X155250000Y-63500000D02*
X156337500Y-63500000D01*
%TD*%
%TA.AperFunction,Conductor*%
%TO.N,Net-(Q2-D)*%
G36*
X140129331Y-27244515D02*
G01*
X140195407Y-27267223D01*
X140238717Y-27322050D01*
X140247677Y-27370771D01*
X140000960Y-40200038D01*
X139979990Y-40266687D01*
X139964664Y-40285335D01*
X139286319Y-40963681D01*
X139224996Y-40997166D01*
X139198638Y-41000000D01*
X135750000Y-41000000D01*
X134774551Y-42219310D01*
X134717300Y-42259362D01*
X134707440Y-42262234D01*
X134701374Y-42263731D01*
X134612497Y-42294688D01*
X134612493Y-42294690D01*
X134491462Y-42372473D01*
X134491451Y-42372481D01*
X134438659Y-42418225D01*
X134344433Y-42526966D01*
X134344430Y-42526970D01*
X134284664Y-42657836D01*
X134264976Y-42724884D01*
X134244500Y-42867303D01*
X134244500Y-42913101D01*
X134224815Y-42980140D01*
X134189283Y-43016275D01*
X133996666Y-43144685D01*
X133996659Y-43144690D01*
X133936107Y-43192087D01*
X133936096Y-43192096D01*
X133908342Y-43217453D01*
X133908334Y-43217461D01*
X133855706Y-43273455D01*
X133855697Y-43273467D01*
X133782283Y-43397193D01*
X133764426Y-43440303D01*
X133755543Y-43461747D01*
X133755536Y-43461764D01*
X133750456Y-43481666D01*
X133714806Y-43541753D01*
X133652327Y-43573029D01*
X133630309Y-43574999D01*
X133611209Y-43574999D01*
X133593226Y-43575319D01*
X133585581Y-43575592D01*
X133584336Y-43575637D01*
X133584332Y-43575637D01*
X133584310Y-43575638D01*
X133566324Y-43576602D01*
X133566309Y-43576604D01*
X133425733Y-43607185D01*
X133425728Y-43607186D01*
X133425727Y-43607187D01*
X133409901Y-43613089D01*
X133360261Y-43631604D01*
X133360257Y-43631606D01*
X133233987Y-43700555D01*
X133220862Y-43713681D01*
X133193934Y-43728384D01*
X133168116Y-43744977D01*
X133161915Y-43745868D01*
X133159539Y-43747166D01*
X133133181Y-43750000D01*
X133032730Y-43750000D01*
X132965691Y-43730315D01*
X132945048Y-43713680D01*
X132898421Y-43667052D01*
X132898414Y-43667046D01*
X132808826Y-43607186D01*
X132808826Y-43607187D01*
X132775495Y-43584916D01*
X132775492Y-43584914D01*
X132775491Y-43584914D01*
X132638917Y-43528343D01*
X132638907Y-43528340D01*
X132493920Y-43499500D01*
X132493918Y-43499500D01*
X129362230Y-43499500D01*
X129295191Y-43479815D01*
X129274549Y-43463181D01*
X129036319Y-43224951D01*
X129002834Y-43163628D01*
X129000000Y-43137270D01*
X129000000Y-37374500D01*
X129019685Y-37307461D01*
X129072489Y-37261706D01*
X129124000Y-37250500D01*
X132530500Y-37250500D01*
X132597539Y-37270185D01*
X132643294Y-37322989D01*
X132654500Y-37374500D01*
X132654500Y-37813150D01*
X132654501Y-37813175D01*
X132657291Y-37848627D01*
X132701380Y-38000385D01*
X132701382Y-38000390D01*
X132781827Y-38136416D01*
X132781834Y-38136425D01*
X132893574Y-38248165D01*
X132893578Y-38248168D01*
X132893580Y-38248170D01*
X133029610Y-38328618D01*
X133181373Y-38372709D01*
X133216837Y-38375500D01*
X133593162Y-38375499D01*
X133628627Y-38372709D01*
X133780390Y-38328618D01*
X133884127Y-38267267D01*
X133947248Y-38250000D01*
X134499999Y-38250000D01*
X134500000Y-38250000D01*
X134663154Y-30908069D01*
X134668145Y-30875896D01*
X134682460Y-30827145D01*
X134682582Y-30826730D01*
X134685013Y-30818455D01*
X134685015Y-30818455D01*
X134685020Y-30818427D01*
X134685024Y-30818416D01*
X134685146Y-30817564D01*
X134688908Y-30800265D01*
X134699096Y-30765562D01*
X134699093Y-30729425D01*
X134700356Y-30711773D01*
X134704202Y-30685024D01*
X134705500Y-30676000D01*
X134705500Y-30348231D01*
X134699668Y-30271663D01*
X134693978Y-30234531D01*
X134683031Y-30187375D01*
X134679853Y-30156603D01*
X134740517Y-27426745D01*
X134761686Y-27360159D01*
X134815493Y-27315589D01*
X134864486Y-27305500D01*
X136075990Y-27305500D01*
X136076000Y-27305500D01*
X136183456Y-27293947D01*
X136234967Y-27282741D01*
X136281591Y-27267223D01*
X136337497Y-27248616D01*
X136337501Y-27248613D01*
X136337504Y-27248613D01*
X136458543Y-27170825D01*
X136511347Y-27125070D01*
X136511349Y-27125068D01*
X136514487Y-27121931D01*
X136515748Y-27123192D01*
X136568225Y-27089413D01*
X136608868Y-27084494D01*
X140129331Y-27244515D01*
G37*
%TD.AperFunction*%
%TD*%
%TA.AperFunction,Conductor*%
%TO.N,GNDA*%
G36*
X147987483Y-65053617D02*
G01*
X147992147Y-65052947D01*
X148000434Y-65055220D01*
X148007092Y-65056045D01*
X148016570Y-65058627D01*
X148018216Y-65059577D01*
X148130019Y-65089534D01*
X148170942Y-65100500D01*
X148170943Y-65100500D01*
X153207537Y-65100500D01*
X153274576Y-65120185D01*
X153320331Y-65172989D01*
X153330275Y-65242147D01*
X153326613Y-65259095D01*
X153302402Y-65342426D01*
X153302401Y-65342432D01*
X153299500Y-65379298D01*
X153299500Y-65810701D01*
X153302401Y-65847567D01*
X153302402Y-65847573D01*
X153348254Y-66005393D01*
X153348255Y-66005396D01*
X153431917Y-66146862D01*
X153436702Y-66153031D01*
X153434256Y-66154927D01*
X153460857Y-66203642D01*
X153455873Y-66273334D01*
X153435069Y-66305703D01*
X153436702Y-66306969D01*
X153431917Y-66313137D01*
X153348255Y-66454603D01*
X153348254Y-66454606D01*
X153302402Y-66612426D01*
X153302401Y-66612432D01*
X153299500Y-66649298D01*
X153299500Y-67080701D01*
X153302401Y-67117567D01*
X153302402Y-67117573D01*
X153348254Y-67275393D01*
X153348255Y-67275396D01*
X153348256Y-67275398D01*
X153374835Y-67320340D01*
X153431917Y-67416862D01*
X153436702Y-67423031D01*
X153434256Y-67424927D01*
X153460857Y-67473642D01*
X153455873Y-67543334D01*
X153435069Y-67575703D01*
X153436702Y-67576969D01*
X153431917Y-67583137D01*
X153348255Y-67724603D01*
X153348254Y-67724606D01*
X153302402Y-67882426D01*
X153302401Y-67882432D01*
X153299500Y-67919298D01*
X153299500Y-68350701D01*
X153302401Y-68387567D01*
X153302402Y-68387573D01*
X153348254Y-68545393D01*
X153348255Y-68545396D01*
X153431917Y-68686862D01*
X153436702Y-68693031D01*
X153434256Y-68694927D01*
X153460857Y-68743642D01*
X153455873Y-68813334D01*
X153435069Y-68845703D01*
X153436702Y-68846969D01*
X153431917Y-68853137D01*
X153348255Y-68994603D01*
X153348254Y-68994606D01*
X153302402Y-69152426D01*
X153302401Y-69152432D01*
X153299500Y-69189298D01*
X153299500Y-69620701D01*
X153302401Y-69657567D01*
X153302402Y-69657573D01*
X153348254Y-69815393D01*
X153348255Y-69815396D01*
X153431917Y-69956862D01*
X153431923Y-69956870D01*
X153548129Y-70073076D01*
X153548133Y-70073079D01*
X153548135Y-70073081D01*
X153689602Y-70156744D01*
X153731224Y-70168836D01*
X153847426Y-70202597D01*
X153847429Y-70202597D01*
X153847431Y-70202598D01*
X153884306Y-70205500D01*
X153995381Y-70205500D01*
X154062420Y-70225185D01*
X154108175Y-70277989D01*
X154118119Y-70347147D01*
X154089094Y-70410703D01*
X154072288Y-70426769D01*
X154071958Y-70427029D01*
X153952029Y-70546959D01*
X153863001Y-70691294D01*
X153862996Y-70691305D01*
X153809651Y-70852290D01*
X153799500Y-70951647D01*
X153799500Y-71548337D01*
X153799501Y-71548355D01*
X153809650Y-71647707D01*
X153809651Y-71647710D01*
X153862996Y-71808694D01*
X153863001Y-71808705D01*
X153952029Y-71953040D01*
X153952032Y-71953044D01*
X154023806Y-72024818D01*
X154026027Y-72028886D01*
X154029926Y-72031398D01*
X154042618Y-72059269D01*
X154057291Y-72086141D01*
X154056960Y-72090765D01*
X154058882Y-72094985D01*
X154054491Y-72125292D01*
X154052307Y-72155833D01*
X154049343Y-72160821D01*
X154048864Y-72164132D01*
X154038633Y-72178850D01*
X154029750Y-72193803D01*
X154026879Y-72197108D01*
X153927032Y-72296956D01*
X153894817Y-72349183D01*
X153888200Y-72356804D01*
X153866941Y-72370433D01*
X153848165Y-72387322D01*
X153836446Y-72389984D01*
X153829381Y-72394515D01*
X153816573Y-72394501D01*
X153794575Y-72399500D01*
X153091959Y-72399500D01*
X153024920Y-72379815D01*
X152979165Y-72327011D01*
X152973298Y-72311495D01*
X152971659Y-72306092D01*
X152971658Y-72306087D01*
X152918202Y-72177032D01*
X152915087Y-72169511D01*
X152915080Y-72169498D01*
X152832951Y-72046584D01*
X152832948Y-72046580D01*
X152728419Y-71942051D01*
X152728415Y-71942048D01*
X152605501Y-71859919D01*
X152605488Y-71859912D01*
X152468917Y-71803343D01*
X152468907Y-71803340D01*
X152323920Y-71774500D01*
X152323918Y-71774500D01*
X152176082Y-71774500D01*
X152176080Y-71774500D01*
X152031092Y-71803340D01*
X152031082Y-71803343D01*
X151894511Y-71859912D01*
X151894498Y-71859919D01*
X151771584Y-71942048D01*
X151771580Y-71942051D01*
X151667051Y-72046580D01*
X151667048Y-72046584D01*
X151584919Y-72169498D01*
X151584912Y-72169511D01*
X151528343Y-72306082D01*
X151528340Y-72306092D01*
X151499500Y-72451079D01*
X151499500Y-72451082D01*
X151499500Y-72598918D01*
X151499500Y-72598920D01*
X151499499Y-72598920D01*
X151528340Y-72743907D01*
X151528343Y-72743917D01*
X151584912Y-72880488D01*
X151584919Y-72880501D01*
X151667048Y-73003415D01*
X151667051Y-73003419D01*
X151771580Y-73107948D01*
X151771584Y-73107951D01*
X151894498Y-73190080D01*
X151894511Y-73190087D01*
X152031082Y-73246656D01*
X152031087Y-73246658D01*
X152108212Y-73261999D01*
X152124966Y-73270763D01*
X152143445Y-73274783D01*
X152168481Y-73293525D01*
X152170119Y-73294382D01*
X152171699Y-73295934D01*
X152240139Y-73364374D01*
X152240149Y-73364385D01*
X152244479Y-73368715D01*
X152244480Y-73368716D01*
X152356284Y-73480520D01*
X152356286Y-73480521D01*
X152356290Y-73480524D01*
X152491687Y-73558694D01*
X152493216Y-73559577D01*
X152605019Y-73589534D01*
X152645942Y-73600500D01*
X152645943Y-73600500D01*
X153794575Y-73600500D01*
X153861614Y-73620185D01*
X153900113Y-73659402D01*
X153927031Y-73703043D01*
X154046955Y-73822967D01*
X154046959Y-73822970D01*
X154191294Y-73911998D01*
X154191297Y-73911999D01*
X154191303Y-73912003D01*
X154352292Y-73965349D01*
X154451655Y-73975500D01*
X154998344Y-73975499D01*
X154998352Y-73975498D01*
X154998355Y-73975498D01*
X155086342Y-73966510D01*
X155097708Y-73965349D01*
X155258697Y-73912003D01*
X155403044Y-73822968D01*
X155522968Y-73703044D01*
X155612003Y-73558697D01*
X155665349Y-73397708D01*
X155675500Y-73298345D01*
X155675499Y-72701656D01*
X155665349Y-72602292D01*
X155612003Y-72441303D01*
X155611999Y-72441297D01*
X155611998Y-72441294D01*
X155522970Y-72296959D01*
X155522967Y-72296955D01*
X155451193Y-72225181D01*
X155417708Y-72163858D01*
X155422692Y-72094166D01*
X155451193Y-72049819D01*
X155476194Y-72024818D01*
X155547968Y-71953044D01*
X155637003Y-71808697D01*
X155690349Y-71647708D01*
X155700500Y-71548345D01*
X155700499Y-70951656D01*
X155690349Y-70852292D01*
X155637003Y-70691303D01*
X155636999Y-70691297D01*
X155636998Y-70691294D01*
X155547970Y-70546959D01*
X155547969Y-70546958D01*
X155547968Y-70546956D01*
X155428044Y-70427032D01*
X155428043Y-70427031D01*
X155428039Y-70427027D01*
X155427705Y-70426763D01*
X155427535Y-70426523D01*
X155422937Y-70421925D01*
X155423723Y-70421138D01*
X155387331Y-70369739D01*
X155384195Y-70299940D01*
X155419293Y-70239526D01*
X155481482Y-70207678D01*
X155504620Y-70205500D01*
X155665686Y-70205500D01*
X155665694Y-70205500D01*
X155702569Y-70202598D01*
X155702571Y-70202597D01*
X155702573Y-70202597D01*
X155744191Y-70190505D01*
X155860398Y-70156744D01*
X156001865Y-70073081D01*
X156118081Y-69956865D01*
X156201744Y-69815398D01*
X156247598Y-69657569D01*
X156250500Y-69620694D01*
X156250500Y-69189306D01*
X156247598Y-69152431D01*
X156201744Y-68994602D01*
X156118081Y-68853135D01*
X156118078Y-68853132D01*
X156113298Y-68846969D01*
X156115750Y-68845066D01*
X156089155Y-68796421D01*
X156094104Y-68726726D01*
X156114940Y-68694304D01*
X156113298Y-68693031D01*
X156118075Y-68686870D01*
X156118081Y-68686865D01*
X156201744Y-68545398D01*
X156247598Y-68387569D01*
X156250500Y-68350694D01*
X156250500Y-67919306D01*
X156247598Y-67882431D01*
X156201744Y-67724602D01*
X156118081Y-67583135D01*
X156118078Y-67583132D01*
X156113298Y-67576969D01*
X156115750Y-67575066D01*
X156089155Y-67526421D01*
X156094104Y-67456726D01*
X156114940Y-67424304D01*
X156113298Y-67423031D01*
X156118075Y-67416870D01*
X156118081Y-67416865D01*
X156201744Y-67275398D01*
X156247598Y-67117569D01*
X156250500Y-67080694D01*
X156250500Y-66649306D01*
X156247598Y-66612431D01*
X156201744Y-66454602D01*
X156118081Y-66313135D01*
X156118078Y-66313132D01*
X156113298Y-66306969D01*
X156115750Y-66305066D01*
X156089155Y-66256421D01*
X156094104Y-66186726D01*
X156114940Y-66154304D01*
X156113298Y-66153031D01*
X156118075Y-66146870D01*
X156118081Y-66146865D01*
X156201744Y-66005398D01*
X156247598Y-65847569D01*
X156250500Y-65810694D01*
X156250500Y-65379306D01*
X156247598Y-65342431D01*
X156247597Y-65342426D01*
X156223387Y-65259095D01*
X156223586Y-65189226D01*
X156261528Y-65130556D01*
X156325166Y-65101712D01*
X156342463Y-65100500D01*
X157075831Y-65100500D01*
X157075847Y-65100501D01*
X157083443Y-65100501D01*
X157241554Y-65100501D01*
X157241557Y-65100501D01*
X157394285Y-65059577D01*
X157394286Y-65059575D01*
X157402135Y-65057473D01*
X157402761Y-65059811D01*
X157460017Y-65053656D01*
X157522496Y-65084931D01*
X157558148Y-65145020D01*
X157562000Y-65175686D01*
X157562000Y-67460829D01*
X157561999Y-67460847D01*
X157561999Y-67626553D01*
X157561998Y-67626553D01*
X157602922Y-67779282D01*
X157620805Y-67810257D01*
X157681975Y-67916208D01*
X157681981Y-67916216D01*
X157800849Y-68035084D01*
X157800855Y-68035089D01*
X158269479Y-68503713D01*
X158269481Y-68503716D01*
X158271697Y-68505932D01*
X158271718Y-68505970D01*
X158294047Y-68538824D01*
X158294285Y-68538684D01*
X158296517Y-68542459D01*
X158297802Y-68544349D01*
X158298256Y-68545400D01*
X158381916Y-68686861D01*
X158386702Y-68693031D01*
X158384256Y-68694927D01*
X158410857Y-68743642D01*
X158405873Y-68813334D01*
X158385069Y-68845703D01*
X158386702Y-68846969D01*
X158381917Y-68853137D01*
X158298255Y-68994603D01*
X158298254Y-68994606D01*
X158252402Y-69152426D01*
X158252401Y-69152432D01*
X158249500Y-69189298D01*
X158249500Y-69620701D01*
X158252401Y-69657567D01*
X158252402Y-69657573D01*
X158298254Y-69815393D01*
X158298255Y-69815396D01*
X158381917Y-69956862D01*
X158381923Y-69956870D01*
X158498129Y-70073076D01*
X158498133Y-70073079D01*
X158498135Y-70073081D01*
X158639602Y-70156744D01*
X158681224Y-70168836D01*
X158797426Y-70202597D01*
X158797429Y-70202597D01*
X158797431Y-70202598D01*
X158834306Y-70205500D01*
X158834314Y-70205500D01*
X160615686Y-70205500D01*
X160615694Y-70205500D01*
X160652569Y-70202598D01*
X160652571Y-70202597D01*
X160652573Y-70202597D01*
X160694191Y-70190505D01*
X160810398Y-70156744D01*
X160951865Y-70073081D01*
X161068081Y-69956865D01*
X161151744Y-69815398D01*
X161197598Y-69657569D01*
X161200500Y-69620694D01*
X161200500Y-69189306D01*
X161197598Y-69152431D01*
X161151744Y-68994602D01*
X161068081Y-68853135D01*
X161068078Y-68853132D01*
X161063298Y-68846969D01*
X161065750Y-68845066D01*
X161039155Y-68796421D01*
X161044104Y-68726726D01*
X161054589Y-68705196D01*
X161062253Y-68692692D01*
X161068081Y-68686865D01*
X161129862Y-68582398D01*
X161130346Y-68581609D01*
X161155570Y-68558793D01*
X161180401Y-68535609D01*
X161181406Y-68535426D01*
X161182164Y-68534741D01*
X161215712Y-68529185D01*
X161249143Y-68523105D01*
X161250086Y-68523494D01*
X161251096Y-68523327D01*
X161282344Y-68536801D01*
X161313732Y-68549750D01*
X161314315Y-68550587D01*
X161315255Y-68550993D01*
X161334252Y-68579214D01*
X161353663Y-68607085D01*
X161353968Y-68608503D01*
X161354272Y-68608954D01*
X161354294Y-68610015D01*
X161359422Y-68633806D01*
X161359826Y-68637753D01*
X161407381Y-68781265D01*
X161414092Y-68801515D01*
X161414093Y-68801518D01*
X161435235Y-68835794D01*
X161504660Y-68948350D01*
X161626650Y-69070340D01*
X161773484Y-69160908D01*
X161937247Y-69215174D01*
X162038323Y-69225500D01*
X162636676Y-69225499D01*
X162636684Y-69225498D01*
X162636687Y-69225498D01*
X162692030Y-69219844D01*
X162737753Y-69215174D01*
X162901516Y-69160908D01*
X163048350Y-69070340D01*
X163162319Y-68956371D01*
X163223642Y-68922886D01*
X163293334Y-68927870D01*
X163337681Y-68956371D01*
X163451650Y-69070340D01*
X163598484Y-69160908D01*
X163762247Y-69215174D01*
X163863323Y-69225500D01*
X164461676Y-69225499D01*
X164461684Y-69225498D01*
X164461687Y-69225498D01*
X164517030Y-69219844D01*
X164562753Y-69215174D01*
X164726516Y-69160908D01*
X164873350Y-69070340D01*
X164995340Y-68948350D01*
X165081043Y-68809402D01*
X165086709Y-68804306D01*
X165089586Y-68797248D01*
X165112326Y-68781265D01*
X165132991Y-68762679D01*
X165141947Y-68760447D01*
X165146750Y-68757072D01*
X165172637Y-68752800D01*
X165181446Y-68750606D01*
X165184003Y-68750500D01*
X165323918Y-68750500D01*
X165360749Y-68743173D01*
X165370364Y-68742775D01*
X165395303Y-68748988D01*
X165420899Y-68751279D01*
X165428644Y-68757295D01*
X165438162Y-68759667D01*
X165455781Y-68778375D01*
X165476077Y-68794141D01*
X165479340Y-68803390D01*
X165486064Y-68810530D01*
X165490771Y-68835794D01*
X165499322Y-68860031D01*
X165499500Y-68866669D01*
X165499500Y-80375500D01*
X165479815Y-80442539D01*
X165427011Y-80488294D01*
X165375500Y-80499500D01*
X140724000Y-80499500D01*
X140656961Y-80479815D01*
X140611206Y-80427011D01*
X140600000Y-80375500D01*
X140600000Y-76848597D01*
X140619685Y-76781558D01*
X140672489Y-76735803D01*
X140741647Y-76725859D01*
X140805203Y-76754884D01*
X140811681Y-76760916D01*
X141466139Y-77415374D01*
X141466149Y-77415385D01*
X141470479Y-77419715D01*
X141470480Y-77419716D01*
X141582284Y-77531520D01*
X141669095Y-77581639D01*
X141669097Y-77581641D01*
X141707151Y-77603611D01*
X141719215Y-77610577D01*
X141871943Y-77651501D01*
X141871946Y-77651501D01*
X142037653Y-77651501D01*
X142037669Y-77651500D01*
X145487330Y-77651500D01*
X145487346Y-77651501D01*
X145494942Y-77651501D01*
X145653053Y-77651501D01*
X145653056Y-77651501D01*
X145805784Y-77610577D01*
X145855903Y-77581639D01*
X145942715Y-77531520D01*
X146054519Y-77419716D01*
X146054519Y-77419714D01*
X146245920Y-77228312D01*
X146278823Y-77205955D01*
X146278682Y-77205716D01*
X146282495Y-77203460D01*
X146284367Y-77202189D01*
X146285384Y-77201747D01*
X146285398Y-77201744D01*
X146426865Y-77118081D01*
X146543081Y-77001865D01*
X146626744Y-76860398D01*
X146672598Y-76702569D01*
X146675500Y-76665694D01*
X146675500Y-75134306D01*
X146672598Y-75097431D01*
X146626744Y-74939602D01*
X146543081Y-74798135D01*
X146543079Y-74798133D01*
X146543076Y-74798129D01*
X146426870Y-74681923D01*
X146426862Y-74681917D01*
X146285396Y-74598255D01*
X146285393Y-74598254D01*
X146127573Y-74552402D01*
X146127567Y-74552401D01*
X146090701Y-74549500D01*
X146090694Y-74549500D01*
X145659306Y-74549500D01*
X145659298Y-74549500D01*
X145622428Y-74552402D01*
X145618930Y-74553041D01*
X145616954Y-74552832D01*
X145616114Y-74552899D01*
X145616101Y-74552743D01*
X145549445Y-74545722D01*
X145494947Y-74501998D01*
X145472740Y-74435751D01*
X145475034Y-74406867D01*
X145500500Y-74278844D01*
X145500500Y-74121155D01*
X145500499Y-74121153D01*
X145489969Y-74068215D01*
X145469737Y-73966503D01*
X145447163Y-73912003D01*
X145409397Y-73820827D01*
X145409390Y-73820814D01*
X145321789Y-73689711D01*
X145321786Y-73689707D01*
X145210292Y-73578213D01*
X145210288Y-73578210D01*
X145079185Y-73490609D01*
X145079172Y-73490602D01*
X144933501Y-73430264D01*
X144933489Y-73430261D01*
X144778845Y-73399500D01*
X144778842Y-73399500D01*
X144621158Y-73399500D01*
X144621155Y-73399500D01*
X144466510Y-73430261D01*
X144466498Y-73430264D01*
X144320827Y-73490602D01*
X144320814Y-73490609D01*
X144189711Y-73578210D01*
X144189707Y-73578213D01*
X144137681Y-73630240D01*
X144076358Y-73663725D01*
X144006666Y-73658741D01*
X143962319Y-73630240D01*
X143910292Y-73578213D01*
X143910288Y-73578210D01*
X143779185Y-73490609D01*
X143779172Y-73490602D01*
X143633501Y-73430264D01*
X143633489Y-73430261D01*
X143478845Y-73399500D01*
X143478842Y-73399500D01*
X143321158Y-73399500D01*
X143321155Y-73399500D01*
X143166510Y-73430261D01*
X143166498Y-73430264D01*
X143020827Y-73490602D01*
X143020814Y-73490609D01*
X142889711Y-73578210D01*
X142889707Y-73578213D01*
X142778213Y-73689707D01*
X142778210Y-73689711D01*
X142690609Y-73820814D01*
X142690602Y-73820827D01*
X142630264Y-73966498D01*
X142630261Y-73966510D01*
X142599500Y-74121153D01*
X142599500Y-74278846D01*
X142630261Y-74433489D01*
X142630264Y-74433501D01*
X142690602Y-74579172D01*
X142690612Y-74579190D01*
X142728303Y-74635599D01*
X142749181Y-74702276D01*
X142730696Y-74769656D01*
X142712886Y-74792166D01*
X142706925Y-74798126D01*
X142706917Y-74798137D01*
X142623255Y-74939603D01*
X142623254Y-74939606D01*
X142577402Y-75097426D01*
X142577401Y-75097432D01*
X142574500Y-75134298D01*
X142574500Y-76326500D01*
X142571949Y-76335185D01*
X142573238Y-76344147D01*
X142562259Y-76368187D01*
X142554815Y-76393539D01*
X142547974Y-76399466D01*
X142544213Y-76407703D01*
X142521978Y-76421992D01*
X142502011Y-76439294D01*
X142491496Y-76441581D01*
X142485435Y-76445477D01*
X142450500Y-76450500D01*
X142251097Y-76450500D01*
X142184058Y-76430815D01*
X142163416Y-76414181D01*
X141136819Y-75387584D01*
X141103334Y-75326261D01*
X141100500Y-75299903D01*
X141100500Y-74801291D01*
X141120185Y-74734252D01*
X141155606Y-74698191D01*
X141178416Y-74682951D01*
X141282951Y-74578416D01*
X141365084Y-74455495D01*
X141421658Y-74318913D01*
X141450500Y-74173918D01*
X141450500Y-74026082D01*
X141450500Y-74026079D01*
X141421659Y-73881092D01*
X141421658Y-73881091D01*
X141421658Y-73881087D01*
X141365084Y-73744505D01*
X141365083Y-73744504D01*
X141362753Y-73738878D01*
X141363614Y-73738520D01*
X141350500Y-73686160D01*
X141350500Y-73050097D01*
X141370185Y-72983058D01*
X141386819Y-72962416D01*
X141712416Y-72636819D01*
X141773739Y-72603334D01*
X141800097Y-72600500D01*
X145413331Y-72600500D01*
X145413347Y-72600501D01*
X145420943Y-72600501D01*
X145579054Y-72600501D01*
X145579057Y-72600501D01*
X145731785Y-72559577D01*
X145781904Y-72530639D01*
X145868716Y-72480520D01*
X145980520Y-72368716D01*
X145980520Y-72368714D01*
X145990728Y-72358507D01*
X145990729Y-72358504D01*
X147730520Y-70618716D01*
X147809577Y-70481784D01*
X147850501Y-70329057D01*
X147850501Y-70170942D01*
X147850501Y-70163347D01*
X147850500Y-70163329D01*
X147850500Y-65175685D01*
X147857613Y-65151459D01*
X147860716Y-65126398D01*
X147867290Y-65118502D01*
X147870185Y-65108646D01*
X147889264Y-65092113D01*
X147905425Y-65072706D01*
X147915225Y-65069618D01*
X147922989Y-65062891D01*
X147947980Y-65059297D01*
X147972065Y-65051709D01*
X147987483Y-65053617D01*
G37*
%TD.AperFunction*%
%TA.AperFunction,Conductor*%
G36*
X165442539Y-63819685D02*
G01*
X165488294Y-63872489D01*
X165499500Y-63924000D01*
X165499500Y-67133330D01*
X165479815Y-67200369D01*
X165427011Y-67246124D01*
X165357853Y-67256068D01*
X165351311Y-67254948D01*
X165323919Y-67249500D01*
X165323918Y-67249500D01*
X165176082Y-67249500D01*
X165176080Y-67249500D01*
X165031092Y-67278340D01*
X165031086Y-67278342D01*
X164894508Y-67334914D01*
X164894492Y-67334923D01*
X164876826Y-67346727D01*
X164810148Y-67367603D01*
X164742844Y-67349163D01*
X164726520Y-67339094D01*
X164726517Y-67339092D01*
X164726516Y-67339092D01*
X164562753Y-67284826D01*
X164562751Y-67284825D01*
X164461678Y-67274500D01*
X163863330Y-67274500D01*
X163863312Y-67274501D01*
X163762247Y-67284825D01*
X163598484Y-67339092D01*
X163598481Y-67339093D01*
X163451648Y-67429661D01*
X163337681Y-67543629D01*
X163329735Y-67547967D01*
X163324310Y-67555215D01*
X163299550Y-67564449D01*
X163276358Y-67577114D01*
X163267328Y-67576468D01*
X163258846Y-67579632D01*
X163233025Y-67574015D01*
X163206666Y-67572130D01*
X163197612Y-67566311D01*
X163190573Y-67564780D01*
X163162319Y-67543629D01*
X163081371Y-67462681D01*
X163047886Y-67401358D01*
X163052870Y-67331666D01*
X163081371Y-67287319D01*
X163122566Y-67246124D01*
X163170340Y-67198350D01*
X163260908Y-67051516D01*
X163315174Y-66887753D01*
X163325500Y-66786677D01*
X163325499Y-66213324D01*
X163322396Y-66182951D01*
X163315174Y-66112247D01*
X163303628Y-66077405D01*
X163260908Y-65948484D01*
X163170340Y-65801650D01*
X163048350Y-65679660D01*
X162901516Y-65589092D01*
X162737753Y-65534826D01*
X162737751Y-65534825D01*
X162636678Y-65524500D01*
X162038330Y-65524500D01*
X162038312Y-65524501D01*
X161937247Y-65534825D01*
X161773484Y-65589092D01*
X161773481Y-65589093D01*
X161626648Y-65679661D01*
X161504661Y-65801648D01*
X161414093Y-65948481D01*
X161414091Y-65948486D01*
X161359826Y-66112248D01*
X161359825Y-66112249D01*
X161355652Y-66153103D01*
X161354657Y-66155540D01*
X161355032Y-66158147D01*
X161341532Y-66187706D01*
X161329256Y-66217794D01*
X161327101Y-66219307D01*
X161326007Y-66221703D01*
X161298669Y-66239271D01*
X161272075Y-66257946D01*
X161268761Y-66258491D01*
X161267229Y-66259477D01*
X161232294Y-66264500D01*
X161070808Y-66264500D01*
X161003769Y-66244815D01*
X160983126Y-66228180D01*
X160951870Y-66196923D01*
X160951862Y-66196917D01*
X160810396Y-66113255D01*
X160810393Y-66113254D01*
X160652573Y-66067402D01*
X160652567Y-66067401D01*
X160615701Y-66064500D01*
X160615694Y-66064500D01*
X158887000Y-66064500D01*
X158819961Y-66044815D01*
X158774206Y-65992011D01*
X158763000Y-65940500D01*
X158763000Y-64457610D01*
X158782685Y-64390571D01*
X158821901Y-64352073D01*
X158873350Y-64320340D01*
X158995340Y-64198350D01*
X159085908Y-64051516D01*
X159140174Y-63887753D01*
X159140174Y-63887750D01*
X159141087Y-63884996D01*
X159180860Y-63827551D01*
X159245376Y-63800728D01*
X159258793Y-63800000D01*
X165375500Y-63800000D01*
X165442539Y-63819685D01*
G37*
%TD.AperFunction*%
%TD*%
%TA.AperFunction,Conductor*%
%TO.N,+24V*%
G36*
X164943039Y-38925185D02*
G01*
X164988794Y-38977989D01*
X165000000Y-39029500D01*
X165000000Y-44626000D01*
X164980315Y-44693039D01*
X164927511Y-44738794D01*
X164876000Y-44750000D01*
X158249999Y-44750000D01*
X158000012Y-44999986D01*
X158000000Y-45000000D01*
X155536271Y-47956473D01*
X155478232Y-47995372D01*
X155443351Y-48001068D01*
X142250000Y-48250000D01*
X142249999Y-48250000D01*
X142212977Y-48537020D01*
X142250000Y-48750000D01*
X142663438Y-48750000D01*
X142663440Y-48750000D01*
X155632743Y-48500000D01*
X156500000Y-47459447D01*
X156743411Y-47012107D01*
X156759092Y-46989632D01*
X157100420Y-46600420D01*
X158462946Y-45042370D01*
X158521895Y-45004865D01*
X158556288Y-45000000D01*
X165128455Y-45000000D01*
X165195494Y-45019685D01*
X165241249Y-45072489D01*
X165252430Y-45121521D01*
X165485986Y-56799346D01*
X165467646Y-56866765D01*
X165415768Y-56913567D01*
X165370858Y-56925509D01*
X165241689Y-56934748D01*
X165106885Y-56985028D01*
X165045560Y-57018513D01*
X164930378Y-57104738D01*
X164930366Y-57104748D01*
X164576935Y-57458181D01*
X164515612Y-57491666D01*
X164489254Y-57494500D01*
X163369185Y-57494500D01*
X163256726Y-57507170D01*
X163256703Y-57507174D01*
X163202916Y-57519450D01*
X163202914Y-57519451D01*
X163096059Y-57556840D01*
X163096055Y-57556842D01*
X163020927Y-57593022D01*
X163008081Y-57598343D01*
X162809722Y-57667752D01*
X162796359Y-57671602D01*
X162591494Y-57718360D01*
X162577786Y-57720689D01*
X162368952Y-57744220D01*
X162355068Y-57745000D01*
X162144927Y-57745000D01*
X162131043Y-57744220D01*
X161922216Y-57720690D01*
X161908508Y-57718361D01*
X161703630Y-57671600D01*
X161690267Y-57667750D01*
X161491917Y-57598344D01*
X161479070Y-57593023D01*
X161403938Y-57556841D01*
X161297096Y-57519455D01*
X161297077Y-57519449D01*
X161250608Y-57508844D01*
X161190519Y-57475635D01*
X161122488Y-57407604D01*
X161122487Y-57407603D01*
X161122471Y-57407587D01*
X161101902Y-57388140D01*
X161091525Y-57378866D01*
X161069859Y-57360570D01*
X161069852Y-57360564D01*
X160923979Y-57244234D01*
X160913611Y-57234968D01*
X160765029Y-57086386D01*
X160755763Y-57076018D01*
X160709904Y-57018513D01*
X160639434Y-56930146D01*
X160631381Y-56920610D01*
X160621131Y-56908472D01*
X160611857Y-56898095D01*
X160592393Y-56877508D01*
X160291819Y-56576934D01*
X160258334Y-56515611D01*
X160255500Y-56489253D01*
X160255500Y-55901829D01*
X160255049Y-55885798D01*
X160255000Y-55882311D01*
X160255000Y-55617721D01*
X160255049Y-55614241D01*
X160255500Y-55598179D01*
X160255500Y-54552552D01*
X160275185Y-54485513D01*
X160302036Y-54455726D01*
X161269245Y-53681959D01*
X161328928Y-53625690D01*
X161355781Y-53595901D01*
X161405567Y-53530738D01*
X161465338Y-53399861D01*
X161485023Y-53332822D01*
X161485024Y-53332818D01*
X161505500Y-53190402D01*
X161505500Y-52137730D01*
X161502603Y-52083690D01*
X161499769Y-52057332D01*
X161491114Y-52003920D01*
X161440832Y-51869111D01*
X161407347Y-51807788D01*
X161321123Y-51692607D01*
X161321118Y-51692602D01*
X161321113Y-51692596D01*
X161266759Y-51638243D01*
X161248905Y-51615664D01*
X161234049Y-51591579D01*
X161221885Y-51565492D01*
X161218159Y-51554248D01*
X161211527Y-51534233D01*
X161205873Y-51507799D01*
X161205636Y-51505483D01*
X161205000Y-51492934D01*
X161205000Y-50507058D01*
X161205637Y-50494501D01*
X161205872Y-50492200D01*
X161211525Y-50465771D01*
X161221887Y-50434501D01*
X161234053Y-50408413D01*
X161248904Y-50384336D01*
X161266757Y-50361756D01*
X161286758Y-50341755D01*
X161309330Y-50323907D01*
X161333418Y-50309049D01*
X161359499Y-50296887D01*
X161390766Y-50286526D01*
X161417196Y-50280873D01*
X161419515Y-50280636D01*
X161432063Y-50280000D01*
X162142944Y-50280000D01*
X162155485Y-50280636D01*
X162157803Y-50280872D01*
X162184238Y-50286528D01*
X162215489Y-50296884D01*
X162241575Y-50309047D01*
X162265664Y-50323905D01*
X162288244Y-50341760D01*
X162308238Y-50361754D01*
X162326094Y-50384335D01*
X162357040Y-50434507D01*
X162370590Y-50456475D01*
X162407540Y-50503653D01*
X162440093Y-50545217D01*
X162478593Y-50584436D01*
X162535312Y-50630578D01*
X162566027Y-50655565D01*
X162566028Y-50655565D01*
X162566030Y-50655567D01*
X162696907Y-50715338D01*
X162763946Y-50735023D01*
X162763950Y-50735024D01*
X162906366Y-50755500D01*
X162906369Y-50755500D01*
X163448640Y-50755500D01*
X163458786Y-50754955D01*
X163502678Y-50752603D01*
X163502686Y-50752602D01*
X163502688Y-50752602D01*
X163502689Y-50752602D01*
X163509682Y-50751849D01*
X163529036Y-50749769D01*
X163529046Y-50749767D01*
X163529049Y-50749767D01*
X163538648Y-50748211D01*
X163582448Y-50741114D01*
X163717257Y-50690832D01*
X163778580Y-50657347D01*
X163893761Y-50571123D01*
X164321123Y-50143761D01*
X164357288Y-50103500D01*
X164373922Y-50082858D01*
X164405567Y-50038974D01*
X164465338Y-49908097D01*
X164485023Y-49841058D01*
X164485024Y-49841054D01*
X164505500Y-49698638D01*
X164505500Y-47874000D01*
X164493947Y-47766544D01*
X164482741Y-47715033D01*
X164456937Y-47637504D01*
X164448616Y-47612502D01*
X164448613Y-47612496D01*
X164422085Y-47571218D01*
X164370825Y-47491457D01*
X164370820Y-47491451D01*
X164325076Y-47438659D01*
X164325072Y-47438656D01*
X164325070Y-47438653D01*
X164216336Y-47344433D01*
X164216333Y-47344431D01*
X164216331Y-47344430D01*
X164085465Y-47284664D01*
X164085460Y-47284662D01*
X164085459Y-47284662D01*
X164040766Y-47271538D01*
X164018417Y-47264976D01*
X163970091Y-47258028D01*
X163876000Y-47244500D01*
X163875998Y-47244500D01*
X163526190Y-47244500D01*
X163515892Y-47244072D01*
X163385873Y-47233237D01*
X162939250Y-47196018D01*
X162939234Y-47196016D01*
X162939223Y-47196016D01*
X162922914Y-47194922D01*
X162914936Y-47194517D01*
X162902128Y-47194073D01*
X162898638Y-47193953D01*
X162898637Y-47193953D01*
X162898635Y-47193953D01*
X162755868Y-47211792D01*
X162688477Y-47230234D01*
X162688471Y-47230236D01*
X162624512Y-47258028D01*
X162614100Y-47262006D01*
X162534237Y-47288470D01*
X162507848Y-47294121D01*
X162506399Y-47294269D01*
X162505548Y-47294356D01*
X162492935Y-47294999D01*
X161507065Y-47294999D01*
X161494456Y-47294356D01*
X161492157Y-47294121D01*
X161465762Y-47288470D01*
X161434507Y-47278113D01*
X161408416Y-47265947D01*
X161384337Y-47251095D01*
X161361753Y-47233237D01*
X161340809Y-47212292D01*
X161338044Y-47209702D01*
X161316637Y-47189652D01*
X161304427Y-47178945D01*
X161278811Y-47157927D01*
X161180263Y-47102603D01*
X161153353Y-47087496D01*
X161153347Y-47087493D01*
X161093662Y-47064429D01*
X161091853Y-47063629D01*
X161088176Y-47062308D01*
X160947949Y-47030076D01*
X160547087Y-46996671D01*
X160528005Y-46995481D01*
X160526129Y-46995364D01*
X160519736Y-46995098D01*
X160515795Y-46994934D01*
X160494856Y-46994500D01*
X160494839Y-46994500D01*
X160268516Y-46994500D01*
X160268515Y-46994500D01*
X160238159Y-46996671D01*
X160196574Y-46999645D01*
X160190346Y-47000540D01*
X160190192Y-47000561D01*
X160161652Y-47004665D01*
X160161614Y-47004672D01*
X160155224Y-47006060D01*
X160151695Y-47006827D01*
X160151694Y-47006812D01*
X160148902Y-47007263D01*
X160142631Y-47008797D01*
X160141020Y-47009148D01*
X160141019Y-47009147D01*
X160141015Y-47009149D01*
X160091355Y-47019943D01*
X160085998Y-47021724D01*
X160081414Y-47023491D01*
X160077418Y-47024760D01*
X160070508Y-47026452D01*
X160033585Y-47038686D01*
X160032781Y-47038942D01*
X160031947Y-47038960D01*
X160007892Y-47044115D01*
X160005592Y-47044351D01*
X159992935Y-47044999D01*
X159007064Y-47044999D01*
X158994465Y-47044357D01*
X158992164Y-47044122D01*
X158965763Y-47038471D01*
X158929492Y-47026452D01*
X158851018Y-47007250D01*
X158812014Y-47000956D01*
X158812008Y-47000955D01*
X158811997Y-47000954D01*
X158731493Y-46994500D01*
X158731484Y-46994500D01*
X158616008Y-46994500D01*
X158616007Y-46994500D01*
X158544065Y-46999645D01*
X158509137Y-47004666D01*
X158438684Y-47019991D01*
X158438682Y-47019992D01*
X158432947Y-47022611D01*
X158424077Y-47026660D01*
X158393177Y-47035259D01*
X158335612Y-47067051D01*
X158331306Y-47069018D01*
X158331294Y-47069025D01*
X158307813Y-47079748D01*
X158307807Y-47079751D01*
X158281817Y-47096451D01*
X158278340Y-47098685D01*
X158267230Y-47104822D01*
X158258369Y-47111521D01*
X158254397Y-47114074D01*
X158254389Y-47114079D01*
X158251518Y-47115925D01*
X158248998Y-47117545D01*
X158242522Y-47123156D01*
X158236141Y-47128323D01*
X158211449Y-47147000D01*
X158211435Y-47147012D01*
X158193303Y-47165322D01*
X158186399Y-47171782D01*
X158140296Y-47211728D01*
X158140291Y-47211733D01*
X158134277Y-47221089D01*
X158118091Y-47241274D01*
X158110254Y-47249188D01*
X158110253Y-47249189D01*
X158081264Y-47302893D01*
X158079013Y-47307064D01*
X158062496Y-47332760D01*
X158060471Y-47337193D01*
X158062298Y-47338028D01*
X158058841Y-47344433D01*
X158045974Y-47368270D01*
X158041908Y-47375803D01*
X158039699Y-47381813D01*
X158036111Y-47390534D01*
X158033447Y-47396368D01*
X158033445Y-47396371D01*
X158031019Y-47404633D01*
X158028440Y-47412442D01*
X158017792Y-47441425D01*
X158012443Y-47466604D01*
X158010125Y-47475775D01*
X157992925Y-47534340D01*
X157992925Y-47534342D01*
X157992923Y-47545487D01*
X157990219Y-47571218D01*
X157987903Y-47582122D01*
X157987902Y-47582132D01*
X157764842Y-50928033D01*
X157740742Y-50993615D01*
X157715517Y-51018985D01*
X157114567Y-51469700D01*
X157049125Y-51494176D01*
X157040167Y-51494500D01*
X139190597Y-51494500D01*
X139123558Y-51474815D01*
X139121814Y-51473674D01*
X138810717Y-51266276D01*
X138765856Y-51212711D01*
X138755500Y-51163102D01*
X138755500Y-44424360D01*
X138773171Y-44360563D01*
X139431012Y-43264161D01*
X139440670Y-43247341D01*
X139445250Y-43238998D01*
X139454262Y-43221807D01*
X139498194Y-43133943D01*
X139530893Y-43068546D01*
X139578480Y-43017387D01*
X139641802Y-43000000D01*
X161750000Y-43000000D01*
X161750000Y-39029500D01*
X161769685Y-38962461D01*
X161822489Y-38916706D01*
X161874000Y-38905500D01*
X164876000Y-38905500D01*
X164943039Y-38925185D01*
G37*
%TD.AperFunction*%
%TD*%
%TA.AperFunction,Conductor*%
%TO.N,Net-(L2-Pad2)*%
G36*
X153638602Y-26252272D02*
G01*
X153646568Y-26250999D01*
X153671641Y-26261974D01*
X153697901Y-26269685D01*
X153703183Y-26275780D01*
X153710574Y-26279016D01*
X153734105Y-26305321D01*
X153743753Y-26319824D01*
X153746808Y-26329431D01*
X153822422Y-26451840D01*
X153867227Y-26505453D01*
X153867229Y-26505456D01*
X153867247Y-26505472D01*
X153867249Y-26505475D01*
X153921682Y-26554368D01*
X153974268Y-26601603D01*
X154104058Y-26663700D01*
X154170735Y-26684578D01*
X154170734Y-26684578D01*
X154312753Y-26707592D01*
X154312760Y-26707593D01*
X154535395Y-26711568D01*
X156806521Y-26752124D01*
X156873090Y-26772930D01*
X156978916Y-26843480D01*
X157189284Y-26983725D01*
X157234144Y-27037289D01*
X157244500Y-27086898D01*
X157244500Y-31907466D01*
X157235061Y-31954920D01*
X157230262Y-31966505D01*
X157230261Y-31966505D01*
X157199500Y-32121153D01*
X157199500Y-32278846D01*
X157230261Y-32433489D01*
X157230263Y-32433497D01*
X157235061Y-32445080D01*
X157244500Y-32492533D01*
X157244500Y-32907466D01*
X157235061Y-32954920D01*
X157230262Y-32966505D01*
X157230261Y-32966505D01*
X157199500Y-33121153D01*
X157199500Y-33278846D01*
X157230261Y-33433489D01*
X157230263Y-33433497D01*
X157235061Y-33445080D01*
X157244500Y-33492533D01*
X157244500Y-38276000D01*
X157244501Y-38276009D01*
X157256052Y-38383450D01*
X157256054Y-38383462D01*
X157267260Y-38434972D01*
X157301383Y-38537497D01*
X157301386Y-38537503D01*
X157379171Y-38658537D01*
X157379179Y-38658548D01*
X157424923Y-38711340D01*
X157424926Y-38711343D01*
X157424930Y-38711347D01*
X157533664Y-38805567D01*
X157533667Y-38805568D01*
X157533668Y-38805569D01*
X157664542Y-38865339D01*
X157668685Y-38866884D01*
X157667969Y-38868803D01*
X157719702Y-38902040D01*
X157748735Y-38965592D01*
X157750000Y-38983256D01*
X157750000Y-42376000D01*
X157730315Y-42443039D01*
X157677511Y-42488794D01*
X157626000Y-42500000D01*
X155500000Y-42500000D01*
X150622047Y-42500000D01*
X150555008Y-42480315D01*
X150509253Y-42427511D01*
X150498063Y-42377968D01*
X150443898Y-38965592D01*
X150251073Y-26817623D01*
X150269691Y-26750282D01*
X150306271Y-26712485D01*
X150968761Y-26270826D01*
X151035461Y-26250018D01*
X151037544Y-26250000D01*
X153630862Y-26250000D01*
X153638602Y-26252272D01*
G37*
%TD.AperFunction*%
%TD*%
%TA.AperFunction,Conductor*%
%TO.N,GND*%
G36*
X114048172Y-40448789D02*
G01*
X114087029Y-40506857D01*
X114087795Y-40509394D01*
X114098254Y-40545394D01*
X114098255Y-40545396D01*
X114098256Y-40545398D01*
X114135681Y-40608681D01*
X114181917Y-40686862D01*
X114181923Y-40686870D01*
X114298129Y-40803076D01*
X114298133Y-40803079D01*
X114298135Y-40803081D01*
X114439602Y-40886744D01*
X114478300Y-40897987D01*
X114597426Y-40932597D01*
X114597429Y-40932597D01*
X114597431Y-40932598D01*
X114634306Y-40935500D01*
X114634314Y-40935500D01*
X116415686Y-40935500D01*
X116415694Y-40935500D01*
X116452569Y-40932598D01*
X116452571Y-40932597D01*
X116452573Y-40932597D01*
X116494191Y-40920505D01*
X116610398Y-40886744D01*
X116751865Y-40803081D01*
X116794040Y-40760906D01*
X116837819Y-40717128D01*
X116899142Y-40683643D01*
X116968834Y-40688627D01*
X117024767Y-40730499D01*
X117049184Y-40795963D01*
X117049500Y-40804809D01*
X117049500Y-43473918D01*
X117049500Y-43473920D01*
X117049499Y-43473920D01*
X117078340Y-43618907D01*
X117078343Y-43618917D01*
X117134913Y-43755490D01*
X117134914Y-43755491D01*
X117134916Y-43755495D01*
X117150182Y-43778342D01*
X117179103Y-43821627D01*
X117190023Y-43856503D01*
X117199980Y-43888301D01*
X117200000Y-43890515D01*
X117200000Y-46400000D01*
X112800000Y-46400000D01*
X112799999Y-46399999D01*
X112636319Y-46563681D01*
X112574996Y-46597166D01*
X112548638Y-46600000D01*
X110831765Y-46600000D01*
X110764726Y-46580315D01*
X110718971Y-46527511D01*
X110717791Y-46524846D01*
X110714585Y-46517364D01*
X110609817Y-46272908D01*
X110599796Y-46225077D01*
X110556216Y-40886490D01*
X110575352Y-40819297D01*
X110627780Y-40773113D01*
X110696856Y-40762605D01*
X110719208Y-40767775D01*
X110862247Y-40815174D01*
X110963323Y-40825500D01*
X111499500Y-40825499D01*
X111566539Y-40845183D01*
X111612294Y-40897987D01*
X111623500Y-40949499D01*
X111623500Y-42799144D01*
X111603815Y-42866183D01*
X111602603Y-42868033D01*
X111584921Y-42894496D01*
X111584914Y-42894508D01*
X111528342Y-43031086D01*
X111528340Y-43031092D01*
X111499500Y-43176079D01*
X111499500Y-43176082D01*
X111499500Y-43323918D01*
X111499500Y-43323920D01*
X111499499Y-43323920D01*
X111528340Y-43468907D01*
X111528343Y-43468917D01*
X111584912Y-43605488D01*
X111584919Y-43605501D01*
X111667048Y-43728415D01*
X111667051Y-43728419D01*
X111771580Y-43832948D01*
X111771584Y-43832951D01*
X111894498Y-43915080D01*
X111894511Y-43915087D01*
X111972047Y-43947203D01*
X112031087Y-43971658D01*
X112031091Y-43971658D01*
X112031092Y-43971659D01*
X112176079Y-44000500D01*
X112176082Y-44000500D01*
X112323920Y-44000500D01*
X112421462Y-43981096D01*
X112468913Y-43971658D01*
X112574547Y-43927902D01*
X112605488Y-43915087D01*
X112605488Y-43915086D01*
X112605495Y-43915084D01*
X112728416Y-43832951D01*
X112832951Y-43728416D01*
X112915084Y-43605495D01*
X112971658Y-43468913D01*
X112989508Y-43379179D01*
X113000500Y-43323920D01*
X113000500Y-43176079D01*
X112971659Y-43031092D01*
X112971658Y-43031091D01*
X112971658Y-43031087D01*
X112923573Y-42914999D01*
X112915087Y-42894511D01*
X112915077Y-42894493D01*
X112845398Y-42790210D01*
X112824520Y-42723533D01*
X112824500Y-42721320D01*
X112824500Y-40949499D01*
X112844185Y-40882460D01*
X112896989Y-40836705D01*
X112948500Y-40825499D01*
X113286670Y-40825499D01*
X113286676Y-40825499D01*
X113387753Y-40815174D01*
X113551516Y-40760908D01*
X113698350Y-40670340D01*
X113820340Y-40548350D01*
X113863181Y-40478892D01*
X113915127Y-40432169D01*
X113984090Y-40420946D01*
X114048172Y-40448789D01*
G37*
%TD.AperFunction*%
%TA.AperFunction,Conductor*%
G36*
X165442539Y-21520185D02*
G01*
X165488294Y-21572989D01*
X165499500Y-21624500D01*
X165499500Y-38276000D01*
X165479815Y-38343039D01*
X165427011Y-38388794D01*
X165375500Y-38400000D01*
X157874000Y-38400000D01*
X157806961Y-38380315D01*
X157761206Y-38327511D01*
X157750000Y-38276000D01*
X157750000Y-26750000D01*
X156999998Y-26249999D01*
X154321786Y-26202174D01*
X154255109Y-26181296D01*
X154210304Y-26127683D01*
X154200000Y-26078194D01*
X154200000Y-24800000D01*
X136200000Y-24800000D01*
X136200000Y-26676000D01*
X136180315Y-26743039D01*
X136127511Y-26788794D01*
X136076000Y-26800000D01*
X134174500Y-26800000D01*
X134107461Y-26780315D01*
X134061706Y-26727511D01*
X134050500Y-26676000D01*
X134050499Y-25299998D01*
X134050498Y-25299981D01*
X134039999Y-25197203D01*
X134039998Y-25197200D01*
X134031011Y-25170079D01*
X133984814Y-25030666D01*
X133892712Y-24881344D01*
X133768656Y-24757288D01*
X133619334Y-24665186D01*
X133452797Y-24610001D01*
X133452795Y-24610000D01*
X133350010Y-24599500D01*
X132599998Y-24599500D01*
X132599980Y-24599501D01*
X132497203Y-24610000D01*
X132497200Y-24610001D01*
X132330668Y-24665185D01*
X132330663Y-24665187D01*
X132181342Y-24757289D01*
X132057289Y-24881342D01*
X131965187Y-25030663D01*
X131965185Y-25030668D01*
X131939217Y-25109034D01*
X131910001Y-25197203D01*
X131910001Y-25197204D01*
X131910000Y-25197204D01*
X131899500Y-25299983D01*
X131899500Y-25305342D01*
X131890062Y-25352793D01*
X131878341Y-25381090D01*
X131878340Y-25381093D01*
X131849500Y-25526079D01*
X131849500Y-25526082D01*
X131849500Y-25673918D01*
X131849500Y-25673920D01*
X131849499Y-25673920D01*
X131878340Y-25818906D01*
X131878342Y-25818914D01*
X131890061Y-25847205D01*
X131891687Y-25855381D01*
X131894477Y-25859722D01*
X131899500Y-25894657D01*
X131899500Y-25905339D01*
X131890062Y-25952789D01*
X131878343Y-25981082D01*
X131878341Y-25981088D01*
X131849500Y-26126079D01*
X131849500Y-26126082D01*
X131849500Y-26273918D01*
X131849500Y-26273920D01*
X131849499Y-26273920D01*
X131878341Y-26418911D01*
X131878343Y-26418918D01*
X131890061Y-26447208D01*
X131899500Y-26494659D01*
X131899500Y-26700000D01*
X131899501Y-26700019D01*
X131910000Y-26802796D01*
X131910001Y-26802799D01*
X131947243Y-26915186D01*
X131965186Y-26969334D01*
X132057288Y-27118656D01*
X132181344Y-27242712D01*
X132330666Y-27334814D01*
X132497203Y-27389999D01*
X132599991Y-27400500D01*
X133350008Y-27400499D01*
X133350016Y-27400498D01*
X133350019Y-27400498D01*
X133406302Y-27394748D01*
X133452797Y-27389999D01*
X133619334Y-27334814D01*
X133768656Y-27242712D01*
X133892712Y-27118656D01*
X133970461Y-26992603D01*
X134022409Y-26945879D01*
X134091371Y-26934656D01*
X134155454Y-26962500D01*
X134194310Y-27020568D01*
X134200000Y-27057700D01*
X134200000Y-28072079D01*
X134180315Y-28139118D01*
X134127511Y-28184873D01*
X134058353Y-28194817D01*
X133994797Y-28165792D01*
X133988319Y-28159760D01*
X133915203Y-28086644D01*
X133792285Y-28004513D01*
X133792280Y-28004511D01*
X133791942Y-28004371D01*
X133774305Y-27995352D01*
X133644340Y-27915189D01*
X133644335Y-27915187D01*
X133644334Y-27915186D01*
X133477797Y-27860001D01*
X133477795Y-27860000D01*
X133375010Y-27849500D01*
X132624998Y-27849500D01*
X132624980Y-27849501D01*
X132522203Y-27860000D01*
X132522200Y-27860001D01*
X132355668Y-27915185D01*
X132355663Y-27915187D01*
X132206342Y-28007289D01*
X132082289Y-28131342D01*
X131990187Y-28280663D01*
X131990185Y-28280668D01*
X131967377Y-28349500D01*
X131935001Y-28447203D01*
X131935001Y-28447204D01*
X131935000Y-28447204D01*
X131924500Y-28549983D01*
X131924500Y-29044986D01*
X131915061Y-29092438D01*
X131878342Y-29181085D01*
X131878340Y-29181093D01*
X131849500Y-29326079D01*
X131849500Y-29326082D01*
X131849500Y-29473918D01*
X131849500Y-29473920D01*
X131849499Y-29473920D01*
X131878340Y-29618906D01*
X131878342Y-29618914D01*
X131915061Y-29707562D01*
X131924500Y-29755013D01*
X131924500Y-29950000D01*
X131924501Y-29950019D01*
X131935000Y-30052796D01*
X131935001Y-30052799D01*
X131969626Y-30157288D01*
X131990186Y-30219334D01*
X132082288Y-30368656D01*
X132206344Y-30492712D01*
X132209991Y-30494962D01*
X132211967Y-30497158D01*
X132212011Y-30497193D01*
X132212005Y-30497200D01*
X132256715Y-30546909D01*
X132267938Y-30615872D01*
X132240094Y-30679954D01*
X132182025Y-30718810D01*
X132144894Y-30724500D01*
X131064207Y-30724500D01*
X130997168Y-30704815D01*
X130951413Y-30652011D01*
X130946574Y-30639723D01*
X130800000Y-30200000D01*
X127712730Y-30200000D01*
X127645691Y-30180315D01*
X127625049Y-30163681D01*
X127618657Y-30157289D01*
X127618656Y-30157288D01*
X127469334Y-30065186D01*
X127302797Y-30010001D01*
X127302795Y-30010000D01*
X127200010Y-29999500D01*
X125799998Y-29999500D01*
X125799981Y-29999501D01*
X125697203Y-30010000D01*
X125697200Y-30010001D01*
X125530668Y-30065185D01*
X125530663Y-30065187D01*
X125381342Y-30157289D01*
X125374951Y-30163681D01*
X125313628Y-30197166D01*
X125287270Y-30200000D01*
X124400000Y-30200000D01*
X124400000Y-31348638D01*
X124380315Y-31415677D01*
X124363681Y-31436319D01*
X123436319Y-32363681D01*
X123374996Y-32397166D01*
X123348638Y-32400000D01*
X117200000Y-32400000D01*
X117200000Y-32975500D01*
X117180315Y-33042539D01*
X117127511Y-33088294D01*
X117076000Y-33099500D01*
X115449998Y-33099500D01*
X115449981Y-33099501D01*
X115347203Y-33110000D01*
X115347200Y-33110001D01*
X115180668Y-33165185D01*
X115180663Y-33165187D01*
X115031342Y-33257289D01*
X114907289Y-33381342D01*
X114815187Y-33530663D01*
X114815186Y-33530666D01*
X114760001Y-33697203D01*
X114760001Y-33697204D01*
X114760000Y-33697204D01*
X114749500Y-33799983D01*
X114749500Y-35200001D01*
X114749501Y-35200018D01*
X114760000Y-35302789D01*
X114760001Y-35302797D01*
X114766227Y-35321585D01*
X114770979Y-35335927D01*
X114774636Y-35394973D01*
X114775097Y-35395019D01*
X114774815Y-35397874D01*
X114774892Y-35399105D01*
X114774500Y-35401072D01*
X114774500Y-36451270D01*
X114754815Y-36518309D01*
X114702011Y-36564064D01*
X114632853Y-36574008D01*
X114569297Y-36544983D01*
X114562819Y-36538951D01*
X114261818Y-36237950D01*
X114228333Y-36176627D01*
X114225499Y-36150269D01*
X114225499Y-35649998D01*
X114225498Y-35649981D01*
X114214999Y-35547203D01*
X114214998Y-35547200D01*
X114193768Y-35483133D01*
X114159814Y-35380666D01*
X114067712Y-35231344D01*
X113943656Y-35107288D01*
X113794334Y-35015186D01*
X113627797Y-34960001D01*
X113627795Y-34960000D01*
X113525010Y-34949500D01*
X112474998Y-34949500D01*
X112474980Y-34949501D01*
X112372203Y-34960000D01*
X112372200Y-34960001D01*
X112205668Y-35015185D01*
X112205663Y-35015187D01*
X112056342Y-35107289D01*
X111932289Y-35231342D01*
X111840187Y-35380663D01*
X111840186Y-35380666D01*
X111785001Y-35547203D01*
X111785001Y-35547204D01*
X111785000Y-35547204D01*
X111774500Y-35649983D01*
X111774500Y-36425001D01*
X111774501Y-36425019D01*
X111785000Y-36527796D01*
X111785001Y-36527799D01*
X111840185Y-36694331D01*
X111840187Y-36694336D01*
X111874911Y-36750632D01*
X111932288Y-36843656D01*
X112056344Y-36967712D01*
X112205666Y-37059814D01*
X112372203Y-37114999D01*
X112474991Y-37125500D01*
X112975269Y-37125499D01*
X113042308Y-37145183D01*
X113062950Y-37161818D01*
X113953952Y-38052819D01*
X113987437Y-38114142D01*
X113982453Y-38183833D01*
X113940581Y-38239767D01*
X113875117Y-38264184D01*
X113866271Y-38264500D01*
X112597641Y-38264500D01*
X112530602Y-38244815D01*
X112484847Y-38192011D01*
X112483080Y-38187952D01*
X112478938Y-38177952D01*
X112465084Y-38144505D01*
X112382951Y-38021584D01*
X112382948Y-38021580D01*
X112278419Y-37917051D01*
X112278415Y-37917048D01*
X112155501Y-37834919D01*
X112155488Y-37834912D01*
X112018917Y-37778343D01*
X112018907Y-37778340D01*
X111873920Y-37749500D01*
X111873918Y-37749500D01*
X111726082Y-37749500D01*
X111726080Y-37749500D01*
X111581092Y-37778340D01*
X111581082Y-37778343D01*
X111444511Y-37834912D01*
X111444498Y-37834919D01*
X111321584Y-37917048D01*
X111321580Y-37917051D01*
X111217051Y-38021580D01*
X111217048Y-38021584D01*
X111134919Y-38144498D01*
X111134912Y-38144511D01*
X111078342Y-38281084D01*
X111078340Y-38281092D01*
X111063000Y-38358210D01*
X111054234Y-38374966D01*
X111050215Y-38393445D01*
X111031470Y-38418485D01*
X111030615Y-38420121D01*
X111029065Y-38421699D01*
X110881286Y-38569478D01*
X110881285Y-38569478D01*
X110881284Y-38569479D01*
X110769481Y-38681282D01*
X110769475Y-38681290D01*
X110769102Y-38681937D01*
X110768644Y-38682373D01*
X110764530Y-38687735D01*
X110763693Y-38687093D01*
X110718534Y-38730151D01*
X110649926Y-38743372D01*
X110585062Y-38717402D01*
X110544536Y-38660487D01*
X110537722Y-38620952D01*
X110500004Y-34000490D01*
X110500000Y-33999478D01*
X110500000Y-31512730D01*
X110519685Y-31445691D01*
X110536319Y-31425049D01*
X110545691Y-31415677D01*
X110592712Y-31368656D01*
X110684814Y-31219334D01*
X110739999Y-31052797D01*
X110750500Y-30950009D01*
X110750499Y-30831227D01*
X110766102Y-30771015D01*
X111750000Y-29000000D01*
X111750000Y-25109034D01*
X111756958Y-25068079D01*
X111770049Y-25030668D01*
X111810316Y-24915591D01*
X111870312Y-24652732D01*
X111900500Y-24384809D01*
X111900500Y-24115191D01*
X111870312Y-23847268D01*
X111810316Y-23584409D01*
X111756958Y-23431919D01*
X111750000Y-23390965D01*
X111750000Y-21624500D01*
X111769685Y-21557461D01*
X111822489Y-21511706D01*
X111874000Y-21500500D01*
X165375500Y-21500500D01*
X165442539Y-21520185D01*
G37*
%TD.AperFunction*%
%TD*%
%TA.AperFunction,Conductor*%
%TO.N,+48V*%
G36*
X111187539Y-21520185D02*
G01*
X111233294Y-21572989D01*
X111244500Y-21624500D01*
X111244500Y-23390982D01*
X111251640Y-23475632D01*
X111258599Y-23516590D01*
X111279825Y-23598878D01*
X111279829Y-23598890D01*
X111321507Y-23718003D01*
X111325356Y-23731363D01*
X111369620Y-23925293D01*
X111371949Y-23939002D01*
X111394220Y-24136652D01*
X111395000Y-24150536D01*
X111395000Y-24349462D01*
X111394220Y-24363346D01*
X111371949Y-24560996D01*
X111369620Y-24574705D01*
X111325355Y-24768640D01*
X111321506Y-24782000D01*
X111279825Y-24901123D01*
X111258598Y-24983410D01*
X111251641Y-25024361D01*
X111251640Y-25024374D01*
X111244500Y-25109016D01*
X111244500Y-28836880D01*
X111228895Y-28897100D01*
X110324218Y-30525517D01*
X110324215Y-30525523D01*
X110276765Y-30644207D01*
X110276764Y-30644211D01*
X110261161Y-30704423D01*
X110244999Y-30831231D01*
X110244999Y-30917934D01*
X110244356Y-30930549D01*
X110244121Y-30932847D01*
X110238470Y-30959236D01*
X110228113Y-30990491D01*
X110215947Y-31016582D01*
X110201096Y-31040660D01*
X110183245Y-31063238D01*
X110178895Y-31067587D01*
X110178854Y-31067631D01*
X110142728Y-31107848D01*
X110142718Y-31107860D01*
X110126076Y-31128511D01*
X110094433Y-31172393D01*
X110034663Y-31303267D01*
X110021341Y-31348638D01*
X110014977Y-31370310D01*
X110014976Y-31370314D01*
X109997617Y-31491054D01*
X109994500Y-31512731D01*
X109994500Y-33999602D01*
X109994503Y-34001597D01*
X109994507Y-34002333D01*
X109994522Y-34004722D01*
X109998840Y-34533860D01*
X109979703Y-34601058D01*
X109962525Y-34622553D01*
X109410830Y-35174249D01*
X109362221Y-35222858D01*
X109362218Y-35222861D01*
X109292538Y-35292540D01*
X109222859Y-35362219D01*
X109113371Y-35526079D01*
X109113364Y-35526092D01*
X109037950Y-35708160D01*
X109037947Y-35708170D01*
X108999500Y-35901456D01*
X108999500Y-40511044D01*
X109037946Y-40704328D01*
X109037948Y-40704332D01*
X109037949Y-40704336D01*
X109039750Y-40708684D01*
X109040416Y-40710292D01*
X109113366Y-40886411D01*
X109113371Y-40886420D01*
X109222860Y-41050281D01*
X109222863Y-41050285D01*
X109366537Y-41193959D01*
X109366559Y-41193979D01*
X110022959Y-41850379D01*
X110056444Y-41911702D01*
X110059274Y-41937048D01*
X110094312Y-46229206D01*
X110105037Y-46328728D01*
X110115059Y-46376564D01*
X110145190Y-46472036D01*
X110253178Y-46724006D01*
X110255530Y-46729406D01*
X110255574Y-46729505D01*
X110256754Y-46732170D01*
X110256794Y-46732261D01*
X110256802Y-46732277D01*
X110259149Y-46737498D01*
X110259156Y-46737512D01*
X110336935Y-46858537D01*
X110336944Y-46858548D01*
X110382688Y-46911340D01*
X110382691Y-46911343D01*
X110382695Y-46911347D01*
X110491429Y-47005567D01*
X110491432Y-47005568D01*
X110491433Y-47005569D01*
X110568646Y-47040832D01*
X110622306Y-47065338D01*
X110689345Y-47085023D01*
X110689349Y-47085024D01*
X110831765Y-47105500D01*
X110831768Y-47105500D01*
X112548638Y-47105500D01*
X112593192Y-47103111D01*
X112611619Y-47107465D01*
X112630549Y-47106798D01*
X112644922Y-47115334D01*
X112661188Y-47119178D01*
X112674337Y-47132805D01*
X112690622Y-47142477D01*
X112708396Y-47168101D01*
X112709704Y-47169456D01*
X112710739Y-47171478D01*
X112736909Y-47223818D01*
X112750000Y-47279272D01*
X112750000Y-49608691D01*
X112730315Y-49675730D01*
X112713681Y-49696372D01*
X112711923Y-49698129D01*
X112711917Y-49698137D01*
X112628255Y-49839603D01*
X112628254Y-49839606D01*
X112582402Y-49997426D01*
X112582401Y-49997432D01*
X112579500Y-50034298D01*
X112579500Y-51465701D01*
X112582401Y-51502567D01*
X112582402Y-51502570D01*
X112592087Y-51535904D01*
X112591888Y-51605773D01*
X112553947Y-51664444D01*
X112490309Y-51693288D01*
X112473011Y-51694500D01*
X110476989Y-51694500D01*
X110409950Y-51674815D01*
X110364195Y-51622011D01*
X110354251Y-51552853D01*
X110357913Y-51535904D01*
X110367598Y-51502569D01*
X110370500Y-51465694D01*
X110370500Y-50034306D01*
X110367598Y-49997431D01*
X110321744Y-49839602D01*
X110311886Y-49822933D01*
X110267268Y-49747486D01*
X110250000Y-49684366D01*
X110250000Y-49500000D01*
X109500000Y-49250000D01*
X109051362Y-49250000D01*
X109021921Y-49241355D01*
X108991935Y-49234832D01*
X108986919Y-49231077D01*
X108984323Y-49230315D01*
X108963681Y-49213681D01*
X108803710Y-49053710D01*
X108770225Y-48992387D01*
X108773685Y-48927026D01*
X108789999Y-48877797D01*
X108800500Y-48775009D01*
X108800499Y-47724992D01*
X108789999Y-47622203D01*
X108756294Y-47520487D01*
X108750000Y-47481483D01*
X108750000Y-47250000D01*
X108749999Y-47249999D01*
X107061754Y-46285288D01*
X107013314Y-46234936D01*
X106999281Y-46178880D01*
X106751270Y-21625751D01*
X106770277Y-21558518D01*
X106822616Y-21512232D01*
X106875264Y-21500500D01*
X111120500Y-21500500D01*
X111187539Y-21520185D01*
G37*
%TD.AperFunction*%
%TD*%
%TA.AperFunction,Conductor*%
%TO.N,GND*%
G36*
X118092539Y-46419685D02*
G01*
X118138294Y-46472489D01*
X118149500Y-46524000D01*
X118149500Y-49625500D01*
X118129815Y-49692539D01*
X118077011Y-49738294D01*
X118025500Y-49749500D01*
X115252129Y-49749500D01*
X115252123Y-49749501D01*
X115192516Y-49755908D01*
X115057671Y-49806202D01*
X115057664Y-49806206D01*
X114942455Y-49892452D01*
X114942452Y-49892455D01*
X114856206Y-50007664D01*
X114856202Y-50007671D01*
X114805908Y-50142517D01*
X114799501Y-50202116D01*
X114799501Y-50202123D01*
X114799500Y-50202135D01*
X114799500Y-53517769D01*
X114779815Y-53584808D01*
X114763181Y-53605450D01*
X113655450Y-54713181D01*
X113594127Y-54746666D01*
X113567769Y-54749500D01*
X113164298Y-54749500D01*
X113127432Y-54752401D01*
X113127426Y-54752402D01*
X112969606Y-54798254D01*
X112969603Y-54798255D01*
X112828137Y-54881917D01*
X112821969Y-54886702D01*
X112820072Y-54884256D01*
X112771358Y-54910857D01*
X112701666Y-54905873D01*
X112669296Y-54885069D01*
X112668031Y-54886702D01*
X112661862Y-54881917D01*
X112520396Y-54798255D01*
X112520393Y-54798254D01*
X112362573Y-54752402D01*
X112362567Y-54752401D01*
X112325701Y-54749500D01*
X112325694Y-54749500D01*
X111894306Y-54749500D01*
X111894298Y-54749500D01*
X111857432Y-54752401D01*
X111857426Y-54752402D01*
X111699606Y-54798254D01*
X111699603Y-54798255D01*
X111558137Y-54881917D01*
X111551969Y-54886702D01*
X111550072Y-54884256D01*
X111501358Y-54910857D01*
X111431666Y-54905873D01*
X111399296Y-54885069D01*
X111398031Y-54886702D01*
X111391862Y-54881917D01*
X111250396Y-54798255D01*
X111250393Y-54798254D01*
X111092573Y-54752402D01*
X111092567Y-54752401D01*
X111055701Y-54749500D01*
X111055694Y-54749500D01*
X110624306Y-54749500D01*
X110624298Y-54749500D01*
X110587432Y-54752401D01*
X110587426Y-54752402D01*
X110429606Y-54798254D01*
X110429603Y-54798255D01*
X110288137Y-54881917D01*
X110281969Y-54886702D01*
X110280072Y-54884256D01*
X110231358Y-54910857D01*
X110161666Y-54905873D01*
X110129296Y-54885069D01*
X110128031Y-54886702D01*
X110121862Y-54881917D01*
X109980396Y-54798255D01*
X109980393Y-54798254D01*
X109822573Y-54752402D01*
X109822567Y-54752401D01*
X109785701Y-54749500D01*
X109785694Y-54749500D01*
X109354306Y-54749500D01*
X109354298Y-54749500D01*
X109317432Y-54752401D01*
X109317426Y-54752402D01*
X109159606Y-54798254D01*
X109159603Y-54798255D01*
X109018137Y-54881917D01*
X109018129Y-54881923D01*
X108901923Y-54998129D01*
X108901917Y-54998137D01*
X108818255Y-55139603D01*
X108818254Y-55139606D01*
X108772402Y-55297426D01*
X108772401Y-55297432D01*
X108769500Y-55334298D01*
X108769500Y-56765701D01*
X108772401Y-56802567D01*
X108772402Y-56802573D01*
X108818254Y-56960393D01*
X108818255Y-56960396D01*
X108818256Y-56960398D01*
X108824807Y-56971475D01*
X108901917Y-57101862D01*
X108901923Y-57101870D01*
X108933180Y-57133126D01*
X108966666Y-57194448D01*
X108969500Y-57220808D01*
X108969500Y-57750830D01*
X108969499Y-57750848D01*
X108969499Y-57916554D01*
X108969498Y-57916554D01*
X109000141Y-58030914D01*
X109010423Y-58069285D01*
X109031203Y-58105276D01*
X109082888Y-58194799D01*
X109099500Y-58256796D01*
X109099500Y-58641669D01*
X109099501Y-58641687D01*
X109109825Y-58742752D01*
X109117698Y-58766510D01*
X109164092Y-58906516D01*
X109166529Y-58910467D01*
X109184968Y-58977860D01*
X109164044Y-59044523D01*
X109110401Y-59089292D01*
X109041070Y-59097952D01*
X109015605Y-59090108D01*
X109015552Y-59090269D01*
X109008698Y-59087998D01*
X109008697Y-59087997D01*
X108914766Y-59056871D01*
X108847709Y-59034651D01*
X108748346Y-59024500D01*
X108201662Y-59024500D01*
X108201644Y-59024501D01*
X108102292Y-59034650D01*
X108102289Y-59034651D01*
X107941305Y-59087996D01*
X107941294Y-59088001D01*
X107796959Y-59177029D01*
X107796955Y-59177032D01*
X107677032Y-59296955D01*
X107677029Y-59296959D01*
X107588001Y-59441294D01*
X107587996Y-59441305D01*
X107534651Y-59602290D01*
X107524500Y-59701647D01*
X107524500Y-60298337D01*
X107524501Y-60298355D01*
X107534650Y-60397707D01*
X107534651Y-60397710D01*
X107587996Y-60558694D01*
X107588001Y-60558705D01*
X107677029Y-60703040D01*
X107677032Y-60703044D01*
X107796956Y-60822968D01*
X107815596Y-60834465D01*
X107822419Y-60842051D01*
X107831703Y-60846291D01*
X107845390Y-60867589D01*
X107862321Y-60886412D01*
X107864965Y-60898048D01*
X107869477Y-60905069D01*
X107874500Y-60940004D01*
X107874500Y-61188330D01*
X107874499Y-61188348D01*
X107874499Y-61354054D01*
X107874498Y-61354054D01*
X107915423Y-61506785D01*
X107944358Y-61556900D01*
X107944359Y-61556904D01*
X107944360Y-61556904D01*
X107994479Y-61643714D01*
X107994481Y-61643717D01*
X108113349Y-61762585D01*
X108113355Y-61762590D01*
X108515139Y-62164374D01*
X108515149Y-62164385D01*
X108519479Y-62168715D01*
X108519480Y-62168716D01*
X108631284Y-62280520D01*
X108631286Y-62280521D01*
X108631290Y-62280524D01*
X108681610Y-62309576D01*
X108681615Y-62309578D01*
X108768209Y-62359574D01*
X108768210Y-62359574D01*
X108768215Y-62359577D01*
X108920943Y-62400500D01*
X109079057Y-62400500D01*
X119513331Y-62400500D01*
X119513347Y-62400501D01*
X119520943Y-62400501D01*
X119679054Y-62400501D01*
X119679057Y-62400501D01*
X119831785Y-62359577D01*
X119831786Y-62359575D01*
X119839635Y-62357473D01*
X119839820Y-62358165D01*
X119868002Y-62352560D01*
X119867858Y-62351097D01*
X119873920Y-62350500D01*
X119976604Y-62330074D01*
X120018913Y-62321658D01*
X120155495Y-62265084D01*
X120278416Y-62182951D01*
X120382951Y-62078416D01*
X120465084Y-61955495D01*
X120521658Y-61818913D01*
X120550500Y-61673918D01*
X120551097Y-61667858D01*
X120552697Y-61668015D01*
X120570185Y-61608461D01*
X120622989Y-61562706D01*
X120674500Y-61551500D01*
X121272920Y-61551500D01*
X121370462Y-61532096D01*
X121417913Y-61522658D01*
X121554495Y-61466084D01*
X121638048Y-61410256D01*
X121677416Y-61383952D01*
X122582952Y-60478416D01*
X122611880Y-60435122D01*
X122656246Y-60368723D01*
X122656250Y-60368716D01*
X122665084Y-60355495D01*
X122721658Y-60218913D01*
X122735140Y-60151136D01*
X122750500Y-60073920D01*
X122750500Y-58562229D01*
X122770185Y-58495190D01*
X122786819Y-58474548D01*
X123182952Y-58078415D01*
X123582952Y-57678415D01*
X123610205Y-57637627D01*
X123665084Y-57555495D01*
X123698124Y-57475729D01*
X123721659Y-57418912D01*
X123746928Y-57291873D01*
X123750500Y-57273918D01*
X123750500Y-56162229D01*
X123770185Y-56095190D01*
X123786819Y-56074548D01*
X124782948Y-55078419D01*
X124782951Y-55078416D01*
X124865084Y-54955495D01*
X124921658Y-54818913D01*
X124947737Y-54687807D01*
X124980122Y-54625897D01*
X125040837Y-54591323D01*
X125069346Y-54587999D01*
X126025008Y-54587999D01*
X126025016Y-54587998D01*
X126025019Y-54587998D01*
X126081302Y-54582248D01*
X126127797Y-54577499D01*
X126294334Y-54522314D01*
X126443656Y-54430212D01*
X126567712Y-54306156D01*
X126659814Y-54156834D01*
X126714999Y-53990297D01*
X126725500Y-53887509D01*
X126725499Y-53112492D01*
X126714999Y-53009703D01*
X126659814Y-52843166D01*
X126567712Y-52693844D01*
X126443656Y-52569788D01*
X126443655Y-52569787D01*
X126408333Y-52548001D01*
X126390154Y-52536787D01*
X126343430Y-52484842D01*
X126332207Y-52415879D01*
X126360050Y-52351797D01*
X126390153Y-52325712D01*
X126443656Y-52292712D01*
X126567712Y-52168656D01*
X126659814Y-52019334D01*
X126714999Y-51852797D01*
X126725500Y-51750009D01*
X126725499Y-50974992D01*
X126714999Y-50872203D01*
X126659814Y-50705666D01*
X126567712Y-50556344D01*
X126443656Y-50432288D01*
X126294334Y-50340186D01*
X126127797Y-50285001D01*
X126127795Y-50285000D01*
X126025010Y-50274500D01*
X124974998Y-50274500D01*
X124974980Y-50274501D01*
X124872203Y-50285000D01*
X124872200Y-50285001D01*
X124705668Y-50340185D01*
X124705663Y-50340187D01*
X124630159Y-50386759D01*
X124558368Y-50431039D01*
X124541810Y-50435735D01*
X124528208Y-50444477D01*
X124493273Y-50449500D01*
X124324499Y-50449500D01*
X124257460Y-50429815D01*
X124211705Y-50377011D01*
X124200499Y-50325500D01*
X124200499Y-50202129D01*
X124200498Y-50202123D01*
X124200497Y-50202116D01*
X124194091Y-50142517D01*
X124184861Y-50117771D01*
X124143797Y-50007671D01*
X124143793Y-50007664D01*
X124057547Y-49892455D01*
X124057544Y-49892452D01*
X123942335Y-49806206D01*
X123942328Y-49806202D01*
X123807482Y-49755908D01*
X123807483Y-49755908D01*
X123747883Y-49749501D01*
X123747881Y-49749500D01*
X123747873Y-49749500D01*
X123747864Y-49749500D01*
X120702129Y-49749500D01*
X120702123Y-49749501D01*
X120642516Y-49755908D01*
X120507671Y-49806202D01*
X120507664Y-49806206D01*
X120392455Y-49892452D01*
X120392452Y-49892455D01*
X120306206Y-50007664D01*
X120306202Y-50007671D01*
X120255908Y-50142517D01*
X120249501Y-50202116D01*
X120249501Y-50202123D01*
X120249500Y-50202135D01*
X120249500Y-52862769D01*
X120229815Y-52929808D01*
X120213181Y-52950450D01*
X119862181Y-53301450D01*
X119800858Y-53334935D01*
X119731166Y-53329951D01*
X119675233Y-53288079D01*
X119650816Y-53222615D01*
X119650500Y-53213769D01*
X119650500Y-46524000D01*
X119670185Y-46456961D01*
X119722989Y-46411206D01*
X119774500Y-46400000D01*
X122948638Y-46400000D01*
X123015677Y-46419685D01*
X123036319Y-46436319D01*
X123799998Y-47199999D01*
X123799999Y-47199999D01*
X123800000Y-47200000D01*
X125222383Y-47232326D01*
X125288956Y-47253529D01*
X125307245Y-47268613D01*
X125381344Y-47342712D01*
X125530666Y-47434814D01*
X125697203Y-47489999D01*
X125799991Y-47500500D01*
X127055063Y-47500499D01*
X127122102Y-47520184D01*
X127167857Y-47572987D01*
X127174040Y-47589563D01*
X127188117Y-47637503D01*
X127188119Y-47637507D01*
X127265901Y-47758537D01*
X127265909Y-47758548D01*
X127311653Y-47811340D01*
X127311656Y-47811343D01*
X127311660Y-47811347D01*
X127420394Y-47905567D01*
X127551271Y-47965338D01*
X127618310Y-47985023D01*
X127618314Y-47985024D01*
X127760730Y-48005500D01*
X131620500Y-48005500D01*
X131687539Y-48025185D01*
X131733294Y-48077989D01*
X131744500Y-48129500D01*
X131744500Y-49845733D01*
X131748175Y-49878486D01*
X131757066Y-49957739D01*
X131757068Y-49957754D01*
X131769241Y-50011322D01*
X131769242Y-50011328D01*
X131806316Y-50117773D01*
X131886320Y-50237346D01*
X131933048Y-50289302D01*
X131945313Y-50299539D01*
X131953536Y-50307054D01*
X132033242Y-50386759D01*
X132051101Y-50409346D01*
X132065947Y-50433416D01*
X132078112Y-50459506D01*
X132088469Y-50490760D01*
X132094121Y-50517150D01*
X132094356Y-50519448D01*
X132094999Y-50532063D01*
X132094999Y-51467933D01*
X132094356Y-51480542D01*
X132094121Y-51482841D01*
X132088470Y-51509236D01*
X132078113Y-51540491D01*
X132065946Y-51566583D01*
X132051096Y-51590659D01*
X132033238Y-51613244D01*
X131977195Y-51669287D01*
X131965977Y-51679224D01*
X131954787Y-51687988D01*
X131954784Y-51687990D01*
X131915567Y-51726489D01*
X131915560Y-51726497D01*
X131844433Y-51813928D01*
X131784663Y-51944802D01*
X131764976Y-52011847D01*
X131752292Y-52100067D01*
X131744582Y-52153699D01*
X131744500Y-52154266D01*
X131744500Y-52184054D01*
X131749645Y-52255996D01*
X131754667Y-52290930D01*
X131769997Y-52361393D01*
X131781653Y-52386919D01*
X131781652Y-52386919D01*
X131781909Y-52387480D01*
X131784052Y-52392172D01*
X131806324Y-52456110D01*
X131828133Y-52488704D01*
X131829764Y-52492274D01*
X131834274Y-52499292D01*
X131862052Y-52542518D01*
X131862060Y-52542527D01*
X131865578Y-52548001D01*
X131866693Y-52549855D01*
X131867558Y-52551083D01*
X131872664Y-52556975D01*
X131882013Y-52569225D01*
X131886339Y-52575690D01*
X131903271Y-52594515D01*
X131940854Y-52636300D01*
X131940842Y-52636309D01*
X131943913Y-52639192D01*
X131961782Y-52659812D01*
X131961783Y-52659813D01*
X131998024Y-52683101D01*
X132010444Y-52692220D01*
X132043529Y-52719833D01*
X132090662Y-52748905D01*
X132113247Y-52766763D01*
X132133238Y-52786754D01*
X132151096Y-52809339D01*
X132165946Y-52833415D01*
X132178112Y-52859506D01*
X132188469Y-52890760D01*
X132194121Y-52917150D01*
X132194356Y-52919448D01*
X132194999Y-52932063D01*
X132194999Y-53867933D01*
X132194356Y-53880542D01*
X132194121Y-53882841D01*
X132188470Y-53909236D01*
X132178113Y-53940491D01*
X132165946Y-53966583D01*
X132151096Y-53990659D01*
X132133238Y-54013244D01*
X132113243Y-54033239D01*
X132090659Y-54051096D01*
X132043535Y-54080162D01*
X132043533Y-54080163D01*
X131954781Y-54149674D01*
X131954779Y-54149676D01*
X131915571Y-54188165D01*
X131915563Y-54188174D01*
X131844434Y-54275607D01*
X131844432Y-54275611D01*
X131784663Y-54406483D01*
X131768309Y-54462180D01*
X131764977Y-54473526D01*
X131764976Y-54473530D01*
X131744500Y-54615946D01*
X131744500Y-55693731D01*
X131749472Y-55764455D01*
X131749473Y-55764468D01*
X131754325Y-55798810D01*
X131769149Y-55868164D01*
X131828284Y-55999323D01*
X131828289Y-55999332D01*
X131861556Y-56051649D01*
X131865778Y-56058289D01*
X131959471Y-56167477D01*
X132160268Y-56343174D01*
X132173717Y-56364324D01*
X132190470Y-56382975D01*
X132192143Y-56393304D01*
X132197757Y-56402132D01*
X132197636Y-56427198D01*
X132201646Y-56451945D01*
X132197470Y-56461538D01*
X132197420Y-56472001D01*
X132183766Y-56493022D01*
X132173761Y-56516009D01*
X132161939Y-56526627D01*
X132159362Y-56530596D01*
X132147504Y-56539594D01*
X132089125Y-56578602D01*
X132022448Y-56599480D01*
X132020234Y-56599500D01*
X130779766Y-56599500D01*
X130712727Y-56579815D01*
X130710875Y-56578602D01*
X130579185Y-56490609D01*
X130579172Y-56490602D01*
X130433501Y-56430264D01*
X130433489Y-56430261D01*
X130278845Y-56399500D01*
X130278842Y-56399500D01*
X130121158Y-56399500D01*
X130121155Y-56399500D01*
X129966510Y-56430261D01*
X129966498Y-56430264D01*
X129820827Y-56490602D01*
X129820814Y-56490609D01*
X129689711Y-56578210D01*
X129689707Y-56578213D01*
X129578213Y-56689707D01*
X129578210Y-56689711D01*
X129490609Y-56820814D01*
X129490602Y-56820827D01*
X129427932Y-56972130D01*
X129426351Y-56971475D01*
X129392512Y-57023086D01*
X129328694Y-57051528D01*
X129264718Y-57043195D01*
X129233497Y-57030263D01*
X129233489Y-57030261D01*
X129078845Y-56999500D01*
X129078842Y-56999500D01*
X128921158Y-56999500D01*
X128921155Y-56999500D01*
X128766510Y-57030261D01*
X128766498Y-57030264D01*
X128620827Y-57090602D01*
X128620814Y-57090609D01*
X128489711Y-57178210D01*
X128489707Y-57178213D01*
X128378213Y-57289707D01*
X128378210Y-57289711D01*
X128290609Y-57420814D01*
X128290602Y-57420827D01*
X128230264Y-57566498D01*
X128230261Y-57566510D01*
X128199500Y-57721153D01*
X128199500Y-57878846D01*
X128230261Y-58033489D01*
X128230264Y-58033501D01*
X128290602Y-58179172D01*
X128290609Y-58179185D01*
X128378210Y-58310288D01*
X128378213Y-58310292D01*
X128489707Y-58421786D01*
X128489711Y-58421789D01*
X128620814Y-58509390D01*
X128620827Y-58509397D01*
X128748377Y-58562229D01*
X128766503Y-58569737D01*
X128904990Y-58597284D01*
X128921153Y-58600499D01*
X128921156Y-58600500D01*
X128921158Y-58600500D01*
X129078843Y-58600500D01*
X129095010Y-58597284D01*
X129126308Y-58591058D01*
X129195898Y-58597284D01*
X129251076Y-58640147D01*
X129274322Y-58706036D01*
X129274500Y-58712675D01*
X129274500Y-59298337D01*
X129274501Y-59298355D01*
X129284650Y-59397707D01*
X129284651Y-59397710D01*
X129337996Y-59558694D01*
X129338001Y-59558705D01*
X129427029Y-59703040D01*
X129427032Y-59703044D01*
X129546956Y-59822968D01*
X129565596Y-59834465D01*
X129612321Y-59886412D01*
X129624500Y-59940004D01*
X129624500Y-60513377D01*
X129606617Y-60577527D01*
X129556522Y-60660393D01*
X129505913Y-60822807D01*
X129499500Y-60893386D01*
X129499500Y-62606613D01*
X129504740Y-62664278D01*
X129501902Y-62678647D01*
X129503987Y-62693147D01*
X129495268Y-62712237D01*
X129491203Y-62732824D01*
X129481047Y-62743377D01*
X129474962Y-62756703D01*
X129457307Y-62768048D01*
X129442757Y-62783170D01*
X129427457Y-62787231D01*
X129416184Y-62794477D01*
X129381249Y-62799500D01*
X129379766Y-62799500D01*
X129312727Y-62779815D01*
X129310875Y-62778602D01*
X129179185Y-62690609D01*
X129179172Y-62690602D01*
X129033501Y-62630264D01*
X129033489Y-62630261D01*
X128878845Y-62599500D01*
X128878842Y-62599500D01*
X128721158Y-62599500D01*
X128721155Y-62599500D01*
X128566510Y-62630261D01*
X128566498Y-62630264D01*
X128420827Y-62690602D01*
X128420814Y-62690609D01*
X128289711Y-62778210D01*
X128289707Y-62778213D01*
X128178213Y-62889707D01*
X128178210Y-62889711D01*
X128090609Y-63020814D01*
X128090602Y-63020827D01*
X128030264Y-63166498D01*
X128030261Y-63166510D01*
X127999500Y-63321153D01*
X127999500Y-63478846D01*
X128030261Y-63633489D01*
X128030264Y-63633501D01*
X128090602Y-63779172D01*
X128090609Y-63779185D01*
X128178210Y-63910288D01*
X128178213Y-63910292D01*
X128289707Y-64021786D01*
X128289711Y-64021789D01*
X128420814Y-64109390D01*
X128420827Y-64109397D01*
X128566498Y-64169735D01*
X128566503Y-64169737D01*
X128721153Y-64200499D01*
X128721156Y-64200500D01*
X128721158Y-64200500D01*
X128878844Y-64200500D01*
X128878845Y-64200499D01*
X129033497Y-64169737D01*
X129179179Y-64109394D01*
X129179185Y-64109390D01*
X129310875Y-64021398D01*
X129377553Y-64000520D01*
X129379766Y-64000500D01*
X129913331Y-64000500D01*
X129913347Y-64000501D01*
X129920943Y-64000501D01*
X130079054Y-64000501D01*
X130079057Y-64000501D01*
X130231785Y-63959577D01*
X130298404Y-63921114D01*
X130368716Y-63880520D01*
X130480520Y-63768716D01*
X130480520Y-63768714D01*
X130490724Y-63758511D01*
X130490728Y-63758506D01*
X130758506Y-63490728D01*
X130758511Y-63490724D01*
X130768714Y-63480520D01*
X130768716Y-63480520D01*
X130880520Y-63368716D01*
X130907980Y-63321153D01*
X130959576Y-63231786D01*
X130959576Y-63231785D01*
X130959577Y-63231784D01*
X130972432Y-63183804D01*
X131008795Y-63124145D01*
X131028055Y-63109781D01*
X131035185Y-63105472D01*
X131155472Y-62985185D01*
X131243478Y-62839606D01*
X131294086Y-62677196D01*
X131300500Y-62606616D01*
X131300500Y-60893384D01*
X131294086Y-60822804D01*
X131243478Y-60660394D01*
X131155472Y-60514815D01*
X131155470Y-60514813D01*
X131155469Y-60514811D01*
X131035188Y-60394530D01*
X131031770Y-60392464D01*
X130889606Y-60306522D01*
X130885350Y-60303949D01*
X130838162Y-60252421D01*
X130825500Y-60197832D01*
X130825500Y-59940004D01*
X130826601Y-59936253D01*
X130825731Y-59932445D01*
X130836366Y-59902997D01*
X130845185Y-59872965D01*
X130848520Y-59869344D01*
X130849465Y-59866730D01*
X130859282Y-59857664D01*
X130874161Y-59841515D01*
X130879099Y-59837736D01*
X130903044Y-59822968D01*
X130918134Y-59807877D01*
X130924661Y-59802885D01*
X130949904Y-59793169D01*
X130973642Y-59780208D01*
X130982025Y-59780807D01*
X130989868Y-59777789D01*
X131016352Y-59783262D01*
X131043334Y-59785192D01*
X131051697Y-59790567D01*
X131058292Y-59791930D01*
X131066830Y-59800292D01*
X131087681Y-59813693D01*
X131096955Y-59822967D01*
X131096959Y-59822970D01*
X131241294Y-59911998D01*
X131241297Y-59911999D01*
X131241303Y-59912003D01*
X131402292Y-59965349D01*
X131501655Y-59975500D01*
X132048344Y-59975499D01*
X132048352Y-59975498D01*
X132048355Y-59975498D01*
X132111124Y-59969086D01*
X132147708Y-59965349D01*
X132308697Y-59912003D01*
X132453044Y-59822968D01*
X132529996Y-59746016D01*
X132591319Y-59712531D01*
X132661011Y-59717515D01*
X132705358Y-59746016D01*
X132789811Y-59830469D01*
X132789813Y-59830470D01*
X132789815Y-59830472D01*
X132935394Y-59918478D01*
X133097804Y-59969086D01*
X133168384Y-59975500D01*
X133499903Y-59975500D01*
X133566942Y-59995185D01*
X133587584Y-60011819D01*
X133879872Y-60304107D01*
X133913357Y-60365430D01*
X133908373Y-60435122D01*
X133879873Y-60479468D01*
X133844531Y-60514809D01*
X133844530Y-60514811D01*
X133756522Y-60660393D01*
X133705913Y-60822807D01*
X133699500Y-60893386D01*
X133699500Y-62606613D01*
X133705913Y-62677192D01*
X133705913Y-62677194D01*
X133705914Y-62677196D01*
X133753169Y-62828846D01*
X133756522Y-62839606D01*
X133844530Y-62985188D01*
X133964811Y-63105469D01*
X133964813Y-63105470D01*
X133964815Y-63105472D01*
X134110394Y-63193478D01*
X134272804Y-63244086D01*
X134343384Y-63250500D01*
X134343387Y-63250500D01*
X134856613Y-63250500D01*
X134856616Y-63250500D01*
X134927196Y-63244086D01*
X135089606Y-63193478D01*
X135235185Y-63105472D01*
X135355472Y-62985185D01*
X135443478Y-62839606D01*
X135494086Y-62677196D01*
X135500500Y-62606616D01*
X135500500Y-62474500D01*
X135503050Y-62465814D01*
X135501762Y-62456853D01*
X135512740Y-62432812D01*
X135520185Y-62407461D01*
X135527025Y-62401533D01*
X135530787Y-62393297D01*
X135553021Y-62379007D01*
X135572989Y-62361706D01*
X135583503Y-62359418D01*
X135589565Y-62355523D01*
X135624500Y-62350500D01*
X135849903Y-62350500D01*
X135916942Y-62370185D01*
X135937584Y-62386819D01*
X136113181Y-62562416D01*
X136146666Y-62623739D01*
X136149500Y-62650097D01*
X136149500Y-63670234D01*
X136129815Y-63737273D01*
X136128602Y-63739125D01*
X136040609Y-63870814D01*
X136040602Y-63870827D01*
X135980264Y-64016498D01*
X135980261Y-64016510D01*
X135949500Y-64171153D01*
X135949500Y-64328846D01*
X135980261Y-64483489D01*
X135980264Y-64483501D01*
X136040602Y-64629172D01*
X136040609Y-64629185D01*
X136128210Y-64760288D01*
X136128213Y-64760292D01*
X136239707Y-64871786D01*
X136239711Y-64871789D01*
X136370814Y-64959390D01*
X136370827Y-64959397D01*
X136510018Y-65017051D01*
X136516503Y-65019737D01*
X136671153Y-65050499D01*
X136671156Y-65050500D01*
X136671158Y-65050500D01*
X136828844Y-65050500D01*
X136828845Y-65050499D01*
X136983497Y-65019737D01*
X137129179Y-64959394D01*
X137260289Y-64871789D01*
X137371789Y-64760289D01*
X137459394Y-64629179D01*
X137519737Y-64483497D01*
X137521642Y-64473920D01*
X142649499Y-64473920D01*
X142678340Y-64618907D01*
X142678343Y-64618917D01*
X142734912Y-64755488D01*
X142734919Y-64755501D01*
X142817048Y-64878415D01*
X142817051Y-64878419D01*
X142921580Y-64982948D01*
X142921584Y-64982951D01*
X143044498Y-65065080D01*
X143044511Y-65065087D01*
X143157116Y-65111729D01*
X143181087Y-65121658D01*
X143181091Y-65121658D01*
X143181092Y-65121659D01*
X143326079Y-65150500D01*
X143326082Y-65150500D01*
X143473920Y-65150500D01*
X143571462Y-65131096D01*
X143618913Y-65121658D01*
X143755495Y-65065084D01*
X143878416Y-64982951D01*
X143982951Y-64878416D01*
X144065084Y-64755495D01*
X144121658Y-64618913D01*
X144148595Y-64483497D01*
X144150500Y-64473920D01*
X144150500Y-64326079D01*
X144121659Y-64181092D01*
X144121658Y-64181091D01*
X144121658Y-64181087D01*
X144091960Y-64109390D01*
X144065087Y-64044511D01*
X144065080Y-64044498D01*
X143982951Y-63921584D01*
X143982948Y-63921580D01*
X143878419Y-63817051D01*
X143878415Y-63817048D01*
X143755501Y-63734919D01*
X143755488Y-63734912D01*
X143618917Y-63678343D01*
X143618907Y-63678340D01*
X143473920Y-63649500D01*
X143473918Y-63649500D01*
X143326082Y-63649500D01*
X143326080Y-63649500D01*
X143181092Y-63678340D01*
X143181082Y-63678343D01*
X143044511Y-63734912D01*
X143044498Y-63734919D01*
X142921584Y-63817048D01*
X142921580Y-63817051D01*
X142817051Y-63921580D01*
X142817048Y-63921584D01*
X142734919Y-64044498D01*
X142734912Y-64044511D01*
X142678343Y-64181082D01*
X142678340Y-64181092D01*
X142649500Y-64326079D01*
X142649500Y-64326082D01*
X142649500Y-64473918D01*
X142649500Y-64473920D01*
X142649499Y-64473920D01*
X137521642Y-64473920D01*
X137550500Y-64328842D01*
X137550500Y-64171158D01*
X137550500Y-64171155D01*
X137550499Y-64171153D01*
X137525307Y-64044505D01*
X137519737Y-64016503D01*
X137513109Y-64000501D01*
X137459397Y-63870827D01*
X137459390Y-63870814D01*
X137371398Y-63739125D01*
X137350520Y-63672447D01*
X137350500Y-63670234D01*
X137350500Y-62270946D01*
X137350499Y-62270939D01*
X137339669Y-62230520D01*
X137309577Y-62118215D01*
X137259676Y-62031784D01*
X137230520Y-61981284D01*
X137118716Y-61869480D01*
X137118715Y-61869479D01*
X137114385Y-61865149D01*
X137114374Y-61865139D01*
X136637590Y-61388355D01*
X136637588Y-61388352D01*
X136518717Y-61269481D01*
X136518716Y-61269480D01*
X136431904Y-61219360D01*
X136431904Y-61219359D01*
X136431900Y-61219358D01*
X136381785Y-61190423D01*
X136229057Y-61149499D01*
X136070943Y-61149499D01*
X136063347Y-61149499D01*
X136063331Y-61149500D01*
X135624500Y-61149500D01*
X135557461Y-61129815D01*
X135511706Y-61077011D01*
X135500500Y-61025500D01*
X135500500Y-60893386D01*
X135495835Y-60842051D01*
X135494086Y-60822804D01*
X135443478Y-60660394D01*
X135355472Y-60514815D01*
X135355470Y-60514813D01*
X135355469Y-60514811D01*
X135236819Y-60396161D01*
X135222115Y-60369233D01*
X135205523Y-60343415D01*
X135204631Y-60337214D01*
X135203334Y-60334838D01*
X135200500Y-60308480D01*
X135200500Y-60264059D01*
X135200501Y-60264046D01*
X135200501Y-60099500D01*
X135220186Y-60032461D01*
X135272990Y-59986706D01*
X135324501Y-59975500D01*
X135331613Y-59975500D01*
X135331616Y-59975500D01*
X135402196Y-59969086D01*
X135564606Y-59918478D01*
X135710185Y-59830472D01*
X135830472Y-59710185D01*
X135860598Y-59660349D01*
X135912126Y-59613162D01*
X135966715Y-59600500D01*
X140145234Y-59600500D01*
X140212273Y-59620185D01*
X140214125Y-59621398D01*
X140345814Y-59709390D01*
X140345827Y-59709397D01*
X140491498Y-59769735D01*
X140491503Y-59769737D01*
X140609303Y-59793169D01*
X140646153Y-59800499D01*
X140646156Y-59800500D01*
X140646158Y-59800500D01*
X140803844Y-59800500D01*
X140803845Y-59800499D01*
X140958497Y-59769737D01*
X141086932Y-59716538D01*
X141104172Y-59709397D01*
X141104172Y-59709396D01*
X141104179Y-59709394D01*
X141235289Y-59621789D01*
X141346789Y-59510289D01*
X141434394Y-59379179D01*
X141494737Y-59233497D01*
X141525500Y-59078842D01*
X141525500Y-58921158D01*
X141525500Y-58921155D01*
X141525499Y-58921153D01*
X141522588Y-58906520D01*
X141494737Y-58766503D01*
X141469691Y-58706036D01*
X141434397Y-58620827D01*
X141434390Y-58620814D01*
X141346789Y-58489711D01*
X141342924Y-58485001D01*
X141345142Y-58483180D01*
X141317532Y-58432615D01*
X141322516Y-58362923D01*
X141364388Y-58306990D01*
X141391238Y-58291699D01*
X141455495Y-58265084D01*
X141578416Y-58182951D01*
X141682951Y-58078416D01*
X141765084Y-57955495D01*
X141796835Y-57878842D01*
X141816218Y-57832047D01*
X141860059Y-57777644D01*
X141926353Y-57755579D01*
X141930779Y-57755500D01*
X148993093Y-57755500D01*
X149060132Y-57775185D01*
X149105887Y-57827989D01*
X149114710Y-57855309D01*
X149130261Y-57933489D01*
X149130264Y-57933501D01*
X149190602Y-58079172D01*
X149190609Y-58079185D01*
X149278210Y-58210288D01*
X149278213Y-58210292D01*
X149389707Y-58321786D01*
X149389711Y-58321789D01*
X149520814Y-58409390D01*
X149520827Y-58409397D01*
X149666498Y-58469735D01*
X149666503Y-58469737D01*
X149794463Y-58495190D01*
X149821153Y-58500499D01*
X149821156Y-58500500D01*
X149821158Y-58500500D01*
X149978844Y-58500500D01*
X149978845Y-58500499D01*
X150133497Y-58469737D01*
X150279179Y-58409394D01*
X150286014Y-58404827D01*
X150410875Y-58321398D01*
X150477553Y-58300520D01*
X150479766Y-58300500D01*
X151470234Y-58300500D01*
X151537273Y-58320185D01*
X151539125Y-58321398D01*
X151670814Y-58409390D01*
X151670827Y-58409397D01*
X151816498Y-58469735D01*
X151816503Y-58469737D01*
X151944463Y-58495190D01*
X151971153Y-58500499D01*
X151971156Y-58500500D01*
X151971158Y-58500500D01*
X152128844Y-58500500D01*
X152128845Y-58500499D01*
X152283497Y-58469737D01*
X152429179Y-58409394D01*
X152560289Y-58321789D01*
X152671789Y-58210289D01*
X152759394Y-58079179D01*
X152759711Y-58078415D01*
X152789782Y-58005816D01*
X152819737Y-57933497D01*
X152832046Y-57871618D01*
X152835290Y-57855309D01*
X152867675Y-57793398D01*
X152928390Y-57758824D01*
X152956907Y-57755500D01*
X155989254Y-57755500D01*
X156018694Y-57764144D01*
X156048681Y-57770668D01*
X156053696Y-57774422D01*
X156056293Y-57775185D01*
X156076935Y-57791819D01*
X156208181Y-57923065D01*
X156241666Y-57984388D01*
X156244500Y-58010746D01*
X156244500Y-59957846D01*
X156244949Y-59979152D01*
X156245391Y-59989607D01*
X156246745Y-60010958D01*
X156279169Y-60151136D01*
X156304443Y-60216276D01*
X156375042Y-60341635D01*
X156375043Y-60341637D01*
X157904609Y-62330074D01*
X157929882Y-62395213D01*
X157915925Y-62463674D01*
X157867171Y-62513723D01*
X157818926Y-62529036D01*
X157762246Y-62534826D01*
X157598484Y-62589092D01*
X157598481Y-62589093D01*
X157451648Y-62679661D01*
X157337681Y-62793629D01*
X157276358Y-62827114D01*
X157206666Y-62822130D01*
X157162319Y-62793629D01*
X157048351Y-62679661D01*
X157048350Y-62679660D01*
X156901516Y-62589092D01*
X156737753Y-62534826D01*
X156737751Y-62534825D01*
X156636678Y-62524500D01*
X156038330Y-62524500D01*
X156038312Y-62524501D01*
X155937247Y-62534825D01*
X155773484Y-62589092D01*
X155773481Y-62589093D01*
X155626647Y-62679661D01*
X155607056Y-62699252D01*
X155545731Y-62732734D01*
X155489664Y-62730482D01*
X155489472Y-62731451D01*
X155328845Y-62699500D01*
X155328842Y-62699500D01*
X155171158Y-62699500D01*
X155171155Y-62699500D01*
X155016510Y-62730261D01*
X155016498Y-62730264D01*
X154870827Y-62790602D01*
X154870814Y-62790609D01*
X154739711Y-62878210D01*
X154739707Y-62878213D01*
X154628213Y-62989707D01*
X154628210Y-62989711D01*
X154540609Y-63120814D01*
X154540602Y-63120827D01*
X154480264Y-63266498D01*
X154480261Y-63266510D01*
X154449500Y-63421153D01*
X154449500Y-63578846D01*
X154480261Y-63733489D01*
X154482031Y-63739324D01*
X154479279Y-63740158D01*
X154485503Y-63797359D01*
X154454309Y-63859878D01*
X154394266Y-63895608D01*
X154363445Y-63899500D01*
X148794836Y-63899500D01*
X148792326Y-63898763D01*
X148789790Y-63899397D01*
X148758988Y-63888973D01*
X148727797Y-63879815D01*
X148725323Y-63877581D01*
X148723607Y-63877001D01*
X148715561Y-63868769D01*
X148697896Y-63852822D01*
X148694639Y-63848738D01*
X148621789Y-63739711D01*
X148552044Y-63669966D01*
X148547705Y-63664526D01*
X148537020Y-63638361D01*
X148523479Y-63613562D01*
X148523987Y-63606446D01*
X148521291Y-63599842D01*
X148526447Y-63572058D01*
X148528463Y-63543870D01*
X148532738Y-63538158D01*
X148534040Y-63531145D01*
X148553400Y-63510557D01*
X148570335Y-63487937D01*
X148579677Y-63482617D01*
X148581906Y-63480247D01*
X148585350Y-63479386D01*
X148597190Y-63472643D01*
X148629179Y-63459394D01*
X148760289Y-63371789D01*
X148871789Y-63260289D01*
X148959394Y-63129179D01*
X148962854Y-63120827D01*
X148973067Y-63096166D01*
X149019737Y-62983497D01*
X149050500Y-62828842D01*
X149050500Y-62671158D01*
X149050500Y-62671155D01*
X149050499Y-62671153D01*
X149034176Y-62589091D01*
X149019737Y-62516503D01*
X149019735Y-62516498D01*
X148959397Y-62370827D01*
X148959390Y-62370814D01*
X148871789Y-62239711D01*
X148871786Y-62239707D01*
X148760292Y-62128213D01*
X148760288Y-62128210D01*
X148629185Y-62040609D01*
X148629172Y-62040602D01*
X148483501Y-61980264D01*
X148483489Y-61980261D01*
X148328845Y-61949500D01*
X148328842Y-61949500D01*
X148171158Y-61949500D01*
X148171155Y-61949500D01*
X148016510Y-61980261D01*
X148016498Y-61980264D01*
X147870827Y-62040602D01*
X147870814Y-62040609D01*
X147739711Y-62128210D01*
X147739707Y-62128213D01*
X147628213Y-62239707D01*
X147628210Y-62239711D01*
X147540609Y-62370814D01*
X147540602Y-62370827D01*
X147480264Y-62516498D01*
X147480261Y-62516508D01*
X147449362Y-62671848D01*
X147416977Y-62733759D01*
X147415426Y-62735337D01*
X146881286Y-63269478D01*
X146769481Y-63381282D01*
X146769480Y-63381284D01*
X146724384Y-63459394D01*
X146719361Y-63468094D01*
X146719359Y-63468096D01*
X146690425Y-63518209D01*
X146690424Y-63518210D01*
X146675996Y-63572058D01*
X146649499Y-63670943D01*
X146649499Y-63670945D01*
X146649499Y-63839046D01*
X146649500Y-63839059D01*
X146649500Y-65111729D01*
X146629815Y-65178768D01*
X146577011Y-65224523D01*
X146507853Y-65234467D01*
X146444297Y-65205442D01*
X146422398Y-65180620D01*
X146382951Y-65121584D01*
X146382948Y-65121580D01*
X146278419Y-65017051D01*
X146278415Y-65017048D01*
X146155501Y-64934919D01*
X146155488Y-64934912D01*
X146018917Y-64878343D01*
X146018907Y-64878340D01*
X145873920Y-64849500D01*
X145873918Y-64849500D01*
X145726082Y-64849500D01*
X145726080Y-64849500D01*
X145581092Y-64878340D01*
X145581082Y-64878343D01*
X145444511Y-64934912D01*
X145444498Y-64934919D01*
X145321584Y-65017048D01*
X145321580Y-65017051D01*
X145217051Y-65121580D01*
X145217048Y-65121584D01*
X145134919Y-65244498D01*
X145134912Y-65244511D01*
X145078343Y-65381082D01*
X145078340Y-65381092D01*
X145049500Y-65526079D01*
X145049500Y-65526082D01*
X145049500Y-65673918D01*
X145049500Y-65673920D01*
X145049499Y-65673920D01*
X145078340Y-65818907D01*
X145078343Y-65818917D01*
X145134912Y-65955488D01*
X145134919Y-65955501D01*
X145217048Y-66078415D01*
X145217051Y-66078419D01*
X145321580Y-66182948D01*
X145321584Y-66182951D01*
X145444498Y-66265080D01*
X145444511Y-66265087D01*
X145581082Y-66321656D01*
X145581087Y-66321658D01*
X145581091Y-66321658D01*
X145581092Y-66321659D01*
X145726079Y-66350500D01*
X145726082Y-66350500D01*
X145873920Y-66350500D01*
X145971462Y-66331096D01*
X146018913Y-66321658D01*
X146155495Y-66265084D01*
X146278416Y-66182951D01*
X146382951Y-66078416D01*
X146422398Y-66019379D01*
X146476009Y-65974574D01*
X146545334Y-65965867D01*
X146608362Y-65996021D01*
X146645082Y-66055464D01*
X146649500Y-66088270D01*
X146649500Y-69949902D01*
X146629815Y-70016941D01*
X146613181Y-70037583D01*
X145287584Y-71363181D01*
X145226261Y-71396666D01*
X145199903Y-71399500D01*
X141420943Y-71399500D01*
X141268214Y-71440423D01*
X141245930Y-71453289D01*
X141218869Y-71468913D01*
X141218868Y-71468913D01*
X141131290Y-71519475D01*
X141131282Y-71519481D01*
X140269481Y-72381282D01*
X140269475Y-72381290D01*
X140227766Y-72453534D01*
X140227766Y-72453536D01*
X140190423Y-72518214D01*
X140190423Y-72518215D01*
X140149499Y-72670943D01*
X140149499Y-72670945D01*
X140149499Y-72839046D01*
X140149500Y-72839059D01*
X140149500Y-73537770D01*
X140129815Y-73604809D01*
X140120419Y-73616468D01*
X140120914Y-73616874D01*
X140117048Y-73621584D01*
X140034919Y-73744498D01*
X140034912Y-73744511D01*
X139978343Y-73881082D01*
X139978340Y-73881092D01*
X139949499Y-74026079D01*
X139948903Y-74032142D01*
X139947439Y-74031997D01*
X139941834Y-74060179D01*
X139942527Y-74060365D01*
X139940424Y-74068213D01*
X139940423Y-74068215D01*
X139899499Y-74220943D01*
X139899499Y-74220945D01*
X139899499Y-74389046D01*
X139899500Y-74389059D01*
X139899500Y-75513330D01*
X139899499Y-75513348D01*
X139899499Y-75679054D01*
X139899498Y-75679054D01*
X139940423Y-75831784D01*
X139940424Y-75831788D01*
X139967345Y-75878417D01*
X139967346Y-75878417D01*
X140019477Y-75968712D01*
X140019481Y-75968717D01*
X140138349Y-76087585D01*
X140138355Y-76087590D01*
X140282058Y-76231293D01*
X140315543Y-76292616D01*
X140310559Y-76362308D01*
X140288089Y-76400177D01*
X140194435Y-76508257D01*
X140194430Y-76508265D01*
X140134664Y-76639131D01*
X140123004Y-76678842D01*
X140114977Y-76706177D01*
X140114976Y-76706181D01*
X140096671Y-76833501D01*
X140094500Y-76848598D01*
X140094500Y-80375500D01*
X140074815Y-80442539D01*
X140022011Y-80488294D01*
X139970500Y-80499500D01*
X106718011Y-80499500D01*
X106650972Y-80479815D01*
X106605217Y-80427011D01*
X106594013Y-80376225D01*
X106565621Y-75521153D01*
X127999500Y-75521153D01*
X127999500Y-75678846D01*
X128030261Y-75833489D01*
X128030264Y-75833501D01*
X128090602Y-75979172D01*
X128090609Y-75979185D01*
X128125304Y-76031109D01*
X128146182Y-76097786D01*
X128127698Y-76165167D01*
X128125304Y-76168891D01*
X128090609Y-76220814D01*
X128090602Y-76220827D01*
X128030264Y-76366498D01*
X128030261Y-76366510D01*
X127999500Y-76521153D01*
X127999500Y-76678846D01*
X128030261Y-76833489D01*
X128030264Y-76833501D01*
X128090602Y-76979172D01*
X128090609Y-76979185D01*
X128178210Y-77110288D01*
X128178213Y-77110292D01*
X128289707Y-77221786D01*
X128289711Y-77221789D01*
X128420814Y-77309390D01*
X128420827Y-77309397D01*
X128566498Y-77369735D01*
X128566503Y-77369737D01*
X128721153Y-77400499D01*
X128721156Y-77400500D01*
X128721158Y-77400500D01*
X128878844Y-77400500D01*
X128878845Y-77400499D01*
X129033497Y-77369737D01*
X129179179Y-77309394D01*
X129310289Y-77221789D01*
X129421789Y-77110289D01*
X129509394Y-76979179D01*
X129569737Y-76833497D01*
X129600500Y-76678842D01*
X129600500Y-76521158D01*
X129600500Y-76521155D01*
X129600499Y-76521153D01*
X129569738Y-76366510D01*
X129569737Y-76366503D01*
X129569732Y-76366492D01*
X129567969Y-76360676D01*
X129570720Y-76359841D01*
X129564497Y-76302641D01*
X129595691Y-76240122D01*
X129655734Y-76204392D01*
X129686555Y-76200500D01*
X130120939Y-76200500D01*
X130120943Y-76200501D01*
X130279057Y-76200501D01*
X130284987Y-76198911D01*
X130299137Y-76198781D01*
X130305314Y-76200533D01*
X130315004Y-76200850D01*
X130315098Y-76199903D01*
X130321156Y-76200500D01*
X130321158Y-76200500D01*
X130478844Y-76200500D01*
X130478845Y-76200499D01*
X130633497Y-76169737D01*
X130779179Y-76109394D01*
X130910289Y-76021789D01*
X131021789Y-75910289D01*
X131109394Y-75779179D01*
X131169737Y-75633497D01*
X131200500Y-75478842D01*
X131200500Y-75321158D01*
X131200500Y-75321155D01*
X131200499Y-75321153D01*
X131180543Y-75220827D01*
X131169737Y-75166503D01*
X131137929Y-75089711D01*
X131109397Y-75020827D01*
X131109390Y-75020814D01*
X131021789Y-74889711D01*
X131021786Y-74889707D01*
X130910292Y-74778213D01*
X130910288Y-74778210D01*
X130779185Y-74690609D01*
X130779172Y-74690602D01*
X130633501Y-74630264D01*
X130633489Y-74630261D01*
X130478845Y-74599500D01*
X130478842Y-74599500D01*
X130321158Y-74599500D01*
X130321155Y-74599500D01*
X130166510Y-74630261D01*
X130166498Y-74630264D01*
X130020827Y-74690602D01*
X130020814Y-74690609D01*
X129889711Y-74778210D01*
X129889707Y-74778213D01*
X129778213Y-74889707D01*
X129778207Y-74889715D01*
X129741675Y-74944390D01*
X129688063Y-74989196D01*
X129638573Y-74999500D01*
X129379766Y-74999500D01*
X129312727Y-74979815D01*
X129310875Y-74978602D01*
X129179185Y-74890609D01*
X129179172Y-74890602D01*
X129033501Y-74830264D01*
X129033489Y-74830261D01*
X128878845Y-74799500D01*
X128878842Y-74799500D01*
X128721158Y-74799500D01*
X128721155Y-74799500D01*
X128566510Y-74830261D01*
X128566498Y-74830264D01*
X128420827Y-74890602D01*
X128420814Y-74890609D01*
X128289711Y-74978210D01*
X128289707Y-74978213D01*
X128178213Y-75089707D01*
X128178210Y-75089711D01*
X128090609Y-75220814D01*
X128090602Y-75220827D01*
X128030264Y-75366498D01*
X128030261Y-75366510D01*
X127999500Y-75521153D01*
X106565621Y-75521153D01*
X106565590Y-75515791D01*
X106516498Y-67121153D01*
X127999500Y-67121153D01*
X127999500Y-67278846D01*
X128030261Y-67433489D01*
X128030264Y-67433501D01*
X128090602Y-67579172D01*
X128090609Y-67579185D01*
X128178602Y-67710874D01*
X128199480Y-67777551D01*
X128199500Y-67779765D01*
X128199500Y-68220234D01*
X128179815Y-68287273D01*
X128178602Y-68289125D01*
X128090609Y-68420814D01*
X128090602Y-68420827D01*
X128030264Y-68566498D01*
X128030261Y-68566510D01*
X127999500Y-68721153D01*
X127999500Y-68878846D01*
X128030261Y-69033489D01*
X128030264Y-69033501D01*
X128090602Y-69179172D01*
X128090609Y-69179185D01*
X128178602Y-69310874D01*
X128199480Y-69377551D01*
X128199500Y-69379765D01*
X128199500Y-70020234D01*
X128179815Y-70087273D01*
X128178602Y-70089125D01*
X128090609Y-70220814D01*
X128090602Y-70220827D01*
X128030264Y-70366498D01*
X128030261Y-70366510D01*
X127999500Y-70521153D01*
X127999500Y-70678846D01*
X128030261Y-70833489D01*
X128030264Y-70833501D01*
X128090602Y-70979172D01*
X128090609Y-70979185D01*
X128178210Y-71110288D01*
X128178213Y-71110292D01*
X128289707Y-71221786D01*
X128289711Y-71221789D01*
X128420814Y-71309390D01*
X128420827Y-71309397D01*
X128550675Y-71363181D01*
X128566503Y-71369737D01*
X128716131Y-71399500D01*
X128721153Y-71400499D01*
X128721156Y-71400500D01*
X128721158Y-71400500D01*
X128878844Y-71400500D01*
X128878845Y-71400499D01*
X129033497Y-71369737D01*
X129133152Y-71328458D01*
X129202619Y-71320990D01*
X129265099Y-71352265D01*
X129300751Y-71412354D01*
X129298257Y-71482179D01*
X129295165Y-71490470D01*
X129278343Y-71531083D01*
X129278340Y-71531092D01*
X129249500Y-71676079D01*
X129249500Y-71676082D01*
X129249500Y-71823918D01*
X129249500Y-71823920D01*
X129249499Y-71823920D01*
X129278340Y-71968907D01*
X129278343Y-71968917D01*
X129334912Y-72105488D01*
X129334919Y-72105501D01*
X129417048Y-72228415D01*
X129417051Y-72228419D01*
X129521580Y-72332948D01*
X129521584Y-72332951D01*
X129644498Y-72415080D01*
X129644511Y-72415087D01*
X129781082Y-72471656D01*
X129781087Y-72471658D01*
X129858210Y-72486999D01*
X129920118Y-72519382D01*
X129921698Y-72520934D01*
X130131284Y-72730520D01*
X130206745Y-72774087D01*
X130232426Y-72793793D01*
X130271580Y-72832948D01*
X130271584Y-72832951D01*
X130394498Y-72915080D01*
X130394511Y-72915087D01*
X130531082Y-72971656D01*
X130531087Y-72971658D01*
X130531091Y-72971658D01*
X130531092Y-72971659D01*
X130676079Y-73000500D01*
X130676082Y-73000500D01*
X130823920Y-73000500D01*
X130921462Y-72981096D01*
X130968913Y-72971658D01*
X131077548Y-72926659D01*
X131147016Y-72919191D01*
X131172449Y-72926658D01*
X131281087Y-72971658D01*
X131281091Y-72971658D01*
X131281092Y-72971659D01*
X131426079Y-73000500D01*
X131426082Y-73000500D01*
X131573920Y-73000500D01*
X131671462Y-72981096D01*
X131718913Y-72971658D01*
X131827548Y-72926659D01*
X131897016Y-72919191D01*
X131922449Y-72926658D01*
X132031087Y-72971658D01*
X132031091Y-72971658D01*
X132031092Y-72971659D01*
X132176079Y-73000500D01*
X132176082Y-73000500D01*
X132323920Y-73000500D01*
X132421462Y-72981096D01*
X132468913Y-72971658D01*
X132577548Y-72926659D01*
X132647016Y-72919191D01*
X132672449Y-72926658D01*
X132781087Y-72971658D01*
X132781091Y-72971658D01*
X132781092Y-72971659D01*
X132926079Y-73000500D01*
X132926082Y-73000500D01*
X133073920Y-73000500D01*
X133171462Y-72981096D01*
X133218913Y-72971658D01*
X133355495Y-72915084D01*
X133478416Y-72832951D01*
X133582951Y-72728416D01*
X133665084Y-72605495D01*
X133721658Y-72468913D01*
X133739089Y-72381282D01*
X133750500Y-72323920D01*
X133750500Y-72176079D01*
X133721659Y-72031092D01*
X133721658Y-72031091D01*
X133721658Y-72031087D01*
X133721656Y-72031082D01*
X133665087Y-71894511D01*
X133665080Y-71894498D01*
X133582951Y-71771584D01*
X133582948Y-71771580D01*
X133478419Y-71667051D01*
X133478415Y-71667048D01*
X133355501Y-71584919D01*
X133355488Y-71584912D01*
X133218917Y-71528343D01*
X133218907Y-71528340D01*
X133073920Y-71499500D01*
X133073918Y-71499500D01*
X132926082Y-71499500D01*
X132926080Y-71499500D01*
X132781092Y-71528340D01*
X132781082Y-71528343D01*
X132672452Y-71573339D01*
X132602983Y-71580808D01*
X132577548Y-71573339D01*
X132468917Y-71528343D01*
X132468907Y-71528340D01*
X132323920Y-71499500D01*
X132323918Y-71499500D01*
X132176082Y-71499500D01*
X132176080Y-71499500D01*
X132031092Y-71528340D01*
X132031082Y-71528343D01*
X131922452Y-71573339D01*
X131852983Y-71580808D01*
X131827548Y-71573339D01*
X131718917Y-71528343D01*
X131718907Y-71528340D01*
X131573920Y-71499500D01*
X131573918Y-71499500D01*
X131426082Y-71499500D01*
X131426080Y-71499500D01*
X131281092Y-71528340D01*
X131281082Y-71528343D01*
X131172452Y-71573339D01*
X131102983Y-71580808D01*
X131077548Y-71573339D01*
X130968917Y-71528343D01*
X130968907Y-71528340D01*
X130823920Y-71499500D01*
X130823918Y-71499500D01*
X130791428Y-71499500D01*
X130772236Y-71493864D01*
X130752247Y-71493147D01*
X130739397Y-71484221D01*
X130724389Y-71479815D01*
X130711293Y-71464701D01*
X130694862Y-71453289D01*
X130680672Y-71429363D01*
X130678634Y-71427011D01*
X130676873Y-71422967D01*
X130676650Y-71422429D01*
X130669195Y-71352961D01*
X130676660Y-71327547D01*
X130684178Y-71309397D01*
X130721658Y-71218913D01*
X130743265Y-71110289D01*
X130750500Y-71073920D01*
X130750500Y-70926079D01*
X130721659Y-70781092D01*
X130721658Y-70781091D01*
X130721658Y-70781087D01*
X130676659Y-70672451D01*
X130669191Y-70602984D01*
X130676660Y-70577547D01*
X130700017Y-70521158D01*
X130721658Y-70468913D01*
X130750500Y-70323918D01*
X130750500Y-70176082D01*
X130750500Y-70176079D01*
X130721659Y-70031092D01*
X130721658Y-70031091D01*
X130721658Y-70031087D01*
X130676659Y-69922451D01*
X130669191Y-69852984D01*
X130676660Y-69827547D01*
X130721658Y-69718913D01*
X130750500Y-69573918D01*
X130750500Y-69426082D01*
X130750500Y-69426079D01*
X130721659Y-69281092D01*
X130721658Y-69281091D01*
X130721658Y-69281087D01*
X130679449Y-69179185D01*
X130665087Y-69144511D01*
X130665080Y-69144498D01*
X130582951Y-69021584D01*
X130582948Y-69021580D01*
X130478419Y-68917051D01*
X130478415Y-68917048D01*
X130355501Y-68834919D01*
X130355488Y-68834912D01*
X130218917Y-68778343D01*
X130218907Y-68778340D01*
X130073920Y-68749500D01*
X130073918Y-68749500D01*
X129926082Y-68749500D01*
X129926080Y-68749500D01*
X129781092Y-68778340D01*
X129781082Y-68778343D01*
X129764345Y-68785276D01*
X129694875Y-68792743D01*
X129632397Y-68761467D01*
X129596746Y-68701377D01*
X129595278Y-68694905D01*
X129569738Y-68566510D01*
X129569737Y-68566503D01*
X129569735Y-68566498D01*
X129509397Y-68420827D01*
X129509390Y-68420814D01*
X129421398Y-68289125D01*
X129400520Y-68222447D01*
X129400500Y-68220234D01*
X129400500Y-67779765D01*
X129420185Y-67712726D01*
X129421398Y-67710874D01*
X129509390Y-67579185D01*
X129509390Y-67579184D01*
X129509394Y-67579179D01*
X129569737Y-67433497D01*
X129600500Y-67278842D01*
X129600500Y-67121158D01*
X129600500Y-67121155D01*
X129600499Y-67121153D01*
X129569738Y-66966510D01*
X129569737Y-66966503D01*
X129569735Y-66966498D01*
X129509397Y-66820827D01*
X129509390Y-66820814D01*
X129421789Y-66689711D01*
X129421786Y-66689707D01*
X129310292Y-66578213D01*
X129310288Y-66578210D01*
X129179185Y-66490609D01*
X129179172Y-66490602D01*
X129033501Y-66430264D01*
X129033489Y-66430261D01*
X128878845Y-66399500D01*
X128878842Y-66399500D01*
X128721158Y-66399500D01*
X128721155Y-66399500D01*
X128566510Y-66430261D01*
X128566498Y-66430264D01*
X128420827Y-66490602D01*
X128420814Y-66490609D01*
X128289711Y-66578210D01*
X128289707Y-66578213D01*
X128178213Y-66689707D01*
X128178210Y-66689711D01*
X128090609Y-66820814D01*
X128090602Y-66820827D01*
X128030264Y-66966498D01*
X128030261Y-66966510D01*
X127999500Y-67121153D01*
X106516498Y-67121153D01*
X106516467Y-67115791D01*
X106508912Y-65823920D01*
X132499499Y-65823920D01*
X132528340Y-65968907D01*
X132528343Y-65968917D01*
X132584912Y-66105488D01*
X132584919Y-66105501D01*
X132667048Y-66228415D01*
X132667051Y-66228419D01*
X132771580Y-66332948D01*
X132771584Y-66332951D01*
X132894498Y-66415080D01*
X132894511Y-66415087D01*
X133031082Y-66471656D01*
X133031087Y-66471658D01*
X133031091Y-66471658D01*
X133031092Y-66471659D01*
X133176079Y-66500500D01*
X133176082Y-66500500D01*
X134823920Y-66500500D01*
X134921462Y-66481096D01*
X134968913Y-66471658D01*
X135105495Y-66415084D01*
X135228416Y-66332951D01*
X135332951Y-66228416D01*
X135415084Y-66105495D01*
X135471658Y-65968913D01*
X135500500Y-65823918D01*
X135500500Y-65676082D01*
X135500500Y-65676079D01*
X135471659Y-65531092D01*
X135471658Y-65531091D01*
X135471658Y-65531087D01*
X135469584Y-65526079D01*
X135415087Y-65394511D01*
X135415080Y-65394498D01*
X135332951Y-65271584D01*
X135332948Y-65271580D01*
X135228419Y-65167051D01*
X135228415Y-65167048D01*
X135105501Y-65084919D01*
X135105488Y-65084912D01*
X134968917Y-65028343D01*
X134968907Y-65028340D01*
X134823920Y-64999500D01*
X134823918Y-64999500D01*
X133323918Y-64999500D01*
X133176082Y-64999500D01*
X133176080Y-64999500D01*
X133031092Y-65028340D01*
X133031082Y-65028343D01*
X132894511Y-65084912D01*
X132894498Y-65084919D01*
X132771584Y-65167048D01*
X132771580Y-65167051D01*
X132667051Y-65271580D01*
X132667048Y-65271584D01*
X132584919Y-65394498D01*
X132584912Y-65394511D01*
X132528343Y-65531082D01*
X132528340Y-65531092D01*
X132499500Y-65676079D01*
X132499500Y-65676082D01*
X132499500Y-65823918D01*
X132499500Y-65823920D01*
X132499499Y-65823920D01*
X106508912Y-65823920D01*
X106508016Y-65670715D01*
X106500502Y-64385826D01*
X106500500Y-64385101D01*
X106500500Y-50941750D01*
X106520185Y-50874711D01*
X106572989Y-50828956D01*
X106642147Y-50819012D01*
X106705703Y-50848037D01*
X106742205Y-50902745D01*
X106776592Y-51006516D01*
X106867160Y-51153350D01*
X106989150Y-51275340D01*
X107135984Y-51365908D01*
X107299747Y-51420174D01*
X107400823Y-51430500D01*
X107974176Y-51430499D01*
X107974184Y-51430498D01*
X107974187Y-51430498D01*
X108029530Y-51424844D01*
X108075253Y-51420174D01*
X108239016Y-51365908D01*
X108385850Y-51275340D01*
X108431871Y-51229319D01*
X108458798Y-51214615D01*
X108484617Y-51198023D01*
X108490817Y-51197131D01*
X108493194Y-51195834D01*
X108519552Y-51193000D01*
X108645500Y-51193000D01*
X108712539Y-51212685D01*
X108758294Y-51265489D01*
X108769500Y-51317000D01*
X108769500Y-51465701D01*
X108772401Y-51502567D01*
X108772402Y-51502573D01*
X108818254Y-51660393D01*
X108818255Y-51660396D01*
X108901917Y-51801862D01*
X108901923Y-51801870D01*
X109018129Y-51918076D01*
X109018133Y-51918079D01*
X109018135Y-51918081D01*
X109159602Y-52001744D01*
X109194383Y-52011849D01*
X109317426Y-52047597D01*
X109317429Y-52047597D01*
X109317431Y-52047598D01*
X109354306Y-52050500D01*
X109354314Y-52050500D01*
X109785686Y-52050500D01*
X109785694Y-52050500D01*
X109822569Y-52047598D01*
X109947640Y-52011261D01*
X110017509Y-52011460D01*
X110063436Y-52036623D01*
X110136653Y-52100067D01*
X110136656Y-52100068D01*
X110136657Y-52100069D01*
X110254087Y-52153699D01*
X110267530Y-52159838D01*
X110334569Y-52179523D01*
X110334573Y-52179524D01*
X110476989Y-52200000D01*
X110476992Y-52200000D01*
X112473015Y-52200000D01*
X112484788Y-52199588D01*
X112508343Y-52198764D01*
X112525641Y-52197552D01*
X112560826Y-52193845D01*
X112698992Y-52153702D01*
X112760109Y-52126000D01*
X112761852Y-52125257D01*
X112762624Y-52124860D01*
X112762630Y-52124858D01*
X112762635Y-52124856D01*
X112883895Y-52047412D01*
X112978424Y-51938942D01*
X113016365Y-51880271D01*
X113076504Y-51749570D01*
X113097386Y-51607213D01*
X113097537Y-51554248D01*
X113097585Y-51537521D01*
X113097585Y-51537344D01*
X113097585Y-51537338D01*
X113086212Y-51456621D01*
X113085000Y-51439322D01*
X113085000Y-50097007D01*
X113089918Y-50062431D01*
X113091492Y-50057010D01*
X113103839Y-50028474D01*
X113126342Y-49990423D01*
X113132495Y-49981021D01*
X113149274Y-49957754D01*
X113155567Y-49949027D01*
X113215338Y-49818150D01*
X113235023Y-49751111D01*
X113235024Y-49751107D01*
X113255500Y-49608691D01*
X113255500Y-47279272D01*
X113241977Y-47163131D01*
X113228886Y-47107677D01*
X113189042Y-46997752D01*
X113162872Y-46945412D01*
X113160715Y-46941149D01*
X113160465Y-46940662D01*
X113159678Y-46939122D01*
X113157581Y-46935071D01*
X113157577Y-46935063D01*
X113119816Y-46882721D01*
X113123754Y-46879990D01*
X113105980Y-46854366D01*
X113060746Y-46798183D01*
X113029924Y-46773322D01*
X113024954Y-46768172D01*
X112987417Y-46739012D01*
X112987417Y-46739011D01*
X112986523Y-46738317D01*
X112948754Y-46707853D01*
X112942603Y-46704199D01*
X112931305Y-46695422D01*
X112911335Y-46679909D01*
X112911332Y-46679908D01*
X112878596Y-46667027D01*
X112823420Y-46624163D01*
X112800178Y-46558272D01*
X112800000Y-46551639D01*
X112800000Y-46400000D01*
X117200000Y-46400000D01*
X118025500Y-46400000D01*
X118092539Y-46419685D01*
G37*
%TD.AperFunction*%
%TA.AperFunction,Conductor*%
G36*
X106700715Y-46638282D02*
G01*
X106810956Y-46724185D01*
X108196866Y-47516133D01*
X108218226Y-47538336D01*
X108241076Y-47559011D01*
X108243124Y-47564217D01*
X108245306Y-47566485D01*
X108255045Y-47591423D01*
X108256673Y-47597444D01*
X108257250Y-47601017D01*
X108276452Y-47679489D01*
X108289560Y-47719046D01*
X108290464Y-47722389D01*
X108290411Y-47724826D01*
X108294121Y-47742152D01*
X108294356Y-47744451D01*
X108294999Y-47757060D01*
X108294999Y-48742931D01*
X108294357Y-48755534D01*
X108292713Y-48771625D01*
X108291206Y-48782007D01*
X108268892Y-48900301D01*
X108265431Y-48965667D01*
X108276276Y-49099836D01*
X108276276Y-49099838D01*
X108276277Y-49099839D01*
X108326559Y-49234648D01*
X108360044Y-49295971D01*
X108385505Y-49329983D01*
X108409922Y-49395447D01*
X108395070Y-49463720D01*
X108345665Y-49513125D01*
X108277392Y-49527977D01*
X108246346Y-49519927D01*
X108245871Y-49521364D01*
X108239017Y-49519093D01*
X108239016Y-49519092D01*
X108075253Y-49464826D01*
X108075251Y-49464825D01*
X107974178Y-49454500D01*
X107400830Y-49454500D01*
X107400812Y-49454501D01*
X107299747Y-49464825D01*
X107135984Y-49519092D01*
X107135981Y-49519093D01*
X106989148Y-49609661D01*
X106867161Y-49731648D01*
X106776593Y-49878481D01*
X106776592Y-49878484D01*
X106742615Y-49981021D01*
X106742206Y-49982254D01*
X106702433Y-50039699D01*
X106637917Y-50066522D01*
X106569141Y-50054207D01*
X106517942Y-50006664D01*
X106500500Y-49943250D01*
X106500500Y-46736094D01*
X106520185Y-46669055D01*
X106572989Y-46623300D01*
X106642147Y-46613356D01*
X106700715Y-46638282D01*
G37*
%TD.AperFunction*%
%TD*%
%TA.AperFunction,Conductor*%
%TO.N,GNDPWR*%
G36*
X139104683Y-42527787D02*
G01*
X139153296Y-42577972D01*
X139167061Y-42646473D01*
X139154442Y-42691115D01*
X139002129Y-42995741D01*
X138997549Y-43004084D01*
X138250000Y-44249999D01*
X138250000Y-44250000D01*
X138250000Y-51500000D01*
X139000000Y-52000000D01*
X157249999Y-52000000D01*
X157250000Y-52000000D01*
X158250000Y-51250000D01*
X158492283Y-47615751D01*
X158493963Y-47611178D01*
X158493270Y-47606353D01*
X158505899Y-47578698D01*
X158516383Y-47550170D01*
X158520270Y-47547230D01*
X158522295Y-47542797D01*
X158547870Y-47526361D01*
X158572114Y-47508029D01*
X158578099Y-47506934D01*
X158581073Y-47505023D01*
X158616008Y-47500000D01*
X158731484Y-47500000D01*
X158770488Y-47506294D01*
X158775724Y-47508029D01*
X158872203Y-47539999D01*
X158974991Y-47550500D01*
X160025008Y-47550499D01*
X160025016Y-47550498D01*
X160025019Y-47550498D01*
X160100406Y-47542797D01*
X160127797Y-47539999D01*
X160224276Y-47508029D01*
X160229512Y-47506294D01*
X160232304Y-47505843D01*
X160233581Y-47505023D01*
X160268516Y-47500000D01*
X160494839Y-47500000D01*
X160505136Y-47500428D01*
X160905971Y-47533830D01*
X160971143Y-47559014D01*
X160983353Y-47569721D01*
X161056344Y-47642712D01*
X161205666Y-47734814D01*
X161372203Y-47789999D01*
X161474991Y-47800500D01*
X162525008Y-47800499D01*
X162525016Y-47800498D01*
X162525019Y-47800498D01*
X162581302Y-47794748D01*
X162627797Y-47789999D01*
X162794334Y-47734814D01*
X162821904Y-47717808D01*
X162889293Y-47699367D01*
X162897270Y-47699772D01*
X163500000Y-47750000D01*
X163876000Y-47750000D01*
X163943039Y-47769685D01*
X163988794Y-47822489D01*
X164000000Y-47874000D01*
X164000000Y-49698638D01*
X163980315Y-49765677D01*
X163963681Y-49786319D01*
X163536319Y-50213681D01*
X163474996Y-50247166D01*
X163448638Y-50250000D01*
X162906366Y-50250000D01*
X162839327Y-50230315D01*
X162800827Y-50191096D01*
X162717712Y-50056344D01*
X162593657Y-49932289D01*
X162593656Y-49932288D01*
X162444334Y-49840186D01*
X162277797Y-49785001D01*
X162277795Y-49785000D01*
X162175010Y-49774500D01*
X161399998Y-49774500D01*
X161399980Y-49774501D01*
X161297203Y-49785000D01*
X161297200Y-49785001D01*
X161130668Y-49840185D01*
X161130663Y-49840187D01*
X160981342Y-49932289D01*
X160857289Y-50056342D01*
X160765187Y-50205663D01*
X160765186Y-50205666D01*
X160710001Y-50372203D01*
X160710001Y-50372204D01*
X160710000Y-50372204D01*
X160699500Y-50474983D01*
X160699500Y-51525001D01*
X160699501Y-51525019D01*
X160710000Y-51627796D01*
X160710001Y-51627799D01*
X160765185Y-51794331D01*
X160765187Y-51794336D01*
X160857289Y-51943657D01*
X160963681Y-52050049D01*
X160997166Y-52111372D01*
X161000000Y-52137730D01*
X161000000Y-53190402D01*
X160980315Y-53257441D01*
X160953462Y-53287230D01*
X159750000Y-54250000D01*
X159750000Y-55598174D01*
X159749555Y-55606093D01*
X159749695Y-55606101D01*
X159749500Y-55609574D01*
X159749500Y-55890430D01*
X159749695Y-55893904D01*
X159749554Y-55893911D01*
X159750000Y-55901828D01*
X159750000Y-56750000D01*
X160234952Y-57234952D01*
X160244218Y-57245320D01*
X160382583Y-57418824D01*
X160581175Y-57617416D01*
X160754678Y-57755780D01*
X160765046Y-57765046D01*
X161000000Y-58000000D01*
X161130806Y-58000000D01*
X161184606Y-58012279D01*
X161291592Y-58063801D01*
X161490680Y-58133465D01*
X161556670Y-58156556D01*
X161556682Y-58156560D01*
X161830491Y-58219055D01*
X161830497Y-58219055D01*
X161830505Y-58219057D01*
X162016547Y-58240018D01*
X162109569Y-58250499D01*
X162109572Y-58250500D01*
X162109575Y-58250500D01*
X162390428Y-58250500D01*
X162390429Y-58250499D01*
X162570035Y-58230263D01*
X162669494Y-58219057D01*
X162669499Y-58219056D01*
X162669509Y-58219055D01*
X162943318Y-58156560D01*
X163208408Y-58063801D01*
X163315393Y-58012279D01*
X163369194Y-58000000D01*
X164750000Y-58000000D01*
X165287819Y-57462181D01*
X165349142Y-57428696D01*
X165418834Y-57433680D01*
X165474767Y-57475552D01*
X165499184Y-57541016D01*
X165499500Y-57549862D01*
X165499500Y-62928338D01*
X165479815Y-62995377D01*
X165427011Y-63041132D01*
X165379498Y-63052274D01*
X159313528Y-63247950D01*
X159307932Y-63246501D01*
X159302305Y-63247803D01*
X159274496Y-63237844D01*
X159245889Y-63230437D01*
X159240548Y-63225686D01*
X159236527Y-63224246D01*
X159211245Y-63199619D01*
X159150059Y-63120077D01*
X159130643Y-63083485D01*
X159085908Y-62948484D01*
X158995340Y-62801650D01*
X158873350Y-62679660D01*
X158873346Y-62679657D01*
X158774569Y-62618730D01*
X158741382Y-62588797D01*
X156775715Y-60033429D01*
X156750442Y-59968290D01*
X156750000Y-59957825D01*
X156750000Y-57750000D01*
X156250000Y-57250000D01*
X152778352Y-57250000D01*
X152711313Y-57230315D01*
X152675247Y-57194887D01*
X152671786Y-57189707D01*
X152560292Y-57078213D01*
X152560288Y-57078210D01*
X152429185Y-56990609D01*
X152429172Y-56990602D01*
X152283501Y-56930264D01*
X152283489Y-56930261D01*
X152128845Y-56899500D01*
X152128842Y-56899500D01*
X151971158Y-56899500D01*
X151971155Y-56899500D01*
X151816510Y-56930261D01*
X151816498Y-56930264D01*
X151670827Y-56990602D01*
X151670814Y-56990609D01*
X151539125Y-57078602D01*
X151472447Y-57099480D01*
X151470234Y-57099500D01*
X150479766Y-57099500D01*
X150412727Y-57079815D01*
X150410875Y-57078602D01*
X150279185Y-56990609D01*
X150279172Y-56990602D01*
X150133501Y-56930264D01*
X150133489Y-56930261D01*
X149978845Y-56899500D01*
X149978842Y-56899500D01*
X149821158Y-56899500D01*
X149821155Y-56899500D01*
X149666510Y-56930261D01*
X149666498Y-56930264D01*
X149520827Y-56990602D01*
X149520814Y-56990609D01*
X149389711Y-57078210D01*
X149389707Y-57078213D01*
X149278213Y-57189707D01*
X149274753Y-57194887D01*
X149221142Y-57239694D01*
X149171648Y-57250000D01*
X141835035Y-57250000D01*
X141767996Y-57230315D01*
X141731932Y-57194890D01*
X141682949Y-57121581D01*
X141578419Y-57017051D01*
X141578415Y-57017048D01*
X141455501Y-56934919D01*
X141455488Y-56934912D01*
X141318917Y-56878343D01*
X141318907Y-56878340D01*
X141173920Y-56849500D01*
X141173918Y-56849500D01*
X141026082Y-56849500D01*
X141026080Y-56849500D01*
X140881092Y-56878340D01*
X140881082Y-56878343D01*
X140744511Y-56934912D01*
X140744498Y-56934919D01*
X140679124Y-56978602D01*
X140612447Y-56999480D01*
X140610233Y-56999500D01*
X139689767Y-56999500D01*
X139622728Y-56979815D01*
X139620876Y-56978602D01*
X139555501Y-56934919D01*
X139555488Y-56934912D01*
X139418917Y-56878343D01*
X139418907Y-56878340D01*
X139273920Y-56849500D01*
X139273918Y-56849500D01*
X139126082Y-56849500D01*
X139126080Y-56849500D01*
X138981092Y-56878340D01*
X138981082Y-56878343D01*
X138844511Y-56934912D01*
X138844498Y-56934919D01*
X138721584Y-57017048D01*
X138721580Y-57017051D01*
X138617051Y-57121580D01*
X138617048Y-57121584D01*
X138534919Y-57244498D01*
X138534912Y-57244511D01*
X138476011Y-57386714D01*
X138474848Y-57386232D01*
X138472407Y-57389955D01*
X138470399Y-57400784D01*
X138453590Y-57418659D01*
X138440140Y-57439179D01*
X138428828Y-57444995D01*
X138422538Y-57451686D01*
X138389864Y-57465032D01*
X138264808Y-57496297D01*
X138234733Y-57500000D01*
X134296592Y-57500000D01*
X134229553Y-57480315D01*
X134214937Y-57469319D01*
X132292345Y-55787050D01*
X132254855Y-55728091D01*
X132250000Y-55693731D01*
X132250000Y-54615946D01*
X132269685Y-54548907D01*
X132308904Y-54510407D01*
X132418656Y-54442712D01*
X132542712Y-54318656D01*
X132634814Y-54169334D01*
X132689999Y-54002797D01*
X132700500Y-53900009D01*
X132700499Y-52899992D01*
X132689999Y-52797203D01*
X132634814Y-52630666D01*
X132542712Y-52481344D01*
X132418656Y-52357288D01*
X132308903Y-52289592D01*
X132302078Y-52282004D01*
X132292797Y-52277766D01*
X132279110Y-52256469D01*
X132262178Y-52237644D01*
X132259533Y-52226006D01*
X132255023Y-52218988D01*
X132250000Y-52184053D01*
X132250000Y-52154265D01*
X132269685Y-52087226D01*
X132308903Y-52048727D01*
X132318656Y-52042712D01*
X132442712Y-51918656D01*
X132534814Y-51769334D01*
X132589999Y-51602797D01*
X132600500Y-51500009D01*
X132600499Y-50499992D01*
X132589999Y-50397203D01*
X132534814Y-50230666D01*
X132442712Y-50081344D01*
X132318656Y-49957288D01*
X132318653Y-49957286D01*
X132308899Y-49951269D01*
X132262177Y-49899320D01*
X132250000Y-49845733D01*
X132250000Y-47500000D01*
X127760730Y-47500000D01*
X127693691Y-47480315D01*
X127647936Y-47427511D01*
X127637992Y-47358353D01*
X127667017Y-47294797D01*
X127673049Y-47288319D01*
X127692712Y-47268656D01*
X127742712Y-47218656D01*
X127834814Y-47069334D01*
X127889999Y-46902797D01*
X127900500Y-46800009D01*
X127900499Y-44699992D01*
X127889999Y-44597203D01*
X127858396Y-44501834D01*
X127855995Y-44432010D01*
X127891726Y-44371968D01*
X127954246Y-44340774D01*
X128023706Y-44348334D01*
X128063784Y-44375152D01*
X128521586Y-44832954D01*
X128551058Y-44852645D01*
X128595270Y-44882186D01*
X128644505Y-44915084D01*
X128644506Y-44915084D01*
X128644507Y-44915085D01*
X128644509Y-44915086D01*
X128781082Y-44971656D01*
X128781087Y-44971658D01*
X128781091Y-44971658D01*
X128781092Y-44971659D01*
X128926079Y-45000500D01*
X128926082Y-45000500D01*
X128926083Y-45000500D01*
X129073917Y-45000500D01*
X132057770Y-45000500D01*
X132124809Y-45020185D01*
X132145451Y-45036819D01*
X132638181Y-45529549D01*
X132671666Y-45590872D01*
X132674342Y-45615734D01*
X132674405Y-45615732D01*
X132674440Y-45616642D01*
X132674500Y-45617193D01*
X132674500Y-45618154D01*
X132677291Y-45653627D01*
X132721380Y-45805385D01*
X132721382Y-45805390D01*
X132801827Y-45941416D01*
X132801834Y-45941425D01*
X132913574Y-46053165D01*
X132913583Y-46053172D01*
X132950477Y-46074991D01*
X133049610Y-46133618D01*
X133201373Y-46177709D01*
X133236837Y-46180500D01*
X133613162Y-46180499D01*
X133648627Y-46177709D01*
X133800390Y-46133618D01*
X133936420Y-46053170D01*
X134048170Y-45941420D01*
X134128618Y-45805390D01*
X134172709Y-45653627D01*
X134175500Y-45618163D01*
X134175500Y-45328918D01*
X134175500Y-45181083D01*
X134175500Y-45173488D01*
X134175499Y-45173470D01*
X134175499Y-44891849D01*
X134175498Y-44891824D01*
X134174739Y-44882183D01*
X134172709Y-44856373D01*
X134128618Y-44704610D01*
X134048170Y-44568580D01*
X134048168Y-44568578D01*
X134048165Y-44568574D01*
X133936425Y-44456834D01*
X133936416Y-44456827D01*
X133800390Y-44376382D01*
X133800385Y-44376380D01*
X133648633Y-44332292D01*
X133648620Y-44332290D01*
X133613170Y-44329500D01*
X133613163Y-44329500D01*
X133612229Y-44329500D01*
X133612086Y-44329458D01*
X133610735Y-44329405D01*
X133610738Y-44329309D01*
X133610736Y-44329309D01*
X133610741Y-44329238D01*
X133610748Y-44329065D01*
X133582788Y-44320855D01*
X133552802Y-44314332D01*
X133547786Y-44310577D01*
X133545190Y-44309815D01*
X133524548Y-44293181D01*
X133523547Y-44292180D01*
X133490062Y-44230857D01*
X133495046Y-44161165D01*
X133536918Y-44105232D01*
X133602382Y-44080815D01*
X133611228Y-44080499D01*
X133772871Y-44080499D01*
X133772872Y-44080499D01*
X133832483Y-44074091D01*
X133967331Y-44023796D01*
X134082546Y-43937546D01*
X134168796Y-43822331D01*
X134219091Y-43687483D01*
X134222561Y-43655201D01*
X134249298Y-43590655D01*
X134277059Y-43565293D01*
X134750000Y-43250000D01*
X134750000Y-42867302D01*
X134769685Y-42800263D01*
X134822489Y-42754508D01*
X134867120Y-42743493D01*
X139036656Y-42511852D01*
X139104683Y-42527787D01*
G37*
%TD.AperFunction*%
%TD*%
M02*
