M48
; DRILL file {KiCad 9.0.5} date 2026-05-18T12:14:29+0800
; FORMAT={-:-/ absolute / metric / decimal}
; #@! TF.CreationDate,2026-05-18T12:14:29+08:00
; #@! TF.GenerationSoftware,Kicad,Pcbnew,9.0.5
; #@! TF.FileFunction,Plated,1,2,PTH
FMAT,2
METRIC
; #@! TA.AperFunction,Plated,PTH,ViaDrill
T1C0.300
; #@! TA.AperFunction,Plated,PTH,ViaDrill
T2C0.600
; #@! TA.AperFunction,Plated,PTH,ComponentDrill
T3C1.000
; #@! TA.AperFunction,Plated,PTH,ComponentDrill
T4C1.900
%
G90
G05
T1
X14.8Y-65.0
X14.8Y-66.8
X14.819Y-65.891
X15.0Y-38.75
X15.0Y-40.0
X15.0Y-41.25
X15.0Y-42.5
X15.0Y-43.75
X15.0Y-45.0
X15.0Y-46.25
X15.0Y-47.5
X15.0Y-48.75
X15.0Y-77.4
X15.0Y-78.2
X15.6Y-65.8
X15.6Y-66.8
X15.975Y-40.07
X15.975Y-43.82
X15.975Y-47.57
X16.0Y-38.75
X16.0Y-41.25
X16.0Y-42.5
X16.0Y-45.0
X16.0Y-46.25
X16.0Y-48.75
X16.0Y-77.4
X16.0Y-78.2
X16.4Y-66.8
X16.5Y-53.0
X16.5Y-54.25
X16.5Y-55.5
X16.5Y-56.5
X16.5Y-57.75
X16.5Y-59.0
X17.0Y-38.75
X17.0Y-40.0
X17.0Y-41.25
X17.0Y-42.5
X17.0Y-43.75
X17.0Y-45.0
X17.0Y-46.25
X17.0Y-47.5
X17.0Y-48.75
X17.2Y-77.4
X17.2Y-78.2
X17.475Y-54.32
X17.475Y-57.82
X17.5Y-53.0
X17.5Y-55.5
X17.5Y-56.5
X17.5Y-59.0
X17.8Y-47.2
X17.817Y-46.255
X18.0Y-38.75
X18.0Y-40.0
X18.0Y-41.25
X18.0Y-42.5
X18.0Y-43.75
X18.0Y-45.0
X18.4Y-77.4
X18.5Y-54.25
X18.5Y-55.5
X18.5Y-56.5
X18.5Y-57.75
X18.5Y-59.0
X18.8Y-47.2
X18.8Y-78.2
X18.817Y-46.255
X18.975Y-40.07
X18.975Y-43.82
X19.0Y-38.75
X19.0Y-41.25
X19.0Y-42.5
X19.0Y-45.0
X19.4Y-77.4
X19.5Y-56.5
X19.5Y-57.75
X19.5Y-59.0
X20.0Y-38.75
X20.0Y-40.0
X20.0Y-41.25
X20.2Y-78.2
X20.25Y-65.4
X20.25Y-66.6
X20.25Y-67.55
X20.25Y-68.8
X20.475Y-57.82
X20.5Y-56.5
X20.5Y-59.0
X20.6Y-77.4
X21.2Y-78.2
X21.225Y-67.62
X21.25Y-65.4
X21.25Y-66.6
X21.25Y-68.8
X21.4Y-38.8
X21.5Y-56.5
X21.5Y-57.75
X22.25Y-65.4
X22.25Y-66.6
X22.25Y-67.55
X22.25Y-68.8
X22.4Y-38.8
X22.4Y-78.2
X23.25Y-50.25
X23.25Y-51.5
X23.25Y-52.75
X23.4Y-38.8
X23.4Y-65.4
X23.4Y-66.6
X23.4Y-67.55
X23.4Y-68.8
X24.225Y-51.57
X24.25Y-50.25
X24.25Y-52.75
X24.375Y-56.07
X24.4Y-54.75
X24.6Y-65.4
X24.6Y-66.6
X24.6Y-67.55
X24.6Y-68.8
X24.62Y-40.145
X25.25Y-50.25
X25.25Y-51.5
X25.25Y-52.75
X25.4Y-54.75
X25.4Y-56.0
X26.17Y-63.86
X26.5Y-59.5
X26.5Y-60.75
X26.5Y-62.0
X26.875Y-49.665
X27.255Y-72.11
X27.46Y-68.42
X27.46Y-69.99
X27.475Y-60.82
X27.5Y-59.5
X27.5Y-62.0
X27.76Y-69.28
X28.496Y-68.564
X28.5Y-38.75
X28.5Y-40.0
X28.5Y-41.25
X28.5Y-59.5
X28.5Y-60.75
X28.5Y-62.0
X28.59Y-69.57
X28.92Y-56.41
X29.17Y-70.02
X29.2Y-59.5
X29.2Y-60.75
X29.2Y-62.0
X29.475Y-40.07
X29.5Y-38.75
X29.5Y-41.25
X30.0Y-59.5
X30.0Y-60.75
X30.0Y-62.0
X30.12Y-69.6
X30.5Y-38.75
X30.5Y-40.0
X30.5Y-41.25
X30.605Y-49.72
X30.975Y-60.82
X31.0Y-59.5
X31.0Y-62.0
X31.75Y-38.75
X31.75Y-40.0
X31.75Y-41.25
X32.0Y-59.5
X32.0Y-60.75
X32.0Y-62.0
X32.725Y-40.07
X32.75Y-38.75
X32.75Y-41.25
X33.4Y-62.6
X33.75Y-38.75
X33.75Y-40.0
X33.75Y-41.25
X33.75Y-78.25
X33.88Y-59.0
X34.4Y-62.6
X34.75Y-78.25
X35.025Y-47.68
X35.025Y-48.93
X35.15Y-38.8
X35.2Y-50.35
X35.2Y-51.6
X35.25Y-53.25
X35.25Y-54.5
X35.25Y-55.75
X35.4Y-62.6
X35.75Y-58.75
X35.75Y-59.5
X35.75Y-60.5
X35.75Y-78.25
X36.0Y-49.0
X36.025Y-47.68
X36.15Y-38.8
X36.225Y-54.57
X36.25Y-53.25
X36.25Y-55.75
X36.725Y-59.5
X36.75Y-58.75
X36.75Y-60.5
X36.75Y-78.25
X36.8Y-62.6
X37.0Y-47.75
X37.0Y-49.0
X37.15Y-38.8
X37.25Y-53.25
X37.25Y-54.5
X37.25Y-55.75
X37.75Y-58.75
X37.75Y-59.5
X37.75Y-60.5
X37.75Y-73.75
X37.75Y-75.0
X37.75Y-76.0
X37.75Y-77.25
X37.75Y-78.25
X37.8Y-62.6
X38.4Y-38.8
X38.5Y-53.25
X38.5Y-54.5
X38.5Y-55.75
X38.51Y-57.7
X38.725Y-73.82
X38.725Y-77.32
X38.75Y-58.75
X38.75Y-59.5
X38.75Y-60.5
X38.75Y-75.0
X38.75Y-76.0
X38.75Y-78.25
X38.8Y-62.6
X39.4Y-38.8
X39.475Y-54.57
X39.5Y-53.25
X39.5Y-55.75
X39.75Y-49.25
X39.75Y-50.5
X39.75Y-51.75
X39.75Y-73.75
X39.75Y-75.0
X39.75Y-76.0
X39.75Y-77.25
X39.75Y-78.25
X40.0Y-67.75
X40.0Y-68.5
X40.4Y-38.8
X40.5Y-53.25
X40.5Y-54.5
X40.5Y-55.75
X40.725Y-50.57
X40.75Y-49.25
X40.75Y-51.75
X40.75Y-73.75
X40.75Y-75.0
X40.75Y-76.0
X40.75Y-77.25
X40.75Y-78.25
X41.0Y-67.75
X41.0Y-68.5
X41.6Y-38.8
X41.725Y-73.82
X41.725Y-77.32
X41.75Y-49.25
X41.75Y-50.5
X41.75Y-51.75
X41.75Y-75.0
X41.75Y-76.0
X41.75Y-78.25
X42.0Y-67.75
X42.0Y-68.5
X42.0Y-69.5
X42.5Y-60.25
X42.5Y-61.0
X42.5Y-62.25
X42.5Y-63.5
X42.5Y-64.5
X42.5Y-65.75
X42.5Y-67.0
X42.6Y-38.8
X42.75Y-72.75
X42.75Y-73.75
X42.75Y-75.0
X42.75Y-76.0
X42.75Y-77.25
X42.75Y-78.25
X43.0Y-67.75
X43.0Y-68.5
X43.0Y-69.5
X43.475Y-62.32
X43.475Y-65.82
X43.5Y-60.25
X43.5Y-61.0
X43.5Y-63.5
X43.5Y-64.5
X43.5Y-67.0
X43.6Y-38.8
X43.75Y-72.75
X43.75Y-73.75
X43.75Y-75.0
X43.75Y-76.0
X43.75Y-77.25
X43.75Y-78.25
X44.0Y-67.75
X44.0Y-68.5
X44.5Y-60.25
X44.5Y-61.0
X44.5Y-62.25
X44.5Y-63.5
X44.5Y-64.5
X44.5Y-65.75
X44.5Y-67.0
X44.725Y-73.82
X44.725Y-77.32
X44.75Y-72.75
X44.75Y-75.0
X44.75Y-76.0
X44.75Y-78.25
X45.2Y-71.8
X45.75Y-72.75
X45.75Y-73.75
X45.75Y-75.0
X45.75Y-76.0
X45.75Y-77.25
X45.75Y-78.25
X46.2Y-71.8
X46.25Y-38.5
X46.25Y-39.75
X46.25Y-41.0
X46.4Y-70.8
X46.75Y-78.25
X47.225Y-39.82
X47.25Y-38.5
X47.25Y-41.0
X47.25Y-53.09
X47.26Y-55.04
X47.75Y-78.25
X48.25Y-38.5
X48.25Y-39.75
X48.25Y-41.0
X48.51Y-54.48
X48.58Y-53.11
X48.75Y-78.25
X49.25Y-38.5
X49.25Y-39.75
X49.25Y-41.0
X49.75Y-78.25
X50.225Y-39.82
X50.25Y-38.5
X50.25Y-41.0
X51.25Y-38.5
X51.25Y-39.75
X51.25Y-41.0
X51.8Y-46.8
X51.822Y-57.73
X51.872Y-59.62
X52.325Y-69.62
X52.35Y-68.3
X52.35Y-70.8
X52.5Y-72.0
X52.5Y-73.25
X52.5Y-74.5
X52.5Y-75.5
X52.5Y-76.75
X52.5Y-78.0
X52.72Y-64.03
X53.35Y-68.3
X53.35Y-69.55
X53.35Y-70.8
X53.37Y-54.68
X53.4Y-46.805
X53.475Y-73.32
X53.475Y-76.82
X53.5Y-72.0
X53.5Y-74.5
X53.5Y-75.5
X53.5Y-78.0
X54.5Y-72.0
X54.5Y-73.25
X54.5Y-74.5
X54.5Y-75.5
X54.5Y-76.75
X54.5Y-78.0
X54.6Y-68.3
X54.6Y-69.55
X54.6Y-70.8
X55.165Y-47.535
X55.6Y-68.1
X55.6Y-69.35
X55.6Y-70.6
X55.75Y-72.0
X55.75Y-73.25
X55.75Y-74.5
X55.75Y-75.5
X55.75Y-76.75
X55.75Y-78.0
X55.82Y-64.03
X56.725Y-73.32
X56.725Y-76.82
X56.75Y-72.0
X56.75Y-74.5
X56.75Y-75.5
X56.75Y-78.0
X57.75Y-55.6
X57.75Y-72.0
X57.75Y-73.25
X57.75Y-74.5
X57.75Y-75.5
X57.75Y-76.75
X57.75Y-78.0
X58.75Y-72.0
X58.75Y-73.25
X58.75Y-74.5
X58.75Y-75.5
X58.75Y-76.75
X58.75Y-78.0
X59.725Y-73.32
X59.725Y-76.82
X59.75Y-72.0
X59.75Y-74.5
X59.75Y-75.5
X59.75Y-78.0
X60.75Y-72.0
X60.75Y-73.25
X60.75Y-74.5
X60.75Y-75.5
X60.75Y-76.75
X60.75Y-78.0
X61.5Y-72.0
X61.5Y-73.25
X61.5Y-74.5
X61.5Y-75.5
X61.5Y-76.75
X61.5Y-78.0
X62.475Y-73.32
X62.475Y-76.82
X62.5Y-72.0
X62.5Y-74.5
X62.5Y-75.5
X62.5Y-78.0
X63.04Y-43.54
X63.5Y-72.0
X63.5Y-73.25
X63.5Y-74.5
X63.5Y-75.5
X63.5Y-76.75
X63.5Y-78.0
X63.76Y-58.43
X63.93Y-59.75
X64.5Y-71.75
X64.5Y-73.0
X64.5Y-74.25
X64.5Y-75.25
X64.5Y-76.5
X64.5Y-77.75
X64.8Y-50.63
X65.475Y-73.07
X65.475Y-76.57
X65.5Y-71.75
X65.5Y-74.25
X65.5Y-75.25
X65.5Y-77.75
X66.0Y-38.5
X66.0Y-39.75
X66.0Y-41.0
X66.0Y-41.75
X66.0Y-43.0
X66.0Y-44.25
X66.5Y-71.75
X66.5Y-73.0
X66.5Y-74.25
X66.5Y-75.25
X66.5Y-76.5
X66.5Y-77.75
X66.515Y-47.535
X66.975Y-39.82
X66.975Y-43.07
X67.0Y-38.5
X67.0Y-41.0
X67.0Y-41.75
X67.0Y-44.25
X67.5Y-71.75
X67.5Y-73.0
X67.5Y-74.25
X67.5Y-75.25
X67.5Y-76.5
X67.5Y-77.75
X68.0Y-38.5
X68.0Y-39.75
X68.0Y-41.0
X68.0Y-41.75
X68.0Y-43.0
X68.0Y-44.25
X68.0Y-46.2
X68.05Y-45.2
X68.25Y-54.25
X68.25Y-55.5
X68.25Y-56.5
X68.25Y-57.5
X68.25Y-58.5
X68.475Y-73.07
X68.475Y-76.57
X68.5Y-71.75
X68.5Y-74.25
X68.5Y-75.25
X68.5Y-77.75
X69.0Y-38.5
X69.0Y-39.75
X69.0Y-41.0
X69.0Y-41.75
X69.0Y-43.0
X69.0Y-44.25
X69.0Y-46.2
X69.05Y-45.2
X69.25Y-55.5
X69.25Y-56.5
X69.25Y-57.5
X69.25Y-58.5
X69.5Y-71.75
X69.5Y-73.0
X69.5Y-74.25
X69.5Y-75.25
X69.5Y-76.5
X69.5Y-77.75
X69.975Y-39.82
X69.975Y-43.07
X70.0Y-38.5
X70.0Y-41.0
X70.0Y-41.75
X70.0Y-44.25
X70.0Y-46.2
X70.05Y-45.2
X70.25Y-55.5
X70.25Y-56.5
X70.25Y-57.5
X70.25Y-58.5
X70.5Y-71.75
X70.5Y-73.0
X70.5Y-74.25
X70.5Y-75.25
X70.5Y-76.5
X70.5Y-77.75
X71.0Y-38.5
X71.0Y-39.75
X71.0Y-41.0
X71.0Y-41.75
X71.0Y-43.0
X71.0Y-44.25
X71.0Y-46.2
X71.05Y-45.2
X71.25Y-55.5
X71.25Y-56.5
X71.25Y-57.5
X71.25Y-58.5
X71.475Y-73.07
X71.475Y-76.57
X71.5Y-71.75
X71.5Y-74.25
X71.5Y-75.25
X71.5Y-77.75
X71.75Y-38.5
X71.75Y-39.75
X71.75Y-41.0
X71.75Y-41.75
X71.75Y-43.0
X71.75Y-44.25
X71.75Y-46.2
X71.8Y-45.2
X72.25Y-54.5
X72.25Y-55.5
X72.25Y-56.5
X72.25Y-57.5
X72.5Y-71.75
X72.5Y-73.0
X72.5Y-74.25
X72.5Y-75.25
X72.5Y-76.5
X72.5Y-77.75
X72.725Y-39.82
X72.725Y-43.07
X72.75Y-38.5
X72.75Y-41.0
X72.75Y-41.75
X72.75Y-44.25
X72.75Y-46.2
X72.8Y-45.2
X73.25Y-54.5
X73.25Y-55.5
X73.25Y-56.5
X73.25Y-57.5
X73.75Y-38.5
X73.75Y-39.75
X73.75Y-41.0
X73.75Y-41.75
X73.75Y-43.0
X73.75Y-44.25
X73.75Y-46.2
X73.8Y-45.2
T2
X16.59Y-50.92
T3
X6.22Y-65.83
X6.22Y-76.83
X77.9Y-59.25
X77.9Y-70.25
T4
X16.22Y-68.83
X16.22Y-73.83
X72.9Y-62.25
X72.9Y-67.25
M30
