%TF.GenerationSoftware,KiCad,Pcbnew,9.0.5*%
%TF.CreationDate,2026-05-18T12:14:24+08:00*%
%TF.ProjectId,__buck,70a76275-636b-42e6-9b69-6361645f7063,rev?*%
%TF.SameCoordinates,Original*%
%TF.FileFunction,Copper,L1,Top*%
%TF.FilePolarity,Positive*%
%FSLAX46Y46*%
G04 Gerber Fmt 4.6, Leading zero omitted, Abs format (unit mm)*
G04 Created by KiCad (PCBNEW 9.0.5) date 2026-05-18 12:14:24*
%MOMM*%
%LPD*%
G01*
G04 APERTURE LIST*
G04 Aperture macros list*
%AMRoundRect*
0 Rectangle with rounded corners*
0 $1 Rounding radius*
0 $2 $3 $4 $5 $6 $7 $8 $9 X,Y pos of 4 corners*
0 Add a 4 corners polygon primitive as box body*
4,1,4,$2,$3,$4,$5,$6,$7,$8,$9,$2,$3,0*
0 Add four circle primitives for the rounded corners*
1,1,$1+$1,$2,$3*
1,1,$1+$1,$4,$5*
1,1,$1+$1,$6,$7*
1,1,$1+$1,$8,$9*
0 Add four rect primitives between the rounded corners*
20,1,$1+$1,$2,$3,$4,$5,0*
20,1,$1+$1,$4,$5,$6,$7,0*
20,1,$1+$1,$6,$7,$8,$9,0*
20,1,$1+$1,$8,$9,$2,$3,0*%
G04 Aperture macros list end*
%TA.AperFunction,SMDPad,CuDef*%
%ADD10RoundRect,0.250000X0.300000X-0.300000X0.300000X0.300000X-0.300000X0.300000X-0.300000X-0.300000X0*%
%TD*%
%TA.AperFunction,SMDPad,CuDef*%
%ADD11RoundRect,0.200000X0.200000X0.275000X-0.200000X0.275000X-0.200000X-0.275000X0.200000X-0.275000X0*%
%TD*%
%TA.AperFunction,SMDPad,CuDef*%
%ADD12RoundRect,0.250000X-0.475000X0.337500X-0.475000X-0.337500X0.475000X-0.337500X0.475000X0.337500X0*%
%TD*%
%TA.AperFunction,SMDPad,CuDef*%
%ADD13RoundRect,0.200000X0.200000X0.800000X-0.200000X0.800000X-0.200000X-0.800000X0.200000X-0.800000X0*%
%TD*%
%TA.AperFunction,SMDPad,CuDef*%
%ADD14RoundRect,0.250000X1.100000X-0.325000X1.100000X0.325000X-1.100000X0.325000X-1.100000X-0.325000X0*%
%TD*%
%TA.AperFunction,SMDPad,CuDef*%
%ADD15RoundRect,0.250000X-1.000000X1.950000X-1.000000X-1.950000X1.000000X-1.950000X1.000000X1.950000X0*%
%TD*%
%TA.AperFunction,SMDPad,CuDef*%
%ADD16RoundRect,0.237500X0.237500X-0.250000X0.237500X0.250000X-0.237500X0.250000X-0.237500X-0.250000X0*%
%TD*%
%TA.AperFunction,SMDPad,CuDef*%
%ADD17RoundRect,0.225000X-0.250000X0.225000X-0.250000X-0.225000X0.250000X-0.225000X0.250000X0.225000X0*%
%TD*%
%TA.AperFunction,SMDPad,CuDef*%
%ADD18RoundRect,0.250000X-1.100000X0.412500X-1.100000X-0.412500X1.100000X-0.412500X1.100000X0.412500X0*%
%TD*%
%TA.AperFunction,SMDPad,CuDef*%
%ADD19RoundRect,0.125000X-0.125000X0.300000X-0.125000X-0.300000X0.125000X-0.300000X0.125000X0.300000X0*%
%TD*%
%TA.AperFunction,SMDPad,CuDef*%
%ADD20R,4.410000X4.550000*%
%TD*%
%TA.AperFunction,SMDPad,CuDef*%
%ADD21R,1.500000X2.200000*%
%TD*%
%TA.AperFunction,SMDPad,CuDef*%
%ADD22RoundRect,0.250000X1.000000X-1.950000X1.000000X1.950000X-1.000000X1.950000X-1.000000X-1.950000X0*%
%TD*%
%TA.AperFunction,SMDPad,CuDef*%
%ADD23RoundRect,0.100000X0.637500X0.100000X-0.637500X0.100000X-0.637500X-0.100000X0.637500X-0.100000X0*%
%TD*%
%TA.AperFunction,SMDPad,CuDef*%
%ADD24RoundRect,0.237500X-0.237500X0.250000X-0.237500X-0.250000X0.237500X-0.250000X0.237500X0.250000X0*%
%TD*%
%TA.AperFunction,SMDPad,CuDef*%
%ADD25RoundRect,0.250000X0.475000X-0.337500X0.475000X0.337500X-0.475000X0.337500X-0.475000X-0.337500X0*%
%TD*%
%TA.AperFunction,SMDPad,CuDef*%
%ADD26RoundRect,0.225000X0.250000X-0.225000X0.250000X0.225000X-0.250000X0.225000X-0.250000X-0.225000X0*%
%TD*%
%TA.AperFunction,SMDPad,CuDef*%
%ADD27RoundRect,0.150000X0.825000X0.150000X-0.825000X0.150000X-0.825000X-0.150000X0.825000X-0.150000X0*%
%TD*%
%TA.AperFunction,SMDPad,CuDef*%
%ADD28RoundRect,0.225000X0.225000X0.250000X-0.225000X0.250000X-0.225000X-0.250000X0.225000X-0.250000X0*%
%TD*%
%TA.AperFunction,SMDPad,CuDef*%
%ADD29R,2.950000X3.500000*%
%TD*%
%TA.AperFunction,SMDPad,CuDef*%
%ADD30RoundRect,0.225000X-0.225000X-0.250000X0.225000X-0.250000X0.225000X0.250000X-0.225000X0.250000X0*%
%TD*%
%TA.AperFunction,SMDPad,CuDef*%
%ADD31RoundRect,0.250000X1.045000X-0.785000X1.045000X0.785000X-1.045000X0.785000X-1.045000X-0.785000X0*%
%TD*%
%TA.AperFunction,SMDPad,CuDef*%
%ADD32RoundRect,0.250000X-0.300000X0.300000X-0.300000X-0.300000X0.300000X-0.300000X0.300000X0.300000X0*%
%TD*%
%TA.AperFunction,ComponentPad*%
%ADD33C,1.400000*%
%TD*%
%TA.AperFunction,ComponentPad*%
%ADD34RoundRect,0.770000X-0.980000X0.980000X-0.980000X-0.980000X0.980000X-0.980000X0.980000X0.980000X0*%
%TD*%
%TA.AperFunction,ComponentPad*%
%ADD35C,3.500000*%
%TD*%
%TA.AperFunction,SMDPad,CuDef*%
%ADD36RoundRect,0.237500X-0.250000X-0.237500X0.250000X-0.237500X0.250000X0.237500X-0.250000X0.237500X0*%
%TD*%
%TA.AperFunction,SMDPad,CuDef*%
%ADD37RoundRect,0.237500X0.300000X0.237500X-0.300000X0.237500X-0.300000X-0.237500X0.300000X-0.237500X0*%
%TD*%
%TA.AperFunction,SMDPad,CuDef*%
%ADD38RoundRect,0.237500X-0.237500X0.287500X-0.237500X-0.287500X0.237500X-0.287500X0.237500X0.287500X0*%
%TD*%
%TA.AperFunction,ComponentPad*%
%ADD39RoundRect,0.770000X0.980000X-0.980000X0.980000X0.980000X-0.980000X0.980000X-0.980000X-0.980000X0*%
%TD*%
%TA.AperFunction,SMDPad,CuDef*%
%ADD40RoundRect,0.250002X-1.499998X-6.149998X1.499998X-6.149998X1.499998X6.149998X-1.499998X6.149998X0*%
%TD*%
%TA.AperFunction,SMDPad,CuDef*%
%ADD41RoundRect,0.250000X0.650000X-1.000000X0.650000X1.000000X-0.650000X1.000000X-0.650000X-1.000000X0*%
%TD*%
%TA.AperFunction,SMDPad,CuDef*%
%ADD42RoundRect,0.250000X-0.400000X-0.625000X0.400000X-0.625000X0.400000X0.625000X-0.400000X0.625000X0*%
%TD*%
%TA.AperFunction,SMDPad,CuDef*%
%ADD43RoundRect,0.237500X0.237500X-0.300000X0.237500X0.300000X-0.237500X0.300000X-0.237500X-0.300000X0*%
%TD*%
%TA.AperFunction,SMDPad,CuDef*%
%ADD44RoundRect,0.150000X-0.512500X-0.150000X0.512500X-0.150000X0.512500X0.150000X-0.512500X0.150000X0*%
%TD*%
%TA.AperFunction,SMDPad,CuDef*%
%ADD45RoundRect,0.150000X-0.650000X-0.150000X0.650000X-0.150000X0.650000X0.150000X-0.650000X0.150000X0*%
%TD*%
%TA.AperFunction,HeatsinkPad*%
%ADD46R,2.410000X3.100000*%
%TD*%
%TA.AperFunction,ViaPad*%
%ADD47C,1.000000*%
%TD*%
%TA.AperFunction,ViaPad*%
%ADD48C,0.500000*%
%TD*%
%TA.AperFunction,ViaPad*%
%ADD49C,0.600000*%
%TD*%
%TA.AperFunction,Conductor*%
%ADD50C,1.000000*%
%TD*%
%TA.AperFunction,Conductor*%
%ADD51C,0.200000*%
%TD*%
%TA.AperFunction,Conductor*%
%ADD52C,0.400000*%
%TD*%
G04 APERTURE END LIST*
D10*
%TO.P,D1,1,A1*%
%TO.N,+48V*%
X20745000Y-73105000D03*
%TO.P,D1,2,A2*%
%TO.N,GND*%
X20745000Y-70305000D03*
%TD*%
D11*
%TO.P,R9,1*%
%TO.N,/NRST*%
X60200000Y-48820000D03*
%TO.P,R9,2*%
%TO.N,+3.3V*%
X58550000Y-48820000D03*
%TD*%
D12*
%TO.P,C27,1*%
%TO.N,+24V*%
X69390000Y-68132500D03*
%TO.P,C27,2*%
%TO.N,GND*%
X69390000Y-70207500D03*
%TD*%
D13*
%TO.P,SW1,1,1*%
%TO.N,GND*%
X63200000Y-46120000D03*
%TO.P,SW1,2,2*%
%TO.N,/NRST*%
X59000000Y-46120000D03*
%TD*%
D14*
%TO.P,C2,1*%
%TO.N,GND*%
X24070000Y-78480000D03*
%TO.P,C2,2*%
%TO.N,+48V*%
X24070000Y-75530000D03*
%TD*%
D15*
%TO.P,C13,1*%
%TO.N,+24V*%
X58210000Y-67830000D03*
%TO.P,C13,2*%
%TO.N,GND*%
X58210000Y-76230000D03*
%TD*%
D16*
%TO.P,R3,1*%
%TO.N,Net-(U2-FB)*%
X28920000Y-51457500D03*
%TO.P,R3,2*%
%TO.N,+12V*%
X28920000Y-49632500D03*
%TD*%
D14*
%TO.P,C7,1*%
%TO.N,GND*%
X20595000Y-78430000D03*
%TO.P,C7,2*%
%TO.N,+48V*%
X20595000Y-75480000D03*
%TD*%
D17*
%TO.P,C22,1*%
%TO.N,Net-(U5--)*%
X48375000Y-57895000D03*
%TO.P,C22,2*%
%TO.N,Net-(U5-+)*%
X48375000Y-59445000D03*
%TD*%
D18*
%TO.P,C8,1*%
%TO.N,GND*%
X24045000Y-70217500D03*
%TO.P,C8,2*%
%TO.N,+48V*%
X24045000Y-73342500D03*
%TD*%
D19*
%TO.P,Q1,1,S*%
%TO.N,Net-(Q2-D)*%
X31110000Y-72225000D03*
%TO.P,Q1,2,S*%
X29840000Y-72225000D03*
%TO.P,Q1,3,S*%
X28570000Y-72225000D03*
%TO.P,Q1,4,G*%
%TO.N,Net-(D3-A)*%
X27300000Y-72225000D03*
D20*
%TO.P,Q1,5,D*%
%TO.N,+48V*%
X29205000Y-76175000D03*
%TD*%
D21*
%TO.P,L3,1,1*%
%TO.N,Net-(D13-K)*%
X36890000Y-51052500D03*
%TO.P,L3,2,2*%
%TO.N,+5V*%
X43290000Y-51052500D03*
%TD*%
D22*
%TO.P,C12,1*%
%TO.N,+24V*%
X60540000Y-61150000D03*
%TO.P,C12,2*%
%TO.N,GND*%
X60540000Y-52750000D03*
%TD*%
D23*
%TO.P,U5,1,GND*%
%TO.N,GND*%
X46512500Y-59645000D03*
%TO.P,U5,2,+*%
%TO.N,Net-(U5-+)*%
X46512500Y-58995000D03*
%TO.P,U5,3,-*%
%TO.N,Net-(U5--)*%
X46512500Y-58345000D03*
%TO.P,U5,4,GND*%
%TO.N,GND*%
X46512500Y-57695000D03*
%TO.P,U5,5,V+*%
%TO.N,+3.3V*%
X40787500Y-57695000D03*
%TO.P,U5,6,REF2*%
%TO.N,GND*%
X40787500Y-58345000D03*
%TO.P,U5,7,REF1*%
%TO.N,+3.3V*%
X40787500Y-58995000D03*
%TO.P,U5,8*%
%TO.N,/comp_cirurt*%
X40787500Y-59645000D03*
%TD*%
D24*
%TO.P,R14,1*%
%TO.N,/adc_cir*%
X53410000Y-54447500D03*
%TO.P,R14,2*%
%TO.N,/comp_cirurt*%
X53410000Y-56272500D03*
%TD*%
D25*
%TO.P,C18,1*%
%TO.N,+24V*%
X64770000Y-65587500D03*
%TO.P,C18,2*%
%TO.N,GND*%
X64770000Y-63512500D03*
%TD*%
D26*
%TO.P,C3,1*%
%TO.N,Net-(U2-BST)*%
X30605000Y-51270000D03*
%TO.P,C3,2*%
%TO.N,Net-(U2-SW)*%
X30605000Y-49720000D03*
%TD*%
D27*
%TO.P,U8,1,CB*%
%TO.N,Net-(U8-CB)*%
X42415000Y-44407500D03*
%TO.P,U8,2,NC*%
%TO.N,unconnected-(U8-NC-Pad2)*%
X42415000Y-43137500D03*
%TO.P,U8,3,NC*%
%TO.N,unconnected-(U8-NC-Pad3)*%
X42415000Y-41867500D03*
%TO.P,U8,4,FB*%
%TO.N,+5V*%
X42415000Y-40597500D03*
%TO.P,U8,5,ON/~{OFF}*%
%TO.N,unconnected-(U8-ON{slash}~{OFF}-Pad5)*%
X37465000Y-40597500D03*
%TO.P,U8,6,GND*%
%TO.N,GND*%
X37465000Y-41867500D03*
%TO.P,U8,7,VIN*%
%TO.N,+12V*%
X37465000Y-43137500D03*
%TO.P,U8,8,VSW*%
%TO.N,Net-(D13-K)*%
X37465000Y-44407500D03*
%TD*%
D25*
%TO.P,C37,1*%
%TO.N,+12V*%
X30320000Y-43532500D03*
%TO.P,C37,2*%
%TO.N,GND*%
X30320000Y-41457500D03*
%TD*%
D28*
%TO.P,C11,1*%
%TO.N,GND*%
X63400000Y-48820000D03*
%TO.P,C11,2*%
%TO.N,/NRST*%
X61850000Y-48820000D03*
%TD*%
D19*
%TO.P,Q2,1,S*%
%TO.N,GND*%
X31210000Y-64450000D03*
%TO.P,Q2,2,S*%
X29940000Y-64450000D03*
%TO.P,Q2,3,S*%
X28670000Y-64450000D03*
%TO.P,Q2,4,G*%
%TO.N,Net-(D4-A)*%
X27400000Y-64450000D03*
D20*
%TO.P,Q2,5,D*%
%TO.N,Net-(Q2-D)*%
X29305000Y-68400000D03*
%TD*%
D29*
%TO.P,L1,1,1*%
%TO.N,Net-(U2-SW)*%
X21825000Y-44770000D03*
%TO.P,L1,2,2*%
%TO.N,+12V*%
X27275000Y-44770000D03*
%TD*%
D30*
%TO.P,C21,1*%
%TO.N,GND*%
X37100000Y-57670000D03*
%TO.P,C21,2*%
%TO.N,+3.3V*%
X38650000Y-57670000D03*
%TD*%
D31*
%TO.P,C31,1*%
%TO.N,+5V*%
X46840000Y-47397500D03*
%TO.P,C31,2*%
%TO.N,GND*%
X46840000Y-41157500D03*
%TD*%
D25*
%TO.P,C40,1*%
%TO.N,+24V*%
X69340000Y-65627500D03*
%TO.P,C40,2*%
%TO.N,GND*%
X69340000Y-63552500D03*
%TD*%
D12*
%TO.P,C6,1*%
%TO.N,+12V*%
X30345000Y-45482500D03*
%TO.P,C6,2*%
%TO.N,GND*%
X30345000Y-47557500D03*
%TD*%
D32*
%TO.P,D6,1,A1*%
%TO.N,+48V*%
X19150000Y-52745000D03*
%TO.P,D6,2,A2*%
%TO.N,GND*%
X19150000Y-55545000D03*
%TD*%
D33*
%TO.P,J5,*%
%TO.N,*%
X77900000Y-59250000D03*
X77900000Y-70250000D03*
D34*
%TO.P,J5,1,Pin_1*%
%TO.N,GND*%
X72900000Y-62250000D03*
D35*
%TO.P,J5,2,Pin_2*%
%TO.N,+24V*%
X72900000Y-67250000D03*
%TD*%
D17*
%TO.P,C34,1*%
%TO.N,GND*%
X66530000Y-45545000D03*
%TO.P,C34,2*%
%TO.N,+3.3V*%
X66530000Y-47095000D03*
%TD*%
%TO.P,C36,1*%
%TO.N,+5V*%
X47200000Y-50025000D03*
%TO.P,C36,2*%
%TO.N,GND*%
X47200000Y-51575000D03*
%TD*%
%TO.P,C5,1*%
%TO.N,Net-(U2-FB)*%
X28800000Y-53170000D03*
%TO.P,C5,2*%
%TO.N,Net-(C4-Pad1)*%
X28800000Y-54720000D03*
%TD*%
D16*
%TO.P,R4,1*%
%TO.N,GND*%
X30525000Y-54895000D03*
%TO.P,R4,2*%
%TO.N,Net-(U2-FB)*%
X30525000Y-53070000D03*
%TD*%
D12*
%TO.P,C15,1*%
%TO.N,+24V*%
X64820000Y-68112500D03*
%TO.P,C15,2*%
%TO.N,GND*%
X64820000Y-70187500D03*
%TD*%
D17*
%TO.P,C43,1*%
%TO.N,GND*%
X64920000Y-45595000D03*
%TO.P,C43,2*%
%TO.N,+3.3V*%
X64920000Y-47145000D03*
%TD*%
D24*
%TO.P,R10,1*%
%TO.N,GND*%
X64540000Y-41587500D03*
%TO.P,R10,2*%
%TO.N,/BOOT0*%
X64540000Y-43412500D03*
%TD*%
D25*
%TO.P,C1,1*%
%TO.N,+48V*%
X19175000Y-50732500D03*
%TO.P,C1,2*%
%TO.N,GND*%
X19175000Y-48657500D03*
%TD*%
D36*
%TO.P,R2,1*%
%TO.N,Net-(U2-SW)*%
X21881250Y-40145000D03*
%TO.P,R2,2*%
%TO.N,Net-(C4-Pad1)*%
X23706250Y-40145000D03*
%TD*%
D37*
%TO.P,C30,1*%
%TO.N,Net-(U8-CB)*%
X40602500Y-46202500D03*
%TO.P,C30,2*%
%TO.N,Net-(D13-K)*%
X38877500Y-46202500D03*
%TD*%
D38*
%TO.P,D5,1,K*%
%TO.N,GND*%
X52595000Y-43250000D03*
%TO.P,D5,2,A*%
%TO.N,Net-(D5-A)*%
X52595000Y-45000000D03*
%TD*%
D36*
%TO.P,R1,1*%
%TO.N,Net-(U2-RON)*%
X21267500Y-55357500D03*
%TO.P,R1,2*%
%TO.N,GND*%
X23092500Y-55357500D03*
%TD*%
D33*
%TO.P,J2,*%
%TO.N,*%
X6220000Y-76830000D03*
X6220000Y-65830000D03*
D39*
%TO.P,J2,1,Pin_1*%
%TO.N,GND*%
X16220000Y-68830000D03*
D35*
%TO.P,J2,2,Pin_2*%
%TO.N,+48V*%
X16220000Y-73830000D03*
%TD*%
D40*
%TO.P,L2,1,1*%
%TO.N,Net-(Q2-D)*%
X34650000Y-70180000D03*
%TO.P,L2,2,2*%
%TO.N,Net-(L2-Pad2)*%
X49350000Y-70180000D03*
%TD*%
D41*
%TO.P,D13,1,K*%
%TO.N,Net-(D13-K)*%
X33990000Y-45427500D03*
%TO.P,D13,2,A*%
%TO.N,GND*%
X33990000Y-41427500D03*
%TD*%
D42*
%TO.P,R11,1*%
%TO.N,Net-(L2-Pad2)*%
X52720000Y-64030000D03*
%TO.P,R11,2*%
%TO.N,+24V*%
X55820000Y-64030000D03*
%TD*%
D24*
%TO.P,R15,1*%
%TO.N,Net-(D5-A)*%
X50520000Y-43225000D03*
%TO.P,R15,2*%
%TO.N,+3.3V*%
X50520000Y-45050000D03*
%TD*%
D30*
%TO.P,C4,1*%
%TO.N,Net-(C4-Pad1)*%
X25543750Y-40145000D03*
%TO.P,C4,2*%
%TO.N,+12V*%
X27093750Y-40145000D03*
%TD*%
D25*
%TO.P,C19,1*%
%TO.N,+24V*%
X66950000Y-65587500D03*
%TO.P,C19,2*%
%TO.N,GND*%
X66950000Y-63512500D03*
%TD*%
D43*
%TO.P,C28,1*%
%TO.N,GND*%
X53482500Y-51865000D03*
%TO.P,C28,2*%
%TO.N,+3.3V*%
X53482500Y-50140000D03*
%TD*%
D36*
%TO.P,R12,1*%
%TO.N,Net-(U5-+)*%
X50047500Y-59620000D03*
%TO.P,R12,2*%
%TO.N,Net-(L2-Pad2)*%
X51872500Y-59620000D03*
%TD*%
%TO.P,R13,1*%
%TO.N,Net-(U5--)*%
X49997500Y-57730000D03*
%TO.P,R13,2*%
%TO.N,+24V*%
X51822500Y-57730000D03*
%TD*%
D17*
%TO.P,C35,1*%
%TO.N,GND*%
X53400000Y-46805000D03*
%TO.P,C35,2*%
%TO.N,+3.3V*%
X53400000Y-48355000D03*
%TD*%
D44*
%TO.P,U7,1,VIN*%
%TO.N,+5V*%
X49272500Y-49780000D03*
%TO.P,U7,2,GND*%
%TO.N,GND*%
X49272500Y-50730000D03*
%TO.P,U7,3,EN*%
%TO.N,+5V*%
X49272500Y-51680000D03*
%TO.P,U7,4,NC*%
%TO.N,GND*%
X51547500Y-51680000D03*
%TO.P,U7,5,VOUT*%
%TO.N,+3.3V*%
X51547500Y-49780000D03*
%TD*%
D12*
%TO.P,C26,1*%
%TO.N,+24V*%
X66960000Y-68072500D03*
%TO.P,C26,2*%
%TO.N,GND*%
X66960000Y-70147500D03*
%TD*%
D45*
%TO.P,U2,1,GND*%
%TO.N,GND*%
X21575000Y-49665000D03*
%TO.P,U2,2,VIN*%
%TO.N,+48V*%
X21575000Y-50935000D03*
%TO.P,U2,3,EN/UVLO*%
X21575000Y-52205000D03*
%TO.P,U2,4,RON*%
%TO.N,Net-(U2-RON)*%
X21575000Y-53475000D03*
%TO.P,U2,5,FB*%
%TO.N,Net-(U2-FB)*%
X26875000Y-53475000D03*
%TO.P,U2,6,PGOOD*%
%TO.N,unconnected-(U2-PGOOD-Pad6)*%
X26875000Y-52205000D03*
%TO.P,U2,7,BST*%
%TO.N,Net-(U2-BST)*%
X26875000Y-50935000D03*
%TO.P,U2,8,SW*%
%TO.N,Net-(U2-SW)*%
X26875000Y-49665000D03*
D46*
%TO.P,U2,9,EP*%
%TO.N,GND*%
X24225000Y-51570000D03*
%TD*%
D47*
%TO.N,+48V*%
X16590000Y-50920000D03*
D48*
%TO.N,GND*%
X72500000Y-76500000D03*
X71750000Y-38500000D03*
X18975000Y-43820000D03*
X58750000Y-73250000D03*
X21225000Y-67620000D03*
X62500000Y-74500000D03*
X39750000Y-49250000D03*
X52500000Y-73250000D03*
X30000000Y-62000000D03*
X73250000Y-55500000D03*
X44500000Y-61000000D03*
X71000000Y-44250000D03*
X42600000Y-38800000D03*
X28500000Y-38750000D03*
X17000000Y-41250000D03*
X53350000Y-68300000D03*
X41600000Y-38800000D03*
X39750000Y-50500000D03*
X36725000Y-59500000D03*
X33750000Y-40000000D03*
X71750000Y-41000000D03*
X47225000Y-39820000D03*
X18500000Y-56500000D03*
X18800000Y-47200000D03*
X71250000Y-55500000D03*
X68500000Y-75250000D03*
X70250000Y-56500000D03*
X16500000Y-55500000D03*
X45750000Y-75000000D03*
X37750000Y-73750000D03*
X33750000Y-38750000D03*
X56750000Y-75500000D03*
X72725000Y-39820000D03*
X43750000Y-72750000D03*
X41000000Y-68500000D03*
X23250000Y-50250000D03*
X66500000Y-73000000D03*
X28500000Y-40000000D03*
X51250000Y-41000000D03*
X53500000Y-78000000D03*
X24250000Y-52750000D03*
X16500000Y-56500000D03*
X27475000Y-60820000D03*
X64500000Y-75250000D03*
X16500000Y-57750000D03*
X17000000Y-46250000D03*
X70000000Y-44250000D03*
X53500000Y-72000000D03*
X18816728Y-46255198D03*
X71475000Y-76570000D03*
X44500000Y-63500000D03*
X16000000Y-48750000D03*
X69500000Y-73000000D03*
X38400000Y-38800000D03*
X49750000Y-78250000D03*
X58750000Y-76750000D03*
X30000000Y-60750000D03*
X71250000Y-56500000D03*
X41750000Y-78250000D03*
X20000000Y-38750000D03*
X21500000Y-56500000D03*
X45750000Y-77250000D03*
X58750000Y-78000000D03*
X43475000Y-62320000D03*
X67500000Y-71750000D03*
X54500000Y-72000000D03*
X42000000Y-67750000D03*
X69500000Y-74250000D03*
X35750000Y-78250000D03*
X70000000Y-41750000D03*
X63500000Y-72000000D03*
X70000000Y-38500000D03*
X38750000Y-78250000D03*
X15000000Y-43750000D03*
X29500000Y-41250000D03*
X66975000Y-43070000D03*
X27500000Y-59500000D03*
X49250000Y-38500000D03*
X66500000Y-74250000D03*
X19500000Y-59000000D03*
X72750000Y-41000000D03*
X39750000Y-76000000D03*
X40725000Y-50570000D03*
X71250000Y-58500000D03*
X44500000Y-62250000D03*
X71750000Y-46200000D03*
X47750000Y-78250000D03*
X55600000Y-70600000D03*
X62500000Y-75500000D03*
X47250000Y-41000000D03*
X67500000Y-75250000D03*
X35025000Y-48930000D03*
X24225000Y-51570000D03*
X56750000Y-78000000D03*
X39500000Y-55750000D03*
X71750000Y-44250000D03*
X72750000Y-38500000D03*
X17816728Y-46255198D03*
X61500000Y-76750000D03*
X20250000Y-67550000D03*
X18800000Y-78200000D03*
X32000000Y-62000000D03*
X54600000Y-68300000D03*
X20500000Y-59000000D03*
X59750000Y-72000000D03*
X16000000Y-78200000D03*
X57750000Y-73250000D03*
X18500000Y-57750000D03*
X31000000Y-59500000D03*
X43000000Y-69500000D03*
X42500000Y-60250000D03*
X42750000Y-76000000D03*
X69500000Y-77750000D03*
X17000000Y-43750000D03*
X38750000Y-59500000D03*
X54600000Y-70800000D03*
X71250000Y-57500000D03*
X36750000Y-58750000D03*
X17500000Y-53000000D03*
X71750000Y-39750000D03*
X23400000Y-38800000D03*
X42750000Y-77250000D03*
X70500000Y-75250000D03*
X40750000Y-76000000D03*
X23400000Y-66600000D03*
X22250000Y-68800000D03*
X72725000Y-43070000D03*
X19400000Y-77400000D03*
X31000000Y-62000000D03*
X21500000Y-57750000D03*
X16000000Y-42500000D03*
X62475000Y-76820000D03*
X61500000Y-73250000D03*
X24250000Y-50250000D03*
X71500000Y-75250000D03*
X48250000Y-39750000D03*
X73750000Y-43000000D03*
X46200000Y-71800000D03*
X59750000Y-75500000D03*
X55750000Y-75500000D03*
X67500000Y-74250000D03*
X68000000Y-44250000D03*
X37750000Y-60500000D03*
X69000000Y-46200000D03*
X41000000Y-67750000D03*
X36025000Y-47680000D03*
X62475000Y-73320000D03*
X26500000Y-59500000D03*
X66500000Y-76500000D03*
X36250000Y-53250000D03*
X59750000Y-74500000D03*
X23250000Y-52750000D03*
X68250000Y-58500000D03*
X61500000Y-72000000D03*
X22250000Y-65400000D03*
X51250000Y-38500000D03*
X28500000Y-60750000D03*
X31750000Y-40000000D03*
X42750000Y-73750000D03*
X70250000Y-57500000D03*
X58750000Y-75500000D03*
X33750000Y-78250000D03*
X30975000Y-60820000D03*
X16000000Y-38750000D03*
X69000000Y-41000000D03*
X39750000Y-73750000D03*
X64500000Y-71750000D03*
X42500000Y-64500000D03*
X38500000Y-55750000D03*
X54500000Y-73250000D03*
X60750000Y-78000000D03*
X69500000Y-71750000D03*
X43500000Y-61000000D03*
X22400000Y-38800000D03*
X40750000Y-51750000D03*
X55600000Y-69350000D03*
X35400000Y-62600000D03*
X15000000Y-47500000D03*
X69050000Y-45200000D03*
X24600000Y-66600000D03*
X32750000Y-38750000D03*
X33400000Y-62600000D03*
X64500000Y-74250000D03*
X39750000Y-77250000D03*
X36750000Y-78250000D03*
X46250000Y-38500000D03*
X68250000Y-55500000D03*
X55750000Y-74500000D03*
X38725000Y-73820000D03*
X43500000Y-63500000D03*
X18500000Y-55500000D03*
X18000000Y-38750000D03*
X71000000Y-41750000D03*
X35025000Y-47680000D03*
X63500000Y-76750000D03*
X70250000Y-58500000D03*
X17500000Y-59000000D03*
X38800000Y-62600000D03*
X44500000Y-67000000D03*
X38500000Y-54500000D03*
X46750000Y-78250000D03*
X30500000Y-41250000D03*
X18000000Y-45000000D03*
X15600000Y-65800000D03*
X41750000Y-50500000D03*
X43500000Y-60250000D03*
X70500000Y-73000000D03*
X66000000Y-39750000D03*
X40750000Y-75000000D03*
X41750000Y-76000000D03*
X17200000Y-78200000D03*
X44750000Y-76000000D03*
X72250000Y-55500000D03*
X43750000Y-76000000D03*
X44000000Y-68500000D03*
X45750000Y-72750000D03*
X23400000Y-68800000D03*
X52350000Y-68300000D03*
X69000000Y-39750000D03*
X68475000Y-76570000D03*
X72750000Y-41750000D03*
X58750000Y-72000000D03*
X61500000Y-75500000D03*
X63500000Y-78000000D03*
X64500000Y-76500000D03*
X71800000Y-45200000D03*
X44500000Y-65750000D03*
X34750000Y-78250000D03*
X42750000Y-78250000D03*
X72250000Y-54500000D03*
X66975000Y-39820000D03*
X35200000Y-51600000D03*
X46250000Y-39750000D03*
X66000000Y-38500000D03*
X30000000Y-59500000D03*
X43750000Y-77250000D03*
X43600000Y-38800000D03*
X66500000Y-77750000D03*
X72250000Y-57500000D03*
X60750000Y-76750000D03*
X65500000Y-77750000D03*
X42500000Y-67000000D03*
X43000000Y-68500000D03*
X69500000Y-75250000D03*
X72500000Y-74250000D03*
X60750000Y-75500000D03*
X16400000Y-66800000D03*
X17000000Y-45000000D03*
X68050000Y-45200000D03*
X16500000Y-53000000D03*
X41750000Y-51750000D03*
X68500000Y-71750000D03*
X41750000Y-49250000D03*
X54500000Y-78000000D03*
X37750000Y-76000000D03*
X42500000Y-65750000D03*
X45200000Y-71800000D03*
X28500000Y-62000000D03*
X38750000Y-60500000D03*
X70250000Y-55500000D03*
X71750000Y-41750000D03*
X71500000Y-74250000D03*
X17475000Y-57820000D03*
X21400000Y-38800000D03*
X28500000Y-41250000D03*
X20250000Y-68800000D03*
X40000000Y-67750000D03*
X66500000Y-71750000D03*
X43750000Y-75000000D03*
X71475000Y-73070000D03*
X44725000Y-73820000D03*
X42750000Y-75000000D03*
X70500000Y-71750000D03*
X39500000Y-53250000D03*
X40500000Y-53250000D03*
X37250000Y-55750000D03*
X48750000Y-78250000D03*
X24600000Y-67550000D03*
X15000000Y-77400000D03*
X19000000Y-38750000D03*
X17475000Y-54320000D03*
X29200000Y-62000000D03*
X17000000Y-42500000D03*
X36000000Y-49000000D03*
X53475000Y-76820000D03*
X65500000Y-71750000D03*
X73250000Y-54500000D03*
X30500000Y-40000000D03*
X33750000Y-41250000D03*
X18400000Y-77400000D03*
X68250000Y-56500000D03*
X72800000Y-45200000D03*
X68000000Y-43000000D03*
X39750000Y-78250000D03*
X20000000Y-40000000D03*
X57750000Y-76750000D03*
X37000000Y-49000000D03*
X19000000Y-45000000D03*
X69975000Y-39820000D03*
X39750000Y-51750000D03*
X19500000Y-56500000D03*
X71750000Y-43000000D03*
X37800000Y-62600000D03*
X71050000Y-45200000D03*
X38725000Y-77320000D03*
X66000000Y-41000000D03*
X42750000Y-72750000D03*
X40400000Y-38800000D03*
X25400000Y-56000000D03*
X49250000Y-41000000D03*
X17000000Y-38750000D03*
X70500000Y-77750000D03*
X73250000Y-56500000D03*
X37750000Y-77250000D03*
X26500000Y-60750000D03*
X62500000Y-78000000D03*
D49*
X51800000Y-46800000D03*
D48*
X38750000Y-76000000D03*
X55750000Y-72000000D03*
X42000000Y-69500000D03*
X42000000Y-68500000D03*
X72500000Y-75250000D03*
X70000000Y-41000000D03*
X15000000Y-42500000D03*
X31750000Y-41250000D03*
X37150000Y-38800000D03*
X20500000Y-56500000D03*
X15000000Y-48750000D03*
X42500000Y-61000000D03*
X35750000Y-60500000D03*
X20475000Y-57820000D03*
X37750000Y-75000000D03*
X69250000Y-57500000D03*
X48250000Y-41000000D03*
X29200000Y-59500000D03*
X17000000Y-40000000D03*
X69250000Y-56500000D03*
X36750000Y-60500000D03*
X41725000Y-77320000D03*
X52500000Y-75500000D03*
X72750000Y-44250000D03*
X16000000Y-77400000D03*
X21250000Y-68800000D03*
X69000000Y-44250000D03*
X17500000Y-56500000D03*
X30500000Y-38750000D03*
X68475000Y-73070000D03*
X15000000Y-46250000D03*
X25250000Y-51500000D03*
X66000000Y-41750000D03*
X38750000Y-75000000D03*
X32750000Y-41250000D03*
X14800000Y-65000000D03*
X67500000Y-77750000D03*
X70500000Y-76500000D03*
X63500000Y-75500000D03*
X73750000Y-41000000D03*
X15975000Y-43820000D03*
X71000000Y-43000000D03*
X69250000Y-55500000D03*
X43750000Y-73750000D03*
X25400000Y-54750000D03*
X68500000Y-74250000D03*
X18975000Y-40070000D03*
X69000000Y-43000000D03*
X50225000Y-39820000D03*
X37750000Y-58750000D03*
X43500000Y-67000000D03*
X73750000Y-38500000D03*
X67000000Y-41000000D03*
X54500000Y-76750000D03*
X24600000Y-65400000D03*
X54600000Y-69550000D03*
X32725000Y-40070000D03*
X43000000Y-67750000D03*
X57750000Y-78000000D03*
X43475000Y-65820000D03*
X71500000Y-77750000D03*
X44750000Y-72750000D03*
X52500000Y-74500000D03*
X23250000Y-51500000D03*
X37000000Y-47750000D03*
X35750000Y-59500000D03*
X15975000Y-40070000D03*
X52500000Y-78000000D03*
X17500000Y-55500000D03*
X16500000Y-59000000D03*
X16000000Y-41250000D03*
X42500000Y-63500000D03*
X24375000Y-56070000D03*
X55750000Y-76750000D03*
X16500000Y-54250000D03*
X20000000Y-41250000D03*
X72500000Y-77750000D03*
X68000000Y-39750000D03*
X71500000Y-71750000D03*
X14818620Y-65890690D03*
X35250000Y-53250000D03*
X52500000Y-76750000D03*
X68000000Y-41000000D03*
X22250000Y-66600000D03*
X35150000Y-38800000D03*
X18000000Y-43750000D03*
X17800000Y-47200000D03*
X69500000Y-76500000D03*
X38500000Y-53250000D03*
X15000000Y-41250000D03*
X57750000Y-74500000D03*
X71000000Y-38500000D03*
X40500000Y-54500000D03*
X22400000Y-78200000D03*
D49*
X53400000Y-46805000D03*
D48*
X50250000Y-41000000D03*
X15975000Y-47570000D03*
X31750000Y-38750000D03*
X73750000Y-41750000D03*
X46250000Y-41000000D03*
X70500000Y-74250000D03*
X67500000Y-76500000D03*
X52350000Y-70800000D03*
X64500000Y-73000000D03*
X68500000Y-77750000D03*
X69250000Y-58500000D03*
X54500000Y-74500000D03*
X62500000Y-72000000D03*
X46400000Y-70800000D03*
X44725000Y-77320000D03*
X73750000Y-39750000D03*
X68000000Y-41750000D03*
X43750000Y-78250000D03*
X29475000Y-40070000D03*
X45750000Y-73750000D03*
X49250000Y-39750000D03*
X60750000Y-74500000D03*
X15000000Y-78200000D03*
X66000000Y-44250000D03*
X65500000Y-74250000D03*
X28500000Y-59500000D03*
X73750000Y-44250000D03*
X44500000Y-64500000D03*
X14800000Y-66800000D03*
X38750000Y-58750000D03*
X70000000Y-46200000D03*
X23400000Y-65400000D03*
X16000000Y-45000000D03*
X45750000Y-78250000D03*
X72500000Y-71750000D03*
X69000000Y-41750000D03*
X20200000Y-78200000D03*
X40500000Y-55750000D03*
X50250000Y-38500000D03*
X37750000Y-78250000D03*
X18000000Y-42500000D03*
X72750000Y-46200000D03*
X71000000Y-41000000D03*
X61500000Y-74500000D03*
X55750000Y-73250000D03*
X20250000Y-66600000D03*
X64500000Y-77750000D03*
X36225000Y-54570000D03*
X40000000Y-68500000D03*
X35750000Y-58750000D03*
X57750000Y-72000000D03*
X68000000Y-46200000D03*
X17200000Y-77400000D03*
X53350000Y-70800000D03*
X52500000Y-72000000D03*
X55600000Y-68100000D03*
X52325000Y-69620000D03*
X18000000Y-40000000D03*
X40750000Y-49250000D03*
X24400000Y-54750000D03*
X40750000Y-73750000D03*
X39750000Y-75000000D03*
X67500000Y-73000000D03*
X18000000Y-41250000D03*
X15000000Y-40000000D03*
X27500000Y-62000000D03*
X36250000Y-55750000D03*
X44000000Y-67750000D03*
X36800000Y-62600000D03*
X67000000Y-41750000D03*
X61500000Y-78000000D03*
X47250000Y-38500000D03*
X56725000Y-73320000D03*
X19000000Y-42500000D03*
X45750000Y-76000000D03*
X43500000Y-64500000D03*
X67000000Y-38500000D03*
X65475000Y-73070000D03*
X40750000Y-78250000D03*
X60750000Y-72000000D03*
X21250000Y-66600000D03*
X35200000Y-50350000D03*
X19500000Y-57750000D03*
X39475000Y-54570000D03*
X32000000Y-60750000D03*
X20250000Y-65400000D03*
X18500000Y-59000000D03*
X29500000Y-38750000D03*
X23400000Y-67550000D03*
X36150000Y-38800000D03*
X63500000Y-73250000D03*
X56725000Y-76820000D03*
X48250000Y-38500000D03*
X40750000Y-77250000D03*
X34400000Y-62600000D03*
X73800000Y-45200000D03*
X53500000Y-74500000D03*
X53475000Y-73320000D03*
X65500000Y-75250000D03*
X15000000Y-38750000D03*
X71000000Y-46200000D03*
X72250000Y-56500000D03*
X70050000Y-45200000D03*
X41750000Y-75000000D03*
X44750000Y-75000000D03*
X21250000Y-65400000D03*
X22250000Y-67550000D03*
X35250000Y-54500000D03*
X72500000Y-73000000D03*
X26500000Y-62000000D03*
X71000000Y-39750000D03*
X73750000Y-46200000D03*
X66500000Y-75250000D03*
X17000000Y-48750000D03*
X25250000Y-52750000D03*
X55750000Y-78000000D03*
X19000000Y-41250000D03*
X32000000Y-59500000D03*
X67000000Y-44250000D03*
X37250000Y-54500000D03*
X68000000Y-38500000D03*
X54500000Y-75500000D03*
X56750000Y-72000000D03*
X69000000Y-38500000D03*
X53500000Y-75500000D03*
X21200000Y-78200000D03*
X25250000Y-50250000D03*
X35250000Y-55750000D03*
X16000000Y-46250000D03*
X59725000Y-73320000D03*
X60750000Y-73250000D03*
X44500000Y-60250000D03*
X65475000Y-76570000D03*
X18500000Y-54250000D03*
X37250000Y-53250000D03*
X56750000Y-74500000D03*
X44750000Y-78250000D03*
X58750000Y-74500000D03*
X24600000Y-68800000D03*
X39400000Y-38800000D03*
X42500000Y-62250000D03*
X66000000Y-43000000D03*
X29200000Y-60750000D03*
X69975000Y-43070000D03*
X41725000Y-73820000D03*
X15600000Y-66800000D03*
X51250000Y-39750000D03*
X20600000Y-77400000D03*
X59750000Y-78000000D03*
X53350000Y-69550000D03*
X68250000Y-57500000D03*
X59725000Y-76820000D03*
X15000000Y-45000000D03*
X57750000Y-75500000D03*
X63500000Y-74500000D03*
X17000000Y-47500000D03*
X37750000Y-59500000D03*
X73250000Y-57500000D03*
D49*
%TO.N,Net-(U2-SW)*%
X30605000Y-49720000D03*
X26875000Y-49665000D03*
%TO.N,+12V*%
X33880000Y-59000000D03*
%TO.N,Net-(C4-Pad1)*%
X28920000Y-56410000D03*
X24620000Y-40145000D03*
%TO.N,+3.3V*%
X63930000Y-59750000D03*
X66515000Y-47535000D03*
X38510000Y-57700000D03*
X55165000Y-47535000D03*
X68250000Y-54250000D03*
X63760000Y-58430000D03*
%TO.N,Net-(Q2-D)*%
X27460000Y-69990000D03*
X28590000Y-69570000D03*
X29170000Y-70020000D03*
X28495820Y-68563850D03*
X27760000Y-69280000D03*
X27460000Y-68420000D03*
X30120000Y-69600000D03*
%TO.N,+24V*%
X55820000Y-64030000D03*
X51822500Y-57730000D03*
%TO.N,Net-(L2-Pad2)*%
X52720000Y-64030000D03*
X51872500Y-59620000D03*
%TO.N,Net-(D3-A)*%
X27255000Y-72110000D03*
%TO.N,Net-(D4-A)*%
X26170000Y-63860000D03*
%TO.N,/HRTIM_-*%
X47250000Y-53090000D03*
X47260000Y-55040000D03*
%TO.N,/HRTIM_+*%
X48580000Y-53110000D03*
X48510000Y-54480000D03*
%TO.N,/NRST*%
X64800000Y-50630000D03*
%TO.N,/BOOT0*%
X63040000Y-43540000D03*
%TO.N,/comp_cirurt*%
X57750000Y-55600000D03*
%TO.N,/adc_cir*%
X53370000Y-54680000D03*
%TD*%
D50*
%TO.N,+48V*%
X16590000Y-50920000D02*
X18987500Y-50920000D01*
X21372500Y-50732500D02*
X21575000Y-50935000D01*
X18987500Y-50920000D02*
X19175000Y-50732500D01*
X19175000Y-50732500D02*
X19175000Y-52720000D01*
X21575000Y-50935000D02*
X21575000Y-52205000D01*
X19175000Y-50732500D02*
X21372500Y-50732500D01*
X19175000Y-52720000D02*
X19150000Y-52745000D01*
D51*
%TO.N,GND*%
X63260000Y-46120000D02*
X63350000Y-46030000D01*
X39655000Y-58345000D02*
X39250000Y-58750000D01*
X40787500Y-58345000D02*
X39655000Y-58345000D01*
D52*
%TO.N,Net-(U2-SW)*%
X27070000Y-48980000D02*
X27070000Y-49470000D01*
X21881250Y-44713750D02*
X21825000Y-44770000D01*
X21881250Y-40145000D02*
X21881250Y-44713750D01*
X26640000Y-48550000D02*
X27070000Y-48980000D01*
X21825000Y-44770000D02*
X21825000Y-47165000D01*
X21825000Y-47165000D02*
X23210000Y-48550000D01*
X27070000Y-49470000D02*
X26875000Y-49665000D01*
X23210000Y-48550000D02*
X26640000Y-48550000D01*
%TO.N,Net-(U2-BST)*%
X26875000Y-50935000D02*
X27253500Y-50556500D01*
X29891500Y-50556500D02*
X30605000Y-51270000D01*
X27253500Y-50556500D02*
X29891500Y-50556500D01*
%TO.N,+12V*%
X27093750Y-40145000D02*
X27093750Y-44588750D01*
X30320000Y-45457500D02*
X30345000Y-45482500D01*
X28920000Y-49632500D02*
X28920000Y-46415000D01*
X30320000Y-43532500D02*
X30320000Y-44790000D01*
X28920000Y-46415000D02*
X27275000Y-44770000D01*
X30320000Y-44790000D02*
X31972500Y-43137500D01*
X33880000Y-49017500D02*
X30345000Y-45482500D01*
X33880000Y-59000000D02*
X33880000Y-49017500D01*
X27987500Y-45482500D02*
X27275000Y-44770000D01*
X30320000Y-44790000D02*
X30320000Y-45457500D01*
X27093750Y-44588750D02*
X27275000Y-44770000D01*
X30345000Y-45482500D02*
X27987500Y-45482500D01*
X31972500Y-43137500D02*
X37465000Y-43137500D01*
%TO.N,Net-(C4-Pad1)*%
X28920000Y-54840000D02*
X28800000Y-54720000D01*
X25543750Y-40145000D02*
X24620000Y-40145000D01*
X28920000Y-56410000D02*
X28920000Y-54840000D01*
X24620000Y-40145000D02*
X23706250Y-40145000D01*
D50*
%TO.N,Net-(U2-FB)*%
X28495000Y-53475000D02*
X28800000Y-53170000D01*
X28800000Y-53170000D02*
X30425000Y-53170000D01*
X28920000Y-51457500D02*
X28920000Y-53050000D01*
X30425000Y-53170000D02*
X30525000Y-53070000D01*
X28920000Y-53050000D02*
X28800000Y-53170000D01*
X26875000Y-53475000D02*
X28495000Y-53475000D01*
D51*
%TO.N,+5V*%
X50236000Y-51070968D02*
X50236000Y-50389032D01*
D52*
X42415000Y-40597500D02*
X43407500Y-40597500D01*
X46840000Y-49665000D02*
X47200000Y-50025000D01*
X47349882Y-49957500D02*
X47374882Y-49932500D01*
X47267500Y-49957500D02*
X47349882Y-49957500D01*
X49120000Y-49932500D02*
X49272500Y-49780000D01*
X47200000Y-50025000D02*
X47267500Y-49957500D01*
X45000000Y-45557500D02*
X46840000Y-47397500D01*
X45000000Y-42190000D02*
X45000000Y-45557500D01*
D51*
X49626968Y-49780000D02*
X49272500Y-49780000D01*
X49626968Y-51680000D02*
X50236000Y-51070968D01*
D52*
X46840000Y-47397500D02*
X46840000Y-49665000D01*
D51*
X49272500Y-51680000D02*
X49626968Y-51680000D01*
D52*
X46840000Y-47397500D02*
X44762500Y-47397500D01*
D51*
X50236000Y-50389032D02*
X49626968Y-49780000D01*
D52*
X43290000Y-48870000D02*
X43290000Y-51052500D01*
X43407500Y-40597500D02*
X45000000Y-42190000D01*
X47374882Y-49932500D02*
X49120000Y-49932500D01*
X44762500Y-47397500D02*
X43290000Y-48870000D01*
D51*
%TO.N,+3.3V*%
X50600000Y-51323032D02*
X50600000Y-51274068D01*
X39015000Y-57695000D02*
X40787500Y-57695000D01*
X59413064Y-44819000D02*
X60250000Y-45655936D01*
X40787500Y-57695000D02*
X41524999Y-57695000D01*
X63930000Y-59750000D02*
X63930000Y-58600000D01*
X60750000Y-48000000D02*
X66050000Y-48000000D01*
X50520000Y-48752500D02*
X51547500Y-49780000D01*
X50600000Y-51274068D02*
X50637000Y-51237068D01*
X50600000Y-52036968D02*
X50584000Y-52020968D01*
X41444870Y-58995000D02*
X40787500Y-58995000D01*
X60250000Y-47500000D02*
X60750000Y-48000000D01*
X66125000Y-47145000D02*
X66515000Y-47535000D01*
X42742500Y-55740000D02*
X50050000Y-55740000D01*
X55165000Y-47535000D02*
X56450000Y-48820000D01*
X66050000Y-48000000D02*
X66515000Y-47535000D01*
X40787500Y-57695000D02*
X42742500Y-55740000D01*
X58299000Y-45106936D02*
X58586936Y-44819000D01*
X41826000Y-57996001D02*
X41826000Y-58613870D01*
X66515000Y-47535000D02*
X66515000Y-52515000D01*
X53400000Y-48355000D02*
X54345000Y-48355000D01*
X66515000Y-52515000D02*
X68250000Y-54250000D01*
X50584000Y-51339032D02*
X50600000Y-51323032D01*
X53122500Y-49780000D02*
X53482500Y-50140000D01*
X50584000Y-52020968D02*
X50584000Y-51339032D01*
X54345000Y-48355000D02*
X55165000Y-47535000D01*
X38510000Y-57700000D02*
X39010000Y-57700000D01*
X53482500Y-50140000D02*
X53482500Y-48437500D01*
X50520000Y-45050000D02*
X50520000Y-48752500D01*
X39010000Y-57700000D02*
X39015000Y-57695000D01*
X56450000Y-48820000D02*
X58550000Y-48820000D01*
X41524999Y-57695000D02*
X41826000Y-57996001D01*
X41826000Y-58613870D02*
X41444870Y-58995000D01*
X64920000Y-47145000D02*
X66125000Y-47145000D01*
X50050000Y-55740000D02*
X50600000Y-55190000D01*
X50637000Y-51237068D02*
X50637000Y-50690500D01*
X53482500Y-48437500D02*
X53400000Y-48355000D01*
X51547500Y-49780000D02*
X53122500Y-49780000D01*
X50637000Y-50690500D02*
X51547500Y-49780000D01*
X58299000Y-48569000D02*
X58299000Y-45106936D01*
X58550000Y-48820000D02*
X58299000Y-48569000D01*
X60250000Y-45655936D02*
X60250000Y-47500000D01*
X58586936Y-44819000D02*
X59413064Y-44819000D01*
X50600000Y-55190000D02*
X50600000Y-52036968D01*
X63930000Y-58600000D02*
X63760000Y-58430000D01*
%TO.N,Net-(D5-A)*%
X50820000Y-43225000D02*
X52595000Y-45000000D01*
X50520000Y-43225000D02*
X50820000Y-43225000D01*
%TO.N,Net-(U5--)*%
X48375000Y-57895000D02*
X49599155Y-57895000D01*
X47925000Y-58345000D02*
X48375000Y-57895000D01*
X46512500Y-58345000D02*
X47925000Y-58345000D01*
X49599155Y-57895000D02*
G75*
G03*
X49997513Y-57730013I45J563300D01*
G01*
%TO.N,Net-(U5-+)*%
X46512500Y-58995000D02*
X47925000Y-58995000D01*
X48375000Y-59445000D02*
X49625013Y-59445000D01*
X47925000Y-58995000D02*
X48375000Y-59445000D01*
X49625013Y-59445000D02*
G75*
G02*
X50047496Y-59620004I-13J-597500D01*
G01*
D52*
%TO.N,Net-(D13-K)*%
X38877500Y-49065000D02*
X36890000Y-51052500D01*
X36445000Y-45427500D02*
X37465000Y-44407500D01*
X37465000Y-44790000D02*
X38877500Y-46202500D01*
X33990000Y-45427500D02*
X36445000Y-45427500D01*
X37465000Y-44407500D02*
X37465000Y-44790000D01*
X38877500Y-46202500D02*
X38877500Y-49065000D01*
%TO.N,Net-(U8-CB)*%
X40602500Y-46202500D02*
X40620000Y-46202500D01*
X40620000Y-46202500D02*
X42415000Y-44407500D01*
%TO.N,Net-(D3-A)*%
X27300000Y-72225000D02*
X27300000Y-72155000D01*
X27300000Y-72155000D02*
X27255000Y-72110000D01*
%TO.N,Net-(D4-A)*%
X26170000Y-63860000D02*
X26810000Y-63860000D01*
X26810000Y-63860000D02*
X27400000Y-64450000D01*
D50*
%TO.N,Net-(U2-RON)*%
X21575000Y-55050000D02*
X21267500Y-55357500D01*
X21575000Y-53475000D02*
X21575000Y-55050000D01*
D51*
%TO.N,/HRTIM_-*%
X47250000Y-55030000D02*
X47260000Y-55040000D01*
X47250000Y-53090000D02*
X47250000Y-55030000D01*
%TO.N,/HRTIM_+*%
X48510000Y-54480000D02*
X48510000Y-53180000D01*
X48510000Y-53180000D02*
X48580000Y-53110000D01*
%TO.N,/NRST*%
X59000000Y-47620000D02*
X60200000Y-48820000D01*
X64540000Y-50890000D02*
X63920000Y-50890000D01*
X59000000Y-46120000D02*
X59000000Y-47620000D01*
X63920000Y-50890000D02*
X61850000Y-48820000D01*
X60200000Y-48820000D02*
X61850000Y-48820000D01*
X64800000Y-50630000D02*
X64540000Y-50890000D01*
%TO.N,/BOOT0*%
X63040000Y-43540000D02*
X64412500Y-43540000D01*
X64412500Y-43540000D02*
X64540000Y-43412500D01*
%TO.N,/comp_cirurt*%
X43910000Y-58450000D02*
X43910000Y-57140000D01*
X40787500Y-59645000D02*
X42715000Y-59645000D01*
X44777500Y-56272500D02*
X53410000Y-56272500D01*
X57650000Y-55500000D02*
X54250000Y-55500000D01*
X53477500Y-56272500D02*
X53410000Y-56272500D01*
X57750000Y-55600000D02*
X57650000Y-55500000D01*
X42715000Y-59645000D02*
X43910000Y-58450000D01*
X43910000Y-57140000D02*
X44777500Y-56272500D01*
X54250000Y-55500000D02*
X53477500Y-56272500D01*
%TO.N,/adc_cir*%
X53370000Y-54487500D02*
X53410000Y-54447500D01*
X53370000Y-54680000D02*
X53370000Y-54487500D01*
%TD*%
%TA.AperFunction,Conductor*%
%TO.N,Net-(Q2-D)*%
G36*
X36507114Y-63509080D02*
G01*
X36574002Y-63529266D01*
X36619361Y-63582411D01*
X36630184Y-63632891D01*
X36649812Y-76685175D01*
X36630228Y-76752244D01*
X36577493Y-76798078D01*
X36525176Y-76809359D01*
X32858684Y-76790557D01*
X32791746Y-76770529D01*
X32746263Y-76717491D01*
X32736309Y-76682183D01*
X32270000Y-73010000D01*
X32270000Y-73009999D01*
X31630000Y-72989999D01*
X28212742Y-72980180D01*
X28207839Y-72978725D01*
X28202827Y-72979755D01*
X28174678Y-72968884D01*
X28145759Y-72960303D01*
X28141127Y-72955928D01*
X28137649Y-72954585D01*
X28112981Y-72929343D01*
X28038691Y-72827682D01*
X28015030Y-72761940D01*
X28019732Y-72719925D01*
X28047707Y-72623633D01*
X28047709Y-72623627D01*
X28050500Y-72588163D01*
X28050499Y-72213981D01*
X28055500Y-72188842D01*
X28055500Y-72031158D01*
X28050499Y-72006017D01*
X28050499Y-71861838D01*
X28047709Y-71826373D01*
X28003618Y-71674610D01*
X27967685Y-71613852D01*
X27950424Y-71551753D01*
X27950000Y-71500000D01*
X27949999Y-71499999D01*
X26923712Y-70916240D01*
X26875172Y-70865984D01*
X26861032Y-70806710D01*
X26928590Y-66010042D01*
X26949217Y-65943290D01*
X27002660Y-65898283D01*
X27050322Y-65887812D01*
X31880000Y-65800000D01*
X32592250Y-63566998D01*
X32631376Y-63509111D01*
X32695587Y-63481566D01*
X32711311Y-63480683D01*
X36507114Y-63509080D01*
G37*
%TD.AperFunction*%
%TD*%
%TA.AperFunction,Conductor*%
%TO.N,Net-(L2-Pad2)*%
G36*
X53532450Y-62919685D02*
G01*
X53578205Y-62972489D01*
X53589409Y-63024585D01*
X53581343Y-64726606D01*
X53580273Y-64952384D01*
X53560271Y-65019329D01*
X53535789Y-65046945D01*
X51450000Y-66789999D01*
X51331473Y-76617809D01*
X51310981Y-76684607D01*
X51257629Y-76729721D01*
X51207802Y-76740314D01*
X47573245Y-76749682D01*
X47506155Y-76730170D01*
X47460264Y-76677484D01*
X47448930Y-76626761D01*
X47348455Y-65046945D01*
X47330912Y-63025076D01*
X47350014Y-62957868D01*
X47402419Y-62911657D01*
X47454907Y-62900000D01*
X53465411Y-62900000D01*
X53532450Y-62919685D01*
G37*
%TD.AperFunction*%
%TD*%
%TA.AperFunction,Conductor*%
%TO.N,+24V*%
G36*
X61771266Y-58869352D02*
G01*
X61838159Y-58889526D01*
X61883527Y-58942662D01*
X61888017Y-58954199D01*
X63544963Y-63933808D01*
X63550664Y-63960353D01*
X63555000Y-64002791D01*
X63555001Y-64002798D01*
X63610185Y-64169331D01*
X63610189Y-64169340D01*
X63631170Y-64203355D01*
X63643288Y-64229301D01*
X63750000Y-64550000D01*
X64001484Y-64550000D01*
X64040488Y-64556294D01*
X64142203Y-64589999D01*
X64244991Y-64600500D01*
X65295008Y-64600499D01*
X65295016Y-64600498D01*
X65295019Y-64600498D01*
X65351302Y-64594748D01*
X65397797Y-64589999D01*
X65499512Y-64556294D01*
X65538516Y-64550000D01*
X66181484Y-64550000D01*
X66220488Y-64556294D01*
X66322203Y-64589999D01*
X66424991Y-64600500D01*
X67475008Y-64600499D01*
X67475016Y-64600498D01*
X67475019Y-64600498D01*
X67531302Y-64594748D01*
X67577797Y-64589999D01*
X67679512Y-64556294D01*
X67718516Y-64550000D01*
X68470270Y-64550000D01*
X68535365Y-64568460D01*
X68545666Y-64574814D01*
X68712203Y-64629999D01*
X68814991Y-64640500D01*
X69865008Y-64640499D01*
X69865016Y-64640498D01*
X69865019Y-64640498D01*
X69921302Y-64634748D01*
X69967797Y-64629999D01*
X70134334Y-64574814D01*
X70144634Y-64568460D01*
X70209730Y-64550000D01*
X74865500Y-64550000D01*
X74932539Y-64569685D01*
X74978294Y-64622489D01*
X74989500Y-64674000D01*
X74989500Y-65519504D01*
X74989493Y-65520846D01*
X74951326Y-69047453D01*
X74930917Y-69114275D01*
X74877621Y-69159456D01*
X74827446Y-69170111D01*
X70171736Y-69174343D01*
X70132620Y-69168049D01*
X70017799Y-69130001D01*
X70017795Y-69130000D01*
X69915010Y-69119500D01*
X68864998Y-69119500D01*
X68864980Y-69119501D01*
X68762203Y-69130000D01*
X68762197Y-69130002D01*
X68643078Y-69169474D01*
X68604188Y-69175768D01*
X67872698Y-69176432D01*
X67807491Y-69157972D01*
X67754336Y-69125187D01*
X67754334Y-69125186D01*
X67737175Y-69119500D01*
X67587797Y-69070001D01*
X67587795Y-69070000D01*
X67485010Y-69059500D01*
X66434998Y-69059500D01*
X66434980Y-69059501D01*
X66332203Y-69070000D01*
X66332200Y-69070001D01*
X66165666Y-69125186D01*
X66165663Y-69125187D01*
X66109814Y-69159634D01*
X66044833Y-69178094D01*
X65670350Y-69178435D01*
X65617838Y-69166820D01*
X65614335Y-69165186D01*
X65558821Y-69146791D01*
X65447797Y-69110001D01*
X65447795Y-69110000D01*
X65345010Y-69099500D01*
X64294998Y-69099500D01*
X64294980Y-69099501D01*
X64192203Y-69110000D01*
X64192200Y-69110001D01*
X64025663Y-69165186D01*
X64019124Y-69168236D01*
X64017849Y-69165502D01*
X63966625Y-69179984D01*
X63950001Y-69179999D01*
X63949997Y-69180000D01*
X59896482Y-70205828D01*
X59863003Y-70209580D01*
X56736710Y-70132476D01*
X56670176Y-70111145D01*
X56625737Y-70057229D01*
X56616475Y-70021744D01*
X56520784Y-69130001D01*
X56120000Y-65395080D01*
X55092408Y-65124346D01*
X55032596Y-65088231D01*
X55001804Y-65025513D01*
X55000000Y-65004438D01*
X55000000Y-62986574D01*
X55019685Y-62919535D01*
X55072489Y-62873780D01*
X55126545Y-62862600D01*
X56460000Y-62890000D01*
X59082934Y-58906295D01*
X59136238Y-58861130D01*
X59187398Y-58850491D01*
X61771266Y-58869352D01*
G37*
%TD.AperFunction*%
%TD*%
%TA.AperFunction,Conductor*%
%TO.N,+48V*%
G36*
X17198774Y-71359899D02*
G01*
X17257451Y-71374875D01*
X19020000Y-72330000D01*
X25578426Y-72438812D01*
X25645129Y-72459606D01*
X25684763Y-72502575D01*
X26318755Y-73643759D01*
X26350000Y-73700000D01*
X26350000Y-73699999D01*
X26350001Y-73700000D01*
X26633178Y-73697039D01*
X31730371Y-73643759D01*
X31797612Y-73662742D01*
X31843917Y-73715064D01*
X31854679Y-73752131D01*
X32063380Y-75395657D01*
X32064355Y-75413071D01*
X32021100Y-78403906D01*
X32000448Y-78470654D01*
X31951657Y-78513473D01*
X31556738Y-78706903D01*
X31500226Y-78719527D01*
X26577620Y-78641390D01*
X26510901Y-78620644D01*
X26465990Y-78567121D01*
X26462060Y-78556942D01*
X26410580Y-78403906D01*
X25940000Y-77005000D01*
X25408511Y-76984956D01*
X21120782Y-76823258D01*
X21056564Y-76802448D01*
X20955501Y-76734919D01*
X20955488Y-76734912D01*
X20818917Y-76678343D01*
X20818907Y-76678340D01*
X20673920Y-76649500D01*
X20673918Y-76649500D01*
X20526082Y-76649500D01*
X20526080Y-76649500D01*
X20381092Y-76678340D01*
X20381082Y-76678343D01*
X20244506Y-76734914D01*
X20199576Y-76764935D01*
X20132899Y-76785811D01*
X20126015Y-76785743D01*
X19849003Y-76775296D01*
X19784786Y-76754487D01*
X19755499Y-76734918D01*
X19755488Y-76734912D01*
X19618917Y-76678343D01*
X19618907Y-76678340D01*
X19473920Y-76649500D01*
X19473918Y-76649500D01*
X19326082Y-76649500D01*
X19326080Y-76649500D01*
X19181092Y-76678340D01*
X19181082Y-76678343D01*
X19047324Y-76733747D01*
X19036606Y-76735669D01*
X19030299Y-76739395D01*
X18995199Y-76743098D01*
X18775446Y-76734811D01*
X18732666Y-76725460D01*
X18618913Y-76678342D01*
X18618907Y-76678340D01*
X18473920Y-76649500D01*
X18473918Y-76649500D01*
X18326082Y-76649500D01*
X18326080Y-76649500D01*
X18181093Y-76678340D01*
X18181086Y-76678342D01*
X18130770Y-76699183D01*
X18078647Y-76708533D01*
X17454908Y-76685010D01*
X17423597Y-76679762D01*
X17418915Y-76678342D01*
X17273920Y-76649500D01*
X17273918Y-76649500D01*
X17126082Y-76649500D01*
X17108178Y-76653061D01*
X17042712Y-76666083D01*
X17013849Y-76668377D01*
X14519827Y-76574323D01*
X14453577Y-76552126D01*
X14409845Y-76497635D01*
X14400500Y-76450411D01*
X14400500Y-71475272D01*
X14420185Y-71408233D01*
X14472989Y-71362478D01*
X14524897Y-71351273D01*
X17198774Y-71359899D01*
G37*
%TD.AperFunction*%
%TD*%
%TA.AperFunction,Conductor*%
%TO.N,GND*%
G36*
X16994799Y-77173518D02*
G01*
X17053899Y-77172288D01*
X17082762Y-77169994D01*
X17131777Y-77163194D01*
X17141322Y-77161871D01*
X17141324Y-77161870D01*
X17141328Y-77161870D01*
X17163886Y-77157382D01*
X17188077Y-77155000D01*
X17211918Y-77155000D01*
X17236108Y-77157382D01*
X17320296Y-77174129D01*
X17320296Y-77174128D01*
X17330859Y-77176230D01*
X17334952Y-77177116D01*
X17340036Y-77178308D01*
X17346294Y-77179357D01*
X17349949Y-77180026D01*
X17362874Y-77182597D01*
X17367783Y-77182958D01*
X17371347Y-77183556D01*
X17435858Y-77190151D01*
X18059597Y-77213674D01*
X18167901Y-77206091D01*
X18220024Y-77196741D01*
X18299263Y-77173518D01*
X18327417Y-77165267D01*
X18327483Y-77165492D01*
X18338951Y-77162343D01*
X18363893Y-77157381D01*
X18388078Y-77155000D01*
X18411918Y-77155000D01*
X18436106Y-77157382D01*
X18457916Y-77161719D01*
X18458671Y-77161870D01*
X18459476Y-77162030D01*
X18482740Y-77169086D01*
X18539221Y-77192482D01*
X18539227Y-77192484D01*
X18539226Y-77192484D01*
X18624703Y-77219295D01*
X18624713Y-77219297D01*
X18624721Y-77219300D01*
X18667501Y-77228651D01*
X18756397Y-77239952D01*
X18976150Y-77248239D01*
X19048234Y-77245808D01*
X19083334Y-77242105D01*
X19154385Y-77229428D01*
X19176503Y-77220314D01*
X19181250Y-77218474D01*
X19184969Y-77217120D01*
X19240769Y-77200769D01*
X19319745Y-77168055D01*
X19322287Y-77167130D01*
X19324083Y-77167015D01*
X19340518Y-77162031D01*
X19363894Y-77157382D01*
X19388081Y-77155000D01*
X19411918Y-77155000D01*
X19436104Y-77157382D01*
X19459481Y-77162031D01*
X19482744Y-77169086D01*
X19544318Y-77194592D01*
X19550906Y-77197549D01*
X19628960Y-77235370D01*
X19693177Y-77256179D01*
X19829953Y-77280437D01*
X20106965Y-77290884D01*
X20121022Y-77291218D01*
X20127906Y-77291286D01*
X20141909Y-77291231D01*
X20283937Y-77268219D01*
X20350614Y-77247343D01*
X20350624Y-77247340D01*
X20480415Y-77185244D01*
X20482044Y-77184154D01*
X20488040Y-77181335D01*
X20488798Y-77181217D01*
X20493352Y-77178987D01*
X20517257Y-77169085D01*
X20540509Y-77162032D01*
X20563897Y-77157380D01*
X20588081Y-77155000D01*
X20611918Y-77155000D01*
X20636102Y-77157381D01*
X20659489Y-77162032D01*
X20682741Y-77169086D01*
X20704775Y-77178213D01*
X20726203Y-77189667D01*
X20775719Y-77222753D01*
X20775720Y-77222753D01*
X20775721Y-77222754D01*
X20900733Y-77283329D01*
X20964951Y-77304139D01*
X20964954Y-77304139D01*
X20964960Y-77304141D01*
X21086919Y-77325771D01*
X21101732Y-77328399D01*
X25486609Y-77493760D01*
X25552858Y-77515957D01*
X25596590Y-77570448D01*
X25599463Y-77578136D01*
X25982936Y-78718097D01*
X25990482Y-78738998D01*
X25994416Y-78749188D01*
X26002898Y-78769794D01*
X26053029Y-78850589D01*
X26078754Y-78892050D01*
X26078760Y-78892057D01*
X26088189Y-78903294D01*
X26116202Y-78967302D01*
X26105163Y-79036294D01*
X26058576Y-79088366D01*
X25993200Y-79107000D01*
X14524500Y-79107000D01*
X14457461Y-79087315D01*
X14411706Y-79034511D01*
X14400500Y-78983000D01*
X14400500Y-77204446D01*
X14420185Y-77137407D01*
X14472989Y-77091652D01*
X14529169Y-77080534D01*
X16994799Y-77173518D01*
G37*
%TD.AperFunction*%
%TA.AperFunction,Conductor*%
G36*
X49578539Y-50600185D02*
G01*
X49624294Y-50652989D01*
X49635500Y-50704500D01*
X49635500Y-50755500D01*
X49615815Y-50822539D01*
X49563011Y-50868294D01*
X49511500Y-50879500D01*
X49208749Y-50879500D01*
X49189419Y-50873824D01*
X49169285Y-50873053D01*
X49156576Y-50864180D01*
X49141710Y-50859815D01*
X49128518Y-50844591D01*
X49111996Y-50833056D01*
X49106102Y-50818721D01*
X49095955Y-50807011D01*
X49093087Y-50787068D01*
X49085426Y-50768435D01*
X49088216Y-50753192D01*
X49086011Y-50737853D01*
X49094380Y-50719526D01*
X49098009Y-50699708D01*
X49108598Y-50688393D01*
X49115036Y-50674297D01*
X49131985Y-50663404D01*
X49145752Y-50648695D01*
X49168216Y-50640120D01*
X49173814Y-50636523D01*
X49178394Y-50635273D01*
X49187397Y-50633000D01*
X49188994Y-50633000D01*
X49324328Y-50606080D01*
X49371639Y-50586483D01*
X49380393Y-50584273D01*
X49389941Y-50584638D01*
X49410748Y-50580500D01*
X49511500Y-50580500D01*
X49578539Y-50600185D01*
G37*
%TD.AperFunction*%
%TA.AperFunction,Conductor*%
G36*
X74932539Y-38022685D02*
G01*
X74978294Y-38075489D01*
X74989500Y-38127000D01*
X74989500Y-63920500D01*
X74969815Y-63987539D01*
X74917011Y-64033294D01*
X74865500Y-64044500D01*
X70209725Y-64044500D01*
X70071818Y-64063676D01*
X70006728Y-64082134D01*
X70006715Y-64082139D01*
X69989700Y-64089626D01*
X69978767Y-64093832D01*
X69874238Y-64128470D01*
X69847843Y-64134121D01*
X69845544Y-64134356D01*
X69832935Y-64134999D01*
X68847065Y-64134999D01*
X68834467Y-64134357D01*
X68832158Y-64134121D01*
X68805763Y-64128470D01*
X68732367Y-64104149D01*
X68701233Y-64093833D01*
X68690300Y-64089626D01*
X68673279Y-64082137D01*
X68673277Y-64082136D01*
X68673274Y-64082135D01*
X68608183Y-64063676D01*
X68470274Y-64044500D01*
X68470270Y-64044500D01*
X67718516Y-64044500D01*
X67718507Y-64044500D01*
X67638002Y-64050954D01*
X67637989Y-64050955D01*
X67637986Y-64050956D01*
X67637977Y-64050957D01*
X67637973Y-64050958D01*
X67598987Y-64057249D01*
X67598984Y-64057249D01*
X67598982Y-64057250D01*
X67520508Y-64076452D01*
X67520504Y-64076453D01*
X67520497Y-64076455D01*
X67484236Y-64088470D01*
X67457892Y-64094115D01*
X67455592Y-64094351D01*
X67442935Y-64094999D01*
X66457064Y-64094999D01*
X66444465Y-64094357D01*
X66442164Y-64094122D01*
X66415763Y-64088471D01*
X66379492Y-64076452D01*
X66301018Y-64057250D01*
X66297758Y-64056724D01*
X66288016Y-64055152D01*
X66262014Y-64050956D01*
X66262008Y-64050955D01*
X66261997Y-64050954D01*
X66181493Y-64044500D01*
X66181484Y-64044500D01*
X65538516Y-64044500D01*
X65538507Y-64044500D01*
X65458002Y-64050954D01*
X65457989Y-64050955D01*
X65457986Y-64050956D01*
X65457977Y-64050957D01*
X65457973Y-64050958D01*
X65418987Y-64057249D01*
X65418984Y-64057249D01*
X65418982Y-64057250D01*
X65340508Y-64076452D01*
X65340504Y-64076453D01*
X65340497Y-64076455D01*
X65304236Y-64088470D01*
X65277892Y-64094115D01*
X65275592Y-64094351D01*
X65262935Y-64094999D01*
X64277064Y-64094999D01*
X64264465Y-64094357D01*
X64262164Y-64094122D01*
X64235763Y-64088471D01*
X64199492Y-64076452D01*
X64178552Y-64071328D01*
X64178347Y-64071209D01*
X64178110Y-64071219D01*
X64148194Y-64053720D01*
X64118114Y-64036274D01*
X64117935Y-64036021D01*
X64117800Y-64035942D01*
X64115836Y-64033050D01*
X64097490Y-64007077D01*
X64096566Y-64005260D01*
X64089179Y-63989443D01*
X64077879Y-63968502D01*
X64077191Y-63967149D01*
X64077000Y-63966131D01*
X64070023Y-63949965D01*
X64054096Y-63901898D01*
X64049326Y-63882265D01*
X64044894Y-63854208D01*
X64039193Y-63827663D01*
X64024607Y-63774208D01*
X63926981Y-63480814D01*
X62367660Y-58794595D01*
X62359105Y-58770878D01*
X62357402Y-58766503D01*
X62354609Y-58759325D01*
X62344866Y-58736031D01*
X62267964Y-58614426D01*
X62267961Y-58614422D01*
X62267958Y-58614418D01*
X62222603Y-58561298D01*
X62222593Y-58561287D01*
X62114559Y-58466285D01*
X62114556Y-58466283D01*
X62114555Y-58466282D01*
X62114551Y-58466280D01*
X62098607Y-58458857D01*
X62098599Y-58458854D01*
X61984117Y-58405557D01*
X61917224Y-58385383D01*
X61917218Y-58385381D01*
X61915751Y-58385159D01*
X61774958Y-58363865D01*
X60052377Y-58351291D01*
X60033472Y-58351153D01*
X62959500Y-58351153D01*
X62959500Y-58508846D01*
X62990261Y-58663489D01*
X62990264Y-58663501D01*
X63050602Y-58809172D01*
X63050609Y-58809185D01*
X63138210Y-58940288D01*
X63138213Y-58940292D01*
X63249706Y-59051785D01*
X63249709Y-59051787D01*
X63249711Y-59051789D01*
X63273861Y-59067925D01*
X63318665Y-59121535D01*
X63327374Y-59190860D01*
X63308072Y-59239918D01*
X63220609Y-59370814D01*
X63220602Y-59370827D01*
X63160264Y-59516498D01*
X63160261Y-59516510D01*
X63129500Y-59671153D01*
X63129500Y-59828846D01*
X63160261Y-59983489D01*
X63160264Y-59983501D01*
X63220602Y-60129172D01*
X63220609Y-60129185D01*
X63308210Y-60260288D01*
X63308213Y-60260292D01*
X63419707Y-60371786D01*
X63419711Y-60371789D01*
X63550814Y-60459390D01*
X63550827Y-60459397D01*
X63696498Y-60519735D01*
X63696503Y-60519737D01*
X63851153Y-60550499D01*
X63851156Y-60550500D01*
X63851158Y-60550500D01*
X64008844Y-60550500D01*
X64008845Y-60550499D01*
X64163497Y-60519737D01*
X64309179Y-60459394D01*
X64440289Y-60371789D01*
X64551789Y-60260289D01*
X64639394Y-60129179D01*
X64640911Y-60125518D01*
X64689690Y-60007753D01*
X64699737Y-59983497D01*
X64730500Y-59828842D01*
X64730500Y-59671158D01*
X64730500Y-59671155D01*
X64730499Y-59671153D01*
X64699738Y-59516510D01*
X64699737Y-59516503D01*
X64650586Y-59397841D01*
X64639397Y-59370827D01*
X64639390Y-59370814D01*
X64551398Y-59239125D01*
X64530520Y-59172447D01*
X64530500Y-59170234D01*
X64530500Y-58671872D01*
X64532883Y-58647680D01*
X64534613Y-58638986D01*
X64543927Y-58592159D01*
X64560500Y-58508844D01*
X64560500Y-58351155D01*
X64560499Y-58351153D01*
X64549429Y-58295500D01*
X64529737Y-58196503D01*
X64483577Y-58085061D01*
X64469397Y-58050827D01*
X64469390Y-58050814D01*
X64381789Y-57919711D01*
X64381786Y-57919707D01*
X64270292Y-57808213D01*
X64270288Y-57808210D01*
X64139185Y-57720609D01*
X64139172Y-57720602D01*
X63993501Y-57660264D01*
X63993489Y-57660261D01*
X63838845Y-57629500D01*
X63838842Y-57629500D01*
X63681158Y-57629500D01*
X63681155Y-57629500D01*
X63526510Y-57660261D01*
X63526498Y-57660264D01*
X63380827Y-57720602D01*
X63380814Y-57720609D01*
X63249711Y-57808210D01*
X63249707Y-57808213D01*
X63138213Y-57919707D01*
X63138210Y-57919711D01*
X63050609Y-58050814D01*
X63050602Y-58050827D01*
X62990264Y-58196498D01*
X62990261Y-58196510D01*
X62959500Y-58351153D01*
X60033472Y-58351153D01*
X59191088Y-58345004D01*
X59191087Y-58345004D01*
X59084477Y-58355579D01*
X59033327Y-58366215D01*
X58931347Y-58399015D01*
X58809454Y-58475458D01*
X58809440Y-58475468D01*
X58756156Y-58520617D01*
X58756150Y-58520623D01*
X58660729Y-58628313D01*
X56228957Y-62321681D01*
X56175650Y-62366849D01*
X56122843Y-62377465D01*
X55442799Y-62363491D01*
X55136930Y-62357207D01*
X55136928Y-62357207D01*
X55136923Y-62357207D01*
X55024160Y-62367577D01*
X54970110Y-62378756D01*
X54970100Y-62378759D01*
X54862493Y-62413962D01*
X54741462Y-62491745D01*
X54741451Y-62491753D01*
X54688659Y-62537497D01*
X54594433Y-62646238D01*
X54594430Y-62646242D01*
X54534664Y-62777108D01*
X54514976Y-62844156D01*
X54508834Y-62886875D01*
X54495897Y-62976861D01*
X54494500Y-62986575D01*
X54494500Y-65004437D01*
X54496342Y-65047552D01*
X54498146Y-65068626D01*
X54503658Y-65111428D01*
X54548040Y-65248287D01*
X54578832Y-65311007D01*
X54578833Y-65311009D01*
X54578834Y-65311010D01*
X54627506Y-65382279D01*
X54659977Y-65429824D01*
X54759907Y-65511632D01*
X54771308Y-65520965D01*
X54831120Y-65557080D01*
X54831122Y-65557081D01*
X54963621Y-65613165D01*
X54963624Y-65613165D01*
X54963627Y-65613167D01*
X55156665Y-65664025D01*
X55571945Y-65773436D01*
X55631756Y-65809549D01*
X55662548Y-65872268D01*
X55663644Y-65880113D01*
X56113858Y-70075665D01*
X56113859Y-70075672D01*
X56127357Y-70149391D01*
X56136626Y-70184904D01*
X56160876Y-70255811D01*
X56160878Y-70255816D01*
X56160880Y-70255820D01*
X56235660Y-70378741D01*
X56276103Y-70427809D01*
X56277195Y-70429280D01*
X56280099Y-70432658D01*
X56280100Y-70432659D01*
X56280101Y-70432660D01*
X56386483Y-70529533D01*
X56515849Y-70592511D01*
X56582383Y-70613842D01*
X56724239Y-70637821D01*
X56724246Y-70637822D01*
X56817438Y-70640120D01*
X59850540Y-70714926D01*
X59919302Y-70711935D01*
X59952781Y-70708183D01*
X60020500Y-70695879D01*
X60020516Y-70695874D01*
X60020521Y-70695874D01*
X62039594Y-70184904D01*
X64062524Y-69672958D01*
X64075857Y-69670352D01*
X64084637Y-69669131D01*
X64090389Y-69668710D01*
X64095079Y-69667997D01*
X64095082Y-69667997D01*
X64095084Y-69667996D01*
X64100651Y-69667150D01*
X64104130Y-69666419D01*
X64104149Y-69666417D01*
X64136569Y-69657251D01*
X64147449Y-69657360D01*
X64184666Y-69645027D01*
X64184667Y-69645028D01*
X64285769Y-69611525D01*
X64312195Y-69605873D01*
X64314515Y-69605636D01*
X64327062Y-69605000D01*
X65312943Y-69605000D01*
X65325511Y-69605639D01*
X65326031Y-69605692D01*
X65327802Y-69605872D01*
X65354228Y-69611525D01*
X65455331Y-69645028D01*
X65455331Y-69645027D01*
X65486938Y-69655501D01*
X65505381Y-69659554D01*
X65505403Y-69659478D01*
X65506770Y-69659859D01*
X65507716Y-69660067D01*
X65508666Y-69660390D01*
X65508680Y-69660393D01*
X65561171Y-69672004D01*
X65561176Y-69672004D01*
X65561178Y-69672005D01*
X65670810Y-69683935D01*
X66045293Y-69683594D01*
X66045300Y-69683593D01*
X66045305Y-69683593D01*
X66102422Y-69675610D01*
X66182971Y-69664353D01*
X66247952Y-69645893D01*
X66375183Y-69589878D01*
X66375183Y-69589877D01*
X66379101Y-69588153D01*
X66379154Y-69588273D01*
X66393025Y-69582375D01*
X66425768Y-69571526D01*
X66452196Y-69565873D01*
X66454515Y-69565636D01*
X66467063Y-69565000D01*
X67452944Y-69565000D01*
X67465512Y-69565639D01*
X67465873Y-69565675D01*
X67467803Y-69565872D01*
X67494232Y-69571526D01*
X67528998Y-69583046D01*
X67539898Y-69587239D01*
X67585421Y-69607256D01*
X67669796Y-69644357D01*
X67735003Y-69662817D01*
X67873157Y-69681932D01*
X67873161Y-69681931D01*
X67873162Y-69681932D01*
X68088301Y-69681736D01*
X68604647Y-69681268D01*
X68684948Y-69674775D01*
X68723838Y-69668481D01*
X68802081Y-69649316D01*
X68855760Y-69631527D01*
X68882193Y-69625873D01*
X68884498Y-69625637D01*
X68897054Y-69625000D01*
X69882944Y-69625000D01*
X69895512Y-69625639D01*
X69895873Y-69625675D01*
X69897803Y-69625872D01*
X69924232Y-69631526D01*
X69973617Y-69647891D01*
X70052315Y-69667130D01*
X70052319Y-69667131D01*
X70060711Y-69668481D01*
X70091431Y-69673424D01*
X70172195Y-69679843D01*
X74827905Y-69675611D01*
X74852494Y-69673017D01*
X74921225Y-69685560D01*
X74972268Y-69733272D01*
X74989500Y-69796333D01*
X74989500Y-78983000D01*
X74969815Y-79050039D01*
X74917011Y-79095794D01*
X74865500Y-79107000D01*
X32370994Y-79107000D01*
X32303955Y-79087315D01*
X32258200Y-79034511D01*
X32248256Y-78965353D01*
X32277281Y-78901797D01*
X32289203Y-78889800D01*
X32333881Y-78850591D01*
X32421705Y-78750069D01*
X32483362Y-78620069D01*
X32504014Y-78553321D01*
X32526547Y-78411216D01*
X32541345Y-77387984D01*
X32561997Y-77321237D01*
X32615457Y-77276251D01*
X32684752Y-77267308D01*
X32700867Y-77270979D01*
X32713784Y-77274844D01*
X32856092Y-77296050D01*
X33503120Y-77299368D01*
X36522570Y-77314852D01*
X36522571Y-77314851D01*
X36522584Y-77314852D01*
X36631727Y-77303502D01*
X36684044Y-77292221D01*
X36788176Y-77257581D01*
X36909099Y-77179612D01*
X36961834Y-77133778D01*
X37055891Y-77024900D01*
X37115465Y-76893932D01*
X37135049Y-76826863D01*
X37135049Y-76826861D01*
X37135098Y-76826510D01*
X37136278Y-76818268D01*
X37136285Y-76818170D01*
X37140617Y-76787720D01*
X37155311Y-76684415D01*
X37135683Y-63632131D01*
X37124451Y-63526919D01*
X37113628Y-63476439D01*
X37080738Y-63375863D01*
X37064206Y-63349711D01*
X37003861Y-63254251D01*
X37003855Y-63254243D01*
X36991037Y-63239225D01*
X36958498Y-63201100D01*
X36850476Y-63106073D01*
X36850474Y-63106072D01*
X36850472Y-63106070D01*
X36850471Y-63106069D01*
X36720056Y-63045326D01*
X36720043Y-63045321D01*
X36667484Y-63029459D01*
X46825430Y-63029459D01*
X46825430Y-63029461D01*
X46943448Y-76631144D01*
X46943449Y-76631154D01*
X46955595Y-76736989D01*
X46955596Y-76736995D01*
X46966930Y-76787720D01*
X46982163Y-76832868D01*
X47000988Y-76888661D01*
X47049038Y-76963007D01*
X47079088Y-77009501D01*
X47079092Y-77009507D01*
X47124975Y-77062183D01*
X47124978Y-77062186D01*
X47233956Y-77156126D01*
X47364988Y-77215559D01*
X47432078Y-77235071D01*
X47432080Y-77235071D01*
X47432507Y-77235131D01*
X47440548Y-77236277D01*
X47440701Y-77236288D01*
X47477889Y-77241536D01*
X47574548Y-77255180D01*
X51209105Y-77245812D01*
X51312920Y-77234764D01*
X51362747Y-77224171D01*
X51462056Y-77192041D01*
X51465077Y-77190151D01*
X51501867Y-77167130D01*
X51584026Y-77115720D01*
X51637378Y-77070606D01*
X51637381Y-77070603D01*
X51732907Y-76963010D01*
X51794252Y-76832863D01*
X51814744Y-76766065D01*
X51814744Y-76766064D01*
X51836936Y-76623905D01*
X51951968Y-67085770D01*
X51972460Y-67018975D01*
X51996440Y-66992122D01*
X53859939Y-65434833D01*
X53914050Y-65382279D01*
X53938532Y-65354663D01*
X53984224Y-65294636D01*
X54044614Y-65164042D01*
X54064616Y-65097097D01*
X54085767Y-64954780D01*
X54094903Y-63026981D01*
X54083609Y-62918300D01*
X54072405Y-62866204D01*
X54038024Y-62762496D01*
X53960236Y-62641457D01*
X53960231Y-62641451D01*
X53914487Y-62588659D01*
X53914483Y-62588656D01*
X53914481Y-62588653D01*
X53805747Y-62494433D01*
X53805744Y-62494431D01*
X53805742Y-62494430D01*
X53674876Y-62434664D01*
X53674871Y-62434662D01*
X53674870Y-62434662D01*
X53607831Y-62414977D01*
X53607833Y-62414977D01*
X53607828Y-62414976D01*
X53549027Y-62406522D01*
X53465411Y-62394500D01*
X47454907Y-62394500D01*
X47454899Y-62394500D01*
X47345321Y-62406522D01*
X47345317Y-62406523D01*
X47345313Y-62406523D01*
X47345311Y-62406524D01*
X47322841Y-62411514D01*
X47292821Y-62418181D01*
X47188451Y-62453675D01*
X47188449Y-62453676D01*
X47068086Y-62532510D01*
X47021952Y-62573192D01*
X47021568Y-62573487D01*
X47015677Y-62578724D01*
X46922405Y-62688273D01*
X46863773Y-62819663D01*
X46863771Y-62819668D01*
X46844670Y-62886873D01*
X46844669Y-62886877D01*
X46825430Y-63029459D01*
X36667484Y-63029459D01*
X36657056Y-63026312D01*
X36654972Y-63025608D01*
X36653149Y-63025133D01*
X36510898Y-63003594D01*
X36510907Y-63003594D01*
X35382414Y-62995151D01*
X32715093Y-62975197D01*
X32715086Y-62975197D01*
X32715067Y-62975197D01*
X32682984Y-62975977D01*
X32678480Y-62976230D01*
X32667245Y-62976861D01*
X32635256Y-62979679D01*
X32635252Y-62979679D01*
X32635251Y-62979680D01*
X32496305Y-63017005D01*
X32496297Y-63017007D01*
X32432092Y-63044550D01*
X32309284Y-63119511D01*
X32212567Y-63226039D01*
X32173442Y-63283924D01*
X32173440Y-63283928D01*
X32110656Y-63413382D01*
X32110652Y-63413392D01*
X31535528Y-65216487D01*
X31496402Y-65274375D01*
X31432191Y-65301920D01*
X31419646Y-65302786D01*
X28098007Y-65363179D01*
X28030621Y-65344716D01*
X27983914Y-65292752D01*
X27972715Y-65223786D01*
X28000579Y-65159713D01*
X28008074Y-65151516D01*
X28023170Y-65136420D01*
X28103618Y-65000390D01*
X28147709Y-64848627D01*
X28150500Y-64813163D01*
X28150499Y-64086838D01*
X28147709Y-64051373D01*
X28103618Y-63899610D01*
X28033563Y-63781153D01*
X28023172Y-63763583D01*
X28023165Y-63763574D01*
X27911425Y-63651834D01*
X27911416Y-63651827D01*
X27775390Y-63571382D01*
X27775385Y-63571380D01*
X27623633Y-63527292D01*
X27623620Y-63527290D01*
X27588170Y-63524500D01*
X27588163Y-63524500D01*
X27516519Y-63524500D01*
X27449480Y-63504815D01*
X27428838Y-63488181D01*
X27256546Y-63315888D01*
X27256545Y-63315887D01*
X27141807Y-63239222D01*
X27014332Y-63186421D01*
X27014322Y-63186418D01*
X26878996Y-63159500D01*
X26878994Y-63159500D01*
X26878993Y-63159500D01*
X26595316Y-63159500D01*
X26547864Y-63150061D01*
X26403501Y-63090264D01*
X26403489Y-63090261D01*
X26248845Y-63059500D01*
X26248842Y-63059500D01*
X26091158Y-63059500D01*
X26091155Y-63059500D01*
X25936510Y-63090261D01*
X25936498Y-63090264D01*
X25790827Y-63150602D01*
X25790814Y-63150609D01*
X25659711Y-63238210D01*
X25659707Y-63238213D01*
X25548213Y-63349707D01*
X25548210Y-63349711D01*
X25460609Y-63480814D01*
X25460602Y-63480827D01*
X25400264Y-63626498D01*
X25400261Y-63626510D01*
X25369500Y-63781153D01*
X25369500Y-63938846D01*
X25400261Y-64093489D01*
X25400264Y-64093501D01*
X25460602Y-64239172D01*
X25460609Y-64239185D01*
X25548210Y-64370288D01*
X25548213Y-64370292D01*
X25659707Y-64481786D01*
X25659711Y-64481789D01*
X25790814Y-64569390D01*
X25790827Y-64569397D01*
X25935928Y-64629499D01*
X25936503Y-64629737D01*
X26091153Y-64660499D01*
X26091156Y-64660500D01*
X26091158Y-64660500D01*
X26248844Y-64660500D01*
X26248845Y-64660499D01*
X26403497Y-64629737D01*
X26458177Y-64607087D01*
X26478050Y-64604950D01*
X26496783Y-64597964D01*
X26512079Y-64601291D01*
X26527644Y-64599618D01*
X26545521Y-64608566D01*
X26565056Y-64612816D01*
X26587342Y-64629499D01*
X26590124Y-64630892D01*
X26593310Y-64633967D01*
X26613181Y-64653838D01*
X26646666Y-64715161D01*
X26649500Y-64741517D01*
X26649500Y-64813150D01*
X26649501Y-64813176D01*
X26652291Y-64848627D01*
X26696380Y-65000385D01*
X26696382Y-65000390D01*
X26776827Y-65136416D01*
X26776834Y-65136425D01*
X26864982Y-65224573D01*
X26898467Y-65285896D01*
X26893483Y-65355588D01*
X26851611Y-65411521D01*
X26815754Y-65430141D01*
X26799163Y-65435552D01*
X26747146Y-65467955D01*
X26677039Y-65511629D01*
X26677036Y-65511630D01*
X26677035Y-65511632D01*
X26623592Y-65556639D01*
X26527860Y-65664025D01*
X26466249Y-65794050D01*
X26446024Y-65859500D01*
X26445673Y-65860592D01*
X26445619Y-65860810D01*
X26423140Y-66002918D01*
X26423140Y-66002923D01*
X26355582Y-70799591D01*
X26365027Y-70885076D01*
X26369330Y-70924014D01*
X26383468Y-70983279D01*
X26383469Y-70983283D01*
X26427364Y-71100501D01*
X26427364Y-71100502D01*
X26427365Y-71100503D01*
X26511576Y-71217165D01*
X26560116Y-71267421D01*
X26560117Y-71267422D01*
X26560121Y-71267426D01*
X26667416Y-71350691D01*
X26708310Y-71407343D01*
X26712084Y-71477110D01*
X26693537Y-71518959D01*
X26687101Y-71528308D01*
X26676830Y-71538580D01*
X26657287Y-71571623D01*
X26654867Y-71575140D01*
X26652208Y-71577299D01*
X26640413Y-71592508D01*
X26633213Y-71599709D01*
X26633210Y-71599712D01*
X26545609Y-71730815D01*
X26545602Y-71730827D01*
X26485264Y-71876498D01*
X26485261Y-71876510D01*
X26454500Y-72031153D01*
X26454500Y-72188846D01*
X26485261Y-72343489D01*
X26485264Y-72343501D01*
X26540061Y-72475793D01*
X26541687Y-72483969D01*
X26544477Y-72488310D01*
X26549500Y-72523245D01*
X26549500Y-72539682D01*
X26529815Y-72606721D01*
X26477011Y-72652476D01*
X26407853Y-72662420D01*
X26344297Y-72633395D01*
X26317106Y-72599904D01*
X26126649Y-72257082D01*
X26056334Y-72159843D01*
X26016700Y-72116874D01*
X25925441Y-72038945D01*
X25925440Y-72038944D01*
X25795577Y-71977013D01*
X25795572Y-71977011D01*
X25745822Y-71961502D01*
X25728870Y-71956218D01*
X25728869Y-71956218D01*
X25728850Y-71956212D01*
X25728327Y-71956130D01*
X25586823Y-71933383D01*
X25586813Y-71933382D01*
X25586812Y-71933382D01*
X25337907Y-71929252D01*
X19182419Y-71827125D01*
X19125397Y-71812164D01*
X17498292Y-70930436D01*
X17382465Y-70885077D01*
X17382455Y-70885074D01*
X17323790Y-70870101D01*
X17323766Y-70870096D01*
X17200412Y-70854402D01*
X17200399Y-70854401D01*
X14524100Y-70845767D01*
X14457124Y-70825867D01*
X14411540Y-70772915D01*
X14400500Y-70721768D01*
X14400500Y-51018543D01*
X15589499Y-51018543D01*
X15627947Y-51211829D01*
X15627950Y-51211839D01*
X15703364Y-51393907D01*
X15703371Y-51393920D01*
X15812860Y-51557781D01*
X15812863Y-51557785D01*
X15952214Y-51697136D01*
X15952218Y-51697139D01*
X16116079Y-51806628D01*
X16116092Y-51806635D01*
X16297735Y-51881873D01*
X16298165Y-51882051D01*
X16298169Y-51882051D01*
X16298170Y-51882052D01*
X16491456Y-51920500D01*
X16491459Y-51920500D01*
X16688541Y-51920500D01*
X18050500Y-51920500D01*
X18059185Y-51923050D01*
X18068147Y-51921762D01*
X18092187Y-51932740D01*
X18117539Y-51940185D01*
X18123466Y-51947025D01*
X18131703Y-51950787D01*
X18145992Y-51973021D01*
X18163294Y-51992989D01*
X18165581Y-52003503D01*
X18169477Y-52009565D01*
X18174500Y-52044500D01*
X18174500Y-52078202D01*
X18165635Y-52118207D01*
X18167458Y-52118811D01*
X18165187Y-52125664D01*
X18165186Y-52125666D01*
X18110001Y-52292203D01*
X18110001Y-52292204D01*
X18110000Y-52292204D01*
X18099500Y-52394983D01*
X18099500Y-53095001D01*
X18099501Y-53095019D01*
X18110000Y-53197796D01*
X18110001Y-53197799D01*
X18118164Y-53222432D01*
X18165186Y-53364334D01*
X18257288Y-53513656D01*
X18381344Y-53637712D01*
X18530666Y-53729814D01*
X18697203Y-53784999D01*
X18799991Y-53795500D01*
X19500008Y-53795499D01*
X19500016Y-53795498D01*
X19500019Y-53795498D01*
X19556302Y-53789748D01*
X19602797Y-53784999D01*
X19769334Y-53729814D01*
X19918656Y-53637712D01*
X20042712Y-53513656D01*
X20044960Y-53510010D01*
X20047155Y-53508035D01*
X20047193Y-53507989D01*
X20047201Y-53507995D01*
X20096904Y-53463286D01*
X20165866Y-53452061D01*
X20229950Y-53479901D01*
X20268808Y-53537968D01*
X20274500Y-53575105D01*
X20274500Y-53690701D01*
X20277401Y-53727567D01*
X20277402Y-53727573D01*
X20323254Y-53885393D01*
X20323255Y-53885396D01*
X20406917Y-54026862D01*
X20406923Y-54026870D01*
X20523129Y-54143076D01*
X20526493Y-54145685D01*
X20528456Y-54148403D01*
X20528586Y-54148533D01*
X20531703Y-54149957D01*
X20548841Y-54176625D01*
X20567404Y-54202324D01*
X20568149Y-54206669D01*
X20569477Y-54208735D01*
X20574500Y-54243670D01*
X20574500Y-54467948D01*
X20554815Y-54534987D01*
X20538181Y-54555629D01*
X20434661Y-54659148D01*
X20344093Y-54805981D01*
X20344091Y-54805986D01*
X20336046Y-54830264D01*
X20289826Y-54969747D01*
X20289826Y-54969748D01*
X20289825Y-54969748D01*
X20279500Y-55070815D01*
X20279500Y-55183905D01*
X20277117Y-55208096D01*
X20267000Y-55258956D01*
X20267000Y-55456038D01*
X20277118Y-55506909D01*
X20279500Y-55531098D01*
X20279500Y-55644168D01*
X20279501Y-55644187D01*
X20289825Y-55745252D01*
X20319065Y-55833489D01*
X20344092Y-55909016D01*
X20434660Y-56055850D01*
X20556650Y-56177840D01*
X20703484Y-56268408D01*
X20867247Y-56322674D01*
X20968323Y-56333000D01*
X21031062Y-56332999D01*
X21055255Y-56335382D01*
X21168958Y-56358000D01*
X21168960Y-56358000D01*
X21366042Y-56358000D01*
X21454017Y-56340500D01*
X21479747Y-56335381D01*
X21503938Y-56332999D01*
X21566670Y-56332999D01*
X21566676Y-56332999D01*
X21667753Y-56322674D01*
X21831516Y-56268408D01*
X21978350Y-56177840D01*
X22100340Y-56055850D01*
X22190908Y-55909016D01*
X22211401Y-55847170D01*
X22241426Y-55798494D01*
X22294668Y-55745253D01*
X22352140Y-55687781D01*
X22461632Y-55523914D01*
X22537052Y-55341835D01*
X22575500Y-55148540D01*
X22575500Y-54951459D01*
X22575500Y-54243670D01*
X22595185Y-54176631D01*
X22623507Y-54145685D01*
X22626858Y-54143084D01*
X22626865Y-54143081D01*
X22743081Y-54026865D01*
X22826744Y-53885398D01*
X22862322Y-53762940D01*
X22872597Y-53727573D01*
X22872598Y-53727567D01*
X22875499Y-53690701D01*
X22875500Y-53690694D01*
X22875500Y-53259306D01*
X22872598Y-53222431D01*
X22862839Y-53188842D01*
X22826745Y-53064606D01*
X22826744Y-53064603D01*
X22826744Y-53064602D01*
X22743081Y-52923135D01*
X22743078Y-52923132D01*
X22738298Y-52916969D01*
X22740750Y-52915066D01*
X22714155Y-52866421D01*
X22719104Y-52796726D01*
X22739940Y-52764304D01*
X22738298Y-52763031D01*
X22743075Y-52756870D01*
X22743081Y-52756865D01*
X22826744Y-52615398D01*
X22869506Y-52468211D01*
X22872597Y-52457573D01*
X22872598Y-52457567D01*
X22874300Y-52435939D01*
X22875500Y-52420694D01*
X22875500Y-51989306D01*
X22872598Y-51952431D01*
X22872120Y-51950787D01*
X22826745Y-51794606D01*
X22826744Y-51794603D01*
X22826744Y-51794602D01*
X22743081Y-51653135D01*
X22743078Y-51653132D01*
X22738298Y-51646969D01*
X22740750Y-51645066D01*
X22714155Y-51596421D01*
X22719104Y-51526726D01*
X22739940Y-51494304D01*
X22738298Y-51493031D01*
X22743075Y-51486870D01*
X22743081Y-51486865D01*
X22826744Y-51345398D01*
X22872598Y-51187569D01*
X22875500Y-51150694D01*
X22875500Y-50719306D01*
X22872598Y-50682431D01*
X22864044Y-50652989D01*
X22826745Y-50524606D01*
X22826744Y-50524603D01*
X22826744Y-50524602D01*
X22743081Y-50383135D01*
X22743079Y-50383133D01*
X22743076Y-50383129D01*
X22626870Y-50266923D01*
X22626862Y-50266917D01*
X22485396Y-50183255D01*
X22485393Y-50183254D01*
X22327573Y-50137402D01*
X22327567Y-50137401D01*
X22290701Y-50134500D01*
X22290694Y-50134500D01*
X22240784Y-50134500D01*
X22173745Y-50114815D01*
X22153103Y-50098181D01*
X22010285Y-49955363D01*
X22010281Y-49955360D01*
X21846420Y-49845871D01*
X21846407Y-49845864D01*
X21705748Y-49787602D01*
X21705744Y-49787601D01*
X21697217Y-49784069D01*
X21664336Y-49770449D01*
X21530574Y-49743842D01*
X21495493Y-49736863D01*
X21471042Y-49732000D01*
X21471041Y-49732000D01*
X20039866Y-49732000D01*
X19974768Y-49713538D01*
X19969338Y-49710188D01*
X19969335Y-49710186D01*
X19969334Y-49710186D01*
X19802797Y-49655001D01*
X19802795Y-49655000D01*
X19700010Y-49644500D01*
X18649998Y-49644500D01*
X18649980Y-49644501D01*
X18547203Y-49655000D01*
X18547200Y-49655001D01*
X18380668Y-49710185D01*
X18380663Y-49710187D01*
X18231342Y-49802289D01*
X18150451Y-49883181D01*
X18089128Y-49916666D01*
X18062770Y-49919500D01*
X16491457Y-49919500D01*
X16298170Y-49957947D01*
X16298160Y-49957950D01*
X16116092Y-50033364D01*
X16116079Y-50033371D01*
X15952218Y-50142860D01*
X15952214Y-50142863D01*
X15812863Y-50282214D01*
X15812860Y-50282218D01*
X15703371Y-50446079D01*
X15703364Y-50446092D01*
X15627950Y-50628160D01*
X15627947Y-50628170D01*
X15589500Y-50821456D01*
X15589500Y-50821459D01*
X15589500Y-51018541D01*
X15589500Y-51018543D01*
X15589499Y-51018543D01*
X14400500Y-51018543D01*
X14400500Y-42972135D01*
X19849500Y-42972135D01*
X19849500Y-46567870D01*
X19849501Y-46567876D01*
X19855908Y-46627483D01*
X19906202Y-46762328D01*
X19906206Y-46762335D01*
X19992452Y-46877544D01*
X19992455Y-46877547D01*
X20107664Y-46963793D01*
X20107671Y-46963797D01*
X20242517Y-47014091D01*
X20242516Y-47014091D01*
X20249444Y-47014835D01*
X20302127Y-47020500D01*
X21000500Y-47020499D01*
X21067539Y-47040183D01*
X21113294Y-47092987D01*
X21124500Y-47144499D01*
X21124500Y-47233994D01*
X21124500Y-47233996D01*
X21124499Y-47233996D01*
X21151418Y-47369322D01*
X21151421Y-47369332D01*
X21204222Y-47496807D01*
X21280887Y-47611545D01*
X22763454Y-49094112D01*
X22878192Y-49170777D01*
X22995940Y-49219549D01*
X23005672Y-49223580D01*
X23005676Y-49223580D01*
X23005677Y-49223581D01*
X23141003Y-49250500D01*
X23141006Y-49250500D01*
X23141007Y-49250500D01*
X25459295Y-49250500D01*
X25526334Y-49270185D01*
X25572089Y-49322989D01*
X25582033Y-49392147D01*
X25578372Y-49409089D01*
X25578244Y-49409534D01*
X25577401Y-49412434D01*
X25574500Y-49449298D01*
X25574500Y-49880701D01*
X25577401Y-49917567D01*
X25577402Y-49917573D01*
X25623254Y-50075393D01*
X25623255Y-50075396D01*
X25706917Y-50216862D01*
X25711702Y-50223031D01*
X25709256Y-50224927D01*
X25735857Y-50273642D01*
X25730873Y-50343334D01*
X25710069Y-50375703D01*
X25711702Y-50376969D01*
X25706917Y-50383137D01*
X25623255Y-50524603D01*
X25623254Y-50524606D01*
X25577402Y-50682426D01*
X25577401Y-50682432D01*
X25574500Y-50719298D01*
X25574500Y-51150701D01*
X25577401Y-51187567D01*
X25577402Y-51187573D01*
X25623254Y-51345393D01*
X25623255Y-51345396D01*
X25706917Y-51486862D01*
X25711702Y-51493031D01*
X25709256Y-51494927D01*
X25735857Y-51543642D01*
X25730873Y-51613334D01*
X25710069Y-51645703D01*
X25711702Y-51646969D01*
X25706917Y-51653137D01*
X25623255Y-51794603D01*
X25623254Y-51794606D01*
X25577402Y-51952426D01*
X25577401Y-51952432D01*
X25574500Y-51989298D01*
X25574500Y-52420701D01*
X25577401Y-52457567D01*
X25577402Y-52457573D01*
X25623254Y-52615393D01*
X25623255Y-52615396D01*
X25623256Y-52615398D01*
X25645493Y-52652999D01*
X25706917Y-52756862D01*
X25711702Y-52763031D01*
X25709256Y-52764927D01*
X25735857Y-52813642D01*
X25730873Y-52883334D01*
X25710069Y-52915703D01*
X25711702Y-52916969D01*
X25706917Y-52923137D01*
X25623255Y-53064603D01*
X25623254Y-53064606D01*
X25577402Y-53222426D01*
X25577401Y-53222432D01*
X25574500Y-53259298D01*
X25574500Y-53690701D01*
X25577401Y-53727567D01*
X25577402Y-53727573D01*
X25623254Y-53885393D01*
X25623255Y-53885396D01*
X25706917Y-54026862D01*
X25706923Y-54026870D01*
X25823129Y-54143076D01*
X25823133Y-54143079D01*
X25823135Y-54143081D01*
X25964602Y-54226744D01*
X26006224Y-54238836D01*
X26122426Y-54272597D01*
X26122429Y-54272597D01*
X26122431Y-54272598D01*
X26159306Y-54275500D01*
X26234565Y-54275500D01*
X26301604Y-54295185D01*
X26303456Y-54296398D01*
X26401086Y-54361632D01*
X26401087Y-54361632D01*
X26401088Y-54361633D01*
X26496511Y-54401158D01*
X26583165Y-54437051D01*
X26583169Y-54437051D01*
X26583170Y-54437052D01*
X26776456Y-54475500D01*
X26776459Y-54475500D01*
X27700500Y-54475500D01*
X27767539Y-54495185D01*
X27813294Y-54547989D01*
X27824500Y-54599500D01*
X27824500Y-54993337D01*
X27824501Y-54993355D01*
X27834650Y-55092707D01*
X27834651Y-55092710D01*
X27887996Y-55253694D01*
X27888001Y-55253705D01*
X27977029Y-55398040D01*
X27977032Y-55398044D01*
X28096956Y-55517968D01*
X28160597Y-55557222D01*
X28207321Y-55609169D01*
X28219500Y-55662760D01*
X28219500Y-55984684D01*
X28210061Y-56032136D01*
X28150264Y-56176498D01*
X28150261Y-56176510D01*
X28119500Y-56331153D01*
X28119500Y-56488846D01*
X28150261Y-56643489D01*
X28150264Y-56643501D01*
X28210602Y-56789172D01*
X28210609Y-56789185D01*
X28298210Y-56920288D01*
X28298213Y-56920292D01*
X28409707Y-57031786D01*
X28409711Y-57031789D01*
X28540814Y-57119390D01*
X28540827Y-57119397D01*
X28640782Y-57160799D01*
X28686503Y-57179737D01*
X28841153Y-57210499D01*
X28841156Y-57210500D01*
X28841158Y-57210500D01*
X28998844Y-57210500D01*
X28998845Y-57210499D01*
X29153497Y-57179737D01*
X29299179Y-57119394D01*
X29430289Y-57031789D01*
X29541789Y-56920289D01*
X29629394Y-56789179D01*
X29689737Y-56643497D01*
X29720500Y-56488842D01*
X29720500Y-56331158D01*
X29720500Y-56331155D01*
X29720499Y-56331153D01*
X29697143Y-56213735D01*
X29689737Y-56176503D01*
X29689735Y-56176498D01*
X29629939Y-56032136D01*
X29620500Y-55984684D01*
X29620500Y-55437211D01*
X29638961Y-55372114D01*
X29712003Y-55253697D01*
X29765349Y-55092708D01*
X29775500Y-54993345D01*
X29775499Y-54446656D01*
X29770851Y-54401158D01*
X29765349Y-54347292D01*
X29765347Y-54347287D01*
X29760781Y-54333506D01*
X29758378Y-54263678D01*
X29794108Y-54203635D01*
X29856628Y-54172442D01*
X29878486Y-54170500D01*
X30523543Y-54170500D01*
X30575000Y-54160263D01*
X30679387Y-54139500D01*
X30716836Y-54132051D01*
X30792231Y-54100821D01*
X30898914Y-54056632D01*
X30898925Y-54056623D01*
X30904284Y-54053761D01*
X30904463Y-54054097D01*
X30927817Y-54042681D01*
X31076516Y-53993408D01*
X31223350Y-53902840D01*
X31345340Y-53780850D01*
X31435908Y-53634016D01*
X31490174Y-53470253D01*
X31500500Y-53369177D01*
X31500499Y-53306435D01*
X31502882Y-53282242D01*
X31507444Y-53259313D01*
X31521462Y-53188842D01*
X31525500Y-53168542D01*
X31525500Y-52971457D01*
X31502882Y-52857752D01*
X31500499Y-52833560D01*
X31500499Y-52770830D01*
X31500498Y-52770813D01*
X31490174Y-52669747D01*
X31485082Y-52654380D01*
X31435908Y-52505984D01*
X31345340Y-52359150D01*
X31261905Y-52275715D01*
X31228420Y-52214392D01*
X31233404Y-52144700D01*
X31275276Y-52088767D01*
X31284468Y-52082509D01*
X31308044Y-52067968D01*
X31427968Y-51948044D01*
X31517003Y-51803697D01*
X31570349Y-51642708D01*
X31580500Y-51543345D01*
X31580499Y-50996656D01*
X31574633Y-50939235D01*
X31570349Y-50897292D01*
X31570348Y-50897289D01*
X31563286Y-50875977D01*
X31517003Y-50736303D01*
X31516999Y-50736297D01*
X31516998Y-50736294D01*
X31427970Y-50591959D01*
X31427967Y-50591955D01*
X31418693Y-50582681D01*
X31385208Y-50521358D01*
X31390192Y-50451666D01*
X31418693Y-50407319D01*
X31423067Y-50402945D01*
X31427968Y-50398044D01*
X31517003Y-50253697D01*
X31570349Y-50092708D01*
X31580500Y-49993345D01*
X31580499Y-49446656D01*
X31578460Y-49426699D01*
X31570349Y-49347292D01*
X31570348Y-49347289D01*
X31549466Y-49284272D01*
X31517003Y-49186303D01*
X31516999Y-49186297D01*
X31516998Y-49186294D01*
X31427970Y-49041959D01*
X31427967Y-49041955D01*
X31308044Y-48922032D01*
X31308040Y-48922029D01*
X31163705Y-48833001D01*
X31163699Y-48832998D01*
X31163697Y-48832997D01*
X31103866Y-48813171D01*
X31002709Y-48779651D01*
X30903346Y-48769500D01*
X30306662Y-48769500D01*
X30306644Y-48769501D01*
X30207292Y-48779650D01*
X30207289Y-48779651D01*
X30046305Y-48832996D01*
X30046294Y-48833001D01*
X29901953Y-48922033D01*
X29898470Y-48924787D01*
X29896894Y-48925422D01*
X29895877Y-48926782D01*
X29864623Y-48938438D01*
X29833673Y-48950923D01*
X29832003Y-48950605D01*
X29830413Y-48951199D01*
X29797818Y-48944108D01*
X29765032Y-48937877D01*
X29763267Y-48936592D01*
X29762140Y-48936347D01*
X29733886Y-48915196D01*
X29656819Y-48838129D01*
X29623334Y-48776806D01*
X29620500Y-48750448D01*
X29620500Y-46687433D01*
X29640185Y-46620394D01*
X29692989Y-46574639D01*
X29757102Y-46564075D01*
X29819991Y-46570500D01*
X30390980Y-46570499D01*
X30458019Y-46590183D01*
X30478661Y-46606818D01*
X33143181Y-49271338D01*
X33176666Y-49332661D01*
X33179500Y-49359019D01*
X33179500Y-58574684D01*
X33170061Y-58622136D01*
X33110264Y-58766498D01*
X33110261Y-58766510D01*
X33079500Y-58921153D01*
X33079500Y-59078846D01*
X33110261Y-59233489D01*
X33110264Y-59233501D01*
X33170602Y-59379172D01*
X33170609Y-59379185D01*
X33258210Y-59510288D01*
X33258213Y-59510292D01*
X33369707Y-59621786D01*
X33369711Y-59621789D01*
X33500814Y-59709390D01*
X33500827Y-59709397D01*
X33646498Y-59769735D01*
X33646503Y-59769737D01*
X33776052Y-59795506D01*
X33801153Y-59800499D01*
X33801156Y-59800500D01*
X33801158Y-59800500D01*
X33958844Y-59800500D01*
X33958845Y-59800499D01*
X34113497Y-59769737D01*
X34237572Y-59718344D01*
X34259172Y-59709397D01*
X34259172Y-59709396D01*
X34259179Y-59709394D01*
X34390289Y-59621789D01*
X34501789Y-59510289D01*
X34589394Y-59379179D01*
X34592854Y-59370827D01*
X34608393Y-59333312D01*
X34649737Y-59233497D01*
X34680500Y-59078842D01*
X34680500Y-58921158D01*
X34680500Y-58921155D01*
X34680499Y-58921153D01*
X34673686Y-58886903D01*
X34649737Y-58766503D01*
X34638028Y-58738234D01*
X34589939Y-58622136D01*
X34580500Y-58574684D01*
X34580500Y-48948510D01*
X34580500Y-48948507D01*
X34577415Y-48933000D01*
X34553580Y-48813172D01*
X34553228Y-48812322D01*
X34500777Y-48685692D01*
X34424112Y-48570954D01*
X33242838Y-47389680D01*
X33209353Y-47328357D01*
X33214337Y-47258665D01*
X33256209Y-47202732D01*
X33321673Y-47178315D01*
X33330491Y-47177999D01*
X34690008Y-47177999D01*
X34792797Y-47167499D01*
X34959334Y-47112314D01*
X35108656Y-47020212D01*
X35232712Y-46896156D01*
X35324814Y-46746834D01*
X35379999Y-46580297D01*
X35390500Y-46477509D01*
X35390500Y-46252000D01*
X35410185Y-46184961D01*
X35462989Y-46139206D01*
X35514500Y-46128000D01*
X36513996Y-46128000D01*
X36605040Y-46109889D01*
X36649328Y-46101080D01*
X36713069Y-46074677D01*
X36776807Y-46048277D01*
X36776808Y-46048276D01*
X36776811Y-46048275D01*
X36891543Y-45971614D01*
X37186069Y-45677088D01*
X37247392Y-45643603D01*
X37317083Y-45648587D01*
X37361431Y-45677088D01*
X37803181Y-46118838D01*
X37836666Y-46180161D01*
X37839500Y-46206519D01*
X37839500Y-46489168D01*
X37839501Y-46489187D01*
X37849825Y-46590252D01*
X37877003Y-46672267D01*
X37894119Y-46723921D01*
X37904092Y-46754015D01*
X37904093Y-46754018D01*
X37915365Y-46772292D01*
X37994660Y-46900850D01*
X38116650Y-47022840D01*
X38118098Y-47023733D01*
X38118882Y-47024604D01*
X38122317Y-47027321D01*
X38121852Y-47027907D01*
X38164821Y-47075680D01*
X38177000Y-47129271D01*
X38177000Y-48723481D01*
X38157315Y-48790520D01*
X38140681Y-48811162D01*
X37536161Y-49415681D01*
X37474838Y-49449166D01*
X37448480Y-49452000D01*
X36092129Y-49452000D01*
X36092123Y-49452001D01*
X36032516Y-49458408D01*
X35897671Y-49508702D01*
X35897664Y-49508706D01*
X35782455Y-49594952D01*
X35782452Y-49594955D01*
X35696206Y-49710164D01*
X35696202Y-49710171D01*
X35645908Y-49845017D01*
X35639501Y-49904616D01*
X35639501Y-49904623D01*
X35639500Y-49904635D01*
X35639500Y-52200370D01*
X35639501Y-52200376D01*
X35645908Y-52259983D01*
X35696202Y-52394828D01*
X35696206Y-52394835D01*
X35782452Y-52510044D01*
X35782455Y-52510047D01*
X35897664Y-52596293D01*
X35897671Y-52596297D01*
X36032517Y-52646591D01*
X36032516Y-52646591D01*
X36039444Y-52647335D01*
X36092127Y-52653000D01*
X37687872Y-52652999D01*
X37747483Y-52646591D01*
X37882331Y-52596296D01*
X37997546Y-52510046D01*
X38083796Y-52394831D01*
X38134091Y-52259983D01*
X38140500Y-52200373D01*
X38140499Y-50844017D01*
X38160184Y-50776979D01*
X38176813Y-50756342D01*
X39421613Y-49511543D01*
X39432808Y-49494788D01*
X39438347Y-49486501D01*
X39460807Y-49452886D01*
X39498275Y-49396811D01*
X39540302Y-49295349D01*
X39551080Y-49269329D01*
X39561941Y-49214724D01*
X39578000Y-49133993D01*
X39578000Y-47129271D01*
X39597685Y-47062232D01*
X39621092Y-47035304D01*
X39628541Y-47028890D01*
X39638350Y-47022840D01*
X39655587Y-47005602D01*
X39659092Y-47002585D01*
X39686876Y-46990000D01*
X39713642Y-46975386D01*
X39718395Y-46975725D01*
X39722738Y-46973759D01*
X39752913Y-46978194D01*
X39783334Y-46980370D01*
X39787965Y-46983346D01*
X39791865Y-46983920D01*
X39800292Y-46991269D01*
X39827681Y-47008871D01*
X39841650Y-47022840D01*
X39988484Y-47113408D01*
X40152247Y-47167674D01*
X40253323Y-47178000D01*
X40951676Y-47177999D01*
X40951684Y-47177998D01*
X40951687Y-47177998D01*
X41021593Y-47170857D01*
X41052753Y-47167674D01*
X41216516Y-47113408D01*
X41363350Y-47022840D01*
X41485340Y-46900850D01*
X41575908Y-46754016D01*
X41630174Y-46590253D01*
X41640500Y-46489177D01*
X41640499Y-46224017D01*
X41660183Y-46156979D01*
X41676813Y-46136342D01*
X42568837Y-45244319D01*
X42630160Y-45210834D01*
X42656518Y-45208000D01*
X43305686Y-45208000D01*
X43305694Y-45208000D01*
X43342569Y-45205098D01*
X43342571Y-45205097D01*
X43342573Y-45205097D01*
X43408328Y-45185993D01*
X43500398Y-45159244D01*
X43641865Y-45075581D01*
X43758081Y-44959365D01*
X43841744Y-44817898D01*
X43882870Y-44676344D01*
X43887597Y-44660073D01*
X43887598Y-44660067D01*
X43890246Y-44626416D01*
X43890500Y-44623194D01*
X43890500Y-44191806D01*
X43887598Y-44154931D01*
X43883571Y-44141071D01*
X43841745Y-43997106D01*
X43841744Y-43997103D01*
X43841744Y-43997102D01*
X43758081Y-43855635D01*
X43758078Y-43855632D01*
X43753298Y-43849469D01*
X43755750Y-43847566D01*
X43729155Y-43798921D01*
X43734104Y-43729226D01*
X43754940Y-43696804D01*
X43753298Y-43695531D01*
X43758075Y-43689370D01*
X43758081Y-43689365D01*
X43841744Y-43547898D01*
X43887598Y-43390069D01*
X43890500Y-43353194D01*
X43890500Y-42921806D01*
X43887598Y-42884931D01*
X43887224Y-42883645D01*
X43841745Y-42727106D01*
X43841744Y-42727103D01*
X43841744Y-42727102D01*
X43758081Y-42585635D01*
X43758078Y-42585632D01*
X43753298Y-42579469D01*
X43755750Y-42577566D01*
X43729155Y-42528921D01*
X43734104Y-42459226D01*
X43743365Y-42439738D01*
X43751401Y-42426044D01*
X43758081Y-42419365D01*
X43841744Y-42277898D01*
X43845076Y-42266428D01*
X43852899Y-42253099D01*
X43867547Y-42239329D01*
X43878369Y-42222383D01*
X43892486Y-42215886D01*
X43903808Y-42205244D01*
X43923577Y-42201579D01*
X43941841Y-42193175D01*
X43957226Y-42195341D01*
X43972507Y-42192509D01*
X43991119Y-42200114D01*
X44011028Y-42202918D01*
X44029829Y-42215932D01*
X44037185Y-42218938D01*
X44040029Y-42222992D01*
X44047523Y-42228180D01*
X44263181Y-42443838D01*
X44296666Y-42505161D01*
X44299500Y-42531519D01*
X44299500Y-45488506D01*
X44299500Y-45626494D01*
X44299500Y-45626496D01*
X44299499Y-45626496D01*
X44326418Y-45761822D01*
X44326421Y-45761832D01*
X44379222Y-45889307D01*
X44455887Y-46004045D01*
X44455888Y-46004046D01*
X44937162Y-46485319D01*
X44970647Y-46546642D01*
X44965663Y-46616333D01*
X44923792Y-46672267D01*
X44858327Y-46696684D01*
X44849481Y-46697000D01*
X44693505Y-46697000D01*
X44621593Y-46711304D01*
X44585636Y-46718457D01*
X44558171Y-46723920D01*
X44558169Y-46723920D01*
X44558168Y-46723921D01*
X44558160Y-46723923D01*
X44505365Y-46745792D01*
X44430691Y-46776723D01*
X44363464Y-46821644D01*
X44361023Y-46823275D01*
X44357530Y-46825609D01*
X44315954Y-46853388D01*
X44315953Y-46853389D01*
X42745888Y-48423453D01*
X42745887Y-48423454D01*
X42669223Y-48538192D01*
X42616421Y-48665668D01*
X42616418Y-48665679D01*
X42601448Y-48740942D01*
X42601448Y-48740944D01*
X42589500Y-48801005D01*
X42589500Y-49330148D01*
X42569815Y-49397187D01*
X42517011Y-49442942D01*
X42478755Y-49453438D01*
X42432516Y-49458409D01*
X42297671Y-49508702D01*
X42297664Y-49508706D01*
X42182455Y-49594952D01*
X42182452Y-49594955D01*
X42096206Y-49710164D01*
X42096202Y-49710171D01*
X42045908Y-49845017D01*
X42039501Y-49904616D01*
X42039501Y-49904623D01*
X42039500Y-49904635D01*
X42039500Y-52200370D01*
X42039501Y-52200376D01*
X42045908Y-52259983D01*
X42096202Y-52394828D01*
X42096206Y-52394835D01*
X42182452Y-52510044D01*
X42182455Y-52510047D01*
X42297664Y-52596293D01*
X42297671Y-52596297D01*
X42432517Y-52646591D01*
X42432516Y-52646591D01*
X42439444Y-52647335D01*
X42492127Y-52653000D01*
X44087872Y-52652999D01*
X44147483Y-52646591D01*
X44282331Y-52596296D01*
X44397546Y-52510046D01*
X44483796Y-52394831D01*
X44534091Y-52259983D01*
X44540500Y-52200373D01*
X44540499Y-49904628D01*
X44534183Y-49845871D01*
X44534091Y-49845016D01*
X44483797Y-49710171D01*
X44483793Y-49710164D01*
X44397547Y-49594955D01*
X44397544Y-49594952D01*
X44282335Y-49508706D01*
X44282328Y-49508702D01*
X44147483Y-49458408D01*
X44101243Y-49453437D01*
X44099124Y-49452559D01*
X44096853Y-49452886D01*
X44067004Y-49439254D01*
X44036693Y-49426699D01*
X44035384Y-49424814D01*
X44033297Y-49423861D01*
X44015557Y-49396257D01*
X43996845Y-49369306D01*
X43996375Y-49366409D01*
X43995523Y-49365083D01*
X43990500Y-49330148D01*
X43990500Y-49211517D01*
X44010185Y-49144478D01*
X44026814Y-49123840D01*
X44853203Y-48297451D01*
X44914526Y-48263967D01*
X44984218Y-48268951D01*
X45040151Y-48310823D01*
X45058590Y-48346128D01*
X45110186Y-48501834D01*
X45202288Y-48651156D01*
X45326344Y-48775212D01*
X45475666Y-48867314D01*
X45642203Y-48922499D01*
X45744991Y-48933000D01*
X46015501Y-48932999D01*
X46082539Y-48952683D01*
X46128294Y-49005487D01*
X46139500Y-49056999D01*
X46139500Y-49596006D01*
X46139500Y-49733994D01*
X46139500Y-49733996D01*
X46139499Y-49733996D01*
X46166418Y-49869322D01*
X46166420Y-49869328D01*
X46203128Y-49957950D01*
X46215061Y-49986757D01*
X46224500Y-50034210D01*
X46224500Y-50298336D01*
X46224501Y-50298355D01*
X46234650Y-50397707D01*
X46234651Y-50397710D01*
X46287996Y-50558694D01*
X46288001Y-50558705D01*
X46377029Y-50703040D01*
X46377032Y-50703044D01*
X46496955Y-50822967D01*
X46496959Y-50822970D01*
X46641294Y-50911998D01*
X46641297Y-50911999D01*
X46641303Y-50912003D01*
X46802292Y-50965349D01*
X46901655Y-50975500D01*
X47498344Y-50975499D01*
X47498352Y-50975498D01*
X47498355Y-50975498D01*
X47552760Y-50969940D01*
X47597708Y-50965349D01*
X47758697Y-50912003D01*
X47903044Y-50822968D01*
X48022968Y-50703044D01*
X48029839Y-50691903D01*
X48081786Y-50645179D01*
X48135378Y-50633000D01*
X48670371Y-50633000D01*
X48737410Y-50652685D01*
X48783165Y-50705489D01*
X48793109Y-50774647D01*
X48764084Y-50838203D01*
X48705306Y-50875977D01*
X48680099Y-50880618D01*
X48657432Y-50882401D01*
X48657426Y-50882402D01*
X48499606Y-50928254D01*
X48499603Y-50928255D01*
X48358137Y-51011917D01*
X48358129Y-51011923D01*
X48241923Y-51128129D01*
X48241917Y-51128137D01*
X48158255Y-51269603D01*
X48158254Y-51269606D01*
X48112402Y-51427426D01*
X48112401Y-51427432D01*
X48109500Y-51464298D01*
X48109500Y-51895701D01*
X48112401Y-51932567D01*
X48112402Y-51932573D01*
X48158254Y-52090393D01*
X48158255Y-52090396D01*
X48242063Y-52232109D01*
X48259246Y-52299833D01*
X48237086Y-52366096D01*
X48204222Y-52398332D01*
X48069711Y-52488210D01*
X48069707Y-52488213D01*
X48012681Y-52545240D01*
X47951358Y-52578725D01*
X47881666Y-52573741D01*
X47837319Y-52545240D01*
X47760292Y-52468213D01*
X47760288Y-52468210D01*
X47629185Y-52380609D01*
X47629172Y-52380602D01*
X47483501Y-52320264D01*
X47483489Y-52320261D01*
X47328845Y-52289500D01*
X47328842Y-52289500D01*
X47171158Y-52289500D01*
X47171155Y-52289500D01*
X47016510Y-52320261D01*
X47016498Y-52320264D01*
X46870827Y-52380602D01*
X46870814Y-52380609D01*
X46739711Y-52468210D01*
X46739707Y-52468213D01*
X46628213Y-52579707D01*
X46628210Y-52579711D01*
X46540609Y-52710814D01*
X46540602Y-52710827D01*
X46480264Y-52856498D01*
X46480261Y-52856510D01*
X46449500Y-53011153D01*
X46449500Y-53168846D01*
X46480261Y-53323489D01*
X46480264Y-53323501D01*
X46540602Y-53469172D01*
X46540609Y-53469185D01*
X46628602Y-53600874D01*
X46649480Y-53667551D01*
X46649500Y-53669765D01*
X46649500Y-54475200D01*
X46629815Y-54542239D01*
X46628602Y-54544091D01*
X46550609Y-54660814D01*
X46550602Y-54660827D01*
X46490264Y-54806498D01*
X46490261Y-54806510D01*
X46459500Y-54961153D01*
X46459500Y-55015500D01*
X46439815Y-55082539D01*
X46387011Y-55128294D01*
X46335500Y-55139500D01*
X42829170Y-55139500D01*
X42829154Y-55139499D01*
X42821558Y-55139499D01*
X42663443Y-55139499D01*
X42593092Y-55158350D01*
X42510714Y-55180423D01*
X42510709Y-55180426D01*
X42373790Y-55259475D01*
X42373782Y-55259481D01*
X40675082Y-56958181D01*
X40613759Y-56991666D01*
X40587401Y-56994500D01*
X40110636Y-56994500D01*
X39993246Y-57009953D01*
X39993234Y-57009957D01*
X39847163Y-57070461D01*
X39840124Y-57074526D01*
X39839117Y-57072783D01*
X39827912Y-57077115D01*
X39808678Y-57089477D01*
X39788405Y-57092391D01*
X39784068Y-57094069D01*
X39773743Y-57094500D01*
X39595845Y-57094500D01*
X39528806Y-57074815D01*
X39490307Y-57035597D01*
X39447970Y-56966959D01*
X39447967Y-56966955D01*
X39328044Y-56847032D01*
X39328040Y-56847029D01*
X39183705Y-56758001D01*
X39183699Y-56757998D01*
X39183697Y-56757997D01*
X39183694Y-56757996D01*
X39022709Y-56704651D01*
X38923346Y-56694500D01*
X38376662Y-56694500D01*
X38376644Y-56694501D01*
X38277292Y-56704650D01*
X38277289Y-56704651D01*
X38116305Y-56757996D01*
X38116294Y-56758001D01*
X37971959Y-56847029D01*
X37971955Y-56847032D01*
X37852032Y-56966955D01*
X37852029Y-56966959D01*
X37763001Y-57111294D01*
X37762996Y-57111305D01*
X37709651Y-57272290D01*
X37699500Y-57371647D01*
X37699500Y-57968337D01*
X37699501Y-57968355D01*
X37709650Y-58067707D01*
X37709651Y-58067710D01*
X37762996Y-58228694D01*
X37763001Y-58228705D01*
X37852029Y-58373040D01*
X37852032Y-58373044D01*
X37971955Y-58492967D01*
X37971959Y-58492970D01*
X38116294Y-58581998D01*
X38116297Y-58581999D01*
X38116303Y-58582003D01*
X38277292Y-58635349D01*
X38376655Y-58645500D01*
X38923344Y-58645499D01*
X38923352Y-58645498D01*
X38923355Y-58645498D01*
X38996266Y-58638050D01*
X39022708Y-58635349D01*
X39183697Y-58582003D01*
X39328044Y-58492968D01*
X39447968Y-58373044D01*
X39459465Y-58354403D01*
X39467051Y-58347580D01*
X39471291Y-58338297D01*
X39492589Y-58324609D01*
X39511412Y-58307679D01*
X39523048Y-58305034D01*
X39530069Y-58300523D01*
X39565004Y-58295500D01*
X39601651Y-58295500D01*
X39668690Y-58315185D01*
X39714445Y-58367989D01*
X39724389Y-58437147D01*
X39700027Y-58494986D01*
X39625464Y-58592157D01*
X39564956Y-58738237D01*
X39564955Y-58738239D01*
X39549500Y-58855638D01*
X39549500Y-59134363D01*
X39564953Y-59251753D01*
X39564957Y-59251765D01*
X39573566Y-59272550D01*
X39581033Y-59342019D01*
X39573566Y-59367450D01*
X39564957Y-59388234D01*
X39564955Y-59388239D01*
X39549500Y-59505638D01*
X39549500Y-59784363D01*
X39564953Y-59901753D01*
X39564956Y-59901762D01*
X39596823Y-59978697D01*
X39625464Y-60047841D01*
X39721718Y-60173282D01*
X39847159Y-60269536D01*
X39993238Y-60330044D01*
X40110639Y-60345500D01*
X41464360Y-60345499D01*
X41464363Y-60345499D01*
X41581753Y-60330046D01*
X41581757Y-60330044D01*
X41581762Y-60330044D01*
X41727841Y-60269536D01*
X41727845Y-60269532D01*
X41734876Y-60265474D01*
X41735882Y-60267216D01*
X41790932Y-60245931D01*
X41801257Y-60245500D01*
X42628331Y-60245500D01*
X42628347Y-60245501D01*
X42635943Y-60245501D01*
X42794054Y-60245501D01*
X42794057Y-60245501D01*
X42946785Y-60204577D01*
X43015907Y-60164669D01*
X43083716Y-60125520D01*
X43195520Y-60013716D01*
X43195520Y-60013714D01*
X43205724Y-60003511D01*
X43205728Y-60003506D01*
X44268506Y-58940728D01*
X44268511Y-58940724D01*
X44278714Y-58930520D01*
X44278716Y-58930520D01*
X44390520Y-58818716D01*
X44455885Y-58705500D01*
X44469577Y-58681785D01*
X44510500Y-58529058D01*
X44510500Y-58370943D01*
X44510500Y-57440097D01*
X44530185Y-57373058D01*
X44546819Y-57352416D01*
X44989916Y-56909319D01*
X45051239Y-56875834D01*
X45077597Y-56873000D01*
X47598543Y-56873000D01*
X47665582Y-56892685D01*
X47711337Y-56945489D01*
X47721281Y-57014647D01*
X47692256Y-57078203D01*
X47675455Y-57094265D01*
X47671956Y-57097031D01*
X47552032Y-57216955D01*
X47552029Y-57216959D01*
X47463001Y-57361294D01*
X47462996Y-57361305D01*
X47409651Y-57522289D01*
X47407382Y-57544498D01*
X47380984Y-57609189D01*
X47323802Y-57649339D01*
X47267840Y-57654831D01*
X47189373Y-57644501D01*
X47189365Y-57644500D01*
X47189361Y-57644500D01*
X47189354Y-57644500D01*
X45835636Y-57644500D01*
X45718246Y-57659953D01*
X45718237Y-57659956D01*
X45572160Y-57720463D01*
X45446718Y-57816718D01*
X45350463Y-57942160D01*
X45289956Y-58088237D01*
X45289955Y-58088239D01*
X45274500Y-58205638D01*
X45274500Y-58484363D01*
X45289953Y-58601753D01*
X45289957Y-58601765D01*
X45298566Y-58622550D01*
X45306033Y-58692019D01*
X45298566Y-58717450D01*
X45289957Y-58738234D01*
X45289955Y-58738239D01*
X45274500Y-58855638D01*
X45274500Y-59134363D01*
X45289953Y-59251753D01*
X45289956Y-59251762D01*
X45346484Y-59388234D01*
X45350464Y-59397841D01*
X45446718Y-59523282D01*
X45572159Y-59619536D01*
X45718238Y-59680044D01*
X45835639Y-59695500D01*
X47189360Y-59695499D01*
X47189362Y-59695499D01*
X47267841Y-59685168D01*
X47336876Y-59695934D01*
X47389132Y-59742315D01*
X47407383Y-59795506D01*
X47409650Y-59817707D01*
X47409651Y-59817710D01*
X47462996Y-59978694D01*
X47463001Y-59978705D01*
X47552029Y-60123040D01*
X47552032Y-60123044D01*
X47671955Y-60242967D01*
X47671959Y-60242970D01*
X47816294Y-60331998D01*
X47816297Y-60331999D01*
X47816303Y-60332003D01*
X47977292Y-60385349D01*
X48076655Y-60395500D01*
X48673344Y-60395499D01*
X48673352Y-60395498D01*
X48673355Y-60395498D01*
X48727760Y-60389940D01*
X48772708Y-60385349D01*
X48933697Y-60332003D01*
X49037789Y-60267797D01*
X49105179Y-60249357D01*
X49171843Y-60270279D01*
X49208422Y-60308237D01*
X49214660Y-60318350D01*
X49336650Y-60440340D01*
X49483484Y-60530908D01*
X49647247Y-60585174D01*
X49748323Y-60595500D01*
X50346676Y-60595499D01*
X50346684Y-60595498D01*
X50346687Y-60595498D01*
X50402030Y-60589844D01*
X50447753Y-60585174D01*
X50611516Y-60530908D01*
X50758350Y-60440340D01*
X50872319Y-60326371D01*
X50933642Y-60292886D01*
X51003334Y-60297870D01*
X51047681Y-60326371D01*
X51161650Y-60440340D01*
X51308484Y-60530908D01*
X51472247Y-60585174D01*
X51573323Y-60595500D01*
X52171676Y-60595499D01*
X52171684Y-60595498D01*
X52171687Y-60595498D01*
X52227030Y-60589844D01*
X52272753Y-60585174D01*
X52436516Y-60530908D01*
X52583350Y-60440340D01*
X52705340Y-60318350D01*
X52795908Y-60171516D01*
X52850174Y-60007753D01*
X52860500Y-59906677D01*
X52860499Y-59333324D01*
X52850174Y-59232247D01*
X52795908Y-59068484D01*
X52705340Y-58921650D01*
X52583350Y-58799660D01*
X52583349Y-58799659D01*
X52527348Y-58765117D01*
X52480624Y-58713169D01*
X52469403Y-58644206D01*
X52497247Y-58580124D01*
X52527352Y-58554039D01*
X52533350Y-58550340D01*
X52655340Y-58428350D01*
X52745908Y-58281516D01*
X52800174Y-58117753D01*
X52810500Y-58016677D01*
X52810499Y-57443324D01*
X52802124Y-57361339D01*
X52814894Y-57292648D01*
X52862774Y-57241764D01*
X52930564Y-57224843D01*
X52964479Y-57231031D01*
X53022247Y-57250174D01*
X53123323Y-57260500D01*
X53696676Y-57260499D01*
X53696684Y-57260498D01*
X53696687Y-57260498D01*
X53752030Y-57254844D01*
X53797753Y-57250174D01*
X53961516Y-57195908D01*
X54108350Y-57105340D01*
X54230340Y-56983350D01*
X54320908Y-56836516D01*
X54375174Y-56672753D01*
X54385500Y-56571677D01*
X54385499Y-56265097D01*
X54394146Y-56235646D01*
X54400668Y-56205670D01*
X54404419Y-56200658D01*
X54405183Y-56198059D01*
X54421819Y-56177416D01*
X54462418Y-56136818D01*
X54523741Y-56103333D01*
X54550098Y-56100500D01*
X57067060Y-56100500D01*
X57134099Y-56120185D01*
X57154736Y-56136814D01*
X57215981Y-56198059D01*
X57239712Y-56221790D01*
X57370814Y-56309390D01*
X57370827Y-56309397D01*
X57488167Y-56358000D01*
X57516503Y-56369737D01*
X57671153Y-56400499D01*
X57671156Y-56400500D01*
X57671158Y-56400500D01*
X57828844Y-56400500D01*
X57828845Y-56400499D01*
X57983497Y-56369737D01*
X58129179Y-56309394D01*
X58260289Y-56221789D01*
X58371789Y-56110289D01*
X58459394Y-55979179D01*
X58519737Y-55833497D01*
X58550500Y-55678842D01*
X58550500Y-55521158D01*
X58550500Y-55521155D01*
X58550499Y-55521153D01*
X58547666Y-55506909D01*
X58519737Y-55366503D01*
X58490048Y-55294826D01*
X58459397Y-55220827D01*
X58459390Y-55220814D01*
X58371789Y-55089711D01*
X58371786Y-55089707D01*
X58260292Y-54978213D01*
X58260288Y-54978210D01*
X58129185Y-54890609D01*
X58129172Y-54890602D01*
X57983501Y-54830264D01*
X57983489Y-54830261D01*
X57828845Y-54799500D01*
X57828842Y-54799500D01*
X57671158Y-54799500D01*
X57671155Y-54799500D01*
X57516510Y-54830261D01*
X57516498Y-54830264D01*
X57372136Y-54890061D01*
X57324684Y-54899500D01*
X54507201Y-54899500D01*
X54440162Y-54879815D01*
X54394407Y-54827011D01*
X54383843Y-54762897D01*
X54385499Y-54746684D01*
X54385500Y-54746677D01*
X54385499Y-54148324D01*
X54385229Y-54145685D01*
X54375174Y-54047247D01*
X54357333Y-53993408D01*
X54320908Y-53883484D01*
X54230340Y-53736650D01*
X54108350Y-53614660D01*
X53988294Y-53540609D01*
X53961518Y-53524093D01*
X53961513Y-53524091D01*
X53930022Y-53513656D01*
X53797753Y-53469826D01*
X53797751Y-53469825D01*
X53696678Y-53459500D01*
X53123330Y-53459500D01*
X53123312Y-53459501D01*
X53022247Y-53469825D01*
X52858484Y-53524092D01*
X52858481Y-53524093D01*
X52711648Y-53614661D01*
X52589661Y-53736648D01*
X52499093Y-53883481D01*
X52499091Y-53883486D01*
X52476693Y-53951078D01*
X52444826Y-54047247D01*
X52444826Y-54047248D01*
X52444825Y-54047248D01*
X52434500Y-54148315D01*
X52434500Y-54746669D01*
X52434501Y-54746687D01*
X52444825Y-54847752D01*
X52475813Y-54941265D01*
X52493070Y-54993344D01*
X52499092Y-55011515D01*
X52499093Y-55011518D01*
X52533322Y-55067011D01*
X52578033Y-55139500D01*
X52589661Y-55158351D01*
X52703629Y-55272319D01*
X52705878Y-55276438D01*
X52709822Y-55278984D01*
X52722466Y-55306816D01*
X52737114Y-55333642D01*
X52736779Y-55338322D01*
X52738721Y-55342597D01*
X52734310Y-55372847D01*
X52732130Y-55403334D01*
X52729129Y-55408379D01*
X52728640Y-55411736D01*
X52718273Y-55426634D01*
X52709499Y-55441389D01*
X52706674Y-55444635D01*
X52589660Y-55561650D01*
X52552600Y-55621732D01*
X52545940Y-55629389D01*
X52524714Y-55642970D01*
X52505980Y-55659821D01*
X52494191Y-55662499D01*
X52487087Y-55667046D01*
X52474299Y-55667020D01*
X52452389Y-55672000D01*
X51229889Y-55672000D01*
X51162850Y-55652315D01*
X51117095Y-55599511D01*
X51107151Y-55530353D01*
X51122502Y-55486000D01*
X51139799Y-55456040D01*
X51159577Y-55421784D01*
X51193595Y-55294826D01*
X51200500Y-55269058D01*
X51200500Y-55110943D01*
X51200500Y-51957911D01*
X51200499Y-51957909D01*
X51200499Y-51957905D01*
X51199832Y-51955417D01*
X51199829Y-51955407D01*
X51188725Y-51913966D01*
X51184500Y-51881873D01*
X51184500Y-51522674D01*
X51193940Y-51475219D01*
X51196576Y-51468855D01*
X51197795Y-51464306D01*
X51237501Y-51316125D01*
X51237501Y-51158011D01*
X51237501Y-51150416D01*
X51237500Y-51150398D01*
X51237500Y-50990597D01*
X51257185Y-50923558D01*
X51273819Y-50902916D01*
X51559916Y-50616819D01*
X51621239Y-50583334D01*
X51647597Y-50580500D01*
X52125686Y-50580500D01*
X52125694Y-50580500D01*
X52162569Y-50577598D01*
X52162571Y-50577597D01*
X52162573Y-50577597D01*
X52204191Y-50565505D01*
X52320398Y-50531744D01*
X52336413Y-50522272D01*
X52404134Y-50505088D01*
X52470397Y-50527246D01*
X52514162Y-50581710D01*
X52517241Y-50589998D01*
X52533850Y-50640120D01*
X52570261Y-50750000D01*
X52571592Y-50754015D01*
X52571593Y-50754018D01*
X52577327Y-50763314D01*
X52662160Y-50900850D01*
X52784150Y-51022840D01*
X52930984Y-51113408D01*
X53094747Y-51167674D01*
X53195823Y-51178000D01*
X53769176Y-51177999D01*
X53769184Y-51177998D01*
X53769187Y-51177998D01*
X53824530Y-51172344D01*
X53870253Y-51167674D01*
X54034016Y-51113408D01*
X54180850Y-51022840D01*
X54302840Y-50900850D01*
X54393408Y-50754016D01*
X54447674Y-50590253D01*
X54458000Y-50489177D01*
X54457999Y-49790824D01*
X54457821Y-49789086D01*
X54447674Y-49689747D01*
X54432681Y-49644501D01*
X54393408Y-49525984D01*
X54302840Y-49379150D01*
X54180850Y-49257160D01*
X54177532Y-49253842D01*
X54175403Y-49249943D01*
X54171661Y-49247549D01*
X54158806Y-49219549D01*
X54144047Y-49192519D01*
X54144363Y-49188089D01*
X54142510Y-49184051D01*
X54146833Y-49153551D01*
X54149031Y-49122827D01*
X54151869Y-49118032D01*
X54152317Y-49114873D01*
X54162089Y-49100767D01*
X54171339Y-49085144D01*
X54174306Y-49081705D01*
X54222968Y-49033044D01*
X54239662Y-49005977D01*
X54246130Y-48998484D01*
X54267502Y-48984688D01*
X54286414Y-48967679D01*
X54297898Y-48965069D01*
X54304833Y-48960593D01*
X54317708Y-48960567D01*
X54340004Y-48955501D01*
X54424054Y-48955501D01*
X54424057Y-48955501D01*
X54576785Y-48914577D01*
X54658494Y-48867402D01*
X54658647Y-48867314D01*
X54713709Y-48835524D01*
X54713708Y-48835524D01*
X54713716Y-48835520D01*
X54825520Y-48723716D01*
X54825520Y-48723714D01*
X54835724Y-48713511D01*
X54835727Y-48713506D01*
X55077321Y-48471912D01*
X55138641Y-48438430D01*
X55208333Y-48443414D01*
X55252680Y-48471915D01*
X55965139Y-49184374D01*
X55965149Y-49184385D01*
X55969479Y-49188715D01*
X55969480Y-49188716D01*
X56081284Y-49300520D01*
X56081286Y-49300521D01*
X56081290Y-49300524D01*
X56136954Y-49332661D01*
X56218216Y-49379577D01*
X56330019Y-49409534D01*
X56370942Y-49420500D01*
X56370943Y-49420500D01*
X57658285Y-49420500D01*
X57725324Y-49440185D01*
X57764401Y-49480349D01*
X57794528Y-49530185D01*
X57794530Y-49530188D01*
X57914811Y-49650469D01*
X57914813Y-49650470D01*
X57914815Y-49650472D01*
X58060394Y-49738478D01*
X58222804Y-49789086D01*
X58293384Y-49795500D01*
X58293387Y-49795500D01*
X58806613Y-49795500D01*
X58806616Y-49795500D01*
X58877196Y-49789086D01*
X59039606Y-49738478D01*
X59185185Y-49650472D01*
X59192690Y-49642967D01*
X59287319Y-49548339D01*
X59348642Y-49514854D01*
X59418334Y-49519838D01*
X59462681Y-49548339D01*
X59564811Y-49650469D01*
X59564813Y-49650470D01*
X59564815Y-49650472D01*
X59710394Y-49738478D01*
X59872804Y-49789086D01*
X59943384Y-49795500D01*
X59943387Y-49795500D01*
X60456613Y-49795500D01*
X60456616Y-49795500D01*
X60527196Y-49789086D01*
X60689606Y-49738478D01*
X60835185Y-49650472D01*
X60919642Y-49566014D01*
X60980963Y-49532530D01*
X61050654Y-49537514D01*
X61095003Y-49566015D01*
X61171955Y-49642967D01*
X61171959Y-49642970D01*
X61316294Y-49731998D01*
X61316297Y-49731999D01*
X61316303Y-49732003D01*
X61477292Y-49785349D01*
X61576655Y-49795500D01*
X61924902Y-49795499D01*
X61991941Y-49815183D01*
X62012583Y-49831818D01*
X63435139Y-51254374D01*
X63435149Y-51254385D01*
X63439479Y-51258715D01*
X63439480Y-51258716D01*
X63551284Y-51370520D01*
X63617785Y-51408914D01*
X63688215Y-51449577D01*
X63840943Y-51490500D01*
X63999057Y-51490500D01*
X64453331Y-51490500D01*
X64453347Y-51490501D01*
X64460943Y-51490501D01*
X64619054Y-51490501D01*
X64619057Y-51490501D01*
X64771785Y-51449577D01*
X64773438Y-51448622D01*
X64776050Y-51447115D01*
X64838053Y-51430500D01*
X64878844Y-51430500D01*
X64878845Y-51430499D01*
X65033497Y-51399737D01*
X65179179Y-51339394D01*
X65310289Y-51251789D01*
X65421789Y-51140289D01*
X65509394Y-51009179D01*
X65569737Y-50863497D01*
X65600500Y-50708842D01*
X65600500Y-50551158D01*
X65600500Y-50551155D01*
X65600499Y-50551153D01*
X65589329Y-50495000D01*
X65569737Y-50396503D01*
X65561646Y-50376969D01*
X65509397Y-50250827D01*
X65509390Y-50250814D01*
X65421789Y-50119711D01*
X65421786Y-50119707D01*
X65310292Y-50008213D01*
X65310288Y-50008210D01*
X65179185Y-49920609D01*
X65179172Y-49920602D01*
X65033501Y-49860264D01*
X65033489Y-49860261D01*
X64878845Y-49829500D01*
X64878842Y-49829500D01*
X64721158Y-49829500D01*
X64721155Y-49829500D01*
X64566510Y-49860261D01*
X64566498Y-49860264D01*
X64420827Y-49920602D01*
X64420814Y-49920609D01*
X64289711Y-50008210D01*
X64289707Y-50008213D01*
X64176259Y-50121662D01*
X64114936Y-50155147D01*
X64045244Y-50150163D01*
X64000897Y-50121662D01*
X62836818Y-48957583D01*
X62822114Y-48930655D01*
X62805522Y-48904837D01*
X62804630Y-48898636D01*
X62803333Y-48896260D01*
X62800499Y-48869902D01*
X62800499Y-48724500D01*
X62820184Y-48657461D01*
X62872988Y-48611706D01*
X62924499Y-48600500D01*
X65790500Y-48600500D01*
X65857539Y-48620185D01*
X65903294Y-48672989D01*
X65914500Y-48724500D01*
X65914500Y-52428330D01*
X65914499Y-52428348D01*
X65914499Y-52594054D01*
X65914498Y-52594054D01*
X65955423Y-52746786D01*
X65955424Y-52746787D01*
X65969302Y-52770824D01*
X65975681Y-52781873D01*
X66034259Y-52883334D01*
X66034481Y-52883717D01*
X66153349Y-53002585D01*
X66153355Y-53002590D01*
X67415425Y-54264660D01*
X67448910Y-54325983D01*
X67449361Y-54328149D01*
X67480261Y-54483491D01*
X67480264Y-54483501D01*
X67540602Y-54629172D01*
X67540609Y-54629185D01*
X67628210Y-54760288D01*
X67628213Y-54760292D01*
X67739707Y-54871786D01*
X67739711Y-54871789D01*
X67870814Y-54959390D01*
X67870827Y-54959397D01*
X67996660Y-55011518D01*
X68016503Y-55019737D01*
X68171153Y-55050499D01*
X68171156Y-55050500D01*
X68171158Y-55050500D01*
X68328844Y-55050500D01*
X68328845Y-55050499D01*
X68483497Y-55019737D01*
X68604182Y-54969748D01*
X68629172Y-54959397D01*
X68629172Y-54959396D01*
X68629179Y-54959394D01*
X68760289Y-54871789D01*
X68871789Y-54760289D01*
X68959394Y-54629179D01*
X69019737Y-54483497D01*
X69050500Y-54328842D01*
X69050500Y-54171158D01*
X69050500Y-54171155D01*
X69050499Y-54171153D01*
X69036509Y-54100821D01*
X69019737Y-54016503D01*
X69000113Y-53969125D01*
X68959397Y-53870827D01*
X68959390Y-53870814D01*
X68871789Y-53739711D01*
X68871786Y-53739707D01*
X68760292Y-53628213D01*
X68760288Y-53628210D01*
X68629185Y-53540609D01*
X68629172Y-53540602D01*
X68483501Y-53480264D01*
X68483491Y-53480261D01*
X68328151Y-53449362D01*
X68266241Y-53416977D01*
X68264662Y-53415426D01*
X67151819Y-52302583D01*
X67118334Y-52241260D01*
X67115500Y-52214902D01*
X67115500Y-49499999D01*
X67500000Y-49499999D01*
X67500000Y-49500000D01*
X67500000Y-50500000D01*
X67500001Y-50500001D01*
X67931454Y-50715727D01*
X67982613Y-50763314D01*
X68000000Y-50826636D01*
X68000000Y-51250000D01*
X69376000Y-51250000D01*
X69443039Y-51269685D01*
X69488794Y-51322489D01*
X69500000Y-51374000D01*
X69500000Y-52750000D01*
X74000000Y-52750000D01*
X74000000Y-47250000D01*
X69500000Y-47250000D01*
X69500000Y-48126000D01*
X69480315Y-48193039D01*
X69427511Y-48238794D01*
X69376000Y-48250000D01*
X68000000Y-48250000D01*
X68000000Y-49173363D01*
X67980315Y-49240402D01*
X67931455Y-49284272D01*
X67500000Y-49499999D01*
X67115500Y-49499999D01*
X67115500Y-48114765D01*
X67135185Y-48047726D01*
X67136398Y-48045874D01*
X67136789Y-48045289D01*
X67224394Y-47914179D01*
X67224395Y-47914175D01*
X67227265Y-47908807D01*
X67228046Y-47909224D01*
X67250717Y-47875294D01*
X67276511Y-47849500D01*
X67352968Y-47773044D01*
X67442003Y-47628697D01*
X67495349Y-47467708D01*
X67505500Y-47368345D01*
X67505499Y-46821656D01*
X67500456Y-46772292D01*
X67495349Y-46722292D01*
X67495348Y-46722289D01*
X67483798Y-46687433D01*
X67442003Y-46561303D01*
X67441999Y-46561297D01*
X67441998Y-46561294D01*
X67352970Y-46416959D01*
X67352967Y-46416955D01*
X67233044Y-46297032D01*
X67233040Y-46297029D01*
X67088705Y-46208001D01*
X67088699Y-46207998D01*
X67088697Y-46207997D01*
X67078596Y-46204650D01*
X66927709Y-46154651D01*
X66828346Y-46144500D01*
X66231662Y-46144500D01*
X66231644Y-46144501D01*
X66132292Y-46154650D01*
X66132289Y-46154651D01*
X65971305Y-46207996D01*
X65971294Y-46208001D01*
X65826959Y-46297029D01*
X65826955Y-46297032D01*
X65787023Y-46336964D01*
X65725700Y-46370449D01*
X65656008Y-46365463D01*
X65629404Y-46350476D01*
X65629191Y-46350823D01*
X65478705Y-46258001D01*
X65478699Y-46257998D01*
X65478697Y-46257997D01*
X65460599Y-46252000D01*
X65317709Y-46204651D01*
X65218346Y-46194500D01*
X64621662Y-46194500D01*
X64621644Y-46194501D01*
X64522292Y-46204650D01*
X64522289Y-46204651D01*
X64361305Y-46257996D01*
X64361294Y-46258001D01*
X64216959Y-46347029D01*
X64216955Y-46347032D01*
X64097032Y-46466955D01*
X64097029Y-46466959D01*
X64008001Y-46611294D01*
X64007996Y-46611305D01*
X63954651Y-46772290D01*
X63944500Y-46871647D01*
X63944500Y-46871655D01*
X63944500Y-47129271D01*
X63944501Y-47275500D01*
X63924817Y-47342539D01*
X63872013Y-47388294D01*
X63820501Y-47399500D01*
X61050098Y-47399500D01*
X61020657Y-47390855D01*
X60990671Y-47384332D01*
X60985655Y-47380577D01*
X60983059Y-47379815D01*
X60962417Y-47363181D01*
X60886819Y-47287583D01*
X60853334Y-47226260D01*
X60850500Y-47199902D01*
X60850500Y-45576879D01*
X60850499Y-45576876D01*
X60837650Y-45528920D01*
X60809577Y-45424151D01*
X60809575Y-45424147D01*
X60771677Y-45358506D01*
X60730522Y-45287223D01*
X60730521Y-45287222D01*
X60730520Y-45287220D01*
X60618716Y-45175416D01*
X60618715Y-45175415D01*
X60614385Y-45171085D01*
X60614374Y-45171075D01*
X59900654Y-44457355D01*
X59900652Y-44457352D01*
X59781781Y-44338481D01*
X59781780Y-44338480D01*
X59671315Y-44274703D01*
X59671313Y-44274702D01*
X59644849Y-44259423D01*
X59644848Y-44259422D01*
X59644847Y-44259422D01*
X59588945Y-44244443D01*
X59492121Y-44218499D01*
X59334007Y-44218499D01*
X59326411Y-44218499D01*
X59326395Y-44218500D01*
X58673605Y-44218500D01*
X58673589Y-44218499D01*
X58665993Y-44218499D01*
X58507879Y-44218499D01*
X58355151Y-44259423D01*
X58355150Y-44259423D01*
X58355148Y-44259424D01*
X58328687Y-44274702D01*
X58328686Y-44274703D01*
X58273453Y-44306591D01*
X58218221Y-44338479D01*
X58218218Y-44338481D01*
X57818481Y-44738218D01*
X57818479Y-44738221D01*
X57811203Y-44750824D01*
X57786808Y-44793078D01*
X57767992Y-44825668D01*
X57740241Y-44873735D01*
X57739423Y-44875151D01*
X57698499Y-45027879D01*
X57698499Y-45027881D01*
X57698499Y-45195982D01*
X57698500Y-45195995D01*
X57698500Y-48095500D01*
X57678815Y-48162539D01*
X57626011Y-48208294D01*
X57574500Y-48219500D01*
X56750097Y-48219500D01*
X56683058Y-48199815D01*
X56662416Y-48183181D01*
X55999574Y-47520339D01*
X55966089Y-47459016D01*
X55965638Y-47456849D01*
X55947006Y-47363181D01*
X55934737Y-47301503D01*
X55916993Y-47258665D01*
X55874397Y-47155827D01*
X55874390Y-47155814D01*
X55786789Y-47024711D01*
X55786786Y-47024707D01*
X55675292Y-46913213D01*
X55675288Y-46913210D01*
X55544185Y-46825609D01*
X55544172Y-46825602D01*
X55398501Y-46765264D01*
X55398489Y-46765261D01*
X55243845Y-46734500D01*
X55243842Y-46734500D01*
X55086158Y-46734500D01*
X55086155Y-46734500D01*
X54931510Y-46765261D01*
X54931498Y-46765264D01*
X54785827Y-46825602D01*
X54785814Y-46825609D01*
X54654711Y-46913210D01*
X54654707Y-46913213D01*
X54543213Y-47024707D01*
X54543210Y-47024711D01*
X54455609Y-47155814D01*
X54455602Y-47155827D01*
X54395264Y-47301498D01*
X54395261Y-47301508D01*
X54364362Y-47456848D01*
X54355597Y-47473604D01*
X54351577Y-47492084D01*
X54332834Y-47517118D01*
X54331977Y-47518759D01*
X54330425Y-47520338D01*
X54286067Y-47564695D01*
X54224744Y-47598180D01*
X54155052Y-47593194D01*
X54110706Y-47564694D01*
X54103044Y-47557032D01*
X54103040Y-47557029D01*
X53958705Y-47468001D01*
X53958699Y-47467998D01*
X53958697Y-47467997D01*
X53922969Y-47456158D01*
X53797709Y-47414651D01*
X53698346Y-47404500D01*
X53101662Y-47404500D01*
X53101644Y-47404501D01*
X53002292Y-47414650D01*
X53002289Y-47414651D01*
X52841305Y-47467996D01*
X52841294Y-47468001D01*
X52696959Y-47557029D01*
X52696955Y-47557032D01*
X52577032Y-47676955D01*
X52577029Y-47676959D01*
X52488001Y-47821294D01*
X52487996Y-47821305D01*
X52434651Y-47982290D01*
X52424500Y-48081647D01*
X52424500Y-48628337D01*
X52424501Y-48628355D01*
X52434650Y-48727707D01*
X52434651Y-48727710D01*
X52469063Y-48831557D01*
X52480911Y-48867314D01*
X52482981Y-48873559D01*
X52485383Y-48943387D01*
X52449651Y-49003429D01*
X52387131Y-49034622D01*
X52328526Y-49028242D01*
X52327890Y-49030432D01*
X52162573Y-48982402D01*
X52162567Y-48982401D01*
X52125701Y-48979500D01*
X52125694Y-48979500D01*
X51647597Y-48979500D01*
X51580558Y-48959815D01*
X51559916Y-48943181D01*
X51156819Y-48540084D01*
X51123334Y-48478761D01*
X51120500Y-48452403D01*
X51120500Y-46012400D01*
X51140185Y-45945361D01*
X51179401Y-45906863D01*
X51218350Y-45882840D01*
X51340340Y-45760850D01*
X51430908Y-45614016D01*
X51441865Y-45580947D01*
X51481637Y-45523503D01*
X51546153Y-45496680D01*
X51614929Y-45508995D01*
X51666129Y-45556537D01*
X51677274Y-45580943D01*
X51684024Y-45601312D01*
X51684091Y-45601513D01*
X51684093Y-45601518D01*
X51699500Y-45626496D01*
X51774660Y-45748350D01*
X51896650Y-45870340D01*
X52043484Y-45960908D01*
X52207247Y-46015174D01*
X52308323Y-46025500D01*
X52881676Y-46025499D01*
X52881684Y-46025498D01*
X52881687Y-46025498D01*
X52937584Y-46019788D01*
X52982753Y-46015174D01*
X53146516Y-45960908D01*
X53293350Y-45870340D01*
X53415340Y-45748350D01*
X53505908Y-45601516D01*
X53560174Y-45437753D01*
X53570500Y-45336677D01*
X53570499Y-44663324D01*
X53570166Y-44660067D01*
X53560174Y-44562247D01*
X53534903Y-44485986D01*
X53505908Y-44398484D01*
X53415340Y-44251650D01*
X53293350Y-44129660D01*
X53146516Y-44039092D01*
X52982753Y-43984826D01*
X52982751Y-43984825D01*
X52881684Y-43974500D01*
X52881677Y-43974500D01*
X52470097Y-43974500D01*
X52403058Y-43954815D01*
X52382416Y-43938181D01*
X51905388Y-43461153D01*
X62239500Y-43461153D01*
X62239500Y-43618846D01*
X62270261Y-43773489D01*
X62270264Y-43773501D01*
X62330602Y-43919172D01*
X62330609Y-43919185D01*
X62418210Y-44050288D01*
X62418213Y-44050292D01*
X62529707Y-44161786D01*
X62529711Y-44161789D01*
X62660814Y-44249390D01*
X62660827Y-44249397D01*
X62806498Y-44309735D01*
X62806503Y-44309737D01*
X62938063Y-44335906D01*
X62961153Y-44340499D01*
X62961156Y-44340500D01*
X62961158Y-44340500D01*
X63118844Y-44340500D01*
X63118845Y-44340499D01*
X63273497Y-44309737D01*
X63394969Y-44259422D01*
X63419172Y-44249397D01*
X63419172Y-44249396D01*
X63419179Y-44249394D01*
X63425249Y-44245338D01*
X63550875Y-44161398D01*
X63568921Y-44155747D01*
X63584831Y-44145523D01*
X63615792Y-44141071D01*
X63617553Y-44140520D01*
X63619766Y-44140500D01*
X63685448Y-44140500D01*
X63752487Y-44160185D01*
X63773129Y-44176819D01*
X63841650Y-44245340D01*
X63988484Y-44335908D01*
X64152247Y-44390174D01*
X64253323Y-44400500D01*
X64826676Y-44400499D01*
X64826684Y-44400498D01*
X64826687Y-44400498D01*
X64882030Y-44394844D01*
X64927753Y-44390174D01*
X65091516Y-44335908D01*
X65238350Y-44245340D01*
X65360340Y-44123350D01*
X65450908Y-43976516D01*
X65505174Y-43812753D01*
X65515500Y-43711677D01*
X65515499Y-43113324D01*
X65505174Y-43012247D01*
X65450908Y-42848484D01*
X65360340Y-42701650D01*
X65238350Y-42579660D01*
X65136313Y-42516723D01*
X65091518Y-42489093D01*
X65091513Y-42489091D01*
X65064552Y-42480157D01*
X64927753Y-42434826D01*
X64927751Y-42434825D01*
X64826678Y-42424500D01*
X64253330Y-42424500D01*
X64253312Y-42424501D01*
X64152247Y-42434825D01*
X63988484Y-42489092D01*
X63988481Y-42489093D01*
X63841648Y-42579661D01*
X63719659Y-42701650D01*
X63643144Y-42825700D01*
X63591196Y-42872424D01*
X63522233Y-42883645D01*
X63468716Y-42863704D01*
X63419190Y-42830612D01*
X63419172Y-42830602D01*
X63273501Y-42770264D01*
X63273489Y-42770261D01*
X63118845Y-42739500D01*
X63118842Y-42739500D01*
X62961158Y-42739500D01*
X62961155Y-42739500D01*
X62806510Y-42770261D01*
X62806498Y-42770264D01*
X62660827Y-42830602D01*
X62660814Y-42830609D01*
X62529711Y-42918210D01*
X62529707Y-42918213D01*
X62418213Y-43029707D01*
X62418210Y-43029711D01*
X62330609Y-43160814D01*
X62330602Y-43160827D01*
X62270264Y-43306498D01*
X62270261Y-43306510D01*
X62239500Y-43461153D01*
X51905388Y-43461153D01*
X51531818Y-43087583D01*
X51498333Y-43026260D01*
X51495499Y-42999902D01*
X51495499Y-42925830D01*
X51495498Y-42925813D01*
X51485174Y-42824747D01*
X51430908Y-42660984D01*
X51340340Y-42514150D01*
X51218350Y-42392160D01*
X51071516Y-42301592D01*
X50907753Y-42247326D01*
X50907751Y-42247325D01*
X50806678Y-42237000D01*
X50233330Y-42237000D01*
X50233312Y-42237001D01*
X50132247Y-42247325D01*
X49968484Y-42301592D01*
X49968481Y-42301593D01*
X49821648Y-42392161D01*
X49699661Y-42514148D01*
X49609093Y-42660981D01*
X49609091Y-42660986D01*
X49587182Y-42727103D01*
X49554826Y-42824747D01*
X49554826Y-42824748D01*
X49554825Y-42824748D01*
X49544500Y-42925815D01*
X49544500Y-43524169D01*
X49544501Y-43524187D01*
X49554825Y-43625252D01*
X49589279Y-43729226D01*
X49609092Y-43789016D01*
X49689377Y-43919179D01*
X49699661Y-43935851D01*
X49813629Y-44049819D01*
X49847114Y-44111142D01*
X49842130Y-44180834D01*
X49813629Y-44225181D01*
X49699661Y-44339148D01*
X49609093Y-44485981D01*
X49609092Y-44485984D01*
X49554826Y-44649747D01*
X49554826Y-44649748D01*
X49554825Y-44649748D01*
X49544500Y-44750815D01*
X49544500Y-45349169D01*
X49544501Y-45349187D01*
X49554825Y-45450252D01*
X49570210Y-45496680D01*
X49609090Y-45614011D01*
X49609092Y-45614015D01*
X49609093Y-45614018D01*
X49641144Y-45665980D01*
X49699660Y-45760850D01*
X49821650Y-45882840D01*
X49860597Y-45906862D01*
X49907320Y-45958807D01*
X49919500Y-46012400D01*
X49919500Y-48673439D01*
X49919499Y-48673443D01*
X49919499Y-48831557D01*
X49921404Y-48838667D01*
X49921574Y-48854140D01*
X49914035Y-48880895D01*
X49909754Y-48908351D01*
X49904693Y-48914052D01*
X49902626Y-48921391D01*
X49881822Y-48939820D01*
X49863374Y-48960606D01*
X49855954Y-48962736D01*
X49850327Y-48967722D01*
X49824835Y-48971673D01*
X49797581Y-48979500D01*
X48694298Y-48979500D01*
X48657432Y-48982401D01*
X48657426Y-48982402D01*
X48499606Y-49028254D01*
X48499603Y-49028255D01*
X48358137Y-49111917D01*
X48358129Y-49111923D01*
X48274372Y-49195681D01*
X48247444Y-49210384D01*
X48221626Y-49226977D01*
X48215425Y-49227868D01*
X48213049Y-49229166D01*
X48186691Y-49232000D01*
X47946265Y-49232000D01*
X47881168Y-49213538D01*
X47798483Y-49162537D01*
X47751758Y-49110589D01*
X47740537Y-49041627D01*
X47768380Y-48977545D01*
X47826449Y-48938689D01*
X47863580Y-48932999D01*
X47935002Y-48932999D01*
X47935008Y-48932999D01*
X48037797Y-48922499D01*
X48204334Y-48867314D01*
X48353656Y-48775212D01*
X48477712Y-48651156D01*
X48569814Y-48501834D01*
X48624999Y-48335297D01*
X48635500Y-48232509D01*
X48635499Y-46562492D01*
X48624999Y-46459703D01*
X48569814Y-46293166D01*
X48477712Y-46143844D01*
X48353656Y-46019788D01*
X48258193Y-45960906D01*
X48204336Y-45927687D01*
X48204331Y-45927685D01*
X48141485Y-45906860D01*
X48037797Y-45872501D01*
X48037795Y-45872500D01*
X47935016Y-45862000D01*
X47935009Y-45862000D01*
X46346519Y-45862000D01*
X46279480Y-45842315D01*
X46258838Y-45825681D01*
X45736819Y-45303662D01*
X45703334Y-45242339D01*
X45700500Y-45215981D01*
X45700500Y-42121008D01*
X45700499Y-42121001D01*
X45700314Y-42120072D01*
X45700319Y-42120070D01*
X45700304Y-42120024D01*
X45673580Y-41985672D01*
X45673578Y-41985667D01*
X45620777Y-41858192D01*
X45544112Y-41743454D01*
X43854045Y-40053387D01*
X43739310Y-39976724D01*
X43676458Y-39950690D01*
X43647916Y-39934111D01*
X43641870Y-39929422D01*
X43641862Y-39929417D01*
X43500398Y-39845756D01*
X43500397Y-39845755D01*
X43500396Y-39845755D01*
X43500393Y-39845754D01*
X43342573Y-39799902D01*
X43342567Y-39799901D01*
X43305701Y-39797000D01*
X43305694Y-39797000D01*
X41524306Y-39797000D01*
X41524298Y-39797000D01*
X41487432Y-39799901D01*
X41487426Y-39799902D01*
X41329606Y-39845754D01*
X41329603Y-39845755D01*
X41188137Y-39929417D01*
X41188129Y-39929423D01*
X41071923Y-40045629D01*
X41071917Y-40045637D01*
X40988255Y-40187103D01*
X40988254Y-40187106D01*
X40942402Y-40344926D01*
X40942401Y-40344932D01*
X40939500Y-40381798D01*
X40939500Y-40813201D01*
X40942401Y-40850067D01*
X40942402Y-40850073D01*
X40988254Y-41007893D01*
X40988255Y-41007896D01*
X40988256Y-41007898D01*
X41025681Y-41071181D01*
X41071917Y-41149362D01*
X41076702Y-41155531D01*
X41074256Y-41157427D01*
X41100857Y-41206142D01*
X41095873Y-41275834D01*
X41075069Y-41308203D01*
X41076702Y-41309469D01*
X41071917Y-41315637D01*
X40988255Y-41457103D01*
X40988254Y-41457106D01*
X40942402Y-41614926D01*
X40942401Y-41614932D01*
X40939500Y-41651798D01*
X40939500Y-42083201D01*
X40942401Y-42120067D01*
X40942402Y-42120073D01*
X40988254Y-42277893D01*
X40988255Y-42277896D01*
X41071917Y-42419362D01*
X41076702Y-42425531D01*
X41074256Y-42427427D01*
X41100857Y-42476142D01*
X41095873Y-42545834D01*
X41075069Y-42578203D01*
X41076702Y-42579469D01*
X41071917Y-42585637D01*
X40988255Y-42727103D01*
X40988254Y-42727106D01*
X40942402Y-42884926D01*
X40942401Y-42884932D01*
X40939500Y-42921798D01*
X40939500Y-43353201D01*
X40942401Y-43390067D01*
X40942402Y-43390073D01*
X40988254Y-43547893D01*
X40988255Y-43547896D01*
X41071917Y-43689362D01*
X41076702Y-43695531D01*
X41074256Y-43697427D01*
X41100857Y-43746142D01*
X41095873Y-43815834D01*
X41075069Y-43848203D01*
X41076702Y-43849469D01*
X41071917Y-43855637D01*
X40988255Y-43997103D01*
X40988254Y-43997106D01*
X40942402Y-44154926D01*
X40942401Y-44154932D01*
X40939500Y-44191798D01*
X40939500Y-44623201D01*
X40942401Y-44660067D01*
X40942402Y-44660073D01*
X40973579Y-44767381D01*
X40973380Y-44837250D01*
X40942184Y-44889657D01*
X40641160Y-45190681D01*
X40579837Y-45224166D01*
X40553479Y-45227000D01*
X40253331Y-45227000D01*
X40253312Y-45227001D01*
X40152247Y-45237325D01*
X39988484Y-45291592D01*
X39988481Y-45291593D01*
X39841648Y-45382161D01*
X39827681Y-45396129D01*
X39766358Y-45429614D01*
X39696666Y-45424630D01*
X39652319Y-45396129D01*
X39638351Y-45382161D01*
X39638350Y-45382160D01*
X39491516Y-45291592D01*
X39327753Y-45237326D01*
X39327751Y-45237325D01*
X39226684Y-45227000D01*
X39226677Y-45227000D01*
X38944019Y-45227000D01*
X38914578Y-45218355D01*
X38884592Y-45211832D01*
X38879576Y-45208077D01*
X38876980Y-45207315D01*
X38856338Y-45190681D01*
X38804232Y-45138575D01*
X38770747Y-45077252D01*
X38775731Y-45007560D01*
X38804232Y-44963213D01*
X38808081Y-44959365D01*
X38891744Y-44817898D01*
X38932870Y-44676344D01*
X38937597Y-44660073D01*
X38937598Y-44660067D01*
X38940246Y-44626416D01*
X38940500Y-44623194D01*
X38940500Y-44191806D01*
X38937598Y-44154931D01*
X38933571Y-44141071D01*
X38891745Y-43997106D01*
X38891744Y-43997103D01*
X38891744Y-43997102D01*
X38808081Y-43855635D01*
X38808078Y-43855632D01*
X38803298Y-43849469D01*
X38805750Y-43847566D01*
X38779155Y-43798921D01*
X38784104Y-43729226D01*
X38804940Y-43696804D01*
X38803298Y-43695531D01*
X38808075Y-43689370D01*
X38808081Y-43689365D01*
X38891744Y-43547898D01*
X38937598Y-43390069D01*
X38940500Y-43353194D01*
X38940500Y-42921806D01*
X38937598Y-42884931D01*
X38937224Y-42883645D01*
X38891745Y-42727106D01*
X38891744Y-42727103D01*
X38891744Y-42727102D01*
X38808081Y-42585635D01*
X38808079Y-42585633D01*
X38808076Y-42585629D01*
X38691870Y-42469423D01*
X38691862Y-42469417D01*
X38613681Y-42423181D01*
X38550398Y-42385756D01*
X38550397Y-42385755D01*
X38550396Y-42385755D01*
X38550393Y-42385754D01*
X38392573Y-42339902D01*
X38392567Y-42339901D01*
X38355701Y-42337000D01*
X38355694Y-42337000D01*
X36574306Y-42337000D01*
X36574298Y-42337000D01*
X36537432Y-42339901D01*
X36537426Y-42339902D01*
X36379606Y-42385754D01*
X36379603Y-42385755D01*
X36341955Y-42408020D01*
X36322773Y-42419365D01*
X36322152Y-42419732D01*
X36259031Y-42437000D01*
X31903504Y-42437000D01*
X31768177Y-42463918D01*
X31768167Y-42463921D01*
X31640691Y-42516723D01*
X31525958Y-42593385D01*
X31478035Y-42641307D01*
X31416711Y-42674791D01*
X31347019Y-42669805D01*
X31302675Y-42641306D01*
X31263657Y-42602289D01*
X31263656Y-42602288D01*
X31148921Y-42531519D01*
X31114336Y-42510187D01*
X31114331Y-42510185D01*
X31108624Y-42508294D01*
X30947797Y-42455001D01*
X30947795Y-42455000D01*
X30845010Y-42444500D01*
X29794998Y-42444500D01*
X29794980Y-42444501D01*
X29692203Y-42455000D01*
X29692200Y-42455001D01*
X29525668Y-42510185D01*
X29525663Y-42510187D01*
X29376345Y-42602287D01*
X29298052Y-42680580D01*
X29236728Y-42714064D01*
X29167037Y-42709080D01*
X29111107Y-42667211D01*
X29107546Y-42662454D01*
X29107544Y-42662453D01*
X29107544Y-42662452D01*
X28992335Y-42576206D01*
X28992328Y-42576202D01*
X28857482Y-42525908D01*
X28857483Y-42525908D01*
X28797883Y-42519501D01*
X28797881Y-42519500D01*
X28797873Y-42519500D01*
X28797865Y-42519500D01*
X27918250Y-42519500D01*
X27851211Y-42499815D01*
X27805456Y-42447011D01*
X27794250Y-42395500D01*
X27794250Y-40996874D01*
X27813935Y-40929835D01*
X27830569Y-40909193D01*
X27891718Y-40848044D01*
X27980753Y-40703697D01*
X28034099Y-40542708D01*
X28044250Y-40443345D01*
X28044250Y-40381798D01*
X35989500Y-40381798D01*
X35989500Y-40813201D01*
X35992401Y-40850067D01*
X35992402Y-40850073D01*
X36038254Y-41007893D01*
X36038255Y-41007896D01*
X36038256Y-41007898D01*
X36075681Y-41071181D01*
X36121917Y-41149362D01*
X36121923Y-41149370D01*
X36238129Y-41265576D01*
X36238133Y-41265579D01*
X36238135Y-41265581D01*
X36379602Y-41349244D01*
X36421224Y-41361336D01*
X36537426Y-41395097D01*
X36537429Y-41395097D01*
X36537431Y-41395098D01*
X36574306Y-41398000D01*
X36574314Y-41398000D01*
X38355686Y-41398000D01*
X38355694Y-41398000D01*
X38392569Y-41395098D01*
X38392571Y-41395097D01*
X38392573Y-41395097D01*
X38434191Y-41383005D01*
X38550398Y-41349244D01*
X38691865Y-41265581D01*
X38808081Y-41149365D01*
X38891744Y-41007898D01*
X38925505Y-40891691D01*
X38937597Y-40850073D01*
X38937598Y-40850067D01*
X38937758Y-40848040D01*
X38940500Y-40813194D01*
X38940500Y-40381806D01*
X38937598Y-40344931D01*
X38891744Y-40187102D01*
X38808081Y-40045635D01*
X38808079Y-40045633D01*
X38808076Y-40045629D01*
X38691870Y-39929423D01*
X38691862Y-39929417D01*
X38551920Y-39846656D01*
X38550398Y-39845756D01*
X38550397Y-39845755D01*
X38550396Y-39845755D01*
X38550393Y-39845754D01*
X38392573Y-39799902D01*
X38392567Y-39799901D01*
X38355701Y-39797000D01*
X38355694Y-39797000D01*
X36574306Y-39797000D01*
X36574298Y-39797000D01*
X36537432Y-39799901D01*
X36537426Y-39799902D01*
X36379606Y-39845754D01*
X36379603Y-39845755D01*
X36238137Y-39929417D01*
X36238129Y-39929423D01*
X36121923Y-40045629D01*
X36121917Y-40045637D01*
X36038255Y-40187103D01*
X36038254Y-40187106D01*
X35992402Y-40344926D01*
X35992401Y-40344932D01*
X35989500Y-40381798D01*
X28044250Y-40381798D01*
X28044249Y-39846656D01*
X28034099Y-39747292D01*
X27980753Y-39586303D01*
X27980749Y-39586297D01*
X27980748Y-39586294D01*
X27891720Y-39441959D01*
X27891717Y-39441955D01*
X27771794Y-39322032D01*
X27771790Y-39322029D01*
X27627455Y-39233001D01*
X27627449Y-39232998D01*
X27627447Y-39232997D01*
X27627444Y-39232996D01*
X27466459Y-39179651D01*
X27367096Y-39169500D01*
X26820412Y-39169500D01*
X26820394Y-39169501D01*
X26721042Y-39179650D01*
X26721039Y-39179651D01*
X26560055Y-39232996D01*
X26560044Y-39233001D01*
X26415709Y-39322029D01*
X26415705Y-39322032D01*
X26406431Y-39331307D01*
X26345108Y-39364792D01*
X26275416Y-39359808D01*
X26231069Y-39331307D01*
X26221794Y-39322032D01*
X26221790Y-39322029D01*
X26077455Y-39233001D01*
X26077449Y-39232998D01*
X26077447Y-39232997D01*
X26077444Y-39232996D01*
X25916459Y-39179651D01*
X25817096Y-39169500D01*
X25270412Y-39169500D01*
X25270394Y-39169501D01*
X25171042Y-39179650D01*
X25171039Y-39179651D01*
X25010055Y-39232996D01*
X25010044Y-39233001D01*
X24865706Y-39322030D01*
X24860038Y-39326513D01*
X24859163Y-39325406D01*
X24804811Y-39355077D01*
X24754276Y-39355526D01*
X24721742Y-39349055D01*
X24698842Y-39344500D01*
X24541158Y-39344500D01*
X24541152Y-39344500D01*
X24518251Y-39349055D01*
X24448660Y-39342825D01*
X24423358Y-39328271D01*
X24423247Y-39328452D01*
X24417368Y-39324826D01*
X24417151Y-39324701D01*
X24417099Y-39324659D01*
X24270268Y-39234093D01*
X24270263Y-39234091D01*
X24266962Y-39232997D01*
X24106503Y-39179826D01*
X24106501Y-39179825D01*
X24005428Y-39169500D01*
X23407080Y-39169500D01*
X23407062Y-39169501D01*
X23305997Y-39179825D01*
X23142234Y-39234092D01*
X23142231Y-39234093D01*
X22995398Y-39324661D01*
X22881431Y-39438629D01*
X22820108Y-39472114D01*
X22750416Y-39467130D01*
X22706069Y-39438629D01*
X22592101Y-39324661D01*
X22592100Y-39324660D01*
X22445266Y-39234092D01*
X22281503Y-39179826D01*
X22281501Y-39179825D01*
X22180428Y-39169500D01*
X21582080Y-39169500D01*
X21582062Y-39169501D01*
X21480997Y-39179825D01*
X21317234Y-39234092D01*
X21317231Y-39234093D01*
X21170398Y-39324661D01*
X21048411Y-39446648D01*
X20957843Y-39593481D01*
X20957842Y-39593484D01*
X20903576Y-39757247D01*
X20903576Y-39757248D01*
X20903575Y-39757248D01*
X20893250Y-39858315D01*
X20893250Y-40431669D01*
X20893251Y-40431687D01*
X20903575Y-40532752D01*
X20957842Y-40696515D01*
X20957843Y-40696518D01*
X21048411Y-40843351D01*
X21144431Y-40939371D01*
X21177916Y-41000694D01*
X21180750Y-41027052D01*
X21180750Y-42395500D01*
X21161065Y-42462539D01*
X21108261Y-42508294D01*
X21056750Y-42519500D01*
X20302129Y-42519500D01*
X20302123Y-42519501D01*
X20242516Y-42525908D01*
X20107671Y-42576202D01*
X20107664Y-42576206D01*
X19992455Y-42662452D01*
X19992452Y-42662455D01*
X19906206Y-42777664D01*
X19906202Y-42777671D01*
X19855908Y-42912517D01*
X19849501Y-42972116D01*
X19849501Y-42972123D01*
X19849500Y-42972135D01*
X14400500Y-42972135D01*
X14400500Y-38127000D01*
X14420185Y-38059961D01*
X14472989Y-38014206D01*
X14524500Y-38003000D01*
X74865500Y-38003000D01*
X74932539Y-38022685D01*
G37*
%TD.AperFunction*%
%TD*%
M02*
