M48
; DRILL file {KiCad 9.0.5} date 2026-05-01T14:46:19+0800
; FORMAT={-:-/ absolute / metric / decimal}
; #@! TF.CreationDate,2026-05-01T14:46:19+08:00
; #@! TF.GenerationSoftware,Kicad,Pcbnew,9.0.5
; #@! TF.FileFunction,Plated,1,4,PTH
FMAT,2
METRIC
; #@! TA.AperFunction,Plated,PTH,ComponentDrill
T1C0.200
; #@! TA.AperFunction,Plated,PTH,ViaDrill
T2C0.300
; #@! TA.AperFunction,Plated,PTH,ComponentDrill
T3C2.700
%
G90
G05
T1
X110.175Y-52.445
X110.175Y-54.355
X111.475Y-52.445
X111.475Y-54.355
X112.775Y-52.445
X112.775Y-54.355
T2
X107.2Y-54.4
X107.8Y-27.4
X108.2Y-29.2
X108.2Y-54.4
X108.4Y-28.2
X108.4Y-30.0
X109.0Y-29.2
X109.0Y-30.6
X109.4Y-27.6
X109.6Y-30.0
X109.8Y-28.4
X110.0Y-29.2
X110.0Y-36.2
X110.0Y-37.0
X110.0Y-39.4
X110.0Y-40.2
X110.4Y-27.2
X110.8Y-28.371
X111.0Y-33.2
X111.0Y-34.0
X111.0Y-43.0
X111.0Y-44.2
X111.1Y-67.4
X111.2Y-46.0
X111.3Y-70.4
X111.8Y-38.5
X112.25Y-43.25
X114.0Y-52.2
X114.0Y-53.4
X114.3Y-70.7
X114.4Y-34.0
X114.4Y-35.0
X114.4Y-50.6
X114.4Y-66.8
X116.8Y-44.2
X116.8Y-45.4
X116.8Y-46.4
X117.2Y-66.8
X117.6Y-47.0
X118.1Y-71.0
X119.8Y-60.1
X119.8Y-61.6
X120.2Y-54.025
X120.5Y-69.7
X121.2Y-66.7
X123.2Y-69.7
X123.6Y-58.8
X124.4Y-58.6
X124.8Y-56.8
X125.0Y-57.8
X125.5Y-68.8
X125.6Y-61.0
X125.8Y-57.1
X126.0Y-65.6
X126.2Y-60.2
X127.0Y-29.6
X127.0Y-59.4
X127.3Y-71.9
X127.4Y-69.8
X127.5Y-62.8
X127.5Y-64.5
X127.5Y-66.3
X127.5Y-68.3
X128.2Y-29.6
X128.6Y-46.2
X128.6Y-47.0
X128.8Y-63.4
X128.8Y-67.2
X128.8Y-68.8
X128.8Y-70.6
X128.8Y-75.6
X128.8Y-76.6
X129.0Y-57.8
X129.8Y-31.8
X129.8Y-33.2
X130.0Y-34.2
X130.0Y-35.2
X130.0Y-69.5
X130.0Y-70.25
X130.0Y-71.0
X130.0Y-71.75
X130.2Y-32.6
X130.2Y-57.2
X130.225Y-59.0
X130.4Y-33.6
X130.4Y-75.4
X130.6Y-31.8
X130.75Y-72.25
X130.8Y-34.6
X131.4Y-31.8
X131.4Y-35.2
X131.5Y-72.25
X131.6Y-34.0
X131.8Y-32.6
X132.0Y-31.8
X132.2Y-33.4
X132.2Y-34.55
X132.25Y-72.25
X132.6Y-25.6
X132.6Y-26.2
X132.6Y-29.4
X132.6Y-32.6
X132.6Y-57.2
X132.732Y-28.764
X132.8Y-34.0
X133.0Y-31.8
X133.0Y-35.2
X133.0Y-47.8
X133.0Y-48.8
X133.0Y-72.25
X133.2Y-25.6
X133.2Y-26.2
X133.2Y-33.2
X133.249Y-29.371
X133.25Y-65.75
X133.437Y-28.67
X134.0Y-65.75
X134.75Y-65.75
X134.8Y-26.4
X135.6Y-26.4
X136.4Y-24.2
X136.75Y-64.25
X137.4Y-24.2
X139.2Y-57.6
X139.4Y-24.2
X140.2Y-24.2
X140.7Y-74.1
X140.725Y-59.0
X141.1Y-57.6
X141.6Y-79.2
X142.2Y-24.2
X143.0Y-24.2
X143.4Y-64.4
X143.4Y-74.2
X144.7Y-74.2
X144.8Y-24.2
X145.6Y-24.2
X145.8Y-65.6
X148.0Y-64.25
X148.25Y-62.75
X148.4Y-24.4
X149.2Y-79.2
X149.6Y-24.4
X149.9Y-57.7
X152.05Y-57.7
X152.25Y-72.525
X152.4Y-24.4
X153.6Y-24.4
X155.2Y-25.8
X155.25Y-63.5
X156.0Y-25.8
X156.3Y-71.25
X158.0Y-26.4
X158.0Y-32.2
X158.0Y-33.2
X158.2Y-27.2
X158.2Y-29.6
X158.2Y-30.8
X158.2Y-35.4
X158.2Y-36.2
X158.25Y-41.75
X158.4Y-37.8
X158.8Y-54.0
X158.8Y-54.8
X158.875Y-75.4
X159.4Y-37.8
X161.4Y-37.8
X162.4Y-37.8
X162.5Y-43.0
X164.162Y-66.5
X164.4Y-37.8
X165.2Y-37.8
X165.25Y-68.0
T3
X109.5Y-24.25
X114.5Y-24.25
X162.25Y-55.75
X162.25Y-60.75
M30
