%TF.GenerationSoftware,KiCad,Pcbnew,9.0.5*%
%TF.CreationDate,2026-05-18T12:14:24+08:00*%
%TF.ProjectId,__buck,70a76275-636b-42e6-9b69-6361645f7063,rev?*%
%TF.SameCoordinates,Original*%
%TF.FileFunction,Paste,Top*%
%TF.FilePolarity,Positive*%
%FSLAX46Y46*%
G04 Gerber Fmt 4.6, Leading zero omitted, Abs format (unit mm)*
G04 Created by KiCad (PCBNEW 9.0.5) date 2026-05-18 12:14:24*
%MOMM*%
%LPD*%
G01*
G04 APERTURE LIST*
G04 Aperture macros list*
%AMRoundRect*
0 Rectangle with rounded corners*
0 $1 Rounding radius*
0 $2 $3 $4 $5 $6 $7 $8 $9 X,Y pos of 4 corners*
0 Add a 4 corners polygon primitive as box body*
4,1,4,$2,$3,$4,$5,$6,$7,$8,$9,$2,$3,0*
0 Add four circle primitives for the rounded corners*
1,1,$1+$1,$2,$3*
1,1,$1+$1,$4,$5*
1,1,$1+$1,$6,$7*
1,1,$1+$1,$8,$9*
0 Add four rect primitives between the rounded corners*
20,1,$1+$1,$2,$3,$4,$5,0*
20,1,$1+$1,$4,$5,$6,$7,0*
20,1,$1+$1,$6,$7,$8,$9,0*
20,1,$1+$1,$8,$9,$2,$3,0*%
G04 Aperture macros list end*
%ADD10RoundRect,0.250000X0.300000X-0.300000X0.300000X0.300000X-0.300000X0.300000X-0.300000X-0.300000X0*%
%ADD11RoundRect,0.200000X0.200000X0.275000X-0.200000X0.275000X-0.200000X-0.275000X0.200000X-0.275000X0*%
%ADD12RoundRect,0.250000X-0.475000X0.337500X-0.475000X-0.337500X0.475000X-0.337500X0.475000X0.337500X0*%
%ADD13RoundRect,0.200000X0.200000X0.800000X-0.200000X0.800000X-0.200000X-0.800000X0.200000X-0.800000X0*%
%ADD14RoundRect,0.250000X1.100000X-0.325000X1.100000X0.325000X-1.100000X0.325000X-1.100000X-0.325000X0*%
%ADD15RoundRect,0.250000X-1.000000X1.950000X-1.000000X-1.950000X1.000000X-1.950000X1.000000X1.950000X0*%
%ADD16RoundRect,0.237500X0.237500X-0.250000X0.237500X0.250000X-0.237500X0.250000X-0.237500X-0.250000X0*%
%ADD17RoundRect,0.225000X-0.250000X0.225000X-0.250000X-0.225000X0.250000X-0.225000X0.250000X0.225000X0*%
%ADD18RoundRect,0.250000X-1.100000X0.412500X-1.100000X-0.412500X1.100000X-0.412500X1.100000X0.412500X0*%
%ADD19RoundRect,0.375000X-0.375000X0.375000X-0.375000X-0.375000X0.375000X-0.375000X0.375000X0.375000X0*%
%ADD20RoundRect,0.125000X-0.125000X0.250000X-0.125000X-0.250000X0.125000X-0.250000X0.125000X0.250000X0*%
%ADD21RoundRect,0.100000X-0.100000X0.275000X-0.100000X-0.275000X0.100000X-0.275000X0.100000X0.275000X0*%
%ADD22R,1.500000X2.200000*%
%ADD23RoundRect,0.250000X1.000000X-1.950000X1.000000X1.950000X-1.000000X1.950000X-1.000000X-1.950000X0*%
%ADD24RoundRect,0.100000X0.637500X0.100000X-0.637500X0.100000X-0.637500X-0.100000X0.637500X-0.100000X0*%
%ADD25RoundRect,0.237500X-0.237500X0.250000X-0.237500X-0.250000X0.237500X-0.250000X0.237500X0.250000X0*%
%ADD26RoundRect,0.250000X0.475000X-0.337500X0.475000X0.337500X-0.475000X0.337500X-0.475000X-0.337500X0*%
%ADD27RoundRect,0.225000X0.250000X-0.225000X0.250000X0.225000X-0.250000X0.225000X-0.250000X-0.225000X0*%
%ADD28RoundRect,0.150000X0.825000X0.150000X-0.825000X0.150000X-0.825000X-0.150000X0.825000X-0.150000X0*%
%ADD29RoundRect,0.225000X0.225000X0.250000X-0.225000X0.250000X-0.225000X-0.250000X0.225000X-0.250000X0*%
%ADD30R,2.950000X3.500000*%
%ADD31RoundRect,0.225000X-0.225000X-0.250000X0.225000X-0.250000X0.225000X0.250000X-0.225000X0.250000X0*%
%ADD32RoundRect,0.250000X1.045000X-0.785000X1.045000X0.785000X-1.045000X0.785000X-1.045000X-0.785000X0*%
%ADD33RoundRect,0.250000X-0.300000X0.300000X-0.300000X-0.300000X0.300000X-0.300000X0.300000X0.300000X0*%
%ADD34RoundRect,0.237500X-0.250000X-0.237500X0.250000X-0.237500X0.250000X0.237500X-0.250000X0.237500X0*%
%ADD35RoundRect,0.237500X0.300000X0.237500X-0.300000X0.237500X-0.300000X-0.237500X0.300000X-0.237500X0*%
%ADD36RoundRect,0.237500X-0.237500X0.287500X-0.237500X-0.287500X0.237500X-0.287500X0.237500X0.287500X0*%
%ADD37RoundRect,0.250002X-1.499998X-6.149998X1.499998X-6.149998X1.499998X6.149998X-1.499998X6.149998X0*%
%ADD38RoundRect,0.250000X0.650000X-1.000000X0.650000X1.000000X-0.650000X1.000000X-0.650000X-1.000000X0*%
%ADD39RoundRect,0.250000X-0.400000X-0.625000X0.400000X-0.625000X0.400000X0.625000X-0.400000X0.625000X0*%
%ADD40RoundRect,0.237500X0.237500X-0.300000X0.237500X0.300000X-0.237500X0.300000X-0.237500X-0.300000X0*%
%ADD41RoundRect,0.150000X-0.512500X-0.150000X0.512500X-0.150000X0.512500X0.150000X-0.512500X0.150000X0*%
%ADD42RoundRect,0.242500X-0.242500X-0.382500X0.242500X-0.382500X0.242500X0.382500X-0.242500X0.382500X0*%
%ADD43RoundRect,0.150000X-0.650000X-0.150000X0.650000X-0.150000X0.650000X0.150000X-0.650000X0.150000X0*%
G04 APERTURE END LIST*
D10*
%TO.C,D1*%
X20745000Y-73105000D03*
X20745000Y-70305000D03*
%TD*%
D11*
%TO.C,R9*%
X60200000Y-48820000D03*
X58550000Y-48820000D03*
%TD*%
D12*
%TO.C,C27*%
X69390000Y-68132500D03*
X69390000Y-70207500D03*
%TD*%
D13*
%TO.C,SW1*%
X63200000Y-46120000D03*
X59000000Y-46120000D03*
%TD*%
D14*
%TO.C,C2*%
X24070000Y-78480000D03*
X24070000Y-75530000D03*
%TD*%
D15*
%TO.C,C13*%
X58210000Y-67830000D03*
X58210000Y-76230000D03*
%TD*%
D16*
%TO.C,R3*%
X28920000Y-51457500D03*
X28920000Y-49632500D03*
%TD*%
D14*
%TO.C,C7*%
X20595000Y-78430000D03*
X20595000Y-75480000D03*
%TD*%
D17*
%TO.C,C22*%
X48375000Y-57895000D03*
X48375000Y-59445000D03*
%TD*%
D18*
%TO.C,C8*%
X24045000Y-70217500D03*
X24045000Y-73342500D03*
%TD*%
D19*
%TO.C,Q1*%
X30055000Y-74925000D03*
X28355000Y-74925000D03*
X30055000Y-76625000D03*
X28355000Y-76625000D03*
D20*
X31110000Y-78030000D03*
X29840000Y-78030000D03*
X28570000Y-78030000D03*
X27300000Y-78030000D03*
D21*
X31110000Y-72225000D03*
X29840000Y-72225000D03*
X28570000Y-72225000D03*
X27300000Y-72225000D03*
%TD*%
D22*
%TO.C,L3*%
X36890000Y-51052500D03*
X43290000Y-51052500D03*
%TD*%
D23*
%TO.C,C12*%
X60540000Y-61150000D03*
X60540000Y-52750000D03*
%TD*%
D24*
%TO.C,U5*%
X46512500Y-59645000D03*
X46512500Y-58995000D03*
X46512500Y-58345000D03*
X46512500Y-57695000D03*
X40787500Y-57695000D03*
X40787500Y-58345000D03*
X40787500Y-58995000D03*
X40787500Y-59645000D03*
%TD*%
D25*
%TO.C,R14*%
X53410000Y-54447500D03*
X53410000Y-56272500D03*
%TD*%
D26*
%TO.C,C18*%
X64770000Y-65587500D03*
X64770000Y-63512500D03*
%TD*%
D27*
%TO.C,C3*%
X30605000Y-51270000D03*
X30605000Y-49720000D03*
%TD*%
D28*
%TO.C,U8*%
X42415000Y-44407500D03*
X42415000Y-43137500D03*
X42415000Y-41867500D03*
X42415000Y-40597500D03*
X37465000Y-40597500D03*
X37465000Y-41867500D03*
X37465000Y-43137500D03*
X37465000Y-44407500D03*
%TD*%
D26*
%TO.C,C37*%
X30320000Y-43532500D03*
X30320000Y-41457500D03*
%TD*%
D29*
%TO.C,C11*%
X63400000Y-48820000D03*
X61850000Y-48820000D03*
%TD*%
D19*
%TO.C,Q2*%
X30155000Y-67150000D03*
X28455000Y-67150000D03*
X30155000Y-68850000D03*
X28455000Y-68850000D03*
D20*
X31210000Y-70255000D03*
X29940000Y-70255000D03*
X28670000Y-70255000D03*
X27400000Y-70255000D03*
D21*
X31210000Y-64450000D03*
X29940000Y-64450000D03*
X28670000Y-64450000D03*
X27400000Y-64450000D03*
%TD*%
D30*
%TO.C,L1*%
X21825000Y-44770000D03*
X27275000Y-44770000D03*
%TD*%
D31*
%TO.C,C21*%
X37100000Y-57670000D03*
X38650000Y-57670000D03*
%TD*%
D32*
%TO.C,C31*%
X46840000Y-47397500D03*
X46840000Y-41157500D03*
%TD*%
D26*
%TO.C,C40*%
X69340000Y-65627500D03*
X69340000Y-63552500D03*
%TD*%
D12*
%TO.C,C6*%
X30345000Y-45482500D03*
X30345000Y-47557500D03*
%TD*%
D33*
%TO.C,D6*%
X19150000Y-52745000D03*
X19150000Y-55545000D03*
%TD*%
D17*
%TO.C,C34*%
X66530000Y-45545000D03*
X66530000Y-47095000D03*
%TD*%
%TO.C,C36*%
X47200000Y-50025000D03*
X47200000Y-51575000D03*
%TD*%
%TO.C,C5*%
X28800000Y-53170000D03*
X28800000Y-54720000D03*
%TD*%
D16*
%TO.C,R4*%
X30525000Y-54895000D03*
X30525000Y-53070000D03*
%TD*%
D12*
%TO.C,C15*%
X64820000Y-68112500D03*
X64820000Y-70187500D03*
%TD*%
D17*
%TO.C,C43*%
X64920000Y-45595000D03*
X64920000Y-47145000D03*
%TD*%
D25*
%TO.C,R10*%
X64540000Y-41587500D03*
X64540000Y-43412500D03*
%TD*%
D26*
%TO.C,C1*%
X19175000Y-50732500D03*
X19175000Y-48657500D03*
%TD*%
D34*
%TO.C,R2*%
X21881250Y-40145000D03*
X23706250Y-40145000D03*
%TD*%
D35*
%TO.C,C30*%
X40602500Y-46202500D03*
X38877500Y-46202500D03*
%TD*%
D36*
%TO.C,D5*%
X52595000Y-43250000D03*
X52595000Y-45000000D03*
%TD*%
D34*
%TO.C,R1*%
X21267500Y-55357500D03*
X23092500Y-55357500D03*
%TD*%
D37*
%TO.C,L2*%
X34650000Y-70180000D03*
X49350000Y-70180000D03*
%TD*%
D38*
%TO.C,D13*%
X33990000Y-45427500D03*
X33990000Y-41427500D03*
%TD*%
D39*
%TO.C,R11*%
X52720000Y-64030000D03*
X55820000Y-64030000D03*
%TD*%
D25*
%TO.C,R15*%
X50520000Y-43225000D03*
X50520000Y-45050000D03*
%TD*%
D31*
%TO.C,C4*%
X25543750Y-40145000D03*
X27093750Y-40145000D03*
%TD*%
D26*
%TO.C,C19*%
X66950000Y-65587500D03*
X66950000Y-63512500D03*
%TD*%
D40*
%TO.C,C28*%
X53482500Y-51865000D03*
X53482500Y-50140000D03*
%TD*%
D34*
%TO.C,R12*%
X50047500Y-59620000D03*
X51872500Y-59620000D03*
%TD*%
%TO.C,R13*%
X49997500Y-57730000D03*
X51822500Y-57730000D03*
%TD*%
D17*
%TO.C,C35*%
X53400000Y-46805000D03*
X53400000Y-48355000D03*
%TD*%
D41*
%TO.C,U7*%
X49272500Y-49780000D03*
X49272500Y-50730000D03*
X49272500Y-51680000D03*
X51547500Y-51680000D03*
X51547500Y-49780000D03*
%TD*%
D12*
%TO.C,C26*%
X66960000Y-68072500D03*
X66960000Y-70147500D03*
%TD*%
D42*
%TO.C,U2*%
X23625000Y-50795000D03*
X23625000Y-52345000D03*
X24825000Y-50795000D03*
X24825000Y-52345000D03*
D43*
X21575000Y-49665000D03*
X21575000Y-50935000D03*
X21575000Y-52205000D03*
X21575000Y-53475000D03*
X26875000Y-53475000D03*
X26875000Y-52205000D03*
X26875000Y-50935000D03*
X26875000Y-49665000D03*
%TD*%
G36*
X62766624Y-62599537D02*
G01*
X62833450Y-62619936D01*
X62843628Y-62627401D01*
X63574327Y-63222784D01*
X63613865Y-63280391D01*
X63620000Y-63318913D01*
X63620000Y-65010000D01*
X64669997Y-65619999D01*
X64669996Y-65619999D01*
X74076260Y-65639740D01*
X74143258Y-65659565D01*
X74188902Y-65712465D01*
X74200000Y-65763740D01*
X74200000Y-67546359D01*
X74180315Y-67613398D01*
X74127511Y-67659153D01*
X74076359Y-67670358D01*
X63904950Y-67699840D01*
X63837854Y-67680350D01*
X63812971Y-67659398D01*
X62710000Y-66450000D01*
X62710002Y-66450000D01*
X56353883Y-66410764D01*
X56286966Y-66390666D01*
X56241538Y-66337580D01*
X56230650Y-66286115D01*
X56249713Y-62654676D01*
X56269749Y-62587741D01*
X56322792Y-62542264D01*
X56375034Y-62531334D01*
X62766624Y-62599537D01*
G37*
M02*
