%TF.GenerationSoftware,KiCad,Pcbnew,9.0.5*%
%TF.CreationDate,2026-05-18T12:14:24+08:00*%
%TF.ProjectId,__buck,70a76275-636b-42e6-9b69-6361645f7063,rev?*%
%TF.SameCoordinates,Original*%
%TF.FileFunction,Legend,Top*%
%TF.FilePolarity,Positive*%
%FSLAX46Y46*%
G04 Gerber Fmt 4.6, Leading zero omitted, Abs format (unit mm)*
G04 Created by KiCad (PCBNEW 9.0.5) date 2026-05-18 12:14:24*
%MOMM*%
%LPD*%
G01*
G04 APERTURE LIST*
%ADD10C,0.300000*%
%ADD11C,0.200000*%
%ADD12C,0.150000*%
%ADD13C,0.120000*%
G04 APERTURE END LIST*
D10*
G36*
X70591653Y-41879400D02*
G01*
X69605939Y-41879400D01*
X69605939Y-41607971D01*
X70591653Y-41607971D01*
X70591653Y-41879400D01*
G37*
G36*
X72805939Y-41879400D02*
G01*
X71820225Y-41879400D01*
X71820225Y-41607971D01*
X72805939Y-41607971D01*
X72805939Y-41879400D01*
G37*
G36*
X73555785Y-43414613D02*
G01*
X68856095Y-43414613D01*
X68856095Y-42930503D01*
X69022762Y-42930503D01*
X69023475Y-42989026D01*
X69046530Y-43042822D01*
X69088417Y-43083699D01*
X69142757Y-43105434D01*
X69201280Y-43104721D01*
X69229313Y-43095843D01*
X69729313Y-42881557D01*
X69752150Y-42868989D01*
X69753560Y-42868406D01*
X69754269Y-42867823D01*
X69755076Y-42867380D01*
X69756145Y-42866284D01*
X69776291Y-42849751D01*
X69948796Y-42677246D01*
X69948796Y-43100828D01*
X69951678Y-43130092D01*
X69974076Y-43184164D01*
X70015460Y-43225548D01*
X70069532Y-43247946D01*
X70128060Y-43247946D01*
X70182132Y-43225548D01*
X70223516Y-43184164D01*
X70245914Y-43130092D01*
X70248796Y-43100828D01*
X70248796Y-42677245D01*
X70421302Y-42849751D01*
X70441447Y-42866284D01*
X70442517Y-42867380D01*
X70443323Y-42867823D01*
X70444033Y-42868406D01*
X70445442Y-42868989D01*
X70468280Y-42881557D01*
X70968280Y-43095843D01*
X70996313Y-43104721D01*
X71054836Y-43105434D01*
X71109176Y-43083699D01*
X71151063Y-43042822D01*
X71174119Y-42989026D01*
X71174832Y-42930503D01*
X71237048Y-42930503D01*
X71237761Y-42989026D01*
X71260816Y-43042822D01*
X71302703Y-43083699D01*
X71357043Y-43105434D01*
X71415566Y-43104721D01*
X71443599Y-43095843D01*
X71943599Y-42881557D01*
X71966436Y-42868989D01*
X71967846Y-42868406D01*
X71968555Y-42867823D01*
X71969362Y-42867380D01*
X71970431Y-42866284D01*
X71990577Y-42849751D01*
X72163082Y-42677246D01*
X72163082Y-43100828D01*
X72165964Y-43130092D01*
X72188362Y-43184164D01*
X72229746Y-43225548D01*
X72283818Y-43247946D01*
X72342346Y-43247946D01*
X72396418Y-43225548D01*
X72437802Y-43184164D01*
X72460200Y-43130092D01*
X72463082Y-43100828D01*
X72463082Y-42677245D01*
X72635588Y-42849751D01*
X72655733Y-42866284D01*
X72656803Y-42867380D01*
X72657609Y-42867823D01*
X72658319Y-42868406D01*
X72659728Y-42868989D01*
X72682566Y-42881557D01*
X73182566Y-43095843D01*
X73210599Y-43104721D01*
X73269122Y-43105434D01*
X73323462Y-43083699D01*
X73365349Y-43042822D01*
X73388405Y-42989026D01*
X73389118Y-42930503D01*
X73367382Y-42876163D01*
X73326505Y-42834276D01*
X73300742Y-42820099D01*
X72827292Y-42617191D01*
X72746643Y-42536542D01*
X73170225Y-42536542D01*
X73199489Y-42533660D01*
X73253561Y-42511262D01*
X73294945Y-42469878D01*
X73317343Y-42415806D01*
X73317343Y-42357278D01*
X73294945Y-42303206D01*
X73253561Y-42261822D01*
X73199489Y-42239424D01*
X73170225Y-42236542D01*
X72463082Y-42236542D01*
X72463082Y-42179400D01*
X72955939Y-42179400D01*
X72985203Y-42176518D01*
X73039275Y-42154120D01*
X73080659Y-42112736D01*
X73103057Y-42058664D01*
X73103057Y-42000136D01*
X73100385Y-41993685D01*
X73103057Y-41987235D01*
X73105939Y-41957971D01*
X73105939Y-41457971D01*
X73103057Y-41428707D01*
X73080659Y-41374635D01*
X73039275Y-41333251D01*
X72985203Y-41310853D01*
X72955939Y-41307971D01*
X71670225Y-41307971D01*
X71640961Y-41310853D01*
X71586889Y-41333251D01*
X71545505Y-41374635D01*
X71523107Y-41428707D01*
X71520225Y-41457971D01*
X71520225Y-41957971D01*
X71523107Y-41987235D01*
X71525778Y-41993685D01*
X71523107Y-42000136D01*
X71523107Y-42058664D01*
X71545505Y-42112736D01*
X71586889Y-42154120D01*
X71640961Y-42176518D01*
X71670225Y-42179400D01*
X72163082Y-42179400D01*
X72163082Y-42236542D01*
X71455939Y-42236542D01*
X71426675Y-42239424D01*
X71372603Y-42261822D01*
X71331219Y-42303206D01*
X71308821Y-42357278D01*
X71308821Y-42415806D01*
X71331219Y-42469878D01*
X71372603Y-42511262D01*
X71426675Y-42533660D01*
X71455939Y-42536542D01*
X71879522Y-42536542D01*
X71798871Y-42617192D01*
X71325423Y-42820099D01*
X71299660Y-42834276D01*
X71258783Y-42876163D01*
X71237048Y-42930503D01*
X71174832Y-42930503D01*
X71153096Y-42876163D01*
X71112219Y-42834276D01*
X71086456Y-42820099D01*
X70613006Y-42617191D01*
X70532357Y-42536542D01*
X70955939Y-42536542D01*
X70985203Y-42533660D01*
X71039275Y-42511262D01*
X71080659Y-42469878D01*
X71103057Y-42415806D01*
X71103057Y-42357278D01*
X71080659Y-42303206D01*
X71039275Y-42261822D01*
X70985203Y-42239424D01*
X70955939Y-42236542D01*
X70248796Y-42236542D01*
X70248796Y-42179400D01*
X70741653Y-42179400D01*
X70770917Y-42176518D01*
X70824989Y-42154120D01*
X70866373Y-42112736D01*
X70888771Y-42058664D01*
X70888771Y-42000136D01*
X70886099Y-41993685D01*
X70888771Y-41987235D01*
X70891653Y-41957971D01*
X70891653Y-41457971D01*
X70888771Y-41428707D01*
X70866373Y-41374635D01*
X70824989Y-41333251D01*
X70770917Y-41310853D01*
X70741653Y-41307971D01*
X69455939Y-41307971D01*
X69426675Y-41310853D01*
X69372603Y-41333251D01*
X69331219Y-41374635D01*
X69308821Y-41428707D01*
X69305939Y-41457971D01*
X69305939Y-41957971D01*
X69308821Y-41987235D01*
X69311492Y-41993685D01*
X69308821Y-42000136D01*
X69308821Y-42058664D01*
X69331219Y-42112736D01*
X69372603Y-42154120D01*
X69426675Y-42176518D01*
X69455939Y-42179400D01*
X69948796Y-42179400D01*
X69948796Y-42236542D01*
X69241653Y-42236542D01*
X69212389Y-42239424D01*
X69158317Y-42261822D01*
X69116933Y-42303206D01*
X69094535Y-42357278D01*
X69094535Y-42415806D01*
X69116933Y-42469878D01*
X69158317Y-42511262D01*
X69212389Y-42533660D01*
X69241653Y-42536542D01*
X69665236Y-42536542D01*
X69584585Y-42617192D01*
X69111137Y-42820099D01*
X69085374Y-42834276D01*
X69044497Y-42876163D01*
X69022762Y-42930503D01*
X68856095Y-42930503D01*
X68856095Y-41141304D01*
X73555785Y-41141304D01*
X73555785Y-43414613D01*
G37*
D11*
X65036816Y-39088647D02*
X65655863Y-39088647D01*
X65036816Y-38660076D02*
X65655863Y-38660076D01*
X65132054Y-38421980D02*
X65179673Y-38564838D01*
X65132054Y-39279123D02*
X65560625Y-39469600D01*
X65274911Y-38945790D02*
X65132054Y-39326742D01*
X65370149Y-38660076D02*
X65084435Y-38898171D01*
X65370149Y-38374361D02*
X65370149Y-38945790D01*
X65370149Y-38707695D02*
X65608244Y-38850552D01*
X65560625Y-38421980D02*
X65513006Y-38564838D01*
X65798720Y-38660076D02*
X66370149Y-38660076D01*
X65846339Y-38517219D02*
X65655863Y-38945790D01*
X65893958Y-38421980D02*
X65655863Y-38898171D01*
X65513006Y-39088647D02*
X65465387Y-39326742D01*
X65465387Y-39326742D02*
X65322530Y-39421980D01*
X65322530Y-39421980D02*
X65084435Y-39517219D01*
X65798720Y-38660076D02*
X66036816Y-39183885D01*
X66036816Y-39183885D02*
X66227292Y-39421980D01*
X66227292Y-39421980D02*
X66417768Y-39469600D01*
X66227292Y-38660076D02*
X66084435Y-39183885D01*
X66084435Y-39183885D02*
X65893958Y-39374361D01*
X65893958Y-39374361D02*
X65655863Y-39469600D01*
X66513006Y-38660076D02*
X66893958Y-38660076D01*
X66560625Y-39517219D02*
X66703482Y-39517219D01*
X66751101Y-38374361D02*
X66751101Y-39517219D01*
X66893958Y-38945790D02*
X66513006Y-39041028D01*
X66941577Y-39517219D02*
X67751101Y-39517219D01*
X66989196Y-38564838D02*
X66989196Y-38707695D01*
X67036815Y-39136266D02*
X67703482Y-39136266D01*
X67132053Y-38898171D02*
X66989196Y-38945790D01*
X67227291Y-38564838D02*
X67179672Y-38850552D01*
X67322529Y-38374361D02*
X67322529Y-38564838D01*
X67322529Y-39136266D02*
X67322529Y-39469600D01*
X66989196Y-38564838D02*
X67751101Y-38564838D01*
X67751101Y-38564838D02*
X67751101Y-38707695D01*
X67465387Y-38564838D02*
X67465387Y-38898171D01*
X67465387Y-38898171D02*
X67703482Y-38898171D01*
X67703482Y-38898171D02*
X67751101Y-38802933D01*
X68132053Y-39517219D02*
X68132053Y-38517219D01*
X68132053Y-38898171D02*
X68227291Y-38850552D01*
X68227291Y-38850552D02*
X68417767Y-38850552D01*
X68417767Y-38850552D02*
X68513005Y-38898171D01*
X68513005Y-38898171D02*
X68560624Y-38945790D01*
X68560624Y-38945790D02*
X68608243Y-39041028D01*
X68608243Y-39041028D02*
X68608243Y-39326742D01*
X68608243Y-39326742D02*
X68560624Y-39421980D01*
X68560624Y-39421980D02*
X68513005Y-39469600D01*
X68513005Y-39469600D02*
X68417767Y-39517219D01*
X68417767Y-39517219D02*
X68227291Y-39517219D01*
X68227291Y-39517219D02*
X68132053Y-39469600D01*
X69465386Y-38850552D02*
X69465386Y-39517219D01*
X69036815Y-38850552D02*
X69036815Y-39374361D01*
X69036815Y-39374361D02*
X69084434Y-39469600D01*
X69084434Y-39469600D02*
X69179672Y-39517219D01*
X69179672Y-39517219D02*
X69322529Y-39517219D01*
X69322529Y-39517219D02*
X69417767Y-39469600D01*
X69417767Y-39469600D02*
X69465386Y-39421980D01*
X70370148Y-39469600D02*
X70274910Y-39517219D01*
X70274910Y-39517219D02*
X70084434Y-39517219D01*
X70084434Y-39517219D02*
X69989196Y-39469600D01*
X69989196Y-39469600D02*
X69941577Y-39421980D01*
X69941577Y-39421980D02*
X69893958Y-39326742D01*
X69893958Y-39326742D02*
X69893958Y-39041028D01*
X69893958Y-39041028D02*
X69941577Y-38945790D01*
X69941577Y-38945790D02*
X69989196Y-38898171D01*
X69989196Y-38898171D02*
X70084434Y-38850552D01*
X70084434Y-38850552D02*
X70274910Y-38850552D01*
X70274910Y-38850552D02*
X70370148Y-38898171D01*
X70798720Y-39517219D02*
X70798720Y-38517219D01*
X70893958Y-39136266D02*
X71179672Y-39517219D01*
X71179672Y-38850552D02*
X70798720Y-39231504D01*
X71370149Y-39612457D02*
X72132053Y-39612457D01*
X72227292Y-38517219D02*
X72560625Y-39517219D01*
X72560625Y-39517219D02*
X72893958Y-38517219D01*
X73179673Y-38612457D02*
X73227292Y-38564838D01*
X73227292Y-38564838D02*
X73322530Y-38517219D01*
X73322530Y-38517219D02*
X73560625Y-38517219D01*
X73560625Y-38517219D02*
X73655863Y-38564838D01*
X73655863Y-38564838D02*
X73703482Y-38612457D01*
X73703482Y-38612457D02*
X73751101Y-38707695D01*
X73751101Y-38707695D02*
X73751101Y-38802933D01*
X73751101Y-38802933D02*
X73703482Y-38945790D01*
X73703482Y-38945790D02*
X73132054Y-39517219D01*
X73132054Y-39517219D02*
X73751101Y-39517219D01*
D12*
X19511905Y-68704819D02*
X19511905Y-67704819D01*
X19511905Y-67704819D02*
X19750000Y-67704819D01*
X19750000Y-67704819D02*
X19892857Y-67752438D01*
X19892857Y-67752438D02*
X19988095Y-67847676D01*
X19988095Y-67847676D02*
X20035714Y-67942914D01*
X20035714Y-67942914D02*
X20083333Y-68133390D01*
X20083333Y-68133390D02*
X20083333Y-68276247D01*
X20083333Y-68276247D02*
X20035714Y-68466723D01*
X20035714Y-68466723D02*
X19988095Y-68561961D01*
X19988095Y-68561961D02*
X19892857Y-68657200D01*
X19892857Y-68657200D02*
X19750000Y-68704819D01*
X19750000Y-68704819D02*
X19511905Y-68704819D01*
X21035714Y-68704819D02*
X20464286Y-68704819D01*
X20750000Y-68704819D02*
X20750000Y-67704819D01*
X20750000Y-67704819D02*
X20654762Y-67847676D01*
X20654762Y-67847676D02*
X20559524Y-67942914D01*
X20559524Y-67942914D02*
X20464286Y-67990533D01*
X57433333Y-50654819D02*
X57100000Y-50178628D01*
X56861905Y-50654819D02*
X56861905Y-49654819D01*
X56861905Y-49654819D02*
X57242857Y-49654819D01*
X57242857Y-49654819D02*
X57338095Y-49702438D01*
X57338095Y-49702438D02*
X57385714Y-49750057D01*
X57385714Y-49750057D02*
X57433333Y-49845295D01*
X57433333Y-49845295D02*
X57433333Y-49988152D01*
X57433333Y-49988152D02*
X57385714Y-50083390D01*
X57385714Y-50083390D02*
X57338095Y-50131009D01*
X57338095Y-50131009D02*
X57242857Y-50178628D01*
X57242857Y-50178628D02*
X56861905Y-50178628D01*
X57909524Y-50654819D02*
X58100000Y-50654819D01*
X58100000Y-50654819D02*
X58195238Y-50607200D01*
X58195238Y-50607200D02*
X58242857Y-50559580D01*
X58242857Y-50559580D02*
X58338095Y-50416723D01*
X58338095Y-50416723D02*
X58385714Y-50226247D01*
X58385714Y-50226247D02*
X58385714Y-49845295D01*
X58385714Y-49845295D02*
X58338095Y-49750057D01*
X58338095Y-49750057D02*
X58290476Y-49702438D01*
X58290476Y-49702438D02*
X58195238Y-49654819D01*
X58195238Y-49654819D02*
X58004762Y-49654819D01*
X58004762Y-49654819D02*
X57909524Y-49702438D01*
X57909524Y-49702438D02*
X57861905Y-49750057D01*
X57861905Y-49750057D02*
X57814286Y-49845295D01*
X57814286Y-49845295D02*
X57814286Y-50083390D01*
X57814286Y-50083390D02*
X57861905Y-50178628D01*
X57861905Y-50178628D02*
X57909524Y-50226247D01*
X57909524Y-50226247D02*
X58004762Y-50273866D01*
X58004762Y-50273866D02*
X58195238Y-50273866D01*
X58195238Y-50273866D02*
X58290476Y-50226247D01*
X58290476Y-50226247D02*
X58338095Y-50178628D01*
X58338095Y-50178628D02*
X58385714Y-50083390D01*
X69759580Y-73242857D02*
X69807200Y-73290476D01*
X69807200Y-73290476D02*
X69854819Y-73433333D01*
X69854819Y-73433333D02*
X69854819Y-73528571D01*
X69854819Y-73528571D02*
X69807200Y-73671428D01*
X69807200Y-73671428D02*
X69711961Y-73766666D01*
X69711961Y-73766666D02*
X69616723Y-73814285D01*
X69616723Y-73814285D02*
X69426247Y-73861904D01*
X69426247Y-73861904D02*
X69283390Y-73861904D01*
X69283390Y-73861904D02*
X69092914Y-73814285D01*
X69092914Y-73814285D02*
X68997676Y-73766666D01*
X68997676Y-73766666D02*
X68902438Y-73671428D01*
X68902438Y-73671428D02*
X68854819Y-73528571D01*
X68854819Y-73528571D02*
X68854819Y-73433333D01*
X68854819Y-73433333D02*
X68902438Y-73290476D01*
X68902438Y-73290476D02*
X68950057Y-73242857D01*
X68950057Y-72861904D02*
X68902438Y-72814285D01*
X68902438Y-72814285D02*
X68854819Y-72719047D01*
X68854819Y-72719047D02*
X68854819Y-72480952D01*
X68854819Y-72480952D02*
X68902438Y-72385714D01*
X68902438Y-72385714D02*
X68950057Y-72338095D01*
X68950057Y-72338095D02*
X69045295Y-72290476D01*
X69045295Y-72290476D02*
X69140533Y-72290476D01*
X69140533Y-72290476D02*
X69283390Y-72338095D01*
X69283390Y-72338095D02*
X69854819Y-72909523D01*
X69854819Y-72909523D02*
X69854819Y-72290476D01*
X68854819Y-71957142D02*
X68854819Y-71290476D01*
X68854819Y-71290476D02*
X69854819Y-71719047D01*
X60016667Y-43777200D02*
X60159524Y-43824819D01*
X60159524Y-43824819D02*
X60397619Y-43824819D01*
X60397619Y-43824819D02*
X60492857Y-43777200D01*
X60492857Y-43777200D02*
X60540476Y-43729580D01*
X60540476Y-43729580D02*
X60588095Y-43634342D01*
X60588095Y-43634342D02*
X60588095Y-43539104D01*
X60588095Y-43539104D02*
X60540476Y-43443866D01*
X60540476Y-43443866D02*
X60492857Y-43396247D01*
X60492857Y-43396247D02*
X60397619Y-43348628D01*
X60397619Y-43348628D02*
X60207143Y-43301009D01*
X60207143Y-43301009D02*
X60111905Y-43253390D01*
X60111905Y-43253390D02*
X60064286Y-43205771D01*
X60064286Y-43205771D02*
X60016667Y-43110533D01*
X60016667Y-43110533D02*
X60016667Y-43015295D01*
X60016667Y-43015295D02*
X60064286Y-42920057D01*
X60064286Y-42920057D02*
X60111905Y-42872438D01*
X60111905Y-42872438D02*
X60207143Y-42824819D01*
X60207143Y-42824819D02*
X60445238Y-42824819D01*
X60445238Y-42824819D02*
X60588095Y-42872438D01*
X60921429Y-42824819D02*
X61159524Y-43824819D01*
X61159524Y-43824819D02*
X61350000Y-43110533D01*
X61350000Y-43110533D02*
X61540476Y-43824819D01*
X61540476Y-43824819D02*
X61778572Y-42824819D01*
X62683333Y-43824819D02*
X62111905Y-43824819D01*
X62397619Y-43824819D02*
X62397619Y-42824819D01*
X62397619Y-42824819D02*
X62302381Y-42967676D01*
X62302381Y-42967676D02*
X62207143Y-43062914D01*
X62207143Y-43062914D02*
X62111905Y-43110533D01*
X17583333Y-76609580D02*
X17535714Y-76657200D01*
X17535714Y-76657200D02*
X17392857Y-76704819D01*
X17392857Y-76704819D02*
X17297619Y-76704819D01*
X17297619Y-76704819D02*
X17154762Y-76657200D01*
X17154762Y-76657200D02*
X17059524Y-76561961D01*
X17059524Y-76561961D02*
X17011905Y-76466723D01*
X17011905Y-76466723D02*
X16964286Y-76276247D01*
X16964286Y-76276247D02*
X16964286Y-76133390D01*
X16964286Y-76133390D02*
X17011905Y-75942914D01*
X17011905Y-75942914D02*
X17059524Y-75847676D01*
X17059524Y-75847676D02*
X17154762Y-75752438D01*
X17154762Y-75752438D02*
X17297619Y-75704819D01*
X17297619Y-75704819D02*
X17392857Y-75704819D01*
X17392857Y-75704819D02*
X17535714Y-75752438D01*
X17535714Y-75752438D02*
X17583333Y-75800057D01*
X17964286Y-75800057D02*
X18011905Y-75752438D01*
X18011905Y-75752438D02*
X18107143Y-75704819D01*
X18107143Y-75704819D02*
X18345238Y-75704819D01*
X18345238Y-75704819D02*
X18440476Y-75752438D01*
X18440476Y-75752438D02*
X18488095Y-75800057D01*
X18488095Y-75800057D02*
X18535714Y-75895295D01*
X18535714Y-75895295D02*
X18535714Y-75990533D01*
X18535714Y-75990533D02*
X18488095Y-76133390D01*
X18488095Y-76133390D02*
X17916667Y-76704819D01*
X17916667Y-76704819D02*
X18535714Y-76704819D01*
X58942142Y-72389580D02*
X58894523Y-72437200D01*
X58894523Y-72437200D02*
X58751666Y-72484819D01*
X58751666Y-72484819D02*
X58656428Y-72484819D01*
X58656428Y-72484819D02*
X58513571Y-72437200D01*
X58513571Y-72437200D02*
X58418333Y-72341961D01*
X58418333Y-72341961D02*
X58370714Y-72246723D01*
X58370714Y-72246723D02*
X58323095Y-72056247D01*
X58323095Y-72056247D02*
X58323095Y-71913390D01*
X58323095Y-71913390D02*
X58370714Y-71722914D01*
X58370714Y-71722914D02*
X58418333Y-71627676D01*
X58418333Y-71627676D02*
X58513571Y-71532438D01*
X58513571Y-71532438D02*
X58656428Y-71484819D01*
X58656428Y-71484819D02*
X58751666Y-71484819D01*
X58751666Y-71484819D02*
X58894523Y-71532438D01*
X58894523Y-71532438D02*
X58942142Y-71580057D01*
X59894523Y-72484819D02*
X59323095Y-72484819D01*
X59608809Y-72484819D02*
X59608809Y-71484819D01*
X59608809Y-71484819D02*
X59513571Y-71627676D01*
X59513571Y-71627676D02*
X59418333Y-71722914D01*
X59418333Y-71722914D02*
X59323095Y-71770533D01*
X60227857Y-71484819D02*
X60846904Y-71484819D01*
X60846904Y-71484819D02*
X60513571Y-71865771D01*
X60513571Y-71865771D02*
X60656428Y-71865771D01*
X60656428Y-71865771D02*
X60751666Y-71913390D01*
X60751666Y-71913390D02*
X60799285Y-71961009D01*
X60799285Y-71961009D02*
X60846904Y-72056247D01*
X60846904Y-72056247D02*
X60846904Y-72294342D01*
X60846904Y-72294342D02*
X60799285Y-72389580D01*
X60799285Y-72389580D02*
X60751666Y-72437200D01*
X60751666Y-72437200D02*
X60656428Y-72484819D01*
X60656428Y-72484819D02*
X60370714Y-72484819D01*
X60370714Y-72484819D02*
X60275476Y-72437200D01*
X60275476Y-72437200D02*
X60227857Y-72389580D01*
X29454819Y-48166666D02*
X28978628Y-48499999D01*
X29454819Y-48738094D02*
X28454819Y-48738094D01*
X28454819Y-48738094D02*
X28454819Y-48357142D01*
X28454819Y-48357142D02*
X28502438Y-48261904D01*
X28502438Y-48261904D02*
X28550057Y-48214285D01*
X28550057Y-48214285D02*
X28645295Y-48166666D01*
X28645295Y-48166666D02*
X28788152Y-48166666D01*
X28788152Y-48166666D02*
X28883390Y-48214285D01*
X28883390Y-48214285D02*
X28931009Y-48261904D01*
X28931009Y-48261904D02*
X28978628Y-48357142D01*
X28978628Y-48357142D02*
X28978628Y-48738094D01*
X28454819Y-47833332D02*
X28454819Y-47214285D01*
X28454819Y-47214285D02*
X28835771Y-47547618D01*
X28835771Y-47547618D02*
X28835771Y-47404761D01*
X28835771Y-47404761D02*
X28883390Y-47309523D01*
X28883390Y-47309523D02*
X28931009Y-47261904D01*
X28931009Y-47261904D02*
X29026247Y-47214285D01*
X29026247Y-47214285D02*
X29264342Y-47214285D01*
X29264342Y-47214285D02*
X29359580Y-47261904D01*
X29359580Y-47261904D02*
X29407200Y-47309523D01*
X29407200Y-47309523D02*
X29454819Y-47404761D01*
X29454819Y-47404761D02*
X29454819Y-47690475D01*
X29454819Y-47690475D02*
X29407200Y-47785713D01*
X29407200Y-47785713D02*
X29359580Y-47833332D01*
X17583333Y-78859580D02*
X17535714Y-78907200D01*
X17535714Y-78907200D02*
X17392857Y-78954819D01*
X17392857Y-78954819D02*
X17297619Y-78954819D01*
X17297619Y-78954819D02*
X17154762Y-78907200D01*
X17154762Y-78907200D02*
X17059524Y-78811961D01*
X17059524Y-78811961D02*
X17011905Y-78716723D01*
X17011905Y-78716723D02*
X16964286Y-78526247D01*
X16964286Y-78526247D02*
X16964286Y-78383390D01*
X16964286Y-78383390D02*
X17011905Y-78192914D01*
X17011905Y-78192914D02*
X17059524Y-78097676D01*
X17059524Y-78097676D02*
X17154762Y-78002438D01*
X17154762Y-78002438D02*
X17297619Y-77954819D01*
X17297619Y-77954819D02*
X17392857Y-77954819D01*
X17392857Y-77954819D02*
X17535714Y-78002438D01*
X17535714Y-78002438D02*
X17583333Y-78050057D01*
X17916667Y-77954819D02*
X18583333Y-77954819D01*
X18583333Y-77954819D02*
X18154762Y-78954819D01*
X47157142Y-56559580D02*
X47109523Y-56607200D01*
X47109523Y-56607200D02*
X46966666Y-56654819D01*
X46966666Y-56654819D02*
X46871428Y-56654819D01*
X46871428Y-56654819D02*
X46728571Y-56607200D01*
X46728571Y-56607200D02*
X46633333Y-56511961D01*
X46633333Y-56511961D02*
X46585714Y-56416723D01*
X46585714Y-56416723D02*
X46538095Y-56226247D01*
X46538095Y-56226247D02*
X46538095Y-56083390D01*
X46538095Y-56083390D02*
X46585714Y-55892914D01*
X46585714Y-55892914D02*
X46633333Y-55797676D01*
X46633333Y-55797676D02*
X46728571Y-55702438D01*
X46728571Y-55702438D02*
X46871428Y-55654819D01*
X46871428Y-55654819D02*
X46966666Y-55654819D01*
X46966666Y-55654819D02*
X47109523Y-55702438D01*
X47109523Y-55702438D02*
X47157142Y-55750057D01*
X47538095Y-55750057D02*
X47585714Y-55702438D01*
X47585714Y-55702438D02*
X47680952Y-55654819D01*
X47680952Y-55654819D02*
X47919047Y-55654819D01*
X47919047Y-55654819D02*
X48014285Y-55702438D01*
X48014285Y-55702438D02*
X48061904Y-55750057D01*
X48061904Y-55750057D02*
X48109523Y-55845295D01*
X48109523Y-55845295D02*
X48109523Y-55940533D01*
X48109523Y-55940533D02*
X48061904Y-56083390D01*
X48061904Y-56083390D02*
X47490476Y-56654819D01*
X47490476Y-56654819D02*
X48109523Y-56654819D01*
X48490476Y-55750057D02*
X48538095Y-55702438D01*
X48538095Y-55702438D02*
X48633333Y-55654819D01*
X48633333Y-55654819D02*
X48871428Y-55654819D01*
X48871428Y-55654819D02*
X48966666Y-55702438D01*
X48966666Y-55702438D02*
X49014285Y-55750057D01*
X49014285Y-55750057D02*
X49061904Y-55845295D01*
X49061904Y-55845295D02*
X49061904Y-55940533D01*
X49061904Y-55940533D02*
X49014285Y-56083390D01*
X49014285Y-56083390D02*
X48442857Y-56654819D01*
X48442857Y-56654819D02*
X49061904Y-56654819D01*
X22833333Y-68359580D02*
X22785714Y-68407200D01*
X22785714Y-68407200D02*
X22642857Y-68454819D01*
X22642857Y-68454819D02*
X22547619Y-68454819D01*
X22547619Y-68454819D02*
X22404762Y-68407200D01*
X22404762Y-68407200D02*
X22309524Y-68311961D01*
X22309524Y-68311961D02*
X22261905Y-68216723D01*
X22261905Y-68216723D02*
X22214286Y-68026247D01*
X22214286Y-68026247D02*
X22214286Y-67883390D01*
X22214286Y-67883390D02*
X22261905Y-67692914D01*
X22261905Y-67692914D02*
X22309524Y-67597676D01*
X22309524Y-67597676D02*
X22404762Y-67502438D01*
X22404762Y-67502438D02*
X22547619Y-67454819D01*
X22547619Y-67454819D02*
X22642857Y-67454819D01*
X22642857Y-67454819D02*
X22785714Y-67502438D01*
X22785714Y-67502438D02*
X22833333Y-67550057D01*
X23404762Y-67883390D02*
X23309524Y-67835771D01*
X23309524Y-67835771D02*
X23261905Y-67788152D01*
X23261905Y-67788152D02*
X23214286Y-67692914D01*
X23214286Y-67692914D02*
X23214286Y-67645295D01*
X23214286Y-67645295D02*
X23261905Y-67550057D01*
X23261905Y-67550057D02*
X23309524Y-67502438D01*
X23309524Y-67502438D02*
X23404762Y-67454819D01*
X23404762Y-67454819D02*
X23595238Y-67454819D01*
X23595238Y-67454819D02*
X23690476Y-67502438D01*
X23690476Y-67502438D02*
X23738095Y-67550057D01*
X23738095Y-67550057D02*
X23785714Y-67645295D01*
X23785714Y-67645295D02*
X23785714Y-67692914D01*
X23785714Y-67692914D02*
X23738095Y-67788152D01*
X23738095Y-67788152D02*
X23690476Y-67835771D01*
X23690476Y-67835771D02*
X23595238Y-67883390D01*
X23595238Y-67883390D02*
X23404762Y-67883390D01*
X23404762Y-67883390D02*
X23309524Y-67931009D01*
X23309524Y-67931009D02*
X23261905Y-67978628D01*
X23261905Y-67978628D02*
X23214286Y-68073866D01*
X23214286Y-68073866D02*
X23214286Y-68264342D01*
X23214286Y-68264342D02*
X23261905Y-68359580D01*
X23261905Y-68359580D02*
X23309524Y-68407200D01*
X23309524Y-68407200D02*
X23404762Y-68454819D01*
X23404762Y-68454819D02*
X23595238Y-68454819D01*
X23595238Y-68454819D02*
X23690476Y-68407200D01*
X23690476Y-68407200D02*
X23738095Y-68359580D01*
X23738095Y-68359580D02*
X23785714Y-68264342D01*
X23785714Y-68264342D02*
X23785714Y-68073866D01*
X23785714Y-68073866D02*
X23738095Y-67978628D01*
X23738095Y-67978628D02*
X23690476Y-67931009D01*
X23690476Y-67931009D02*
X23595238Y-67883390D01*
X34504761Y-78402557D02*
X34409523Y-78354938D01*
X34409523Y-78354938D02*
X34314285Y-78259700D01*
X34314285Y-78259700D02*
X34171428Y-78116842D01*
X34171428Y-78116842D02*
X34076190Y-78069223D01*
X34076190Y-78069223D02*
X33980952Y-78069223D01*
X34028571Y-78307319D02*
X33933333Y-78259700D01*
X33933333Y-78259700D02*
X33838095Y-78164461D01*
X33838095Y-78164461D02*
X33790476Y-77973985D01*
X33790476Y-77973985D02*
X33790476Y-77640652D01*
X33790476Y-77640652D02*
X33838095Y-77450176D01*
X33838095Y-77450176D02*
X33933333Y-77354938D01*
X33933333Y-77354938D02*
X34028571Y-77307319D01*
X34028571Y-77307319D02*
X34219047Y-77307319D01*
X34219047Y-77307319D02*
X34314285Y-77354938D01*
X34314285Y-77354938D02*
X34409523Y-77450176D01*
X34409523Y-77450176D02*
X34457142Y-77640652D01*
X34457142Y-77640652D02*
X34457142Y-77973985D01*
X34457142Y-77973985D02*
X34409523Y-78164461D01*
X34409523Y-78164461D02*
X34314285Y-78259700D01*
X34314285Y-78259700D02*
X34219047Y-78307319D01*
X34219047Y-78307319D02*
X34028571Y-78307319D01*
X35409523Y-78307319D02*
X34838095Y-78307319D01*
X35123809Y-78307319D02*
X35123809Y-77307319D01*
X35123809Y-77307319D02*
X35028571Y-77450176D01*
X35028571Y-77450176D02*
X34933333Y-77545414D01*
X34933333Y-77545414D02*
X34838095Y-77593033D01*
X40233333Y-51654819D02*
X39757143Y-51654819D01*
X39757143Y-51654819D02*
X39757143Y-50654819D01*
X40471429Y-50654819D02*
X41090476Y-50654819D01*
X41090476Y-50654819D02*
X40757143Y-51035771D01*
X40757143Y-51035771D02*
X40900000Y-51035771D01*
X40900000Y-51035771D02*
X40995238Y-51083390D01*
X40995238Y-51083390D02*
X41042857Y-51131009D01*
X41042857Y-51131009D02*
X41090476Y-51226247D01*
X41090476Y-51226247D02*
X41090476Y-51464342D01*
X41090476Y-51464342D02*
X41042857Y-51559580D01*
X41042857Y-51559580D02*
X40995238Y-51607200D01*
X40995238Y-51607200D02*
X40900000Y-51654819D01*
X40900000Y-51654819D02*
X40614286Y-51654819D01*
X40614286Y-51654819D02*
X40519048Y-51607200D01*
X40519048Y-51607200D02*
X40471429Y-51559580D01*
X59897142Y-57309580D02*
X59849523Y-57357200D01*
X59849523Y-57357200D02*
X59706666Y-57404819D01*
X59706666Y-57404819D02*
X59611428Y-57404819D01*
X59611428Y-57404819D02*
X59468571Y-57357200D01*
X59468571Y-57357200D02*
X59373333Y-57261961D01*
X59373333Y-57261961D02*
X59325714Y-57166723D01*
X59325714Y-57166723D02*
X59278095Y-56976247D01*
X59278095Y-56976247D02*
X59278095Y-56833390D01*
X59278095Y-56833390D02*
X59325714Y-56642914D01*
X59325714Y-56642914D02*
X59373333Y-56547676D01*
X59373333Y-56547676D02*
X59468571Y-56452438D01*
X59468571Y-56452438D02*
X59611428Y-56404819D01*
X59611428Y-56404819D02*
X59706666Y-56404819D01*
X59706666Y-56404819D02*
X59849523Y-56452438D01*
X59849523Y-56452438D02*
X59897142Y-56500057D01*
X60849523Y-57404819D02*
X60278095Y-57404819D01*
X60563809Y-57404819D02*
X60563809Y-56404819D01*
X60563809Y-56404819D02*
X60468571Y-56547676D01*
X60468571Y-56547676D02*
X60373333Y-56642914D01*
X60373333Y-56642914D02*
X60278095Y-56690533D01*
X61230476Y-56500057D02*
X61278095Y-56452438D01*
X61278095Y-56452438D02*
X61373333Y-56404819D01*
X61373333Y-56404819D02*
X61611428Y-56404819D01*
X61611428Y-56404819D02*
X61706666Y-56452438D01*
X61706666Y-56452438D02*
X61754285Y-56500057D01*
X61754285Y-56500057D02*
X61801904Y-56595295D01*
X61801904Y-56595295D02*
X61801904Y-56690533D01*
X61801904Y-56690533D02*
X61754285Y-56833390D01*
X61754285Y-56833390D02*
X61182857Y-57404819D01*
X61182857Y-57404819D02*
X61801904Y-57404819D01*
X43038095Y-58054819D02*
X43038095Y-58864342D01*
X43038095Y-58864342D02*
X43085714Y-58959580D01*
X43085714Y-58959580D02*
X43133333Y-59007200D01*
X43133333Y-59007200D02*
X43228571Y-59054819D01*
X43228571Y-59054819D02*
X43419047Y-59054819D01*
X43419047Y-59054819D02*
X43514285Y-59007200D01*
X43514285Y-59007200D02*
X43561904Y-58959580D01*
X43561904Y-58959580D02*
X43609523Y-58864342D01*
X43609523Y-58864342D02*
X43609523Y-58054819D01*
X44561904Y-58054819D02*
X44085714Y-58054819D01*
X44085714Y-58054819D02*
X44038095Y-58531009D01*
X44038095Y-58531009D02*
X44085714Y-58483390D01*
X44085714Y-58483390D02*
X44180952Y-58435771D01*
X44180952Y-58435771D02*
X44419047Y-58435771D01*
X44419047Y-58435771D02*
X44514285Y-58483390D01*
X44514285Y-58483390D02*
X44561904Y-58531009D01*
X44561904Y-58531009D02*
X44609523Y-58626247D01*
X44609523Y-58626247D02*
X44609523Y-58864342D01*
X44609523Y-58864342D02*
X44561904Y-58959580D01*
X44561904Y-58959580D02*
X44514285Y-59007200D01*
X44514285Y-59007200D02*
X44419047Y-59054819D01*
X44419047Y-59054819D02*
X44180952Y-59054819D01*
X44180952Y-59054819D02*
X44085714Y-59007200D01*
X44085714Y-59007200D02*
X44038095Y-58959580D01*
X52357142Y-53654819D02*
X52023809Y-53178628D01*
X51785714Y-53654819D02*
X51785714Y-52654819D01*
X51785714Y-52654819D02*
X52166666Y-52654819D01*
X52166666Y-52654819D02*
X52261904Y-52702438D01*
X52261904Y-52702438D02*
X52309523Y-52750057D01*
X52309523Y-52750057D02*
X52357142Y-52845295D01*
X52357142Y-52845295D02*
X52357142Y-52988152D01*
X52357142Y-52988152D02*
X52309523Y-53083390D01*
X52309523Y-53083390D02*
X52261904Y-53131009D01*
X52261904Y-53131009D02*
X52166666Y-53178628D01*
X52166666Y-53178628D02*
X51785714Y-53178628D01*
X53309523Y-53654819D02*
X52738095Y-53654819D01*
X53023809Y-53654819D02*
X53023809Y-52654819D01*
X53023809Y-52654819D02*
X52928571Y-52797676D01*
X52928571Y-52797676D02*
X52833333Y-52892914D01*
X52833333Y-52892914D02*
X52738095Y-52940533D01*
X54166666Y-52988152D02*
X54166666Y-53654819D01*
X53928571Y-52607200D02*
X53690476Y-53321485D01*
X53690476Y-53321485D02*
X54309523Y-53321485D01*
X53957142Y-69359580D02*
X53909523Y-69407200D01*
X53909523Y-69407200D02*
X53766666Y-69454819D01*
X53766666Y-69454819D02*
X53671428Y-69454819D01*
X53671428Y-69454819D02*
X53528571Y-69407200D01*
X53528571Y-69407200D02*
X53433333Y-69311961D01*
X53433333Y-69311961D02*
X53385714Y-69216723D01*
X53385714Y-69216723D02*
X53338095Y-69026247D01*
X53338095Y-69026247D02*
X53338095Y-68883390D01*
X53338095Y-68883390D02*
X53385714Y-68692914D01*
X53385714Y-68692914D02*
X53433333Y-68597676D01*
X53433333Y-68597676D02*
X53528571Y-68502438D01*
X53528571Y-68502438D02*
X53671428Y-68454819D01*
X53671428Y-68454819D02*
X53766666Y-68454819D01*
X53766666Y-68454819D02*
X53909523Y-68502438D01*
X53909523Y-68502438D02*
X53957142Y-68550057D01*
X54909523Y-69454819D02*
X54338095Y-69454819D01*
X54623809Y-69454819D02*
X54623809Y-68454819D01*
X54623809Y-68454819D02*
X54528571Y-68597676D01*
X54528571Y-68597676D02*
X54433333Y-68692914D01*
X54433333Y-68692914D02*
X54338095Y-68740533D01*
X55480952Y-68883390D02*
X55385714Y-68835771D01*
X55385714Y-68835771D02*
X55338095Y-68788152D01*
X55338095Y-68788152D02*
X55290476Y-68692914D01*
X55290476Y-68692914D02*
X55290476Y-68645295D01*
X55290476Y-68645295D02*
X55338095Y-68550057D01*
X55338095Y-68550057D02*
X55385714Y-68502438D01*
X55385714Y-68502438D02*
X55480952Y-68454819D01*
X55480952Y-68454819D02*
X55671428Y-68454819D01*
X55671428Y-68454819D02*
X55766666Y-68502438D01*
X55766666Y-68502438D02*
X55814285Y-68550057D01*
X55814285Y-68550057D02*
X55861904Y-68645295D01*
X55861904Y-68645295D02*
X55861904Y-68692914D01*
X55861904Y-68692914D02*
X55814285Y-68788152D01*
X55814285Y-68788152D02*
X55766666Y-68835771D01*
X55766666Y-68835771D02*
X55671428Y-68883390D01*
X55671428Y-68883390D02*
X55480952Y-68883390D01*
X55480952Y-68883390D02*
X55385714Y-68931009D01*
X55385714Y-68931009D02*
X55338095Y-68978628D01*
X55338095Y-68978628D02*
X55290476Y-69073866D01*
X55290476Y-69073866D02*
X55290476Y-69264342D01*
X55290476Y-69264342D02*
X55338095Y-69359580D01*
X55338095Y-69359580D02*
X55385714Y-69407200D01*
X55385714Y-69407200D02*
X55480952Y-69454819D01*
X55480952Y-69454819D02*
X55671428Y-69454819D01*
X55671428Y-69454819D02*
X55766666Y-69407200D01*
X55766666Y-69407200D02*
X55814285Y-69359580D01*
X55814285Y-69359580D02*
X55861904Y-69264342D01*
X55861904Y-69264342D02*
X55861904Y-69073866D01*
X55861904Y-69073866D02*
X55814285Y-68978628D01*
X55814285Y-68978628D02*
X55766666Y-68931009D01*
X55766666Y-68931009D02*
X55671428Y-68883390D01*
X32633333Y-51359580D02*
X32585714Y-51407200D01*
X32585714Y-51407200D02*
X32442857Y-51454819D01*
X32442857Y-51454819D02*
X32347619Y-51454819D01*
X32347619Y-51454819D02*
X32204762Y-51407200D01*
X32204762Y-51407200D02*
X32109524Y-51311961D01*
X32109524Y-51311961D02*
X32061905Y-51216723D01*
X32061905Y-51216723D02*
X32014286Y-51026247D01*
X32014286Y-51026247D02*
X32014286Y-50883390D01*
X32014286Y-50883390D02*
X32061905Y-50692914D01*
X32061905Y-50692914D02*
X32109524Y-50597676D01*
X32109524Y-50597676D02*
X32204762Y-50502438D01*
X32204762Y-50502438D02*
X32347619Y-50454819D01*
X32347619Y-50454819D02*
X32442857Y-50454819D01*
X32442857Y-50454819D02*
X32585714Y-50502438D01*
X32585714Y-50502438D02*
X32633333Y-50550057D01*
X32966667Y-50454819D02*
X33585714Y-50454819D01*
X33585714Y-50454819D02*
X33252381Y-50835771D01*
X33252381Y-50835771D02*
X33395238Y-50835771D01*
X33395238Y-50835771D02*
X33490476Y-50883390D01*
X33490476Y-50883390D02*
X33538095Y-50931009D01*
X33538095Y-50931009D02*
X33585714Y-51026247D01*
X33585714Y-51026247D02*
X33585714Y-51264342D01*
X33585714Y-51264342D02*
X33538095Y-51359580D01*
X33538095Y-51359580D02*
X33490476Y-51407200D01*
X33490476Y-51407200D02*
X33395238Y-51454819D01*
X33395238Y-51454819D02*
X33109524Y-51454819D01*
X33109524Y-51454819D02*
X33014286Y-51407200D01*
X33014286Y-51407200D02*
X32966667Y-51359580D01*
X39153095Y-42092319D02*
X39153095Y-42901842D01*
X39153095Y-42901842D02*
X39200714Y-42997080D01*
X39200714Y-42997080D02*
X39248333Y-43044700D01*
X39248333Y-43044700D02*
X39343571Y-43092319D01*
X39343571Y-43092319D02*
X39534047Y-43092319D01*
X39534047Y-43092319D02*
X39629285Y-43044700D01*
X39629285Y-43044700D02*
X39676904Y-42997080D01*
X39676904Y-42997080D02*
X39724523Y-42901842D01*
X39724523Y-42901842D02*
X39724523Y-42092319D01*
X40343571Y-42520890D02*
X40248333Y-42473271D01*
X40248333Y-42473271D02*
X40200714Y-42425652D01*
X40200714Y-42425652D02*
X40153095Y-42330414D01*
X40153095Y-42330414D02*
X40153095Y-42282795D01*
X40153095Y-42282795D02*
X40200714Y-42187557D01*
X40200714Y-42187557D02*
X40248333Y-42139938D01*
X40248333Y-42139938D02*
X40343571Y-42092319D01*
X40343571Y-42092319D02*
X40534047Y-42092319D01*
X40534047Y-42092319D02*
X40629285Y-42139938D01*
X40629285Y-42139938D02*
X40676904Y-42187557D01*
X40676904Y-42187557D02*
X40724523Y-42282795D01*
X40724523Y-42282795D02*
X40724523Y-42330414D01*
X40724523Y-42330414D02*
X40676904Y-42425652D01*
X40676904Y-42425652D02*
X40629285Y-42473271D01*
X40629285Y-42473271D02*
X40534047Y-42520890D01*
X40534047Y-42520890D02*
X40343571Y-42520890D01*
X40343571Y-42520890D02*
X40248333Y-42568509D01*
X40248333Y-42568509D02*
X40200714Y-42616128D01*
X40200714Y-42616128D02*
X40153095Y-42711366D01*
X40153095Y-42711366D02*
X40153095Y-42901842D01*
X40153095Y-42901842D02*
X40200714Y-42997080D01*
X40200714Y-42997080D02*
X40248333Y-43044700D01*
X40248333Y-43044700D02*
X40343571Y-43092319D01*
X40343571Y-43092319D02*
X40534047Y-43092319D01*
X40534047Y-43092319D02*
X40629285Y-43044700D01*
X40629285Y-43044700D02*
X40676904Y-42997080D01*
X40676904Y-42997080D02*
X40724523Y-42901842D01*
X40724523Y-42901842D02*
X40724523Y-42711366D01*
X40724523Y-42711366D02*
X40676904Y-42616128D01*
X40676904Y-42616128D02*
X40629285Y-42568509D01*
X40629285Y-42568509D02*
X40534047Y-42520890D01*
X29557142Y-39759580D02*
X29509523Y-39807200D01*
X29509523Y-39807200D02*
X29366666Y-39854819D01*
X29366666Y-39854819D02*
X29271428Y-39854819D01*
X29271428Y-39854819D02*
X29128571Y-39807200D01*
X29128571Y-39807200D02*
X29033333Y-39711961D01*
X29033333Y-39711961D02*
X28985714Y-39616723D01*
X28985714Y-39616723D02*
X28938095Y-39426247D01*
X28938095Y-39426247D02*
X28938095Y-39283390D01*
X28938095Y-39283390D02*
X28985714Y-39092914D01*
X28985714Y-39092914D02*
X29033333Y-38997676D01*
X29033333Y-38997676D02*
X29128571Y-38902438D01*
X29128571Y-38902438D02*
X29271428Y-38854819D01*
X29271428Y-38854819D02*
X29366666Y-38854819D01*
X29366666Y-38854819D02*
X29509523Y-38902438D01*
X29509523Y-38902438D02*
X29557142Y-38950057D01*
X29890476Y-38854819D02*
X30509523Y-38854819D01*
X30509523Y-38854819D02*
X30176190Y-39235771D01*
X30176190Y-39235771D02*
X30319047Y-39235771D01*
X30319047Y-39235771D02*
X30414285Y-39283390D01*
X30414285Y-39283390D02*
X30461904Y-39331009D01*
X30461904Y-39331009D02*
X30509523Y-39426247D01*
X30509523Y-39426247D02*
X30509523Y-39664342D01*
X30509523Y-39664342D02*
X30461904Y-39759580D01*
X30461904Y-39759580D02*
X30414285Y-39807200D01*
X30414285Y-39807200D02*
X30319047Y-39854819D01*
X30319047Y-39854819D02*
X30033333Y-39854819D01*
X30033333Y-39854819D02*
X29938095Y-39807200D01*
X29938095Y-39807200D02*
X29890476Y-39759580D01*
X30842857Y-38854819D02*
X31509523Y-38854819D01*
X31509523Y-38854819D02*
X31080952Y-39854819D01*
X62957142Y-50759580D02*
X62909523Y-50807200D01*
X62909523Y-50807200D02*
X62766666Y-50854819D01*
X62766666Y-50854819D02*
X62671428Y-50854819D01*
X62671428Y-50854819D02*
X62528571Y-50807200D01*
X62528571Y-50807200D02*
X62433333Y-50711961D01*
X62433333Y-50711961D02*
X62385714Y-50616723D01*
X62385714Y-50616723D02*
X62338095Y-50426247D01*
X62338095Y-50426247D02*
X62338095Y-50283390D01*
X62338095Y-50283390D02*
X62385714Y-50092914D01*
X62385714Y-50092914D02*
X62433333Y-49997676D01*
X62433333Y-49997676D02*
X62528571Y-49902438D01*
X62528571Y-49902438D02*
X62671428Y-49854819D01*
X62671428Y-49854819D02*
X62766666Y-49854819D01*
X62766666Y-49854819D02*
X62909523Y-49902438D01*
X62909523Y-49902438D02*
X62957142Y-49950057D01*
X63909523Y-50854819D02*
X63338095Y-50854819D01*
X63623809Y-50854819D02*
X63623809Y-49854819D01*
X63623809Y-49854819D02*
X63528571Y-49997676D01*
X63528571Y-49997676D02*
X63433333Y-50092914D01*
X63433333Y-50092914D02*
X63338095Y-50140533D01*
X64861904Y-50854819D02*
X64290476Y-50854819D01*
X64576190Y-50854819D02*
X64576190Y-49854819D01*
X64576190Y-49854819D02*
X64480952Y-49997676D01*
X64480952Y-49997676D02*
X64385714Y-50092914D01*
X64385714Y-50092914D02*
X64290476Y-50140533D01*
X25229761Y-66255057D02*
X25134523Y-66207438D01*
X25134523Y-66207438D02*
X25039285Y-66112200D01*
X25039285Y-66112200D02*
X24896428Y-65969342D01*
X24896428Y-65969342D02*
X24801190Y-65921723D01*
X24801190Y-65921723D02*
X24705952Y-65921723D01*
X24753571Y-66159819D02*
X24658333Y-66112200D01*
X24658333Y-66112200D02*
X24563095Y-66016961D01*
X24563095Y-66016961D02*
X24515476Y-65826485D01*
X24515476Y-65826485D02*
X24515476Y-65493152D01*
X24515476Y-65493152D02*
X24563095Y-65302676D01*
X24563095Y-65302676D02*
X24658333Y-65207438D01*
X24658333Y-65207438D02*
X24753571Y-65159819D01*
X24753571Y-65159819D02*
X24944047Y-65159819D01*
X24944047Y-65159819D02*
X25039285Y-65207438D01*
X25039285Y-65207438D02*
X25134523Y-65302676D01*
X25134523Y-65302676D02*
X25182142Y-65493152D01*
X25182142Y-65493152D02*
X25182142Y-65826485D01*
X25182142Y-65826485D02*
X25134523Y-66016961D01*
X25134523Y-66016961D02*
X25039285Y-66112200D01*
X25039285Y-66112200D02*
X24944047Y-66159819D01*
X24944047Y-66159819D02*
X24753571Y-66159819D01*
X25563095Y-65255057D02*
X25610714Y-65207438D01*
X25610714Y-65207438D02*
X25705952Y-65159819D01*
X25705952Y-65159819D02*
X25944047Y-65159819D01*
X25944047Y-65159819D02*
X26039285Y-65207438D01*
X26039285Y-65207438D02*
X26086904Y-65255057D01*
X26086904Y-65255057D02*
X26134523Y-65350295D01*
X26134523Y-65350295D02*
X26134523Y-65445533D01*
X26134523Y-65445533D02*
X26086904Y-65588390D01*
X26086904Y-65588390D02*
X25515476Y-66159819D01*
X25515476Y-66159819D02*
X26134523Y-66159819D01*
X24633333Y-44854819D02*
X24157143Y-44854819D01*
X24157143Y-44854819D02*
X24157143Y-43854819D01*
X25490476Y-44854819D02*
X24919048Y-44854819D01*
X25204762Y-44854819D02*
X25204762Y-43854819D01*
X25204762Y-43854819D02*
X25109524Y-43997676D01*
X25109524Y-43997676D02*
X25014286Y-44092914D01*
X25014286Y-44092914D02*
X24919048Y-44140533D01*
X37232142Y-56599580D02*
X37184523Y-56647200D01*
X37184523Y-56647200D02*
X37041666Y-56694819D01*
X37041666Y-56694819D02*
X36946428Y-56694819D01*
X36946428Y-56694819D02*
X36803571Y-56647200D01*
X36803571Y-56647200D02*
X36708333Y-56551961D01*
X36708333Y-56551961D02*
X36660714Y-56456723D01*
X36660714Y-56456723D02*
X36613095Y-56266247D01*
X36613095Y-56266247D02*
X36613095Y-56123390D01*
X36613095Y-56123390D02*
X36660714Y-55932914D01*
X36660714Y-55932914D02*
X36708333Y-55837676D01*
X36708333Y-55837676D02*
X36803571Y-55742438D01*
X36803571Y-55742438D02*
X36946428Y-55694819D01*
X36946428Y-55694819D02*
X37041666Y-55694819D01*
X37041666Y-55694819D02*
X37184523Y-55742438D01*
X37184523Y-55742438D02*
X37232142Y-55790057D01*
X37613095Y-55790057D02*
X37660714Y-55742438D01*
X37660714Y-55742438D02*
X37755952Y-55694819D01*
X37755952Y-55694819D02*
X37994047Y-55694819D01*
X37994047Y-55694819D02*
X38089285Y-55742438D01*
X38089285Y-55742438D02*
X38136904Y-55790057D01*
X38136904Y-55790057D02*
X38184523Y-55885295D01*
X38184523Y-55885295D02*
X38184523Y-55980533D01*
X38184523Y-55980533D02*
X38136904Y-56123390D01*
X38136904Y-56123390D02*
X37565476Y-56694819D01*
X37565476Y-56694819D02*
X38184523Y-56694819D01*
X39136904Y-56694819D02*
X38565476Y-56694819D01*
X38851190Y-56694819D02*
X38851190Y-55694819D01*
X38851190Y-55694819D02*
X38755952Y-55837676D01*
X38755952Y-55837676D02*
X38660714Y-55932914D01*
X38660714Y-55932914D02*
X38565476Y-55980533D01*
X46557142Y-39359580D02*
X46509523Y-39407200D01*
X46509523Y-39407200D02*
X46366666Y-39454819D01*
X46366666Y-39454819D02*
X46271428Y-39454819D01*
X46271428Y-39454819D02*
X46128571Y-39407200D01*
X46128571Y-39407200D02*
X46033333Y-39311961D01*
X46033333Y-39311961D02*
X45985714Y-39216723D01*
X45985714Y-39216723D02*
X45938095Y-39026247D01*
X45938095Y-39026247D02*
X45938095Y-38883390D01*
X45938095Y-38883390D02*
X45985714Y-38692914D01*
X45985714Y-38692914D02*
X46033333Y-38597676D01*
X46033333Y-38597676D02*
X46128571Y-38502438D01*
X46128571Y-38502438D02*
X46271428Y-38454819D01*
X46271428Y-38454819D02*
X46366666Y-38454819D01*
X46366666Y-38454819D02*
X46509523Y-38502438D01*
X46509523Y-38502438D02*
X46557142Y-38550057D01*
X46890476Y-38454819D02*
X47509523Y-38454819D01*
X47509523Y-38454819D02*
X47176190Y-38835771D01*
X47176190Y-38835771D02*
X47319047Y-38835771D01*
X47319047Y-38835771D02*
X47414285Y-38883390D01*
X47414285Y-38883390D02*
X47461904Y-38931009D01*
X47461904Y-38931009D02*
X47509523Y-39026247D01*
X47509523Y-39026247D02*
X47509523Y-39264342D01*
X47509523Y-39264342D02*
X47461904Y-39359580D01*
X47461904Y-39359580D02*
X47414285Y-39407200D01*
X47414285Y-39407200D02*
X47319047Y-39454819D01*
X47319047Y-39454819D02*
X47033333Y-39454819D01*
X47033333Y-39454819D02*
X46938095Y-39407200D01*
X46938095Y-39407200D02*
X46890476Y-39359580D01*
X48461904Y-39454819D02*
X47890476Y-39454819D01*
X48176190Y-39454819D02*
X48176190Y-38454819D01*
X48176190Y-38454819D02*
X48080952Y-38597676D01*
X48080952Y-38597676D02*
X47985714Y-38692914D01*
X47985714Y-38692914D02*
X47890476Y-38740533D01*
X70159580Y-61642857D02*
X70207200Y-61690476D01*
X70207200Y-61690476D02*
X70254819Y-61833333D01*
X70254819Y-61833333D02*
X70254819Y-61928571D01*
X70254819Y-61928571D02*
X70207200Y-62071428D01*
X70207200Y-62071428D02*
X70111961Y-62166666D01*
X70111961Y-62166666D02*
X70016723Y-62214285D01*
X70016723Y-62214285D02*
X69826247Y-62261904D01*
X69826247Y-62261904D02*
X69683390Y-62261904D01*
X69683390Y-62261904D02*
X69492914Y-62214285D01*
X69492914Y-62214285D02*
X69397676Y-62166666D01*
X69397676Y-62166666D02*
X69302438Y-62071428D01*
X69302438Y-62071428D02*
X69254819Y-61928571D01*
X69254819Y-61928571D02*
X69254819Y-61833333D01*
X69254819Y-61833333D02*
X69302438Y-61690476D01*
X69302438Y-61690476D02*
X69350057Y-61642857D01*
X69588152Y-60785714D02*
X70254819Y-60785714D01*
X69207200Y-61023809D02*
X69921485Y-61261904D01*
X69921485Y-61261904D02*
X69921485Y-60642857D01*
X69254819Y-60071428D02*
X69254819Y-59976190D01*
X69254819Y-59976190D02*
X69302438Y-59880952D01*
X69302438Y-59880952D02*
X69350057Y-59833333D01*
X69350057Y-59833333D02*
X69445295Y-59785714D01*
X69445295Y-59785714D02*
X69635771Y-59738095D01*
X69635771Y-59738095D02*
X69873866Y-59738095D01*
X69873866Y-59738095D02*
X70064342Y-59785714D01*
X70064342Y-59785714D02*
X70159580Y-59833333D01*
X70159580Y-59833333D02*
X70207200Y-59880952D01*
X70207200Y-59880952D02*
X70254819Y-59976190D01*
X70254819Y-59976190D02*
X70254819Y-60071428D01*
X70254819Y-60071428D02*
X70207200Y-60166666D01*
X70207200Y-60166666D02*
X70159580Y-60214285D01*
X70159580Y-60214285D02*
X70064342Y-60261904D01*
X70064342Y-60261904D02*
X69873866Y-60309523D01*
X69873866Y-60309523D02*
X69635771Y-60309523D01*
X69635771Y-60309523D02*
X69445295Y-60261904D01*
X69445295Y-60261904D02*
X69350057Y-60214285D01*
X69350057Y-60214285D02*
X69302438Y-60166666D01*
X69302438Y-60166666D02*
X69254819Y-60071428D01*
X32233333Y-48359580D02*
X32185714Y-48407200D01*
X32185714Y-48407200D02*
X32042857Y-48454819D01*
X32042857Y-48454819D02*
X31947619Y-48454819D01*
X31947619Y-48454819D02*
X31804762Y-48407200D01*
X31804762Y-48407200D02*
X31709524Y-48311961D01*
X31709524Y-48311961D02*
X31661905Y-48216723D01*
X31661905Y-48216723D02*
X31614286Y-48026247D01*
X31614286Y-48026247D02*
X31614286Y-47883390D01*
X31614286Y-47883390D02*
X31661905Y-47692914D01*
X31661905Y-47692914D02*
X31709524Y-47597676D01*
X31709524Y-47597676D02*
X31804762Y-47502438D01*
X31804762Y-47502438D02*
X31947619Y-47454819D01*
X31947619Y-47454819D02*
X32042857Y-47454819D01*
X32042857Y-47454819D02*
X32185714Y-47502438D01*
X32185714Y-47502438D02*
X32233333Y-47550057D01*
X33090476Y-47454819D02*
X32900000Y-47454819D01*
X32900000Y-47454819D02*
X32804762Y-47502438D01*
X32804762Y-47502438D02*
X32757143Y-47550057D01*
X32757143Y-47550057D02*
X32661905Y-47692914D01*
X32661905Y-47692914D02*
X32614286Y-47883390D01*
X32614286Y-47883390D02*
X32614286Y-48264342D01*
X32614286Y-48264342D02*
X32661905Y-48359580D01*
X32661905Y-48359580D02*
X32709524Y-48407200D01*
X32709524Y-48407200D02*
X32804762Y-48454819D01*
X32804762Y-48454819D02*
X32995238Y-48454819D01*
X32995238Y-48454819D02*
X33090476Y-48407200D01*
X33090476Y-48407200D02*
X33138095Y-48359580D01*
X33138095Y-48359580D02*
X33185714Y-48264342D01*
X33185714Y-48264342D02*
X33185714Y-48026247D01*
X33185714Y-48026247D02*
X33138095Y-47931009D01*
X33138095Y-47931009D02*
X33090476Y-47883390D01*
X33090476Y-47883390D02*
X32995238Y-47835771D01*
X32995238Y-47835771D02*
X32804762Y-47835771D01*
X32804762Y-47835771D02*
X32709524Y-47883390D01*
X32709524Y-47883390D02*
X32661905Y-47931009D01*
X32661905Y-47931009D02*
X32614286Y-48026247D01*
X18461905Y-57654819D02*
X18461905Y-56654819D01*
X18461905Y-56654819D02*
X18700000Y-56654819D01*
X18700000Y-56654819D02*
X18842857Y-56702438D01*
X18842857Y-56702438D02*
X18938095Y-56797676D01*
X18938095Y-56797676D02*
X18985714Y-56892914D01*
X18985714Y-56892914D02*
X19033333Y-57083390D01*
X19033333Y-57083390D02*
X19033333Y-57226247D01*
X19033333Y-57226247D02*
X18985714Y-57416723D01*
X18985714Y-57416723D02*
X18938095Y-57511961D01*
X18938095Y-57511961D02*
X18842857Y-57607200D01*
X18842857Y-57607200D02*
X18700000Y-57654819D01*
X18700000Y-57654819D02*
X18461905Y-57654819D01*
X19890476Y-56654819D02*
X19700000Y-56654819D01*
X19700000Y-56654819D02*
X19604762Y-56702438D01*
X19604762Y-56702438D02*
X19557143Y-56750057D01*
X19557143Y-56750057D02*
X19461905Y-56892914D01*
X19461905Y-56892914D02*
X19414286Y-57083390D01*
X19414286Y-57083390D02*
X19414286Y-57464342D01*
X19414286Y-57464342D02*
X19461905Y-57559580D01*
X19461905Y-57559580D02*
X19509524Y-57607200D01*
X19509524Y-57607200D02*
X19604762Y-57654819D01*
X19604762Y-57654819D02*
X19795238Y-57654819D01*
X19795238Y-57654819D02*
X19890476Y-57607200D01*
X19890476Y-57607200D02*
X19938095Y-57559580D01*
X19938095Y-57559580D02*
X19985714Y-57464342D01*
X19985714Y-57464342D02*
X19985714Y-57226247D01*
X19985714Y-57226247D02*
X19938095Y-57131009D01*
X19938095Y-57131009D02*
X19890476Y-57083390D01*
X19890476Y-57083390D02*
X19795238Y-57035771D01*
X19795238Y-57035771D02*
X19604762Y-57035771D01*
X19604762Y-57035771D02*
X19509524Y-57083390D01*
X19509524Y-57083390D02*
X19461905Y-57131009D01*
X19461905Y-57131009D02*
X19414286Y-57226247D01*
X87854819Y-65083333D02*
X88569104Y-65083333D01*
X88569104Y-65083333D02*
X88711961Y-65130952D01*
X88711961Y-65130952D02*
X88807200Y-65226190D01*
X88807200Y-65226190D02*
X88854819Y-65369047D01*
X88854819Y-65369047D02*
X88854819Y-65464285D01*
X87854819Y-64130952D02*
X87854819Y-64607142D01*
X87854819Y-64607142D02*
X88331009Y-64654761D01*
X88331009Y-64654761D02*
X88283390Y-64607142D01*
X88283390Y-64607142D02*
X88235771Y-64511904D01*
X88235771Y-64511904D02*
X88235771Y-64273809D01*
X88235771Y-64273809D02*
X88283390Y-64178571D01*
X88283390Y-64178571D02*
X88331009Y-64130952D01*
X88331009Y-64130952D02*
X88426247Y-64083333D01*
X88426247Y-64083333D02*
X88664342Y-64083333D01*
X88664342Y-64083333D02*
X88759580Y-64130952D01*
X88759580Y-64130952D02*
X88807200Y-64178571D01*
X88807200Y-64178571D02*
X88854819Y-64273809D01*
X88854819Y-64273809D02*
X88854819Y-64511904D01*
X88854819Y-64511904D02*
X88807200Y-64607142D01*
X88807200Y-64607142D02*
X88759580Y-64654761D01*
X73014700Y-59821428D02*
X73014700Y-58678571D01*
X73014700Y-70821428D02*
X73014700Y-69678571D01*
X73586128Y-70249999D02*
X72443271Y-70249999D01*
X68357142Y-45959580D02*
X68309523Y-46007200D01*
X68309523Y-46007200D02*
X68166666Y-46054819D01*
X68166666Y-46054819D02*
X68071428Y-46054819D01*
X68071428Y-46054819D02*
X67928571Y-46007200D01*
X67928571Y-46007200D02*
X67833333Y-45911961D01*
X67833333Y-45911961D02*
X67785714Y-45816723D01*
X67785714Y-45816723D02*
X67738095Y-45626247D01*
X67738095Y-45626247D02*
X67738095Y-45483390D01*
X67738095Y-45483390D02*
X67785714Y-45292914D01*
X67785714Y-45292914D02*
X67833333Y-45197676D01*
X67833333Y-45197676D02*
X67928571Y-45102438D01*
X67928571Y-45102438D02*
X68071428Y-45054819D01*
X68071428Y-45054819D02*
X68166666Y-45054819D01*
X68166666Y-45054819D02*
X68309523Y-45102438D01*
X68309523Y-45102438D02*
X68357142Y-45150057D01*
X68690476Y-45054819D02*
X69309523Y-45054819D01*
X69309523Y-45054819D02*
X68976190Y-45435771D01*
X68976190Y-45435771D02*
X69119047Y-45435771D01*
X69119047Y-45435771D02*
X69214285Y-45483390D01*
X69214285Y-45483390D02*
X69261904Y-45531009D01*
X69261904Y-45531009D02*
X69309523Y-45626247D01*
X69309523Y-45626247D02*
X69309523Y-45864342D01*
X69309523Y-45864342D02*
X69261904Y-45959580D01*
X69261904Y-45959580D02*
X69214285Y-46007200D01*
X69214285Y-46007200D02*
X69119047Y-46054819D01*
X69119047Y-46054819D02*
X68833333Y-46054819D01*
X68833333Y-46054819D02*
X68738095Y-46007200D01*
X68738095Y-46007200D02*
X68690476Y-45959580D01*
X70166666Y-45388152D02*
X70166666Y-46054819D01*
X69928571Y-45007200D02*
X69690476Y-45721485D01*
X69690476Y-45721485D02*
X70309523Y-45721485D01*
X46482260Y-53827080D02*
X46434641Y-53874700D01*
X46434641Y-53874700D02*
X46291784Y-53922319D01*
X46291784Y-53922319D02*
X46196546Y-53922319D01*
X46196546Y-53922319D02*
X46053689Y-53874700D01*
X46053689Y-53874700D02*
X45958451Y-53779461D01*
X45958451Y-53779461D02*
X45910832Y-53684223D01*
X45910832Y-53684223D02*
X45863213Y-53493747D01*
X45863213Y-53493747D02*
X45863213Y-53350890D01*
X45863213Y-53350890D02*
X45910832Y-53160414D01*
X45910832Y-53160414D02*
X45958451Y-53065176D01*
X45958451Y-53065176D02*
X46053689Y-52969938D01*
X46053689Y-52969938D02*
X46196546Y-52922319D01*
X46196546Y-52922319D02*
X46291784Y-52922319D01*
X46291784Y-52922319D02*
X46434641Y-52969938D01*
X46434641Y-52969938D02*
X46482260Y-53017557D01*
X46815594Y-52922319D02*
X47434641Y-52922319D01*
X47434641Y-52922319D02*
X47101308Y-53303271D01*
X47101308Y-53303271D02*
X47244165Y-53303271D01*
X47244165Y-53303271D02*
X47339403Y-53350890D01*
X47339403Y-53350890D02*
X47387022Y-53398509D01*
X47387022Y-53398509D02*
X47434641Y-53493747D01*
X47434641Y-53493747D02*
X47434641Y-53731842D01*
X47434641Y-53731842D02*
X47387022Y-53827080D01*
X47387022Y-53827080D02*
X47339403Y-53874700D01*
X47339403Y-53874700D02*
X47244165Y-53922319D01*
X47244165Y-53922319D02*
X46958451Y-53922319D01*
X46958451Y-53922319D02*
X46863213Y-53874700D01*
X46863213Y-53874700D02*
X46815594Y-53827080D01*
X48291784Y-52922319D02*
X48101308Y-52922319D01*
X48101308Y-52922319D02*
X48006070Y-52969938D01*
X48006070Y-52969938D02*
X47958451Y-53017557D01*
X47958451Y-53017557D02*
X47863213Y-53160414D01*
X47863213Y-53160414D02*
X47815594Y-53350890D01*
X47815594Y-53350890D02*
X47815594Y-53731842D01*
X47815594Y-53731842D02*
X47863213Y-53827080D01*
X47863213Y-53827080D02*
X47910832Y-53874700D01*
X47910832Y-53874700D02*
X48006070Y-53922319D01*
X48006070Y-53922319D02*
X48196546Y-53922319D01*
X48196546Y-53922319D02*
X48291784Y-53874700D01*
X48291784Y-53874700D02*
X48339403Y-53827080D01*
X48339403Y-53827080D02*
X48387022Y-53731842D01*
X48387022Y-53731842D02*
X48387022Y-53493747D01*
X48387022Y-53493747D02*
X48339403Y-53398509D01*
X48339403Y-53398509D02*
X48291784Y-53350890D01*
X48291784Y-53350890D02*
X48196546Y-53303271D01*
X48196546Y-53303271D02*
X48006070Y-53303271D01*
X48006070Y-53303271D02*
X47910832Y-53350890D01*
X47910832Y-53350890D02*
X47863213Y-53398509D01*
X47863213Y-53398509D02*
X47815594Y-53493747D01*
X27684580Y-55711666D02*
X27732200Y-55759285D01*
X27732200Y-55759285D02*
X27779819Y-55902142D01*
X27779819Y-55902142D02*
X27779819Y-55997380D01*
X27779819Y-55997380D02*
X27732200Y-56140237D01*
X27732200Y-56140237D02*
X27636961Y-56235475D01*
X27636961Y-56235475D02*
X27541723Y-56283094D01*
X27541723Y-56283094D02*
X27351247Y-56330713D01*
X27351247Y-56330713D02*
X27208390Y-56330713D01*
X27208390Y-56330713D02*
X27017914Y-56283094D01*
X27017914Y-56283094D02*
X26922676Y-56235475D01*
X26922676Y-56235475D02*
X26827438Y-56140237D01*
X26827438Y-56140237D02*
X26779819Y-55997380D01*
X26779819Y-55997380D02*
X26779819Y-55902142D01*
X26779819Y-55902142D02*
X26827438Y-55759285D01*
X26827438Y-55759285D02*
X26875057Y-55711666D01*
X26779819Y-54806904D02*
X26779819Y-55283094D01*
X26779819Y-55283094D02*
X27256009Y-55330713D01*
X27256009Y-55330713D02*
X27208390Y-55283094D01*
X27208390Y-55283094D02*
X27160771Y-55187856D01*
X27160771Y-55187856D02*
X27160771Y-54949761D01*
X27160771Y-54949761D02*
X27208390Y-54854523D01*
X27208390Y-54854523D02*
X27256009Y-54806904D01*
X27256009Y-54806904D02*
X27351247Y-54759285D01*
X27351247Y-54759285D02*
X27589342Y-54759285D01*
X27589342Y-54759285D02*
X27684580Y-54806904D01*
X27684580Y-54806904D02*
X27732200Y-54854523D01*
X27732200Y-54854523D02*
X27779819Y-54949761D01*
X27779819Y-54949761D02*
X27779819Y-55187856D01*
X27779819Y-55187856D02*
X27732200Y-55283094D01*
X27732200Y-55283094D02*
X27684580Y-55330713D01*
X30833333Y-56654819D02*
X30500000Y-56178628D01*
X30261905Y-56654819D02*
X30261905Y-55654819D01*
X30261905Y-55654819D02*
X30642857Y-55654819D01*
X30642857Y-55654819D02*
X30738095Y-55702438D01*
X30738095Y-55702438D02*
X30785714Y-55750057D01*
X30785714Y-55750057D02*
X30833333Y-55845295D01*
X30833333Y-55845295D02*
X30833333Y-55988152D01*
X30833333Y-55988152D02*
X30785714Y-56083390D01*
X30785714Y-56083390D02*
X30738095Y-56131009D01*
X30738095Y-56131009D02*
X30642857Y-56178628D01*
X30642857Y-56178628D02*
X30261905Y-56178628D01*
X31690476Y-55988152D02*
X31690476Y-56654819D01*
X31452381Y-55607200D02*
X31214286Y-56321485D01*
X31214286Y-56321485D02*
X31833333Y-56321485D01*
X65359580Y-73242857D02*
X65407200Y-73290476D01*
X65407200Y-73290476D02*
X65454819Y-73433333D01*
X65454819Y-73433333D02*
X65454819Y-73528571D01*
X65454819Y-73528571D02*
X65407200Y-73671428D01*
X65407200Y-73671428D02*
X65311961Y-73766666D01*
X65311961Y-73766666D02*
X65216723Y-73814285D01*
X65216723Y-73814285D02*
X65026247Y-73861904D01*
X65026247Y-73861904D02*
X64883390Y-73861904D01*
X64883390Y-73861904D02*
X64692914Y-73814285D01*
X64692914Y-73814285D02*
X64597676Y-73766666D01*
X64597676Y-73766666D02*
X64502438Y-73671428D01*
X64502438Y-73671428D02*
X64454819Y-73528571D01*
X64454819Y-73528571D02*
X64454819Y-73433333D01*
X64454819Y-73433333D02*
X64502438Y-73290476D01*
X64502438Y-73290476D02*
X64550057Y-73242857D01*
X65454819Y-72290476D02*
X65454819Y-72861904D01*
X65454819Y-72576190D02*
X64454819Y-72576190D01*
X64454819Y-72576190D02*
X64597676Y-72671428D01*
X64597676Y-72671428D02*
X64692914Y-72766666D01*
X64692914Y-72766666D02*
X64740533Y-72861904D01*
X64454819Y-71385714D02*
X64454819Y-71861904D01*
X64454819Y-71861904D02*
X64931009Y-71909523D01*
X64931009Y-71909523D02*
X64883390Y-71861904D01*
X64883390Y-71861904D02*
X64835771Y-71766666D01*
X64835771Y-71766666D02*
X64835771Y-71528571D01*
X64835771Y-71528571D02*
X64883390Y-71433333D01*
X64883390Y-71433333D02*
X64931009Y-71385714D01*
X64931009Y-71385714D02*
X65026247Y-71338095D01*
X65026247Y-71338095D02*
X65264342Y-71338095D01*
X65264342Y-71338095D02*
X65359580Y-71385714D01*
X65359580Y-71385714D02*
X65407200Y-71433333D01*
X65407200Y-71433333D02*
X65454819Y-71528571D01*
X65454819Y-71528571D02*
X65454819Y-71766666D01*
X65454819Y-71766666D02*
X65407200Y-71861904D01*
X65407200Y-71861904D02*
X65359580Y-71909523D01*
X66357142Y-43959580D02*
X66309523Y-44007200D01*
X66309523Y-44007200D02*
X66166666Y-44054819D01*
X66166666Y-44054819D02*
X66071428Y-44054819D01*
X66071428Y-44054819D02*
X65928571Y-44007200D01*
X65928571Y-44007200D02*
X65833333Y-43911961D01*
X65833333Y-43911961D02*
X65785714Y-43816723D01*
X65785714Y-43816723D02*
X65738095Y-43626247D01*
X65738095Y-43626247D02*
X65738095Y-43483390D01*
X65738095Y-43483390D02*
X65785714Y-43292914D01*
X65785714Y-43292914D02*
X65833333Y-43197676D01*
X65833333Y-43197676D02*
X65928571Y-43102438D01*
X65928571Y-43102438D02*
X66071428Y-43054819D01*
X66071428Y-43054819D02*
X66166666Y-43054819D01*
X66166666Y-43054819D02*
X66309523Y-43102438D01*
X66309523Y-43102438D02*
X66357142Y-43150057D01*
X67214285Y-43388152D02*
X67214285Y-44054819D01*
X66976190Y-43007200D02*
X66738095Y-43721485D01*
X66738095Y-43721485D02*
X67357142Y-43721485D01*
X67642857Y-43054819D02*
X68261904Y-43054819D01*
X68261904Y-43054819D02*
X67928571Y-43435771D01*
X67928571Y-43435771D02*
X68071428Y-43435771D01*
X68071428Y-43435771D02*
X68166666Y-43483390D01*
X68166666Y-43483390D02*
X68214285Y-43531009D01*
X68214285Y-43531009D02*
X68261904Y-43626247D01*
X68261904Y-43626247D02*
X68261904Y-43864342D01*
X68261904Y-43864342D02*
X68214285Y-43959580D01*
X68214285Y-43959580D02*
X68166666Y-44007200D01*
X68166666Y-44007200D02*
X68071428Y-44054819D01*
X68071428Y-44054819D02*
X67785714Y-44054819D01*
X67785714Y-44054819D02*
X67690476Y-44007200D01*
X67690476Y-44007200D02*
X67642857Y-43959580D01*
X66557142Y-42254819D02*
X66223809Y-41778628D01*
X65985714Y-42254819D02*
X65985714Y-41254819D01*
X65985714Y-41254819D02*
X66366666Y-41254819D01*
X66366666Y-41254819D02*
X66461904Y-41302438D01*
X66461904Y-41302438D02*
X66509523Y-41350057D01*
X66509523Y-41350057D02*
X66557142Y-41445295D01*
X66557142Y-41445295D02*
X66557142Y-41588152D01*
X66557142Y-41588152D02*
X66509523Y-41683390D01*
X66509523Y-41683390D02*
X66461904Y-41731009D01*
X66461904Y-41731009D02*
X66366666Y-41778628D01*
X66366666Y-41778628D02*
X65985714Y-41778628D01*
X67509523Y-42254819D02*
X66938095Y-42254819D01*
X67223809Y-42254819D02*
X67223809Y-41254819D01*
X67223809Y-41254819D02*
X67128571Y-41397676D01*
X67128571Y-41397676D02*
X67033333Y-41492914D01*
X67033333Y-41492914D02*
X66938095Y-41540533D01*
X68128571Y-41254819D02*
X68223809Y-41254819D01*
X68223809Y-41254819D02*
X68319047Y-41302438D01*
X68319047Y-41302438D02*
X68366666Y-41350057D01*
X68366666Y-41350057D02*
X68414285Y-41445295D01*
X68414285Y-41445295D02*
X68461904Y-41635771D01*
X68461904Y-41635771D02*
X68461904Y-41873866D01*
X68461904Y-41873866D02*
X68414285Y-42064342D01*
X68414285Y-42064342D02*
X68366666Y-42159580D01*
X68366666Y-42159580D02*
X68319047Y-42207200D01*
X68319047Y-42207200D02*
X68223809Y-42254819D01*
X68223809Y-42254819D02*
X68128571Y-42254819D01*
X68128571Y-42254819D02*
X68033333Y-42207200D01*
X68033333Y-42207200D02*
X67985714Y-42159580D01*
X67985714Y-42159580D02*
X67938095Y-42064342D01*
X67938095Y-42064342D02*
X67890476Y-41873866D01*
X67890476Y-41873866D02*
X67890476Y-41635771D01*
X67890476Y-41635771D02*
X67938095Y-41445295D01*
X67938095Y-41445295D02*
X67985714Y-41350057D01*
X67985714Y-41350057D02*
X68033333Y-41302438D01*
X68033333Y-41302438D02*
X68128571Y-41254819D01*
X18633333Y-47359580D02*
X18585714Y-47407200D01*
X18585714Y-47407200D02*
X18442857Y-47454819D01*
X18442857Y-47454819D02*
X18347619Y-47454819D01*
X18347619Y-47454819D02*
X18204762Y-47407200D01*
X18204762Y-47407200D02*
X18109524Y-47311961D01*
X18109524Y-47311961D02*
X18061905Y-47216723D01*
X18061905Y-47216723D02*
X18014286Y-47026247D01*
X18014286Y-47026247D02*
X18014286Y-46883390D01*
X18014286Y-46883390D02*
X18061905Y-46692914D01*
X18061905Y-46692914D02*
X18109524Y-46597676D01*
X18109524Y-46597676D02*
X18204762Y-46502438D01*
X18204762Y-46502438D02*
X18347619Y-46454819D01*
X18347619Y-46454819D02*
X18442857Y-46454819D01*
X18442857Y-46454819D02*
X18585714Y-46502438D01*
X18585714Y-46502438D02*
X18633333Y-46550057D01*
X19585714Y-47454819D02*
X19014286Y-47454819D01*
X19300000Y-47454819D02*
X19300000Y-46454819D01*
X19300000Y-46454819D02*
X19204762Y-46597676D01*
X19204762Y-46597676D02*
X19109524Y-46692914D01*
X19109524Y-46692914D02*
X19014286Y-46740533D01*
X23352083Y-42849819D02*
X23018750Y-42373628D01*
X22780655Y-42849819D02*
X22780655Y-41849819D01*
X22780655Y-41849819D02*
X23161607Y-41849819D01*
X23161607Y-41849819D02*
X23256845Y-41897438D01*
X23256845Y-41897438D02*
X23304464Y-41945057D01*
X23304464Y-41945057D02*
X23352083Y-42040295D01*
X23352083Y-42040295D02*
X23352083Y-42183152D01*
X23352083Y-42183152D02*
X23304464Y-42278390D01*
X23304464Y-42278390D02*
X23256845Y-42326009D01*
X23256845Y-42326009D02*
X23161607Y-42373628D01*
X23161607Y-42373628D02*
X22780655Y-42373628D01*
X23733036Y-41945057D02*
X23780655Y-41897438D01*
X23780655Y-41897438D02*
X23875893Y-41849819D01*
X23875893Y-41849819D02*
X24113988Y-41849819D01*
X24113988Y-41849819D02*
X24209226Y-41897438D01*
X24209226Y-41897438D02*
X24256845Y-41945057D01*
X24256845Y-41945057D02*
X24304464Y-42040295D01*
X24304464Y-42040295D02*
X24304464Y-42135533D01*
X24304464Y-42135533D02*
X24256845Y-42278390D01*
X24256845Y-42278390D02*
X23685417Y-42849819D01*
X23685417Y-42849819D02*
X24304464Y-42849819D01*
X42357142Y-46559580D02*
X42309523Y-46607200D01*
X42309523Y-46607200D02*
X42166666Y-46654819D01*
X42166666Y-46654819D02*
X42071428Y-46654819D01*
X42071428Y-46654819D02*
X41928571Y-46607200D01*
X41928571Y-46607200D02*
X41833333Y-46511961D01*
X41833333Y-46511961D02*
X41785714Y-46416723D01*
X41785714Y-46416723D02*
X41738095Y-46226247D01*
X41738095Y-46226247D02*
X41738095Y-46083390D01*
X41738095Y-46083390D02*
X41785714Y-45892914D01*
X41785714Y-45892914D02*
X41833333Y-45797676D01*
X41833333Y-45797676D02*
X41928571Y-45702438D01*
X41928571Y-45702438D02*
X42071428Y-45654819D01*
X42071428Y-45654819D02*
X42166666Y-45654819D01*
X42166666Y-45654819D02*
X42309523Y-45702438D01*
X42309523Y-45702438D02*
X42357142Y-45750057D01*
X42690476Y-45654819D02*
X43309523Y-45654819D01*
X43309523Y-45654819D02*
X42976190Y-46035771D01*
X42976190Y-46035771D02*
X43119047Y-46035771D01*
X43119047Y-46035771D02*
X43214285Y-46083390D01*
X43214285Y-46083390D02*
X43261904Y-46131009D01*
X43261904Y-46131009D02*
X43309523Y-46226247D01*
X43309523Y-46226247D02*
X43309523Y-46464342D01*
X43309523Y-46464342D02*
X43261904Y-46559580D01*
X43261904Y-46559580D02*
X43214285Y-46607200D01*
X43214285Y-46607200D02*
X43119047Y-46654819D01*
X43119047Y-46654819D02*
X42833333Y-46654819D01*
X42833333Y-46654819D02*
X42738095Y-46607200D01*
X42738095Y-46607200D02*
X42690476Y-46559580D01*
X43928571Y-45654819D02*
X44023809Y-45654819D01*
X44023809Y-45654819D02*
X44119047Y-45702438D01*
X44119047Y-45702438D02*
X44166666Y-45750057D01*
X44166666Y-45750057D02*
X44214285Y-45845295D01*
X44214285Y-45845295D02*
X44261904Y-46035771D01*
X44261904Y-46035771D02*
X44261904Y-46273866D01*
X44261904Y-46273866D02*
X44214285Y-46464342D01*
X44214285Y-46464342D02*
X44166666Y-46559580D01*
X44166666Y-46559580D02*
X44119047Y-46607200D01*
X44119047Y-46607200D02*
X44023809Y-46654819D01*
X44023809Y-46654819D02*
X43928571Y-46654819D01*
X43928571Y-46654819D02*
X43833333Y-46607200D01*
X43833333Y-46607200D02*
X43785714Y-46559580D01*
X43785714Y-46559580D02*
X43738095Y-46464342D01*
X43738095Y-46464342D02*
X43690476Y-46273866D01*
X43690476Y-46273866D02*
X43690476Y-46035771D01*
X43690476Y-46035771D02*
X43738095Y-45845295D01*
X43738095Y-45845295D02*
X43785714Y-45750057D01*
X43785714Y-45750057D02*
X43833333Y-45702438D01*
X43833333Y-45702438D02*
X43928571Y-45654819D01*
X52591905Y-42054819D02*
X52591905Y-41054819D01*
X52591905Y-41054819D02*
X52830000Y-41054819D01*
X52830000Y-41054819D02*
X52972857Y-41102438D01*
X52972857Y-41102438D02*
X53068095Y-41197676D01*
X53068095Y-41197676D02*
X53115714Y-41292914D01*
X53115714Y-41292914D02*
X53163333Y-41483390D01*
X53163333Y-41483390D02*
X53163333Y-41626247D01*
X53163333Y-41626247D02*
X53115714Y-41816723D01*
X53115714Y-41816723D02*
X53068095Y-41911961D01*
X53068095Y-41911961D02*
X52972857Y-42007200D01*
X52972857Y-42007200D02*
X52830000Y-42054819D01*
X52830000Y-42054819D02*
X52591905Y-42054819D01*
X54068095Y-41054819D02*
X53591905Y-41054819D01*
X53591905Y-41054819D02*
X53544286Y-41531009D01*
X53544286Y-41531009D02*
X53591905Y-41483390D01*
X53591905Y-41483390D02*
X53687143Y-41435771D01*
X53687143Y-41435771D02*
X53925238Y-41435771D01*
X53925238Y-41435771D02*
X54020476Y-41483390D01*
X54020476Y-41483390D02*
X54068095Y-41531009D01*
X54068095Y-41531009D02*
X54115714Y-41626247D01*
X54115714Y-41626247D02*
X54115714Y-41864342D01*
X54115714Y-41864342D02*
X54068095Y-41959580D01*
X54068095Y-41959580D02*
X54020476Y-42007200D01*
X54020476Y-42007200D02*
X53925238Y-42054819D01*
X53925238Y-42054819D02*
X53687143Y-42054819D01*
X53687143Y-42054819D02*
X53591905Y-42007200D01*
X53591905Y-42007200D02*
X53544286Y-41959580D01*
X22233333Y-57654819D02*
X21900000Y-57178628D01*
X21661905Y-57654819D02*
X21661905Y-56654819D01*
X21661905Y-56654819D02*
X22042857Y-56654819D01*
X22042857Y-56654819D02*
X22138095Y-56702438D01*
X22138095Y-56702438D02*
X22185714Y-56750057D01*
X22185714Y-56750057D02*
X22233333Y-56845295D01*
X22233333Y-56845295D02*
X22233333Y-56988152D01*
X22233333Y-56988152D02*
X22185714Y-57083390D01*
X22185714Y-57083390D02*
X22138095Y-57131009D01*
X22138095Y-57131009D02*
X22042857Y-57178628D01*
X22042857Y-57178628D02*
X21661905Y-57178628D01*
X23185714Y-57654819D02*
X22614286Y-57654819D01*
X22900000Y-57654819D02*
X22900000Y-56654819D01*
X22900000Y-56654819D02*
X22804762Y-56797676D01*
X22804762Y-56797676D02*
X22709524Y-56892914D01*
X22709524Y-56892914D02*
X22614286Y-56940533D01*
X17466666Y-65054819D02*
X17466666Y-65769104D01*
X17466666Y-65769104D02*
X17419047Y-65911961D01*
X17419047Y-65911961D02*
X17323809Y-66007200D01*
X17323809Y-66007200D02*
X17180952Y-66054819D01*
X17180952Y-66054819D02*
X17085714Y-66054819D01*
X17895238Y-65150057D02*
X17942857Y-65102438D01*
X17942857Y-65102438D02*
X18038095Y-65054819D01*
X18038095Y-65054819D02*
X18276190Y-65054819D01*
X18276190Y-65054819D02*
X18371428Y-65102438D01*
X18371428Y-65102438D02*
X18419047Y-65150057D01*
X18419047Y-65150057D02*
X18466666Y-65245295D01*
X18466666Y-65245295D02*
X18466666Y-65340533D01*
X18466666Y-65340533D02*
X18419047Y-65483390D01*
X18419047Y-65483390D02*
X17847619Y-66054819D01*
X17847619Y-66054819D02*
X18466666Y-66054819D01*
X15914700Y-77771428D02*
X15914700Y-76628571D01*
X16486128Y-77199999D02*
X15343271Y-77199999D01*
X16334700Y-66401428D02*
X16334700Y-65258571D01*
X42743333Y-68944819D02*
X42267143Y-68944819D01*
X42267143Y-68944819D02*
X42267143Y-67944819D01*
X43029048Y-68040057D02*
X43076667Y-67992438D01*
X43076667Y-67992438D02*
X43171905Y-67944819D01*
X43171905Y-67944819D02*
X43410000Y-67944819D01*
X43410000Y-67944819D02*
X43505238Y-67992438D01*
X43505238Y-67992438D02*
X43552857Y-68040057D01*
X43552857Y-68040057D02*
X43600476Y-68135295D01*
X43600476Y-68135295D02*
X43600476Y-68230533D01*
X43600476Y-68230533D02*
X43552857Y-68373390D01*
X43552857Y-68373390D02*
X42981429Y-68944819D01*
X42981429Y-68944819D02*
X43600476Y-68944819D01*
X32585714Y-39454819D02*
X32585714Y-38454819D01*
X32585714Y-38454819D02*
X32823809Y-38454819D01*
X32823809Y-38454819D02*
X32966666Y-38502438D01*
X32966666Y-38502438D02*
X33061904Y-38597676D01*
X33061904Y-38597676D02*
X33109523Y-38692914D01*
X33109523Y-38692914D02*
X33157142Y-38883390D01*
X33157142Y-38883390D02*
X33157142Y-39026247D01*
X33157142Y-39026247D02*
X33109523Y-39216723D01*
X33109523Y-39216723D02*
X33061904Y-39311961D01*
X33061904Y-39311961D02*
X32966666Y-39407200D01*
X32966666Y-39407200D02*
X32823809Y-39454819D01*
X32823809Y-39454819D02*
X32585714Y-39454819D01*
X34109523Y-39454819D02*
X33538095Y-39454819D01*
X33823809Y-39454819D02*
X33823809Y-38454819D01*
X33823809Y-38454819D02*
X33728571Y-38597676D01*
X33728571Y-38597676D02*
X33633333Y-38692914D01*
X33633333Y-38692914D02*
X33538095Y-38740533D01*
X34442857Y-38454819D02*
X35061904Y-38454819D01*
X35061904Y-38454819D02*
X34728571Y-38835771D01*
X34728571Y-38835771D02*
X34871428Y-38835771D01*
X34871428Y-38835771D02*
X34966666Y-38883390D01*
X34966666Y-38883390D02*
X35014285Y-38931009D01*
X35014285Y-38931009D02*
X35061904Y-39026247D01*
X35061904Y-39026247D02*
X35061904Y-39264342D01*
X35061904Y-39264342D02*
X35014285Y-39359580D01*
X35014285Y-39359580D02*
X34966666Y-39407200D01*
X34966666Y-39407200D02*
X34871428Y-39454819D01*
X34871428Y-39454819D02*
X34585714Y-39454819D01*
X34585714Y-39454819D02*
X34490476Y-39407200D01*
X34490476Y-39407200D02*
X34442857Y-39359580D01*
X52957142Y-66254819D02*
X52623809Y-65778628D01*
X52385714Y-66254819D02*
X52385714Y-65254819D01*
X52385714Y-65254819D02*
X52766666Y-65254819D01*
X52766666Y-65254819D02*
X52861904Y-65302438D01*
X52861904Y-65302438D02*
X52909523Y-65350057D01*
X52909523Y-65350057D02*
X52957142Y-65445295D01*
X52957142Y-65445295D02*
X52957142Y-65588152D01*
X52957142Y-65588152D02*
X52909523Y-65683390D01*
X52909523Y-65683390D02*
X52861904Y-65731009D01*
X52861904Y-65731009D02*
X52766666Y-65778628D01*
X52766666Y-65778628D02*
X52385714Y-65778628D01*
X53909523Y-66254819D02*
X53338095Y-66254819D01*
X53623809Y-66254819D02*
X53623809Y-65254819D01*
X53623809Y-65254819D02*
X53528571Y-65397676D01*
X53528571Y-65397676D02*
X53433333Y-65492914D01*
X53433333Y-65492914D02*
X53338095Y-65540533D01*
X54861904Y-66254819D02*
X54290476Y-66254819D01*
X54576190Y-66254819D02*
X54576190Y-65254819D01*
X54576190Y-65254819D02*
X54480952Y-65397676D01*
X54480952Y-65397676D02*
X54385714Y-65492914D01*
X54385714Y-65492914D02*
X54290476Y-65540533D01*
X50157142Y-41654819D02*
X49823809Y-41178628D01*
X49585714Y-41654819D02*
X49585714Y-40654819D01*
X49585714Y-40654819D02*
X49966666Y-40654819D01*
X49966666Y-40654819D02*
X50061904Y-40702438D01*
X50061904Y-40702438D02*
X50109523Y-40750057D01*
X50109523Y-40750057D02*
X50157142Y-40845295D01*
X50157142Y-40845295D02*
X50157142Y-40988152D01*
X50157142Y-40988152D02*
X50109523Y-41083390D01*
X50109523Y-41083390D02*
X50061904Y-41131009D01*
X50061904Y-41131009D02*
X49966666Y-41178628D01*
X49966666Y-41178628D02*
X49585714Y-41178628D01*
X51109523Y-41654819D02*
X50538095Y-41654819D01*
X50823809Y-41654819D02*
X50823809Y-40654819D01*
X50823809Y-40654819D02*
X50728571Y-40797676D01*
X50728571Y-40797676D02*
X50633333Y-40892914D01*
X50633333Y-40892914D02*
X50538095Y-40940533D01*
X52014285Y-40654819D02*
X51538095Y-40654819D01*
X51538095Y-40654819D02*
X51490476Y-41131009D01*
X51490476Y-41131009D02*
X51538095Y-41083390D01*
X51538095Y-41083390D02*
X51633333Y-41035771D01*
X51633333Y-41035771D02*
X51871428Y-41035771D01*
X51871428Y-41035771D02*
X51966666Y-41083390D01*
X51966666Y-41083390D02*
X52014285Y-41131009D01*
X52014285Y-41131009D02*
X52061904Y-41226247D01*
X52061904Y-41226247D02*
X52061904Y-41464342D01*
X52061904Y-41464342D02*
X52014285Y-41559580D01*
X52014285Y-41559580D02*
X51966666Y-41607200D01*
X51966666Y-41607200D02*
X51871428Y-41654819D01*
X51871428Y-41654819D02*
X51633333Y-41654819D01*
X51633333Y-41654819D02*
X51538095Y-41607200D01*
X51538095Y-41607200D02*
X51490476Y-41559580D01*
X26152083Y-38959580D02*
X26104464Y-39007200D01*
X26104464Y-39007200D02*
X25961607Y-39054819D01*
X25961607Y-39054819D02*
X25866369Y-39054819D01*
X25866369Y-39054819D02*
X25723512Y-39007200D01*
X25723512Y-39007200D02*
X25628274Y-38911961D01*
X25628274Y-38911961D02*
X25580655Y-38816723D01*
X25580655Y-38816723D02*
X25533036Y-38626247D01*
X25533036Y-38626247D02*
X25533036Y-38483390D01*
X25533036Y-38483390D02*
X25580655Y-38292914D01*
X25580655Y-38292914D02*
X25628274Y-38197676D01*
X25628274Y-38197676D02*
X25723512Y-38102438D01*
X25723512Y-38102438D02*
X25866369Y-38054819D01*
X25866369Y-38054819D02*
X25961607Y-38054819D01*
X25961607Y-38054819D02*
X26104464Y-38102438D01*
X26104464Y-38102438D02*
X26152083Y-38150057D01*
X27009226Y-38388152D02*
X27009226Y-39054819D01*
X26771131Y-38007200D02*
X26533036Y-38721485D01*
X26533036Y-38721485D02*
X27152083Y-38721485D01*
X67559580Y-61842857D02*
X67607200Y-61890476D01*
X67607200Y-61890476D02*
X67654819Y-62033333D01*
X67654819Y-62033333D02*
X67654819Y-62128571D01*
X67654819Y-62128571D02*
X67607200Y-62271428D01*
X67607200Y-62271428D02*
X67511961Y-62366666D01*
X67511961Y-62366666D02*
X67416723Y-62414285D01*
X67416723Y-62414285D02*
X67226247Y-62461904D01*
X67226247Y-62461904D02*
X67083390Y-62461904D01*
X67083390Y-62461904D02*
X66892914Y-62414285D01*
X66892914Y-62414285D02*
X66797676Y-62366666D01*
X66797676Y-62366666D02*
X66702438Y-62271428D01*
X66702438Y-62271428D02*
X66654819Y-62128571D01*
X66654819Y-62128571D02*
X66654819Y-62033333D01*
X66654819Y-62033333D02*
X66702438Y-61890476D01*
X66702438Y-61890476D02*
X66750057Y-61842857D01*
X67654819Y-60890476D02*
X67654819Y-61461904D01*
X67654819Y-61176190D02*
X66654819Y-61176190D01*
X66654819Y-61176190D02*
X66797676Y-61271428D01*
X66797676Y-61271428D02*
X66892914Y-61366666D01*
X66892914Y-61366666D02*
X66940533Y-61461904D01*
X67654819Y-60414285D02*
X67654819Y-60223809D01*
X67654819Y-60223809D02*
X67607200Y-60128571D01*
X67607200Y-60128571D02*
X67559580Y-60080952D01*
X67559580Y-60080952D02*
X67416723Y-59985714D01*
X67416723Y-59985714D02*
X67226247Y-59938095D01*
X67226247Y-59938095D02*
X66845295Y-59938095D01*
X66845295Y-59938095D02*
X66750057Y-59985714D01*
X66750057Y-59985714D02*
X66702438Y-60033333D01*
X66702438Y-60033333D02*
X66654819Y-60128571D01*
X66654819Y-60128571D02*
X66654819Y-60319047D01*
X66654819Y-60319047D02*
X66702438Y-60414285D01*
X66702438Y-60414285D02*
X66750057Y-60461904D01*
X66750057Y-60461904D02*
X66845295Y-60509523D01*
X66845295Y-60509523D02*
X67083390Y-60509523D01*
X67083390Y-60509523D02*
X67178628Y-60461904D01*
X67178628Y-60461904D02*
X67226247Y-60414285D01*
X67226247Y-60414285D02*
X67273866Y-60319047D01*
X67273866Y-60319047D02*
X67273866Y-60128571D01*
X67273866Y-60128571D02*
X67226247Y-60033333D01*
X67226247Y-60033333D02*
X67178628Y-59985714D01*
X67178628Y-59985714D02*
X67083390Y-59938095D01*
X52359580Y-48242857D02*
X52407200Y-48290476D01*
X52407200Y-48290476D02*
X52454819Y-48433333D01*
X52454819Y-48433333D02*
X52454819Y-48528571D01*
X52454819Y-48528571D02*
X52407200Y-48671428D01*
X52407200Y-48671428D02*
X52311961Y-48766666D01*
X52311961Y-48766666D02*
X52216723Y-48814285D01*
X52216723Y-48814285D02*
X52026247Y-48861904D01*
X52026247Y-48861904D02*
X51883390Y-48861904D01*
X51883390Y-48861904D02*
X51692914Y-48814285D01*
X51692914Y-48814285D02*
X51597676Y-48766666D01*
X51597676Y-48766666D02*
X51502438Y-48671428D01*
X51502438Y-48671428D02*
X51454819Y-48528571D01*
X51454819Y-48528571D02*
X51454819Y-48433333D01*
X51454819Y-48433333D02*
X51502438Y-48290476D01*
X51502438Y-48290476D02*
X51550057Y-48242857D01*
X51550057Y-47861904D02*
X51502438Y-47814285D01*
X51502438Y-47814285D02*
X51454819Y-47719047D01*
X51454819Y-47719047D02*
X51454819Y-47480952D01*
X51454819Y-47480952D02*
X51502438Y-47385714D01*
X51502438Y-47385714D02*
X51550057Y-47338095D01*
X51550057Y-47338095D02*
X51645295Y-47290476D01*
X51645295Y-47290476D02*
X51740533Y-47290476D01*
X51740533Y-47290476D02*
X51883390Y-47338095D01*
X51883390Y-47338095D02*
X52454819Y-47909523D01*
X52454819Y-47909523D02*
X52454819Y-47290476D01*
X51883390Y-46719047D02*
X51835771Y-46814285D01*
X51835771Y-46814285D02*
X51788152Y-46861904D01*
X51788152Y-46861904D02*
X51692914Y-46909523D01*
X51692914Y-46909523D02*
X51645295Y-46909523D01*
X51645295Y-46909523D02*
X51550057Y-46861904D01*
X51550057Y-46861904D02*
X51502438Y-46814285D01*
X51502438Y-46814285D02*
X51454819Y-46719047D01*
X51454819Y-46719047D02*
X51454819Y-46528571D01*
X51454819Y-46528571D02*
X51502438Y-46433333D01*
X51502438Y-46433333D02*
X51550057Y-46385714D01*
X51550057Y-46385714D02*
X51645295Y-46338095D01*
X51645295Y-46338095D02*
X51692914Y-46338095D01*
X51692914Y-46338095D02*
X51788152Y-46385714D01*
X51788152Y-46385714D02*
X51835771Y-46433333D01*
X51835771Y-46433333D02*
X51883390Y-46528571D01*
X51883390Y-46528571D02*
X51883390Y-46719047D01*
X51883390Y-46719047D02*
X51931009Y-46814285D01*
X51931009Y-46814285D02*
X51978628Y-46861904D01*
X51978628Y-46861904D02*
X52073866Y-46909523D01*
X52073866Y-46909523D02*
X52264342Y-46909523D01*
X52264342Y-46909523D02*
X52359580Y-46861904D01*
X52359580Y-46861904D02*
X52407200Y-46814285D01*
X52407200Y-46814285D02*
X52454819Y-46719047D01*
X52454819Y-46719047D02*
X52454819Y-46528571D01*
X52454819Y-46528571D02*
X52407200Y-46433333D01*
X52407200Y-46433333D02*
X52359580Y-46385714D01*
X52359580Y-46385714D02*
X52264342Y-46338095D01*
X52264342Y-46338095D02*
X52073866Y-46338095D01*
X52073866Y-46338095D02*
X51978628Y-46385714D01*
X51978628Y-46385714D02*
X51931009Y-46433333D01*
X51931009Y-46433333D02*
X51883390Y-46528571D01*
X51757142Y-61854819D02*
X51423809Y-61378628D01*
X51185714Y-61854819D02*
X51185714Y-60854819D01*
X51185714Y-60854819D02*
X51566666Y-60854819D01*
X51566666Y-60854819D02*
X51661904Y-60902438D01*
X51661904Y-60902438D02*
X51709523Y-60950057D01*
X51709523Y-60950057D02*
X51757142Y-61045295D01*
X51757142Y-61045295D02*
X51757142Y-61188152D01*
X51757142Y-61188152D02*
X51709523Y-61283390D01*
X51709523Y-61283390D02*
X51661904Y-61331009D01*
X51661904Y-61331009D02*
X51566666Y-61378628D01*
X51566666Y-61378628D02*
X51185714Y-61378628D01*
X52709523Y-61854819D02*
X52138095Y-61854819D01*
X52423809Y-61854819D02*
X52423809Y-60854819D01*
X52423809Y-60854819D02*
X52328571Y-60997676D01*
X52328571Y-60997676D02*
X52233333Y-61092914D01*
X52233333Y-61092914D02*
X52138095Y-61140533D01*
X53090476Y-60950057D02*
X53138095Y-60902438D01*
X53138095Y-60902438D02*
X53233333Y-60854819D01*
X53233333Y-60854819D02*
X53471428Y-60854819D01*
X53471428Y-60854819D02*
X53566666Y-60902438D01*
X53566666Y-60902438D02*
X53614285Y-60950057D01*
X53614285Y-60950057D02*
X53661904Y-61045295D01*
X53661904Y-61045295D02*
X53661904Y-61140533D01*
X53661904Y-61140533D02*
X53614285Y-61283390D01*
X53614285Y-61283390D02*
X53042857Y-61854819D01*
X53042857Y-61854819D02*
X53661904Y-61854819D01*
X50557142Y-56654819D02*
X50223809Y-56178628D01*
X49985714Y-56654819D02*
X49985714Y-55654819D01*
X49985714Y-55654819D02*
X50366666Y-55654819D01*
X50366666Y-55654819D02*
X50461904Y-55702438D01*
X50461904Y-55702438D02*
X50509523Y-55750057D01*
X50509523Y-55750057D02*
X50557142Y-55845295D01*
X50557142Y-55845295D02*
X50557142Y-55988152D01*
X50557142Y-55988152D02*
X50509523Y-56083390D01*
X50509523Y-56083390D02*
X50461904Y-56131009D01*
X50461904Y-56131009D02*
X50366666Y-56178628D01*
X50366666Y-56178628D02*
X49985714Y-56178628D01*
X51509523Y-56654819D02*
X50938095Y-56654819D01*
X51223809Y-56654819D02*
X51223809Y-55654819D01*
X51223809Y-55654819D02*
X51128571Y-55797676D01*
X51128571Y-55797676D02*
X51033333Y-55892914D01*
X51033333Y-55892914D02*
X50938095Y-55940533D01*
X51842857Y-55654819D02*
X52461904Y-55654819D01*
X52461904Y-55654819D02*
X52128571Y-56035771D01*
X52128571Y-56035771D02*
X52271428Y-56035771D01*
X52271428Y-56035771D02*
X52366666Y-56083390D01*
X52366666Y-56083390D02*
X52414285Y-56131009D01*
X52414285Y-56131009D02*
X52461904Y-56226247D01*
X52461904Y-56226247D02*
X52461904Y-56464342D01*
X52461904Y-56464342D02*
X52414285Y-56559580D01*
X52414285Y-56559580D02*
X52366666Y-56607200D01*
X52366666Y-56607200D02*
X52271428Y-56654819D01*
X52271428Y-56654819D02*
X51985714Y-56654819D01*
X51985714Y-56654819D02*
X51890476Y-56607200D01*
X51890476Y-56607200D02*
X51842857Y-56559580D01*
X54957142Y-46359580D02*
X54909523Y-46407200D01*
X54909523Y-46407200D02*
X54766666Y-46454819D01*
X54766666Y-46454819D02*
X54671428Y-46454819D01*
X54671428Y-46454819D02*
X54528571Y-46407200D01*
X54528571Y-46407200D02*
X54433333Y-46311961D01*
X54433333Y-46311961D02*
X54385714Y-46216723D01*
X54385714Y-46216723D02*
X54338095Y-46026247D01*
X54338095Y-46026247D02*
X54338095Y-45883390D01*
X54338095Y-45883390D02*
X54385714Y-45692914D01*
X54385714Y-45692914D02*
X54433333Y-45597676D01*
X54433333Y-45597676D02*
X54528571Y-45502438D01*
X54528571Y-45502438D02*
X54671428Y-45454819D01*
X54671428Y-45454819D02*
X54766666Y-45454819D01*
X54766666Y-45454819D02*
X54909523Y-45502438D01*
X54909523Y-45502438D02*
X54957142Y-45550057D01*
X55290476Y-45454819D02*
X55909523Y-45454819D01*
X55909523Y-45454819D02*
X55576190Y-45835771D01*
X55576190Y-45835771D02*
X55719047Y-45835771D01*
X55719047Y-45835771D02*
X55814285Y-45883390D01*
X55814285Y-45883390D02*
X55861904Y-45931009D01*
X55861904Y-45931009D02*
X55909523Y-46026247D01*
X55909523Y-46026247D02*
X55909523Y-46264342D01*
X55909523Y-46264342D02*
X55861904Y-46359580D01*
X55861904Y-46359580D02*
X55814285Y-46407200D01*
X55814285Y-46407200D02*
X55719047Y-46454819D01*
X55719047Y-46454819D02*
X55433333Y-46454819D01*
X55433333Y-46454819D02*
X55338095Y-46407200D01*
X55338095Y-46407200D02*
X55290476Y-46359580D01*
X56814285Y-45454819D02*
X56338095Y-45454819D01*
X56338095Y-45454819D02*
X56290476Y-45931009D01*
X56290476Y-45931009D02*
X56338095Y-45883390D01*
X56338095Y-45883390D02*
X56433333Y-45835771D01*
X56433333Y-45835771D02*
X56671428Y-45835771D01*
X56671428Y-45835771D02*
X56766666Y-45883390D01*
X56766666Y-45883390D02*
X56814285Y-45931009D01*
X56814285Y-45931009D02*
X56861904Y-46026247D01*
X56861904Y-46026247D02*
X56861904Y-46264342D01*
X56861904Y-46264342D02*
X56814285Y-46359580D01*
X56814285Y-46359580D02*
X56766666Y-46407200D01*
X56766666Y-46407200D02*
X56671428Y-46454819D01*
X56671428Y-46454819D02*
X56433333Y-46454819D01*
X56433333Y-46454819D02*
X56338095Y-46407200D01*
X56338095Y-46407200D02*
X56290476Y-46359580D01*
X49438095Y-47854819D02*
X49438095Y-48664342D01*
X49438095Y-48664342D02*
X49485714Y-48759580D01*
X49485714Y-48759580D02*
X49533333Y-48807200D01*
X49533333Y-48807200D02*
X49628571Y-48854819D01*
X49628571Y-48854819D02*
X49819047Y-48854819D01*
X49819047Y-48854819D02*
X49914285Y-48807200D01*
X49914285Y-48807200D02*
X49961904Y-48759580D01*
X49961904Y-48759580D02*
X50009523Y-48664342D01*
X50009523Y-48664342D02*
X50009523Y-47854819D01*
X50390476Y-47854819D02*
X51057142Y-47854819D01*
X51057142Y-47854819D02*
X50628571Y-48854819D01*
X67359580Y-73242857D02*
X67407200Y-73290476D01*
X67407200Y-73290476D02*
X67454819Y-73433333D01*
X67454819Y-73433333D02*
X67454819Y-73528571D01*
X67454819Y-73528571D02*
X67407200Y-73671428D01*
X67407200Y-73671428D02*
X67311961Y-73766666D01*
X67311961Y-73766666D02*
X67216723Y-73814285D01*
X67216723Y-73814285D02*
X67026247Y-73861904D01*
X67026247Y-73861904D02*
X66883390Y-73861904D01*
X66883390Y-73861904D02*
X66692914Y-73814285D01*
X66692914Y-73814285D02*
X66597676Y-73766666D01*
X66597676Y-73766666D02*
X66502438Y-73671428D01*
X66502438Y-73671428D02*
X66454819Y-73528571D01*
X66454819Y-73528571D02*
X66454819Y-73433333D01*
X66454819Y-73433333D02*
X66502438Y-73290476D01*
X66502438Y-73290476D02*
X66550057Y-73242857D01*
X66550057Y-72861904D02*
X66502438Y-72814285D01*
X66502438Y-72814285D02*
X66454819Y-72719047D01*
X66454819Y-72719047D02*
X66454819Y-72480952D01*
X66454819Y-72480952D02*
X66502438Y-72385714D01*
X66502438Y-72385714D02*
X66550057Y-72338095D01*
X66550057Y-72338095D02*
X66645295Y-72290476D01*
X66645295Y-72290476D02*
X66740533Y-72290476D01*
X66740533Y-72290476D02*
X66883390Y-72338095D01*
X66883390Y-72338095D02*
X67454819Y-72909523D01*
X67454819Y-72909523D02*
X67454819Y-72290476D01*
X66454819Y-71433333D02*
X66454819Y-71623809D01*
X66454819Y-71623809D02*
X66502438Y-71719047D01*
X66502438Y-71719047D02*
X66550057Y-71766666D01*
X66550057Y-71766666D02*
X66692914Y-71861904D01*
X66692914Y-71861904D02*
X66883390Y-71909523D01*
X66883390Y-71909523D02*
X67264342Y-71909523D01*
X67264342Y-71909523D02*
X67359580Y-71861904D01*
X67359580Y-71861904D02*
X67407200Y-71814285D01*
X67407200Y-71814285D02*
X67454819Y-71719047D01*
X67454819Y-71719047D02*
X67454819Y-71528571D01*
X67454819Y-71528571D02*
X67407200Y-71433333D01*
X67407200Y-71433333D02*
X67359580Y-71385714D01*
X67359580Y-71385714D02*
X67264342Y-71338095D01*
X67264342Y-71338095D02*
X67026247Y-71338095D01*
X67026247Y-71338095D02*
X66931009Y-71385714D01*
X66931009Y-71385714D02*
X66883390Y-71433333D01*
X66883390Y-71433333D02*
X66835771Y-71528571D01*
X66835771Y-71528571D02*
X66835771Y-71719047D01*
X66835771Y-71719047D02*
X66883390Y-71814285D01*
X66883390Y-71814285D02*
X66931009Y-71861904D01*
X66931009Y-71861904D02*
X67026247Y-71909523D01*
X24238095Y-54854819D02*
X24238095Y-55664342D01*
X24238095Y-55664342D02*
X24285714Y-55759580D01*
X24285714Y-55759580D02*
X24333333Y-55807200D01*
X24333333Y-55807200D02*
X24428571Y-55854819D01*
X24428571Y-55854819D02*
X24619047Y-55854819D01*
X24619047Y-55854819D02*
X24714285Y-55807200D01*
X24714285Y-55807200D02*
X24761904Y-55759580D01*
X24761904Y-55759580D02*
X24809523Y-55664342D01*
X24809523Y-55664342D02*
X24809523Y-54854819D01*
X25238095Y-54950057D02*
X25285714Y-54902438D01*
X25285714Y-54902438D02*
X25380952Y-54854819D01*
X25380952Y-54854819D02*
X25619047Y-54854819D01*
X25619047Y-54854819D02*
X25714285Y-54902438D01*
X25714285Y-54902438D02*
X25761904Y-54950057D01*
X25761904Y-54950057D02*
X25809523Y-55045295D01*
X25809523Y-55045295D02*
X25809523Y-55140533D01*
X25809523Y-55140533D02*
X25761904Y-55283390D01*
X25761904Y-55283390D02*
X25190476Y-55854819D01*
X25190476Y-55854819D02*
X25809523Y-55854819D01*
D13*
%TO.C,D1*%
X19745000Y-73915000D02*
X19745000Y-70055000D01*
X19745000Y-73915000D02*
X21745000Y-73915000D01*
X21745000Y-73915000D02*
X21745000Y-70055000D01*
%TO.C,R9*%
X59612258Y-48297500D02*
X59137742Y-48297500D01*
X59612258Y-49342500D02*
X59137742Y-49342500D01*
%TO.C,C27*%
X68655000Y-68908748D02*
X68655000Y-69431252D01*
X70125000Y-68908748D02*
X70125000Y-69431252D01*
%TO.C,SW1*%
X59030000Y-44550000D02*
X63170000Y-44550000D01*
X59030000Y-44850000D02*
X59030000Y-44550000D01*
X59030000Y-47690000D02*
X59030000Y-47390000D01*
X63170000Y-44550000D02*
X63170000Y-44850000D01*
X63170000Y-47390000D02*
X63170000Y-47690000D01*
X63170000Y-47690000D02*
X59030000Y-47690000D01*
%TO.C,C2*%
X22710000Y-77716252D02*
X22710000Y-76293748D01*
X25430000Y-77716252D02*
X25430000Y-76293748D01*
%TO.C,C13*%
X52850000Y-67734437D02*
X52850000Y-77390000D01*
X52850000Y-77390000D02*
X56700000Y-77390000D01*
X53914437Y-66670000D02*
X52850000Y-67734437D01*
X53914437Y-66670000D02*
X56700000Y-66670000D01*
X60970000Y-65180000D02*
X60970000Y-66430000D01*
X61595000Y-65805000D02*
X60345000Y-65805000D01*
X62505563Y-66670000D02*
X59720000Y-66670000D01*
X62505563Y-66670000D02*
X63570000Y-67734437D01*
X63570000Y-67734437D02*
X63570000Y-77390000D01*
X63570000Y-77390000D02*
X59720000Y-77390000D01*
%TO.C,R3*%
X28397500Y-50799724D02*
X28397500Y-50290276D01*
X29442500Y-50799724D02*
X29442500Y-50290276D01*
%TO.C,C7*%
X19235000Y-77666252D02*
X19235000Y-76243748D01*
X21955000Y-77666252D02*
X21955000Y-76243748D01*
%TO.C,C22*%
X47865000Y-58529420D02*
X47865000Y-58810580D01*
X48885000Y-58529420D02*
X48885000Y-58810580D01*
%TO.C,C8*%
X22685000Y-71068748D02*
X22685000Y-72491252D01*
X25405000Y-71068748D02*
X25405000Y-72491252D01*
%TO.C,Q1*%
X26520000Y-78185000D02*
X26520000Y-72065000D01*
X31890000Y-78185000D02*
X31890000Y-72505000D01*
X31955270Y-72233378D02*
X31625270Y-71993378D01*
X31955270Y-71753378D01*
X31955270Y-72233378D01*
G36*
X31955270Y-72233378D02*
G01*
X31625270Y-71993378D01*
X31955270Y-71753378D01*
X31955270Y-72233378D01*
G37*
%TO.C,L3*%
X36390000Y-47352500D02*
X43790000Y-47352500D01*
X36390000Y-49652500D02*
X36390000Y-47352500D01*
X36390000Y-54752500D02*
X36390000Y-52452500D01*
X43790000Y-47352500D02*
X43790000Y-49652500D01*
X43790000Y-52452500D02*
X43790000Y-54752500D01*
X43790000Y-54752500D02*
X36390000Y-54752500D01*
%TO.C,C12*%
X55180000Y-51590000D02*
X59030000Y-51590000D01*
X55180000Y-61245563D02*
X55180000Y-51590000D01*
X56244437Y-62310000D02*
X55180000Y-61245563D01*
X56244437Y-62310000D02*
X59030000Y-62310000D01*
X57155000Y-63175000D02*
X58405000Y-63175000D01*
X57780000Y-63800000D02*
X57780000Y-62550000D01*
X64835563Y-62310000D02*
X62050000Y-62310000D01*
X64835563Y-62310000D02*
X65900000Y-61245563D01*
X65900000Y-51590000D02*
X62050000Y-51590000D01*
X65900000Y-61245563D02*
X65900000Y-51590000D01*
%TO.C,U5*%
X41340000Y-57060000D02*
X45960000Y-57060000D01*
X41340000Y-57235000D02*
X41340000Y-57060000D01*
X41340000Y-60280000D02*
X41340000Y-60105000D01*
X45960000Y-57060000D02*
X45960000Y-57235000D01*
X45960000Y-60105000D02*
X45960000Y-60280000D01*
X45960000Y-60280000D02*
X41340000Y-60280000D01*
X46760000Y-60440000D02*
X46280000Y-60440000D01*
X46520000Y-60110000D01*
X46760000Y-60440000D01*
G36*
X46760000Y-60440000D02*
G01*
X46280000Y-60440000D01*
X46520000Y-60110000D01*
X46760000Y-60440000D01*
G37*
%TO.C,R14*%
X52887500Y-55105276D02*
X52887500Y-55614724D01*
X53932500Y-55105276D02*
X53932500Y-55614724D01*
%TO.C,C18*%
X64035000Y-64811252D02*
X64035000Y-64288748D01*
X65505000Y-64811252D02*
X65505000Y-64288748D01*
%TO.C,C3*%
X30095000Y-50635580D02*
X30095000Y-50354420D01*
X31115000Y-50635580D02*
X31115000Y-50354420D01*
%TO.C,U8*%
X37880000Y-39942500D02*
X42000000Y-39942500D01*
X37880000Y-40037500D02*
X37880000Y-39942500D01*
X37880000Y-45062500D02*
X37880000Y-44967500D01*
X42000000Y-39942500D02*
X42000000Y-40037500D01*
X42000000Y-44967500D02*
X42000000Y-45062500D01*
X42000000Y-45062500D02*
X37880000Y-45062500D01*
X42780000Y-45302500D02*
X42300000Y-45302500D01*
X42540000Y-44972500D01*
X42780000Y-45302500D01*
G36*
X42780000Y-45302500D02*
G01*
X42300000Y-45302500D01*
X42540000Y-44972500D01*
X42780000Y-45302500D01*
G37*
%TO.C,C37*%
X29585000Y-42756252D02*
X29585000Y-42233748D01*
X31055000Y-42756252D02*
X31055000Y-42233748D01*
%TO.C,C11*%
X62765580Y-48310000D02*
X62484420Y-48310000D01*
X62765580Y-49330000D02*
X62484420Y-49330000D01*
%TO.C,Q2*%
X26620000Y-70410000D02*
X26620000Y-64290000D01*
X31990000Y-70410000D02*
X31990000Y-64730000D01*
X32055270Y-64458378D02*
X31725270Y-64218378D01*
X32055270Y-63978378D01*
X32055270Y-64458378D01*
G36*
X32055270Y-64458378D02*
G01*
X31725270Y-64218378D01*
X32055270Y-63978378D01*
X32055270Y-64458378D01*
G37*
%TO.C,L1*%
X21090000Y-42820000D02*
X21090000Y-41970000D01*
X21090000Y-47520000D02*
X21090000Y-46720000D01*
X21700000Y-41360000D02*
X27400000Y-41360000D01*
X27400000Y-48180000D02*
X21750000Y-48180000D01*
X28010000Y-41970000D02*
X28010000Y-42820000D01*
X28010000Y-46720000D02*
X28010000Y-47570000D01*
X21090000Y-41970000D02*
G75*
G02*
X21700000Y-41360000I610000J0D01*
G01*
X21750000Y-48180000D02*
G75*
G02*
X21090000Y-47520000I2J660002D01*
G01*
X27400000Y-41360000D02*
G75*
G02*
X28010000Y-41970000I0J-610000D01*
G01*
X28010000Y-47570000D02*
G75*
G02*
X27400000Y-48180000I-610000J0D01*
G01*
%TO.C,C21*%
X37734420Y-57160000D02*
X38015580Y-57160000D01*
X37734420Y-58180000D02*
X38015580Y-58180000D01*
%TO.C,C31*%
X44580000Y-40627500D02*
X44580000Y-48692500D01*
X44580000Y-48692500D02*
X49100000Y-48692500D01*
X49100000Y-48692500D02*
X49100000Y-40627500D01*
%TO.C,C40*%
X68605000Y-64851252D02*
X68605000Y-64328748D01*
X70075000Y-64851252D02*
X70075000Y-64328748D01*
%TO.C,C6*%
X29610000Y-46258748D02*
X29610000Y-46781252D01*
X31080000Y-46258748D02*
X31080000Y-46781252D01*
%TO.C,D6*%
X18150000Y-51935000D02*
X18150000Y-55795000D01*
X20150000Y-51935000D02*
X18150000Y-51935000D01*
X20150000Y-51935000D02*
X20150000Y-55795000D01*
%TO.C,J5*%
X76790000Y-58990000D02*
X76790000Y-70510000D01*
X79010000Y-58990000D02*
X79010000Y-59690000D01*
X79010000Y-69810000D02*
X79010000Y-70510000D01*
X81060000Y-59690000D02*
X79010000Y-59690000D01*
X81060000Y-59690000D02*
X81060000Y-60220000D01*
X81060000Y-69280000D02*
X81060000Y-69810000D01*
X81060000Y-69810000D02*
X79010000Y-69810000D01*
X87060000Y-60220000D02*
X81060000Y-60220000D01*
X87060000Y-60220000D02*
X87060000Y-69250000D01*
X87060000Y-69280000D02*
X81060000Y-69280000D01*
X76803365Y-58928271D02*
G75*
G02*
X79010000Y-59100000I1096635J-171730D01*
G01*
X79010000Y-70400000D02*
G75*
G02*
X76790000Y-70400000I-1110000J0D01*
G01*
%TO.C,C34*%
X66020000Y-46179420D02*
X66020000Y-46460580D01*
X67040000Y-46179420D02*
X67040000Y-46460580D01*
%TO.C,C36*%
X46690000Y-50659420D02*
X46690000Y-50940580D01*
X47710000Y-50659420D02*
X47710000Y-50940580D01*
%TO.C,C5*%
X28290000Y-53804420D02*
X28290000Y-54085580D01*
X29310000Y-53804420D02*
X29310000Y-54085580D01*
%TO.C,R4*%
X30002500Y-54237224D02*
X30002500Y-53727776D01*
X31047500Y-54237224D02*
X31047500Y-53727776D01*
%TO.C,C15*%
X64085000Y-68888748D02*
X64085000Y-69411252D01*
X65555000Y-68888748D02*
X65555000Y-69411252D01*
%TO.C,C43*%
X64410000Y-46229420D02*
X64410000Y-46510580D01*
X65430000Y-46229420D02*
X65430000Y-46510580D01*
%TO.C,R10*%
X64017500Y-42245276D02*
X64017500Y-42754724D01*
X65062500Y-42245276D02*
X65062500Y-42754724D01*
%TO.C,C1*%
X18440000Y-49956252D02*
X18440000Y-49433748D01*
X19910000Y-49956252D02*
X19910000Y-49433748D01*
%TO.C,R2*%
X22539026Y-39622500D02*
X23048474Y-39622500D01*
X22539026Y-40667500D02*
X23048474Y-40667500D01*
%TO.C,C30*%
X39886267Y-45692500D02*
X39593733Y-45692500D01*
X39886267Y-46712500D02*
X39593733Y-46712500D01*
%TO.C,D5*%
X51860000Y-42465000D02*
X51860000Y-44925000D01*
X53330000Y-42465000D02*
X51860000Y-42465000D01*
X53330000Y-44925000D02*
X53330000Y-42465000D01*
%TO.C,R1*%
X21925276Y-54835000D02*
X22434724Y-54835000D01*
X21925276Y-55880000D02*
X22434724Y-55880000D01*
%TO.C,J2*%
X3010000Y-66270000D02*
X5110000Y-66270000D01*
X3010000Y-76390000D02*
X3010000Y-66270000D01*
X3010000Y-76390000D02*
X5110000Y-76390000D01*
X5110000Y-66270000D02*
X5110000Y-65680000D01*
X5110000Y-76980000D02*
X5110000Y-76390000D01*
X7330000Y-66270000D02*
X7330000Y-65680000D01*
X7330000Y-66270000D02*
X12230000Y-66270000D01*
X7330000Y-76390000D02*
X12230000Y-76390000D01*
X7330000Y-76980000D02*
X7330000Y-76390000D01*
X12230000Y-76390000D02*
X12230000Y-66270000D01*
X5110000Y-65680000D02*
G75*
G02*
X7330000Y-65680000I1110000J0D01*
G01*
X7330000Y-76980000D02*
G75*
G02*
X5110000Y-76980000I-1110000J0D01*
G01*
%TO.C,L2*%
X33165000Y-61495000D02*
X50835000Y-61495000D01*
X33165000Y-63520000D02*
X33165000Y-61495000D01*
X33165000Y-78865000D02*
X33165000Y-76840000D01*
X50835000Y-61495000D02*
X50835000Y-63520000D01*
X50835000Y-76840000D02*
X50835000Y-78865000D01*
X50835000Y-78865000D02*
X33165000Y-78865000D01*
%TO.C,D13*%
X32340000Y-46937500D02*
X32340000Y-41427500D01*
X32340000Y-46937500D02*
X35640000Y-46937500D01*
X35640000Y-46937500D02*
X35640000Y-41427500D01*
%TO.C,R11*%
X53542936Y-63120000D02*
X54997064Y-63120000D01*
X53542936Y-64940000D02*
X54997064Y-64940000D01*
%TO.C,R15*%
X49997500Y-43882776D02*
X49997500Y-44392224D01*
X51042500Y-43882776D02*
X51042500Y-44392224D01*
%TO.C,C4*%
X26178170Y-39635000D02*
X26459330Y-39635000D01*
X26178170Y-40655000D02*
X26459330Y-40655000D01*
%TO.C,C19*%
X66215000Y-64811252D02*
X66215000Y-64288748D01*
X67685000Y-64811252D02*
X67685000Y-64288748D01*
%TO.C,C28*%
X52972500Y-51148767D02*
X52972500Y-50856233D01*
X53992500Y-51148767D02*
X53992500Y-50856233D01*
%TO.C,R12*%
X50705276Y-59097500D02*
X51214724Y-59097500D01*
X50705276Y-60142500D02*
X51214724Y-60142500D01*
%TO.C,R13*%
X50655276Y-57207500D02*
X51164724Y-57207500D01*
X50655276Y-58252500D02*
X51164724Y-58252500D01*
%TO.C,C35*%
X52890000Y-47439420D02*
X52890000Y-47720580D01*
X53910000Y-47439420D02*
X53910000Y-47720580D01*
%TO.C,U7*%
X49500000Y-49170000D02*
X51320000Y-49170000D01*
X49500000Y-49220000D02*
X49500000Y-49170000D01*
X49500000Y-52290000D02*
X49500000Y-52240000D01*
X51320000Y-49170000D02*
X51320000Y-49220000D01*
X51320000Y-50340000D02*
X51320000Y-51120000D01*
X51320000Y-52240000D02*
X51320000Y-52290000D01*
X51320000Y-52290000D02*
X49500000Y-52290000D01*
X48960000Y-49220000D02*
X48720000Y-48890000D01*
X49200000Y-48890000D01*
X48960000Y-49220000D01*
G36*
X48960000Y-49220000D02*
G01*
X48720000Y-48890000D01*
X49200000Y-48890000D01*
X48960000Y-49220000D01*
G37*
%TO.C,C26*%
X66225000Y-68848748D02*
X66225000Y-69371252D01*
X67695000Y-68848748D02*
X67695000Y-69371252D01*
%TO.C,U2*%
X22165000Y-49010000D02*
X26285000Y-49010000D01*
X22165000Y-49105000D02*
X22165000Y-49010000D01*
X22165000Y-54130000D02*
X22165000Y-54035000D01*
X26285000Y-49010000D02*
X26285000Y-49105000D01*
X26285000Y-54035000D02*
X26285000Y-54130000D01*
X26285000Y-54130000D02*
X22165000Y-54130000D01*
X21565000Y-49100000D02*
X21325000Y-48770000D01*
X21805000Y-48770000D01*
X21565000Y-49100000D01*
G36*
X21565000Y-49100000D02*
G01*
X21325000Y-48770000D01*
X21805000Y-48770000D01*
X21565000Y-49100000D01*
G37*
%TD*%
M02*
