%TF.GenerationSoftware,KiCad,Pcbnew,9.0.5*%
%TF.CreationDate,2026-05-01T14:46:18+08:00*%
%TF.ProjectId,__buck,70a76275-636b-42e6-9b69-6361645f7063,rev?*%
%TF.SameCoordinates,Original*%
%TF.FileFunction,Legend,Bot*%
%TF.FilePolarity,Positive*%
%FSLAX46Y46*%
G04 Gerber Fmt 4.6, Leading zero omitted, Abs format (unit mm)*
G04 Created by KiCad (PCBNEW 9.0.5) date 2026-05-01 14:46:18*
%MOMM*%
%LPD*%
G01*
G04 APERTURE LIST*
%ADD10C,0.150000*%
%ADD11C,0.120000*%
G04 APERTURE END LIST*
D10*
X136642857Y-76609580D02*
X136690476Y-76657200D01*
X136690476Y-76657200D02*
X136833333Y-76704819D01*
X136833333Y-76704819D02*
X136928571Y-76704819D01*
X136928571Y-76704819D02*
X137071428Y-76657200D01*
X137071428Y-76657200D02*
X137166666Y-76561961D01*
X137166666Y-76561961D02*
X137214285Y-76466723D01*
X137214285Y-76466723D02*
X137261904Y-76276247D01*
X137261904Y-76276247D02*
X137261904Y-76133390D01*
X137261904Y-76133390D02*
X137214285Y-75942914D01*
X137214285Y-75942914D02*
X137166666Y-75847676D01*
X137166666Y-75847676D02*
X137071428Y-75752438D01*
X137071428Y-75752438D02*
X136928571Y-75704819D01*
X136928571Y-75704819D02*
X136833333Y-75704819D01*
X136833333Y-75704819D02*
X136690476Y-75752438D01*
X136690476Y-75752438D02*
X136642857Y-75800057D01*
X136309523Y-75704819D02*
X135690476Y-75704819D01*
X135690476Y-75704819D02*
X136023809Y-76085771D01*
X136023809Y-76085771D02*
X135880952Y-76085771D01*
X135880952Y-76085771D02*
X135785714Y-76133390D01*
X135785714Y-76133390D02*
X135738095Y-76181009D01*
X135738095Y-76181009D02*
X135690476Y-76276247D01*
X135690476Y-76276247D02*
X135690476Y-76514342D01*
X135690476Y-76514342D02*
X135738095Y-76609580D01*
X135738095Y-76609580D02*
X135785714Y-76657200D01*
X135785714Y-76657200D02*
X135880952Y-76704819D01*
X135880952Y-76704819D02*
X136166666Y-76704819D01*
X136166666Y-76704819D02*
X136261904Y-76657200D01*
X136261904Y-76657200D02*
X136309523Y-76609580D01*
X135309523Y-75800057D02*
X135261904Y-75752438D01*
X135261904Y-75752438D02*
X135166666Y-75704819D01*
X135166666Y-75704819D02*
X134928571Y-75704819D01*
X134928571Y-75704819D02*
X134833333Y-75752438D01*
X134833333Y-75752438D02*
X134785714Y-75800057D01*
X134785714Y-75800057D02*
X134738095Y-75895295D01*
X134738095Y-75895295D02*
X134738095Y-75990533D01*
X134738095Y-75990533D02*
X134785714Y-76133390D01*
X134785714Y-76133390D02*
X135357142Y-76704819D01*
X135357142Y-76704819D02*
X134738095Y-76704819D01*
X152642857Y-60609580D02*
X152690476Y-60657200D01*
X152690476Y-60657200D02*
X152833333Y-60704819D01*
X152833333Y-60704819D02*
X152928571Y-60704819D01*
X152928571Y-60704819D02*
X153071428Y-60657200D01*
X153071428Y-60657200D02*
X153166666Y-60561961D01*
X153166666Y-60561961D02*
X153214285Y-60466723D01*
X153214285Y-60466723D02*
X153261904Y-60276247D01*
X153261904Y-60276247D02*
X153261904Y-60133390D01*
X153261904Y-60133390D02*
X153214285Y-59942914D01*
X153214285Y-59942914D02*
X153166666Y-59847676D01*
X153166666Y-59847676D02*
X153071428Y-59752438D01*
X153071428Y-59752438D02*
X152928571Y-59704819D01*
X152928571Y-59704819D02*
X152833333Y-59704819D01*
X152833333Y-59704819D02*
X152690476Y-59752438D01*
X152690476Y-59752438D02*
X152642857Y-59800057D01*
X152309523Y-59704819D02*
X151690476Y-59704819D01*
X151690476Y-59704819D02*
X152023809Y-60085771D01*
X152023809Y-60085771D02*
X151880952Y-60085771D01*
X151880952Y-60085771D02*
X151785714Y-60133390D01*
X151785714Y-60133390D02*
X151738095Y-60181009D01*
X151738095Y-60181009D02*
X151690476Y-60276247D01*
X151690476Y-60276247D02*
X151690476Y-60514342D01*
X151690476Y-60514342D02*
X151738095Y-60609580D01*
X151738095Y-60609580D02*
X151785714Y-60657200D01*
X151785714Y-60657200D02*
X151880952Y-60704819D01*
X151880952Y-60704819D02*
X152166666Y-60704819D01*
X152166666Y-60704819D02*
X152261904Y-60657200D01*
X152261904Y-60657200D02*
X152309523Y-60609580D01*
X150785714Y-59704819D02*
X151261904Y-59704819D01*
X151261904Y-59704819D02*
X151309523Y-60181009D01*
X151309523Y-60181009D02*
X151261904Y-60133390D01*
X151261904Y-60133390D02*
X151166666Y-60085771D01*
X151166666Y-60085771D02*
X150928571Y-60085771D01*
X150928571Y-60085771D02*
X150833333Y-60133390D01*
X150833333Y-60133390D02*
X150785714Y-60181009D01*
X150785714Y-60181009D02*
X150738095Y-60276247D01*
X150738095Y-60276247D02*
X150738095Y-60514342D01*
X150738095Y-60514342D02*
X150785714Y-60609580D01*
X150785714Y-60609580D02*
X150833333Y-60657200D01*
X150833333Y-60657200D02*
X150928571Y-60704819D01*
X150928571Y-60704819D02*
X151166666Y-60704819D01*
X151166666Y-60704819D02*
X151261904Y-60657200D01*
X151261904Y-60657200D02*
X151309523Y-60609580D01*
X135642857Y-73359580D02*
X135690476Y-73407200D01*
X135690476Y-73407200D02*
X135833333Y-73454819D01*
X135833333Y-73454819D02*
X135928571Y-73454819D01*
X135928571Y-73454819D02*
X136071428Y-73407200D01*
X136071428Y-73407200D02*
X136166666Y-73311961D01*
X136166666Y-73311961D02*
X136214285Y-73216723D01*
X136214285Y-73216723D02*
X136261904Y-73026247D01*
X136261904Y-73026247D02*
X136261904Y-72883390D01*
X136261904Y-72883390D02*
X136214285Y-72692914D01*
X136214285Y-72692914D02*
X136166666Y-72597676D01*
X136166666Y-72597676D02*
X136071428Y-72502438D01*
X136071428Y-72502438D02*
X135928571Y-72454819D01*
X135928571Y-72454819D02*
X135833333Y-72454819D01*
X135833333Y-72454819D02*
X135690476Y-72502438D01*
X135690476Y-72502438D02*
X135642857Y-72550057D01*
X134690476Y-73454819D02*
X135261904Y-73454819D01*
X134976190Y-73454819D02*
X134976190Y-72454819D01*
X134976190Y-72454819D02*
X135071428Y-72597676D01*
X135071428Y-72597676D02*
X135166666Y-72692914D01*
X135166666Y-72692914D02*
X135261904Y-72740533D01*
X133833333Y-72788152D02*
X133833333Y-73454819D01*
X134071428Y-72407200D02*
X134309523Y-73121485D01*
X134309523Y-73121485D02*
X133690476Y-73121485D01*
X145261904Y-66454819D02*
X145261904Y-67264342D01*
X145261904Y-67264342D02*
X145214285Y-67359580D01*
X145214285Y-67359580D02*
X145166666Y-67407200D01*
X145166666Y-67407200D02*
X145071428Y-67454819D01*
X145071428Y-67454819D02*
X144880952Y-67454819D01*
X144880952Y-67454819D02*
X144785714Y-67407200D01*
X144785714Y-67407200D02*
X144738095Y-67359580D01*
X144738095Y-67359580D02*
X144690476Y-67264342D01*
X144690476Y-67264342D02*
X144690476Y-66454819D01*
X143690476Y-67454819D02*
X144261904Y-67454819D01*
X143976190Y-67454819D02*
X143976190Y-66454819D01*
X143976190Y-66454819D02*
X144071428Y-66597676D01*
X144071428Y-66597676D02*
X144166666Y-66692914D01*
X144166666Y-66692914D02*
X144261904Y-66740533D01*
X159833333Y-72804819D02*
X159833333Y-73519104D01*
X159833333Y-73519104D02*
X159880952Y-73661961D01*
X159880952Y-73661961D02*
X159976190Y-73757200D01*
X159976190Y-73757200D02*
X160119047Y-73804819D01*
X160119047Y-73804819D02*
X160214285Y-73804819D01*
X158833333Y-73804819D02*
X159404761Y-73804819D01*
X159119047Y-73804819D02*
X159119047Y-72804819D01*
X159119047Y-72804819D02*
X159214285Y-72947676D01*
X159214285Y-72947676D02*
X159309523Y-73042914D01*
X159309523Y-73042914D02*
X159404761Y-73090533D01*
X157642857Y-48359580D02*
X157690476Y-48407200D01*
X157690476Y-48407200D02*
X157833333Y-48454819D01*
X157833333Y-48454819D02*
X157928571Y-48454819D01*
X157928571Y-48454819D02*
X158071428Y-48407200D01*
X158071428Y-48407200D02*
X158166666Y-48311961D01*
X158166666Y-48311961D02*
X158214285Y-48216723D01*
X158214285Y-48216723D02*
X158261904Y-48026247D01*
X158261904Y-48026247D02*
X158261904Y-47883390D01*
X158261904Y-47883390D02*
X158214285Y-47692914D01*
X158214285Y-47692914D02*
X158166666Y-47597676D01*
X158166666Y-47597676D02*
X158071428Y-47502438D01*
X158071428Y-47502438D02*
X157928571Y-47454819D01*
X157928571Y-47454819D02*
X157833333Y-47454819D01*
X157833333Y-47454819D02*
X157690476Y-47502438D01*
X157690476Y-47502438D02*
X157642857Y-47550057D01*
X157261904Y-47550057D02*
X157214285Y-47502438D01*
X157214285Y-47502438D02*
X157119047Y-47454819D01*
X157119047Y-47454819D02*
X156880952Y-47454819D01*
X156880952Y-47454819D02*
X156785714Y-47502438D01*
X156785714Y-47502438D02*
X156738095Y-47550057D01*
X156738095Y-47550057D02*
X156690476Y-47645295D01*
X156690476Y-47645295D02*
X156690476Y-47740533D01*
X156690476Y-47740533D02*
X156738095Y-47883390D01*
X156738095Y-47883390D02*
X157309523Y-48454819D01*
X157309523Y-48454819D02*
X156690476Y-48454819D01*
X156309523Y-47550057D02*
X156261904Y-47502438D01*
X156261904Y-47502438D02*
X156166666Y-47454819D01*
X156166666Y-47454819D02*
X155928571Y-47454819D01*
X155928571Y-47454819D02*
X155833333Y-47502438D01*
X155833333Y-47502438D02*
X155785714Y-47550057D01*
X155785714Y-47550057D02*
X155738095Y-47645295D01*
X155738095Y-47645295D02*
X155738095Y-47740533D01*
X155738095Y-47740533D02*
X155785714Y-47883390D01*
X155785714Y-47883390D02*
X156357142Y-48454819D01*
X156357142Y-48454819D02*
X155738095Y-48454819D01*
X128166666Y-58204819D02*
X128642856Y-58204819D01*
X128642856Y-58204819D02*
X128642856Y-57204819D01*
X127928570Y-57204819D02*
X127309523Y-57204819D01*
X127309523Y-57204819D02*
X127642856Y-57585771D01*
X127642856Y-57585771D02*
X127499999Y-57585771D01*
X127499999Y-57585771D02*
X127404761Y-57633390D01*
X127404761Y-57633390D02*
X127357142Y-57681009D01*
X127357142Y-57681009D02*
X127309523Y-57776247D01*
X127309523Y-57776247D02*
X127309523Y-58014342D01*
X127309523Y-58014342D02*
X127357142Y-58109580D01*
X127357142Y-58109580D02*
X127404761Y-58157200D01*
X127404761Y-58157200D02*
X127499999Y-58204819D01*
X127499999Y-58204819D02*
X127785713Y-58204819D01*
X127785713Y-58204819D02*
X127880951Y-58157200D01*
X127880951Y-58157200D02*
X127928570Y-58109580D01*
X149761904Y-49704819D02*
X149761904Y-50514342D01*
X149761904Y-50514342D02*
X149714285Y-50609580D01*
X149714285Y-50609580D02*
X149666666Y-50657200D01*
X149666666Y-50657200D02*
X149571428Y-50704819D01*
X149571428Y-50704819D02*
X149380952Y-50704819D01*
X149380952Y-50704819D02*
X149285714Y-50657200D01*
X149285714Y-50657200D02*
X149238095Y-50609580D01*
X149238095Y-50609580D02*
X149190476Y-50514342D01*
X149190476Y-50514342D02*
X149190476Y-49704819D01*
X148238095Y-49704819D02*
X148714285Y-49704819D01*
X148714285Y-49704819D02*
X148761904Y-50181009D01*
X148761904Y-50181009D02*
X148714285Y-50133390D01*
X148714285Y-50133390D02*
X148619047Y-50085771D01*
X148619047Y-50085771D02*
X148380952Y-50085771D01*
X148380952Y-50085771D02*
X148285714Y-50133390D01*
X148285714Y-50133390D02*
X148238095Y-50181009D01*
X148238095Y-50181009D02*
X148190476Y-50276247D01*
X148190476Y-50276247D02*
X148190476Y-50514342D01*
X148190476Y-50514342D02*
X148238095Y-50609580D01*
X148238095Y-50609580D02*
X148285714Y-50657200D01*
X148285714Y-50657200D02*
X148380952Y-50704819D01*
X148380952Y-50704819D02*
X148619047Y-50704819D01*
X148619047Y-50704819D02*
X148714285Y-50657200D01*
X148714285Y-50657200D02*
X148761904Y-50609580D01*
X136392857Y-65109580D02*
X136440476Y-65157200D01*
X136440476Y-65157200D02*
X136583333Y-65204819D01*
X136583333Y-65204819D02*
X136678571Y-65204819D01*
X136678571Y-65204819D02*
X136821428Y-65157200D01*
X136821428Y-65157200D02*
X136916666Y-65061961D01*
X136916666Y-65061961D02*
X136964285Y-64966723D01*
X136964285Y-64966723D02*
X137011904Y-64776247D01*
X137011904Y-64776247D02*
X137011904Y-64633390D01*
X137011904Y-64633390D02*
X136964285Y-64442914D01*
X136964285Y-64442914D02*
X136916666Y-64347676D01*
X136916666Y-64347676D02*
X136821428Y-64252438D01*
X136821428Y-64252438D02*
X136678571Y-64204819D01*
X136678571Y-64204819D02*
X136583333Y-64204819D01*
X136583333Y-64204819D02*
X136440476Y-64252438D01*
X136440476Y-64252438D02*
X136392857Y-64300057D01*
X135440476Y-65204819D02*
X136011904Y-65204819D01*
X135726190Y-65204819D02*
X135726190Y-64204819D01*
X135726190Y-64204819D02*
X135821428Y-64347676D01*
X135821428Y-64347676D02*
X135916666Y-64442914D01*
X135916666Y-64442914D02*
X136011904Y-64490533D01*
X134583333Y-64204819D02*
X134773809Y-64204819D01*
X134773809Y-64204819D02*
X134869047Y-64252438D01*
X134869047Y-64252438D02*
X134916666Y-64300057D01*
X134916666Y-64300057D02*
X135011904Y-64442914D01*
X135011904Y-64442914D02*
X135059523Y-64633390D01*
X135059523Y-64633390D02*
X135059523Y-65014342D01*
X135059523Y-65014342D02*
X135011904Y-65109580D01*
X135011904Y-65109580D02*
X134964285Y-65157200D01*
X134964285Y-65157200D02*
X134869047Y-65204819D01*
X134869047Y-65204819D02*
X134678571Y-65204819D01*
X134678571Y-65204819D02*
X134583333Y-65157200D01*
X134583333Y-65157200D02*
X134535714Y-65109580D01*
X134535714Y-65109580D02*
X134488095Y-65014342D01*
X134488095Y-65014342D02*
X134488095Y-64776247D01*
X134488095Y-64776247D02*
X134535714Y-64681009D01*
X134535714Y-64681009D02*
X134583333Y-64633390D01*
X134583333Y-64633390D02*
X134678571Y-64585771D01*
X134678571Y-64585771D02*
X134869047Y-64585771D01*
X134869047Y-64585771D02*
X134964285Y-64633390D01*
X134964285Y-64633390D02*
X135011904Y-64681009D01*
X135011904Y-64681009D02*
X135059523Y-64776247D01*
X147142857Y-57954819D02*
X147476190Y-57478628D01*
X147714285Y-57954819D02*
X147714285Y-56954819D01*
X147714285Y-56954819D02*
X147333333Y-56954819D01*
X147333333Y-56954819D02*
X147238095Y-57002438D01*
X147238095Y-57002438D02*
X147190476Y-57050057D01*
X147190476Y-57050057D02*
X147142857Y-57145295D01*
X147142857Y-57145295D02*
X147142857Y-57288152D01*
X147142857Y-57288152D02*
X147190476Y-57383390D01*
X147190476Y-57383390D02*
X147238095Y-57431009D01*
X147238095Y-57431009D02*
X147333333Y-57478628D01*
X147333333Y-57478628D02*
X147714285Y-57478628D01*
X146190476Y-57954819D02*
X146761904Y-57954819D01*
X146476190Y-57954819D02*
X146476190Y-56954819D01*
X146476190Y-56954819D02*
X146571428Y-57097676D01*
X146571428Y-57097676D02*
X146666666Y-57192914D01*
X146666666Y-57192914D02*
X146761904Y-57240533D01*
X145333333Y-57288152D02*
X145333333Y-57954819D01*
X145571428Y-56907200D02*
X145809523Y-57621485D01*
X145809523Y-57621485D02*
X145190476Y-57621485D01*
X128642857Y-63704819D02*
X128976190Y-63228628D01*
X129214285Y-63704819D02*
X129214285Y-62704819D01*
X129214285Y-62704819D02*
X128833333Y-62704819D01*
X128833333Y-62704819D02*
X128738095Y-62752438D01*
X128738095Y-62752438D02*
X128690476Y-62800057D01*
X128690476Y-62800057D02*
X128642857Y-62895295D01*
X128642857Y-62895295D02*
X128642857Y-63038152D01*
X128642857Y-63038152D02*
X128690476Y-63133390D01*
X128690476Y-63133390D02*
X128738095Y-63181009D01*
X128738095Y-63181009D02*
X128833333Y-63228628D01*
X128833333Y-63228628D02*
X129214285Y-63228628D01*
X128261904Y-62800057D02*
X128214285Y-62752438D01*
X128214285Y-62752438D02*
X128119047Y-62704819D01*
X128119047Y-62704819D02*
X127880952Y-62704819D01*
X127880952Y-62704819D02*
X127785714Y-62752438D01*
X127785714Y-62752438D02*
X127738095Y-62800057D01*
X127738095Y-62800057D02*
X127690476Y-62895295D01*
X127690476Y-62895295D02*
X127690476Y-62990533D01*
X127690476Y-62990533D02*
X127738095Y-63133390D01*
X127738095Y-63133390D02*
X128309523Y-63704819D01*
X128309523Y-63704819D02*
X127690476Y-63704819D01*
X127071428Y-62704819D02*
X126976190Y-62704819D01*
X126976190Y-62704819D02*
X126880952Y-62752438D01*
X126880952Y-62752438D02*
X126833333Y-62800057D01*
X126833333Y-62800057D02*
X126785714Y-62895295D01*
X126785714Y-62895295D02*
X126738095Y-63085771D01*
X126738095Y-63085771D02*
X126738095Y-63323866D01*
X126738095Y-63323866D02*
X126785714Y-63514342D01*
X126785714Y-63514342D02*
X126833333Y-63609580D01*
X126833333Y-63609580D02*
X126880952Y-63657200D01*
X126880952Y-63657200D02*
X126976190Y-63704819D01*
X126976190Y-63704819D02*
X127071428Y-63704819D01*
X127071428Y-63704819D02*
X127166666Y-63657200D01*
X127166666Y-63657200D02*
X127214285Y-63609580D01*
X127214285Y-63609580D02*
X127261904Y-63514342D01*
X127261904Y-63514342D02*
X127309523Y-63323866D01*
X127309523Y-63323866D02*
X127309523Y-63085771D01*
X127309523Y-63085771D02*
X127261904Y-62895295D01*
X127261904Y-62895295D02*
X127214285Y-62800057D01*
X127214285Y-62800057D02*
X127166666Y-62752438D01*
X127166666Y-62752438D02*
X127071428Y-62704819D01*
X129976190Y-67728628D02*
X129976190Y-68204819D01*
X130309523Y-67204819D02*
X129976190Y-67728628D01*
X129976190Y-67728628D02*
X129642857Y-67204819D01*
X128785714Y-68204819D02*
X129357142Y-68204819D01*
X129071428Y-68204819D02*
X129071428Y-67204819D01*
X129071428Y-67204819D02*
X129166666Y-67347676D01*
X129166666Y-67347676D02*
X129261904Y-67442914D01*
X129261904Y-67442914D02*
X129357142Y-67490533D01*
X119761904Y-53954819D02*
X119761904Y-54764342D01*
X119761904Y-54764342D02*
X119714285Y-54859580D01*
X119714285Y-54859580D02*
X119666666Y-54907200D01*
X119666666Y-54907200D02*
X119571428Y-54954819D01*
X119571428Y-54954819D02*
X119380952Y-54954819D01*
X119380952Y-54954819D02*
X119285714Y-54907200D01*
X119285714Y-54907200D02*
X119238095Y-54859580D01*
X119238095Y-54859580D02*
X119190476Y-54764342D01*
X119190476Y-54764342D02*
X119190476Y-53954819D01*
X118571428Y-54383390D02*
X118666666Y-54335771D01*
X118666666Y-54335771D02*
X118714285Y-54288152D01*
X118714285Y-54288152D02*
X118761904Y-54192914D01*
X118761904Y-54192914D02*
X118761904Y-54145295D01*
X118761904Y-54145295D02*
X118714285Y-54050057D01*
X118714285Y-54050057D02*
X118666666Y-54002438D01*
X118666666Y-54002438D02*
X118571428Y-53954819D01*
X118571428Y-53954819D02*
X118380952Y-53954819D01*
X118380952Y-53954819D02*
X118285714Y-54002438D01*
X118285714Y-54002438D02*
X118238095Y-54050057D01*
X118238095Y-54050057D02*
X118190476Y-54145295D01*
X118190476Y-54145295D02*
X118190476Y-54192914D01*
X118190476Y-54192914D02*
X118238095Y-54288152D01*
X118238095Y-54288152D02*
X118285714Y-54335771D01*
X118285714Y-54335771D02*
X118380952Y-54383390D01*
X118380952Y-54383390D02*
X118571428Y-54383390D01*
X118571428Y-54383390D02*
X118666666Y-54431009D01*
X118666666Y-54431009D02*
X118714285Y-54478628D01*
X118714285Y-54478628D02*
X118761904Y-54573866D01*
X118761904Y-54573866D02*
X118761904Y-54764342D01*
X118761904Y-54764342D02*
X118714285Y-54859580D01*
X118714285Y-54859580D02*
X118666666Y-54907200D01*
X118666666Y-54907200D02*
X118571428Y-54954819D01*
X118571428Y-54954819D02*
X118380952Y-54954819D01*
X118380952Y-54954819D02*
X118285714Y-54907200D01*
X118285714Y-54907200D02*
X118238095Y-54859580D01*
X118238095Y-54859580D02*
X118190476Y-54764342D01*
X118190476Y-54764342D02*
X118190476Y-54573866D01*
X118190476Y-54573866D02*
X118238095Y-54478628D01*
X118238095Y-54478628D02*
X118285714Y-54431009D01*
X118285714Y-54431009D02*
X118380952Y-54383390D01*
X121142857Y-64859580D02*
X121190476Y-64907200D01*
X121190476Y-64907200D02*
X121333333Y-64954819D01*
X121333333Y-64954819D02*
X121428571Y-64954819D01*
X121428571Y-64954819D02*
X121571428Y-64907200D01*
X121571428Y-64907200D02*
X121666666Y-64811961D01*
X121666666Y-64811961D02*
X121714285Y-64716723D01*
X121714285Y-64716723D02*
X121761904Y-64526247D01*
X121761904Y-64526247D02*
X121761904Y-64383390D01*
X121761904Y-64383390D02*
X121714285Y-64192914D01*
X121714285Y-64192914D02*
X121666666Y-64097676D01*
X121666666Y-64097676D02*
X121571428Y-64002438D01*
X121571428Y-64002438D02*
X121428571Y-63954819D01*
X121428571Y-63954819D02*
X121333333Y-63954819D01*
X121333333Y-63954819D02*
X121190476Y-64002438D01*
X121190476Y-64002438D02*
X121142857Y-64050057D01*
X120809523Y-63954819D02*
X120190476Y-63954819D01*
X120190476Y-63954819D02*
X120523809Y-64335771D01*
X120523809Y-64335771D02*
X120380952Y-64335771D01*
X120380952Y-64335771D02*
X120285714Y-64383390D01*
X120285714Y-64383390D02*
X120238095Y-64431009D01*
X120238095Y-64431009D02*
X120190476Y-64526247D01*
X120190476Y-64526247D02*
X120190476Y-64764342D01*
X120190476Y-64764342D02*
X120238095Y-64859580D01*
X120238095Y-64859580D02*
X120285714Y-64907200D01*
X120285714Y-64907200D02*
X120380952Y-64954819D01*
X120380952Y-64954819D02*
X120666666Y-64954819D01*
X120666666Y-64954819D02*
X120761904Y-64907200D01*
X120761904Y-64907200D02*
X120809523Y-64859580D01*
X119238095Y-64954819D02*
X119809523Y-64954819D01*
X119523809Y-64954819D02*
X119523809Y-63954819D01*
X119523809Y-63954819D02*
X119619047Y-64097676D01*
X119619047Y-64097676D02*
X119714285Y-64192914D01*
X119714285Y-64192914D02*
X119809523Y-64240533D01*
X153392857Y-74609580D02*
X153440476Y-74657200D01*
X153440476Y-74657200D02*
X153583333Y-74704819D01*
X153583333Y-74704819D02*
X153678571Y-74704819D01*
X153678571Y-74704819D02*
X153821428Y-74657200D01*
X153821428Y-74657200D02*
X153916666Y-74561961D01*
X153916666Y-74561961D02*
X153964285Y-74466723D01*
X153964285Y-74466723D02*
X154011904Y-74276247D01*
X154011904Y-74276247D02*
X154011904Y-74133390D01*
X154011904Y-74133390D02*
X153964285Y-73942914D01*
X153964285Y-73942914D02*
X153916666Y-73847676D01*
X153916666Y-73847676D02*
X153821428Y-73752438D01*
X153821428Y-73752438D02*
X153678571Y-73704819D01*
X153678571Y-73704819D02*
X153583333Y-73704819D01*
X153583333Y-73704819D02*
X153440476Y-73752438D01*
X153440476Y-73752438D02*
X153392857Y-73800057D01*
X153059523Y-73704819D02*
X152440476Y-73704819D01*
X152440476Y-73704819D02*
X152773809Y-74085771D01*
X152773809Y-74085771D02*
X152630952Y-74085771D01*
X152630952Y-74085771D02*
X152535714Y-74133390D01*
X152535714Y-74133390D02*
X152488095Y-74181009D01*
X152488095Y-74181009D02*
X152440476Y-74276247D01*
X152440476Y-74276247D02*
X152440476Y-74514342D01*
X152440476Y-74514342D02*
X152488095Y-74609580D01*
X152488095Y-74609580D02*
X152535714Y-74657200D01*
X152535714Y-74657200D02*
X152630952Y-74704819D01*
X152630952Y-74704819D02*
X152916666Y-74704819D01*
X152916666Y-74704819D02*
X153011904Y-74657200D01*
X153011904Y-74657200D02*
X153059523Y-74609580D01*
X152107142Y-73704819D02*
X151488095Y-73704819D01*
X151488095Y-73704819D02*
X151821428Y-74085771D01*
X151821428Y-74085771D02*
X151678571Y-74085771D01*
X151678571Y-74085771D02*
X151583333Y-74133390D01*
X151583333Y-74133390D02*
X151535714Y-74181009D01*
X151535714Y-74181009D02*
X151488095Y-74276247D01*
X151488095Y-74276247D02*
X151488095Y-74514342D01*
X151488095Y-74514342D02*
X151535714Y-74609580D01*
X151535714Y-74609580D02*
X151583333Y-74657200D01*
X151583333Y-74657200D02*
X151678571Y-74704819D01*
X151678571Y-74704819D02*
X151964285Y-74704819D01*
X151964285Y-74704819D02*
X152059523Y-74657200D01*
X152059523Y-74657200D02*
X152107142Y-74609580D01*
X123916666Y-78359580D02*
X123964285Y-78407200D01*
X123964285Y-78407200D02*
X124107142Y-78454819D01*
X124107142Y-78454819D02*
X124202380Y-78454819D01*
X124202380Y-78454819D02*
X124345237Y-78407200D01*
X124345237Y-78407200D02*
X124440475Y-78311961D01*
X124440475Y-78311961D02*
X124488094Y-78216723D01*
X124488094Y-78216723D02*
X124535713Y-78026247D01*
X124535713Y-78026247D02*
X124535713Y-77883390D01*
X124535713Y-77883390D02*
X124488094Y-77692914D01*
X124488094Y-77692914D02*
X124440475Y-77597676D01*
X124440475Y-77597676D02*
X124345237Y-77502438D01*
X124345237Y-77502438D02*
X124202380Y-77454819D01*
X124202380Y-77454819D02*
X124107142Y-77454819D01*
X124107142Y-77454819D02*
X123964285Y-77502438D01*
X123964285Y-77502438D02*
X123916666Y-77550057D01*
X123345237Y-77883390D02*
X123440475Y-77835771D01*
X123440475Y-77835771D02*
X123488094Y-77788152D01*
X123488094Y-77788152D02*
X123535713Y-77692914D01*
X123535713Y-77692914D02*
X123535713Y-77645295D01*
X123535713Y-77645295D02*
X123488094Y-77550057D01*
X123488094Y-77550057D02*
X123440475Y-77502438D01*
X123440475Y-77502438D02*
X123345237Y-77454819D01*
X123345237Y-77454819D02*
X123154761Y-77454819D01*
X123154761Y-77454819D02*
X123059523Y-77502438D01*
X123059523Y-77502438D02*
X123011904Y-77550057D01*
X123011904Y-77550057D02*
X122964285Y-77645295D01*
X122964285Y-77645295D02*
X122964285Y-77692914D01*
X122964285Y-77692914D02*
X123011904Y-77788152D01*
X123011904Y-77788152D02*
X123059523Y-77835771D01*
X123059523Y-77835771D02*
X123154761Y-77883390D01*
X123154761Y-77883390D02*
X123345237Y-77883390D01*
X123345237Y-77883390D02*
X123440475Y-77931009D01*
X123440475Y-77931009D02*
X123488094Y-77978628D01*
X123488094Y-77978628D02*
X123535713Y-78073866D01*
X123535713Y-78073866D02*
X123535713Y-78264342D01*
X123535713Y-78264342D02*
X123488094Y-78359580D01*
X123488094Y-78359580D02*
X123440475Y-78407200D01*
X123440475Y-78407200D02*
X123345237Y-78454819D01*
X123345237Y-78454819D02*
X123154761Y-78454819D01*
X123154761Y-78454819D02*
X123059523Y-78407200D01*
X123059523Y-78407200D02*
X123011904Y-78359580D01*
X123011904Y-78359580D02*
X122964285Y-78264342D01*
X122964285Y-78264342D02*
X122964285Y-78073866D01*
X122964285Y-78073866D02*
X123011904Y-77978628D01*
X123011904Y-77978628D02*
X123059523Y-77931009D01*
X123059523Y-77931009D02*
X123154761Y-77883390D01*
X150392857Y-75454819D02*
X150726190Y-74978628D01*
X150964285Y-75454819D02*
X150964285Y-74454819D01*
X150964285Y-74454819D02*
X150583333Y-74454819D01*
X150583333Y-74454819D02*
X150488095Y-74502438D01*
X150488095Y-74502438D02*
X150440476Y-74550057D01*
X150440476Y-74550057D02*
X150392857Y-74645295D01*
X150392857Y-74645295D02*
X150392857Y-74788152D01*
X150392857Y-74788152D02*
X150440476Y-74883390D01*
X150440476Y-74883390D02*
X150488095Y-74931009D01*
X150488095Y-74931009D02*
X150583333Y-74978628D01*
X150583333Y-74978628D02*
X150964285Y-74978628D01*
X149440476Y-75454819D02*
X150011904Y-75454819D01*
X149726190Y-75454819D02*
X149726190Y-74454819D01*
X149726190Y-74454819D02*
X149821428Y-74597676D01*
X149821428Y-74597676D02*
X149916666Y-74692914D01*
X149916666Y-74692914D02*
X150011904Y-74740533D01*
X148821428Y-74454819D02*
X148726190Y-74454819D01*
X148726190Y-74454819D02*
X148630952Y-74502438D01*
X148630952Y-74502438D02*
X148583333Y-74550057D01*
X148583333Y-74550057D02*
X148535714Y-74645295D01*
X148535714Y-74645295D02*
X148488095Y-74835771D01*
X148488095Y-74835771D02*
X148488095Y-75073866D01*
X148488095Y-75073866D02*
X148535714Y-75264342D01*
X148535714Y-75264342D02*
X148583333Y-75359580D01*
X148583333Y-75359580D02*
X148630952Y-75407200D01*
X148630952Y-75407200D02*
X148726190Y-75454819D01*
X148726190Y-75454819D02*
X148821428Y-75454819D01*
X148821428Y-75454819D02*
X148916666Y-75407200D01*
X148916666Y-75407200D02*
X148964285Y-75359580D01*
X148964285Y-75359580D02*
X149011904Y-75264342D01*
X149011904Y-75264342D02*
X149059523Y-75073866D01*
X149059523Y-75073866D02*
X149059523Y-74835771D01*
X149059523Y-74835771D02*
X149011904Y-74645295D01*
X149011904Y-74645295D02*
X148964285Y-74550057D01*
X148964285Y-74550057D02*
X148916666Y-74502438D01*
X148916666Y-74502438D02*
X148821428Y-74454819D01*
X108916666Y-77609580D02*
X108964285Y-77657200D01*
X108964285Y-77657200D02*
X109107142Y-77704819D01*
X109107142Y-77704819D02*
X109202380Y-77704819D01*
X109202380Y-77704819D02*
X109345237Y-77657200D01*
X109345237Y-77657200D02*
X109440475Y-77561961D01*
X109440475Y-77561961D02*
X109488094Y-77466723D01*
X109488094Y-77466723D02*
X109535713Y-77276247D01*
X109535713Y-77276247D02*
X109535713Y-77133390D01*
X109535713Y-77133390D02*
X109488094Y-76942914D01*
X109488094Y-76942914D02*
X109440475Y-76847676D01*
X109440475Y-76847676D02*
X109345237Y-76752438D01*
X109345237Y-76752438D02*
X109202380Y-76704819D01*
X109202380Y-76704819D02*
X109107142Y-76704819D01*
X109107142Y-76704819D02*
X108964285Y-76752438D01*
X108964285Y-76752438D02*
X108916666Y-76800057D01*
X108583332Y-76704819D02*
X107916666Y-76704819D01*
X107916666Y-76704819D02*
X108345237Y-77704819D01*
X124392857Y-58109580D02*
X124440476Y-58157200D01*
X124440476Y-58157200D02*
X124583333Y-58204819D01*
X124583333Y-58204819D02*
X124678571Y-58204819D01*
X124678571Y-58204819D02*
X124821428Y-58157200D01*
X124821428Y-58157200D02*
X124916666Y-58061961D01*
X124916666Y-58061961D02*
X124964285Y-57966723D01*
X124964285Y-57966723D02*
X125011904Y-57776247D01*
X125011904Y-57776247D02*
X125011904Y-57633390D01*
X125011904Y-57633390D02*
X124964285Y-57442914D01*
X124964285Y-57442914D02*
X124916666Y-57347676D01*
X124916666Y-57347676D02*
X124821428Y-57252438D01*
X124821428Y-57252438D02*
X124678571Y-57204819D01*
X124678571Y-57204819D02*
X124583333Y-57204819D01*
X124583333Y-57204819D02*
X124440476Y-57252438D01*
X124440476Y-57252438D02*
X124392857Y-57300057D01*
X124059523Y-57204819D02*
X123440476Y-57204819D01*
X123440476Y-57204819D02*
X123773809Y-57585771D01*
X123773809Y-57585771D02*
X123630952Y-57585771D01*
X123630952Y-57585771D02*
X123535714Y-57633390D01*
X123535714Y-57633390D02*
X123488095Y-57681009D01*
X123488095Y-57681009D02*
X123440476Y-57776247D01*
X123440476Y-57776247D02*
X123440476Y-58014342D01*
X123440476Y-58014342D02*
X123488095Y-58109580D01*
X123488095Y-58109580D02*
X123535714Y-58157200D01*
X123535714Y-58157200D02*
X123630952Y-58204819D01*
X123630952Y-58204819D02*
X123916666Y-58204819D01*
X123916666Y-58204819D02*
X124011904Y-58157200D01*
X124011904Y-58157200D02*
X124059523Y-58109580D01*
X122821428Y-57204819D02*
X122726190Y-57204819D01*
X122726190Y-57204819D02*
X122630952Y-57252438D01*
X122630952Y-57252438D02*
X122583333Y-57300057D01*
X122583333Y-57300057D02*
X122535714Y-57395295D01*
X122535714Y-57395295D02*
X122488095Y-57585771D01*
X122488095Y-57585771D02*
X122488095Y-57823866D01*
X122488095Y-57823866D02*
X122535714Y-58014342D01*
X122535714Y-58014342D02*
X122583333Y-58109580D01*
X122583333Y-58109580D02*
X122630952Y-58157200D01*
X122630952Y-58157200D02*
X122726190Y-58204819D01*
X122726190Y-58204819D02*
X122821428Y-58204819D01*
X122821428Y-58204819D02*
X122916666Y-58157200D01*
X122916666Y-58157200D02*
X122964285Y-58109580D01*
X122964285Y-58109580D02*
X123011904Y-58014342D01*
X123011904Y-58014342D02*
X123059523Y-57823866D01*
X123059523Y-57823866D02*
X123059523Y-57585771D01*
X123059523Y-57585771D02*
X123011904Y-57395295D01*
X123011904Y-57395295D02*
X122964285Y-57300057D01*
X122964285Y-57300057D02*
X122916666Y-57252438D01*
X122916666Y-57252438D02*
X122821428Y-57204819D01*
X139642857Y-76859580D02*
X139690476Y-76907200D01*
X139690476Y-76907200D02*
X139833333Y-76954819D01*
X139833333Y-76954819D02*
X139928571Y-76954819D01*
X139928571Y-76954819D02*
X140071428Y-76907200D01*
X140071428Y-76907200D02*
X140166666Y-76811961D01*
X140166666Y-76811961D02*
X140214285Y-76716723D01*
X140214285Y-76716723D02*
X140261904Y-76526247D01*
X140261904Y-76526247D02*
X140261904Y-76383390D01*
X140261904Y-76383390D02*
X140214285Y-76192914D01*
X140214285Y-76192914D02*
X140166666Y-76097676D01*
X140166666Y-76097676D02*
X140071428Y-76002438D01*
X140071428Y-76002438D02*
X139928571Y-75954819D01*
X139928571Y-75954819D02*
X139833333Y-75954819D01*
X139833333Y-75954819D02*
X139690476Y-76002438D01*
X139690476Y-76002438D02*
X139642857Y-76050057D01*
X139261904Y-76050057D02*
X139214285Y-76002438D01*
X139214285Y-76002438D02*
X139119047Y-75954819D01*
X139119047Y-75954819D02*
X138880952Y-75954819D01*
X138880952Y-75954819D02*
X138785714Y-76002438D01*
X138785714Y-76002438D02*
X138738095Y-76050057D01*
X138738095Y-76050057D02*
X138690476Y-76145295D01*
X138690476Y-76145295D02*
X138690476Y-76240533D01*
X138690476Y-76240533D02*
X138738095Y-76383390D01*
X138738095Y-76383390D02*
X139309523Y-76954819D01*
X139309523Y-76954819D02*
X138690476Y-76954819D01*
X138214285Y-76954819D02*
X138023809Y-76954819D01*
X138023809Y-76954819D02*
X137928571Y-76907200D01*
X137928571Y-76907200D02*
X137880952Y-76859580D01*
X137880952Y-76859580D02*
X137785714Y-76716723D01*
X137785714Y-76716723D02*
X137738095Y-76526247D01*
X137738095Y-76526247D02*
X137738095Y-76145295D01*
X137738095Y-76145295D02*
X137785714Y-76050057D01*
X137785714Y-76050057D02*
X137833333Y-76002438D01*
X137833333Y-76002438D02*
X137928571Y-75954819D01*
X137928571Y-75954819D02*
X138119047Y-75954819D01*
X138119047Y-75954819D02*
X138214285Y-76002438D01*
X138214285Y-76002438D02*
X138261904Y-76050057D01*
X138261904Y-76050057D02*
X138309523Y-76145295D01*
X138309523Y-76145295D02*
X138309523Y-76383390D01*
X138309523Y-76383390D02*
X138261904Y-76478628D01*
X138261904Y-76478628D02*
X138214285Y-76526247D01*
X138214285Y-76526247D02*
X138119047Y-76573866D01*
X138119047Y-76573866D02*
X137928571Y-76573866D01*
X137928571Y-76573866D02*
X137833333Y-76526247D01*
X137833333Y-76526247D02*
X137785714Y-76478628D01*
X137785714Y-76478628D02*
X137738095Y-76383390D01*
X142142857Y-57929580D02*
X142190476Y-57977200D01*
X142190476Y-57977200D02*
X142333333Y-58024819D01*
X142333333Y-58024819D02*
X142428571Y-58024819D01*
X142428571Y-58024819D02*
X142571428Y-57977200D01*
X142571428Y-57977200D02*
X142666666Y-57881961D01*
X142666666Y-57881961D02*
X142714285Y-57786723D01*
X142714285Y-57786723D02*
X142761904Y-57596247D01*
X142761904Y-57596247D02*
X142761904Y-57453390D01*
X142761904Y-57453390D02*
X142714285Y-57262914D01*
X142714285Y-57262914D02*
X142666666Y-57167676D01*
X142666666Y-57167676D02*
X142571428Y-57072438D01*
X142571428Y-57072438D02*
X142428571Y-57024819D01*
X142428571Y-57024819D02*
X142333333Y-57024819D01*
X142333333Y-57024819D02*
X142190476Y-57072438D01*
X142190476Y-57072438D02*
X142142857Y-57120057D01*
X141809523Y-57024819D02*
X141190476Y-57024819D01*
X141190476Y-57024819D02*
X141523809Y-57405771D01*
X141523809Y-57405771D02*
X141380952Y-57405771D01*
X141380952Y-57405771D02*
X141285714Y-57453390D01*
X141285714Y-57453390D02*
X141238095Y-57501009D01*
X141238095Y-57501009D02*
X141190476Y-57596247D01*
X141190476Y-57596247D02*
X141190476Y-57834342D01*
X141190476Y-57834342D02*
X141238095Y-57929580D01*
X141238095Y-57929580D02*
X141285714Y-57977200D01*
X141285714Y-57977200D02*
X141380952Y-58024819D01*
X141380952Y-58024819D02*
X141666666Y-58024819D01*
X141666666Y-58024819D02*
X141761904Y-57977200D01*
X141761904Y-57977200D02*
X141809523Y-57929580D01*
X140333333Y-57358152D02*
X140333333Y-58024819D01*
X140571428Y-56977200D02*
X140809523Y-57691485D01*
X140809523Y-57691485D02*
X140190476Y-57691485D01*
X153142857Y-58109580D02*
X153190476Y-58157200D01*
X153190476Y-58157200D02*
X153333333Y-58204819D01*
X153333333Y-58204819D02*
X153428571Y-58204819D01*
X153428571Y-58204819D02*
X153571428Y-58157200D01*
X153571428Y-58157200D02*
X153666666Y-58061961D01*
X153666666Y-58061961D02*
X153714285Y-57966723D01*
X153714285Y-57966723D02*
X153761904Y-57776247D01*
X153761904Y-57776247D02*
X153761904Y-57633390D01*
X153761904Y-57633390D02*
X153714285Y-57442914D01*
X153714285Y-57442914D02*
X153666666Y-57347676D01*
X153666666Y-57347676D02*
X153571428Y-57252438D01*
X153571428Y-57252438D02*
X153428571Y-57204819D01*
X153428571Y-57204819D02*
X153333333Y-57204819D01*
X153333333Y-57204819D02*
X153190476Y-57252438D01*
X153190476Y-57252438D02*
X153142857Y-57300057D01*
X152190476Y-58204819D02*
X152761904Y-58204819D01*
X152476190Y-58204819D02*
X152476190Y-57204819D01*
X152476190Y-57204819D02*
X152571428Y-57347676D01*
X152571428Y-57347676D02*
X152666666Y-57442914D01*
X152666666Y-57442914D02*
X152761904Y-57490533D01*
X151857142Y-57204819D02*
X151190476Y-57204819D01*
X151190476Y-57204819D02*
X151619047Y-58204819D01*
X119964285Y-45954819D02*
X119964285Y-44954819D01*
X119964285Y-44954819D02*
X119726190Y-44954819D01*
X119726190Y-44954819D02*
X119583333Y-45002438D01*
X119583333Y-45002438D02*
X119488095Y-45097676D01*
X119488095Y-45097676D02*
X119440476Y-45192914D01*
X119440476Y-45192914D02*
X119392857Y-45383390D01*
X119392857Y-45383390D02*
X119392857Y-45526247D01*
X119392857Y-45526247D02*
X119440476Y-45716723D01*
X119440476Y-45716723D02*
X119488095Y-45811961D01*
X119488095Y-45811961D02*
X119583333Y-45907200D01*
X119583333Y-45907200D02*
X119726190Y-45954819D01*
X119726190Y-45954819D02*
X119964285Y-45954819D01*
X118440476Y-45954819D02*
X119011904Y-45954819D01*
X118726190Y-45954819D02*
X118726190Y-44954819D01*
X118726190Y-44954819D02*
X118821428Y-45097676D01*
X118821428Y-45097676D02*
X118916666Y-45192914D01*
X118916666Y-45192914D02*
X119011904Y-45240533D01*
X118107142Y-44954819D02*
X117488095Y-44954819D01*
X117488095Y-44954819D02*
X117821428Y-45335771D01*
X117821428Y-45335771D02*
X117678571Y-45335771D01*
X117678571Y-45335771D02*
X117583333Y-45383390D01*
X117583333Y-45383390D02*
X117535714Y-45431009D01*
X117535714Y-45431009D02*
X117488095Y-45526247D01*
X117488095Y-45526247D02*
X117488095Y-45764342D01*
X117488095Y-45764342D02*
X117535714Y-45859580D01*
X117535714Y-45859580D02*
X117583333Y-45907200D01*
X117583333Y-45907200D02*
X117678571Y-45954819D01*
X117678571Y-45954819D02*
X117964285Y-45954819D01*
X117964285Y-45954819D02*
X118059523Y-45907200D01*
X118059523Y-45907200D02*
X118107142Y-45859580D01*
X127142857Y-72859580D02*
X127190476Y-72907200D01*
X127190476Y-72907200D02*
X127333333Y-72954819D01*
X127333333Y-72954819D02*
X127428571Y-72954819D01*
X127428571Y-72954819D02*
X127571428Y-72907200D01*
X127571428Y-72907200D02*
X127666666Y-72811961D01*
X127666666Y-72811961D02*
X127714285Y-72716723D01*
X127714285Y-72716723D02*
X127761904Y-72526247D01*
X127761904Y-72526247D02*
X127761904Y-72383390D01*
X127761904Y-72383390D02*
X127714285Y-72192914D01*
X127714285Y-72192914D02*
X127666666Y-72097676D01*
X127666666Y-72097676D02*
X127571428Y-72002438D01*
X127571428Y-72002438D02*
X127428571Y-71954819D01*
X127428571Y-71954819D02*
X127333333Y-71954819D01*
X127333333Y-71954819D02*
X127190476Y-72002438D01*
X127190476Y-72002438D02*
X127142857Y-72050057D01*
X126761904Y-72050057D02*
X126714285Y-72002438D01*
X126714285Y-72002438D02*
X126619047Y-71954819D01*
X126619047Y-71954819D02*
X126380952Y-71954819D01*
X126380952Y-71954819D02*
X126285714Y-72002438D01*
X126285714Y-72002438D02*
X126238095Y-72050057D01*
X126238095Y-72050057D02*
X126190476Y-72145295D01*
X126190476Y-72145295D02*
X126190476Y-72240533D01*
X126190476Y-72240533D02*
X126238095Y-72383390D01*
X126238095Y-72383390D02*
X126809523Y-72954819D01*
X126809523Y-72954819D02*
X126190476Y-72954819D01*
X125619047Y-72383390D02*
X125714285Y-72335771D01*
X125714285Y-72335771D02*
X125761904Y-72288152D01*
X125761904Y-72288152D02*
X125809523Y-72192914D01*
X125809523Y-72192914D02*
X125809523Y-72145295D01*
X125809523Y-72145295D02*
X125761904Y-72050057D01*
X125761904Y-72050057D02*
X125714285Y-72002438D01*
X125714285Y-72002438D02*
X125619047Y-71954819D01*
X125619047Y-71954819D02*
X125428571Y-71954819D01*
X125428571Y-71954819D02*
X125333333Y-72002438D01*
X125333333Y-72002438D02*
X125285714Y-72050057D01*
X125285714Y-72050057D02*
X125238095Y-72145295D01*
X125238095Y-72145295D02*
X125238095Y-72192914D01*
X125238095Y-72192914D02*
X125285714Y-72288152D01*
X125285714Y-72288152D02*
X125333333Y-72335771D01*
X125333333Y-72335771D02*
X125428571Y-72383390D01*
X125428571Y-72383390D02*
X125619047Y-72383390D01*
X125619047Y-72383390D02*
X125714285Y-72431009D01*
X125714285Y-72431009D02*
X125761904Y-72478628D01*
X125761904Y-72478628D02*
X125809523Y-72573866D01*
X125809523Y-72573866D02*
X125809523Y-72764342D01*
X125809523Y-72764342D02*
X125761904Y-72859580D01*
X125761904Y-72859580D02*
X125714285Y-72907200D01*
X125714285Y-72907200D02*
X125619047Y-72954819D01*
X125619047Y-72954819D02*
X125428571Y-72954819D01*
X125428571Y-72954819D02*
X125333333Y-72907200D01*
X125333333Y-72907200D02*
X125285714Y-72859580D01*
X125285714Y-72859580D02*
X125238095Y-72764342D01*
X125238095Y-72764342D02*
X125238095Y-72573866D01*
X125238095Y-72573866D02*
X125285714Y-72478628D01*
X125285714Y-72478628D02*
X125333333Y-72431009D01*
X125333333Y-72431009D02*
X125428571Y-72383390D01*
X140392857Y-51359580D02*
X140440476Y-51407200D01*
X140440476Y-51407200D02*
X140583333Y-51454819D01*
X140583333Y-51454819D02*
X140678571Y-51454819D01*
X140678571Y-51454819D02*
X140821428Y-51407200D01*
X140821428Y-51407200D02*
X140916666Y-51311961D01*
X140916666Y-51311961D02*
X140964285Y-51216723D01*
X140964285Y-51216723D02*
X141011904Y-51026247D01*
X141011904Y-51026247D02*
X141011904Y-50883390D01*
X141011904Y-50883390D02*
X140964285Y-50692914D01*
X140964285Y-50692914D02*
X140916666Y-50597676D01*
X140916666Y-50597676D02*
X140821428Y-50502438D01*
X140821428Y-50502438D02*
X140678571Y-50454819D01*
X140678571Y-50454819D02*
X140583333Y-50454819D01*
X140583333Y-50454819D02*
X140440476Y-50502438D01*
X140440476Y-50502438D02*
X140392857Y-50550057D01*
X140011904Y-50550057D02*
X139964285Y-50502438D01*
X139964285Y-50502438D02*
X139869047Y-50454819D01*
X139869047Y-50454819D02*
X139630952Y-50454819D01*
X139630952Y-50454819D02*
X139535714Y-50502438D01*
X139535714Y-50502438D02*
X139488095Y-50550057D01*
X139488095Y-50550057D02*
X139440476Y-50645295D01*
X139440476Y-50645295D02*
X139440476Y-50740533D01*
X139440476Y-50740533D02*
X139488095Y-50883390D01*
X139488095Y-50883390D02*
X140059523Y-51454819D01*
X140059523Y-51454819D02*
X139440476Y-51454819D01*
X139107142Y-50454819D02*
X138488095Y-50454819D01*
X138488095Y-50454819D02*
X138821428Y-50835771D01*
X138821428Y-50835771D02*
X138678571Y-50835771D01*
X138678571Y-50835771D02*
X138583333Y-50883390D01*
X138583333Y-50883390D02*
X138535714Y-50931009D01*
X138535714Y-50931009D02*
X138488095Y-51026247D01*
X138488095Y-51026247D02*
X138488095Y-51264342D01*
X138488095Y-51264342D02*
X138535714Y-51359580D01*
X138535714Y-51359580D02*
X138583333Y-51407200D01*
X138583333Y-51407200D02*
X138678571Y-51454819D01*
X138678571Y-51454819D02*
X138964285Y-51454819D01*
X138964285Y-51454819D02*
X139059523Y-51407200D01*
X139059523Y-51407200D02*
X139107142Y-51359580D01*
X155892857Y-46204819D02*
X156226190Y-45728628D01*
X156464285Y-46204819D02*
X156464285Y-45204819D01*
X156464285Y-45204819D02*
X156083333Y-45204819D01*
X156083333Y-45204819D02*
X155988095Y-45252438D01*
X155988095Y-45252438D02*
X155940476Y-45300057D01*
X155940476Y-45300057D02*
X155892857Y-45395295D01*
X155892857Y-45395295D02*
X155892857Y-45538152D01*
X155892857Y-45538152D02*
X155940476Y-45633390D01*
X155940476Y-45633390D02*
X155988095Y-45681009D01*
X155988095Y-45681009D02*
X156083333Y-45728628D01*
X156083333Y-45728628D02*
X156464285Y-45728628D01*
X154940476Y-46204819D02*
X155511904Y-46204819D01*
X155226190Y-46204819D02*
X155226190Y-45204819D01*
X155226190Y-45204819D02*
X155321428Y-45347676D01*
X155321428Y-45347676D02*
X155416666Y-45442914D01*
X155416666Y-45442914D02*
X155511904Y-45490533D01*
X154559523Y-45300057D02*
X154511904Y-45252438D01*
X154511904Y-45252438D02*
X154416666Y-45204819D01*
X154416666Y-45204819D02*
X154178571Y-45204819D01*
X154178571Y-45204819D02*
X154083333Y-45252438D01*
X154083333Y-45252438D02*
X154035714Y-45300057D01*
X154035714Y-45300057D02*
X153988095Y-45395295D01*
X153988095Y-45395295D02*
X153988095Y-45490533D01*
X153988095Y-45490533D02*
X154035714Y-45633390D01*
X154035714Y-45633390D02*
X154607142Y-46204819D01*
X154607142Y-46204819D02*
X153988095Y-46204819D01*
X165142857Y-46204819D02*
X165476190Y-45728628D01*
X165714285Y-46204819D02*
X165714285Y-45204819D01*
X165714285Y-45204819D02*
X165333333Y-45204819D01*
X165333333Y-45204819D02*
X165238095Y-45252438D01*
X165238095Y-45252438D02*
X165190476Y-45300057D01*
X165190476Y-45300057D02*
X165142857Y-45395295D01*
X165142857Y-45395295D02*
X165142857Y-45538152D01*
X165142857Y-45538152D02*
X165190476Y-45633390D01*
X165190476Y-45633390D02*
X165238095Y-45681009D01*
X165238095Y-45681009D02*
X165333333Y-45728628D01*
X165333333Y-45728628D02*
X165714285Y-45728628D01*
X164190476Y-46204819D02*
X164761904Y-46204819D01*
X164476190Y-46204819D02*
X164476190Y-45204819D01*
X164476190Y-45204819D02*
X164571428Y-45347676D01*
X164571428Y-45347676D02*
X164666666Y-45442914D01*
X164666666Y-45442914D02*
X164761904Y-45490533D01*
X163857142Y-45204819D02*
X163238095Y-45204819D01*
X163238095Y-45204819D02*
X163571428Y-45585771D01*
X163571428Y-45585771D02*
X163428571Y-45585771D01*
X163428571Y-45585771D02*
X163333333Y-45633390D01*
X163333333Y-45633390D02*
X163285714Y-45681009D01*
X163285714Y-45681009D02*
X163238095Y-45776247D01*
X163238095Y-45776247D02*
X163238095Y-46014342D01*
X163238095Y-46014342D02*
X163285714Y-46109580D01*
X163285714Y-46109580D02*
X163333333Y-46157200D01*
X163333333Y-46157200D02*
X163428571Y-46204819D01*
X163428571Y-46204819D02*
X163714285Y-46204819D01*
X163714285Y-46204819D02*
X163809523Y-46157200D01*
X163809523Y-46157200D02*
X163857142Y-46109580D01*
X128642857Y-77554819D02*
X128976190Y-77078628D01*
X129214285Y-77554819D02*
X129214285Y-76554819D01*
X129214285Y-76554819D02*
X128833333Y-76554819D01*
X128833333Y-76554819D02*
X128738095Y-76602438D01*
X128738095Y-76602438D02*
X128690476Y-76650057D01*
X128690476Y-76650057D02*
X128642857Y-76745295D01*
X128642857Y-76745295D02*
X128642857Y-76888152D01*
X128642857Y-76888152D02*
X128690476Y-76983390D01*
X128690476Y-76983390D02*
X128738095Y-77031009D01*
X128738095Y-77031009D02*
X128833333Y-77078628D01*
X128833333Y-77078628D02*
X129214285Y-77078628D01*
X127690476Y-77554819D02*
X128261904Y-77554819D01*
X127976190Y-77554819D02*
X127976190Y-76554819D01*
X127976190Y-76554819D02*
X128071428Y-76697676D01*
X128071428Y-76697676D02*
X128166666Y-76792914D01*
X128166666Y-76792914D02*
X128261904Y-76840533D01*
X127214285Y-77554819D02*
X127023809Y-77554819D01*
X127023809Y-77554819D02*
X126928571Y-77507200D01*
X126928571Y-77507200D02*
X126880952Y-77459580D01*
X126880952Y-77459580D02*
X126785714Y-77316723D01*
X126785714Y-77316723D02*
X126738095Y-77126247D01*
X126738095Y-77126247D02*
X126738095Y-76745295D01*
X126738095Y-76745295D02*
X126785714Y-76650057D01*
X126785714Y-76650057D02*
X126833333Y-76602438D01*
X126833333Y-76602438D02*
X126928571Y-76554819D01*
X126928571Y-76554819D02*
X127119047Y-76554819D01*
X127119047Y-76554819D02*
X127214285Y-76602438D01*
X127214285Y-76602438D02*
X127261904Y-76650057D01*
X127261904Y-76650057D02*
X127309523Y-76745295D01*
X127309523Y-76745295D02*
X127309523Y-76983390D01*
X127309523Y-76983390D02*
X127261904Y-77078628D01*
X127261904Y-77078628D02*
X127214285Y-77126247D01*
X127214285Y-77126247D02*
X127119047Y-77173866D01*
X127119047Y-77173866D02*
X126928571Y-77173866D01*
X126928571Y-77173866D02*
X126833333Y-77126247D01*
X126833333Y-77126247D02*
X126785714Y-77078628D01*
X126785714Y-77078628D02*
X126738095Y-76983390D01*
X118076904Y-79679819D02*
X118076904Y-80489342D01*
X118076904Y-80489342D02*
X118029285Y-80584580D01*
X118029285Y-80584580D02*
X117981666Y-80632200D01*
X117981666Y-80632200D02*
X117886428Y-80679819D01*
X117886428Y-80679819D02*
X117695952Y-80679819D01*
X117695952Y-80679819D02*
X117600714Y-80632200D01*
X117600714Y-80632200D02*
X117553095Y-80584580D01*
X117553095Y-80584580D02*
X117505476Y-80489342D01*
X117505476Y-80489342D02*
X117505476Y-79679819D01*
X117124523Y-79679819D02*
X116505476Y-79679819D01*
X116505476Y-79679819D02*
X116838809Y-80060771D01*
X116838809Y-80060771D02*
X116695952Y-80060771D01*
X116695952Y-80060771D02*
X116600714Y-80108390D01*
X116600714Y-80108390D02*
X116553095Y-80156009D01*
X116553095Y-80156009D02*
X116505476Y-80251247D01*
X116505476Y-80251247D02*
X116505476Y-80489342D01*
X116505476Y-80489342D02*
X116553095Y-80584580D01*
X116553095Y-80584580D02*
X116600714Y-80632200D01*
X116600714Y-80632200D02*
X116695952Y-80679819D01*
X116695952Y-80679819D02*
X116981666Y-80679819D01*
X116981666Y-80679819D02*
X117076904Y-80632200D01*
X117076904Y-80632200D02*
X117124523Y-80584580D01*
D11*
%TO.C,C32*%
X136990000Y-74165580D02*
X136990000Y-73884420D01*
X138010000Y-74165580D02*
X138010000Y-73884420D01*
%TO.C,C35*%
X149240000Y-59584420D02*
X149240000Y-59865580D01*
X150260000Y-59584420D02*
X150260000Y-59865580D01*
%TO.C,C14*%
X135690000Y-70715580D02*
X135690000Y-70434420D01*
X136710000Y-70715580D02*
X136710000Y-70434420D01*
%TO.C,U1*%
X139390000Y-61890000D02*
X139390000Y-62840000D01*
X139390000Y-71160000D02*
X139390000Y-72110000D01*
X139390000Y-72110000D02*
X140340000Y-72110000D01*
X140340000Y-61890000D02*
X139390000Y-61890000D01*
X148660000Y-72110000D02*
X149610000Y-72110000D01*
X149610000Y-61890000D02*
X148660000Y-61890000D01*
X149610000Y-62840000D02*
X149610000Y-61890000D01*
X149610000Y-72110000D02*
X149610000Y-71160000D01*
X139090000Y-71630000D02*
X138410000Y-71630000D01*
X138750000Y-71160000D01*
X139090000Y-71630000D01*
G36*
X139090000Y-71630000D02*
G01*
X138410000Y-71630000D01*
X138750000Y-71160000D01*
X139090000Y-71630000D01*
G37*
%TO.C,J1*%
X154015000Y-75540000D02*
X155815000Y-75540000D01*
X154015000Y-76990000D02*
X154015000Y-75540000D01*
X163185000Y-75540000D02*
X163185000Y-74550000D01*
X163715000Y-79810000D02*
X155285000Y-79810000D01*
X164985000Y-75540000D02*
X163185000Y-75540000D01*
X164985000Y-76990000D02*
X164985000Y-75540000D01*
%TO.C,C22*%
X158390580Y-45740000D02*
X158109420Y-45740000D01*
X158390580Y-46760000D02*
X158109420Y-46760000D01*
%TO.C,L3*%
X123800000Y-48800000D02*
X123800000Y-56200000D01*
X123800000Y-56200000D02*
X126100000Y-56200000D01*
X126100000Y-48800000D02*
X123800000Y-48800000D01*
X128900000Y-56200000D02*
X131200000Y-56200000D01*
X131200000Y-48800000D02*
X128900000Y-48800000D01*
X131200000Y-56200000D02*
X131200000Y-48800000D01*
%TO.C,U5*%
X143940000Y-51390000D02*
X143940000Y-51565000D01*
X143940000Y-54435000D02*
X143940000Y-54610000D01*
X143940000Y-54610000D02*
X148560000Y-54610000D01*
X148560000Y-51390000D02*
X143940000Y-51390000D01*
X148560000Y-51565000D02*
X148560000Y-51390000D01*
X148560000Y-54610000D02*
X148560000Y-54435000D01*
X149120000Y-51560000D02*
X148880000Y-51230000D01*
X149360000Y-51230000D01*
X149120000Y-51560000D01*
G36*
X149120000Y-51560000D02*
G01*
X148880000Y-51230000D01*
X149360000Y-51230000D01*
X149120000Y-51560000D01*
G37*
%TO.C,C16*%
X135690000Y-66934420D02*
X135690000Y-67215580D01*
X136710000Y-66934420D02*
X136710000Y-67215580D01*
%TO.C,R14*%
X147254724Y-55477500D02*
X146745276Y-55477500D01*
X147254724Y-56522500D02*
X146745276Y-56522500D01*
%TO.C,R20*%
X128227064Y-64265000D02*
X127772936Y-64265000D01*
X128227064Y-65735000D02*
X127772936Y-65735000D01*
%TO.C,Y1*%
X130540000Y-71635000D02*
X130540000Y-66115000D01*
X135160000Y-71635000D02*
X130540000Y-71635000D01*
%TO.C,U8*%
X116305000Y-52465000D02*
X116305000Y-56585000D01*
X116305000Y-56585000D02*
X116400000Y-56585000D01*
X116400000Y-52465000D02*
X116305000Y-52465000D01*
X121330000Y-56585000D02*
X121425000Y-56585000D01*
X121425000Y-52465000D02*
X121330000Y-52465000D01*
X121425000Y-56585000D02*
X121425000Y-52465000D01*
X121665000Y-57365000D02*
X121335000Y-57125000D01*
X121665000Y-56885000D01*
X121665000Y-57365000D01*
G36*
X121665000Y-57365000D02*
G01*
X121335000Y-57125000D01*
X121665000Y-56885000D01*
X121665000Y-57365000D01*
G37*
%TO.C,C31*%
X116850000Y-58740000D02*
X124915000Y-58740000D01*
X124915000Y-58740000D02*
X124915000Y-63260000D01*
X124915000Y-63260000D02*
X116850000Y-63260000D01*
%TO.C,C33*%
X151740000Y-71609420D02*
X151740000Y-71890580D01*
X152760000Y-71609420D02*
X152760000Y-71890580D01*
%TO.C,C8*%
X123040000Y-74713748D02*
X123040000Y-75236252D01*
X124510000Y-74713748D02*
X124510000Y-75236252D01*
%TO.C,R10*%
X145504724Y-74977500D02*
X144995276Y-74977500D01*
X145504724Y-76022500D02*
X144995276Y-76022500D01*
%TO.C,C7*%
X108290000Y-73963748D02*
X108290000Y-74486252D01*
X109760000Y-73963748D02*
X109760000Y-74486252D01*
%TO.C,C30*%
X122055000Y-54808767D02*
X122055000Y-54516233D01*
X123075000Y-54808767D02*
X123075000Y-54516233D01*
%TO.C,C29*%
X138740000Y-74165580D02*
X138740000Y-73884420D01*
X139760000Y-74165580D02*
X139760000Y-73884420D01*
%TO.C,C34*%
X141640580Y-58490000D02*
X141359420Y-58490000D01*
X141640580Y-59510000D02*
X141359420Y-59510000D01*
%TO.C,C17*%
X150890580Y-55490000D02*
X150609420Y-55490000D01*
X150890580Y-56510000D02*
X150609420Y-56510000D01*
%TO.C,D13*%
X123010000Y-46850000D02*
X117500000Y-46850000D01*
X123010000Y-46850000D02*
X123010000Y-50150000D01*
X123010000Y-50150000D02*
X117500000Y-50150000D01*
%TO.C,C28*%
X125265000Y-75121267D02*
X125265000Y-74828733D01*
X126285000Y-75121267D02*
X126285000Y-74828733D01*
%TO.C,C23*%
X140740000Y-53640580D02*
X140740000Y-53359420D01*
X141760000Y-53640580D02*
X141760000Y-53359420D01*
%TO.C,R12*%
X155495276Y-43727500D02*
X156004724Y-43727500D01*
X155495276Y-44772500D02*
X156004724Y-44772500D01*
%TO.C,R13*%
X161495276Y-43727500D02*
X162004724Y-43727500D01*
X161495276Y-44772500D02*
X162004724Y-44772500D01*
%TO.C,R19*%
X128227064Y-78015000D02*
X127772936Y-78015000D01*
X128227064Y-79485000D02*
X127772936Y-79485000D01*
%TO.C,U3*%
X114005000Y-72275000D02*
X114005000Y-72545000D01*
X114005000Y-79175000D02*
X114005000Y-78905000D01*
X120425000Y-72275000D02*
X114005000Y-72275000D01*
X120425000Y-79175000D02*
X114005000Y-79175000D01*
X112615000Y-79335000D02*
X111935000Y-79335000D01*
X112275000Y-78865000D01*
X112615000Y-79335000D01*
G36*
X112615000Y-79335000D02*
G01*
X111935000Y-79335000D01*
X112275000Y-78865000D01*
X112615000Y-79335000D01*
G37*
%TD*%
M02*
