%TF.GenerationSoftware,KiCad,Pcbnew,9.0.5*%
%TF.CreationDate,2026-05-01T14:46:18+08:00*%
%TF.ProjectId,__buck,70a76275-636b-42e6-9b69-6361645f7063,rev?*%
%TF.SameCoordinates,Original*%
%TF.FileFunction,Paste,Bot*%
%TF.FilePolarity,Positive*%
%FSLAX46Y46*%
G04 Gerber Fmt 4.6, Leading zero omitted, Abs format (unit mm)*
G04 Created by KiCad (PCBNEW 9.0.5) date 2026-05-01 14:46:18*
%MOMM*%
%LPD*%
G01*
G04 APERTURE LIST*
G04 Aperture macros list*
%AMRoundRect*
0 Rectangle with rounded corners*
0 $1 Rounding radius*
0 $2 $3 $4 $5 $6 $7 $8 $9 X,Y pos of 4 corners*
0 Add a 4 corners polygon primitive as box body*
4,1,4,$2,$3,$4,$5,$6,$7,$8,$9,$2,$3,0*
0 Add four circle primitives for the rounded corners*
1,1,$1+$1,$2,$3*
1,1,$1+$1,$4,$5*
1,1,$1+$1,$6,$7*
1,1,$1+$1,$8,$9*
0 Add four rect primitives between the rounded corners*
20,1,$1+$1,$2,$3,$4,$5,0*
20,1,$1+$1,$4,$5,$6,$7,0*
20,1,$1+$1,$6,$7,$8,$9,0*
20,1,$1+$1,$8,$9,$2,$3,0*%
G04 Aperture macros list end*
%ADD10RoundRect,0.225000X0.250000X-0.225000X0.250000X0.225000X-0.250000X0.225000X-0.250000X-0.225000X0*%
%ADD11RoundRect,0.225000X-0.250000X0.225000X-0.250000X-0.225000X0.250000X-0.225000X0.250000X0.225000X0*%
%ADD12RoundRect,0.075000X-0.700000X-0.075000X0.700000X-0.075000X0.700000X0.075000X-0.700000X0.075000X0*%
%ADD13RoundRect,0.075000X-0.075000X-0.700000X0.075000X-0.700000X0.075000X0.700000X-0.075000X0.700000X0*%
%ADD14RoundRect,0.150000X0.150000X0.700000X-0.150000X0.700000X-0.150000X-0.700000X0.150000X-0.700000X0*%
%ADD15RoundRect,0.250000X0.250000X1.100000X-0.250000X1.100000X-0.250000X-1.100000X0.250000X-1.100000X0*%
%ADD16RoundRect,0.225000X0.225000X0.250000X-0.225000X0.250000X-0.225000X-0.250000X0.225000X-0.250000X0*%
%ADD17R,2.200000X1.500000*%
%ADD18RoundRect,0.100000X0.637500X0.100000X-0.637500X0.100000X-0.637500X-0.100000X0.637500X-0.100000X0*%
%ADD19RoundRect,0.237500X0.250000X0.237500X-0.250000X0.237500X-0.250000X-0.237500X0.250000X-0.237500X0*%
%ADD20RoundRect,0.250000X0.350000X0.450000X-0.350000X0.450000X-0.350000X-0.450000X0.350000X-0.450000X0*%
%ADD21RoundRect,0.250000X0.650000X-0.800000X0.650000X0.800000X-0.650000X0.800000X-0.650000X-0.800000X0*%
%ADD22RoundRect,0.150000X0.150000X-0.825000X0.150000X0.825000X-0.150000X0.825000X-0.150000X-0.825000X0*%
%ADD23RoundRect,0.250000X0.785000X1.045000X-0.785000X1.045000X-0.785000X-1.045000X0.785000X-1.045000X0*%
%ADD24RoundRect,0.250000X-0.475000X0.337500X-0.475000X-0.337500X0.475000X-0.337500X0.475000X0.337500X0*%
%ADD25RoundRect,0.237500X0.237500X-0.300000X0.237500X0.300000X-0.237500X0.300000X-0.237500X-0.300000X0*%
%ADD26RoundRect,0.250000X1.000000X0.650000X-1.000000X0.650000X-1.000000X-0.650000X1.000000X-0.650000X0*%
%ADD27RoundRect,0.237500X-0.250000X-0.237500X0.250000X-0.237500X0.250000X0.237500X-0.250000X0.237500X0*%
%ADD28RoundRect,0.250000X-1.275000X-1.125000X1.275000X-1.125000X1.275000X1.125000X-1.275000X1.125000X0*%
%ADD29RoundRect,0.250000X-0.850000X-0.350000X0.850000X-0.350000X0.850000X0.350000X-0.850000X0.350000X0*%
G04 APERTURE END LIST*
D10*
%TO.C,C32*%
X137500000Y-74800000D03*
X137500000Y-73250000D03*
%TD*%
D11*
%TO.C,C35*%
X149750000Y-58950000D03*
X149750000Y-60500000D03*
%TD*%
D10*
%TO.C,C14*%
X136200000Y-71350000D03*
X136200000Y-69800000D03*
%TD*%
D12*
%TO.C,U1*%
X138825000Y-70750000D03*
X138825000Y-70250000D03*
X138825000Y-69750000D03*
X138825000Y-69250000D03*
X138825000Y-68750000D03*
X138825000Y-68250000D03*
X138825000Y-67750000D03*
X138825000Y-67250000D03*
X138825000Y-66750000D03*
X138825000Y-66250000D03*
X138825000Y-65750000D03*
X138825000Y-65250000D03*
X138825000Y-64750000D03*
X138825000Y-64250000D03*
X138825000Y-63750000D03*
X138825000Y-63250000D03*
D13*
X140750000Y-61325000D03*
X141250000Y-61325000D03*
X141750000Y-61325000D03*
X142250000Y-61325000D03*
X142750000Y-61325000D03*
X143250000Y-61325000D03*
X143750000Y-61325000D03*
X144250000Y-61325000D03*
X144750000Y-61325000D03*
X145250000Y-61325000D03*
X145750000Y-61325000D03*
X146250000Y-61325000D03*
X146750000Y-61325000D03*
X147250000Y-61325000D03*
X147750000Y-61325000D03*
X148250000Y-61325000D03*
D12*
X150175000Y-63250000D03*
X150175000Y-63750000D03*
X150175000Y-64250000D03*
X150175000Y-64750000D03*
X150175000Y-65250000D03*
X150175000Y-65750000D03*
X150175000Y-66250000D03*
X150175000Y-66750000D03*
X150175000Y-67250000D03*
X150175000Y-67750000D03*
X150175000Y-68250000D03*
X150175000Y-68750000D03*
X150175000Y-69250000D03*
X150175000Y-69750000D03*
X150175000Y-70250000D03*
X150175000Y-70750000D03*
D13*
X148250000Y-72675000D03*
X147750000Y-72675000D03*
X147250000Y-72675000D03*
X146750000Y-72675000D03*
X146250000Y-72675000D03*
X145750000Y-72675000D03*
X145250000Y-72675000D03*
X144750000Y-72675000D03*
X144250000Y-72675000D03*
X143750000Y-72675000D03*
X143250000Y-72675000D03*
X142750000Y-72675000D03*
X142250000Y-72675000D03*
X141750000Y-72675000D03*
X141250000Y-72675000D03*
X140750000Y-72675000D03*
%TD*%
D14*
%TO.C,J1*%
X162625000Y-75400000D03*
X161375000Y-75400000D03*
X160125000Y-75400000D03*
X158875000Y-75400000D03*
X157625000Y-75400000D03*
X156375000Y-75400000D03*
D15*
X164475000Y-78600000D03*
X154525000Y-78600000D03*
%TD*%
D16*
%TO.C,C22*%
X159025000Y-46250000D03*
X157475000Y-46250000D03*
%TD*%
D17*
%TO.C,L3*%
X127500000Y-49300000D03*
X127500000Y-55700000D03*
%TD*%
D18*
%TO.C,U5*%
X149112500Y-52025000D03*
X149112500Y-52675000D03*
X149112500Y-53325000D03*
X149112500Y-53975000D03*
X143387500Y-53975000D03*
X143387500Y-53325000D03*
X143387500Y-52675000D03*
X143387500Y-52025000D03*
%TD*%
D11*
%TO.C,C16*%
X136200000Y-66300000D03*
X136200000Y-67850000D03*
%TD*%
D19*
%TO.C,R14*%
X147912500Y-56000000D03*
X146087500Y-56000000D03*
%TD*%
D20*
%TO.C,R20*%
X129000000Y-65000000D03*
X127000000Y-65000000D03*
%TD*%
D21*
%TO.C,Y1*%
X131700000Y-70325000D03*
X131700000Y-67425000D03*
X134000000Y-67425000D03*
X134000000Y-70325000D03*
%TD*%
D22*
%TO.C,U8*%
X120770000Y-57000000D03*
X119500000Y-57000000D03*
X118230000Y-57000000D03*
X116960000Y-57000000D03*
X116960000Y-52050000D03*
X118230000Y-52050000D03*
X119500000Y-52050000D03*
X120770000Y-52050000D03*
%TD*%
D23*
%TO.C,C31*%
X123620000Y-61000000D03*
X117380000Y-61000000D03*
%TD*%
D11*
%TO.C,C33*%
X152250000Y-70975000D03*
X152250000Y-72525000D03*
%TD*%
D24*
%TO.C,C8*%
X123775000Y-73937500D03*
X123775000Y-76012500D03*
%TD*%
D19*
%TO.C,R10*%
X146162500Y-75500000D03*
X144337500Y-75500000D03*
%TD*%
D24*
%TO.C,C7*%
X109025000Y-73187500D03*
X109025000Y-75262500D03*
%TD*%
D25*
%TO.C,C30*%
X122565000Y-55525000D03*
X122565000Y-53800000D03*
%TD*%
D10*
%TO.C,C29*%
X139250000Y-74800000D03*
X139250000Y-73250000D03*
%TD*%
D16*
%TO.C,C34*%
X142275000Y-59000000D03*
X140725000Y-59000000D03*
%TD*%
%TO.C,C17*%
X151525000Y-56000000D03*
X149975000Y-56000000D03*
%TD*%
D26*
%TO.C,D13*%
X121500000Y-48500000D03*
X117500000Y-48500000D03*
%TD*%
D25*
%TO.C,C28*%
X125775000Y-75837500D03*
X125775000Y-74112500D03*
%TD*%
D10*
%TO.C,C23*%
X141250000Y-54275000D03*
X141250000Y-52725000D03*
%TD*%
D27*
%TO.C,R12*%
X154837500Y-44250000D03*
X156662500Y-44250000D03*
%TD*%
%TO.C,R13*%
X160837500Y-44250000D03*
X162662500Y-44250000D03*
%TD*%
D20*
%TO.C,R19*%
X129000000Y-78750000D03*
X127000000Y-78750000D03*
%TD*%
D28*
%TO.C,U3*%
X116900000Y-74200000D03*
X116900000Y-77250000D03*
X120250000Y-74200000D03*
X120250000Y-77250000D03*
D29*
X112275000Y-78005000D03*
X112275000Y-75725000D03*
X112275000Y-73445000D03*
%TD*%
M02*
