%TF.GenerationSoftware,KiCad,Pcbnew,9.0.5*%
%TF.CreationDate,2026-05-18T12:14:24+08:00*%
%TF.ProjectId,__buck,70a76275-636b-42e6-9b69-6361645f7063,rev?*%
%TF.SameCoordinates,Original*%
%TF.FileFunction,Copper,L2,Bot*%
%TF.FilePolarity,Positive*%
%FSLAX46Y46*%
G04 Gerber Fmt 4.6, Leading zero omitted, Abs format (unit mm)*
G04 Created by KiCad (PCBNEW 9.0.5) date 2026-05-18 12:14:24*
%MOMM*%
%LPD*%
G01*
G04 APERTURE LIST*
G04 Aperture macros list*
%AMRoundRect*
0 Rectangle with rounded corners*
0 $1 Rounding radius*
0 $2 $3 $4 $5 $6 $7 $8 $9 X,Y pos of 4 corners*
0 Add a 4 corners polygon primitive as box body*
4,1,4,$2,$3,$4,$5,$6,$7,$8,$9,$2,$3,0*
0 Add four circle primitives for the rounded corners*
1,1,$1+$1,$2,$3*
1,1,$1+$1,$4,$5*
1,1,$1+$1,$6,$7*
1,1,$1+$1,$8,$9*
0 Add four rect primitives between the rounded corners*
20,1,$1+$1,$2,$3,$4,$5,0*
20,1,$1+$1,$4,$5,$6,$7,0*
20,1,$1+$1,$6,$7,$8,$9,0*
20,1,$1+$1,$8,$9,$2,$3,0*%
G04 Aperture macros list end*
%TA.AperFunction,ComponentPad*%
%ADD10C,1.400000*%
%TD*%
%TA.AperFunction,ComponentPad*%
%ADD11RoundRect,0.770000X-0.980000X0.980000X-0.980000X-0.980000X0.980000X-0.980000X0.980000X0.980000X0*%
%TD*%
%TA.AperFunction,ComponentPad*%
%ADD12C,3.500000*%
%TD*%
%TA.AperFunction,ComponentPad*%
%ADD13RoundRect,0.770000X0.980000X-0.980000X0.980000X0.980000X-0.980000X0.980000X-0.980000X-0.980000X0*%
%TD*%
%TA.AperFunction,SMDPad,CuDef*%
%ADD14RoundRect,0.225000X0.250000X-0.225000X0.250000X0.225000X-0.250000X0.225000X-0.250000X-0.225000X0*%
%TD*%
%TA.AperFunction,SMDPad,CuDef*%
%ADD15RoundRect,0.150000X-0.825000X-0.150000X0.825000X-0.150000X0.825000X0.150000X-0.825000X0.150000X0*%
%TD*%
%TA.AperFunction,SMDPad,CuDef*%
%ADD16RoundRect,0.075000X0.700000X0.075000X-0.700000X0.075000X-0.700000X-0.075000X0.700000X-0.075000X0*%
%TD*%
%TA.AperFunction,SMDPad,CuDef*%
%ADD17RoundRect,0.075000X0.075000X0.700000X-0.075000X0.700000X-0.075000X-0.700000X0.075000X-0.700000X0*%
%TD*%
%TA.AperFunction,SMDPad,CuDef*%
%ADD18RoundRect,0.150000X-0.150000X-0.700000X0.150000X-0.700000X0.150000X0.700000X-0.150000X0.700000X0*%
%TD*%
%TA.AperFunction,SMDPad,CuDef*%
%ADD19RoundRect,0.250000X-0.250000X-1.100000X0.250000X-1.100000X0.250000X1.100000X-0.250000X1.100000X0*%
%TD*%
%TA.AperFunction,SMDPad,CuDef*%
%ADD20RoundRect,0.225000X0.225000X0.250000X-0.225000X0.250000X-0.225000X-0.250000X0.225000X-0.250000X0*%
%TD*%
%TA.AperFunction,SMDPad,CuDef*%
%ADD21RoundRect,0.237500X0.237500X-0.250000X0.237500X0.250000X-0.237500X0.250000X-0.237500X-0.250000X0*%
%TD*%
%TA.AperFunction,SMDPad,CuDef*%
%ADD22RoundRect,0.237500X0.250000X0.237500X-0.250000X0.237500X-0.250000X-0.237500X0.250000X-0.237500X0*%
%TD*%
%TA.AperFunction,SMDPad,CuDef*%
%ADD23RoundRect,0.250000X-0.650000X0.800000X-0.650000X-0.800000X0.650000X-0.800000X0.650000X0.800000X0*%
%TD*%
%TA.AperFunction,SMDPad,CuDef*%
%ADD24RoundRect,0.112500X0.187500X0.112500X-0.187500X0.112500X-0.187500X-0.112500X0.187500X-0.112500X0*%
%TD*%
%TA.AperFunction,SMDPad,CuDef*%
%ADD25RoundRect,0.225000X-0.250000X0.225000X-0.250000X-0.225000X0.250000X-0.225000X0.250000X0.225000X0*%
%TD*%
%TA.AperFunction,SMDPad,CuDef*%
%ADD26RoundRect,0.250000X-1.000000X-0.650000X1.000000X-0.650000X1.000000X0.650000X-1.000000X0.650000X0*%
%TD*%
%TA.AperFunction,SMDPad,CuDef*%
%ADD27RoundRect,0.150000X0.825000X0.150000X-0.825000X0.150000X-0.825000X-0.150000X0.825000X-0.150000X0*%
%TD*%
%TA.AperFunction,SMDPad,CuDef*%
%ADD28RoundRect,0.237500X-0.250000X-0.237500X0.250000X-0.237500X0.250000X0.237500X-0.250000X0.237500X0*%
%TD*%
%TA.AperFunction,SMDPad,CuDef*%
%ADD29RoundRect,0.250000X0.475000X-0.337500X0.475000X0.337500X-0.475000X0.337500X-0.475000X-0.337500X0*%
%TD*%
%TA.AperFunction,SMDPad,CuDef*%
%ADD30RoundRect,0.112500X-0.187500X-0.112500X0.187500X-0.112500X0.187500X0.112500X-0.187500X0.112500X0*%
%TD*%
%TA.AperFunction,SMDPad,CuDef*%
%ADD31RoundRect,0.250000X-0.475000X0.337500X-0.475000X-0.337500X0.475000X-0.337500X0.475000X0.337500X0*%
%TD*%
%TA.AperFunction,ViaPad*%
%ADD32C,1.000000*%
%TD*%
%TA.AperFunction,ViaPad*%
%ADD33C,0.500000*%
%TD*%
%TA.AperFunction,ViaPad*%
%ADD34C,0.600000*%
%TD*%
%TA.AperFunction,Conductor*%
%ADD35C,1.000000*%
%TD*%
%TA.AperFunction,Conductor*%
%ADD36C,0.200000*%
%TD*%
%TA.AperFunction,Conductor*%
%ADD37C,0.400000*%
%TD*%
%TA.AperFunction,Conductor*%
%ADD38C,0.500000*%
%TD*%
G04 APERTURE END LIST*
D10*
%TO.P,J5,*%
%TO.N,*%
X77900000Y-59250000D03*
X77900000Y-70250000D03*
D11*
%TO.P,J5,1,Pin_1*%
%TO.N,GND*%
X72900000Y-62250000D03*
D12*
%TO.P,J5,2,Pin_2*%
%TO.N,+24V*%
X72900000Y-67250000D03*
%TD*%
D10*
%TO.P,J2,*%
%TO.N,*%
X6220000Y-76830000D03*
X6220000Y-65830000D03*
D13*
%TO.P,J2,1,Pin_1*%
%TO.N,GND*%
X16220000Y-68830000D03*
D12*
%TO.P,J2,2,Pin_2*%
%TO.N,+48V*%
X16220000Y-73830000D03*
%TD*%
D14*
%TO.P,C25,1*%
%TO.N,GND*%
X59915000Y-61272500D03*
%TO.P,C25,2*%
%TO.N,+3.3V*%
X59915000Y-59722500D03*
%TD*%
D15*
%TO.P,U3,1*%
%TO.N,/adc_Vin*%
X19095000Y-64305000D03*
%TO.P,U3,2,-*%
X19095000Y-63035000D03*
%TO.P,U3,3,+*%
%TO.N,Net-(U3A-+)*%
X19095000Y-61765000D03*
%TO.P,U3,4,V-*%
%TO.N,GND*%
X19095000Y-60495000D03*
%TO.P,U3,5,+*%
%TO.N,unconnected-(U3B-+-Pad5)*%
X24045000Y-60495000D03*
%TO.P,U3,6,-*%
%TO.N,unconnected-(U3B---Pad6)*%
X24045000Y-61765000D03*
%TO.P,U3,7*%
%TO.N,unconnected-(U3-Pad7)*%
X24045000Y-63035000D03*
%TO.P,U3,8,V+*%
%TO.N,+3.3V*%
X24045000Y-64305000D03*
%TD*%
D16*
%TO.P,U1,1,VBAT*%
%TO.N,+3.3V*%
X66515000Y-47685000D03*
%TO.P,U1,2,PC13*%
%TO.N,unconnected-(U1-PC13-Pad2)*%
X66515000Y-48185000D03*
%TO.P,U1,3,PC14*%
%TO.N,unconnected-(U1-PC14-Pad3)*%
X66515000Y-48685000D03*
%TO.P,U1,4,PC15*%
%TO.N,unconnected-(U1-PC15-Pad4)*%
X66515000Y-49185000D03*
%TO.P,U1,5,PF0*%
%TO.N,/OSC_IN*%
X66515000Y-49685000D03*
%TO.P,U1,6,PF1*%
%TO.N,/OSC_OUT*%
X66515000Y-50185000D03*
%TO.P,U1,7,NRST*%
%TO.N,/NRST*%
X66515000Y-50685000D03*
%TO.P,U1,8,PC0*%
%TO.N,unconnected-(U1-PC0-Pad8)*%
X66515000Y-51185000D03*
%TO.P,U1,9,PC1*%
%TO.N,unconnected-(U1-PC1-Pad9)*%
X66515000Y-51685000D03*
%TO.P,U1,10,PC2*%
%TO.N,unconnected-(U1-PC2-Pad10)*%
X66515000Y-52185000D03*
%TO.P,U1,11,PC3*%
%TO.N,unconnected-(U1-PC3-Pad11)*%
X66515000Y-52685000D03*
%TO.P,U1,12,VSSA*%
%TO.N,GND*%
X66515000Y-53185000D03*
%TO.P,U1,13,VDDA*%
%TO.N,+3.3V*%
X66515000Y-53685000D03*
%TO.P,U1,14,PA0*%
%TO.N,unconnected-(U1-PA0-Pad14)*%
X66515000Y-54185000D03*
%TO.P,U1,15,PA1*%
%TO.N,unconnected-(U1-PA1-Pad15)*%
X66515000Y-54685000D03*
%TO.P,U1,16,PA2*%
%TO.N,unconnected-(U1-PA2-Pad16)*%
X66515000Y-55185000D03*
D17*
%TO.P,U1,17,PA3*%
%TO.N,unconnected-(U1-PA3-Pad17)*%
X64590000Y-57110000D03*
%TO.P,U1,18,VSS*%
%TO.N,GND*%
X64090000Y-57110000D03*
%TO.P,U1,19,VDD*%
%TO.N,+3.3V*%
X63590000Y-57110000D03*
%TO.P,U1,20,PA4*%
%TO.N,unconnected-(U1-PA4-Pad20)*%
X63090000Y-57110000D03*
%TO.P,U1,21,PA5*%
%TO.N,unconnected-(U1-PA5-Pad21)*%
X62590000Y-57110000D03*
%TO.P,U1,22,PA6*%
%TO.N,unconnected-(U1-PA6-Pad22)*%
X62090000Y-57110000D03*
%TO.P,U1,23,PA7*%
%TO.N,unconnected-(U1-PA7-Pad23)*%
X61590000Y-57110000D03*
%TO.P,U1,24,PC4*%
%TO.N,unconnected-(U1-PC4-Pad24)*%
X61090000Y-57110000D03*
%TO.P,U1,25,PC5*%
%TO.N,unconnected-(U1-PC5-Pad25)*%
X60590000Y-57110000D03*
%TO.P,U1,26,PB0*%
%TO.N,/comp_cirurt*%
X60090000Y-57110000D03*
%TO.P,U1,27,PB1*%
%TO.N,unconnected-(U1-PB1-Pad27)*%
X59590000Y-57110000D03*
%TO.P,U1,28,PB2*%
%TO.N,unconnected-(U1-PB2-Pad28)*%
X59090000Y-57110000D03*
%TO.P,U1,29,PB10*%
%TO.N,unconnected-(U1-PB10-Pad29)*%
X58590000Y-57110000D03*
%TO.P,U1,30,PB11*%
%TO.N,/comp_volt*%
X58090000Y-57110000D03*
%TO.P,U1,31,VSS*%
%TO.N,GND*%
X57590000Y-57110000D03*
%TO.P,U1,32,VDD*%
%TO.N,+3.3V*%
X57090000Y-57110000D03*
D16*
%TO.P,U1,33,PB12*%
%TO.N,/adc_volt*%
X55165000Y-55185000D03*
%TO.P,U1,34,PB13*%
%TO.N,/adc_cir*%
X55165000Y-54685000D03*
%TO.P,U1,35,PB14*%
%TO.N,/adc_Vin*%
X55165000Y-54185000D03*
%TO.P,U1,36,PB15*%
%TO.N,unconnected-(U1-PB15-Pad36)*%
X55165000Y-53685000D03*
%TO.P,U1,37,PC6*%
%TO.N,unconnected-(U1-PC6-Pad37)*%
X55165000Y-53185000D03*
%TO.P,U1,38,PC7*%
%TO.N,unconnected-(U1-PC7-Pad38)*%
X55165000Y-52685000D03*
%TO.P,U1,39,PC8*%
%TO.N,unconnected-(U1-PC8-Pad39)*%
X55165000Y-52185000D03*
%TO.P,U1,40,PC9*%
%TO.N,unconnected-(U1-PC9-Pad40)*%
X55165000Y-51685000D03*
%TO.P,U1,41,PA8*%
%TO.N,/HRTIM_+*%
X55165000Y-51185000D03*
%TO.P,U1,42,PA9*%
%TO.N,/HRTIM_-*%
X55165000Y-50685000D03*
%TO.P,U1,43,PA10*%
%TO.N,unconnected-(U1-PA10-Pad43)*%
X55165000Y-50185000D03*
%TO.P,U1,44,PA11*%
%TO.N,unconnected-(U1-PA11-Pad44)*%
X55165000Y-49685000D03*
%TO.P,U1,45,PA12*%
%TO.N,unconnected-(U1-PA12-Pad45)*%
X55165000Y-49185000D03*
%TO.P,U1,46,PA13*%
%TO.N,/SWDIO*%
X55165000Y-48685000D03*
%TO.P,U1,47,VSS*%
%TO.N,GND*%
X55165000Y-48185000D03*
%TO.P,U1,48,VDD*%
%TO.N,+3.3V*%
X55165000Y-47685000D03*
D17*
%TO.P,U1,49,PA14*%
%TO.N,/SWCLK*%
X57090000Y-45760000D03*
%TO.P,U1,50,PA15*%
%TO.N,unconnected-(U1-PA15-Pad50)*%
X57590000Y-45760000D03*
%TO.P,U1,51,PC10*%
%TO.N,/USART3_TX*%
X58090000Y-45760000D03*
%TO.P,U1,52,PC11*%
%TO.N,/USART3_RX*%
X58590000Y-45760000D03*
%TO.P,U1,53,PC12*%
%TO.N,unconnected-(U1-PC12-Pad53)*%
X59090000Y-45760000D03*
%TO.P,U1,54,PD2*%
%TO.N,unconnected-(U1-PD2-Pad54)*%
X59590000Y-45760000D03*
%TO.P,U1,55,PB3*%
%TO.N,unconnected-(U1-PB3-Pad55)*%
X60090000Y-45760000D03*
%TO.P,U1,56,PB4*%
%TO.N,unconnected-(U1-PB4-Pad56)*%
X60590000Y-45760000D03*
%TO.P,U1,57,PB5*%
%TO.N,unconnected-(U1-PB5-Pad57)*%
X61090000Y-45760000D03*
%TO.P,U1,58,PB6*%
%TO.N,unconnected-(U1-PB6-Pad58)*%
X61590000Y-45760000D03*
%TO.P,U1,59,PB7*%
%TO.N,unconnected-(U1-PB7-Pad59)*%
X62090000Y-45760000D03*
%TO.P,U1,60,BOOT0*%
%TO.N,/BOOT0*%
X62590000Y-45760000D03*
%TO.P,U1,61,PB8*%
%TO.N,unconnected-(U1-PB8-Pad61)*%
X63090000Y-45760000D03*
%TO.P,U1,62,PB9*%
%TO.N,unconnected-(U1-PB9-Pad62)*%
X63590000Y-45760000D03*
%TO.P,U1,63,VSS*%
%TO.N,GND*%
X64090000Y-45760000D03*
%TO.P,U1,64,VDD*%
%TO.N,+3.3V*%
X64590000Y-45760000D03*
%TD*%
D18*
%TO.P,J1,1,Pin_1*%
%TO.N,+3.3V*%
X54565000Y-42800000D03*
%TO.P,J1,2,Pin_2*%
%TO.N,/SWDIO*%
X55815000Y-42800000D03*
%TO.P,J1,3,Pin_3*%
%TO.N,/SWCLK*%
X57065000Y-42800000D03*
%TO.P,J1,4,Pin_4*%
%TO.N,GND*%
X58315000Y-42800000D03*
%TO.P,J1,5,Pin_5*%
%TO.N,/USART3_TX*%
X59565000Y-42800000D03*
%TO.P,J1,6,Pin_6*%
%TO.N,/USART3_RX*%
X60815000Y-42800000D03*
D19*
%TO.P,J1,MP,MountPin*%
%TO.N,GND*%
X52715000Y-39600000D03*
X62665000Y-39600000D03*
%TD*%
D20*
%TO.P,C33,1*%
%TO.N,GND*%
X69915000Y-54250000D03*
%TO.P,C33,2*%
%TO.N,+3.3V*%
X68365000Y-54250000D03*
%TD*%
D21*
%TO.P,R7,1*%
%TO.N,GND*%
X40055000Y-72727500D03*
%TO.P,R7,2*%
%TO.N,/HRTIM_-*%
X40055000Y-70902500D03*
%TD*%
%TO.P,R8,1*%
%TO.N,GND*%
X41710000Y-72712500D03*
%TO.P,R8,2*%
%TO.N,/HRTIM_+*%
X41710000Y-70887500D03*
%TD*%
%TO.P,R19,1*%
%TO.N,+48V*%
X16500000Y-64787500D03*
%TO.P,R19,2*%
%TO.N,Net-(U3A-+)*%
X16500000Y-62962500D03*
%TD*%
D22*
%TO.P,R18,1*%
%TO.N,/comp_volt*%
X58092500Y-59100000D03*
%TO.P,R18,2*%
%TO.N,/adc_volt*%
X56267500Y-59100000D03*
%TD*%
D21*
%TO.P,R20,1*%
%TO.N,Net-(U3A-+)*%
X16350000Y-60762500D03*
%TO.P,R20,2*%
%TO.N,GND*%
X16350000Y-58937500D03*
%TD*%
D23*
%TO.P,Y1,1,1*%
%TO.N,/OSC_IN*%
X72925000Y-48510000D03*
%TO.P,Y1,2,2*%
%TO.N,GND*%
X72925000Y-51410000D03*
%TO.P,Y1,3,3*%
%TO.N,/OSC_OUT*%
X70625000Y-51410000D03*
%TO.P,Y1,4,4*%
%TO.N,GND*%
X70625000Y-48510000D03*
%TD*%
D21*
%TO.P,R17,1*%
%TO.N,Net-(U6A-+)*%
X69880000Y-59870000D03*
%TO.P,R17,2*%
%TO.N,GND*%
X69880000Y-58045000D03*
%TD*%
D24*
%TO.P,D4,1,K*%
%TO.N,Net-(D4-K)*%
X30055000Y-73315000D03*
%TO.P,D4,2,A*%
%TO.N,Net-(D4-A)*%
X27955000Y-73315000D03*
%TD*%
D25*
%TO.P,C14,1*%
%TO.N,GND*%
X68550000Y-47460000D03*
%TO.P,C14,2*%
%TO.N,/OSC_IN*%
X68550000Y-49010000D03*
%TD*%
D26*
%TO.P,D2,1,K*%
%TO.N,Net-(D2-K)*%
X33005000Y-65000000D03*
%TO.P,D2,2,A*%
%TO.N,+12V*%
X37005000Y-65000000D03*
%TD*%
D27*
%TO.P,U6,1*%
%TO.N,/comp_volt*%
X67115000Y-59785000D03*
%TO.P,U6,2,-*%
X67115000Y-61055000D03*
%TO.P,U6,3,+*%
%TO.N,Net-(U6A-+)*%
X67115000Y-62325000D03*
%TO.P,U6,4,V-*%
%TO.N,GND*%
X67115000Y-63595000D03*
%TO.P,U6,5,+*%
%TO.N,unconnected-(U6B-+-Pad5)*%
X62165000Y-63595000D03*
%TO.P,U6,6,-*%
%TO.N,unconnected-(U6B---Pad6)*%
X62165000Y-62325000D03*
%TO.P,U6,7*%
%TO.N,unconnected-(U6-Pad7)*%
X62165000Y-61055000D03*
%TO.P,U6,8,V+*%
%TO.N,+3.3V*%
X62165000Y-59785000D03*
%TD*%
D21*
%TO.P,R16,1*%
%TO.N,+24V*%
X69880000Y-63745000D03*
%TO.P,R16,2*%
%TO.N,Net-(U6A-+)*%
X69880000Y-61920000D03*
%TD*%
D28*
%TO.P,R5,1*%
%TO.N,Net-(D3-K)*%
X28367500Y-65865000D03*
%TO.P,R5,2*%
%TO.N,Net-(D3-A)*%
X30192500Y-65865000D03*
%TD*%
D29*
%TO.P,C10,1*%
%TO.N,+12V*%
X40055000Y-66202500D03*
%TO.P,C10,2*%
%TO.N,GND*%
X40055000Y-64127500D03*
%TD*%
D30*
%TO.P,D3,1,K*%
%TO.N,Net-(D3-K)*%
X28155000Y-63940000D03*
%TO.P,D3,2,A*%
%TO.N,Net-(D3-A)*%
X30255000Y-63940000D03*
%TD*%
D14*
%TO.P,C16,1*%
%TO.N,GND*%
X68500000Y-52185000D03*
%TO.P,C16,2*%
%TO.N,/OSC_OUT*%
X68500000Y-50635000D03*
%TD*%
D27*
%TO.P,U4,1,VDD*%
%TO.N,+12V*%
X37980000Y-68095000D03*
%TO.P,U4,2,HI*%
%TO.N,/HRTIM_+*%
X37980000Y-69365000D03*
%TO.P,U4,3,LI*%
%TO.N,/HRTIM_-*%
X37980000Y-70635000D03*
%TO.P,U4,4,VSS*%
%TO.N,GND*%
X37980000Y-71905000D03*
%TO.P,U4,5,LO*%
%TO.N,Net-(D4-K)*%
X33030000Y-71905000D03*
%TO.P,U4,6,HS*%
%TO.N,Net-(Q2-D)*%
X33030000Y-70635000D03*
%TO.P,U4,7,HO*%
%TO.N,Net-(D3-K)*%
X33030000Y-69365000D03*
%TO.P,U4,8,HB*%
%TO.N,Net-(D2-K)*%
X33030000Y-68095000D03*
%TD*%
D31*
%TO.P,C9,1*%
%TO.N,Net-(D2-K)*%
X30145000Y-67483000D03*
%TO.P,C9,2*%
%TO.N,Net-(Q2-D)*%
X30145000Y-69558000D03*
%TD*%
D22*
%TO.P,R6,1*%
%TO.N,Net-(D4-K)*%
X29992500Y-71240000D03*
%TO.P,R6,2*%
%TO.N,Net-(D4-A)*%
X28167500Y-71240000D03*
%TD*%
D32*
%TO.N,+48V*%
X16590000Y-50920000D03*
D33*
%TO.N,GND*%
X72500000Y-76500000D03*
X71750000Y-38500000D03*
X18975000Y-43820000D03*
X58750000Y-73250000D03*
X21225000Y-67620000D03*
X62500000Y-74500000D03*
X39750000Y-49250000D03*
X52500000Y-73250000D03*
X30000000Y-62000000D03*
X73250000Y-55500000D03*
X44500000Y-61000000D03*
X71000000Y-44250000D03*
X42600000Y-38800000D03*
X28500000Y-38750000D03*
X17000000Y-41250000D03*
X53350000Y-68300000D03*
X41600000Y-38800000D03*
X39750000Y-50500000D03*
X36725000Y-59500000D03*
X33750000Y-40000000D03*
X71750000Y-41000000D03*
X47225000Y-39820000D03*
X18500000Y-56500000D03*
X18800000Y-47200000D03*
X71250000Y-55500000D03*
X68500000Y-75250000D03*
X70250000Y-56500000D03*
X16500000Y-55500000D03*
X45750000Y-75000000D03*
X37750000Y-73750000D03*
X33750000Y-38750000D03*
X56750000Y-75500000D03*
X72725000Y-39820000D03*
X43750000Y-72750000D03*
X41000000Y-68500000D03*
X23250000Y-50250000D03*
X66500000Y-73000000D03*
X28500000Y-40000000D03*
X51250000Y-41000000D03*
X53500000Y-78000000D03*
X24250000Y-52750000D03*
X16500000Y-56500000D03*
X27475000Y-60820000D03*
X64500000Y-75250000D03*
X16500000Y-57750000D03*
X17000000Y-46250000D03*
X70000000Y-44250000D03*
X53500000Y-72000000D03*
X18816728Y-46255198D03*
X71475000Y-76570000D03*
X44500000Y-63500000D03*
X16000000Y-48750000D03*
X69500000Y-73000000D03*
X38400000Y-38800000D03*
X49750000Y-78250000D03*
X58750000Y-76750000D03*
X30000000Y-60750000D03*
X71250000Y-56500000D03*
X41750000Y-78250000D03*
X20000000Y-38750000D03*
X21500000Y-56500000D03*
X45750000Y-77250000D03*
X58750000Y-78000000D03*
X43475000Y-62320000D03*
X67500000Y-71750000D03*
X54500000Y-72000000D03*
X42000000Y-67750000D03*
X69500000Y-74250000D03*
X35750000Y-78250000D03*
X70000000Y-41750000D03*
X63500000Y-72000000D03*
X70000000Y-38500000D03*
X38750000Y-78250000D03*
X15000000Y-43750000D03*
X29500000Y-41250000D03*
X66975000Y-43070000D03*
X27500000Y-59500000D03*
X49250000Y-38500000D03*
X66500000Y-74250000D03*
X19500000Y-59000000D03*
X72750000Y-41000000D03*
X39750000Y-76000000D03*
X40725000Y-50570000D03*
X71250000Y-58500000D03*
X44500000Y-62250000D03*
X71750000Y-46200000D03*
X47750000Y-78250000D03*
X55600000Y-70600000D03*
X62500000Y-75500000D03*
X47250000Y-41000000D03*
X67500000Y-75250000D03*
X35025000Y-48930000D03*
X24225000Y-51570000D03*
X56750000Y-78000000D03*
X39500000Y-55750000D03*
X71750000Y-44250000D03*
X72750000Y-38500000D03*
X17816728Y-46255198D03*
X61500000Y-76750000D03*
X20250000Y-67550000D03*
X18800000Y-78200000D03*
X32000000Y-62000000D03*
X54600000Y-68300000D03*
X20500000Y-59000000D03*
X59750000Y-72000000D03*
X16000000Y-78200000D03*
X57750000Y-73250000D03*
X18500000Y-57750000D03*
X31000000Y-59500000D03*
X43000000Y-69500000D03*
X42500000Y-60250000D03*
X42750000Y-76000000D03*
X69500000Y-77750000D03*
X17000000Y-43750000D03*
X38750000Y-59500000D03*
X54600000Y-70800000D03*
X71250000Y-57500000D03*
X36750000Y-58750000D03*
X17500000Y-53000000D03*
X71750000Y-39750000D03*
X23400000Y-38800000D03*
X42750000Y-77250000D03*
X70500000Y-75250000D03*
X40750000Y-76000000D03*
X23400000Y-66600000D03*
X22250000Y-68800000D03*
X72725000Y-43070000D03*
X19400000Y-77400000D03*
X31000000Y-62000000D03*
X21500000Y-57750000D03*
X16000000Y-42500000D03*
X62475000Y-76820000D03*
X61500000Y-73250000D03*
X24250000Y-50250000D03*
X71500000Y-75250000D03*
X48250000Y-39750000D03*
X73750000Y-43000000D03*
X46200000Y-71800000D03*
X59750000Y-75500000D03*
X55750000Y-75500000D03*
X67500000Y-74250000D03*
X68000000Y-44250000D03*
X37750000Y-60500000D03*
X69000000Y-46200000D03*
X41000000Y-67750000D03*
X36025000Y-47680000D03*
X62475000Y-73320000D03*
X26500000Y-59500000D03*
X66500000Y-76500000D03*
X36250000Y-53250000D03*
X59750000Y-74500000D03*
X23250000Y-52750000D03*
X68250000Y-58500000D03*
X61500000Y-72000000D03*
X22250000Y-65400000D03*
X51250000Y-38500000D03*
X28500000Y-60750000D03*
X31750000Y-40000000D03*
X42750000Y-73750000D03*
X70250000Y-57500000D03*
X58750000Y-75500000D03*
X33750000Y-78250000D03*
X30975000Y-60820000D03*
X16000000Y-38750000D03*
X69000000Y-41000000D03*
X39750000Y-73750000D03*
X64500000Y-71750000D03*
X42500000Y-64500000D03*
X38500000Y-55750000D03*
X54500000Y-73250000D03*
X60750000Y-78000000D03*
X69500000Y-71750000D03*
X43500000Y-61000000D03*
X22400000Y-38800000D03*
X40750000Y-51750000D03*
X55600000Y-69350000D03*
X35400000Y-62600000D03*
X15000000Y-47500000D03*
X69050000Y-45200000D03*
X24600000Y-66600000D03*
X32750000Y-38750000D03*
X33400000Y-62600000D03*
X64500000Y-74250000D03*
X39750000Y-77250000D03*
X36750000Y-78250000D03*
X46250000Y-38500000D03*
X68250000Y-55500000D03*
X55750000Y-74500000D03*
X38725000Y-73820000D03*
X43500000Y-63500000D03*
X18500000Y-55500000D03*
X18000000Y-38750000D03*
X71000000Y-41750000D03*
X35025000Y-47680000D03*
X63500000Y-76750000D03*
X70250000Y-58500000D03*
X17500000Y-59000000D03*
X38800000Y-62600000D03*
X44500000Y-67000000D03*
X38500000Y-54500000D03*
X46750000Y-78250000D03*
X30500000Y-41250000D03*
X18000000Y-45000000D03*
X15600000Y-65800000D03*
X41750000Y-50500000D03*
X43500000Y-60250000D03*
X70500000Y-73000000D03*
X66000000Y-39750000D03*
X40750000Y-75000000D03*
X41750000Y-76000000D03*
X17200000Y-78200000D03*
X44750000Y-76000000D03*
X72250000Y-55500000D03*
X43750000Y-76000000D03*
X44000000Y-68500000D03*
X45750000Y-72750000D03*
X23400000Y-68800000D03*
X52350000Y-68300000D03*
X69000000Y-39750000D03*
X68475000Y-76570000D03*
X72750000Y-41750000D03*
X58750000Y-72000000D03*
X61500000Y-75500000D03*
X63500000Y-78000000D03*
X64500000Y-76500000D03*
X71800000Y-45200000D03*
X44500000Y-65750000D03*
X34750000Y-78250000D03*
X42750000Y-78250000D03*
X72250000Y-54500000D03*
X66975000Y-39820000D03*
X35200000Y-51600000D03*
X46250000Y-39750000D03*
X66000000Y-38500000D03*
X30000000Y-59500000D03*
X43750000Y-77250000D03*
X43600000Y-38800000D03*
X66500000Y-77750000D03*
X72250000Y-57500000D03*
X60750000Y-76750000D03*
X65500000Y-77750000D03*
X42500000Y-67000000D03*
X43000000Y-68500000D03*
X69500000Y-75250000D03*
X72500000Y-74250000D03*
X60750000Y-75500000D03*
X16400000Y-66800000D03*
X17000000Y-45000000D03*
X68050000Y-45200000D03*
X16500000Y-53000000D03*
X41750000Y-51750000D03*
X68500000Y-71750000D03*
X41750000Y-49250000D03*
X54500000Y-78000000D03*
X37750000Y-76000000D03*
X42500000Y-65750000D03*
X45200000Y-71800000D03*
X28500000Y-62000000D03*
X38750000Y-60500000D03*
X70250000Y-55500000D03*
X71750000Y-41750000D03*
X71500000Y-74250000D03*
X17475000Y-57820000D03*
X21400000Y-38800000D03*
X28500000Y-41250000D03*
X20250000Y-68800000D03*
X40000000Y-67750000D03*
X66500000Y-71750000D03*
X43750000Y-75000000D03*
X71475000Y-73070000D03*
X44725000Y-73820000D03*
X42750000Y-75000000D03*
X70500000Y-71750000D03*
X39500000Y-53250000D03*
X40500000Y-53250000D03*
X37250000Y-55750000D03*
X48750000Y-78250000D03*
X24600000Y-67550000D03*
X15000000Y-77400000D03*
X19000000Y-38750000D03*
X17475000Y-54320000D03*
X29200000Y-62000000D03*
X17000000Y-42500000D03*
X36000000Y-49000000D03*
X53475000Y-76820000D03*
X65500000Y-71750000D03*
X73250000Y-54500000D03*
X30500000Y-40000000D03*
X33750000Y-41250000D03*
X18400000Y-77400000D03*
X68250000Y-56500000D03*
X72800000Y-45200000D03*
X68000000Y-43000000D03*
X39750000Y-78250000D03*
X20000000Y-40000000D03*
X57750000Y-76750000D03*
X37000000Y-49000000D03*
X19000000Y-45000000D03*
X69975000Y-39820000D03*
X39750000Y-51750000D03*
X19500000Y-56500000D03*
X71750000Y-43000000D03*
X37800000Y-62600000D03*
X71050000Y-45200000D03*
X38725000Y-77320000D03*
X66000000Y-41000000D03*
X42750000Y-72750000D03*
X40400000Y-38800000D03*
X25400000Y-56000000D03*
X49250000Y-41000000D03*
X17000000Y-38750000D03*
X70500000Y-77750000D03*
X73250000Y-56500000D03*
X37750000Y-77250000D03*
X26500000Y-60750000D03*
X62500000Y-78000000D03*
D34*
X51800000Y-46800000D03*
D33*
X38750000Y-76000000D03*
X55750000Y-72000000D03*
X42000000Y-69500000D03*
X42000000Y-68500000D03*
X72500000Y-75250000D03*
X70000000Y-41000000D03*
X15000000Y-42500000D03*
X31750000Y-41250000D03*
X37150000Y-38800000D03*
X20500000Y-56500000D03*
X15000000Y-48750000D03*
X42500000Y-61000000D03*
X35750000Y-60500000D03*
X20475000Y-57820000D03*
X37750000Y-75000000D03*
X69250000Y-57500000D03*
X48250000Y-41000000D03*
X29200000Y-59500000D03*
X17000000Y-40000000D03*
X69250000Y-56500000D03*
X36750000Y-60500000D03*
X41725000Y-77320000D03*
X52500000Y-75500000D03*
X72750000Y-44250000D03*
X16000000Y-77400000D03*
X21250000Y-68800000D03*
X69000000Y-44250000D03*
X17500000Y-56500000D03*
X30500000Y-38750000D03*
X68475000Y-73070000D03*
X15000000Y-46250000D03*
X25250000Y-51500000D03*
X66000000Y-41750000D03*
X38750000Y-75000000D03*
X32750000Y-41250000D03*
X14800000Y-65000000D03*
X67500000Y-77750000D03*
X70500000Y-76500000D03*
X63500000Y-75500000D03*
X73750000Y-41000000D03*
X15975000Y-43820000D03*
X71000000Y-43000000D03*
X69250000Y-55500000D03*
X43750000Y-73750000D03*
X25400000Y-54750000D03*
X68500000Y-74250000D03*
X18975000Y-40070000D03*
X69000000Y-43000000D03*
X50225000Y-39820000D03*
X37750000Y-58750000D03*
X43500000Y-67000000D03*
X73750000Y-38500000D03*
X67000000Y-41000000D03*
X54500000Y-76750000D03*
X24600000Y-65400000D03*
X54600000Y-69550000D03*
X32725000Y-40070000D03*
X43000000Y-67750000D03*
X57750000Y-78000000D03*
X43475000Y-65820000D03*
X71500000Y-77750000D03*
X44750000Y-72750000D03*
X52500000Y-74500000D03*
X23250000Y-51500000D03*
X37000000Y-47750000D03*
X35750000Y-59500000D03*
X15975000Y-40070000D03*
X52500000Y-78000000D03*
X17500000Y-55500000D03*
X16500000Y-59000000D03*
X16000000Y-41250000D03*
X42500000Y-63500000D03*
X24375000Y-56070000D03*
X55750000Y-76750000D03*
X16500000Y-54250000D03*
X20000000Y-41250000D03*
X72500000Y-77750000D03*
X68000000Y-39750000D03*
X71500000Y-71750000D03*
X14818620Y-65890690D03*
X35250000Y-53250000D03*
X52500000Y-76750000D03*
X68000000Y-41000000D03*
X22250000Y-66600000D03*
X35150000Y-38800000D03*
X18000000Y-43750000D03*
X17800000Y-47200000D03*
X69500000Y-76500000D03*
X38500000Y-53250000D03*
X15000000Y-41250000D03*
X57750000Y-74500000D03*
X71000000Y-38500000D03*
X40500000Y-54500000D03*
X22400000Y-78200000D03*
D34*
X53400000Y-46805000D03*
D33*
X50250000Y-41000000D03*
X15975000Y-47570000D03*
X31750000Y-38750000D03*
X73750000Y-41750000D03*
X46250000Y-41000000D03*
X70500000Y-74250000D03*
X67500000Y-76500000D03*
X52350000Y-70800000D03*
X64500000Y-73000000D03*
X68500000Y-77750000D03*
X69250000Y-58500000D03*
X54500000Y-74500000D03*
X62500000Y-72000000D03*
X46400000Y-70800000D03*
X44725000Y-77320000D03*
X73750000Y-39750000D03*
X68000000Y-41750000D03*
X43750000Y-78250000D03*
X29475000Y-40070000D03*
X45750000Y-73750000D03*
X49250000Y-39750000D03*
X60750000Y-74500000D03*
X15000000Y-78200000D03*
X66000000Y-44250000D03*
X65500000Y-74250000D03*
X28500000Y-59500000D03*
X73750000Y-44250000D03*
X44500000Y-64500000D03*
X14800000Y-66800000D03*
X38750000Y-58750000D03*
X70000000Y-46200000D03*
X23400000Y-65400000D03*
X16000000Y-45000000D03*
X45750000Y-78250000D03*
X72500000Y-71750000D03*
X69000000Y-41750000D03*
X20200000Y-78200000D03*
X40500000Y-55750000D03*
X50250000Y-38500000D03*
X37750000Y-78250000D03*
X18000000Y-42500000D03*
X72750000Y-46200000D03*
X71000000Y-41000000D03*
X61500000Y-74500000D03*
X55750000Y-73250000D03*
X20250000Y-66600000D03*
X64500000Y-77750000D03*
X36225000Y-54570000D03*
X40000000Y-68500000D03*
X35750000Y-58750000D03*
X57750000Y-72000000D03*
X68000000Y-46200000D03*
X17200000Y-77400000D03*
X53350000Y-70800000D03*
X52500000Y-72000000D03*
X55600000Y-68100000D03*
X52325000Y-69620000D03*
X18000000Y-40000000D03*
X40750000Y-49250000D03*
X24400000Y-54750000D03*
X40750000Y-73750000D03*
X39750000Y-75000000D03*
X67500000Y-73000000D03*
X18000000Y-41250000D03*
X15000000Y-40000000D03*
X27500000Y-62000000D03*
X36250000Y-55750000D03*
X44000000Y-67750000D03*
X36800000Y-62600000D03*
X67000000Y-41750000D03*
X61500000Y-78000000D03*
X47250000Y-38500000D03*
X56725000Y-73320000D03*
X19000000Y-42500000D03*
X45750000Y-76000000D03*
X43500000Y-64500000D03*
X67000000Y-38500000D03*
X65475000Y-73070000D03*
X40750000Y-78250000D03*
X60750000Y-72000000D03*
X21250000Y-66600000D03*
X35200000Y-50350000D03*
X19500000Y-57750000D03*
X39475000Y-54570000D03*
X32000000Y-60750000D03*
X20250000Y-65400000D03*
X18500000Y-59000000D03*
X29500000Y-38750000D03*
X23400000Y-67550000D03*
X36150000Y-38800000D03*
X63500000Y-73250000D03*
X56725000Y-76820000D03*
X48250000Y-38500000D03*
X40750000Y-77250000D03*
X34400000Y-62600000D03*
X73800000Y-45200000D03*
X53500000Y-74500000D03*
X53475000Y-73320000D03*
X65500000Y-75250000D03*
X15000000Y-38750000D03*
X71000000Y-46200000D03*
X72250000Y-56500000D03*
X70050000Y-45200000D03*
X41750000Y-75000000D03*
X44750000Y-75000000D03*
X21250000Y-65400000D03*
X22250000Y-67550000D03*
X35250000Y-54500000D03*
X72500000Y-73000000D03*
X26500000Y-62000000D03*
X71000000Y-39750000D03*
X73750000Y-46200000D03*
X66500000Y-75250000D03*
X17000000Y-48750000D03*
X25250000Y-52750000D03*
X55750000Y-78000000D03*
X19000000Y-41250000D03*
X32000000Y-59500000D03*
X67000000Y-44250000D03*
X37250000Y-54500000D03*
X68000000Y-38500000D03*
X54500000Y-75500000D03*
X56750000Y-72000000D03*
X69000000Y-38500000D03*
X53500000Y-75500000D03*
X21200000Y-78200000D03*
X25250000Y-50250000D03*
X35250000Y-55750000D03*
X16000000Y-46250000D03*
X59725000Y-73320000D03*
X60750000Y-73250000D03*
X44500000Y-60250000D03*
X65475000Y-76570000D03*
X18500000Y-54250000D03*
X37250000Y-53250000D03*
X56750000Y-74500000D03*
X44750000Y-78250000D03*
X58750000Y-74500000D03*
X24600000Y-68800000D03*
X39400000Y-38800000D03*
X42500000Y-62250000D03*
X66000000Y-43000000D03*
X29200000Y-60750000D03*
X69975000Y-43070000D03*
X41725000Y-73820000D03*
X15600000Y-66800000D03*
X51250000Y-39750000D03*
X20600000Y-77400000D03*
X59750000Y-78000000D03*
X53350000Y-69550000D03*
X68250000Y-57500000D03*
X59725000Y-76820000D03*
X15000000Y-45000000D03*
X57750000Y-75500000D03*
X63500000Y-74500000D03*
X17000000Y-47500000D03*
X37750000Y-59500000D03*
X73250000Y-57500000D03*
D34*
%TO.N,Net-(U2-SW)*%
X30605000Y-49720000D03*
X26875000Y-49665000D03*
%TO.N,+12V*%
X33880000Y-59000000D03*
%TO.N,Net-(C4-Pad1)*%
X28920000Y-56410000D03*
X24620000Y-40145000D03*
%TO.N,+3.3V*%
X63930000Y-59750000D03*
X66515000Y-47535000D03*
X38510000Y-57700000D03*
X55165000Y-47535000D03*
X68250000Y-54250000D03*
X63760000Y-58430000D03*
%TO.N,Net-(Q2-D)*%
X27460000Y-69990000D03*
X28590000Y-69570000D03*
X29170000Y-70020000D03*
X28495820Y-68563850D03*
X27760000Y-69280000D03*
X27460000Y-68420000D03*
X30120000Y-69600000D03*
%TO.N,+24V*%
X55820000Y-64030000D03*
X51822500Y-57730000D03*
%TO.N,Net-(L2-Pad2)*%
X52720000Y-64030000D03*
X51872500Y-59620000D03*
%TO.N,Net-(D3-A)*%
X27255000Y-72110000D03*
%TO.N,Net-(D4-A)*%
X26170000Y-63860000D03*
%TO.N,/HRTIM_-*%
X47250000Y-53090000D03*
X47260000Y-55040000D03*
%TO.N,/HRTIM_+*%
X48580000Y-53110000D03*
X48510000Y-54480000D03*
%TO.N,/NRST*%
X64800000Y-50630000D03*
%TO.N,/BOOT0*%
X63040000Y-43540000D03*
%TO.N,/comp_cirurt*%
X57750000Y-55600000D03*
%TO.N,/adc_cir*%
X53370000Y-54680000D03*
%TD*%
D35*
%TO.N,+48V*%
X14950000Y-63237500D02*
X14950000Y-52560000D01*
X16500000Y-64787500D02*
X14950000Y-63237500D01*
X18800000Y-71400000D02*
X18779000Y-71379000D01*
X16500000Y-64787500D02*
X18800000Y-67087500D01*
X18779000Y-71379000D02*
X18671000Y-71379000D01*
X18800000Y-67087500D02*
X18800000Y-71400000D01*
X18671000Y-71379000D02*
X16220000Y-73830000D01*
X14950000Y-52560000D02*
X16590000Y-50920000D01*
D36*
%TO.N,GND*%
X64090000Y-57110000D02*
X64090000Y-56301176D01*
X66515000Y-53185000D02*
X68985000Y-53185000D01*
X69076000Y-52761000D02*
X71574000Y-52761000D01*
X64357176Y-56034000D02*
X64834000Y-56034000D01*
X68550000Y-47460000D02*
X69575000Y-47460000D01*
X68500000Y-52185000D02*
X69076000Y-52761000D01*
X57590000Y-57110000D02*
X57590000Y-58346866D01*
X64090000Y-45760000D02*
X64090000Y-42110000D01*
X53400000Y-47228824D02*
X53400000Y-46805000D01*
X70625000Y-48510000D02*
X71976000Y-47159000D01*
X55165000Y-48185000D02*
X54356176Y-48185000D01*
X69575000Y-47460000D02*
X70625000Y-48510000D01*
X57200000Y-58736866D02*
X57200000Y-60200000D01*
X57590000Y-58346866D02*
X57200000Y-58736866D01*
X74126000Y-47474840D02*
X74126000Y-50209000D01*
X64090000Y-42110000D02*
X64600000Y-41600000D01*
X73810160Y-47159000D02*
X74126000Y-47474840D01*
X54356176Y-48185000D02*
X53400000Y-47228824D01*
X68985000Y-53185000D02*
X69200000Y-53400000D01*
X64834000Y-56034000D02*
X65600000Y-56800000D01*
X71976000Y-47159000D02*
X73810160Y-47159000D01*
X74126000Y-50209000D02*
X72925000Y-51410000D01*
X64090000Y-56301176D02*
X64357176Y-56034000D01*
X71574000Y-52761000D02*
X72925000Y-51410000D01*
D37*
%TO.N,Net-(U2-SW)*%
X26930000Y-49720000D02*
X26875000Y-49665000D01*
X30605000Y-49720000D02*
X26930000Y-49720000D01*
%TO.N,+12V*%
X40130000Y-61370000D02*
X41450000Y-62690000D01*
X37005000Y-65000000D02*
X37005000Y-67120000D01*
X33880000Y-59000000D02*
X33880000Y-59930000D01*
X37005000Y-67120000D02*
X37980000Y-68095000D01*
X33880000Y-59930000D02*
X35320000Y-61370000D01*
X40055000Y-66202500D02*
X39872500Y-66202500D01*
X40747500Y-66202500D02*
X40055000Y-66202500D01*
X35320000Y-61370000D02*
X40130000Y-61370000D01*
X39872500Y-66202500D02*
X37980000Y-68095000D01*
X41450000Y-62690000D02*
X41450000Y-65500000D01*
X41450000Y-65500000D02*
X40747500Y-66202500D01*
%TO.N,Net-(C4-Pad1)*%
X31230000Y-47670000D02*
X31890000Y-48330000D01*
X24620000Y-46340000D02*
X25950000Y-47670000D01*
X25950000Y-47670000D02*
X31230000Y-47670000D01*
X31890000Y-55820000D02*
X31300000Y-56410000D01*
X31890000Y-48330000D02*
X31890000Y-55820000D01*
X24620000Y-40145000D02*
X24620000Y-46340000D01*
X31300000Y-56410000D02*
X28920000Y-56410000D01*
D36*
%TO.N,+3.3V*%
X24030000Y-58030000D02*
X22120000Y-59940000D01*
X22120000Y-59940000D02*
X22120000Y-63354999D01*
X63590000Y-57110000D02*
X63590000Y-56301176D01*
X63590000Y-57110000D02*
X63590000Y-55801176D01*
X54565000Y-47085000D02*
X55165000Y-47685000D01*
X65706176Y-53685000D02*
X66515000Y-53685000D01*
X64590000Y-47250000D02*
X64590000Y-45760000D01*
X67800000Y-53685000D02*
X68365000Y-54250000D01*
X59915000Y-59722500D02*
X62102500Y-59722500D01*
X63760000Y-58430000D02*
X63590000Y-58260000D01*
X63590000Y-56301176D02*
X62288824Y-55000000D01*
X63590000Y-58260000D02*
X63590000Y-57110000D01*
X38510000Y-57700000D02*
X38180000Y-58030000D01*
X23070001Y-64305000D02*
X24045000Y-64305000D01*
X63590000Y-55801176D02*
X65706176Y-53685000D01*
X62288824Y-55000000D02*
X57250000Y-55000000D01*
X57250000Y-55000000D02*
X57000000Y-55250000D01*
X57090000Y-56301176D02*
X57090000Y-57110000D01*
X22120000Y-63354999D02*
X23070001Y-64305000D01*
X38180000Y-58030000D02*
X24030000Y-58030000D01*
X62165000Y-59785000D02*
X63895000Y-59785000D01*
X62102500Y-59722500D02*
X62165000Y-59785000D01*
X54565000Y-42800000D02*
X54565000Y-47085000D01*
X57000000Y-56211176D02*
X57090000Y-56301176D01*
X66515000Y-47685000D02*
X65025000Y-47685000D01*
X57000000Y-55250000D02*
X57000000Y-56211176D01*
X65025000Y-47685000D02*
X64590000Y-47250000D01*
X66515000Y-53685000D02*
X67800000Y-53685000D01*
X63895000Y-59785000D02*
X63930000Y-59750000D01*
D37*
%TO.N,Net-(D2-K)*%
X30145000Y-67483000D02*
X30522000Y-67483000D01*
X33005000Y-65000000D02*
X33005000Y-68070000D01*
X30522000Y-67483000D02*
X33005000Y-65000000D01*
X33005000Y-68070000D02*
X33030000Y-68095000D01*
D35*
%TO.N,Net-(Q2-D)*%
X33030000Y-70635000D02*
X31208820Y-70635000D01*
X30173820Y-69600000D02*
X30120000Y-69600000D01*
X31208820Y-70635000D02*
X30173820Y-69600000D01*
D36*
%TO.N,+24V*%
X69880000Y-64230000D02*
X72900000Y-67250000D01*
X51822500Y-57730000D02*
X54191887Y-60099387D01*
X69880000Y-63745000D02*
X69880000Y-64230000D01*
X54191887Y-60099387D02*
G75*
G02*
X55820008Y-64030000I-3930587J-3930613D01*
G01*
%TO.N,/OSC_IN*%
X67875000Y-49685000D02*
X68550000Y-49010000D01*
X69401000Y-49861000D02*
X71574000Y-49861000D01*
X66515000Y-49685000D02*
X67875000Y-49685000D01*
X71574000Y-49861000D02*
X72925000Y-48510000D01*
X68550000Y-49010000D02*
X69401000Y-49861000D01*
%TO.N,/OSC_OUT*%
X68500000Y-50635000D02*
X69850000Y-50635000D01*
X69850000Y-50635000D02*
X70625000Y-51410000D01*
X68050000Y-50185000D02*
X68500000Y-50635000D01*
X66515000Y-50185000D02*
X68050000Y-50185000D01*
%TO.N,Net-(L2-Pad2)*%
X52720000Y-61666046D02*
X52720000Y-64030000D01*
X51872500Y-59620000D02*
G75*
G02*
X52720022Y-61666046I-2046100J-2046100D01*
G01*
%TO.N,Net-(D3-A)*%
X30255000Y-65802500D02*
X30192500Y-65865000D01*
D37*
X27751684Y-63314000D02*
X29629000Y-63314000D01*
X27255000Y-72110000D02*
X26440000Y-71295000D01*
X29629000Y-63314000D02*
X30255000Y-63940000D01*
X26440000Y-71295000D02*
X26440000Y-64625684D01*
D36*
X30255000Y-63940000D02*
X30255000Y-65802500D01*
D37*
X26440000Y-64625684D02*
X27751684Y-63314000D01*
%TO.N,Net-(D3-K)*%
X32055001Y-69365000D02*
X33030000Y-69365000D01*
X28367500Y-67445580D02*
X29393420Y-68471500D01*
X28367500Y-65865000D02*
X28367500Y-67445580D01*
D36*
X28155000Y-65652500D02*
X28367500Y-65865000D01*
D37*
X31161501Y-68471500D02*
X32055001Y-69365000D01*
X29393420Y-68471500D02*
X31161501Y-68471500D01*
D36*
X28155000Y-63940000D02*
X28155000Y-65652500D01*
D37*
%TO.N,Net-(D4-K)*%
X30657500Y-71905000D02*
X33030000Y-71905000D01*
X29992500Y-73252500D02*
X30055000Y-73315000D01*
X29992500Y-71240000D02*
X29992500Y-73252500D01*
X29992500Y-71240000D02*
X30657500Y-71905000D01*
%TO.N,Net-(D4-A)*%
X27955000Y-73315000D02*
X27955000Y-71452500D01*
X27468636Y-73315000D02*
X27955000Y-73315000D01*
X27955000Y-71452500D02*
X28167500Y-71240000D01*
X25839000Y-64191000D02*
X25839000Y-71685364D01*
X25839000Y-71685364D02*
X27468636Y-73315000D01*
X26170000Y-63860000D02*
X25839000Y-64191000D01*
D36*
%TO.N,/SWDIO*%
X56241000Y-48417824D02*
X55973824Y-48685000D01*
X55815000Y-42800000D02*
X56241000Y-43226000D01*
X56241000Y-43226000D02*
X56241000Y-48417824D01*
X55973824Y-48685000D02*
X55165000Y-48685000D01*
%TO.N,/SWCLK*%
X57065000Y-42800000D02*
X57065000Y-45735000D01*
X57065000Y-45735000D02*
X57090000Y-45760000D01*
%TO.N,/USART3_RX*%
X59974999Y-44490000D02*
X59051176Y-44490000D01*
X60815000Y-42800000D02*
X60815000Y-43649999D01*
X59051176Y-44490000D02*
X58590000Y-44951176D01*
X58590000Y-45030000D02*
X58560000Y-45000000D01*
X60815000Y-43649999D02*
X59974999Y-44490000D01*
X58590000Y-45760000D02*
X58590000Y-45030000D01*
X58590000Y-44951176D02*
X58590000Y-45760000D01*
%TO.N,/USART3_TX*%
X59565000Y-43649999D02*
X59174999Y-44040000D01*
X59565000Y-42800000D02*
X59565000Y-43649999D01*
X59174999Y-44040000D02*
X58520000Y-44040000D01*
X58090000Y-44470000D02*
X58090000Y-45760000D01*
X58520000Y-44040000D02*
X58090000Y-44470000D01*
%TO.N,/HRTIM_-*%
X47250000Y-51530000D02*
X47250000Y-53090000D01*
X40962500Y-71810000D02*
X40055000Y-70902500D01*
D37*
X39787500Y-70635000D02*
X40055000Y-70902500D01*
D36*
X47260000Y-68230000D02*
X43680000Y-71810000D01*
D37*
X37980000Y-70635000D02*
X39787500Y-70635000D01*
D36*
X47260000Y-55040000D02*
X47260000Y-68230000D01*
X55165000Y-50685000D02*
X48095000Y-50685000D01*
X48095000Y-50685000D02*
X47250000Y-51530000D01*
X43680000Y-71810000D02*
X40962500Y-71810000D01*
%TO.N,/HRTIM_+*%
X48440000Y-54410000D02*
X48510000Y-54480000D01*
X46450000Y-54940000D02*
X46980000Y-54410000D01*
X40187500Y-69365000D02*
X41710000Y-70887500D01*
X49105000Y-51185000D02*
X55165000Y-51185000D01*
X46450000Y-68150000D02*
X46450000Y-54940000D01*
X48580000Y-53110000D02*
X48580000Y-51660000D01*
X43712500Y-70887500D02*
X46450000Y-68150000D01*
X49080000Y-51160000D02*
X49105000Y-51185000D01*
X41710000Y-70887500D02*
X43712500Y-70887500D01*
X37980000Y-69365000D02*
X40187500Y-69365000D01*
X48580000Y-51660000D02*
X49080000Y-51160000D01*
X46980000Y-54410000D02*
X48440000Y-54410000D01*
%TO.N,/NRST*%
X64800000Y-50630000D02*
X65050000Y-50630000D01*
X65105000Y-50685000D02*
X66515000Y-50685000D01*
X65050000Y-50630000D02*
X65105000Y-50685000D01*
%TO.N,/BOOT0*%
X62590000Y-43990000D02*
X63040000Y-43540000D01*
X62590000Y-45760000D02*
X62590000Y-43990000D01*
%TO.N,Net-(U6A-+)*%
X67115000Y-62325000D02*
X69475000Y-62325000D01*
X69880000Y-59870000D02*
X69880000Y-61920000D01*
X69475000Y-62325000D02*
X69880000Y-61920000D01*
%TO.N,/comp_volt*%
X58210000Y-59030000D02*
X59382390Y-59030000D01*
X67115000Y-59565000D02*
X67115000Y-59785000D01*
X66580000Y-59030000D02*
X67115000Y-59565000D01*
X60447610Y-59030000D02*
X66580000Y-59030000D01*
X60389110Y-58971500D02*
X60447610Y-59030000D01*
X59382390Y-59030000D02*
X59440890Y-58971500D01*
X58090000Y-57110000D02*
X58090000Y-59097500D01*
X58140000Y-59100000D02*
X58210000Y-59030000D01*
X58090000Y-59097500D02*
X58092500Y-59100000D01*
X59440890Y-58971500D02*
X60389110Y-58971500D01*
X58092500Y-59100000D02*
X58140000Y-59100000D01*
X67115000Y-61055000D02*
X67115000Y-59785000D01*
%TO.N,/adc_volt*%
X56267500Y-56287500D02*
X55165000Y-55185000D01*
X56267500Y-59100000D02*
X56267500Y-56287500D01*
%TO.N,/comp_cirurt*%
X60041000Y-56891000D02*
X60090000Y-56940000D01*
X59288824Y-55500000D02*
X60041000Y-56252176D01*
X60041000Y-56252176D02*
X60041000Y-56891000D01*
X57850000Y-55500000D02*
X59288824Y-55500000D01*
X57750000Y-55600000D02*
X57850000Y-55500000D01*
X60090000Y-56940000D02*
X60090000Y-57110000D01*
%TO.N,/adc_cir*%
X53655000Y-54685000D02*
X55165000Y-54685000D01*
X53650000Y-54680000D02*
X53655000Y-54685000D01*
X53370000Y-54680000D02*
X53650000Y-54680000D01*
D35*
%TO.N,Net-(U3A-+)*%
X17095000Y-61765000D02*
X19095000Y-61765000D01*
X16350000Y-60762500D02*
X16350000Y-61870000D01*
X16350000Y-61870000D02*
X16990000Y-61870000D01*
X16350000Y-61870000D02*
X16350000Y-62812500D01*
X16990000Y-61870000D02*
X17095000Y-61765000D01*
X16350000Y-62812500D02*
X16500000Y-62962500D01*
D36*
%TO.N,/adc_Vin*%
X55165000Y-54185000D02*
X53724943Y-54185000D01*
X21240000Y-59960000D02*
X21240000Y-62880000D01*
X43030000Y-57100000D02*
X24100000Y-57100000D01*
D38*
X19095000Y-63590000D02*
X19095000Y-64305000D01*
D36*
X53399943Y-53860000D02*
X46270000Y-53860000D01*
X24100000Y-57100000D02*
X21240000Y-59960000D01*
X21240000Y-62880000D02*
X20530000Y-63590000D01*
X20530000Y-63590000D02*
X19095000Y-63590000D01*
X53724943Y-54185000D02*
X53399943Y-53860000D01*
D38*
X19095000Y-63035000D02*
X19095000Y-63590000D01*
D36*
X46270000Y-53860000D02*
X43030000Y-57100000D01*
%TD*%
%TA.AperFunction,Conductor*%
%TO.N,GND*%
G36*
X52513579Y-54480185D02*
G01*
X52559334Y-54532989D01*
X52569944Y-54596646D01*
X52569500Y-54601156D01*
X52569500Y-54758846D01*
X52600261Y-54913489D01*
X52600264Y-54913501D01*
X52660602Y-55059172D01*
X52660609Y-55059185D01*
X52748210Y-55190288D01*
X52748213Y-55190292D01*
X52859707Y-55301786D01*
X52859711Y-55301789D01*
X52990814Y-55389390D01*
X52990827Y-55389397D01*
X53136498Y-55449735D01*
X53136503Y-55449737D01*
X53255746Y-55473456D01*
X53291153Y-55480499D01*
X53291156Y-55480500D01*
X53291158Y-55480500D01*
X53448844Y-55480500D01*
X53448845Y-55480499D01*
X53603497Y-55449737D01*
X53659120Y-55426697D01*
X53754808Y-55387063D01*
X53755339Y-55388347D01*
X53816854Y-55375532D01*
X53882101Y-55400524D01*
X53921480Y-55451681D01*
X53962299Y-55550228D01*
X53962299Y-55550229D01*
X53962301Y-55550232D01*
X53962302Y-55550233D01*
X54054549Y-55670451D01*
X54174767Y-55762698D01*
X54314764Y-55820687D01*
X54427280Y-55835500D01*
X54914903Y-55835500D01*
X54981942Y-55855185D01*
X55002584Y-55871819D01*
X55630681Y-56499916D01*
X55664166Y-56561239D01*
X55667000Y-56587597D01*
X55667000Y-58142388D01*
X55647315Y-58209427D01*
X55608098Y-58247926D01*
X55556650Y-58279659D01*
X55434661Y-58401648D01*
X55344093Y-58548481D01*
X55344091Y-58548486D01*
X55340064Y-58560639D01*
X55289826Y-58712247D01*
X55289826Y-58712248D01*
X55289825Y-58712248D01*
X55279500Y-58813315D01*
X55279500Y-59386669D01*
X55279501Y-59386687D01*
X55289825Y-59487752D01*
X55311398Y-59552853D01*
X55343755Y-59650500D01*
X55344092Y-59651515D01*
X55344093Y-59651518D01*
X55356075Y-59670943D01*
X55434660Y-59798350D01*
X55556650Y-59920340D01*
X55703484Y-60010908D01*
X55867247Y-60065174D01*
X55968323Y-60075500D01*
X56566676Y-60075499D01*
X56566684Y-60075498D01*
X56566687Y-60075498D01*
X56622030Y-60069844D01*
X56667753Y-60065174D01*
X56831516Y-60010908D01*
X56978350Y-59920340D01*
X57092319Y-59806371D01*
X57153642Y-59772886D01*
X57223334Y-59777870D01*
X57267681Y-59806371D01*
X57381650Y-59920340D01*
X57528484Y-60010908D01*
X57692247Y-60065174D01*
X57793323Y-60075500D01*
X58391676Y-60075499D01*
X58391684Y-60075498D01*
X58391687Y-60075498D01*
X58447030Y-60069844D01*
X58492753Y-60065174D01*
X58656516Y-60010908D01*
X58755821Y-59949655D01*
X58823213Y-59931215D01*
X58889877Y-59952137D01*
X58934646Y-60005779D01*
X58944276Y-60042592D01*
X58949651Y-60095208D01*
X58949651Y-60095210D01*
X59002996Y-60256194D01*
X59003001Y-60256205D01*
X59092029Y-60400540D01*
X59092032Y-60400544D01*
X59211955Y-60520467D01*
X59211959Y-60520470D01*
X59356294Y-60609498D01*
X59356297Y-60609499D01*
X59356303Y-60609503D01*
X59517292Y-60662849D01*
X59616655Y-60673000D01*
X60213344Y-60672999D01*
X60213352Y-60672998D01*
X60213355Y-60672998D01*
X60291308Y-60665035D01*
X60312708Y-60662849D01*
X60473697Y-60609503D01*
X60534455Y-60572026D01*
X60601845Y-60553586D01*
X60668509Y-60574508D01*
X60713279Y-60628149D01*
X60721941Y-60697480D01*
X60718628Y-60712159D01*
X60692401Y-60802432D01*
X60689500Y-60839298D01*
X60689500Y-61270701D01*
X60692401Y-61307567D01*
X60692402Y-61307573D01*
X60738254Y-61465393D01*
X60738255Y-61465396D01*
X60821917Y-61606862D01*
X60826702Y-61613031D01*
X60824256Y-61614927D01*
X60850857Y-61663642D01*
X60845873Y-61733334D01*
X60825069Y-61765703D01*
X60826702Y-61766969D01*
X60821917Y-61773137D01*
X60738255Y-61914603D01*
X60738254Y-61914606D01*
X60692402Y-62072426D01*
X60692401Y-62072432D01*
X60689500Y-62109298D01*
X60689500Y-62540701D01*
X60692401Y-62577567D01*
X60692402Y-62577573D01*
X60738254Y-62735393D01*
X60738255Y-62735396D01*
X60821917Y-62876862D01*
X60826702Y-62883031D01*
X60824256Y-62884927D01*
X60850857Y-62933642D01*
X60845873Y-63003334D01*
X60825069Y-63035703D01*
X60826702Y-63036969D01*
X60821917Y-63043137D01*
X60738255Y-63184603D01*
X60738254Y-63184606D01*
X60692402Y-63342426D01*
X60692401Y-63342432D01*
X60689500Y-63379298D01*
X60689500Y-63810701D01*
X60692401Y-63847567D01*
X60692402Y-63847573D01*
X60738254Y-64005393D01*
X60738255Y-64005396D01*
X60738256Y-64005398D01*
X60753201Y-64030668D01*
X60821917Y-64146862D01*
X60821923Y-64146870D01*
X60938129Y-64263076D01*
X60938133Y-64263079D01*
X60938135Y-64263081D01*
X61079602Y-64346744D01*
X61091057Y-64350072D01*
X61237426Y-64392597D01*
X61237429Y-64392597D01*
X61237431Y-64392598D01*
X61274306Y-64395500D01*
X61274314Y-64395500D01*
X63055686Y-64395500D01*
X63055694Y-64395500D01*
X63092569Y-64392598D01*
X63092571Y-64392597D01*
X63092573Y-64392597D01*
X63134191Y-64380505D01*
X63250398Y-64346744D01*
X63391865Y-64263081D01*
X63508081Y-64146865D01*
X63591744Y-64005398D01*
X63627786Y-63881342D01*
X63637597Y-63847573D01*
X63637598Y-63847567D01*
X63638546Y-63835519D01*
X63640500Y-63810694D01*
X63640500Y-63379306D01*
X63637598Y-63342431D01*
X63636685Y-63339289D01*
X63592749Y-63188061D01*
X63591744Y-63184602D01*
X63508081Y-63043135D01*
X63508078Y-63043132D01*
X63503298Y-63036969D01*
X63505750Y-63035066D01*
X63479155Y-62986421D01*
X63484104Y-62916726D01*
X63504940Y-62884304D01*
X63503298Y-62883031D01*
X63508075Y-62876870D01*
X63508081Y-62876865D01*
X63591744Y-62735398D01*
X63637598Y-62577569D01*
X63640500Y-62540694D01*
X63640500Y-62109306D01*
X63637598Y-62072431D01*
X63629216Y-62043581D01*
X63591745Y-61914606D01*
X63591744Y-61914603D01*
X63591744Y-61914602D01*
X63508081Y-61773135D01*
X63508078Y-61773132D01*
X63503298Y-61766969D01*
X63505750Y-61765066D01*
X63479155Y-61716421D01*
X63484104Y-61646726D01*
X63504940Y-61614304D01*
X63503298Y-61613031D01*
X63508075Y-61606870D01*
X63508081Y-61606865D01*
X63591744Y-61465398D01*
X63637598Y-61307569D01*
X63640500Y-61270694D01*
X63640500Y-60839306D01*
X63637598Y-60802431D01*
X63636155Y-60797465D01*
X63603772Y-60686001D01*
X63603971Y-60616132D01*
X63641913Y-60557462D01*
X63705551Y-60528618D01*
X63747037Y-60529788D01*
X63805136Y-60541345D01*
X63851156Y-60550500D01*
X63851158Y-60550500D01*
X64008844Y-60550500D01*
X64008845Y-60550499D01*
X64163497Y-60519737D01*
X64309179Y-60459394D01*
X64440289Y-60371789D01*
X64551789Y-60260289D01*
X64639394Y-60129179D01*
X64699737Y-59983497D01*
X64730500Y-59828842D01*
X64730500Y-59754500D01*
X64750185Y-59687461D01*
X64802989Y-59641706D01*
X64854500Y-59630500D01*
X65515500Y-59630500D01*
X65582539Y-59650185D01*
X65628294Y-59702989D01*
X65639500Y-59754500D01*
X65639500Y-60000701D01*
X65642401Y-60037567D01*
X65642402Y-60037573D01*
X65688254Y-60195393D01*
X65688255Y-60195396D01*
X65771917Y-60336862D01*
X65776702Y-60343031D01*
X65774256Y-60344927D01*
X65800857Y-60393642D01*
X65795873Y-60463334D01*
X65775069Y-60495703D01*
X65776702Y-60496969D01*
X65771917Y-60503137D01*
X65688255Y-60644603D01*
X65688254Y-60644606D01*
X65642402Y-60802426D01*
X65642401Y-60802432D01*
X65639500Y-60839298D01*
X65639500Y-61270701D01*
X65642401Y-61307567D01*
X65642402Y-61307573D01*
X65688254Y-61465393D01*
X65688255Y-61465396D01*
X65771917Y-61606862D01*
X65776702Y-61613031D01*
X65774256Y-61614927D01*
X65800857Y-61663642D01*
X65795873Y-61733334D01*
X65775069Y-61765703D01*
X65776702Y-61766969D01*
X65771917Y-61773137D01*
X65688255Y-61914603D01*
X65688254Y-61914606D01*
X65642402Y-62072426D01*
X65642401Y-62072432D01*
X65639500Y-62109298D01*
X65639500Y-62540701D01*
X65642401Y-62577567D01*
X65642402Y-62577573D01*
X65688254Y-62735393D01*
X65688255Y-62735396D01*
X65771917Y-62876862D01*
X65771923Y-62876870D01*
X65888129Y-62993076D01*
X65888133Y-62993079D01*
X65888135Y-62993081D01*
X66029602Y-63076744D01*
X66071224Y-63088836D01*
X66187426Y-63122597D01*
X66187429Y-63122597D01*
X66187431Y-63122598D01*
X66224306Y-63125500D01*
X66224314Y-63125500D01*
X68005686Y-63125500D01*
X68005694Y-63125500D01*
X68042569Y-63122598D01*
X68042571Y-63122597D01*
X68042573Y-63122597D01*
X68084191Y-63110505D01*
X68200398Y-63076744D01*
X68341865Y-62993081D01*
X68373126Y-62961820D01*
X68434448Y-62928334D01*
X68460808Y-62925500D01*
X68904501Y-62925500D01*
X68971540Y-62945185D01*
X69017295Y-62997989D01*
X69027239Y-63067147D01*
X69010040Y-63114596D01*
X68969095Y-63180977D01*
X68969091Y-63180986D01*
X68955096Y-63223220D01*
X68914826Y-63344747D01*
X68914826Y-63344748D01*
X68914825Y-63344748D01*
X68904501Y-63445810D01*
X68904500Y-63445828D01*
X68904500Y-64044169D01*
X68904501Y-64044187D01*
X68914825Y-64145252D01*
X68943760Y-64232570D01*
X68969092Y-64309016D01*
X69059660Y-64455850D01*
X69181650Y-64577840D01*
X69328484Y-64668408D01*
X69492247Y-64722674D01*
X69492261Y-64722675D01*
X69496114Y-64723501D01*
X69498270Y-64724669D01*
X69498674Y-64724803D01*
X69498650Y-64724874D01*
X69557548Y-64756783D01*
X70874397Y-66073632D01*
X70907882Y-66134955D01*
X70902898Y-66204647D01*
X70894105Y-66223310D01*
X70877257Y-66252491D01*
X70877254Y-66252499D01*
X70764364Y-66525038D01*
X70764361Y-66525048D01*
X70726021Y-66668138D01*
X70688008Y-66810004D01*
X70688006Y-66810015D01*
X70649500Y-67102486D01*
X70649500Y-67397513D01*
X70679471Y-67625157D01*
X70688007Y-67689993D01*
X70748817Y-67916941D01*
X70764361Y-67974951D01*
X70764364Y-67974961D01*
X70877254Y-68247500D01*
X70877258Y-68247510D01*
X71024761Y-68502993D01*
X71204352Y-68737040D01*
X71204358Y-68737047D01*
X71412952Y-68945641D01*
X71412959Y-68945647D01*
X71647006Y-69125238D01*
X71902489Y-69272741D01*
X71902490Y-69272741D01*
X71902493Y-69272743D01*
X72175048Y-69385639D01*
X72460007Y-69461993D01*
X72752494Y-69500500D01*
X72752501Y-69500500D01*
X73047499Y-69500500D01*
X73047506Y-69500500D01*
X73339993Y-69461993D01*
X73624952Y-69385639D01*
X73897507Y-69272743D01*
X74152994Y-69125238D01*
X74387042Y-68945646D01*
X74595646Y-68737042D01*
X74767124Y-68513567D01*
X74823552Y-68472365D01*
X74893298Y-68468210D01*
X74954218Y-68502422D01*
X74986971Y-68564140D01*
X74989500Y-68589054D01*
X74989500Y-78983000D01*
X74969815Y-79050039D01*
X74917011Y-79095794D01*
X74865500Y-79107000D01*
X14524500Y-79107000D01*
X14457461Y-79087315D01*
X14411706Y-79034511D01*
X14400500Y-78983000D01*
X14400500Y-75492551D01*
X14420185Y-75425512D01*
X14472989Y-75379757D01*
X14542147Y-75369813D01*
X14605703Y-75398838D01*
X14612181Y-75404870D01*
X14732952Y-75525641D01*
X14732959Y-75525647D01*
X14967006Y-75705238D01*
X15222489Y-75852741D01*
X15222490Y-75852741D01*
X15222493Y-75852743D01*
X15495048Y-75965639D01*
X15780007Y-76041993D01*
X16072494Y-76080500D01*
X16072501Y-76080500D01*
X16367499Y-76080500D01*
X16367506Y-76080500D01*
X16659993Y-76041993D01*
X16944952Y-75965639D01*
X17217507Y-75852743D01*
X17472994Y-75705238D01*
X17707042Y-75525646D01*
X17915646Y-75317042D01*
X18095238Y-75082994D01*
X18242743Y-74827507D01*
X18355639Y-74554952D01*
X18431993Y-74269993D01*
X18470500Y-73977506D01*
X18470500Y-73682494D01*
X18431993Y-73390007D01*
X18375062Y-73177537D01*
X18376725Y-73107687D01*
X18407156Y-73057763D01*
X18730195Y-72734724D01*
X19093232Y-72371687D01*
X19133457Y-72344810D01*
X19273914Y-72286632D01*
X19437782Y-72177139D01*
X19577139Y-72037782D01*
X19686632Y-71873914D01*
X19762051Y-71691835D01*
X19800500Y-71498541D01*
X19800500Y-66988959D01*
X19800500Y-66988956D01*
X19784975Y-66910912D01*
X19767976Y-66825452D01*
X19762051Y-66795664D01*
X19716353Y-66685340D01*
X19709228Y-66668138D01*
X19686635Y-66613593D01*
X19686634Y-66613592D01*
X19686632Y-66613586D01*
X19627473Y-66525048D01*
X19577139Y-66449717D01*
X19434686Y-66307264D01*
X19434655Y-66307235D01*
X18444601Y-65317181D01*
X18411116Y-65255858D01*
X18416100Y-65186166D01*
X18457972Y-65130233D01*
X18523436Y-65105816D01*
X18532282Y-65105500D01*
X19985686Y-65105500D01*
X19985694Y-65105500D01*
X20022569Y-65102598D01*
X20022571Y-65102597D01*
X20022573Y-65102597D01*
X20064191Y-65090505D01*
X20180398Y-65056744D01*
X20321865Y-64973081D01*
X20438081Y-64856865D01*
X20521744Y-64715398D01*
X20567598Y-64557569D01*
X20570500Y-64520694D01*
X20570500Y-64295980D01*
X20576357Y-64276030D01*
X20577376Y-64255263D01*
X20586003Y-64243182D01*
X20590185Y-64228941D01*
X20605896Y-64215326D01*
X20617982Y-64198404D01*
X20635568Y-64189615D01*
X20642989Y-64183186D01*
X20648572Y-64180799D01*
X20655347Y-64178097D01*
X20761785Y-64149577D01*
X20831967Y-64109057D01*
X20898716Y-64070520D01*
X21010520Y-63958716D01*
X21010520Y-63958714D01*
X21020724Y-63948511D01*
X21020728Y-63948506D01*
X21381013Y-63588220D01*
X21402911Y-63576263D01*
X21422513Y-63560823D01*
X21433046Y-63559808D01*
X21442334Y-63554737D01*
X21467223Y-63556516D01*
X21487092Y-63554603D01*
X21487165Y-63554593D01*
X21487171Y-63554595D01*
X21492060Y-63554125D01*
X21501468Y-63558966D01*
X21512026Y-63559721D01*
X21532003Y-63574676D01*
X21538811Y-63578179D01*
X21550721Y-63583618D01*
X21551709Y-63584815D01*
X21554189Y-63586091D01*
X21564152Y-63598743D01*
X21567959Y-63601593D01*
X21576029Y-63613816D01*
X21576855Y-63615244D01*
X21576855Y-63615245D01*
X21576874Y-63615278D01*
X21576865Y-63615282D01*
X21576904Y-63615330D01*
X21576905Y-63615331D01*
X21605688Y-63665185D01*
X21639479Y-63723713D01*
X21639481Y-63723716D01*
X21758349Y-63842584D01*
X21758355Y-63842589D01*
X22589479Y-64673713D01*
X22589481Y-64673716D01*
X22591697Y-64675932D01*
X22591718Y-64675970D01*
X22614047Y-64708824D01*
X22614285Y-64708684D01*
X22616517Y-64712459D01*
X22617802Y-64714349D01*
X22618256Y-64715400D01*
X22701916Y-64856861D01*
X22701923Y-64856870D01*
X22818129Y-64973076D01*
X22818133Y-64973079D01*
X22818135Y-64973081D01*
X22959602Y-65056744D01*
X22976110Y-65061540D01*
X23117426Y-65102597D01*
X23117429Y-65102597D01*
X23117431Y-65102598D01*
X23154306Y-65105500D01*
X23154314Y-65105500D01*
X24935686Y-65105500D01*
X24935694Y-65105500D01*
X24972569Y-65102598D01*
X24979904Y-65100467D01*
X25049773Y-65100666D01*
X25108444Y-65138607D01*
X25137288Y-65202245D01*
X25138500Y-65219543D01*
X25138500Y-71616370D01*
X25138500Y-71754358D01*
X25138500Y-71754360D01*
X25138499Y-71754360D01*
X25165418Y-71889686D01*
X25165421Y-71889696D01*
X25218222Y-72017171D01*
X25294887Y-72131909D01*
X25294888Y-72131910D01*
X26924522Y-73761542D01*
X27022094Y-73859114D01*
X27022095Y-73859115D01*
X27136818Y-73935771D01*
X27136822Y-73935773D01*
X27136825Y-73935775D01*
X27211502Y-73966707D01*
X27264307Y-73988580D01*
X27291227Y-73993934D01*
X27388266Y-74013237D01*
X27399642Y-74015500D01*
X27399643Y-74015500D01*
X27576560Y-74015500D01*
X27611155Y-74020424D01*
X27670839Y-74037764D01*
X27670842Y-74037764D01*
X27670844Y-74037765D01*
X27705595Y-74040500D01*
X28204404Y-74040499D01*
X28239156Y-74037765D01*
X28387887Y-73994555D01*
X28521198Y-73915715D01*
X28630715Y-73806198D01*
X28709555Y-73672887D01*
X28752765Y-73524156D01*
X28755500Y-73489405D01*
X28755499Y-73140596D01*
X28752765Y-73105844D01*
X28709555Y-72957113D01*
X28707942Y-72954386D01*
X28672768Y-72894908D01*
X28655500Y-72831788D01*
X28655500Y-72265351D01*
X28675185Y-72198312D01*
X28727100Y-72152967D01*
X28731509Y-72150910D01*
X28731516Y-72150908D01*
X28878350Y-72060340D01*
X28992321Y-71946368D01*
X29000262Y-71942032D01*
X29005688Y-71934785D01*
X29030447Y-71925550D01*
X29053640Y-71912886D01*
X29062669Y-71913531D01*
X29071152Y-71910368D01*
X29096974Y-71915985D01*
X29123332Y-71917870D01*
X29132384Y-71923687D01*
X29139425Y-71925219D01*
X29167680Y-71946370D01*
X29255682Y-72034372D01*
X29289166Y-72095693D01*
X29292000Y-72122052D01*
X29292000Y-72968531D01*
X29287077Y-73003125D01*
X29257235Y-73105843D01*
X29257234Y-73105849D01*
X29254500Y-73140589D01*
X29254500Y-73489393D01*
X29254501Y-73489415D01*
X29257234Y-73524152D01*
X29257234Y-73524155D01*
X29257235Y-73524156D01*
X29300445Y-73672887D01*
X29300446Y-73672888D01*
X29379282Y-73806194D01*
X29379289Y-73806203D01*
X29488796Y-73915710D01*
X29488800Y-73915713D01*
X29488802Y-73915715D01*
X29622113Y-73994555D01*
X29770844Y-74037765D01*
X29805595Y-74040500D01*
X30304404Y-74040499D01*
X30339156Y-74037765D01*
X30487887Y-73994555D01*
X30621198Y-73915715D01*
X30730715Y-73806198D01*
X30809555Y-73672887D01*
X30852765Y-73524156D01*
X30855500Y-73489405D01*
X30855499Y-73140596D01*
X30852765Y-73105844D01*
X30809555Y-72957113D01*
X30730715Y-72823802D01*
X30730713Y-72823800D01*
X30730710Y-72823796D01*
X30729319Y-72822405D01*
X30728576Y-72821045D01*
X30725932Y-72817636D01*
X30726481Y-72817209D01*
X30714615Y-72795477D01*
X30698023Y-72769659D01*
X30697131Y-72763458D01*
X30695834Y-72761082D01*
X30693000Y-72734724D01*
X30693000Y-72729500D01*
X30712685Y-72662461D01*
X30765489Y-72616706D01*
X30817000Y-72605500D01*
X31824031Y-72605500D01*
X31887151Y-72622767D01*
X31944602Y-72656744D01*
X31964280Y-72662461D01*
X32102426Y-72702597D01*
X32102429Y-72702597D01*
X32102431Y-72702598D01*
X32139306Y-72705500D01*
X32139314Y-72705500D01*
X33920686Y-72705500D01*
X33920694Y-72705500D01*
X33957569Y-72702598D01*
X33957571Y-72702597D01*
X33957573Y-72702597D01*
X33999191Y-72690505D01*
X34115398Y-72656744D01*
X34256865Y-72573081D01*
X34373081Y-72456865D01*
X34456744Y-72315398D01*
X34497215Y-72176097D01*
X34502597Y-72157573D01*
X34502598Y-72157567D01*
X34503122Y-72150908D01*
X34505500Y-72120694D01*
X34505500Y-71689306D01*
X34502598Y-71652431D01*
X34499812Y-71642843D01*
X34456745Y-71494606D01*
X34456744Y-71494603D01*
X34456744Y-71494602D01*
X34373081Y-71353135D01*
X34373078Y-71353132D01*
X34368298Y-71346969D01*
X34370750Y-71345066D01*
X34344155Y-71296421D01*
X34349104Y-71226726D01*
X34369940Y-71194304D01*
X34368298Y-71193031D01*
X34373075Y-71186870D01*
X34373081Y-71186865D01*
X34456744Y-71045398D01*
X34502598Y-70887569D01*
X34505500Y-70850694D01*
X34505500Y-70419306D01*
X34502598Y-70382431D01*
X34491572Y-70344481D01*
X34456745Y-70224606D01*
X34456744Y-70224603D01*
X34456744Y-70224602D01*
X34373081Y-70083135D01*
X34373078Y-70083132D01*
X34368298Y-70076969D01*
X34370750Y-70075066D01*
X34344155Y-70026421D01*
X34349104Y-69956726D01*
X34369940Y-69924304D01*
X34368298Y-69923031D01*
X34373075Y-69916870D01*
X34373081Y-69916865D01*
X34456744Y-69775398D01*
X34502598Y-69617569D01*
X34505500Y-69580694D01*
X34505500Y-69149306D01*
X34502598Y-69112431D01*
X34456744Y-68954602D01*
X34373081Y-68813135D01*
X34373078Y-68813132D01*
X34368298Y-68806969D01*
X34370750Y-68805066D01*
X34344155Y-68756421D01*
X34349104Y-68686726D01*
X34369940Y-68654304D01*
X34368298Y-68653031D01*
X34373075Y-68646870D01*
X34373081Y-68646865D01*
X34456744Y-68505398D01*
X34502598Y-68347569D01*
X34505500Y-68310694D01*
X34505500Y-67879306D01*
X34502598Y-67842431D01*
X34456744Y-67684602D01*
X34373081Y-67543135D01*
X34373079Y-67543133D01*
X34373076Y-67543129D01*
X34256870Y-67426923D01*
X34256862Y-67426917D01*
X34115396Y-67343255D01*
X34115393Y-67343254D01*
X33957573Y-67297402D01*
X33957567Y-67297401D01*
X33920701Y-67294500D01*
X33920694Y-67294500D01*
X33829500Y-67294500D01*
X33762461Y-67274815D01*
X33716706Y-67222011D01*
X33705500Y-67170500D01*
X33705500Y-66524499D01*
X33725185Y-66457460D01*
X33777989Y-66411705D01*
X33829500Y-66400499D01*
X34055002Y-66400499D01*
X34055008Y-66400499D01*
X34157797Y-66389999D01*
X34324334Y-66334814D01*
X34473656Y-66242712D01*
X34597712Y-66118656D01*
X34689814Y-65969334D01*
X34744999Y-65802797D01*
X34755500Y-65700009D01*
X34755499Y-64299992D01*
X34744999Y-64197203D01*
X34689814Y-64030666D01*
X34597712Y-63881344D01*
X34473656Y-63757288D01*
X34380888Y-63700069D01*
X34324336Y-63665187D01*
X34324331Y-63665185D01*
X34280962Y-63650814D01*
X34157797Y-63610001D01*
X34157795Y-63610000D01*
X34055010Y-63599500D01*
X31954998Y-63599500D01*
X31954981Y-63599501D01*
X31852203Y-63610000D01*
X31852200Y-63610001D01*
X31685668Y-63665185D01*
X31685663Y-63665187D01*
X31536342Y-63757289D01*
X31412289Y-63881342D01*
X31320187Y-64030663D01*
X31320184Y-64030671D01*
X31297204Y-64100018D01*
X31257431Y-64157462D01*
X31192915Y-64184284D01*
X31124139Y-64171968D01*
X31072940Y-64124425D01*
X31055499Y-64061015D01*
X31055499Y-63765596D01*
X31052765Y-63730844D01*
X31009555Y-63582113D01*
X30930715Y-63448802D01*
X30930713Y-63448800D01*
X30930710Y-63448796D01*
X30821203Y-63339289D01*
X30821194Y-63339282D01*
X30687887Y-63260445D01*
X30687881Y-63260443D01*
X30546804Y-63219456D01*
X30493718Y-63188061D01*
X30075546Y-62769888D01*
X30075545Y-62769887D01*
X29960807Y-62693222D01*
X29833332Y-62640421D01*
X29833322Y-62640418D01*
X29697996Y-62613500D01*
X29697994Y-62613500D01*
X29697993Y-62613500D01*
X27682691Y-62613500D01*
X27682687Y-62613500D01*
X27574274Y-62635065D01*
X27574273Y-62635065D01*
X27560815Y-62637742D01*
X27547357Y-62640419D01*
X27510014Y-62655887D01*
X27419876Y-62693223D01*
X27369249Y-62727051D01*
X27305138Y-62769887D01*
X26845730Y-63229295D01*
X26784407Y-63262780D01*
X26714715Y-63257796D01*
X26685687Y-63241096D01*
X26685354Y-63241595D01*
X26549185Y-63150609D01*
X26549172Y-63150602D01*
X26403501Y-63090264D01*
X26403489Y-63090261D01*
X26248845Y-63059500D01*
X26248842Y-63059500D01*
X26091158Y-63059500D01*
X26091155Y-63059500D01*
X25936510Y-63090261D01*
X25936498Y-63090264D01*
X25790827Y-63150602D01*
X25790809Y-63150612D01*
X25713390Y-63202342D01*
X25646713Y-63223220D01*
X25579333Y-63204735D01*
X25532643Y-63152756D01*
X25520500Y-63099240D01*
X25520500Y-62819313D01*
X25520499Y-62819298D01*
X25517598Y-62782432D01*
X25517597Y-62782426D01*
X25476340Y-62640421D01*
X25471744Y-62624602D01*
X25388081Y-62483135D01*
X25388078Y-62483132D01*
X25383298Y-62476969D01*
X25385750Y-62475066D01*
X25359155Y-62426421D01*
X25364104Y-62356726D01*
X25384940Y-62324304D01*
X25383298Y-62323031D01*
X25388075Y-62316870D01*
X25388081Y-62316865D01*
X25471744Y-62175398D01*
X25517598Y-62017569D01*
X25520500Y-61980694D01*
X25520500Y-61549306D01*
X25517598Y-61512431D01*
X25497597Y-61443589D01*
X25472146Y-61355986D01*
X25471744Y-61354602D01*
X25388081Y-61213135D01*
X25388078Y-61213132D01*
X25383298Y-61206969D01*
X25385750Y-61205066D01*
X25359155Y-61156421D01*
X25364104Y-61086726D01*
X25384940Y-61054304D01*
X25383298Y-61053031D01*
X25388075Y-61046870D01*
X25388081Y-61046865D01*
X25471744Y-60905398D01*
X25512679Y-60764500D01*
X25517597Y-60747573D01*
X25517598Y-60747567D01*
X25520500Y-60710694D01*
X25520500Y-60279306D01*
X25517598Y-60242431D01*
X25517411Y-60241789D01*
X25471745Y-60084606D01*
X25471744Y-60084603D01*
X25471744Y-60084602D01*
X25388081Y-59943135D01*
X25388079Y-59943133D01*
X25388076Y-59943129D01*
X25271870Y-59826923D01*
X25271862Y-59826917D01*
X25179199Y-59772117D01*
X25130398Y-59743256D01*
X25130397Y-59743255D01*
X25130396Y-59743255D01*
X25130393Y-59743254D01*
X24972573Y-59697402D01*
X24972567Y-59697401D01*
X24935701Y-59694500D01*
X24935694Y-59694500D01*
X23514097Y-59694500D01*
X23447058Y-59674815D01*
X23401303Y-59622011D01*
X23391359Y-59552853D01*
X23420384Y-59489297D01*
X23426416Y-59482819D01*
X24242416Y-58666819D01*
X24303739Y-58633334D01*
X24330097Y-58630500D01*
X32986221Y-58630500D01*
X33053260Y-58650185D01*
X33099015Y-58702989D01*
X33108959Y-58772147D01*
X33107838Y-58778691D01*
X33079500Y-58921153D01*
X33079500Y-59078846D01*
X33110261Y-59233489D01*
X33110264Y-59233501D01*
X33170061Y-59377864D01*
X33179500Y-59425316D01*
X33179500Y-59861006D01*
X33179500Y-59998994D01*
X33179500Y-59998996D01*
X33179499Y-59998996D01*
X33206418Y-60134322D01*
X33206421Y-60134332D01*
X33259222Y-60261807D01*
X33335887Y-60376545D01*
X34873454Y-61914112D01*
X34873457Y-61914114D01*
X34963832Y-61974500D01*
X34988189Y-61990775D01*
X34988191Y-61990776D01*
X34988193Y-61990777D01*
X35052885Y-62017573D01*
X35115672Y-62043580D01*
X35115676Y-62043580D01*
X35115677Y-62043581D01*
X35251004Y-62070500D01*
X35251007Y-62070500D01*
X39788481Y-62070500D01*
X39855520Y-62090185D01*
X39876162Y-62106819D01*
X40713181Y-62943838D01*
X40746666Y-63005161D01*
X40749500Y-63031519D01*
X40749500Y-64994501D01*
X40729815Y-65061540D01*
X40677011Y-65107295D01*
X40612900Y-65117859D01*
X40580023Y-65114501D01*
X40580014Y-65114500D01*
X40580009Y-65114500D01*
X40580003Y-65114500D01*
X39529998Y-65114500D01*
X39529980Y-65114501D01*
X39427203Y-65125000D01*
X39427200Y-65125001D01*
X39260668Y-65180185D01*
X39260663Y-65180187D01*
X39111342Y-65272289D01*
X38987286Y-65396345D01*
X38985033Y-65399999D01*
X38982834Y-65401975D01*
X38982807Y-65402011D01*
X38982800Y-65402006D01*
X38933081Y-65446719D01*
X38864118Y-65457936D01*
X38800038Y-65430088D01*
X38761186Y-65372017D01*
X38755499Y-65334898D01*
X38755499Y-64299992D01*
X38744999Y-64197203D01*
X38689814Y-64030666D01*
X38597712Y-63881344D01*
X38473656Y-63757288D01*
X38380888Y-63700069D01*
X38324336Y-63665187D01*
X38324331Y-63665185D01*
X38280962Y-63650814D01*
X38157797Y-63610001D01*
X38157795Y-63610000D01*
X38055010Y-63599500D01*
X35954998Y-63599500D01*
X35954981Y-63599501D01*
X35852203Y-63610000D01*
X35852200Y-63610001D01*
X35685668Y-63665185D01*
X35685663Y-63665187D01*
X35536342Y-63757289D01*
X35412289Y-63881342D01*
X35320187Y-64030663D01*
X35320185Y-64030668D01*
X35299679Y-64092552D01*
X35265001Y-64197203D01*
X35265001Y-64197204D01*
X35265000Y-64197204D01*
X35254500Y-64299983D01*
X35254500Y-65700001D01*
X35254501Y-65700018D01*
X35265000Y-65802796D01*
X35265001Y-65802799D01*
X35300838Y-65910945D01*
X35320186Y-65969334D01*
X35412288Y-66118656D01*
X35536344Y-66242712D01*
X35685666Y-66334814D01*
X35852203Y-66389999D01*
X35954991Y-66400500D01*
X36180500Y-66400499D01*
X36247539Y-66420183D01*
X36293294Y-66472987D01*
X36304500Y-66524499D01*
X36304500Y-67051006D01*
X36304500Y-67188994D01*
X36304500Y-67188996D01*
X36304499Y-67188996D01*
X36331418Y-67324322D01*
X36331421Y-67324332D01*
X36384222Y-67451807D01*
X36460887Y-67566545D01*
X36460888Y-67566546D01*
X36507183Y-67612840D01*
X36540669Y-67674163D01*
X36538579Y-67735117D01*
X36507402Y-67842426D01*
X36507401Y-67842432D01*
X36504500Y-67879298D01*
X36504500Y-68310701D01*
X36507401Y-68347567D01*
X36507402Y-68347573D01*
X36553254Y-68505393D01*
X36553255Y-68505396D01*
X36636917Y-68646862D01*
X36641702Y-68653031D01*
X36639256Y-68654927D01*
X36665857Y-68703642D01*
X36660873Y-68773334D01*
X36640069Y-68805703D01*
X36641702Y-68806969D01*
X36636917Y-68813137D01*
X36553255Y-68954603D01*
X36553254Y-68954606D01*
X36507402Y-69112426D01*
X36507401Y-69112432D01*
X36504500Y-69149298D01*
X36504500Y-69580701D01*
X36507401Y-69617567D01*
X36507402Y-69617573D01*
X36553254Y-69775393D01*
X36553255Y-69775396D01*
X36636917Y-69916862D01*
X36641702Y-69923031D01*
X36639256Y-69924927D01*
X36665857Y-69973642D01*
X36660873Y-70043334D01*
X36640069Y-70075703D01*
X36641702Y-70076969D01*
X36636917Y-70083137D01*
X36553255Y-70224603D01*
X36553254Y-70224606D01*
X36507402Y-70382426D01*
X36507401Y-70382432D01*
X36504500Y-70419298D01*
X36504500Y-70850701D01*
X36507401Y-70887567D01*
X36507402Y-70887573D01*
X36553254Y-71045393D01*
X36553255Y-71045396D01*
X36636917Y-71186862D01*
X36636923Y-71186870D01*
X36753129Y-71303076D01*
X36753133Y-71303079D01*
X36753135Y-71303081D01*
X36894602Y-71386744D01*
X36936224Y-71398836D01*
X37052426Y-71432597D01*
X37052429Y-71432597D01*
X37052431Y-71432598D01*
X37089306Y-71435500D01*
X37089314Y-71435500D01*
X38870686Y-71435500D01*
X38870694Y-71435500D01*
X38907569Y-71432598D01*
X38999883Y-71405778D01*
X39069750Y-71405977D01*
X39128421Y-71443918D01*
X39139403Y-71460922D01*
X39140301Y-71460369D01*
X39144091Y-71466514D01*
X39144092Y-71466516D01*
X39234660Y-71613350D01*
X39356650Y-71735340D01*
X39503484Y-71825908D01*
X39667247Y-71880174D01*
X39768323Y-71890500D01*
X40142402Y-71890499D01*
X40209441Y-71910183D01*
X40230083Y-71926818D01*
X40477639Y-72174374D01*
X40477649Y-72174385D01*
X40481979Y-72178715D01*
X40481980Y-72178716D01*
X40593784Y-72290520D01*
X40680595Y-72340639D01*
X40680597Y-72340641D01*
X40704165Y-72354248D01*
X40730715Y-72369577D01*
X40883443Y-72410501D01*
X40883446Y-72410501D01*
X41049154Y-72410501D01*
X41049170Y-72410500D01*
X43593331Y-72410500D01*
X43593347Y-72410501D01*
X43600943Y-72410501D01*
X43759054Y-72410501D01*
X43759057Y-72410501D01*
X43911785Y-72369577D01*
X43961904Y-72340639D01*
X44048716Y-72290520D01*
X44160520Y-72178716D01*
X44160520Y-72178714D01*
X44170728Y-72168507D01*
X44170729Y-72168504D01*
X47740520Y-68598716D01*
X47819577Y-68461784D01*
X47860501Y-68309057D01*
X47860501Y-68150942D01*
X47860501Y-68143347D01*
X47860500Y-68143329D01*
X47860500Y-57651153D01*
X51022000Y-57651153D01*
X51022000Y-57808846D01*
X51052761Y-57963489D01*
X51052764Y-57963501D01*
X51113102Y-58109172D01*
X51113109Y-58109185D01*
X51200710Y-58240288D01*
X51200713Y-58240292D01*
X51312207Y-58351786D01*
X51312211Y-58351789D01*
X51443314Y-58439390D01*
X51443327Y-58439397D01*
X51516578Y-58469738D01*
X51589003Y-58499737D01*
X51653647Y-58512595D01*
X51744349Y-58530638D01*
X51761105Y-58539402D01*
X51779585Y-58543423D01*
X51804623Y-58562167D01*
X51806260Y-58563023D01*
X51807839Y-58564574D01*
X51854077Y-58610812D01*
X51887562Y-58672135D01*
X51882578Y-58741827D01*
X51840706Y-58797760D01*
X51790588Y-58820110D01*
X51639008Y-58850261D01*
X51638998Y-58850264D01*
X51493327Y-58910602D01*
X51493314Y-58910609D01*
X51362211Y-58998210D01*
X51362207Y-58998213D01*
X51250713Y-59109707D01*
X51250710Y-59109711D01*
X51163109Y-59240814D01*
X51163102Y-59240827D01*
X51102764Y-59386498D01*
X51102761Y-59386510D01*
X51072000Y-59541153D01*
X51072000Y-59698846D01*
X51102761Y-59853489D01*
X51102764Y-59853501D01*
X51163102Y-59999172D01*
X51163109Y-59999185D01*
X51250710Y-60130288D01*
X51250713Y-60130292D01*
X51362207Y-60241786D01*
X51362211Y-60241789D01*
X51493314Y-60329390D01*
X51493327Y-60329397D01*
X51530821Y-60344927D01*
X51639003Y-60389737D01*
X51668667Y-60395637D01*
X51692509Y-60400380D01*
X51693237Y-60400760D01*
X51694057Y-60400698D01*
X51724124Y-60416917D01*
X51754420Y-60432764D01*
X51755067Y-60433608D01*
X51755550Y-60433869D01*
X51776845Y-60462015D01*
X51889052Y-60665035D01*
X51895086Y-60677563D01*
X51988169Y-60902279D01*
X51992761Y-60915404D01*
X52060092Y-61149106D01*
X52063187Y-61162662D01*
X52103932Y-61402449D01*
X52105489Y-61416267D01*
X52119305Y-61662193D01*
X52119500Y-61669148D01*
X52119500Y-63450234D01*
X52099815Y-63517273D01*
X52098602Y-63519125D01*
X52010609Y-63650814D01*
X52010602Y-63650827D01*
X51950264Y-63796498D01*
X51950261Y-63796510D01*
X51919500Y-63951153D01*
X51919500Y-64108846D01*
X51950261Y-64263489D01*
X51950264Y-64263501D01*
X52010602Y-64409172D01*
X52010609Y-64409185D01*
X52098210Y-64540288D01*
X52098213Y-64540292D01*
X52209707Y-64651786D01*
X52209711Y-64651789D01*
X52340814Y-64739390D01*
X52340827Y-64739397D01*
X52468686Y-64792357D01*
X52486503Y-64799737D01*
X52641153Y-64830499D01*
X52641156Y-64830500D01*
X52641158Y-64830500D01*
X52798844Y-64830500D01*
X52798845Y-64830499D01*
X52953497Y-64799737D01*
X53099179Y-64739394D01*
X53230289Y-64651789D01*
X53341789Y-64540289D01*
X53429394Y-64409179D01*
X53489737Y-64263497D01*
X53520500Y-64108842D01*
X53520500Y-63951158D01*
X53520500Y-63951155D01*
X53520499Y-63951153D01*
X53506613Y-63881344D01*
X53489737Y-63796503D01*
X53473494Y-63757288D01*
X53429397Y-63650827D01*
X53429390Y-63650814D01*
X53341398Y-63519125D01*
X53320520Y-63452447D01*
X53320500Y-63450234D01*
X53320500Y-61738953D01*
X53320501Y-61738949D01*
X53320500Y-61717415D01*
X53320522Y-61717339D01*
X53320521Y-61666035D01*
X53320522Y-61666035D01*
X53320519Y-61494384D01*
X53286864Y-61152735D01*
X53219884Y-60816030D01*
X53215916Y-60802949D01*
X53120227Y-60487516D01*
X53071697Y-60370360D01*
X52988846Y-60170343D01*
X52895155Y-59995063D01*
X52880914Y-59926662D01*
X52905913Y-59861418D01*
X52962218Y-59820047D01*
X53031951Y-59815685D01*
X53092195Y-59848930D01*
X53765513Y-60522248D01*
X53768880Y-60525748D01*
X53926649Y-60696421D01*
X54028238Y-60806318D01*
X54034561Y-60813722D01*
X54269549Y-61111801D01*
X54275272Y-61119678D01*
X54486156Y-61435287D01*
X54491243Y-61443589D01*
X54676704Y-61774752D01*
X54681125Y-61783427D01*
X54840042Y-62128143D01*
X54843768Y-62137138D01*
X54975149Y-62493261D01*
X54978157Y-62502521D01*
X55081187Y-62867836D01*
X55083460Y-62877303D01*
X55157510Y-63249572D01*
X55159034Y-63259189D01*
X55185747Y-63484888D01*
X55174078Y-63553777D01*
X55165709Y-63568353D01*
X55110604Y-63650824D01*
X55050264Y-63796498D01*
X55050261Y-63796510D01*
X55019500Y-63951153D01*
X55019500Y-64108846D01*
X55050261Y-64263489D01*
X55050264Y-64263501D01*
X55110602Y-64409172D01*
X55110609Y-64409185D01*
X55198210Y-64540288D01*
X55198213Y-64540292D01*
X55309707Y-64651786D01*
X55309711Y-64651789D01*
X55440814Y-64739390D01*
X55440827Y-64739397D01*
X55568686Y-64792357D01*
X55586503Y-64799737D01*
X55741153Y-64830499D01*
X55741156Y-64830500D01*
X55741158Y-64830500D01*
X55898844Y-64830500D01*
X55898845Y-64830499D01*
X56053497Y-64799737D01*
X56199179Y-64739394D01*
X56330289Y-64651789D01*
X56441789Y-64540289D01*
X56529394Y-64409179D01*
X56589737Y-64263497D01*
X56620500Y-64108842D01*
X56620500Y-63951158D01*
X56620500Y-63951155D01*
X56620499Y-63951153D01*
X56606613Y-63881344D01*
X56589737Y-63796503D01*
X56573494Y-63757288D01*
X56529397Y-63650827D01*
X56529390Y-63650814D01*
X56441790Y-63519712D01*
X56439351Y-63517273D01*
X56429207Y-63507129D01*
X56395723Y-63445810D01*
X56393205Y-63428302D01*
X56389121Y-63371188D01*
X56326508Y-62935711D01*
X56326507Y-62935704D01*
X56232991Y-62505818D01*
X56232988Y-62505808D01*
X56226589Y-62484016D01*
X56109039Y-62083677D01*
X55955289Y-61671461D01*
X55952642Y-61665665D01*
X55772531Y-61271275D01*
X55772527Y-61271268D01*
X55772217Y-61270701D01*
X55561676Y-60885125D01*
X55323817Y-60515012D01*
X55060161Y-60162811D01*
X54772051Y-59830316D01*
X54726560Y-59784825D01*
X52657074Y-57715339D01*
X52623589Y-57654016D01*
X52623138Y-57651849D01*
X52592238Y-57496510D01*
X52592237Y-57496503D01*
X52580726Y-57468713D01*
X52531897Y-57350827D01*
X52531890Y-57350814D01*
X52444289Y-57219711D01*
X52444286Y-57219707D01*
X52332792Y-57108213D01*
X52332788Y-57108210D01*
X52201685Y-57020609D01*
X52201672Y-57020602D01*
X52056001Y-56960264D01*
X52055989Y-56960261D01*
X51901345Y-56929500D01*
X51901342Y-56929500D01*
X51743658Y-56929500D01*
X51743655Y-56929500D01*
X51589010Y-56960261D01*
X51588998Y-56960264D01*
X51443327Y-57020602D01*
X51443314Y-57020609D01*
X51312211Y-57108210D01*
X51312207Y-57108213D01*
X51200713Y-57219707D01*
X51200710Y-57219711D01*
X51113109Y-57350814D01*
X51113102Y-57350827D01*
X51052764Y-57496498D01*
X51052761Y-57496510D01*
X51022000Y-57651153D01*
X47860500Y-57651153D01*
X47860500Y-55619765D01*
X47880185Y-55552726D01*
X47881398Y-55550874D01*
X47884976Y-55545520D01*
X47969394Y-55419179D01*
X48026824Y-55280528D01*
X48070662Y-55226130D01*
X48136956Y-55204064D01*
X48188834Y-55213423D01*
X48276503Y-55249737D01*
X48395952Y-55273497D01*
X48431153Y-55280499D01*
X48431156Y-55280500D01*
X48431158Y-55280500D01*
X48588844Y-55280500D01*
X48588845Y-55280499D01*
X48743497Y-55249737D01*
X48889179Y-55189394D01*
X49020289Y-55101789D01*
X49131789Y-54990289D01*
X49219394Y-54859179D01*
X49279737Y-54713497D01*
X49294684Y-54638355D01*
X49310209Y-54560308D01*
X49342594Y-54498397D01*
X49403310Y-54463823D01*
X49431826Y-54460500D01*
X52446540Y-54460500D01*
X52513579Y-54480185D01*
G37*
%TD.AperFunction*%
%TA.AperFunction,Conductor*%
G36*
X14605703Y-64308569D02*
G01*
X14612181Y-64314601D01*
X15538572Y-65240992D01*
X15568596Y-65289667D01*
X15589090Y-65351513D01*
X15589092Y-65351516D01*
X15679660Y-65498350D01*
X15801650Y-65620340D01*
X15948484Y-65710908D01*
X16010329Y-65731401D01*
X16059006Y-65761426D01*
X17763181Y-67465601D01*
X17796666Y-67526924D01*
X17799500Y-67553282D01*
X17799500Y-70784217D01*
X17779815Y-70851256D01*
X17763181Y-70871898D01*
X16992235Y-71642843D01*
X16930912Y-71676328D01*
X16872461Y-71674937D01*
X16788470Y-71652432D01*
X16659993Y-71618007D01*
X16611113Y-71611571D01*
X16367513Y-71579500D01*
X16367506Y-71579500D01*
X16072494Y-71579500D01*
X16072486Y-71579500D01*
X15794085Y-71616153D01*
X15780007Y-71618007D01*
X15567540Y-71674937D01*
X15495048Y-71694361D01*
X15495038Y-71694364D01*
X15222499Y-71807254D01*
X15222489Y-71807258D01*
X14967006Y-71954761D01*
X14732959Y-72134352D01*
X14732952Y-72134358D01*
X14612181Y-72255130D01*
X14550858Y-72288615D01*
X14481166Y-72283631D01*
X14425233Y-72241759D01*
X14400816Y-72176295D01*
X14400500Y-72167449D01*
X14400500Y-64402282D01*
X14420185Y-64335243D01*
X14472989Y-64289488D01*
X14542147Y-64279544D01*
X14605703Y-64308569D01*
G37*
%TD.AperFunction*%
%TA.AperFunction,Conductor*%
G36*
X45768834Y-55312914D02*
G01*
X45824767Y-55354786D01*
X45849184Y-55420250D01*
X45849500Y-55429096D01*
X45849500Y-67849902D01*
X45829815Y-67916941D01*
X45813181Y-67937583D01*
X43500084Y-70250681D01*
X43438761Y-70284166D01*
X43412403Y-70287000D01*
X42667611Y-70287000D01*
X42600572Y-70267315D01*
X42562072Y-70228096D01*
X42530340Y-70176650D01*
X42408351Y-70054661D01*
X42408350Y-70054660D01*
X42261516Y-69964092D01*
X42097753Y-69909826D01*
X42097751Y-69909825D01*
X41996684Y-69899500D01*
X41996677Y-69899500D01*
X41622597Y-69899500D01*
X41555558Y-69879815D01*
X41534916Y-69863181D01*
X40675090Y-69003355D01*
X40675088Y-69003352D01*
X40556217Y-68884481D01*
X40556216Y-68884480D01*
X40446068Y-68820886D01*
X40446066Y-68820885D01*
X40419285Y-68805423D01*
X40419284Y-68805422D01*
X40419283Y-68805422D01*
X40363381Y-68790443D01*
X40266557Y-68764499D01*
X40108443Y-68764499D01*
X40100847Y-68764499D01*
X40100831Y-68764500D01*
X39470907Y-68764500D01*
X39403868Y-68744815D01*
X39358113Y-68692011D01*
X39348169Y-68622853D01*
X39364175Y-68577380D01*
X39401912Y-68513568D01*
X39406744Y-68505398D01*
X39452598Y-68347569D01*
X39455500Y-68310694D01*
X39455500Y-67879306D01*
X39452598Y-67842431D01*
X39421420Y-67735116D01*
X39421619Y-67665247D01*
X39452813Y-67612842D01*
X39738838Y-67326818D01*
X39800161Y-67293333D01*
X39826519Y-67290499D01*
X40580002Y-67290499D01*
X40580008Y-67290499D01*
X40682797Y-67279999D01*
X40849334Y-67224814D01*
X40998656Y-67132712D01*
X41122712Y-67008656D01*
X41214814Y-66859334D01*
X41269999Y-66692797D01*
X41269998Y-66692797D01*
X41271728Y-66687580D01*
X41301753Y-66638903D01*
X41633393Y-66307264D01*
X41994114Y-65946543D01*
X42070775Y-65831811D01*
X42082794Y-65802796D01*
X42123578Y-65704332D01*
X42123580Y-65704328D01*
X42132389Y-65660040D01*
X42150500Y-65568996D01*
X42150500Y-62621004D01*
X42123581Y-62485677D01*
X42123580Y-62485676D01*
X42123580Y-62485672D01*
X42070775Y-62358189D01*
X42024355Y-62288716D01*
X41994114Y-62243457D01*
X41994111Y-62243453D01*
X40576545Y-60825887D01*
X40461807Y-60749222D01*
X40334332Y-60696421D01*
X40334322Y-60696418D01*
X40198996Y-60669500D01*
X40198994Y-60669500D01*
X40198993Y-60669500D01*
X35661519Y-60669500D01*
X35594480Y-60649815D01*
X35573838Y-60633181D01*
X34616819Y-59676162D01*
X34602115Y-59649234D01*
X34585523Y-59623416D01*
X34584631Y-59617215D01*
X34583334Y-59614839D01*
X34580500Y-59588481D01*
X34580500Y-59425316D01*
X34589939Y-59377864D01*
X34649735Y-59233501D01*
X34649737Y-59233497D01*
X34680500Y-59078842D01*
X34680500Y-58921158D01*
X34680500Y-58921155D01*
X34680499Y-58921153D01*
X34652162Y-58778691D01*
X34658389Y-58709100D01*
X34701252Y-58653922D01*
X34767142Y-58630678D01*
X34773779Y-58630500D01*
X38093331Y-58630500D01*
X38093347Y-58630501D01*
X38100943Y-58630501D01*
X38259054Y-58630501D01*
X38259057Y-58630501D01*
X38411785Y-58589577D01*
X38461904Y-58560639D01*
X38538197Y-58516592D01*
X38582971Y-58502207D01*
X38582868Y-58501689D01*
X38587378Y-58500791D01*
X38588044Y-58500578D01*
X38588834Y-58500500D01*
X38588842Y-58500500D01*
X38588850Y-58500498D01*
X38588854Y-58500498D01*
X38650021Y-58488330D01*
X38743497Y-58469737D01*
X38856166Y-58423067D01*
X38889172Y-58409397D01*
X38889172Y-58409396D01*
X38889179Y-58409394D01*
X39020289Y-58321789D01*
X39131789Y-58210289D01*
X39219394Y-58079179D01*
X39279737Y-57933497D01*
X39296798Y-57847727D01*
X39306231Y-57800308D01*
X39338616Y-57738397D01*
X39399332Y-57703823D01*
X39427848Y-57700500D01*
X42943331Y-57700500D01*
X42943347Y-57700501D01*
X42950943Y-57700501D01*
X43109054Y-57700501D01*
X43109057Y-57700501D01*
X43261785Y-57659577D01*
X43328328Y-57621158D01*
X43398716Y-57580520D01*
X43510520Y-57468716D01*
X43510520Y-57468714D01*
X43520724Y-57458511D01*
X43520727Y-57458506D01*
X45637821Y-55341413D01*
X45699142Y-55307930D01*
X45768834Y-55312914D01*
G37*
%TD.AperFunction*%
%TA.AperFunction,Conductor*%
G36*
X74932539Y-38022685D02*
G01*
X74978294Y-38075489D01*
X74989500Y-38127000D01*
X74989500Y-65910945D01*
X74969815Y-65977984D01*
X74917011Y-66023739D01*
X74847853Y-66033683D01*
X74784297Y-66004658D01*
X74767124Y-65986432D01*
X74754002Y-65969331D01*
X74595646Y-65762958D01*
X74595644Y-65762956D01*
X74595641Y-65762952D01*
X74387047Y-65554358D01*
X74387040Y-65554352D01*
X74152993Y-65374761D01*
X73897510Y-65227258D01*
X73897500Y-65227254D01*
X73624961Y-65114364D01*
X73624954Y-65114362D01*
X73624952Y-65114361D01*
X73339993Y-65038007D01*
X73291113Y-65031571D01*
X73047513Y-64999500D01*
X73047506Y-64999500D01*
X72752494Y-64999500D01*
X72752486Y-64999500D01*
X72474085Y-65036153D01*
X72460007Y-65038007D01*
X72208122Y-65105499D01*
X72175048Y-65114361D01*
X72175038Y-65114364D01*
X71902499Y-65227254D01*
X71902491Y-65227257D01*
X71873310Y-65244105D01*
X71805410Y-65260575D01*
X71739384Y-65237722D01*
X71723632Y-65224397D01*
X70849307Y-64350072D01*
X70815822Y-64288749D01*
X70819281Y-64223388D01*
X70845174Y-64145253D01*
X70855500Y-64044177D01*
X70855499Y-63445824D01*
X70855455Y-63445398D01*
X70845174Y-63344747D01*
X70826227Y-63287569D01*
X70790908Y-63180984D01*
X70700340Y-63034150D01*
X70586371Y-62920181D01*
X70552886Y-62858858D01*
X70557870Y-62789166D01*
X70586371Y-62744819D01*
X70637968Y-62693222D01*
X70700340Y-62630850D01*
X70790908Y-62484016D01*
X70845174Y-62320253D01*
X70855500Y-62219177D01*
X70855499Y-61620824D01*
X70848193Y-61549306D01*
X70845174Y-61519747D01*
X70827164Y-61465398D01*
X70790908Y-61355984D01*
X70700340Y-61209150D01*
X70578350Y-61087160D01*
X70578349Y-61087159D01*
X70539402Y-61063136D01*
X70532578Y-61055549D01*
X70523297Y-61051311D01*
X70509607Y-61030010D01*
X70492678Y-61011187D01*
X70490034Y-60999552D01*
X70485523Y-60992533D01*
X70480500Y-60957598D01*
X70480500Y-60832400D01*
X70500185Y-60765361D01*
X70539401Y-60726863D01*
X70578350Y-60702840D01*
X70700340Y-60580850D01*
X70790908Y-60434016D01*
X70845174Y-60270253D01*
X70855500Y-60169177D01*
X70855499Y-59570824D01*
X70845174Y-59469747D01*
X70790908Y-59305984D01*
X70700340Y-59159150D01*
X70578350Y-59037160D01*
X70461060Y-58964815D01*
X70431518Y-58946593D01*
X70431513Y-58946591D01*
X70430069Y-58946112D01*
X70267753Y-58892326D01*
X70267751Y-58892325D01*
X70166678Y-58882000D01*
X69593330Y-58882000D01*
X69593312Y-58882001D01*
X69492247Y-58892325D01*
X69328484Y-58946592D01*
X69328481Y-58946593D01*
X69181648Y-59037161D01*
X69059661Y-59159148D01*
X68969093Y-59305981D01*
X68969092Y-59305984D01*
X68914826Y-59469747D01*
X68914826Y-59469748D01*
X68914825Y-59469748D01*
X68904500Y-59570815D01*
X68904500Y-60169169D01*
X68904501Y-60169187D01*
X68914825Y-60270252D01*
X68945310Y-60362247D01*
X68969043Y-60433869D01*
X68969092Y-60434015D01*
X68969093Y-60434018D01*
X68987169Y-60463324D01*
X69059660Y-60580850D01*
X69181650Y-60702840D01*
X69220597Y-60726862D01*
X69227419Y-60734447D01*
X69236703Y-60738687D01*
X69250390Y-60759985D01*
X69267320Y-60778807D01*
X69269964Y-60790443D01*
X69274477Y-60797465D01*
X69279500Y-60832400D01*
X69279500Y-60957598D01*
X69259815Y-61024637D01*
X69220598Y-61063136D01*
X69181650Y-61087159D01*
X69059661Y-61209148D01*
X68969093Y-61355981D01*
X68969092Y-61355984D01*
X68917251Y-61512431D01*
X68914826Y-61519748D01*
X68914825Y-61519749D01*
X68905289Y-61613102D01*
X68904294Y-61615540D01*
X68904669Y-61618147D01*
X68891167Y-61647710D01*
X68878893Y-61677794D01*
X68876738Y-61679307D01*
X68875644Y-61681703D01*
X68848303Y-61699273D01*
X68821713Y-61717945D01*
X68818400Y-61718490D01*
X68816866Y-61719477D01*
X68781931Y-61724500D01*
X68605907Y-61724500D01*
X68538868Y-61704815D01*
X68493113Y-61652011D01*
X68483169Y-61582853D01*
X68499175Y-61537380D01*
X68524602Y-61494384D01*
X68541744Y-61465398D01*
X68587598Y-61307569D01*
X68590500Y-61270694D01*
X68590500Y-60839306D01*
X68587598Y-60802431D01*
X68586155Y-60797465D01*
X68547045Y-60662848D01*
X68541744Y-60644602D01*
X68458081Y-60503135D01*
X68458078Y-60503132D01*
X68453298Y-60496969D01*
X68455750Y-60495066D01*
X68429155Y-60446421D01*
X68434104Y-60376726D01*
X68454940Y-60344304D01*
X68453298Y-60343031D01*
X68458075Y-60336870D01*
X68458081Y-60336865D01*
X68541744Y-60195398D01*
X68587598Y-60037569D01*
X68590500Y-60000694D01*
X68590500Y-59569306D01*
X68587598Y-59532431D01*
X68575066Y-59489297D01*
X68545204Y-59386510D01*
X68541744Y-59374602D01*
X68458081Y-59233135D01*
X68458079Y-59233133D01*
X68458076Y-59233129D01*
X68341870Y-59116923D01*
X68341862Y-59116917D01*
X68200396Y-59033255D01*
X68200393Y-59033254D01*
X68042573Y-58987402D01*
X68042567Y-58987401D01*
X68005701Y-58984500D01*
X68005694Y-58984500D01*
X67435097Y-58984500D01*
X67368058Y-58964815D01*
X67347416Y-58948181D01*
X67067590Y-58668355D01*
X67067588Y-58668352D01*
X66948717Y-58549481D01*
X66948716Y-58549480D01*
X66853875Y-58494724D01*
X66811785Y-58470423D01*
X66659057Y-58429499D01*
X66500943Y-58429499D01*
X66493347Y-58429499D01*
X66493331Y-58429500D01*
X65165764Y-58429500D01*
X65098725Y-58409815D01*
X65052970Y-58357011D01*
X65043026Y-58287853D01*
X65070769Y-58227102D01*
X65070503Y-58226898D01*
X65071392Y-58225738D01*
X65072051Y-58224297D01*
X65074596Y-58221563D01*
X65075446Y-58220454D01*
X65075451Y-58220451D01*
X65167698Y-58100233D01*
X65225687Y-57960236D01*
X65240500Y-57847720D01*
X65240500Y-56372280D01*
X65225687Y-56259764D01*
X65167698Y-56119767D01*
X65075451Y-55999549D01*
X64955233Y-55907302D01*
X64955229Y-55907300D01*
X64839998Y-55859570D01*
X64815236Y-55849313D01*
X64801171Y-55847461D01*
X64702727Y-55834500D01*
X64698670Y-55834235D01*
X64698777Y-55832593D01*
X64638233Y-55814815D01*
X64592478Y-55762011D01*
X64582534Y-55692853D01*
X64611559Y-55629297D01*
X64617591Y-55622819D01*
X64821231Y-55419179D01*
X65027820Y-55212590D01*
X65089142Y-55179106D01*
X65158834Y-55184090D01*
X65214767Y-55225962D01*
X65239184Y-55291426D01*
X65239299Y-55294647D01*
X65239500Y-55297727D01*
X65254313Y-55410235D01*
X65254313Y-55410236D01*
X65310349Y-55545520D01*
X65312302Y-55550233D01*
X65404549Y-55670451D01*
X65524767Y-55762698D01*
X65664764Y-55820687D01*
X65777280Y-55835500D01*
X65777287Y-55835500D01*
X67252713Y-55835500D01*
X67252720Y-55835500D01*
X67365236Y-55820687D01*
X67505233Y-55762698D01*
X67625451Y-55670451D01*
X67717698Y-55550233D01*
X67775687Y-55410236D01*
X67789750Y-55303417D01*
X67818017Y-55239520D01*
X67876341Y-55201049D01*
X67946206Y-55200218D01*
X67951695Y-55201896D01*
X67992292Y-55215349D01*
X68091655Y-55225500D01*
X68638344Y-55225499D01*
X68638352Y-55225498D01*
X68638355Y-55225498D01*
X68692760Y-55219940D01*
X68737708Y-55215349D01*
X68898697Y-55162003D01*
X69043044Y-55072968D01*
X69162968Y-54953044D01*
X69252003Y-54808697D01*
X69305349Y-54647708D01*
X69315500Y-54548345D01*
X69315499Y-53951656D01*
X69312132Y-53918698D01*
X69305349Y-53852292D01*
X69305348Y-53852289D01*
X69287263Y-53797713D01*
X69252003Y-53691303D01*
X69251999Y-53691297D01*
X69251998Y-53691294D01*
X69162970Y-53546959D01*
X69162967Y-53546955D01*
X69043044Y-53427032D01*
X69043040Y-53427029D01*
X68898705Y-53338001D01*
X68898699Y-53337998D01*
X68898697Y-53337997D01*
X68788592Y-53301512D01*
X68737709Y-53284651D01*
X68638352Y-53274500D01*
X68638345Y-53274500D01*
X68290098Y-53274500D01*
X68223059Y-53254815D01*
X68218466Y-53251717D01*
X68209868Y-53245632D01*
X68168716Y-53204480D01*
X68081401Y-53154069D01*
X68076439Y-53151204D01*
X68076436Y-53151202D01*
X68031790Y-53125425D01*
X68031789Y-53125424D01*
X68013740Y-53120587D01*
X67879057Y-53084499D01*
X67879055Y-53084499D01*
X67872796Y-53083675D01*
X67808901Y-53055406D01*
X67770431Y-52997081D01*
X67769601Y-52927216D01*
X67774421Y-52913292D01*
X67775687Y-52910236D01*
X67790500Y-52797720D01*
X67790500Y-52572280D01*
X67775687Y-52459764D01*
X67775686Y-52459763D01*
X67774626Y-52451705D01*
X67777689Y-52451301D01*
X67777689Y-52418698D01*
X67774626Y-52418295D01*
X67781932Y-52362797D01*
X67790500Y-52297720D01*
X67790500Y-52072280D01*
X67775687Y-51959764D01*
X67775686Y-51959763D01*
X67774626Y-51951705D01*
X67777689Y-51951301D01*
X67777689Y-51918698D01*
X67774626Y-51918295D01*
X67787327Y-51821818D01*
X67790500Y-51797720D01*
X67790500Y-51643751D01*
X67810185Y-51576712D01*
X67862989Y-51530957D01*
X67932147Y-51521013D01*
X67953493Y-51526042D01*
X68102292Y-51575349D01*
X68201655Y-51585500D01*
X68798344Y-51585499D01*
X68798352Y-51585498D01*
X68798355Y-51585498D01*
X68852760Y-51579940D01*
X68897708Y-51575349D01*
X69058697Y-51522003D01*
X69058703Y-51521999D01*
X69061495Y-51521074D01*
X69131324Y-51518672D01*
X69191366Y-51554403D01*
X69222559Y-51616924D01*
X69224500Y-51638780D01*
X69224500Y-52260001D01*
X69224501Y-52260019D01*
X69235000Y-52362796D01*
X69235001Y-52362799D01*
X69290185Y-52529331D01*
X69290187Y-52529336D01*
X69316669Y-52572270D01*
X69382288Y-52678656D01*
X69506344Y-52802712D01*
X69655666Y-52894814D01*
X69822203Y-52949999D01*
X69924991Y-52960500D01*
X71325008Y-52960499D01*
X71427797Y-52949999D01*
X71594334Y-52894814D01*
X71743656Y-52802712D01*
X71760049Y-52786319D01*
X71821372Y-52752834D01*
X71847730Y-52750000D01*
X74000000Y-52750000D01*
X74000000Y-49997263D01*
X74019685Y-49930224D01*
X74039309Y-49908579D01*
X74038549Y-49907819D01*
X74086107Y-49860261D01*
X74167712Y-49778656D01*
X74259814Y-49629334D01*
X74314999Y-49462797D01*
X74325500Y-49360009D01*
X74325499Y-47659992D01*
X74314999Y-47557203D01*
X74259814Y-47390666D01*
X74167712Y-47241344D01*
X74043656Y-47117288D01*
X73923744Y-47043326D01*
X73894336Y-47025187D01*
X73894331Y-47025185D01*
X73892862Y-47024698D01*
X73727797Y-46970001D01*
X73727795Y-46970000D01*
X73625010Y-46959500D01*
X72224998Y-46959500D01*
X72224981Y-46959501D01*
X72122203Y-46970000D01*
X72122200Y-46970001D01*
X71955668Y-47025185D01*
X71955663Y-47025187D01*
X71806342Y-47117289D01*
X71709951Y-47213681D01*
X71648628Y-47247166D01*
X71622270Y-47250000D01*
X69500000Y-47250000D01*
X69500000Y-48126000D01*
X69497449Y-48134685D01*
X69498738Y-48143647D01*
X69487759Y-48167687D01*
X69480315Y-48193039D01*
X69473474Y-48198966D01*
X69469713Y-48207203D01*
X69447478Y-48221492D01*
X69427511Y-48238794D01*
X69416996Y-48241081D01*
X69410935Y-48244977D01*
X69376000Y-48250000D01*
X69342374Y-48250000D01*
X69275335Y-48230315D01*
X69254693Y-48213681D01*
X69253043Y-48212031D01*
X69253040Y-48212029D01*
X69108705Y-48123001D01*
X69108699Y-48122998D01*
X69108697Y-48122997D01*
X69068005Y-48109513D01*
X68947709Y-48069651D01*
X68848346Y-48059500D01*
X68251662Y-48059500D01*
X68251644Y-48059501D01*
X68152292Y-48069650D01*
X68152289Y-48069651D01*
X67991305Y-48122996D01*
X67991293Y-48123002D01*
X67974787Y-48133183D01*
X67941500Y-48142290D01*
X67908311Y-48151635D01*
X67907855Y-48151495D01*
X67907394Y-48151622D01*
X67874432Y-48141276D01*
X67841495Y-48131205D01*
X67841186Y-48130841D01*
X67840731Y-48130698D01*
X67818587Y-48104165D01*
X67796332Y-48077894D01*
X67796163Y-48077295D01*
X67795963Y-48077055D01*
X67786766Y-48043921D01*
X67775687Y-47959764D01*
X67775591Y-47959532D01*
X67774498Y-47951278D01*
X67777689Y-47930714D01*
X67777689Y-47918698D01*
X67774626Y-47918295D01*
X67775687Y-47910235D01*
X67790500Y-47797720D01*
X67790500Y-47572280D01*
X67775687Y-47459764D01*
X67717698Y-47319767D01*
X67625451Y-47199549D01*
X67505233Y-47107302D01*
X67505229Y-47107300D01*
X67427397Y-47075061D01*
X67365236Y-47049313D01*
X67341583Y-47046199D01*
X67252727Y-47034500D01*
X67252720Y-47034500D01*
X67197940Y-47034500D01*
X67130901Y-47014815D01*
X67110263Y-46998185D01*
X67025289Y-46913211D01*
X67025288Y-46913210D01*
X67025287Y-46913209D01*
X66894185Y-46825609D01*
X66894172Y-46825602D01*
X66748501Y-46765264D01*
X66748489Y-46765261D01*
X66593845Y-46734500D01*
X66593842Y-46734500D01*
X66436158Y-46734500D01*
X66436155Y-46734500D01*
X66281510Y-46765261D01*
X66281498Y-46765264D01*
X66135827Y-46825602D01*
X66135814Y-46825609D01*
X66004712Y-46913209D01*
X65981519Y-46936403D01*
X65919739Y-46998182D01*
X65858419Y-47031666D01*
X65832060Y-47034500D01*
X65777272Y-47034500D01*
X65664764Y-47049313D01*
X65664763Y-47049313D01*
X65602604Y-47075061D01*
X65594426Y-47076687D01*
X65590086Y-47079477D01*
X65555151Y-47084500D01*
X65325097Y-47084500D01*
X65258058Y-47064815D01*
X65237416Y-47048181D01*
X65226819Y-47037584D01*
X65213795Y-47013733D01*
X65212303Y-47012011D01*
X65212105Y-47010638D01*
X65193334Y-46976261D01*
X65190500Y-46949903D01*
X65190500Y-46719849D01*
X65199939Y-46672396D01*
X65225687Y-46610236D01*
X65240500Y-46497720D01*
X65240500Y-45022280D01*
X65225687Y-44909764D01*
X65167698Y-44769767D01*
X65075451Y-44649549D01*
X64955233Y-44557302D01*
X64955229Y-44557300D01*
X64839998Y-44509570D01*
X64815236Y-44499313D01*
X64800698Y-44497399D01*
X64702727Y-44484500D01*
X64702720Y-44484500D01*
X64477280Y-44484500D01*
X64477272Y-44484500D01*
X64364764Y-44499313D01*
X64364763Y-44499313D01*
X64224769Y-44557300D01*
X64199291Y-44576850D01*
X64165485Y-44602790D01*
X64100317Y-44627984D01*
X64031873Y-44613946D01*
X64014517Y-44602793D01*
X63955233Y-44557302D01*
X63955232Y-44557301D01*
X63955230Y-44557300D01*
X63839998Y-44509570D01*
X63815236Y-44499313D01*
X63800698Y-44497399D01*
X63702727Y-44484500D01*
X63702720Y-44484500D01*
X63477280Y-44484500D01*
X63474363Y-44484500D01*
X63407324Y-44464815D01*
X63361569Y-44412011D01*
X63351625Y-44342853D01*
X63380650Y-44279297D01*
X63415912Y-44251140D01*
X63419172Y-44249396D01*
X63419179Y-44249394D01*
X63550289Y-44161789D01*
X63661789Y-44050289D01*
X63749394Y-43919179D01*
X63752806Y-43910943D01*
X63809735Y-43773501D01*
X63809737Y-43773497D01*
X63840500Y-43618842D01*
X63840500Y-43461158D01*
X63840500Y-43461155D01*
X63840499Y-43461153D01*
X63827679Y-43396703D01*
X63809737Y-43306503D01*
X63809735Y-43306498D01*
X63749397Y-43160827D01*
X63749390Y-43160814D01*
X63661789Y-43029711D01*
X63661786Y-43029707D01*
X63550292Y-42918213D01*
X63550288Y-42918210D01*
X63419185Y-42830609D01*
X63419172Y-42830602D01*
X63273501Y-42770264D01*
X63273489Y-42770261D01*
X63118845Y-42739500D01*
X63118842Y-42739500D01*
X62961158Y-42739500D01*
X62961155Y-42739500D01*
X62806510Y-42770261D01*
X62806498Y-42770264D01*
X62660827Y-42830602D01*
X62660814Y-42830609D01*
X62529711Y-42918210D01*
X62529707Y-42918213D01*
X62418213Y-43029707D01*
X62418210Y-43029711D01*
X62330609Y-43160814D01*
X62330602Y-43160827D01*
X62270264Y-43306498D01*
X62270261Y-43306508D01*
X62239362Y-43461848D01*
X62232823Y-43475448D01*
X62231256Y-43487568D01*
X62216923Y-43508526D01*
X62212597Y-43517526D01*
X62209179Y-43521584D01*
X62109480Y-43621284D01*
X62080613Y-43671284D01*
X62030423Y-43758215D01*
X61989499Y-43910943D01*
X61989499Y-43910945D01*
X61989499Y-44079046D01*
X61989500Y-44079059D01*
X61989500Y-44374146D01*
X61989333Y-44374713D01*
X61989495Y-44375283D01*
X61979497Y-44408209D01*
X61969815Y-44441185D01*
X61969368Y-44441572D01*
X61969196Y-44442139D01*
X61942964Y-44464451D01*
X61917011Y-44486940D01*
X61916275Y-44487152D01*
X61915975Y-44487408D01*
X61889773Y-44494802D01*
X61882021Y-44497041D01*
X61881994Y-44497044D01*
X61864764Y-44499313D01*
X61864592Y-44499383D01*
X61856521Y-44500469D01*
X61836477Y-44497399D01*
X61823684Y-44497399D01*
X61823292Y-44500374D01*
X61815237Y-44499313D01*
X61815236Y-44499313D01*
X61780972Y-44494802D01*
X61702727Y-44484500D01*
X61702720Y-44484500D01*
X61477280Y-44484500D01*
X61477272Y-44484500D01*
X61399028Y-44494802D01*
X61364764Y-44499313D01*
X61364762Y-44499313D01*
X61356708Y-44500374D01*
X61356264Y-44497002D01*
X61341923Y-44496638D01*
X61323644Y-44497694D01*
X61323292Y-44500374D01*
X61315237Y-44499313D01*
X61315236Y-44499313D01*
X61280972Y-44494802D01*
X61202727Y-44484500D01*
X61202720Y-44484500D01*
X61129095Y-44484500D01*
X61062056Y-44464815D01*
X61016301Y-44412011D01*
X61006357Y-44342853D01*
X61035382Y-44279297D01*
X61041399Y-44272833D01*
X61173508Y-44140724D01*
X61173517Y-44140718D01*
X61183714Y-44130519D01*
X61183716Y-44130519D01*
X61185913Y-44128321D01*
X61218823Y-44105955D01*
X61218682Y-44105716D01*
X61222496Y-44103459D01*
X61224367Y-44102189D01*
X61225384Y-44101747D01*
X61225398Y-44101744D01*
X61366865Y-44018081D01*
X61483081Y-43901865D01*
X61566744Y-43760398D01*
X61612598Y-43602569D01*
X61615500Y-43565694D01*
X61615500Y-42034306D01*
X61612598Y-41997431D01*
X61566744Y-41839602D01*
X61483081Y-41698135D01*
X61483079Y-41698133D01*
X61483076Y-41698129D01*
X61366870Y-41581923D01*
X61366862Y-41581917D01*
X61225396Y-41498255D01*
X61225393Y-41498254D01*
X61067573Y-41452402D01*
X61067567Y-41452401D01*
X61030701Y-41449500D01*
X61030694Y-41449500D01*
X60599306Y-41449500D01*
X60599298Y-41449500D01*
X60562432Y-41452401D01*
X60562426Y-41452402D01*
X60404606Y-41498254D01*
X60404603Y-41498255D01*
X60256420Y-41585890D01*
X60255254Y-41583919D01*
X60200942Y-41605232D01*
X60132427Y-41591540D01*
X60123595Y-41585864D01*
X60123580Y-41585890D01*
X59975396Y-41498255D01*
X59975393Y-41498254D01*
X59817573Y-41452402D01*
X59817567Y-41452401D01*
X59780701Y-41449500D01*
X59780694Y-41449500D01*
X59349306Y-41449500D01*
X59349298Y-41449500D01*
X59312432Y-41452401D01*
X59312426Y-41452402D01*
X59154606Y-41498254D01*
X59154603Y-41498255D01*
X59013137Y-41581917D01*
X59013129Y-41581923D01*
X58896923Y-41698129D01*
X58896917Y-41698137D01*
X58813255Y-41839603D01*
X58813254Y-41839606D01*
X58767402Y-41997426D01*
X58767401Y-41997432D01*
X58764500Y-42034298D01*
X58764500Y-43315500D01*
X58761949Y-43324185D01*
X58763238Y-43333147D01*
X58752259Y-43357187D01*
X58744815Y-43382539D01*
X58737974Y-43388466D01*
X58734213Y-43396703D01*
X58711978Y-43410992D01*
X58692011Y-43428294D01*
X58681496Y-43430581D01*
X58675435Y-43434477D01*
X58640500Y-43439500D01*
X58606669Y-43439500D01*
X58606653Y-43439499D01*
X58599057Y-43439499D01*
X58440943Y-43439499D01*
X58357537Y-43461848D01*
X58288210Y-43480424D01*
X58288209Y-43480425D01*
X58245271Y-43505216D01*
X58245266Y-43505219D01*
X58238095Y-43509360D01*
X58151284Y-43559480D01*
X58071544Y-43639219D01*
X58065234Y-43644087D01*
X58039805Y-43653991D01*
X58015858Y-43667068D01*
X58007726Y-43666486D01*
X58000129Y-43669446D01*
X57973383Y-43664030D01*
X57946166Y-43662084D01*
X57939639Y-43657197D01*
X57931649Y-43655580D01*
X57912077Y-43636564D01*
X57890233Y-43620212D01*
X57887384Y-43612573D01*
X57881536Y-43606892D01*
X57875351Y-43580312D01*
X57865816Y-43554748D01*
X57865500Y-43545902D01*
X57865500Y-42034313D01*
X57865499Y-42034298D01*
X57862598Y-41997432D01*
X57862597Y-41997426D01*
X57816745Y-41839606D01*
X57816744Y-41839603D01*
X57816744Y-41839602D01*
X57733081Y-41698135D01*
X57733079Y-41698133D01*
X57733076Y-41698129D01*
X57616870Y-41581923D01*
X57616862Y-41581917D01*
X57475396Y-41498255D01*
X57475393Y-41498254D01*
X57317573Y-41452402D01*
X57317567Y-41452401D01*
X57280701Y-41449500D01*
X57280694Y-41449500D01*
X56849306Y-41449500D01*
X56849298Y-41449500D01*
X56812432Y-41452401D01*
X56812426Y-41452402D01*
X56654606Y-41498254D01*
X56654603Y-41498255D01*
X56506420Y-41585890D01*
X56505254Y-41583919D01*
X56450942Y-41605232D01*
X56382427Y-41591540D01*
X56373595Y-41585864D01*
X56373580Y-41585890D01*
X56225396Y-41498255D01*
X56225393Y-41498254D01*
X56067573Y-41452402D01*
X56067567Y-41452401D01*
X56030701Y-41449500D01*
X56030694Y-41449500D01*
X55599306Y-41449500D01*
X55599298Y-41449500D01*
X55562432Y-41452401D01*
X55562426Y-41452402D01*
X55404606Y-41498254D01*
X55404603Y-41498255D01*
X55256420Y-41585890D01*
X55255254Y-41583919D01*
X55200942Y-41605232D01*
X55132427Y-41591540D01*
X55123595Y-41585864D01*
X55123580Y-41585890D01*
X54975396Y-41498255D01*
X54975393Y-41498254D01*
X54817573Y-41452402D01*
X54817567Y-41452401D01*
X54780701Y-41449500D01*
X54780694Y-41449500D01*
X54349306Y-41449500D01*
X54349298Y-41449500D01*
X54312432Y-41452401D01*
X54312426Y-41452402D01*
X54154606Y-41498254D01*
X54154603Y-41498255D01*
X54013137Y-41581917D01*
X54013129Y-41581923D01*
X53896923Y-41698129D01*
X53896917Y-41698137D01*
X53813255Y-41839603D01*
X53813254Y-41839606D01*
X53767402Y-41997426D01*
X53767401Y-41997432D01*
X53764500Y-42034298D01*
X53764500Y-43565701D01*
X53767401Y-43602567D01*
X53767402Y-43602573D01*
X53813254Y-43760393D01*
X53813255Y-43760396D01*
X53896917Y-43901862D01*
X53896923Y-43901870D01*
X53928180Y-43933126D01*
X53961666Y-43994448D01*
X53964500Y-44020808D01*
X53964500Y-46998330D01*
X53964499Y-46998348D01*
X53964499Y-47164058D01*
X53979027Y-47218279D01*
X53977364Y-47288129D01*
X53964957Y-47311919D01*
X53966364Y-47312731D01*
X53962303Y-47319764D01*
X53904313Y-47459763D01*
X53904313Y-47459764D01*
X53889500Y-47572272D01*
X53889500Y-47797727D01*
X53904313Y-47910235D01*
X53904313Y-47910236D01*
X53962300Y-48050230D01*
X53962301Y-48050232D01*
X53962302Y-48050233D01*
X54007790Y-48109514D01*
X54032984Y-48174683D01*
X54018946Y-48243127D01*
X54007793Y-48260482D01*
X53984547Y-48290777D01*
X53962300Y-48319769D01*
X53904313Y-48459763D01*
X53904313Y-48459764D01*
X53889500Y-48572272D01*
X53889500Y-48797727D01*
X53898292Y-48864500D01*
X53904090Y-48908545D01*
X53905374Y-48918292D01*
X53902399Y-48918683D01*
X53902399Y-48951316D01*
X53905374Y-48951708D01*
X53889500Y-49072272D01*
X53889500Y-49297727D01*
X53905374Y-49418292D01*
X53902399Y-49418683D01*
X53902399Y-49451316D01*
X53905374Y-49451708D01*
X53889500Y-49572272D01*
X53889500Y-49797727D01*
X53905085Y-49916100D01*
X53905145Y-49916228D01*
X53905132Y-49916457D01*
X53905374Y-49918292D01*
X53905030Y-49918337D01*
X53904263Y-49932500D01*
X53905469Y-49951521D01*
X53904383Y-49959592D01*
X53904313Y-49959764D01*
X53902044Y-49976994D01*
X53902041Y-49977021D01*
X53887849Y-50008865D01*
X53873817Y-50040584D01*
X53873671Y-50040680D01*
X53873600Y-50040840D01*
X53844494Y-50059924D01*
X53815491Y-50079054D01*
X53815268Y-50079087D01*
X53815170Y-50079152D01*
X53814815Y-50079155D01*
X53779146Y-50084500D01*
X48015939Y-50084500D01*
X47985021Y-50092784D01*
X47985022Y-50092785D01*
X47863214Y-50125423D01*
X47863209Y-50125426D01*
X47726290Y-50204475D01*
X47726282Y-50204481D01*
X46769481Y-51161282D01*
X46769477Y-51161287D01*
X46726632Y-51235499D01*
X46726632Y-51235500D01*
X46690423Y-51298214D01*
X46679390Y-51339390D01*
X46649499Y-51450943D01*
X46649499Y-51450945D01*
X46649499Y-51619046D01*
X46649500Y-51619059D01*
X46649500Y-52510234D01*
X46629815Y-52577273D01*
X46628602Y-52579125D01*
X46540609Y-52710814D01*
X46540602Y-52710827D01*
X46480264Y-52856498D01*
X46480261Y-52856510D01*
X46449500Y-53011153D01*
X46449500Y-53135499D01*
X46429815Y-53202538D01*
X46377011Y-53248293D01*
X46325500Y-53259499D01*
X46190943Y-53259499D01*
X46111010Y-53280917D01*
X46038216Y-53300422D01*
X46004709Y-53319768D01*
X46004708Y-53319767D01*
X45901287Y-53379477D01*
X45901282Y-53379481D01*
X45829463Y-53451301D01*
X45789480Y-53491284D01*
X45789478Y-53491286D01*
X44290473Y-54990292D01*
X42817584Y-56463181D01*
X42756261Y-56496666D01*
X42729903Y-56499500D01*
X32500520Y-56499500D01*
X32433481Y-56479815D01*
X32387726Y-56427011D01*
X32377782Y-56357853D01*
X32406807Y-56294297D01*
X32412839Y-56287819D01*
X32434111Y-56266546D01*
X32434112Y-56266545D01*
X32434114Y-56266543D01*
X32510775Y-56151811D01*
X32563580Y-56024328D01*
X32572389Y-55980040D01*
X32590500Y-55888996D01*
X32590500Y-48261010D01*
X32590500Y-48261007D01*
X32587195Y-48244394D01*
X32563580Y-48125672D01*
X32543542Y-48077295D01*
X32510777Y-47998192D01*
X32434112Y-47883454D01*
X31676545Y-47125887D01*
X31561807Y-47049222D01*
X31434332Y-46996421D01*
X31434322Y-46996418D01*
X31298996Y-46969500D01*
X31298994Y-46969500D01*
X31298993Y-46969500D01*
X26291519Y-46969500D01*
X26224480Y-46949815D01*
X26203838Y-46933181D01*
X25356819Y-46086162D01*
X25323334Y-46024839D01*
X25320500Y-45998481D01*
X25320500Y-40570316D01*
X25329939Y-40522864D01*
X25389735Y-40378501D01*
X25389737Y-40378497D01*
X25420500Y-40223842D01*
X25420500Y-40066158D01*
X25420500Y-40066155D01*
X25420499Y-40066153D01*
X25389738Y-39911510D01*
X25389737Y-39911503D01*
X25389735Y-39911498D01*
X25329397Y-39765827D01*
X25329390Y-39765814D01*
X25241789Y-39634711D01*
X25241786Y-39634707D01*
X25130292Y-39523213D01*
X25130288Y-39523210D01*
X24999185Y-39435609D01*
X24999172Y-39435602D01*
X24853501Y-39375264D01*
X24853489Y-39375261D01*
X24698845Y-39344500D01*
X24698842Y-39344500D01*
X24541158Y-39344500D01*
X24541155Y-39344500D01*
X24386510Y-39375261D01*
X24386498Y-39375264D01*
X24240827Y-39435602D01*
X24240814Y-39435609D01*
X24109711Y-39523210D01*
X24109707Y-39523213D01*
X23998213Y-39634707D01*
X23998210Y-39634711D01*
X23910609Y-39765814D01*
X23910602Y-39765827D01*
X23850264Y-39911498D01*
X23850261Y-39911510D01*
X23819500Y-40066153D01*
X23819500Y-40223846D01*
X23850261Y-40378489D01*
X23850264Y-40378501D01*
X23910061Y-40522864D01*
X23919500Y-40570316D01*
X23919500Y-46271006D01*
X23919500Y-46408994D01*
X23919500Y-46408996D01*
X23919499Y-46408996D01*
X23946418Y-46544322D01*
X23946421Y-46544332D01*
X23999222Y-46671807D01*
X24075887Y-46786545D01*
X25503454Y-48214112D01*
X25618192Y-48290777D01*
X25734052Y-48338767D01*
X25745672Y-48343580D01*
X25745676Y-48343580D01*
X25745677Y-48343581D01*
X25881003Y-48370500D01*
X25881006Y-48370500D01*
X25881007Y-48370500D01*
X30888481Y-48370500D01*
X30955520Y-48390185D01*
X30976162Y-48406819D01*
X31153181Y-48583838D01*
X31167884Y-48610765D01*
X31184477Y-48636584D01*
X31185368Y-48642784D01*
X31186666Y-48645161D01*
X31189500Y-48671519D01*
X31189500Y-48915808D01*
X31169815Y-48982847D01*
X31117011Y-49028602D01*
X31047853Y-49038546D01*
X30996612Y-49018912D01*
X30984187Y-49010610D01*
X30984172Y-49010602D01*
X30838501Y-48950264D01*
X30838489Y-48950261D01*
X30683845Y-48919500D01*
X30683842Y-48919500D01*
X30526158Y-48919500D01*
X30526155Y-48919500D01*
X30371510Y-48950261D01*
X30371498Y-48950264D01*
X30227136Y-49010061D01*
X30179684Y-49019500D01*
X27387418Y-49019500D01*
X27320379Y-48999815D01*
X27318527Y-48998602D01*
X27254184Y-48955609D01*
X27254172Y-48955602D01*
X27108501Y-48895264D01*
X27108489Y-48895261D01*
X26953845Y-48864500D01*
X26953842Y-48864500D01*
X26796158Y-48864500D01*
X26796155Y-48864500D01*
X26641510Y-48895261D01*
X26641498Y-48895264D01*
X26495827Y-48955602D01*
X26495814Y-48955609D01*
X26364711Y-49043210D01*
X26364707Y-49043213D01*
X26253213Y-49154707D01*
X26253210Y-49154711D01*
X26165609Y-49285814D01*
X26165602Y-49285827D01*
X26105264Y-49431498D01*
X26105261Y-49431510D01*
X26074500Y-49586153D01*
X26074500Y-49743846D01*
X26105261Y-49898489D01*
X26105264Y-49898501D01*
X26165602Y-50044172D01*
X26165609Y-50044185D01*
X26253210Y-50175288D01*
X26253213Y-50175292D01*
X26364707Y-50286786D01*
X26364711Y-50286789D01*
X26495814Y-50374390D01*
X26495827Y-50374397D01*
X26641498Y-50434735D01*
X26641503Y-50434737D01*
X26796153Y-50465499D01*
X26796156Y-50465500D01*
X26796158Y-50465500D01*
X26953844Y-50465500D01*
X26953845Y-50465499D01*
X27108497Y-50434737D01*
X27120080Y-50429938D01*
X27167533Y-50420500D01*
X30179684Y-50420500D01*
X30227136Y-50429939D01*
X30312989Y-50465500D01*
X30371503Y-50489737D01*
X30526153Y-50520499D01*
X30526156Y-50520500D01*
X30526158Y-50520500D01*
X30683844Y-50520500D01*
X30683845Y-50520499D01*
X30838497Y-50489737D01*
X30984179Y-50429394D01*
X30996608Y-50421088D01*
X31063286Y-50400211D01*
X31130666Y-50418695D01*
X31177357Y-50470674D01*
X31189500Y-50524191D01*
X31189500Y-55478481D01*
X31180855Y-55507921D01*
X31174332Y-55537908D01*
X31170577Y-55542923D01*
X31169815Y-55545520D01*
X31153181Y-55566162D01*
X31046162Y-55673181D01*
X30984839Y-55706666D01*
X30958481Y-55709500D01*
X29345316Y-55709500D01*
X29297864Y-55700061D01*
X29153501Y-55640264D01*
X29153489Y-55640261D01*
X28998845Y-55609500D01*
X28998842Y-55609500D01*
X28841158Y-55609500D01*
X28841155Y-55609500D01*
X28686510Y-55640261D01*
X28686498Y-55640264D01*
X28540827Y-55700602D01*
X28540814Y-55700609D01*
X28409711Y-55788210D01*
X28409707Y-55788213D01*
X28298213Y-55899707D01*
X28298210Y-55899711D01*
X28210609Y-56030814D01*
X28210602Y-56030827D01*
X28150264Y-56176498D01*
X28150261Y-56176510D01*
X28119500Y-56331153D01*
X28119500Y-56375500D01*
X28099815Y-56442539D01*
X28047011Y-56488294D01*
X27995500Y-56499500D01*
X24186670Y-56499500D01*
X24186654Y-56499499D01*
X24179058Y-56499499D01*
X24020943Y-56499499D01*
X23868215Y-56540423D01*
X23868213Y-56540423D01*
X23868213Y-56540424D01*
X23731281Y-56619482D01*
X20759481Y-59591282D01*
X20759477Y-59591287D01*
X20724705Y-59651516D01*
X20713489Y-59670943D01*
X20680423Y-59728215D01*
X20639499Y-59880943D01*
X20639499Y-59880945D01*
X20639499Y-60049046D01*
X20639500Y-60049059D01*
X20639500Y-61115191D01*
X20619815Y-61182230D01*
X20567011Y-61227985D01*
X20497853Y-61237929D01*
X20434297Y-61208904D01*
X20427819Y-61202872D01*
X20321870Y-61096923D01*
X20321862Y-61096917D01*
X20237223Y-61046862D01*
X20180398Y-61013256D01*
X20180397Y-61013255D01*
X20180396Y-61013255D01*
X20180393Y-61013254D01*
X20022573Y-60967402D01*
X20022567Y-60967401D01*
X19985701Y-60964500D01*
X19985694Y-60964500D01*
X19735435Y-60964500D01*
X19668396Y-60944815D01*
X19666544Y-60943602D01*
X19568911Y-60878366D01*
X19386839Y-60802950D01*
X19386829Y-60802947D01*
X19193543Y-60764500D01*
X19193541Y-60764500D01*
X17472263Y-60764500D01*
X17441801Y-60755555D01*
X17410903Y-60748254D01*
X17408517Y-60745782D01*
X17405224Y-60744815D01*
X17384438Y-60720826D01*
X17362388Y-60697975D01*
X17360843Y-60693597D01*
X17359469Y-60692011D01*
X17350646Y-60664692D01*
X17327882Y-60550252D01*
X17325499Y-60526060D01*
X17325499Y-60463330D01*
X17325498Y-60463313D01*
X17315174Y-60362247D01*
X17306762Y-60336862D01*
X17260908Y-60198484D01*
X17170340Y-60051650D01*
X17048350Y-59929660D01*
X16901516Y-59839092D01*
X16737753Y-59784826D01*
X16737751Y-59784825D01*
X16636684Y-59774500D01*
X16636677Y-59774500D01*
X16523594Y-59774500D01*
X16499403Y-59772117D01*
X16476779Y-59767617D01*
X16448542Y-59762000D01*
X16448541Y-59762000D01*
X16251459Y-59762000D01*
X16200588Y-59772118D01*
X16176399Y-59774500D01*
X16074500Y-59774500D01*
X16007461Y-59754815D01*
X15961706Y-59702011D01*
X15950500Y-59650500D01*
X15950500Y-53025781D01*
X15970185Y-52958742D01*
X15986814Y-52938105D01*
X17227778Y-51697141D01*
X17227782Y-51697139D01*
X17367139Y-51557782D01*
X17476632Y-51393914D01*
X17516480Y-51297713D01*
X17534969Y-51253075D01*
X17534968Y-51253075D01*
X17538489Y-51244577D01*
X17552051Y-51211836D01*
X17578087Y-51080943D01*
X17590500Y-51018541D01*
X17590500Y-50821459D01*
X17590500Y-50821456D01*
X17568099Y-50708846D01*
X17560462Y-50670451D01*
X17560462Y-50670448D01*
X17556237Y-50649212D01*
X17552051Y-50628164D01*
X17528899Y-50572270D01*
X17519771Y-50550232D01*
X17476635Y-50446092D01*
X17476628Y-50446079D01*
X17367139Y-50282218D01*
X17367136Y-50282214D01*
X17227785Y-50142863D01*
X17227781Y-50142860D01*
X17063917Y-50033369D01*
X17063914Y-50033368D01*
X16940823Y-49982382D01*
X16940819Y-49982381D01*
X16933864Y-49979500D01*
X16881836Y-49957949D01*
X16785188Y-49938724D01*
X16780629Y-49937817D01*
X16780625Y-49937816D01*
X16688544Y-49919500D01*
X16688541Y-49919500D01*
X16491459Y-49919500D01*
X16491455Y-49919500D01*
X16399374Y-49937816D01*
X16399366Y-49937818D01*
X16394812Y-49938724D01*
X16298164Y-49957949D01*
X16246136Y-49979500D01*
X16239185Y-49982378D01*
X16239178Y-49982381D01*
X16116082Y-50033369D01*
X15952219Y-50142859D01*
X15890604Y-50204475D01*
X15812861Y-50282218D01*
X14612181Y-51482898D01*
X14550858Y-51516383D01*
X14481166Y-51511399D01*
X14425233Y-51469527D01*
X14400816Y-51404063D01*
X14400500Y-51395217D01*
X14400500Y-38127000D01*
X14420185Y-38059961D01*
X14472989Y-38014206D01*
X14524500Y-38003000D01*
X74865500Y-38003000D01*
X74932539Y-38022685D01*
G37*
%TD.AperFunction*%
%TD*%
%TA.AperFunction,Conductor*%
%TO.N,Net-(Q2-D)*%
G36*
X27544337Y-66704455D02*
G01*
X27611157Y-66724858D01*
X27656342Y-66778151D01*
X27667000Y-66828447D01*
X27667000Y-67376586D01*
X27667000Y-67514574D01*
X27667000Y-67514576D01*
X27666999Y-67514576D01*
X27693918Y-67649902D01*
X27693921Y-67649912D01*
X27746722Y-67777387D01*
X27823387Y-67892125D01*
X28946874Y-69015612D01*
X29061612Y-69092277D01*
X29189087Y-69145078D01*
X29189092Y-69145080D01*
X29189096Y-69145080D01*
X29189097Y-69145081D01*
X29324423Y-69172000D01*
X29324426Y-69172000D01*
X29324427Y-69172000D01*
X30819982Y-69172000D01*
X30887021Y-69191685D01*
X30907663Y-69208319D01*
X31363861Y-69664517D01*
X31397346Y-69725840D01*
X31400166Y-69754091D01*
X31391912Y-70294722D01*
X31371206Y-70361453D01*
X31317710Y-70406397D01*
X31264747Y-70416788D01*
X30707586Y-70402501D01*
X30645669Y-70384081D01*
X30556522Y-70329095D01*
X30556517Y-70329093D01*
X30556516Y-70329092D01*
X30392753Y-70274826D01*
X30392751Y-70274825D01*
X30291678Y-70264500D01*
X29693330Y-70264500D01*
X29693312Y-70264501D01*
X29592247Y-70274825D01*
X29428484Y-70329092D01*
X29396663Y-70348719D01*
X29329270Y-70367157D01*
X29328391Y-70367137D01*
X28803430Y-70353677D01*
X28741513Y-70335258D01*
X28731516Y-70329092D01*
X28712522Y-70322798D01*
X28567753Y-70274826D01*
X28567751Y-70274825D01*
X28466678Y-70264500D01*
X27868330Y-70264500D01*
X27868312Y-70264501D01*
X27767247Y-70274825D01*
X27767243Y-70274826D01*
X27641345Y-70316545D01*
X27599162Y-70322798D01*
X27261321Y-70314135D01*
X27194809Y-70292739D01*
X27150422Y-70238779D01*
X27140500Y-70190176D01*
X27140500Y-66825452D01*
X27160185Y-66758413D01*
X27212989Y-66712658D01*
X27265825Y-66701460D01*
X27544337Y-66704455D01*
G37*
%TD.AperFunction*%
%TD*%
M02*
