%TF.GenerationSoftware,KiCad,Pcbnew,9.0.5*%
%TF.CreationDate,2026-05-18T12:14:24+08:00*%
%TF.ProjectId,__buck,70a76275-636b-42e6-9b69-6361645f7063,rev?*%
%TF.SameCoordinates,Original*%
%TF.FileFunction,Paste,Bot*%
%TF.FilePolarity,Positive*%
%FSLAX46Y46*%
G04 Gerber Fmt 4.6, Leading zero omitted, Abs format (unit mm)*
G04 Created by KiCad (PCBNEW 9.0.5) date 2026-05-18 12:14:24*
%MOMM*%
%LPD*%
G01*
G04 APERTURE LIST*
G04 Aperture macros list*
%AMRoundRect*
0 Rectangle with rounded corners*
0 $1 Rounding radius*
0 $2 $3 $4 $5 $6 $7 $8 $9 X,Y pos of 4 corners*
0 Add a 4 corners polygon primitive as box body*
4,1,4,$2,$3,$4,$5,$6,$7,$8,$9,$2,$3,0*
0 Add four circle primitives for the rounded corners*
1,1,$1+$1,$2,$3*
1,1,$1+$1,$4,$5*
1,1,$1+$1,$6,$7*
1,1,$1+$1,$8,$9*
0 Add four rect primitives between the rounded corners*
20,1,$1+$1,$2,$3,$4,$5,0*
20,1,$1+$1,$4,$5,$6,$7,0*
20,1,$1+$1,$6,$7,$8,$9,0*
20,1,$1+$1,$8,$9,$2,$3,0*%
G04 Aperture macros list end*
%ADD10RoundRect,0.225000X0.250000X-0.225000X0.250000X0.225000X-0.250000X0.225000X-0.250000X-0.225000X0*%
%ADD11RoundRect,0.150000X-0.825000X-0.150000X0.825000X-0.150000X0.825000X0.150000X-0.825000X0.150000X0*%
%ADD12RoundRect,0.075000X0.700000X0.075000X-0.700000X0.075000X-0.700000X-0.075000X0.700000X-0.075000X0*%
%ADD13RoundRect,0.075000X0.075000X0.700000X-0.075000X0.700000X-0.075000X-0.700000X0.075000X-0.700000X0*%
%ADD14RoundRect,0.150000X-0.150000X-0.700000X0.150000X-0.700000X0.150000X0.700000X-0.150000X0.700000X0*%
%ADD15RoundRect,0.250000X-0.250000X-1.100000X0.250000X-1.100000X0.250000X1.100000X-0.250000X1.100000X0*%
%ADD16RoundRect,0.225000X0.225000X0.250000X-0.225000X0.250000X-0.225000X-0.250000X0.225000X-0.250000X0*%
%ADD17RoundRect,0.237500X0.237500X-0.250000X0.237500X0.250000X-0.237500X0.250000X-0.237500X-0.250000X0*%
%ADD18RoundRect,0.237500X0.250000X0.237500X-0.250000X0.237500X-0.250000X-0.237500X0.250000X-0.237500X0*%
%ADD19RoundRect,0.250000X-0.650000X0.800000X-0.650000X-0.800000X0.650000X-0.800000X0.650000X0.800000X0*%
%ADD20RoundRect,0.112500X0.187500X0.112500X-0.187500X0.112500X-0.187500X-0.112500X0.187500X-0.112500X0*%
%ADD21RoundRect,0.225000X-0.250000X0.225000X-0.250000X-0.225000X0.250000X-0.225000X0.250000X0.225000X0*%
%ADD22RoundRect,0.250000X-1.000000X-0.650000X1.000000X-0.650000X1.000000X0.650000X-1.000000X0.650000X0*%
%ADD23RoundRect,0.150000X0.825000X0.150000X-0.825000X0.150000X-0.825000X-0.150000X0.825000X-0.150000X0*%
%ADD24RoundRect,0.237500X-0.250000X-0.237500X0.250000X-0.237500X0.250000X0.237500X-0.250000X0.237500X0*%
%ADD25RoundRect,0.250000X0.475000X-0.337500X0.475000X0.337500X-0.475000X0.337500X-0.475000X-0.337500X0*%
%ADD26RoundRect,0.112500X-0.187500X-0.112500X0.187500X-0.112500X0.187500X0.112500X-0.187500X0.112500X0*%
%ADD27RoundRect,0.250000X-0.475000X0.337500X-0.475000X-0.337500X0.475000X-0.337500X0.475000X0.337500X0*%
G04 APERTURE END LIST*
D10*
%TO.C,C25*%
X59915000Y-61272500D03*
X59915000Y-59722500D03*
%TD*%
D11*
%TO.C,U3*%
X19095000Y-64305000D03*
X19095000Y-63035000D03*
X19095000Y-61765000D03*
X19095000Y-60495000D03*
X24045000Y-60495000D03*
X24045000Y-61765000D03*
X24045000Y-63035000D03*
X24045000Y-64305000D03*
%TD*%
D12*
%TO.C,U1*%
X66515000Y-47685000D03*
X66515000Y-48185000D03*
X66515000Y-48685000D03*
X66515000Y-49185000D03*
X66515000Y-49685000D03*
X66515000Y-50185000D03*
X66515000Y-50685000D03*
X66515000Y-51185000D03*
X66515000Y-51685000D03*
X66515000Y-52185000D03*
X66515000Y-52685000D03*
X66515000Y-53185000D03*
X66515000Y-53685000D03*
X66515000Y-54185000D03*
X66515000Y-54685000D03*
X66515000Y-55185000D03*
D13*
X64590000Y-57110000D03*
X64090000Y-57110000D03*
X63590000Y-57110000D03*
X63090000Y-57110000D03*
X62590000Y-57110000D03*
X62090000Y-57110000D03*
X61590000Y-57110000D03*
X61090000Y-57110000D03*
X60590000Y-57110000D03*
X60090000Y-57110000D03*
X59590000Y-57110000D03*
X59090000Y-57110000D03*
X58590000Y-57110000D03*
X58090000Y-57110000D03*
X57590000Y-57110000D03*
X57090000Y-57110000D03*
D12*
X55165000Y-55185000D03*
X55165000Y-54685000D03*
X55165000Y-54185000D03*
X55165000Y-53685000D03*
X55165000Y-53185000D03*
X55165000Y-52685000D03*
X55165000Y-52185000D03*
X55165000Y-51685000D03*
X55165000Y-51185000D03*
X55165000Y-50685000D03*
X55165000Y-50185000D03*
X55165000Y-49685000D03*
X55165000Y-49185000D03*
X55165000Y-48685000D03*
X55165000Y-48185000D03*
X55165000Y-47685000D03*
D13*
X57090000Y-45760000D03*
X57590000Y-45760000D03*
X58090000Y-45760000D03*
X58590000Y-45760000D03*
X59090000Y-45760000D03*
X59590000Y-45760000D03*
X60090000Y-45760000D03*
X60590000Y-45760000D03*
X61090000Y-45760000D03*
X61590000Y-45760000D03*
X62090000Y-45760000D03*
X62590000Y-45760000D03*
X63090000Y-45760000D03*
X63590000Y-45760000D03*
X64090000Y-45760000D03*
X64590000Y-45760000D03*
%TD*%
D14*
%TO.C,J1*%
X54565000Y-42800000D03*
X55815000Y-42800000D03*
X57065000Y-42800000D03*
X58315000Y-42800000D03*
X59565000Y-42800000D03*
X60815000Y-42800000D03*
D15*
X52715000Y-39600000D03*
X62665000Y-39600000D03*
%TD*%
D16*
%TO.C,C33*%
X69915000Y-54250000D03*
X68365000Y-54250000D03*
%TD*%
D17*
%TO.C,R7*%
X40055000Y-72727500D03*
X40055000Y-70902500D03*
%TD*%
%TO.C,R8*%
X41710000Y-72712500D03*
X41710000Y-70887500D03*
%TD*%
%TO.C,R19*%
X16500000Y-64787500D03*
X16500000Y-62962500D03*
%TD*%
D18*
%TO.C,R18*%
X58092500Y-59100000D03*
X56267500Y-59100000D03*
%TD*%
D17*
%TO.C,R20*%
X16350000Y-60762500D03*
X16350000Y-58937500D03*
%TD*%
D19*
%TO.C,Y1*%
X72925000Y-48510000D03*
X72925000Y-51410000D03*
X70625000Y-51410000D03*
X70625000Y-48510000D03*
%TD*%
D17*
%TO.C,R17*%
X69880000Y-59870000D03*
X69880000Y-58045000D03*
%TD*%
D20*
%TO.C,D4*%
X30055000Y-73315000D03*
X27955000Y-73315000D03*
%TD*%
D21*
%TO.C,C14*%
X68550000Y-47460000D03*
X68550000Y-49010000D03*
%TD*%
D22*
%TO.C,D2*%
X33005000Y-65000000D03*
X37005000Y-65000000D03*
%TD*%
D23*
%TO.C,U6*%
X67115000Y-59785000D03*
X67115000Y-61055000D03*
X67115000Y-62325000D03*
X67115000Y-63595000D03*
X62165000Y-63595000D03*
X62165000Y-62325000D03*
X62165000Y-61055000D03*
X62165000Y-59785000D03*
%TD*%
D17*
%TO.C,R16*%
X69880000Y-63745000D03*
X69880000Y-61920000D03*
%TD*%
D24*
%TO.C,R5*%
X28367500Y-65865000D03*
X30192500Y-65865000D03*
%TD*%
D25*
%TO.C,C10*%
X40055000Y-66202500D03*
X40055000Y-64127500D03*
%TD*%
D26*
%TO.C,D3*%
X28155000Y-63940000D03*
X30255000Y-63940000D03*
%TD*%
D10*
%TO.C,C16*%
X68500000Y-52185000D03*
X68500000Y-50635000D03*
%TD*%
D23*
%TO.C,U4*%
X37980000Y-68095000D03*
X37980000Y-69365000D03*
X37980000Y-70635000D03*
X37980000Y-71905000D03*
X33030000Y-71905000D03*
X33030000Y-70635000D03*
X33030000Y-69365000D03*
X33030000Y-68095000D03*
%TD*%
D27*
%TO.C,C9*%
X30145000Y-67483000D03*
X30145000Y-69558000D03*
%TD*%
D18*
%TO.C,R6*%
X29992500Y-71240000D03*
X28167500Y-71240000D03*
%TD*%
M02*
